<svg width="300" height="270" viewBox="0 0 300 270" fill="none" xmlns="http://www.w3.org/2000/svg">
<path d="M260.922 112.735C260.753 112.735 260.583 112.735 260.414 112.749C260.414 112.735 260.414 112.707 260.414 112.693C260.583 112.664 260.753 112.636 260.922 112.608C266.583 111.479 270.24 105.973 269.11 100.312C267.981 94.6645 262.475 90.9939 256.814 92.1233C256.644 92.1516 256.475 92.1939 256.305 92.2363C256.305 92.2221 256.291 92.1939 256.291 92.1798C256.447 92.1233 256.616 92.0527 256.771 91.9963C262.094 89.7798 264.607 83.6668 262.39 78.3304C260.174 73.008 254.047 70.4951 248.724 72.7116C248.569 72.7821 248.4 72.8527 248.244 72.9233C248.23 72.9092 248.23 72.881 248.216 72.8668C248.357 72.7821 248.513 72.6974 248.654 72.5986C253.44 69.3798 254.71 62.8857 251.491 58.0998C248.273 53.3139 241.778 52.0433 236.993 55.2621C236.851 55.361 236.71 55.4598 236.583 55.5586C236.569 55.5445 236.555 55.5304 236.541 55.5163C236.668 55.4033 236.795 55.2904 236.908 55.1633C240.974 51.0833 240.96 44.4621 236.88 40.3963C232.785 36.3163 226.178 36.3445 222.113 40.4245C221.986 40.5516 221.873 40.6645 221.76 40.7916C221.745 40.7774 221.731 40.7633 221.717 40.7492C221.816 40.608 221.915 40.4668 222.014 40.3257C225.218 35.5257 223.92 29.0457 219.12 25.841C214.32 22.6363 207.84 23.9351 204.635 28.7351C204.536 28.8763 204.451 29.0315 204.353 29.1727C204.338 29.1586 204.31 29.1586 204.296 29.1445C204.367 28.9892 204.451 28.8339 204.508 28.6786C206.71 23.3421 204.169 17.2433 198.833 15.041C193.496 12.8386 187.397 15.3798 185.195 20.7163C185.124 20.8857 185.068 21.041 185.011 21.2104C184.997 21.2104 184.983 21.1963 184.955 21.1963C184.997 21.0268 185.04 20.8574 185.068 20.688C186.169 15.0268 182.484 9.53508 176.823 8.4339C171.162 7.33273 165.67 11.0174 164.569 16.6786C164.541 16.848 164.513 17.0174 164.484 17.1868C164.47 17.1868 164.442 17.1868 164.428 17.1868C164.442 17.0174 164.442 16.848 164.442 16.6786C164.428 10.9186 159.755 6.24567 153.981 6.24567C148.207 6.25978 143.548 10.9327 143.548 16.7068C143.548 16.8763 143.548 17.0457 143.562 17.2151C143.548 17.2151 143.52 17.2151 143.505 17.2151C143.477 17.0457 143.449 16.8763 143.421 16.7068C142.291 11.0457 136.785 7.37508 131.138 8.50449C125.477 9.6339 121.807 15.1257 122.936 20.7868C122.964 20.9563 123.007 21.1257 123.049 21.2951C123.035 21.2951 123.007 21.3092 122.993 21.3092C122.936 21.1398 122.865 20.9845 122.809 20.8292C120.593 15.5068 114.48 12.9798 109.157 15.2104C103.835 17.4268 101.322 23.5398 103.538 28.8621C103.609 29.0174 103.68 29.1727 103.75 29.328C103.736 29.3421 103.708 29.3421 103.694 29.3563C103.609 29.2151 103.51 29.0598 103.411 28.9186C100.193 24.1327 93.6984 22.848 88.9125 26.0668C84.1267 29.2857 82.8419 35.7657 86.0608 40.5657C86.1596 40.7068 86.2584 40.848 86.3573 40.9751C86.3431 40.9892 86.329 41.0033 86.3149 41.0174C86.202 40.8904 86.089 40.7633 85.962 40.6504C81.882 36.5704 75.2608 36.5845 71.1949 40.6786C67.1149 44.7586 67.129 51.3798 71.2231 55.4457C71.3502 55.5727 71.4631 55.6857 71.5902 55.7986C71.5761 55.8127 71.562 55.8268 71.5478 55.841C71.4067 55.7421 71.2655 55.6433 71.1243 55.5445C66.3243 52.3398 59.8443 53.6386 56.6396 58.4386C53.4349 63.2386 54.7337 69.7186 59.5337 72.9233C59.6749 73.0221 59.8302 73.1068 59.9714 73.1916C59.9572 73.2057 59.9572 73.2339 59.9431 73.248C59.7878 73.1774 59.6325 73.1068 59.4631 73.0363C54.1267 70.8339 48.0278 73.3751 45.8255 78.6974C43.6231 84.0339 46.1643 90.1327 51.4867 92.3351C51.642 92.4057 51.8114 92.4621 51.9808 92.5186C51.9808 92.5327 51.9667 92.5468 51.9667 92.5751C51.7972 92.5327 51.6278 92.4904 51.4584 92.4621C45.7972 91.3468 40.3055 95.0457 39.1902 100.707C38.0749 106.368 41.7737 111.86 47.4349 112.961C47.6043 112.989 47.7737 113.017 47.9431 113.046C47.9431 113.06 47.9431 113.088 47.9431 113.102C47.7737 113.088 47.6043 113.088 47.4349 113.088C41.6749 113.088 37.002 117.775 37.002 123.535C37.002 129.295 41.689 133.968 47.449 133.968H47.4631C47.6325 133.968 47.802 133.968 47.9714 133.954C47.9714 133.968 47.9714 133.996 47.9714 134.01C47.802 134.039 47.6325 134.067 47.4631 134.095C41.802 135.224 38.1314 140.716 39.2608 146.377C40.249 151.347 44.6114 154.792 49.4961 154.792C50.1737 154.792 50.8514 154.721 51.5431 154.594C51.7125 154.566 51.882 154.523 52.0514 154.481C52.0514 154.495 52.0655 154.523 52.0655 154.537C51.9102 154.594 51.7408 154.664 51.5855 154.721C46.2631 156.937 43.7361 163.05 45.9525 168.373C47.6184 172.382 51.5008 174.81 55.609 174.81C56.9502 174.81 58.3055 174.556 59.6184 174.006C59.7737 173.935 59.9431 173.864 60.0984 173.794C60.1125 173.808 60.1125 173.822 60.1267 173.85C59.9855 173.935 59.8302 174.034 59.689 174.133C54.9031 177.352 53.6184 183.832 56.8372 188.632C58.8561 191.639 62.1596 193.262 65.5196 193.262C67.5243 193.262 69.5431 192.683 71.3361 191.483C71.4772 191.384 71.6184 191.286 71.7596 191.187C71.7737 191.201 71.7878 191.215 71.802 191.229C71.6749 191.342 71.5478 191.455 71.4349 191.582C67.3549 195.662 67.369 202.283 71.449 206.349C73.482 208.382 76.1643 209.399 78.8325 209.399C81.5149 209.399 84.1831 208.382 86.2302 206.335C86.3572 206.208 86.4702 206.095 86.5831 205.968C86.5972 205.982 86.6114 205.996 86.6255 206.01C86.5267 206.152 86.4278 206.293 86.329 206.434C83.1243 211.234 84.409 217.714 89.209 220.919C90.9878 222.104 93.0067 222.683 94.9973 222.683C98.3714 222.683 101.675 221.06 103.694 218.039C103.793 217.897 103.877 217.742 103.976 217.601C103.99 217.615 104.004 217.615 104.033 217.629C103.962 217.784 103.891 217.94 103.821 218.109C101.618 223.446 104.145 229.545 109.482 231.761C110.795 232.297 112.136 232.552 113.477 232.552C117.585 232.552 121.468 230.123 123.134 226.1C123.204 225.944 123.261 225.775 123.317 225.62C123.331 225.62 123.345 225.634 123.374 225.634C123.331 225.803 123.289 225.973 123.261 226.142C122.145 231.803 125.83 237.295 131.491 238.41C132.169 238.537 132.847 238.608 133.524 238.608C138.409 238.608 142.785 235.163 143.76 230.18C143.788 230.01 143.816 229.841 143.844 229.672C143.858 229.672 143.887 229.672 143.901 229.672C143.887 229.841 143.887 230.01 143.887 230.18C143.887 235.954 148.574 240.627 154.334 240.627C160.094 240.627 164.781 235.94 164.767 230.18C164.767 230.01 164.767 229.841 164.753 229.672C164.767 229.672 164.795 229.672 164.809 229.672C164.837 229.841 164.865 230.01 164.894 230.18C165.882 235.149 170.244 238.594 175.129 238.594C175.807 238.594 176.484 238.523 177.176 238.396C182.837 237.267 186.508 231.775 185.393 226.114C185.364 225.945 185.322 225.775 185.28 225.606C185.294 225.606 185.322 225.592 185.336 225.592C185.393 225.747 185.449 225.916 185.52 226.072C187.185 230.095 191.068 232.523 195.176 232.523C196.517 232.523 197.873 232.269 199.171 231.719C204.494 229.502 207.021 223.389 204.818 218.067C204.748 217.912 204.677 217.756 204.607 217.587C204.621 217.573 204.635 217.573 204.663 217.559C204.748 217.7 204.847 217.855 204.945 217.996C206.964 221.003 210.268 222.627 213.628 222.627C215.633 222.627 217.651 222.048 219.43 220.862C224.216 217.643 225.501 211.163 222.296 206.363C222.197 206.222 222.098 206.081 222 205.94C222.014 205.926 222.028 205.912 222.042 205.897C222.155 206.024 222.268 206.152 222.395 206.264C224.428 208.297 227.11 209.328 229.778 209.328C232.447 209.328 235.129 208.312 237.162 206.264C241.242 202.184 241.242 195.577 237.162 191.497C237.035 191.37 236.922 191.257 236.795 191.144C236.809 191.13 236.823 191.116 236.837 191.102C236.978 191.201 237.105 191.3 237.261 191.399C239.054 192.599 241.058 193.163 243.063 193.163C246.437 193.163 249.741 191.54 251.76 188.533C254.964 183.733 253.68 177.253 248.894 174.048C248.753 173.949 248.611 173.864 248.456 173.766C248.47 173.752 248.47 173.737 248.484 173.709C248.64 173.78 248.795 173.85 248.964 173.921C250.263 174.457 251.618 174.712 252.96 174.712C257.054 174.712 260.95 172.283 262.616 168.26C264.818 162.937 262.291 156.824 256.969 154.608C256.814 154.537 256.644 154.481 256.475 154.424C256.475 154.41 256.489 154.396 256.489 154.368C256.658 154.41 256.828 154.453 256.997 154.481C257.689 154.608 258.367 154.679 259.03 154.679C263.915 154.679 268.277 151.234 269.266 146.25C270.381 140.589 266.696 135.097 261.049 133.982C260.88 133.954 260.71 133.926 260.541 133.897C260.541 133.883 260.541 133.855 260.541 133.841C260.71 133.855 260.88 133.855 261.049 133.855C266.823 133.855 271.496 129.182 271.496 123.408C271.496 123.366 271.496 123.309 271.496 123.267C271.496 123.225 271.496 123.182 271.496 123.14C271.369 117.38 266.682 112.721 260.922 112.735Z" fill="#DADADA"/>
<path d="M224.435 194.435C266.121 152.749 266.121 85.1639 224.435 43.4783C182.75 1.79278 115.164 1.79278 73.4783 43.4783C31.7928 85.1639 31.7928 152.749 73.4784 194.435C115.164 236.121 182.75 236.121 224.435 194.435Z" fill="#00B5EC"/>
<path d="M138.565 225.705C138.565 219.945 143.238 215.257 149.012 215.257C154.786 215.257 159.459 219.93 159.459 225.705C159.459 231.479 154.786 236.152 149.026 236.152C143.252 236.152 138.579 231.479 138.565 225.705ZM126.169 233.935C120.508 232.82 116.824 227.328 117.939 221.667C119.054 216.006 124.546 212.321 130.207 213.436C135.868 214.552 139.553 220.043 138.438 225.705C137.463 230.688 133.087 234.133 128.202 234.133C127.539 234.133 126.861 234.062 126.169 233.935ZM159.586 225.69C158.471 220.029 162.141 214.537 167.802 213.408C173.464 212.279 178.955 215.963 180.085 221.625C181.214 227.286 177.529 232.777 171.868 233.907C171.176 234.048 170.499 234.105 169.821 234.105C164.936 234.105 160.574 230.66 159.586 225.69ZM104.174 227.286C98.8376 225.083 96.3106 218.97 98.5129 213.634C100.715 208.297 106.828 205.77 112.165 207.973C117.501 210.175 120.028 216.288 117.826 221.625C116.16 225.648 112.278 228.076 108.169 228.076C106.828 228.076 105.487 227.822 104.174 227.286ZM180.212 221.582C177.995 216.26 180.522 210.147 185.859 207.93C191.181 205.714 197.294 208.241 199.511 213.577C201.727 218.9 199.2 225.013 193.863 227.229C192.551 227.766 191.195 228.034 189.868 228.034C185.76 228.034 181.863 225.606 180.212 221.582ZM83.9153 216.457C79.1153 213.253 77.8306 206.759 81.0353 201.973C84.24 197.173 90.72 195.888 95.52 199.093C100.32 202.297 101.605 208.792 98.4 213.577C96.3811 216.585 93.0776 218.222 89.7035 218.222C87.7129 218.208 85.6941 217.643 83.9153 216.457ZM199.609 213.521C196.405 208.721 197.675 202.241 202.475 199.036C207.261 195.817 213.755 197.102 216.96 201.902C220.165 206.688 218.894 213.182 214.094 216.387C212.315 217.587 210.296 218.152 208.292 218.152C204.932 218.152 201.628 216.514 199.609 213.521ZM66.1553 201.888C62.0753 197.808 62.0753 191.201 66.1411 187.121C70.207 183.041 76.8282 183.027 80.9082 187.107C84.9882 191.187 85.0023 197.794 80.9223 201.874C78.8894 203.921 76.207 204.937 73.5247 204.937C70.8706 204.937 68.2023 203.921 66.1553 201.888ZM217.073 201.803C212.993 197.723 212.993 191.116 217.073 187.036C221.153 182.956 227.76 182.956 231.84 187.036C235.92 191.116 235.92 197.723 231.84 201.803C229.793 203.85 227.125 204.867 224.456 204.867C221.774 204.853 219.106 203.836 217.073 201.803ZM51.5717 184.17C48.367 179.37 49.6376 172.89 54.4235 169.672C59.2094 166.453 65.7035 167.737 68.9223 172.523C72.1411 177.309 70.8564 183.803 66.0706 187.008C64.2776 188.208 62.2588 188.787 60.2541 188.787C56.88 188.787 53.5764 187.163 51.5717 184.17ZM231.925 186.923C227.125 183.719 225.84 177.225 229.059 172.439C232.263 167.639 238.758 166.354 243.543 169.573C248.343 172.777 249.628 179.272 246.409 184.057C244.391 187.065 241.087 188.688 237.713 188.688C235.722 188.688 233.704 188.123 231.925 186.923ZM40.7011 163.926C38.4847 158.603 41.0117 152.476 46.3341 150.274C51.6564 148.057 57.7694 150.585 59.9859 155.907C62.2023 161.229 59.6753 167.342 54.3529 169.559C53.04 170.109 51.6847 170.363 50.3435 170.363C46.2635 170.363 42.367 167.935 40.7011 163.926ZM243.6 169.446C238.263 167.229 235.736 161.13 237.953 155.794C240.155 150.472 246.268 147.93 251.605 150.147C256.927 152.349 259.468 158.462 257.252 163.799C255.586 167.822 251.704 170.25 247.595 170.25C246.268 170.236 244.913 169.982 243.6 169.446ZM34.0235 141.93C32.8941 136.269 36.5788 130.777 42.2259 129.648C47.887 128.519 53.3788 132.203 54.5082 137.85C55.6376 143.512 51.9529 149.003 46.3059 150.133C45.6141 150.274 44.9364 150.345 44.2588 150.345C39.36 150.345 35.0117 146.9 34.0235 141.93ZM251.633 150.02C245.972 148.905 242.287 143.413 243.416 137.752C244.532 132.09 250.023 128.406 255.685 129.535C261.346 130.65 265.016 136.156 263.901 141.803C262.913 146.773 258.551 150.232 253.666 150.232C253.002 150.217 252.325 150.161 251.633 150.02ZM31.7647 119.088C31.7506 113.328 36.4235 108.641 42.1976 108.641C47.9717 108.627 52.6447 113.3 52.6588 119.074C52.6588 124.848 48 129.521 42.2259 129.535H42.2117C36.4376 129.521 31.7647 124.848 31.7647 119.088ZM245.252 118.947C245.252 118.905 245.252 118.862 245.252 118.82C245.252 118.777 245.252 118.749 245.252 118.721C245.238 112.947 249.911 108.274 255.671 108.26C261.445 108.246 266.132 112.919 266.146 118.679C266.146 118.721 266.146 118.763 266.146 118.806C266.146 118.862 266.146 118.905 266.146 118.947C266.146 124.721 261.473 129.394 255.699 129.394C249.925 129.394 245.252 124.721 245.252 118.947ZM42.1976 108.5C36.5364 107.385 32.8517 101.893 33.9529 96.2457C35.0682 90.5845 40.56 86.8998 46.2211 88.001C51.8823 89.1163 55.567 94.6081 54.4517 100.269C53.4776 105.253 49.1153 108.697 44.2164 108.697C43.5529 108.697 42.8753 108.641 42.1976 108.5ZM243.374 99.9445C242.245 94.2833 245.915 88.7775 251.562 87.648C257.209 86.5186 262.715 90.1892 263.859 95.8363C264.988 101.497 261.318 107.003 255.671 108.133C254.979 108.274 254.287 108.345 253.609 108.345C248.739 108.33 244.362 104.9 243.374 99.9445ZM46.2635 87.8739C40.927 85.6716 38.4 79.5586 40.6023 74.2363C42.8047 68.8998 48.9176 66.3728 54.24 68.5751C59.5764 70.7775 62.1035 76.8763 59.9011 82.2128C58.2353 86.2363 54.3529 88.6786 50.2447 88.6786C48.9176 88.6786 47.5623 88.4245 46.2635 87.8739ZM237.868 81.9022C235.652 76.5798 238.165 70.4528 243.487 68.2363C248.809 66.0198 254.922 68.5328 257.153 73.8551C259.369 79.1775 256.856 85.3045 251.534 87.521C250.221 88.0716 248.852 88.3257 247.511 88.3257C243.431 88.3257 239.534 85.9116 237.868 81.9022ZM54.3106 68.448C49.5106 65.2433 48.2117 58.7633 51.4164 53.9633C54.6212 49.1633 61.1011 47.8645 65.9011 51.0692C70.7011 54.2739 71.9859 60.7539 68.7953 65.5539C66.7764 68.5751 63.4729 70.1986 60.0988 70.1986C58.1082 70.2128 56.0894 69.648 54.3106 68.448ZM228.932 65.2857C225.713 60.4998 226.983 54.0057 231.769 50.7869C236.555 47.5681 243.049 48.8386 246.268 53.6245C249.487 58.4104 248.216 64.9045 243.431 68.1233C241.638 69.3233 239.619 69.9022 237.614 69.9022C234.24 69.9022 230.951 68.2927 228.932 65.2857ZM65.9859 50.9845C61.9059 46.9045 61.8917 40.2975 65.9576 36.2175C70.0376 32.1375 76.6447 32.1233 80.7247 36.1892C84.8047 40.2692 84.8188 46.8763 80.7388 50.9563C78.7059 53.0033 76.0235 54.0198 73.3411 54.0198C70.7011 54.0339 68.0329 53.0175 65.9859 50.9845ZM216.904 50.7163C212.824 46.6504 212.809 40.0292 216.875 35.9492C220.941 31.8692 227.562 31.841 231.642 35.921C235.722 39.9869 235.736 46.6081 231.671 50.688C229.623 52.7351 226.955 53.7657 224.273 53.7657C221.619 53.7657 218.951 52.7492 216.904 50.7163ZM80.8376 36.1045C77.6188 31.3186 78.9035 24.8245 83.6894 21.6057C88.4753 18.3869 94.9694 19.6575 98.1882 24.4575C101.407 29.2433 100.122 35.7375 95.3364 38.9563C93.5435 40.1563 91.5247 40.7351 89.52 40.7351C86.16 40.721 82.8564 39.0975 80.8376 36.1045ZM202.292 38.7586C197.492 35.5539 196.193 29.0739 199.398 24.2739C202.602 19.4739 209.082 18.1751 213.882 21.3798C218.682 24.5845 219.981 31.0645 216.776 35.8645C214.772 38.8857 211.454 40.5233 208.08 40.5233C206.089 40.5233 204.071 39.9445 202.292 38.7586ZM98.3011 24.3869C96.0847 19.0645 98.5976 12.9516 103.934 10.7351C109.256 8.51864 115.384 11.0316 117.586 16.3539C119.802 21.6763 117.289 27.7892 111.967 30.0057C110.654 30.5563 109.299 30.8104 107.958 30.8104C103.849 30.8245 99.967 28.3963 98.3011 24.3869ZM185.633 29.8928C180.296 27.6904 177.755 21.5916 179.958 16.2551C182.16 10.9186 188.259 8.37746 193.595 10.5798C198.932 12.7822 201.473 18.881 199.271 24.2175C197.605 28.241 193.708 30.6833 189.614 30.6833C188.287 30.6833 186.946 30.4292 185.633 29.8928ZM117.713 16.3116C116.583 10.6504 120.254 5.15864 125.915 4.02923C131.576 2.89981 137.068 6.5704 138.198 12.2316C139.327 17.8928 135.656 23.3845 129.995 24.5139C129.303 24.6551 128.612 24.7257 127.948 24.7257C123.063 24.7257 118.701 21.281 117.713 16.3116ZM167.576 24.4575C161.915 23.3422 158.231 17.8645 159.332 12.2033C160.433 6.54217 165.925 2.85746 171.586 3.95864C177.247 5.05981 180.932 10.5516 179.831 16.2128C178.856 21.1963 174.48 24.6551 169.595 24.6551C168.932 24.6551 168.254 24.5845 167.576 24.4575ZM148.786 22.6504C143.012 22.6645 138.339 17.9916 138.325 12.2175C138.311 6.45746 142.983 1.7704 148.758 1.75629C154.532 1.75629 159.205 6.41511 159.219 12.1892C159.219 17.9633 154.56 22.6504 148.786 22.6504Z" fill="#00B5EC"/>
<path d="M220.512 190.512C260.031 150.993 260.031 86.9205 220.512 47.4016C180.993 7.88279 116.92 7.8828 77.4014 47.4017C37.8825 86.9205 37.8825 150.993 77.4014 190.512C116.92 230.031 180.993 230.031 220.512 190.512Z" fill="white"/>
<path d="M147.713 213.168C146.851 213.154 145.99 213.14 145.143 213.097L145.171 212.462C146.019 212.49 146.88 212.519 147.727 212.533L147.713 213.168ZM150.282 213.168L150.268 212.533C151.115 212.519 151.976 212.49 152.823 212.462L152.851 213.097C152.004 213.14 151.129 213.154 150.282 213.168ZM142.574 212.97C141.713 212.914 140.851 212.843 140.004 212.759L140.061 212.123C140.908 212.208 141.755 212.279 142.602 212.335L142.574 212.97ZM155.421 212.956L155.379 212.321C156.226 212.264 157.087 212.194 157.92 212.109L157.976 212.744C157.143 212.829 156.282 212.9 155.421 212.956ZM137.449 212.476C136.602 212.377 135.741 212.25 134.894 212.137L134.993 211.502C135.826 211.629 136.687 211.742 137.52 211.841L137.449 212.476ZM160.546 212.476L160.461 211.841C161.308 211.742 162.155 211.615 162.988 211.502L163.087 212.137C162.254 212.25 161.393 212.363 160.546 212.476ZM132.353 211.728C131.506 211.573 130.659 211.417 129.826 211.248L129.953 210.627C130.786 210.796 131.633 210.966 132.466 211.107L132.353 211.728ZM165.628 211.7L165.515 211.064C166.348 210.909 167.195 210.754 168.028 210.585L168.155 211.206C167.322 211.389 166.475 211.559 165.628 211.7ZM127.313 210.683C126.48 210.486 125.633 210.274 124.814 210.062L124.983 209.441C125.802 209.653 126.635 209.864 127.468 210.062L127.313 210.683ZM170.668 210.669L170.527 210.048C171.36 209.85 172.193 209.639 173.011 209.427L173.181 210.048C172.348 210.26 171.501 210.472 170.668 210.669ZM122.343 209.37C121.524 209.13 120.691 208.876 119.887 208.608L120.084 208.001C120.889 208.255 121.708 208.509 122.527 208.749L122.343 209.37ZM175.651 209.342L175.468 208.721C176.287 208.481 177.106 208.227 177.91 207.959L178.108 208.566C177.289 208.848 176.47 209.102 175.651 209.342ZM117.43 207.775C116.626 207.493 115.807 207.182 115.016 206.872L115.242 206.279C116.033 206.589 116.851 206.886 117.642 207.168L117.43 207.775ZM180.536 207.747L180.324 207.14C181.129 206.857 181.934 206.561 182.724 206.25L182.95 206.843C182.16 207.168 181.355 207.464 180.536 207.747ZM112.616 205.912C111.826 205.587 111.035 205.234 110.244 204.881L110.513 204.302C111.289 204.655 112.08 204.994 112.87 205.319L112.616 205.912ZM185.336 205.897L185.082 205.305C185.859 204.98 186.649 204.641 187.411 204.288L187.68 204.867C186.917 205.22 186.127 205.573 185.336 205.897ZM107.915 203.794C107.153 203.427 106.376 203.032 105.614 202.636L105.91 202.072C106.659 202.467 107.435 202.848 108.197 203.215L107.915 203.794ZM190.009 203.78L189.727 203.201C190.489 202.834 191.251 202.453 192 202.057L192.296 202.622C191.548 203.032 190.771 203.413 190.009 203.78ZM103.341 201.422C102.593 201.013 101.844 200.575 101.096 200.137L101.421 199.587C102.155 200.025 102.903 200.448 103.637 200.857L103.341 201.422ZM194.569 201.422L194.259 200.857C194.993 200.448 195.741 200.025 196.475 199.587L196.8 200.137C196.066 200.575 195.317 201.013 194.569 201.422ZM198.988 198.81L198.649 198.274C199.369 197.822 200.089 197.356 200.795 196.89L201.148 197.427C200.442 197.893 199.708 198.359 198.988 198.81ZM98.8938 198.796C98.1738 198.344 97.4397 197.865 96.7338 197.399L97.0868 196.862C97.7927 197.328 98.5127 197.794 99.2327 198.26L98.8938 198.796ZM203.266 195.959L202.899 195.436C203.59 194.942 204.282 194.448 204.96 193.94L205.341 194.448C204.663 194.956 203.957 195.464 203.266 195.959ZM94.6162 195.944C93.9244 195.45 93.2186 194.942 92.5268 194.434L92.908 193.926C93.5856 194.434 94.2774 194.942 94.9832 195.436L94.6162 195.944ZM207.374 192.881L206.979 192.373C207.642 191.85 208.306 191.3 208.955 190.763L209.364 191.257C208.729 191.808 208.051 192.344 207.374 192.881ZM90.4938 192.853C89.8162 192.316 89.1527 191.78 88.5033 191.229L88.9127 190.735C89.5621 191.272 90.2256 191.822 90.8891 192.344L90.4938 192.853ZM211.327 189.577L210.903 189.097C211.539 188.533 212.174 187.954 212.795 187.375L213.233 187.841C212.611 188.434 211.962 189.013 211.327 189.577ZM86.5409 189.549C85.9056 188.984 85.2562 188.406 84.635 187.813L85.0727 187.347C85.6938 187.926 86.3291 188.505 86.9644 189.069L86.5409 189.549ZM215.082 186.076L214.63 185.624C215.237 185.032 215.844 184.41 216.423 183.803L216.889 184.241C216.31 184.848 215.689 185.469 215.082 186.076ZM82.7856 186.034C82.1786 185.441 81.5715 184.82 80.9785 184.199L81.4444 183.761C82.0374 184.368 82.6303 184.989 83.2374 185.582L82.7856 186.034ZM218.654 182.363L218.174 181.926C218.753 181.305 219.317 180.655 219.868 180.006L220.348 180.429C219.797 181.079 219.233 181.728 218.654 182.363ZM79.2138 182.321C78.635 181.686 78.0703 181.036 77.5056 180.401L77.9856 179.977C78.5362 180.627 79.115 181.262 79.6797 181.897L79.2138 182.321ZM222.014 178.453L221.52 178.043C222.056 177.394 222.593 176.716 223.115 176.039L223.623 176.434C223.087 177.126 222.55 177.803 222.014 178.453ZM75.868 178.424C75.3315 177.761 74.795 177.083 74.2727 176.406L74.7809 176.01C75.3033 176.688 75.8256 177.352 76.3621 178.015L75.868 178.424ZM225.162 174.387L224.64 174.006C225.134 173.314 225.642 172.622 226.122 171.916L226.644 172.283C226.164 172.975 225.656 173.695 225.162 174.387ZM72.7197 174.359C72.2256 173.667 71.7174 172.961 71.2374 172.255L71.7597 171.888C72.2397 172.58 72.7338 173.286 73.228 173.977L72.7197 174.359ZM228.084 170.137L227.548 169.785C228.014 169.064 228.466 168.344 228.917 167.624L229.468 167.963C229.002 168.683 228.55 169.417 228.084 170.137ZM69.8115 170.109C69.3456 169.389 68.8938 168.655 68.4421 167.935L68.9927 167.596C69.4303 168.316 69.8962 169.05 70.348 169.756L69.8115 170.109ZM230.767 165.733L230.216 165.408C230.64 164.674 231.063 163.912 231.459 163.163L232.023 163.46C231.614 164.236 231.19 164.984 230.767 165.733ZM67.1433 165.733C66.7197 164.999 66.2962 164.236 65.9009 163.488L66.4656 163.177C66.8609 163.926 67.2844 164.674 67.708 165.408L67.1433 165.733ZM64.715 161.201C64.3338 160.439 63.9527 159.662 63.5997 158.886L64.1785 158.617C64.5315 159.38 64.9127 160.156 65.2938 160.904L64.715 161.201ZM233.195 161.187L232.616 160.904C232.997 160.142 233.379 159.366 233.731 158.603L234.31 158.872C233.971 159.648 233.59 160.424 233.195 161.187ZM62.5268 156.556C62.188 155.78 61.8491 154.975 61.5385 154.184L62.1315 153.944C62.4421 154.735 62.7809 155.526 63.1197 156.288L62.5268 156.556ZM235.383 156.514L234.79 156.26C235.129 155.483 235.468 154.679 235.779 153.902L236.371 154.142C236.061 154.933 235.736 155.737 235.383 156.514ZM60.6068 151.799C60.3103 150.994 60.0138 150.189 59.7456 149.37L60.3527 149.159C60.6209 149.963 60.9174 150.768 61.2138 151.573L60.6068 151.799ZM237.317 151.728L236.724 151.502C237.021 150.697 237.303 149.893 237.586 149.088L238.193 149.3C237.91 150.104 237.614 150.923 237.317 151.728ZM58.955 146.928C58.7009 146.109 58.4609 145.276 58.2209 144.457L58.8421 144.288C59.068 145.107 59.308 145.926 59.5621 146.744L58.955 146.928ZM238.983 146.843L238.376 146.66C238.63 145.855 238.87 145.022 239.096 144.203L239.717 144.373C239.477 145.192 239.237 146.024 238.983 146.843ZM57.5574 141.973C57.3456 141.14 57.148 140.307 56.9644 139.474L57.5856 139.333C57.7691 140.166 57.9668 140.999 58.1785 141.817L57.5574 141.973ZM240.367 141.888L239.746 141.733C239.957 140.914 240.155 140.067 240.339 139.248L240.96 139.389C240.776 140.208 240.579 141.055 240.367 141.888ZM56.4421 136.947C56.2727 136.1 56.1315 135.253 55.9903 134.42L56.6256 134.321C56.7668 135.154 56.908 136.001 57.0774 136.834L56.4421 136.947ZM241.482 136.862L240.847 136.735C241.002 135.902 241.157 135.055 241.299 134.222L241.934 134.321C241.793 135.168 241.637 136.029 241.482 136.862ZM55.6091 131.864C55.4962 131.017 55.3833 130.156 55.2986 129.309L55.9338 129.239C56.0186 130.086 56.1315 130.933 56.2444 131.78L55.6091 131.864ZM242.315 131.78L241.68 131.695C241.793 130.862 241.906 130.001 241.99 129.154L242.626 129.224C242.527 130.072 242.428 130.933 242.315 131.78ZM55.0444 126.754C54.9738 125.907 54.9174 125.046 54.875 124.184L55.5103 124.156C55.5527 125.003 55.6091 125.864 55.6797 126.712L55.0444 126.754ZM242.866 126.669L242.23 126.613C242.301 125.766 242.357 124.904 242.4 124.057L243.035 124.086C242.993 124.947 242.936 125.822 242.866 126.669ZM54.7621 121.615C54.7338 120.768 54.7197 119.893 54.7197 119.046H55.355C55.355 119.893 55.3691 120.754 55.3974 121.601L54.7621 121.615ZM243.148 121.53L242.513 121.516C242.541 120.669 242.541 119.808 242.541 118.961V118.792H243.176V118.961C243.176 119.808 243.162 120.669 243.148 121.53ZM55.3974 116.476L54.7621 116.462C54.7903 115.615 54.8186 114.74 54.8609 113.893L55.4962 113.921C55.4538 114.782 55.4256 115.629 55.3974 116.476ZM242.499 116.236C242.47 115.389 242.442 114.528 242.386 113.681L243.021 113.639C243.063 114.486 243.106 115.361 243.134 116.208L242.499 116.236ZM55.6656 111.38L55.0303 111.323C55.1009 110.476 55.1856 109.615 55.2703 108.768L55.9056 108.839C55.8209 109.672 55.7362 110.533 55.6656 111.38ZM242.216 111.126C242.146 110.279 242.061 109.417 241.976 108.584L242.611 108.514C242.71 109.361 242.781 110.222 242.851 111.069L242.216 111.126ZM56.2162 106.297L55.5809 106.213C55.6938 105.366 55.8209 104.504 55.9621 103.672L56.5974 103.77C56.4562 104.603 56.3291 105.45 56.2162 106.297ZM241.651 106.043C241.539 105.21 241.411 104.363 241.27 103.516L241.906 103.417C242.047 104.264 242.174 105.126 242.287 105.959L241.651 106.043ZM57.035 101.243L56.3997 101.13C56.555 100.283 56.7386 99.4362 56.9221 98.6033L57.5433 98.7445C57.3738 99.5774 57.2044 100.41 57.035 101.243ZM240.819 101.003C240.663 100.17 240.48 99.3233 240.296 98.5045L240.917 98.3633C241.101 99.1963 241.284 100.043 241.44 100.876L240.819 101.003ZM58.1362 96.2598L57.515 96.1045C57.7268 95.2715 57.9385 94.4386 58.1644 93.6198L58.7856 93.7892C58.5597 94.608 58.348 95.441 58.1362 96.2598ZM239.703 96.0198C239.491 95.201 239.28 94.368 239.04 93.5492L239.661 93.3798C239.887 94.1986 240.113 95.0315 240.324 95.8645L239.703 96.0198ZM59.5056 91.3327L58.8986 91.1492C59.1527 90.3304 59.4209 89.4974 59.6891 88.6927L60.2962 88.8904C60.028 89.6951 59.7597 90.5139 59.5056 91.3327ZM238.32 91.0927C238.066 90.288 237.797 89.4692 237.529 88.6645L238.136 88.4527C238.419 89.2574 238.687 90.0762 238.941 90.8951L238.32 91.0927ZM61.1574 86.4763L60.5503 86.2504C60.8468 85.4457 61.1574 84.641 61.4821 83.8363L62.075 84.0763C61.7644 84.881 61.4538 85.6857 61.1574 86.4763ZM236.668 86.2645C236.371 85.4739 236.061 84.6692 235.736 83.8786L236.329 83.6386C236.654 84.4292 236.964 85.2339 237.261 86.0386L236.668 86.2645ZM63.0633 81.7186L62.4703 81.4645C62.8091 80.6739 63.1762 79.8833 63.5291 79.1068L64.108 79.3751C63.755 80.1516 63.4021 80.9421 63.0633 81.7186ZM234.748 81.5351C234.409 80.7586 234.056 79.9821 233.689 79.2198L234.268 78.9515C234.635 79.728 234.988 80.5045 235.327 81.2951L234.748 81.5351ZM65.2374 77.0739L64.6585 76.7915C65.0397 76.0292 65.435 75.2527 65.8444 74.5045L66.4091 74.801C66.0138 75.5633 65.6185 76.3257 65.2374 77.0739ZM232.588 76.9186C232.207 76.1562 231.811 75.3939 231.416 74.6598L231.981 74.3492C232.39 75.0974 232.786 75.8598 233.167 76.6221L232.588 76.9186ZM67.6515 72.5704L67.1009 72.2457C67.5244 71.4974 67.9621 70.7633 68.4138 70.0292L68.9644 70.368C68.5127 71.088 68.075 71.8221 67.6515 72.5704ZM230.174 72.4292C229.75 71.6951 229.313 70.961 228.875 70.2268L229.426 69.888C229.863 70.6221 230.315 71.3563 230.739 72.0904L230.174 72.4292ZM70.3197 68.1939L69.7833 67.841C70.2491 67.121 70.7291 66.401 71.2091 65.6951L71.7315 66.0621C71.2515 66.768 70.7715 67.488 70.3197 68.1939ZM227.506 68.0668C227.04 67.3468 226.56 66.641 226.094 65.9492L226.616 65.5821C227.096 66.288 227.576 67.008 228.042 67.7139L227.506 68.0668ZM73.2138 63.9727L72.6915 63.5915C73.1997 62.8998 73.708 62.208 74.2303 61.5304L74.7386 61.9257C74.2303 62.6033 73.708 63.2951 73.2138 63.9727ZM224.611 63.8739C224.117 63.1821 223.595 62.5045 223.073 61.8268L223.581 61.4315C224.103 62.1092 224.626 62.801 225.12 63.4927L224.611 63.8739ZM76.3338 59.921L75.8397 59.5115C76.3762 58.848 76.9409 58.1845 77.4915 57.5351L77.9715 57.9586C77.4209 58.608 76.8703 59.2574 76.3338 59.921ZM221.491 59.8221C220.955 59.1586 220.404 58.5092 219.854 57.8598L220.334 57.4362C220.899 58.0857 221.449 58.7492 221.986 59.4127L221.491 59.8221ZM79.6656 56.0386L79.1856 55.6151C79.7644 54.9798 80.3574 54.3445 80.9362 53.7374L81.4021 54.1751C80.8232 54.7821 80.2444 55.4174 79.6656 56.0386ZM218.16 55.9539C217.595 55.3327 217.002 54.6974 216.409 54.0904L216.875 53.6527C217.468 54.2739 218.061 54.8951 218.64 55.5304L218.16 55.9539ZM83.2091 52.3539L82.7574 51.9021C83.3644 51.3092 83.9856 50.7021 84.6068 50.1233L85.0444 50.5892C84.4233 51.168 83.8021 51.761 83.2091 52.3539ZM214.616 52.2692C214.009 51.6763 213.388 51.0833 212.767 50.5045L213.204 50.0386C213.826 50.6174 214.461 51.2245 215.068 51.8174L214.616 52.2692ZM86.9362 48.8668L86.5127 48.3868C87.148 47.8221 87.8115 47.2574 88.4609 46.7068L88.8703 47.201C88.2209 47.7374 87.5715 48.3021 86.9362 48.8668ZM210.875 48.7821C210.24 48.2174 209.59 47.6527 208.941 47.1163L209.35 46.6221C210 47.1727 210.663 47.7374 211.299 48.3021L210.875 48.7821ZM90.8609 45.5774L90.4656 45.0692C91.1291 44.5468 91.8209 44.0104 92.4986 43.5021L92.8797 44.0104C92.2021 44.5327 91.5103 45.0551 90.8609 45.5774ZM206.95 45.5068C206.287 44.9845 205.609 44.4621 204.917 43.9539L205.299 43.4457C205.99 43.9539 206.668 44.4904 207.346 45.0127L206.95 45.5068ZM94.9409 42.5139L94.5738 41.9915C95.2656 41.4974 95.9856 41.0033 96.6915 40.5374L97.0444 41.0739C96.3386 41.5398 95.6327 42.0339 94.9409 42.5139ZM202.856 42.4433C202.164 41.9492 201.459 41.4692 200.739 41.0033L201.091 40.4668C201.797 40.9468 202.517 41.4268 203.223 41.9209L202.856 42.4433ZM99.1903 39.6904L98.8515 39.1539C99.5715 38.7021 100.306 38.2504 101.04 37.8127L101.364 38.3633C100.63 38.7868 99.8962 39.2386 99.1903 39.6904ZM198.593 39.6057C197.873 39.1539 197.139 38.7021 196.404 38.2786L196.729 37.728C197.463 38.1657 198.211 38.6174 198.931 39.0692L198.593 39.6057ZM103.581 37.0927L103.27 36.528C104.019 36.1186 104.781 35.7092 105.529 35.3139L105.826 35.8786C105.077 36.2739 104.315 36.6833 103.581 37.0927ZM194.188 37.008C193.454 36.5986 192.691 36.1892 191.929 35.7939L192.226 35.2292C192.988 35.6245 193.75 36.0339 194.499 36.4433L194.188 37.008ZM108.099 34.7351L107.816 34.1562C108.579 33.7892 109.369 33.4221 110.146 33.0692L110.414 33.648C109.637 34.001 108.861 34.368 108.099 34.7351ZM189.628 34.6504C188.866 34.2833 188.089 33.9162 187.313 33.5633L187.581 32.9845C188.357 33.3374 189.148 33.7045 189.924 34.0715L189.628 34.6504ZM112.743 32.6315L112.489 32.0386C113.266 31.7139 114.07 31.3892 114.861 31.0786L115.087 31.6715C114.31 31.9821 113.52 32.3068 112.743 32.6315ZM184.955 32.5468C184.179 32.2221 183.374 31.8974 182.569 31.5868L182.795 30.9939C183.6 31.3045 184.404 31.6292 185.195 31.9539L184.955 32.5468ZM117.501 30.7821L117.289 30.1751C118.094 29.8927 118.913 29.6104 119.717 29.3421L119.915 29.9492C119.11 30.2315 118.291 30.4998 117.501 30.7821ZM180.183 30.7115C179.379 30.4292 178.56 30.1468 177.755 29.8927L177.953 29.2857C178.771 29.5539 179.59 29.8221 180.395 30.1186L180.183 30.7115ZM122.357 29.201L122.174 28.5939C122.993 28.3539 123.826 28.1139 124.644 27.9021L124.814 28.5233C123.995 28.7351 123.162 28.961 122.357 29.201ZM175.313 29.1304C174.508 28.8904 173.675 28.6645 172.856 28.4527L173.026 27.8315C173.859 28.0433 174.691 28.2833 175.51 28.5233L175.313 29.1304ZM127.299 27.888L127.157 27.2668C127.99 27.0692 128.837 26.8857 129.67 26.7021L129.797 27.3233C128.964 27.5068 128.131 27.6904 127.299 27.888ZM170.357 27.8315C169.539 27.6339 168.691 27.4504 167.859 27.281L167.986 26.6457C168.819 26.8151 169.666 26.9986 170.499 27.1962L170.357 27.8315ZM132.296 26.8433L132.183 26.208C133.03 26.0527 133.877 25.9115 134.724 25.7845L134.823 26.4198C133.99 26.561 133.129 26.7021 132.296 26.8433ZM165.36 26.801C164.527 26.6457 163.68 26.5186 162.833 26.3915L162.931 25.7562C163.779 25.8833 164.626 26.0245 165.473 26.1657L165.36 26.801ZM137.35 26.081L137.266 25.4457C138.113 25.3468 138.974 25.248 139.821 25.1633L139.877 25.7986C139.044 25.8833 138.197 25.9821 137.35 26.081ZM160.306 26.0527C159.459 25.9539 158.611 25.8551 157.764 25.7845L157.821 25.1492C158.668 25.2339 159.529 25.3186 160.376 25.4174L160.306 26.0527ZM142.447 25.5868L142.404 24.9515C143.251 24.8951 144.113 24.8386 144.974 24.8104L145.002 25.4457C144.141 25.488 143.28 25.5304 142.447 25.5868ZM155.209 25.5727C154.362 25.5162 153.501 25.4739 152.654 25.4315L152.682 24.7962C153.529 24.8245 154.404 24.8668 155.251 24.9374L155.209 25.5727ZM147.543 25.3751L147.529 24.7398C148.39 24.7257 149.251 24.7257 150.099 24.7398L150.084 25.3751C149.251 25.361 148.39 25.361 147.543 25.3751Z" fill="#18B3E9"/>
<path d="M257.463 123.874C255.558 122.66 253.355 122.208 250.729 120.401C250.405 119.54 250.263 118.552 251.209 117.464C252.551 115.926 256.348 117.267 259.073 113.921C261.43 111.027 259.242 106.001 257.28 104.448C255.332 102.895 251.661 101.427 248.598 105.196C246.762 107.455 247.92 110.773 245.718 113.074C245.35 113.455 244.998 113.709 244.673 113.879C242.95 111.14 241.511 108.133 240.551 106.622C239.195 104.49 234.889 104.081 233.181 107.413C232.927 107.907 232.701 108.443 232.503 108.98C232.475 109.036 232.433 109.079 232.405 109.135C231.261 111.337 230.682 113.921 230.908 116.744C230.245 117.182 229.553 117.761 228.847 118.495C225.67 121.799 226.63 128.095 231.205 132.768C235.779 137.427 242.287 138.74 245.421 135.394C245.929 134.843 246.381 134.321 246.762 133.827C249.84 134.137 252.593 133.615 254.245 132.98C256.122 132.26 257.449 131.187 258.085 130.015C260.146 128.137 260.174 125.596 257.463 123.874ZM244.094 133.53C241.75 136.043 236.654 134.843 232.969 131.088C229.285 127.333 228.353 122.406 230.739 119.921C230.951 119.695 231.162 119.497 231.374 119.314C231.995 121.841 233.252 124.509 235.327 127.276C237.953 130.763 241.158 132.57 244.249 133.375C244.193 133.417 244.15 133.474 244.094 133.53Z" fill="#EDEDED"/>
<path d="M240.96 118.693C236.386 114.034 232.263 110.335 226.743 116.067C223.567 119.37 224.527 125.667 229.101 130.34C233.675 134.999 240.183 136.312 243.318 132.966C249.685 126.175 245.534 123.366 240.96 118.693ZM241.948 131.102C239.605 133.615 234.508 132.415 230.823 128.66C227.139 124.904 226.207 119.977 228.593 117.493C232.715 113.187 236.033 116.18 239.718 119.935C243.402 123.69 246.706 125.992 241.948 131.102Z" fill="#B4B4B4"/>
<path d="M243.939 116.109C241.214 113.06 238.955 107.963 237.614 105.874C236.273 103.785 231.995 103.403 230.287 106.693C227.831 111.436 227.944 117.874 233.167 124.82C239.238 132.909 248.428 131.935 252.127 130.537C256.617 128.843 257.915 125.088 254.315 122.815C251.591 121.107 248.273 120.98 243.939 116.109Z" fill="#2EA8D3"/>
<path d="M244.842 114.585C242.09 111.479 239.788 106.312 238.419 104.194C237.064 102.062 232.758 101.653 231.05 104.985C228.607 109.77 228.762 116.279 234.057 123.352C240.212 131.568 249.445 130.65 253.158 129.253C257.661 127.559 258.96 123.761 255.318 121.446C252.565 119.681 249.233 119.54 244.842 114.585Z" fill="#6DC9F3"/>
<path d="M239.336 111.959C238.63 112.961 239.929 115.643 242.301 117.832C244.263 119.639 247.75 121.545 248.993 120.472C250.235 119.399 246.988 117.436 249.092 115.036C250.447 113.497 254.23 114.839 256.955 111.493C259.313 108.599 257.125 103.573 255.162 102.02C253.214 100.467 249.543 98.9986 246.48 102.768C244.645 105.027 245.802 108.345 243.6 110.646C241.553 112.763 240.042 110.956 239.336 111.959Z" fill="#FAC182"/>
<path d="M255.459 102.782C255.882 103.192 256.052 103.7 255.84 103.912C255.628 104.137 255.12 103.982 254.682 103.587C254.259 103.177 254.089 102.669 254.301 102.457C254.513 102.232 255.035 102.373 255.459 102.782Z" fill="#B6804D"/>
<path d="M236.018 39.5492C236.258 39.4221 236.4 39.3374 236.414 39.2951C236.696 38.5892 235.976 36.9516 235.51 36.8668C235.468 36.8527 235.171 36.9374 234.691 37.0927C234.113 34.4951 232.433 30.8669 231.402 30.5139C230.978 30.3727 228.833 30.9657 226.023 31.8974C225.317 30.6833 222.113 32.321 220.997 29.2716C220.235 27.1821 221.195 25.1492 220.136 22.0857C218.95 18.641 215.83 18.048 213.345 19.121C210.861 20.1798 208.56 22.2692 209.618 25.5021C210.593 28.5092 212.908 28.9327 213.967 32.2363C214.884 35.1021 212.724 35.7233 212.95 36.7821C210.127 37.9539 208.08 38.8998 207.91 39.2245C207.529 39.9727 208.673 43.8551 209.844 46.2692C209.35 46.481 209.04 46.6363 209.025 46.6786C208.814 47.1727 209.463 48.9092 209.929 49.1069C209.957 49.121 210.084 49.0927 210.296 49.0363C211.595 56.5327 221.11 92.3492 224.428 94.6786C230.004 98.5751 255.12 89.4127 255.938 83.0316C256.291 79.8833 240.169 46.1563 236.018 39.5492Z" fill="#DADADA"/>
<path d="M113.732 31.5022C113.506 30.7963 113.28 30.1045 113.054 29.3986C112.969 29.088 112.885 28.7633 112.772 28.4527C107.407 11.4269 98.6398 -3.46725 84.6916 0.923336C74.4986 4.12804 72.7763 15.3516 74.5269 27.1822C61.6516 26.8575 55.7363 42.1045 53.1245 58.8057C53.068 59.1304 53.0257 59.4551 52.9974 59.7798C52.8704 60.4998 52.7433 61.2339 52.6304 61.9539C50.7669 73.8975 57.9669 81.521 68.061 83.1022C78.1692 84.6833 87.2327 80.3069 89.2092 67.6716C89.308 66.9939 89.4069 66.3163 89.5057 65.6386C89.5763 65.2716 89.6469 64.9045 89.7033 64.5233C90.1692 61.5445 90.508 58.4528 90.6492 55.3892C94.0657 56.1939 97.821 55.9257 101.605 54.7257C111.374 51.648 117.36 43.0363 113.732 31.5022Z" fill="#DADADA"/>
<path d="M117.628 29.8786C121.256 41.4127 115.285 50.0245 105.529 53.088C95.7741 56.1515 86.1459 53.1868 82.3059 40.9892C77.4776 25.6433 75.7835 6.68329 89.5482 2.34917C103.496 -2.04142 112.278 12.8386 117.628 29.8786Z" fill="white" stroke="#DADADA" stroke-width="2.7813" stroke-miterlimit="10"/>
<path d="M116.668 26.8292C120.297 38.3633 114.325 46.9751 104.569 50.0527C94.8141 53.1304 85.1859 50.1515 81.3459 37.9539C76.5177 22.608 74.8236 3.64801 88.5883 -0.686106C102.537 -5.09081 111.318 9.80331 116.668 26.8292Z" fill="#79CDF4"/>
<path d="M84.0566 43.8268C88.7719 51.0551 96.6213 52.5515 104.57 50.0527C112.419 47.5821 117.826 41.5115 117.741 33.2245C117.741 33.2245 113.845 32.1515 100.25 36.4292C86.6402 40.7209 84.0566 43.8268 84.0566 43.8268Z" fill="#EDEDED"/>
<path d="M105.05 9.67627C106.151 13.1916 105.374 16.8904 103.271 19.7986C97.9767 14.6457 88.4897 15.7751 87.8403 24.3304C84.6638 23.088 82.1085 20.5892 81.0497 17.2292C79.1155 11.088 82.9273 4.4245 89.5485 2.33509C96.1838 0.259795 103.13 3.54921 105.05 9.67627Z" fill="#00ABDB"/>
<path d="M91.2708 8.20798C79.5249 11.9068 87.0919 23.7374 87.0355 23.9774C87.3037 24.1045 87.5719 24.2315 87.8543 24.3303C88.5037 15.775 97.9908 14.6456 103.285 19.7986C103.398 19.6292 103.525 19.4597 103.624 19.2903C104.075 13.9397 100.447 5.32798 91.2708 8.20798Z" fill="#0094C5"/>
<path d="M89.0685 35.3563C89.4355 36.5139 88.7861 37.7563 87.6285 38.1092C86.4708 38.4763 85.2285 37.8269 84.8614 36.6692C84.4944 35.5116 85.1438 34.2692 86.3014 33.9022C87.4591 33.5492 88.7014 34.1845 89.0685 35.3563Z" fill="#EDEDED"/>
<path d="M88.2497 28.3398C88.6167 29.4975 87.9673 30.7398 86.8097 31.0927C85.652 31.4598 84.4097 30.8104 84.0567 29.6527C83.6897 28.4951 84.3391 27.2527 85.4967 26.8998C86.6544 26.5327 87.8826 27.1822 88.2497 28.3398Z" fill="#EDEDED"/>
<path d="M87.3743 28.608C87.5861 29.2856 87.2049 30.0198 86.5273 30.2315C85.8496 30.4433 85.1296 30.0621 84.9038 29.3845C84.692 28.7068 85.0732 27.9727 85.7508 27.7609C86.4426 27.5492 87.1626 27.9303 87.3743 28.608Z" fill="#00ABDB"/>
<path d="M88.1932 35.6245C88.405 36.3021 88.0238 37.0221 87.3461 37.248C86.6685 37.4598 85.9344 37.0786 85.7226 36.4009C85.5108 35.7233 85.892 34.9892 86.5697 34.7774C87.2614 34.5656 87.9814 34.9468 88.1932 35.6245Z" fill="#00ABDB"/>
<path d="M108.014 29.3845C108.381 30.5421 109.61 31.1916 110.767 30.8245C111.925 30.4574 112.574 29.2292 112.207 28.0716C111.84 26.9139 110.612 26.2645 109.44 26.6316C108.297 26.9845 107.647 28.2269 108.014 29.3845Z" fill="#EDEDED"/>
<path d="M104.668 23.1727C105.035 24.3304 106.263 24.9798 107.435 24.6127C108.593 24.2456 109.242 23.0174 108.875 21.8598C108.508 20.7021 107.28 20.0527 106.108 20.4198C104.95 20.7727 104.301 22.0151 104.668 23.1727Z" fill="#EDEDED"/>
<path d="M108 22.1139C108.212 22.7915 107.83 23.5257 107.153 23.7374C106.475 23.9492 105.741 23.568 105.529 22.8904C105.317 22.2127 105.699 21.4786 106.376 21.2668C107.068 21.0692 107.788 21.4362 108 22.1139Z" fill="#00ABDB"/>
<path d="M111.346 28.3398C111.558 29.0174 111.177 29.7516 110.499 29.9633C109.821 30.1751 109.101 29.7939 108.875 29.1163C108.664 28.4386 109.045 27.7045 109.722 27.4927C110.414 27.281 111.134 27.6622 111.346 28.3398Z" fill="#00ABDB"/>
<path d="M88.0375 24.5986C87.8539 24.4292 92.5692 29.8363 91.6516 33.5633C91.101 35.7657 89.6469 37.5021 88.6022 39.4645C88.5033 39.6621 88.7857 39.8739 88.9269 39.6904C90.5928 37.5586 91.9622 34.9186 92.2304 32.208C92.5128 29.2857 89.9857 26.4339 88.0375 24.5986Z" fill="#00ABDB"/>
<path d="M103.172 20.1374C103.228 19.8833 102.409 26.7304 105.289 29.2574C106.998 30.7539 109.2 31.3469 111.162 32.3492C111.36 32.448 111.247 32.7869 111.021 32.7163C108.438 31.9257 105.798 30.5421 104.033 28.4669C102.141 26.2504 102.621 22.7774 103.172 20.1374Z" fill="#00ABDB"/>
<path d="M106.165 22.0151C103.567 25.1774 100.716 27.8739 97.2991 30.2456C93.925 32.5751 90.4803 34.8056 86.612 35.2151C85.8214 35.2998 85.7367 36.8245 87.0214 36.7256C90.7344 36.4433 95.1956 33.5633 98.3297 31.4598C102.156 28.8904 105.05 26.0386 107.351 22.9609C107.986 22.0998 106.843 21.1821 106.165 22.0151Z" fill="#EDEDED"/>
<path d="M109.948 28.0715C106.009 29.2574 102.127 29.921 97.9481 29.9633C93.8258 30.0057 89.7034 29.921 86.2587 28.0574C85.5528 27.6763 84.6211 28.9186 85.7364 29.568C88.9834 31.4598 94.3199 31.5727 98.1034 31.5868C102.734 31.601 106.743 30.8386 110.386 29.5539C111.402 29.1727 110.979 27.7468 109.948 28.0715Z" fill="#D4D4D4"/>
<path d="M106.433 21.8033C103.398 23.9915 100.249 25.6715 96.6777 26.8433C93.1482 28.0009 89.5765 29.0174 86.0612 28.1704C85.3412 28.0009 84.9177 29.4268 86.0753 29.7515C89.4353 30.6833 94.0518 29.3421 97.313 28.3398C101.294 27.1115 104.527 25.3045 107.266 23.088C108.014 22.4668 107.224 21.2245 106.433 21.8033Z" fill="white"/>
<path d="M109.722 27.9163C106.263 30.2316 102.72 32.0386 98.7105 33.3516C94.7434 34.6363 90.734 35.808 86.8517 35.0739C86.0611 34.9186 85.5246 36.3869 86.8093 36.6692C90.5081 37.488 95.6893 35.9774 99.3599 34.848C103.835 33.4645 107.492 31.5304 110.612 29.1869C111.473 28.5374 110.64 27.3092 109.722 27.9163Z" fill="white"/>
<path d="M96.0566 23.4692C96.0566 23.4692 104.047 25.6151 107.379 25.0645C112.8 24.1892 113.52 22.7633 113.577 21.6056C113.633 20.448 112.504 17.6104 112.504 17.6104C112.504 17.6104 111.614 22.2833 106.123 22.8198C103.483 23.0739 96.9602 22.1986 96.9602 22.1986L96.0566 23.4692Z" fill="#DADADA"/>
<path d="M95.6328 22.3115C95.6328 22.3115 100.87 17.5397 104.075 16.2974C108.07 14.7586 111.374 15.4786 112.362 16.8621C113.35 18.2456 113.478 21.2668 113.478 21.2668C113.478 21.2668 112.772 19.1492 110.654 18.528C108.522 17.9209 105.783 18.5703 103.92 19.1774C102.056 19.7844 96.3528 23.4268 96.3528 23.4268L95.6328 22.3115Z" fill="#F0F0F0"/>
<path d="M96.6213 23.3562C96.6213 23.3562 91.7649 30.0339 88.8284 31.7139C84.0566 34.4386 82.6025 33.7891 81.8402 32.928C81.0637 32.0527 80.1602 29.1444 80.1602 29.1444C80.1602 29.1444 83.7884 32.2221 88.3907 29.1727C90.6072 27.7044 95.1107 22.9327 95.1107 22.9327L96.6213 23.3562Z" fill="#DADADA"/>
<path d="M96.2259 22.2127C96.2259 22.2127 89.1529 21.7892 85.8917 22.848C81.8117 24.1609 79.7082 26.8009 79.807 28.495C79.9059 30.1892 81.7129 32.6174 81.7129 32.6174C81.7129 32.6174 80.9223 30.528 82.1929 28.7068C83.4635 26.8856 86.0047 25.6715 87.84 24.9797C89.6753 24.288 96.4094 23.5256 96.4094 23.5256L96.2259 22.2127Z" fill="#F0F0F0"/>
<path d="M94.4893 22.5092C94.4893 22.5092 94.3199 24.5139 94.5881 24.8386C94.8422 25.1633 96.4093 24.8951 96.7764 24.3868C97.1434 23.8645 96.0987 22.2551 96.0987 22.2551L94.4893 22.5092Z" fill="#F0F0F0"/>
<path d="M96.7765 24.3727C96.7765 24.3727 94.1789 22.7068 94.2495 22.5797C94.32 22.4527 95.9012 21.0974 96.1836 21.4645C96.4659 21.8315 97.68 23.5115 97.7365 23.7233C97.8071 23.935 96.7765 24.3727 96.7765 24.3727Z" fill="white"/>
<path d="M56.541 60.3304C54.6775 72.2739 61.8775 79.9116 71.9716 81.4786C82.0799 83.0598 91.1575 78.6833 93.134 66.048C95.6187 50.1657 94.461 31.1492 80.1881 28.9186C65.7457 26.6598 59.3081 42.6833 56.541 60.3304Z" fill="white" stroke="#DADADA" stroke-width="2.7813" stroke-miterlimit="10"/>
<path d="M57.0352 57.1821C55.1716 69.1257 62.3716 76.7492 72.4658 78.3304C82.574 79.9115 91.6375 75.5351 93.614 62.8998C96.0987 47.0033 94.9411 28.0009 80.6822 25.7704C66.2399 23.5115 59.7881 39.5351 57.0352 57.1821Z" fill="#79CDF4"/>
<path d="M91.8212 69.1115C88.2354 76.9609 80.6965 79.6151 72.4659 78.3303C64.3342 77.0598 58.0801 71.8645 56.9365 63.6621C56.9365 63.6621 60.6212 62.0245 74.7106 64.2268C88.8142 66.415 91.8212 69.1115 91.8212 69.1115Z" fill="#EDEDED"/>
<path d="M65.9715 38.4904C65.4068 42.1327 66.7198 45.6762 69.2468 48.2174C73.708 42.3445 83.2656 42.0339 85.1715 50.4057C88.1362 48.7115 90.2821 45.8457 90.8327 42.3727C91.8209 36.0057 87.0633 29.9915 80.2021 28.9186C73.3268 27.8457 66.9598 32.1233 65.9715 38.4904Z" fill="#00ABDB"/>
<path d="M79.3834 34.9751C91.5528 36.8809 85.8352 49.6998 85.934 49.9256C85.694 50.0951 85.4399 50.2503 85.1858 50.4056C83.2658 42.048 73.7222 42.3445 69.2611 48.2174C69.1199 48.0762 68.9787 47.9209 68.8517 47.7798C67.567 42.5421 69.8681 33.4927 79.3834 34.9751Z" fill="#0094C5"/>
<path d="M85.6092 61.4739C85.4257 62.6739 86.2445 63.8033 87.4445 63.9869C88.6445 64.1704 89.7739 63.3516 89.9574 62.1516C90.141 60.9516 89.3221 59.8221 88.1221 59.6386C86.9221 59.4551 85.7927 60.2739 85.6092 61.4739Z" fill="#EDEDED"/>
<path d="M85.3695 54.4151C85.1859 55.6151 86.0047 56.7445 87.2047 56.928C88.4047 57.1115 89.5342 56.2927 89.7177 55.0927C89.9012 53.8927 89.0824 52.7633 87.8824 52.5798C86.6824 52.3962 85.553 53.2151 85.3695 54.4151Z" fill="#EDEDED"/>
<path d="M86.2728 54.5563C86.1599 55.2621 86.6399 55.9257 87.3458 56.0245C88.0516 56.1374 88.7152 55.6574 88.814 54.9516C88.9269 54.2457 88.4469 53.5821 87.7411 53.4833C87.0352 53.3704 86.3716 53.8504 86.2728 54.5563Z" fill="#00ABDB"/>
<path d="M86.5126 61.6151C86.3996 62.321 86.8796 62.9845 87.5855 63.0833C88.2914 63.1963 88.9549 62.7163 89.0537 62.0104C89.1667 61.3045 88.6867 60.641 87.9808 60.528C87.2749 60.4292 86.6255 60.9092 86.5126 61.6151Z" fill="#00ABDB"/>
<path d="M65.9716 58.4104C65.7881 59.6104 64.6587 60.4292 63.4587 60.2456C62.2587 60.0621 61.4398 58.9327 61.6234 57.7327C61.8069 56.5327 62.9363 55.7139 64.1363 55.8974C65.3363 56.0809 66.1692 57.2104 65.9716 58.4104Z" fill="#EDEDED"/>
<path d="M68.3573 51.7609C68.1738 52.9609 67.0444 53.7798 65.8444 53.5962C64.6444 53.4127 63.8256 52.2833 64.0091 51.0833C64.1926 49.8833 65.322 49.0645 66.522 49.248C67.722 49.4315 68.555 50.5609 68.3573 51.7609Z" fill="#EDEDED"/>
<path d="M64.913 51.2245C64.8 51.9303 65.28 52.5939 65.9859 52.6927C66.6918 52.8056 67.3553 52.3256 67.4682 51.6197C67.5812 50.9139 67.1012 50.2503 66.3953 50.1374C65.6753 50.0386 65.0259 50.5186 64.913 51.2245Z" fill="#00ABDB"/>
<path d="M62.5267 57.8739C62.4138 58.5797 62.8938 59.2433 63.5997 59.3421C64.3055 59.455 64.9691 58.975 65.0679 58.2692C65.1808 57.5633 64.7008 56.8997 63.995 56.7868C63.3032 56.688 62.6397 57.168 62.5267 57.8739Z" fill="#00ABDB"/>
<path d="M85.0165 50.688C85.1718 50.4904 81.3177 56.5468 82.786 60.0904C83.6471 62.1939 85.3554 63.6904 86.6824 65.4692C86.8095 65.6527 86.5695 65.9068 86.4001 65.7374C84.4377 63.888 82.6871 61.4739 82.0236 58.8339C81.3036 55.9962 83.3648 52.8057 85.0165 50.688Z" fill="#00ABDB"/>
<path d="M69.388 48.5422C69.3033 48.3022 71.1244 54.9516 68.6538 57.888C67.1856 59.6245 65.0962 60.528 63.3033 61.8269C63.1197 61.9539 63.2891 62.2786 63.4868 62.1798C65.915 61.008 68.3291 59.2433 69.7691 56.9422C71.3221 54.4433 70.3197 51.0692 69.388 48.5422Z" fill="#00ABDB"/>
<path d="M66.7056 50.8433C69.755 53.5821 72.9739 55.8268 76.7009 57.648C80.3856 59.455 84.1268 61.1492 88.0092 60.9656C88.7997 60.9233 89.1103 62.4197 87.8397 62.5186C84.1268 62.8009 79.2844 60.6127 75.868 58.9892C71.7033 57.0268 68.4139 54.6268 65.6891 51.9303C64.9268 51.1962 65.9009 50.1233 66.7056 50.8433Z" fill="#EDEDED"/>
<path d="M63.8821 57.3939C67.948 57.9727 71.9009 58.0433 76.0233 57.4786C80.1033 56.9139 84.1691 56.208 87.2891 53.8504C87.9244 53.3704 89.0397 54.4574 88.0233 55.2621C85.1009 57.6198 79.835 58.5233 76.0938 59.1021C71.5197 59.808 67.4397 59.6527 63.6421 58.9186C62.5974 58.7069 62.8091 57.2386 63.8821 57.3939Z" fill="#D4D4D4"/>
<path d="M66.4233 50.6739C69.755 52.3821 73.115 53.568 76.8139 54.2033C80.4703 54.8245 84.155 55.3045 87.515 53.9351C88.2068 53.6527 88.8421 55.008 87.7409 55.5021C84.5644 56.928 79.7927 56.2927 76.4186 55.7845C72.2962 55.1633 68.8374 53.8645 65.788 52.0857C64.9409 51.5774 65.5339 50.2221 66.4233 50.6739Z" fill="white"/>
<path d="M64.0659 57.2104C67.8212 58.9892 71.6188 60.2457 75.7694 60.9374C79.8777 61.6292 84.0141 62.1798 87.7412 60.8668C88.5035 60.5986 89.2377 61.968 88.0235 62.4339C84.48 63.8033 79.1435 63.0833 75.3459 62.5045C70.7153 61.7986 66.8188 60.4292 63.3741 58.5939C62.4424 58.0857 63.0777 56.7445 64.0659 57.2104Z" fill="white"/>
<path d="M76.9269 50.7727C76.9269 50.7727 69.3457 54.0763 65.9716 54.048C60.4798 53.9916 59.5481 52.6927 59.3222 51.5492C59.0963 50.4057 59.7881 47.441 59.7881 47.441C59.7881 47.441 61.3551 51.9304 66.8751 51.6339C69.5292 51.4927 75.8398 49.6433 75.8398 49.6433L76.9269 50.7727Z" fill="#DADADA"/>
<path d="M77.1669 49.5727C77.1669 49.5727 71.2799 45.6339 67.9199 44.8857C63.7411 43.9539 60.5787 45.168 59.8022 46.6786C59.0258 48.1892 59.3646 51.1962 59.3646 51.1962C59.3646 51.1962 59.7458 48.9939 61.7505 48.0762C63.7693 47.1586 66.5787 47.3986 68.5128 47.7092C70.4469 48.0339 76.6305 50.7868 76.6305 50.7868L77.1669 49.5727Z" fill="#F0F0F0"/>
<path d="M76.3481 50.7445C76.3481 50.7445 82.1505 56.6315 85.2987 57.8456C90.4234 59.8221 91.7646 58.9751 92.3999 58.0009C93.0352 57.0268 93.487 54.0198 93.487 54.0198C93.487 54.0198 90.367 57.6056 85.3552 55.2903C82.9411 54.1751 77.774 50.1233 77.774 50.1233L76.3481 50.7445Z" fill="#DADADA"/>
<path d="M76.5737 49.5445C76.5737 49.5445 83.5055 48.0762 86.8937 48.6268C91.1149 49.3186 93.5996 51.6198 93.7549 53.3139C93.9102 55.008 92.4843 57.6763 92.4843 57.6763C92.4843 57.6763 92.9502 55.488 91.4255 53.8927C89.9008 52.2833 87.2043 51.4645 85.2843 51.0551C83.3643 50.6315 76.602 50.8998 76.602 50.8998L76.5737 49.5445Z" fill="#F0F0F0"/>
<path d="M78.3246 49.5868C78.3246 49.5868 78.7905 51.5492 78.5787 51.9021C78.3669 52.2551 76.7858 52.2268 76.3481 51.7751C75.9105 51.3233 76.6869 49.5586 76.6869 49.5586L78.3246 49.5868Z" fill="#F0F0F0"/>
<path d="M76.3482 51.7751C76.3482 51.7751 78.6634 49.7421 78.5787 49.6292C78.494 49.5162 76.7293 48.4009 76.5035 48.8104C76.2917 49.2198 75.3317 51.0551 75.3035 51.2809C75.2611 51.4927 76.3482 51.7751 76.3482 51.7751Z" fill="white"/>
<path d="M288.593 177.196C288.579 176.462 288.522 175.672 288.409 174.839C286.235 157.94 271.044 162.726 271.044 162.726C271.044 162.726 267.783 159.38 261.783 156.5C258.734 146.137 252.324 140.406 240.833 138.994C238.39 138.697 235.708 138.796 233.604 139.121C232.729 139.262 231.967 139.432 231.346 139.615C231.331 139.601 231.317 139.601 231.303 139.587C229.143 137.794 226.15 140.787 226.306 141.874C222.014 143.582 217.694 146.081 213.656 149.102C213.021 147.549 212.019 146.109 210.875 145.714C210.607 145.615 209.703 145.742 208.32 146.039C203.223 141.846 195.487 139.559 186 142.594C185.986 142.566 185.986 142.537 185.971 142.509C185.477 141.436 183.487 141.295 181.524 142.213C179.576 143.116 178.39 144.712 178.87 145.784C170.682 150.655 167.379 157.855 166.927 165.126C165.12 166.396 164.019 167.272 163.934 167.497C163.666 168.133 163.976 169.417 164.555 170.773C163.99 170.589 147.204 165.281 144.889 184.17C144.79 184.961 144.72 185.78 144.677 186.655C144.07 198.782 168.042 204.867 168.042 204.867C168.042 204.867 163.341 229.319 191.986 232.876C219.91 236.349 224.371 217.672 224.371 217.672C224.371 217.672 230.075 236.49 250.616 231.352C267.106 227.229 266.075 210.076 266.075 210.076C266.075 210.076 276.494 218.928 281.28 206.392C285.967 194.081 274.122 188.914 273.699 188.73C274.179 188.787 288.946 191.201 288.593 177.196Z" fill="#EDEDED"/>
<path d="M122.894 218.702C122.244 217.672 111.233 200.109 103.172 191.949C103.157 191.427 102.833 190.848 102.254 190.17C97.5386 184.65 92.7527 181.869 88.2351 185.723C82.7151 190.439 90.0704 199.827 91.5104 201.577C92.7527 203.088 93.9668 203.667 95.0115 203.399C102.734 213.309 114.677 225.436 114.804 225.563C115.807 226.721 117.261 227.384 118.8 227.384C120.056 227.384 121.284 226.933 122.244 226.114C123.317 225.196 123.981 223.912 124.094 222.5C124.207 221.116 123.769 219.775 122.894 218.702ZM121.186 224.872C120.677 225.309 120.056 225.592 119.407 225.704C118.546 225.704 117.741 225.337 117.19 224.674C116.682 224.081 116.442 223.333 116.499 222.556C116.555 221.78 116.922 221.074 117.515 220.566C118.037 220.114 118.715 219.874 119.407 219.874C120.268 219.874 121.073 220.241 121.623 220.904C122.132 221.497 122.372 222.246 122.315 223.022C122.315 223.107 122.287 223.192 122.273 223.276C122.061 223.883 121.694 224.448 121.186 224.872ZM115.214 222.782C114.96 221.512 115.369 220.156 116.414 219.267C117.077 218.702 117.924 218.392 118.8 218.392C119.266 218.392 119.717 218.49 120.141 218.646C119.901 218.603 119.647 218.575 119.407 218.575C118.404 218.575 117.444 218.928 116.682 219.577C115.821 220.312 115.313 221.328 115.214 222.443C115.214 222.57 115.214 222.683 115.214 222.782ZM119.788 216.867C119.463 216.81 119.139 216.768 118.8 216.768C117.543 216.768 116.315 217.22 115.355 218.039C114.183 219.041 113.562 220.453 113.506 221.893C109.623 217.841 101.943 209.639 96.4092 202.566C97.5104 201.648 98.7951 200.095 98.4986 198.952C98.4704 198.81 98.3998 198.669 98.3151 198.542C97.8351 197.864 97.2986 197.413 96.9598 196.89C96.621 196.354 96.4939 195.747 96.8468 194.744C97.9621 191.497 100.292 193.559 101.463 193.657C101.604 193.672 101.717 193.657 101.816 193.601C101.972 193.516 102.113 193.432 102.24 193.347C108.353 199.629 116.315 211.53 119.788 216.867Z" fill="#DADADA"/>
<path d="M93.8823 138.062C94.4611 135.592 94.6164 134.024 93.2188 131.752C91.9623 129.719 92.1458 127.643 90.4941 125.695C89.8023 124.876 88.8847 124.072 88.4752 123.112C87.9811 121.954 88.0517 121.248 87.0776 120.274C86.3152 119.512 85.3976 119.032 84.607 118.312C83.7317 117.521 83.407 116.42 82.6447 115.629C81.0917 114.02 78.7905 113.879 77.3929 112.072C75.6 109.742 74.0611 110.9 71.7035 110.067C70.6588 109.7 70.2776 108.641 69.1058 108.189C68.0894 107.808 67.087 107.864 66.0141 107.624C64.8282 107.342 64.56 106.876 63.5011 106.184C62.4141 105.464 61.7082 105.549 60.5223 105.507C59.0258 105.436 59.1388 105.083 57.9952 104.377C57.5858 104.123 57.2188 104.039 56.8658 104.024C58.6305 102.373 58.9129 101.046 58.9129 101.046C58.9129 101.046 59.2941 99.168 57.967 97.1351C57.3035 96.1186 54.3105 92.6457 51.6 96.6551C50.7529 97.8974 48.8329 101.992 48 103.799C47.6329 103.559 45.9953 103.94 45.2611 104.434C43.4117 103.389 39.7835 101.356 38.4423 100.862C33.9105 99.1821 33.487 103.742 33.5435 104.956C33.6423 107.384 35.04 108.683 35.04 108.683C35.04 108.683 36.3247 109.869 39.4588 110.01C39.5011 110.01 39.5294 110.01 39.5717 110.01C39.5152 110.109 39.4588 110.208 39.4023 110.335C38.8941 111.577 39.1905 111.803 38.0047 112.721C37.0729 113.455 36.4517 113.78 35.9858 115.008C35.5341 116.18 35.5905 116.73 34.7858 117.634C34.0517 118.453 33.2047 118.989 32.5976 119.893C31.9058 120.937 32.2023 122.01 31.567 122.928C30.127 124.961 28.2211 124.919 28.1082 127.855C28.0235 130.128 26.2305 131.582 25.9058 133.799C25.7505 134.9 26.1176 135.987 25.8635 137.13C25.6376 138.175 25.1717 139.107 24.9882 140.166C24.7623 141.521 25.2282 142.057 25.4964 143.286C25.7223 144.302 25.44 145.502 25.3553 146.561C25.1435 149.102 26.4988 150.669 26.6541 153.069C26.8235 155.737 27.8682 156.909 29.7741 158.589C31.6094 160.213 31.2 163.177 33.0635 164.759C33.84 165.422 35.0117 165.549 35.8164 166.17C36.8047 166.933 37.2423 168.076 37.9623 169.008C39.3317 170.759 41.6188 170.843 43.1717 172.396C45.007 174.232 46.2494 174.02 48.5364 174.782C50.6964 175.502 51.3035 177.126 53.8023 176.9C56.4423 176.66 57.6847 175.813 60.2682 177.253C62.88 178.707 64.2352 177.493 66.5505 176.222C67.68 175.601 69.0635 175.7 70.1929 175.417C70.207 175.417 70.2352 175.403 70.2494 175.403C70.32 175.389 70.4047 175.361 70.4753 175.333C70.5317 175.319 70.6023 175.29 70.6588 175.262C70.687 175.248 70.7152 175.234 70.7435 175.234C71.8164 174.796 72.8894 173.921 74.16 173.78C76.7717 173.469 78.5929 173.667 79.8635 170.97C81.1341 168.288 82.6305 168.26 84.9176 166.919C87.0917 165.648 86.64 163.968 87.9811 162.133C89.407 160.184 90.5223 159.634 90.96 157.079C91.327 154.904 93.1482 153.507 93.2329 151.29C93.2894 150.119 92.9647 148.933 93.3317 147.733C93.6282 146.759 94.5035 145.982 94.7576 144.994C95.3929 142.636 93.3317 140.448 93.8823 138.062ZM42.2117 124.326L43.6941 121.643L45.6705 123.592C45.6705 123.592 44.4 119.879 44.4705 116.406C44.5694 111.987 45.7976 109.29 46.6023 107.977C47.4776 107.949 48.72 107.37 48.9458 106.919C50.2164 107.37 53.0682 108.768 56.0047 112.707C58.08 115.488 59.2094 119.243 59.2094 119.243L59.6894 116.504L62.4564 117.832C62.4564 117.832 60.4941 112.664 58.6164 110.448C57.2047 108.796 55.6658 107.709 54.2258 106.989C60.9458 107.921 70.3764 110.18 74.9082 119.257C80.2164 129.916 72.2964 142.721 60.96 146.363C49.6235 149.992 36.4376 144.034 33.8541 132.415C32.3153 125.512 37.68 117.662 41.9435 112.184C41.5058 113.314 41.167 114.599 41.04 116.081C40.8 118.989 42.2117 124.326 42.2117 124.326ZM54.3811 100.693C55.0305 100.241 55.6517 100.029 56.1882 99.9727C55.0447 102.712 52.3341 104.053 50.4423 104.674C50.1741 104.646 49.9058 104.632 49.6517 104.617C51.1341 103.333 53.5905 101.243 54.3811 100.693ZM36.6635 106.227C37.1435 105.944 37.7505 105.761 38.5553 105.747C39.5717 105.733 43.0447 106.043 44.9647 106.213C44.8658 106.297 44.7529 106.396 44.64 106.509C42.8047 107.173 39.4447 107.963 36.6635 106.227Z" fill="#DADADA"/>
<path d="M44.0751 106.439C43.228 107.13 42.268 107.159 41.7739 108.359C41.2657 109.601 41.5621 109.827 40.3762 110.745C39.4445 111.479 38.8233 111.803 38.3574 113.032C37.9057 114.203 37.9621 114.754 37.1574 115.672C36.4374 116.49 35.5762 117.027 34.9692 117.93C34.2774 118.975 34.5739 120.048 33.9386 120.966C32.4986 122.999 30.5927 122.956 30.4798 125.893C30.3951 128.166 28.6021 129.62 28.2774 131.836C28.1221 132.937 28.4892 134.025 28.2351 135.168C28.0092 136.213 27.5433 137.145 27.3598 138.203C27.1339 139.559 27.5998 140.095 27.868 141.323C28.0939 142.34 27.8115 143.54 27.7268 144.599C27.5151 147.14 28.8704 148.707 29.0257 151.107C29.1951 153.775 30.2398 154.947 32.1457 156.627C33.981 158.25 33.5715 161.215 35.4351 162.796C36.2115 163.46 37.3833 163.587 38.188 164.208C39.1762 164.97 39.6139 166.114 40.3339 167.046C41.7033 168.796 43.9904 168.881 45.5433 170.434C47.3786 172.269 48.621 172.057 50.908 172.82C53.068 173.54 53.6751 175.163 56.1739 174.938C58.8139 174.697 60.0562 173.85 62.6398 175.29C65.2515 176.745 66.6068 175.53 68.9221 174.26C70.8421 173.215 73.468 174.217 74.3857 171.987C75.2751 169.827 75.0068 165.563 74.1174 163.432C73.1433 164.617 71.2233 163.53 69.9668 163.305C67.7221 162.895 65.5904 162.599 63.3739 161.977C57.1339 160.199 50.1739 157.234 44.7951 153.62C39.0633 149.766 34.1362 143.836 32.5974 137.032C31.468 132.048 32.2445 126.613 34.8139 122.067C37.1151 117.987 40.3198 114.712 42.8468 110.914C43.5527 109.869 45.388 108.246 45.2045 106.919L44.0751 106.439Z" fill="#A7DCF8"/>
<path d="M57.3741 102.189C58.4752 102.26 59.2658 101.723 60.367 102.415C61.4964 103.135 61.3976 103.488 62.8941 103.545C64.0799 103.601 64.7717 103.502 65.8729 104.222C66.9176 104.914 67.1999 105.394 68.3858 105.662C69.4588 105.916 70.4611 105.846 71.4776 106.227C72.6494 106.665 73.0305 107.723 74.0752 108.105C76.4329 108.923 77.9576 107.78 79.7647 110.109C81.1623 111.916 83.4635 112.057 85.0164 113.667C85.7788 114.472 86.1035 115.573 86.9788 116.349C87.7694 117.069 88.7011 117.549 89.4494 118.312C90.4235 119.286 90.3529 119.992 90.847 121.149C91.2564 122.109 92.1741 122.914 92.8658 123.733C94.5035 125.681 94.3199 127.742 95.5905 129.789C97.0023 132.062 96.8329 133.615 96.2541 136.1C95.7035 138.486 97.7646 140.66 97.1717 143.032C96.9176 144.02 96.0423 144.81 95.7458 145.77C95.3788 146.956 95.7035 148.156 95.647 149.328C95.5482 151.545 93.7411 152.942 93.3741 155.116C92.9364 157.672 91.8211 158.222 90.3952 160.17C89.0541 162.006 89.5058 163.7 87.3317 164.956C85.0446 166.297 83.5341 166.326 82.2776 169.008C81.007 171.705 79.1858 171.507 76.5741 171.817C74.4 172.072 72.847 174.429 70.8141 173.13C68.8376 171.888 66.5788 168.26 66.0564 166.015C67.5388 166.41 68.4705 164.42 69.3599 163.502C70.9411 161.865 72.5082 160.382 73.9482 158.589C77.9858 153.521 81.9388 147.055 84.2117 140.985C86.6399 134.505 87.2046 126.825 84.5082 120.387C82.5317 115.672 78.7341 111.705 74.0047 109.502C69.7552 107.526 65.2517 106.707 60.9882 105.097C59.8164 104.66 57.3741 104.406 56.7388 103.22L57.3741 102.189Z" fill="#A7DCF8"/>
<path d="M49.0304 103.46C49.2987 105.832 69.854 102.443 77.2657 117.295C82.574 127.954 74.654 140.759 63.3175 144.401C51.981 148.029 38.7952 142.072 36.2116 130.453C33.6563 118.961 50.2022 104.815 49.0304 103.46C47.8587 102.119 38.0893 114.599 33.3457 123.662C29.181 131.625 27.5434 141.013 30.494 150.246C36.0563 167.625 54.6634 177.182 72.0281 171.62C89.4069 166.057 98.9787 147.45 93.4022 130.086C90.4516 120.853 83.8163 113.836 75.6422 110.109C63.9104 103.855 48.7622 101.088 49.0304 103.46Z" fill="#69C8F3"/>
<path d="M50.6113 104.745C50.6113 104.745 54.3949 105.436 58.376 110.745C60.4513 113.526 61.5807 117.281 61.5807 117.281L62.0607 114.542L64.8278 115.869C64.8278 115.869 62.8654 110.702 60.9878 108.486C56.5549 103.262 50.8372 103.672 50.8372 103.672L50.6113 104.745Z" fill="#69C8F3"/>
<path d="M49.6656 105.041C49.6656 105.041 46.9832 107.808 46.8279 114.429C46.7432 117.902 48.0279 121.615 48.0279 121.615L46.0515 119.667L44.5691 122.349C44.5691 122.349 43.1573 117.013 43.4115 114.119C43.9903 107.286 48.875 104.293 48.875 104.293L49.6656 105.041Z" fill="#69C8F3"/>
<path d="M58.4466 102.726C55.9761 104.66 50.8796 104.66 50.8796 104.66L50.7808 103.206C50.7808 103.206 57.9808 102.26 58.969 96.528C59.4066 93.9727 61.2702 99.0833 61.2702 99.0833C61.2702 99.0833 60.9172 100.792 58.4466 102.726Z" fill="#1EB4E4"/>
<path d="M49.9619 102.726C49.9619 102.726 52.8701 96.3163 53.9713 94.6928C56.6819 90.6834 59.6749 94.1563 60.3384 95.1728C61.6654 97.2057 61.2843 99.0834 61.2843 99.0834C61.2843 99.0834 59.3502 96.9093 56.7384 98.7304C55.5807 99.5351 50.8231 103.686 50.8231 103.686L49.9619 102.726Z" fill="#69C8F3"/>
<path d="M41.8305 108.048C44.9646 108.189 49.101 105.225 49.101 105.225L48.3387 103.982C48.3387 103.982 41.9293 107.399 37.7928 103.305C35.9434 101.483 37.4116 106.721 37.4116 106.721C37.4116 106.721 38.6963 107.907 41.8305 108.048Z" fill="#1EB4E4"/>
<path d="M48.7338 103.121C48.7338 103.121 42.635 99.5916 40.7997 98.9139C36.268 97.2339 35.8444 101.794 35.9009 103.008C35.9997 105.436 37.3974 106.735 37.3974 106.735C37.3974 106.735 37.708 103.841 40.8844 103.813C42.2962 103.799 48.5785 104.406 48.5785 104.406L48.7338 103.121Z" fill="#69C8F3"/>
<path d="M51.3455 104.872C51.1761 105.479 48.9314 106.382 48.282 105.86C47.6326 105.323 47.0255 103.474 47.3079 102.825C47.5902 102.175 49.9196 101.554 50.3714 101.836C50.8232 102.119 51.5149 104.265 51.3455 104.872Z" fill="#83D0F5"/>
<path d="M71.3788 150.895C69.84 149.61 67.6094 150.175 66.4518 151.785C66.2541 152.067 66.0847 152.349 65.9576 152.646C65.6894 152.462 65.3929 152.307 65.0823 152.18C63.2329 151.46 61.1153 152.476 60.5506 154.368C59.2941 158.589 66.0847 162.062 68.5976 161.314C71.0118 160.594 75.0212 153.945 71.3788 150.895Z" fill="#A7DCF8"/>
<path d="M34.4749 123.846C34.4749 123.846 34.2066 124.354 33.9384 124.876C33.6843 125.399 33.4443 125.921 33.4443 125.921L33.4302 125.907C33.4302 125.907 33.6843 125.385 33.9384 124.862C34.2066 124.354 34.4749 123.846 34.4749 123.846Z" fill="#A7DCF8"/>
<path d="M32.5694 128.053C32.5694 128.053 32.3717 128.603 32.1882 129.14C32.0188 129.69 31.8494 130.241 31.8494 130.241L31.7788 130.227C31.7788 130.227 31.9623 129.676 32.1317 129.126C32.3294 128.575 32.527 128.039 32.527 128.039L32.5694 128.053Z" fill="#A7DCF8"/>
<path d="M31.2704 132.486C31.2704 132.486 31.1575 133.05 31.0445 133.615C30.9598 134.18 30.861 134.759 30.861 134.759L30.748 134.745C30.748 134.745 30.8469 134.18 30.9457 133.601C31.0586 133.036 31.1716 132.472 31.1716 132.472L31.2704 132.486Z" fill="#A7DCF8"/>
<path d="M30.6351 137.06C30.6351 137.06 30.6068 137.639 30.5786 138.218C30.5645 138.796 30.5645 139.375 30.5645 139.375H30.4092C30.4092 139.375 30.4233 138.796 30.4374 138.218C30.4657 137.639 30.508 137.06 30.508 137.06H30.6351Z" fill="#A7DCF8"/>
<path d="M30.6494 141.662C30.6494 141.662 30.7059 142.241 30.7482 142.82C30.8188 143.399 30.8894 143.963 30.8894 143.963L30.6917 143.992C30.6917 143.992 30.6212 143.413 30.5647 142.834C30.5223 142.255 30.48 141.676 30.48 141.676L30.6494 141.662Z" fill="#A7DCF8"/>
<path d="M31.2704 146.236C31.2704 146.236 31.3975 146.801 31.5245 147.366C31.6657 147.916 31.821 148.481 31.821 148.481L31.6092 148.538C31.6092 148.538 31.468 147.973 31.3269 147.408C31.1998 146.843 31.0728 146.279 31.0728 146.279L31.2704 146.236Z" fill="#A7DCF8"/>
<path d="M32.5126 150.669C32.5126 150.669 32.7102 151.206 32.922 151.756C33.1479 152.293 33.3596 152.815 33.3596 152.815L33.1479 152.9C33.1479 152.9 32.922 152.363 32.7102 151.827C32.5126 151.29 32.3149 150.74 32.3149 150.74L32.5126 150.669Z" fill="#A7DCF8"/>
<path d="M34.3339 154.905C34.3339 154.905 34.6021 155.413 34.8845 155.921C35.1668 156.415 35.4633 156.909 35.4633 156.909L35.2515 157.036C35.2515 157.036 34.9551 156.528 34.6727 156.034C34.4045 155.526 34.1362 155.017 34.1362 155.017L34.3339 154.905Z" fill="#A7DCF8"/>
<path d="M36.7054 158.843C36.7054 158.843 37.0442 159.309 37.3831 159.775C37.736 160.227 38.0889 160.679 38.0889 160.679L37.8913 160.848C37.8913 160.848 37.5384 160.396 37.1713 159.93C36.8325 159.465 36.4937 158.999 36.4937 158.999L36.7054 158.843Z" fill="#A7DCF8"/>
<path d="M39.6279 162.401C39.6279 162.401 40.0373 162.81 40.4467 163.22C40.8702 163.615 41.2796 164.01 41.2796 164.01L41.0961 164.222C41.0961 164.222 40.6726 163.827 40.249 163.417C39.8396 163.008 39.4443 162.585 39.4443 162.585L39.6279 162.401Z" fill="#A7DCF8"/>
<path d="M43.0444 165.493C43.0444 165.493 43.5103 165.832 43.9762 166.185C44.4562 166.509 44.9221 166.834 44.9221 166.834L44.7668 167.074C44.7668 167.074 44.2868 166.749 43.8068 166.41C43.3409 166.058 42.875 165.719 42.875 165.719L43.0444 165.493Z" fill="#A7DCF8"/>
<path d="M46.8843 168.006C46.8843 168.006 47.3926 168.274 47.9149 168.542C48.4373 168.782 48.9596 169.022 48.9596 169.022L48.8326 169.305C48.8326 169.305 48.3102 169.05 47.7738 168.81C47.2655 168.542 46.7432 168.274 46.7432 168.274L46.8843 168.006Z" fill="#A7DCF8"/>
<path d="M51.0915 169.855C51.0915 169.855 51.642 170.025 52.1926 170.208C52.7432 170.363 53.2938 170.505 53.2938 170.505L53.2091 170.815C53.2091 170.815 52.6444 170.66 52.0797 170.505C51.5291 170.321 50.9785 170.152 50.9785 170.152L51.0915 169.855Z" fill="#A7DCF8"/>
<path d="M55.5526 170.97C55.5526 170.97 56.1314 171.055 56.6961 171.126C57.2608 171.182 57.8397 171.239 57.8397 171.239L57.8114 171.578C57.8114 171.578 57.2326 171.521 56.6538 171.45C56.075 171.366 55.5103 171.281 55.5103 171.281L55.5526 170.97Z" fill="#A7DCF8"/>
<path d="M60.127 171.337C60.127 171.337 60.7058 171.323 61.2846 171.309C61.8634 171.281 62.4281 171.239 62.4281 171.239L62.4564 171.592C62.4564 171.592 61.8775 171.62 61.2846 171.662C60.7058 171.676 60.127 171.676 60.127 171.676V171.337Z" fill="#A7DCF8"/>
<path d="M64.7148 170.985C64.7148 170.985 65.2796 170.886 65.8584 170.787C66.4231 170.674 66.9878 170.561 66.9878 170.561L67.0725 170.928C67.0725 170.928 66.5078 171.041 65.929 171.154C65.3643 171.253 64.7854 171.352 64.7854 171.352L64.7148 170.985Z" fill="#A7DCF8"/>
<path d="M69.2046 169.968C69.2046 169.968 69.3458 169.926 69.5434 169.855C69.7552 169.785 70.0234 169.714 70.2916 169.615C70.8422 169.432 71.3928 169.248 71.3928 169.248L71.5199 169.615C71.5199 169.615 70.9693 169.799 70.4187 169.982C70.1505 170.081 69.854 170.152 69.6564 170.222C69.4446 170.279 69.3175 170.321 69.3175 170.321L69.2046 169.968Z" fill="#A7DCF8"/>
<path d="M73.5386 168.443L75.6703 167.526L75.8115 167.865L73.6939 168.796L73.5386 168.443Z" fill="#A7DCF8"/>
<path d="M77.7173 166.481C77.7173 166.481 78.2255 166.199 78.7196 165.916C79.2138 165.62 79.7079 165.323 79.7079 165.323L79.8914 165.62C79.8914 165.62 79.3973 165.93 78.9032 166.227C78.3949 166.509 77.9008 166.792 77.9008 166.792L77.7173 166.481Z" fill="#A7DCF8"/>
<path d="M81.5996 164.039C81.5996 164.039 82.0655 163.686 82.5173 163.347C82.969 162.98 83.4067 162.627 83.4067 162.627L83.6184 162.881C83.6184 162.881 83.1667 163.248 82.7149 163.615C82.249 163.968 81.7973 164.321 81.7973 164.321L81.5996 164.039Z" fill="#A7DCF8"/>
<path d="M85.1152 161.06C85.1152 161.06 85.5246 160.65 85.9199 160.227C86.3011 159.803 86.6823 159.366 86.6823 159.366L86.9223 159.577C86.9223 159.577 86.5411 160.015 86.1458 160.453C85.7505 160.862 85.3411 161.286 85.3411 161.286L85.1152 161.06Z" fill="#A7DCF8"/>
<path d="M88.1079 157.573C88.1079 157.573 88.4326 157.093 88.7714 156.627C89.082 156.147 89.3785 155.653 89.3785 155.653L89.6467 155.808C89.6467 155.808 89.3361 156.302 89.0256 156.796C88.7009 157.276 88.3761 157.756 88.3761 157.756L88.1079 157.573Z" fill="#A7DCF8"/>
<path d="M90.4658 153.634C90.4658 153.634 90.7058 153.112 90.9458 152.589C91.1576 152.053 91.3835 151.53 91.3835 151.53L91.6517 151.629C91.6517 151.629 91.4258 152.166 91.2141 152.702C90.9741 153.225 90.7341 153.761 90.7341 153.761L90.4658 153.634Z" fill="#A7DCF8"/>
<path d="M92.1172 149.342C92.1172 149.342 92.2725 148.778 92.4137 148.227C92.5407 147.662 92.6678 147.112 92.6678 147.112L92.936 147.168C92.936 147.168 92.809 147.733 92.6819 148.312C92.5266 148.876 92.3854 149.427 92.3854 149.427L92.1172 149.342Z" fill="#A7DCF8"/>
<path d="M93.0493 144.839C93.0493 144.839 93.1058 144.26 93.1764 143.695C93.2187 143.116 93.2611 142.552 93.2611 142.552L93.5152 142.566C93.5152 142.566 93.4729 143.145 93.4446 143.723C93.3881 144.302 93.3317 144.881 93.3317 144.881L93.0493 144.839Z" fill="#A7DCF8"/>
<path d="M93.275 140.236C93.275 140.236 93.2468 139.658 93.2327 139.079C93.1903 138.5 93.1479 137.935 93.1479 137.935L93.388 137.907C93.388 137.907 93.4303 138.486 93.4727 139.065C93.5009 139.643 93.515 140.222 93.515 140.222L93.275 140.236Z" fill="#A7DCF8"/>
<path d="M92.8654 135.648C92.8654 135.648 92.7666 135.083 92.6678 134.505C92.5548 133.94 92.4419 133.375 92.4419 133.375L92.6678 133.319C92.6678 133.319 92.7807 133.883 92.9078 134.462C93.0066 135.027 93.1054 135.606 93.1054 135.606L92.8654 135.648Z" fill="#A7DCF8"/>
<path d="M91.8631 131.145C91.8631 131.145 91.6937 130.594 91.5243 130.043C91.3408 129.493 91.1572 128.956 91.1572 128.956L91.3549 128.886C91.3549 128.886 91.5384 129.436 91.736 129.987C91.9055 130.538 92.0749 131.088 92.0749 131.088L91.8631 131.145Z" fill="#A7DCF8"/>
<path d="M90.3105 126.81C90.3105 126.81 90.0705 126.288 89.8447 125.752C89.5905 125.229 89.3364 124.721 89.3364 124.721L89.5058 124.636C89.5058 124.636 89.76 125.159 90.0141 125.681C90.2541 126.203 90.4941 126.74 90.4941 126.74L90.3105 126.81Z" fill="#A7DCF8"/>
<path d="M88.2351 122.688C88.2351 122.688 87.9386 122.194 87.6422 121.7C87.3316 121.22 87.021 120.74 87.021 120.74L87.148 120.655C87.148 120.655 87.4728 121.135 87.7833 121.629C88.0939 122.123 88.3904 122.617 88.3904 122.617L88.2351 122.688Z" fill="#A7DCF8"/>
<path d="M85.6517 118.862C85.6517 118.862 85.2847 118.41 84.9176 117.959C84.5365 117.521 84.1553 117.098 84.1553 117.098L84.24 117.027C84.24 117.027 84.6212 117.465 85.0165 117.888C85.3835 118.34 85.7506 118.778 85.7506 118.778L85.6517 118.862Z" fill="#A7DCF8"/>
<path d="M82.5455 115.46C82.5455 115.46 82.1078 115.079 81.6843 114.697C81.2325 114.33 80.7808 113.977 80.7808 113.977L80.8231 113.921C80.8231 113.921 81.2749 114.274 81.7266 114.641C82.1643 115.022 82.6019 115.403 82.6019 115.403L82.5455 115.46Z" fill="#A7DCF8"/>
<path d="M78.8752 112.679C78.8752 112.679 78.3669 112.396 77.8728 112.114C77.3505 111.86 76.8281 111.606 76.8281 111.606L76.8422 111.592C76.8422 111.592 77.3646 111.846 77.8869 112.086C78.3952 112.368 78.9034 112.65 78.9034 112.65L78.8752 112.679Z" fill="#A7DCF8"/>
<path d="M216.155 33.4927C216.748 34.6927 219.995 34.8339 223.299 33.7045C226.038 32.7727 229.68 30.4292 229.285 28.6927C228.904 26.9421 225.346 29.0316 224.146 25.7845C223.384 23.6951 224.344 21.6621 223.285 18.5986C222.099 15.1539 218.979 14.561 216.48 15.6339C213.981 16.6927 211.694 18.7821 212.753 22.0151C213.727 25.0221 216.043 25.4457 217.101 28.7492C218.09 31.7845 215.577 32.3069 216.155 33.4927Z" fill="#FAC182"/>
<path d="M237.882 35.9915C236.979 37.4457 215.689 45.2386 214.362 44.688C213.035 44.1374 210.494 36.7821 211.045 35.7233C211.595 34.6504 233.096 26.5327 234.565 27.0268C236.033 27.521 238.786 34.5374 237.882 35.9915Z" fill="#40B6E9"/>
<path d="M259.073 79.5445C258.254 85.9398 233.139 95.088 227.562 91.1915C223.906 88.6362 212.711 45.2951 213.303 44.208C213.896 43.1209 236.781 34.4951 238.306 34.9609C239.845 35.4268 259.51 76.0857 259.073 79.5445Z" fill="#F6F6F6"/>
<path d="M221.026 70.1562C223.722 79.4315 226.631 88.0433 228.155 89.1021C233.294 92.7021 256.489 84.2457 257.238 78.3445C257.421 76.9045 253.807 68.4339 249.671 59.5539L221.026 70.1562Z" fill="#CBDFEB"/>
<path d="M217.694 42.9092L216 43.5445L213.078 35.6245L214.758 35.0033L217.694 42.9092Z" fill="#B4CAD8"/>
<path d="M218.454 33.6497L216.759 34.2762L219.681 42.1819L221.376 41.5554L218.454 33.6497Z" fill="#B4CAD8"/>
<path d="M225.063 40.1845L223.369 40.8198L220.447 32.8998L222.127 32.2786L225.063 40.1845Z" fill="#B4CAD8"/>
<path d="M225.815 30.9024L224.121 31.5293L227.044 39.4341L228.739 38.8073L225.815 30.9024Z" fill="#B4CAD8"/>
<path d="M229.509 29.5559L227.814 30.1819L230.734 38.0884L232.429 37.4624L229.509 29.5559Z" fill="#B4CAD8"/>
<path d="M233.185 28.1772L231.49 28.8041L234.414 36.7089L236.109 36.082L233.185 28.1772Z" fill="#B4CAD8"/>
<path d="M216.649 16.0998C217.256 15.9021 217.835 16.001 217.934 16.3257C218.033 16.6362 217.623 17.0598 217.016 17.2574C216.409 17.4551 215.83 17.3562 215.732 17.0315C215.633 16.7068 216.042 16.2833 216.649 16.0998Z" fill="#B6804D"/>
<path d="M239.577 35.808C239.294 36.5139 213.53 45.8174 213.064 45.6198C212.598 45.408 211.962 43.6715 212.16 43.1915C212.372 42.6974 238.207 33.2951 238.673 33.3798C239.153 33.4645 239.859 35.1021 239.577 35.808Z" fill="#5CBCEB"/>
<path d="M226.546 52.2692L225.911 50.5892L222.014 52.0292L221.647 51.0269L219.953 51.6481L231.092 81.7469L232.786 81.1257L232.306 79.8269L236.203 78.3869L235.567 76.6928L231.671 78.1328L230.372 74.6034L234.268 73.1634L233.633 71.4692L229.751 72.9092L228.438 69.3798L232.334 67.9398L231.713 66.2457L227.817 67.6857L226.504 64.1563L230.4 62.7163L229.779 61.0222L225.883 62.4622L224.584 58.9328L228.466 57.4928L227.845 55.8128L223.948 57.2528L222.65 53.7234L226.546 52.2692Z" fill="#B4CAD8"/>
<path d="M276.169 192.147C276.607 192.33 288.452 197.497 283.75 209.808C278.979 222.345 268.546 213.493 268.546 213.493C268.546 213.493 269.576 230.646 253.087 234.768C232.56 239.907 226.842 221.088 226.842 221.088C226.842 221.088 222.381 239.766 194.456 236.293C165.812 232.735 170.513 208.283 170.513 208.283C170.513 208.283 146.541 202.199 147.148 190.072C147.19 189.196 147.261 188.377 147.36 187.587C149.717 168.373 167.054 174.203 167.054 174.203C167.054 174.203 168.409 164.914 186.72 159.761C194.273 157.629 213.713 172.241 213.713 172.241C213.713 172.241 222.522 157.968 242.216 156.105C261.896 154.241 273.515 166.17 273.515 166.17C273.515 166.17 288.72 161.385 290.88 178.283C290.993 179.116 291.049 179.893 291.063 180.641C291.459 194.66 276.677 192.232 276.169 192.147Z" fill="#00B5EC"/>
<path d="M169.242 184.297C163.934 187.234 159.558 194.166 163.482 200.039C167.012 205.319 173.972 207.112 179.195 204.726C182.414 203.257 185.266 200.166 189.233 200.787C191.816 201.196 194.372 203.992 196.701 205.05C202.391 207.62 209.901 209.187 215.605 205.502C218.301 203.752 219.388 200.956 222.635 199.94C225.995 198.895 229.383 200.377 232.631 200.815C239.463 201.747 247.031 201.676 253.482 199.389C260.569 196.876 262.588 193.079 265.539 186.486C268.503 179.864 269.859 172.199 262.179 168.33C244.391 159.394 222.692 173.653 205.722 178.227L169.242 184.297Z" fill="#CDE0EB"/>
<path d="M183.501 183.253C179.633 184.848 175.327 186.443 168.226 188.561C164.118 189.789 165.289 201.083 170.654 201.225C180.48 201.479 185.506 194.053 186.522 189.027C187.369 184.82 185.689 182.349 183.501 183.253Z" fill="#EBB28F"/>
<path d="M245.675 193.417C245.647 193.432 245.619 193.446 245.591 193.446C241.906 195.027 228.847 196.523 222.974 194.194C222.96 194.194 222.946 194.194 222.946 194.18C211.595 189.648 200.725 197.286 196.136 190.072C186.932 175.601 220.249 140.293 242.753 143.06C256.066 144.697 263.139 151.488 265.482 165.21C268.221 181.163 256.913 188.589 245.675 193.417Z" fill="#FAC7A6"/>
<path d="M245.59 193.46C244.376 175.262 229.891 152.448 228.818 145.333C228.649 144.246 231.642 141.253 233.816 143.046C233.83 143.06 233.844 143.06 233.844 143.074C234.465 142.876 235.228 142.707 236.103 142.58C238.207 142.255 240.875 142.156 243.331 142.453C256.644 144.09 263.138 151.516 265.496 165.225C268.221 181.206 256.856 188.632 245.59 193.46Z" fill="#73CAEB"/>
<path d="M247.651 167.187C246.268 167.512 245.124 166.636 244.306 165.648C243.939 165.21 243.783 164.956 243.148 164.942C243.021 164.942 242.95 164.928 242.908 164.914C242.922 165.225 242.964 165.549 242.964 165.86C242.95 166.608 242.739 167.399 242.061 167.822C240.183 169.008 238.828 167.963 237.642 166.297C241.383 174.909 245.026 184.707 245.604 193.432C252.339 190.552 259.101 186.74 262.87 180.74C262.376 173.088 257.873 165.648 247.651 167.187Z" fill="#C9DAE5"/>
<path d="M242.245 162.839C241.031 160.608 239.901 158.335 238.969 155.977C237.868 153.21 236.725 150.457 235.68 147.662C235.383 146.872 234.791 144.429 233.816 143.046C233.831 143.06 233.845 143.06 233.845 143.074C234.466 142.876 235.228 142.707 236.103 142.58C236.4 143.441 236.555 144.33 236.753 145.206C237.12 146.759 237.275 148.34 237.529 149.921C237.812 151.643 238.715 153.253 239.322 154.876C240.325 157.573 241.44 160.128 242.245 162.839Z" fill="#BBD4E2"/>
<path d="M245.675 193.417C245.647 193.432 245.619 193.446 245.591 193.446C241.906 195.027 228.847 196.523 222.974 194.194C223.525 193.319 223.976 192.387 224.654 191.639C227.351 190.481 232.405 186.726 233.816 185.074C240.776 176.942 236.202 170.843 238.038 167.243C242.965 180.401 245.675 188.632 245.675 193.417Z" fill="#F0DFDA"/>
<path d="M262.56 181.206C262.151 186.02 255.628 195.93 248.866 197.413C244.673 198.345 241.115 189.86 241.115 189.86C241.115 189.86 242.231 171.902 248.951 170.307C258.113 168.147 262.983 176.392 262.56 181.206Z" fill="#FAC7A6"/>
<path d="M254.456 193.46C254.809 197.427 252.974 200.406 249.896 200.406C247.27 200.406 245.308 198.486 242.23 196.989C240.268 196.043 237.317 196.17 235.2 194.138C232.122 191.187 234.663 186.669 238.009 186.938C242.442 187.276 254.089 189.281 254.456 193.46Z" fill="#FAC7A6"/>
<path d="M239.351 186.881C239.689 187.615 239.689 189.196 238.955 189.549C238.221 189.902 237.035 188.872 236.696 188.152C236.358 187.417 236.668 186.556 237.402 186.203C238.136 185.85 239.012 186.147 239.351 186.881Z" fill="#FAC7A6"/>
<path d="M237.12 187.516C237.459 188.236 237.459 189.832 236.725 190.17C235.991 190.523 234.805 189.493 234.466 188.773C234.127 188.039 234.438 187.178 235.172 186.825C235.906 186.472 236.767 186.782 237.12 187.516Z" fill="#FAC7A6"/>
<path d="M235.609 188.66C235.948 189.38 235.948 190.975 235.214 191.328C234.48 191.681 233.294 190.65 232.955 189.93C232.616 189.196 232.927 188.335 233.661 187.982C234.395 187.629 235.271 187.94 235.609 188.66Z" fill="#FAC7A6"/>
<path d="M234.649 190.439C234.988 191.159 234.988 192.754 234.254 193.107C233.52 193.46 232.334 192.429 231.995 191.709C231.656 190.989 231.967 190.114 232.701 189.761C233.435 189.408 234.296 189.719 234.649 190.439Z" fill="#FAC7A6"/>
<path d="M249.501 192.147C245.718 188.01 240.946 187.375 240.946 187.375C240.946 187.375 244.433 187.121 246.889 188.547C249.332 189.973 249.826 190.82 249.501 192.147Z" fill="#ECAA8E"/>
<path d="M234.875 192.528C235.483 192.528 235.948 192.105 236.132 191.54C236.612 192.062 237.332 191.243 237.403 190.594C238.179 191.187 239.534 190.199 239.548 189.253C239.548 190.34 239.294 191.752 237.854 191.427C237.685 191.992 236.81 192.528 236.259 192.316C236.231 192.415 236.273 192.528 236.217 192.627C235.779 192.937 235.144 192.923 235.101 192.528" fill="#ECAA8E"/>
<path d="M179.675 207.86H179.082C179.308 207.832 179.506 207.832 179.675 207.86Z" fill="#CDE0EB"/>
<path d="M224.569 207.394C224.668 207.648 224.739 207.93 224.781 208.199C224.711 207.93 224.64 207.662 224.569 207.394Z" fill="#CDE0EB"/>
<path d="M261.896 203.272C262.616 203.949 263.238 204.754 263.732 205.629C262.984 204.796 262.362 203.992 261.896 203.272Z" fill="#CDE0EB"/>
<path d="M276.169 192.147C276.607 192.33 288.452 197.497 283.75 209.808C278.979 222.345 268.546 213.493 268.546 213.493C268.546 213.493 269.576 230.646 253.087 234.768C232.56 239.907 226.842 221.088 226.842 221.088C226.842 221.088 222.381 239.766 194.456 236.293C165.812 232.735 170.513 208.283 170.513 208.283C170.513 208.283 146.541 202.199 147.148 190.072C147.19 189.196 147.261 188.377 147.36 187.587C149.209 188.194 151.186 192.387 151.92 193.516C153.812 196.425 156.226 198.585 159.077 200.519C164.442 204.161 171.501 207.86 177.981 207.846H179.068C177.628 207.987 175.397 209.06 174.677 209.949C173.732 211.135 173.901 213.606 174.113 215.215C174.508 218.123 176.061 221.526 177.797 223.897C181.482 228.937 189.543 230.787 195.12 232.1C209.28 235.446 224.894 227.526 224.866 211.516C224.866 210.387 224.95 209.229 224.739 208.17C226.433 214.269 229.976 220.777 234.24 225.634C238.546 230.519 247.44 231.676 253.299 229.996C259.242 228.288 263.012 223.869 264.861 218.265C266.075 214.552 265.863 209.356 263.689 205.601C267.614 209.85 274.941 214.453 278.965 210.232C283.877 205.079 279.91 197.116 274.786 193.714C272.965 192.514 270.861 192.119 268.772 191.752C271.002 192.006 273.741 191.441 276.085 191.328C278.725 191.201 281.181 190.467 283.468 189.097C286.997 186.98 289.369 184.015 291.035 180.627C291.459 194.66 276.677 192.232 276.169 192.147Z" fill="#CDE0EB"/>
<path d="M280.419 169.375C280.207 169.432 280.136 169.77 280.348 169.869C283.637 171.436 286.814 174.5 286.023 178.509C285.797 179.667 287.562 180.147 287.788 178.989C288.565 174.98 285.346 168.133 280.419 169.375Z" fill="white"/>
<path d="M278.626 201.902C278.386 201.676 278.004 201.775 277.906 202.086C277.75 202.594 277.849 203.13 277.863 203.653C277.906 204.443 277.807 205.22 277.609 205.996C277.454 206.632 277.171 207.239 276.734 207.719C276.296 208.184 275.604 208.128 275.167 208.622C274.997 208.82 275.011 209.06 275.167 209.257C276.466 210.895 278.428 208.297 278.866 207.21C279.416 205.912 279.769 202.975 278.626 201.902Z" fill="white"/>
<path d="M258.96 221.215C258.833 220.904 258.409 220.792 258.212 221.116C257.52 222.274 257.11 223.432 256.066 224.363C254.852 225.422 253.2 225.973 251.675 226.368C248.936 227.088 245.534 227.356 242.795 226.495C242.499 226.396 242.315 226.834 242.583 226.989C245.647 228.754 249.685 228.486 253.002 227.625C255.515 226.961 260.259 224.533 258.96 221.215Z" fill="white"/>
<path d="M219.092 211.319C218.329 216.359 216.282 220.269 212.428 223.672C208.588 227.06 203.308 229.149 198.184 229.305C197.845 229.319 197.873 229.77 198.184 229.813C208.108 231.097 220.998 222.33 220.744 211.545C220.729 210.641 219.247 210.359 219.092 211.319Z" fill="white"/>
<path d="M158.696 174.782C152.922 176.279 150.988 183.465 151.835 188.617C151.891 188.942 152.428 188.942 152.484 188.617C152.88 186.429 153.19 184.17 153.882 182.039C154.814 179.145 156.691 177.549 159.261 176.137C160.023 175.728 159.501 174.57 158.696 174.782Z" fill="white"/>
<path d="M225.642 164.081C225.642 172.227 224.569 185.766 214.108 188.872C209.534 190.227 206.781 181.206 206.781 175.46C206.781 169.714 211.185 154.114 215.28 156.556C219.218 158.886 225.642 154.947 225.642 164.081Z" fill="#F0DFDA"/>
<path d="M188.47 145.954C188.964 147.027 187.778 148.636 185.83 149.54C183.868 150.443 181.877 150.316 181.383 149.243C180.889 148.17 182.075 146.561 184.023 145.657C185.985 144.74 187.976 144.881 188.47 145.954Z" fill="#94D4ED"/>
<path d="M220.983 165.577C225.275 174.839 219.712 186.274 205.087 193.05C190.461 199.827 180.804 198.726 174.592 189.592C171.938 185.695 169.383 178.368 169.948 170.9C170.541 163.22 177.162 153.563 185.025 149.907C194.103 145.7 203.887 145.093 211.722 151.94C216.649 156.246 219.359 162.076 220.983 165.577Z" fill="#FAC7A6"/>
<path d="M203.026 182.533C203.026 182.533 203.633 185.003 200.809 186.302C198.946 187.163 197.294 185.992 197.294 185.992" stroke="#1A0B07" stroke-miterlimit="10" stroke-linecap="round"/>
<path d="M215.957 173.596C216.621 175.036 215.392 177.041 213.19 178.057C210.988 179.074 208.658 178.735 207.995 177.281C207.331 175.841 208.559 173.836 210.762 172.82C212.95 171.818 215.279 172.156 215.957 173.596Z" fill="#F5AC9A"/>
<path d="M190.461 185.427C191.124 186.867 189.896 188.872 187.694 189.888C185.491 190.905 183.162 190.566 182.499 189.112C181.821 187.672 183.063 185.667 185.266 184.65C187.468 183.634 189.797 183.973 190.461 185.427Z" fill="#F5AC9A"/>
<path d="M202.517 165.337C203.138 164.208 205.764 163.375 207.077 164.9" stroke="#1A0B07" stroke-miterlimit="10" stroke-linecap="round"/>
<path d="M184.531 173.681C183.261 173.413 180.945 174.895 181.242 176.886" stroke="#1A0B07" stroke-miterlimit="10" stroke-linecap="round"/>
<path d="M196.404 181.742C192.931 180.514 195.811 176.123 198.028 177.916" stroke="#ECAA8E" stroke-miterlimit="10" stroke-linecap="round"/>
<path d="M224.513 160.862C225.529 163.065 224.583 165.676 222.381 166.693C220.178 167.709 217.567 166.763 216.55 164.561C215.534 162.359 216.48 159.747 218.682 158.73C220.87 157.714 223.482 158.66 224.513 160.862Z" fill="#FAC7A6"/>
<path d="M220.983 165.577C220.983 165.577 220.898 165.479 220.771 165.295C220.644 165.126 220.461 164.857 220.291 164.519C220.192 164.349 220.108 164.166 220.023 163.954C219.938 163.756 219.854 163.53 219.797 163.305C219.727 163.079 219.67 162.825 219.628 162.57C219.585 162.316 219.585 162.048 219.571 161.78C219.585 161.512 219.614 161.229 219.684 160.961C219.698 160.82 219.769 160.693 219.825 160.566C219.868 160.439 219.952 160.312 220.037 160.199C220.108 160.072 220.207 159.973 220.334 159.888C220.432 159.789 220.56 159.733 220.687 159.676C220.814 159.606 220.927 159.577 221.054 159.563C221.181 159.549 221.294 159.521 221.392 159.549C221.604 159.563 221.788 159.606 221.943 159.676C222.098 159.719 222.225 159.789 222.31 159.86C222.508 159.987 222.607 160.057 222.607 160.057C222.607 160.057 222.48 160.057 222.268 160.029C222.169 160.015 222.028 160.015 221.887 160.015C221.745 160.001 221.59 160.029 221.435 160.072C221.35 160.072 221.28 160.114 221.209 160.156C221.138 160.185 221.068 160.213 221.011 160.269C220.941 160.312 220.884 160.354 220.842 160.439C220.785 160.495 220.729 160.566 220.701 160.65C220.602 160.792 220.574 160.989 220.517 161.187C220.475 161.385 220.461 161.61 220.461 161.822C220.461 162.048 220.447 162.274 220.489 162.5C220.517 162.726 220.517 162.952 220.56 163.163C220.616 163.601 220.701 164.01 220.757 164.363C220.828 164.716 220.884 165.027 220.927 165.239C220.969 165.45 220.983 165.577 220.983 165.577Z" fill="#ECAA8E"/>
<path d="M167.477 187.319C168.494 189.521 171.105 190.481 173.308 189.45C175.51 188.434 176.47 185.822 175.44 183.62C174.423 181.417 171.811 180.457 169.609 181.488C167.407 182.505 166.447 185.116 167.477 187.319Z" fill="#FAC7A6"/>
<path d="M173.35 187.672C173.35 187.672 173.266 187.573 173.124 187.403C172.983 187.234 172.786 186.98 172.56 186.712C172.334 186.429 172.066 186.105 171.769 185.78C171.628 185.61 171.459 185.455 171.303 185.286C171.148 185.116 170.979 184.975 170.809 184.834C170.64 184.693 170.47 184.566 170.287 184.467C170.103 184.382 169.934 184.283 169.764 184.255C169.68 184.227 169.595 184.227 169.51 184.227C169.426 184.213 169.355 184.227 169.27 184.255C169.186 184.255 169.115 184.298 169.044 184.34C168.974 184.368 168.889 184.396 168.833 184.453C168.706 184.552 168.593 184.65 168.508 184.763C168.409 184.862 168.324 184.961 168.268 185.06C168.141 185.243 168.07 185.342 168.07 185.342C168.07 185.342 168.084 185.215 168.113 184.989C168.127 184.876 168.155 184.735 168.211 184.594C168.254 184.439 168.339 184.269 168.466 184.1C168.522 184.001 168.607 183.93 168.691 183.846C168.776 183.761 168.889 183.69 169.016 183.634C169.143 183.578 169.27 183.521 169.411 183.507C169.553 183.479 169.694 183.465 169.835 183.479C169.976 183.493 170.131 183.507 170.259 183.549C170.4 183.592 170.541 183.62 170.654 183.705C170.908 183.832 171.134 183.987 171.346 184.142C171.543 184.326 171.741 184.495 171.91 184.693C172.08 184.89 172.235 185.088 172.362 185.286C172.503 185.483 172.616 185.681 172.715 185.879C172.828 186.076 172.913 186.26 172.969 186.443C173.124 186.796 173.195 187.093 173.251 187.319C173.322 187.545 173.35 187.672 173.35 187.672Z" fill="#ECAA8E"/>
<path d="M170.23 177.648C167.76 167.074 170.004 154.312 184.306 147.676C200.428 140.208 212.273 147.874 216.197 156.33L170.23 177.648Z" fill="#62C6E9"/>
<path d="M216.818 156.585C216.564 157.474 204.621 161.625 193.27 166.961C181.708 172.396 170.753 179.003 169.863 178.354C168.113 177.055 165.825 172.354 166.418 170.928C166.729 170.208 177.529 162.613 189.148 157.149C200.301 151.912 212.273 148.777 213.374 149.159C215.633 149.935 217.327 154.778 216.818 156.585Z" fill="#94D4ED"/>
<path d="M204.338 171.874C206.216 172.537 208.418 170.914 208.602 169.403" stroke="#1A0B07" stroke-miterlimit="10" stroke-linecap="round"/>
<path d="M208.588 169.022L211.044 169.319L208.616 169.799C208.404 169.841 208.207 169.7 208.164 169.488C208.122 169.276 208.263 169.079 208.475 169.036C208.517 169.022 208.56 169.022 208.588 169.022Z" fill="#1A0B07"/>
<path d="M208.065 170.138L210.522 170.434L208.094 170.914C207.882 170.956 207.684 170.815 207.642 170.603C207.599 170.392 207.741 170.194 207.952 170.152C207.995 170.138 208.037 170.138 208.065 170.138Z" fill="#1A0B07"/>
<path d="M187.976 179.469C187.27 181.333 184.616 181.968 183.332 181.135" stroke="#1A0B07" stroke-miterlimit="10" stroke-linecap="round"/>
<path d="M183.614 181.389L181.68 182.942L183.049 180.881C183.162 180.697 183.416 180.655 183.586 180.768C183.769 180.881 183.811 181.135 183.699 181.305C183.684 181.333 183.656 181.361 183.614 181.389Z" fill="#1A0B07"/>
<path d="M184.814 181.7L182.88 183.253L184.249 181.177C184.362 180.994 184.616 180.952 184.786 181.064C184.969 181.177 185.012 181.432 184.899 181.601C184.87 181.643 184.842 181.686 184.814 181.7Z" fill="#1A0B07"/>
<path d="M174.791 186.937C170.612 186.768 165.12 187.643 163.991 191.78C162.861 195.93 164.075 199.855 168.113 200.956C172.151 202.057 178.475 200.674 179.605 196.523C180.72 192.387 180.494 187.163 174.791 186.937Z" fill="#FAC7A6"/>
<path d="M176.4 187.093C173.788 186.09 170.824 186.683 168.311 187.714C168.184 187.77 168.226 187.982 168.367 187.94C170.414 187.22 172.461 186.895 174.607 187.22C177.529 187.672 178.165 189.733 178.871 192.217C178.913 192.373 179.167 192.387 179.209 192.217C179.661 190.128 178.405 187.855 176.4 187.093Z" fill="#ECAA8E"/>
<path d="M222.395 183.69C218.527 185.286 215.181 188.123 208.08 190.241C201.388 188.66 196.179 193.432 198.028 197.413C199.651 200.928 206.23 205.728 212.117 203.187C215.957 201.535 224.414 194.476 225.416 189.465C226.263 185.257 224.583 182.787 222.395 183.69Z" fill="#FAC7A6"/>
<path d="M222.268 182.702C219.91 183.973 217.708 185.568 215.336 186.839C213.049 188.067 210.607 188.999 208.306 190.185C206.174 189.436 203.816 189.352 201.755 190.34C199.27 191.54 196.828 194.01 197.576 196.989C197.59 197.074 197.717 197.046 197.717 196.975C197.76 193.77 199.595 191.723 202.489 190.537C205.468 189.323 207.924 190.792 210.706 191.61C210.833 191.639 210.889 191.483 210.79 191.413C210.127 190.975 209.393 190.594 208.63 190.297C211.03 189.577 213.36 188.392 215.562 187.234C217.906 186.006 220.447 184.693 222.466 182.97C222.635 182.843 222.437 182.603 222.268 182.702Z" fill="#E3A588"/>
<path d="M231.685 145.149C230.598 148.467 234.607 160.89 238.475 161.977C239.633 159.521 237.487 154.763 236.697 152.222C235.92 149.752 234.932 145.841 233.054 144.02L231.685 145.149Z" fill="#DDF1FD"/>
<path d="M247.299 161.243C244.602 160.015 234.875 142.622 241.835 143.017C259.186 144.006 267.459 167.074 262.574 165.874C260.753 165.422 260.16 162.839 256.517 161.963C251.35 160.749 249.995 162.472 247.299 161.243Z" fill="#BFE5FB"/>
<path d="M121.313 224.603C120.085 224.603 118.913 224.067 118.108 223.121C117.374 222.274 117.021 221.187 117.12 220.057C117.205 218.942 117.727 217.926 118.588 217.192C119.35 216.542 120.31 216.189 121.313 216.189C122.541 216.189 123.713 216.726 124.517 217.672C125.252 218.533 125.605 219.62 125.506 220.735C125.421 221.85 124.899 222.867 124.037 223.601C123.289 224.25 122.315 224.603 121.313 224.603ZM121.313 217.488C120.621 217.488 119.943 217.742 119.421 218.18C118.828 218.688 118.475 219.394 118.405 220.17C118.348 220.947 118.588 221.695 119.096 222.288C119.647 222.937 120.466 223.319 121.313 223.319C122.005 223.319 122.682 223.065 123.205 222.627C123.797 222.119 124.165 221.413 124.221 220.636C124.277 219.86 124.037 219.112 123.529 218.519C122.979 217.855 122.174 217.488 121.313 217.488Z" fill="#A4A3A3"/>
<path d="M120.706 224.999C119.153 224.999 117.67 224.321 116.668 223.135C114.776 220.904 115.03 217.559 117.261 215.653C118.221 214.834 119.435 214.382 120.706 214.382C122.259 214.382 123.741 215.06 124.743 216.246C125.661 217.319 126.113 218.702 126 220.114C125.887 221.526 125.237 222.81 124.15 223.728C123.19 224.547 121.976 224.999 120.706 224.999ZM120.706 216.006C119.83 216.006 118.983 216.316 118.32 216.881C116.781 218.194 116.597 220.523 117.91 222.076C118.616 222.895 119.633 223.361 120.72 223.361C121.595 223.361 122.442 223.05 123.106 222.486C123.854 221.85 124.306 220.961 124.39 219.973C124.461 218.999 124.165 218.039 123.515 217.29C122.809 216.472 121.793 216.006 120.706 216.006Z" fill="#DCDCDC"/>
<path d="M116.71 223.177C116.569 223.036 102.07 208.326 94.7007 198.062L96.0136 197.116C103.312 207.281 117.712 221.893 117.854 222.034L116.71 223.177Z" fill="#DCDCDC"/>
<path d="M123.444 217.206C123.303 216.98 109.736 195.337 101.816 188.744L102.861 187.502C110.978 194.264 124.263 215.455 124.814 216.344L123.444 217.206Z" fill="#DCDCDC"/>
<path d="M104.16 187.77C105.416 189.239 105.515 190.241 103.736 191.201C103.637 191.257 103.51 191.272 103.383 191.257C102.211 191.159 99.882 189.097 98.7667 192.344C98.075 194.349 99.275 194.801 100.235 196.156C100.32 196.283 100.39 196.424 100.418 196.566C100.8 198.062 98.4703 200.264 97.4114 200.829C96.2679 201.45 94.8561 200.942 93.4161 199.192C91.9761 197.441 84.6208 188.039 90.1408 183.337C94.6444 179.469 99.4444 182.25 104.16 187.77Z" fill="#69C8F3"/>
<path d="M103.369 191.257C102.197 191.159 99.8678 189.097 98.7525 192.344C98.4137 193.347 98.5407 193.954 98.8654 194.49C99.2043 195.027 94.7007 190.227 97.4254 188.279C98.7949 187.29 100.588 189.027 101.534 189.902C101.943 190.297 102.734 190.749 103.369 191.257Z" fill="#92B7CB"/>
<path d="M103.934 189.493C103.044 190.608 101.59 188.999 100.969 188.392C100.08 187.53 99.1478 186.712 98.0466 186.189C97.0866 185.723 95.9148 185.554 94.8419 185.752C93.6701 185.963 92.5266 186.542 91.5243 185.469C89.3784 183.168 93.9101 181.897 95.576 182.236C98.1313 182.759 100.404 184.283 102.141 186.147C102.607 186.641 104.484 188.561 104.216 188.956L103.934 189.493Z" fill="#D8B7C7"/>
<path d="M89.6187 192.952C90.0987 194.109 90.9881 195.14 91.7081 196.184C92.894 197.893 94.6587 201.055 97.0022 199.897C98.0046 199.403 99.4022 198.613 99.7269 197.441C100.052 196.255 99.1057 195.182 98.301 194.49C96.4798 192.909 94.2351 192.034 92.3151 190.537C91.1293 189.606 90.9598 188.49 90.1551 187.361C89.8022 186.853 89.2375 186.062 88.6022 186.542C88.0516 186.98 88.3763 189.973 89.6187 192.952Z" fill="#CDE5F3"/>
</svg>
