<svg viewBox="0 0 316 589" fill="none" xmlns="http://www.w3.org/2000/svg" preserveAspectRatio="xMinYMin meet">
<path d="M26.0026 266.103C26.0026 266.103 34.2822 240.894 24.3198 240.221C15.0305 239.615 17.6221 252.034 17.6221 252.034C17.6221 252.034 10.0156 241.803 4.29398 250.25C-1.52865 258.867 26.0026 266.103 26.0026 266.103Z" fill="white"/>
<path d="M33.6423 227.229C33.6423 227.229 40.34 211.007 33.8106 210.064C27.7187 209.189 28.8294 217.536 28.8294 217.536C28.8294 217.536 24.3194 210.401 20.1123 215.719C15.8379 221.104 33.6423 227.229 33.6423 227.229Z" fill="white"/>
<path d="M283.155 295.709C283.155 295.709 274.235 268.581 284.972 267.874C294.968 267.201 292.175 280.597 292.175 280.597C292.175 280.597 300.353 269.591 306.512 278.678C312.806 287.9 283.155 295.709 283.155 295.709Z" fill="white"/>
<path d="M274.943 253.873C274.943 253.873 267.74 236.405 274.774 235.396C281.337 234.453 280.159 243.44 280.159 243.44C280.159 243.44 285.006 235.766 289.516 241.487C294.127 247.276 274.943 253.873 274.943 253.873Z" fill="white"/>
<path d="M301.498 117.967C301.498 120.155 299.714 121.938 297.526 121.938C295.338 121.938 293.555 120.155 293.555 117.967C293.555 115.779 295.338 113.995 297.526 113.995C299.714 113.995 301.498 115.779 301.498 117.967Z" fill="white"/>
<path d="M7.943 446.39C7.943 448.577 6.15919 450.361 3.9715 450.361C1.78381 450.361 0 448.577 0 446.39C0 444.202 1.78381 442.418 3.9715 442.418C6.19285 442.418 7.943 444.202 7.943 446.39Z" fill="white"/>
<path d="M315.33 414.18C315.33 416.368 313.546 418.152 311.359 418.152C309.171 418.152 307.387 416.368 307.387 414.18C307.387 411.993 309.171 410.209 311.359 410.209C313.546 410.243 315.33 411.993 315.33 414.18Z" fill="white"/>
<path d="M50.9562 584.686C50.9562 586.873 49.1724 588.657 46.9847 588.657C44.797 588.657 43.0132 586.873 43.0132 584.686C43.0132 582.498 44.797 580.714 46.9847 580.714C49.1724 580.714 50.9562 582.498 50.9562 584.686Z" fill="white"/>
<path d="M136.781 3.9715C136.781 6.15919 134.997 7.943 132.809 7.943C130.622 7.943 128.838 6.15919 128.838 3.9715C128.838 1.78381 130.622 0 132.809 0C134.997 0 136.781 1.78381 136.781 3.9715Z" fill="white"/>
<path d="M288.17 547.562C288.17 549.75 286.386 551.534 284.198 551.534C282.01 551.534 280.227 549.75 280.227 547.562C280.227 545.374 282.01 543.591 284.198 543.591C286.386 543.591 288.17 545.374 288.17 547.562Z" fill="white"/>
</svg>


