<svg width="1512" height="211" viewBox="0 0 1512 211" fill="none" xmlns="http://www.w3.org/2000/svg">
<path d="M190.287 60.0741C183.409 60.0741 176.74 60.7395 170.445 62.01C170.862 59.7413 171.071 57.3819 171.071 55.0225C171.071 24.9552 137.39 0.604919 95.8313 0.604919C65.4437 0.604919 39.2662 13.6119 27.3863 32.3661C25.719 32.2754 24.0099 32.2451 22.3009 32.2451C14.5477 32.2451 7.04458 33.1224 0 34.6953V183.913C15.298 179.375 28.095 171.329 36.4317 161.135C49.8123 169.938 67.5696 175.292 87.0777 175.292C109.42 175.292 129.512 168.244 143.309 157.052C156.19 164.523 172.53 168.97 190.329 168.97C231.887 168.97 265.568 144.589 265.568 114.552C265.568 84.4545 231.888 60.0741 190.287 60.0741Z" fill="url(#paint0_linear_2900_18351)"/>
<path d="M0 211.62H671.236C668.735 189.902 644.892 172.539 614.921 170.603C612.295 157.021 602.541 145.073 588.535 136.785C589.494 133.639 590.036 130.342 590.036 126.984C590.036 103.511 565.15 84.2428 533.471 82.1858C528.468 56.3534 497.831 36.4799 460.732 36.4799C449.436 36.4799 438.723 38.3251 429.177 41.6222C423.342 40.3518 417.131 39.656 410.753 39.656C390.495 39.656 372.487 46.4923 360.858 57.1701C349.394 60.074 339.057 64.8231 330.595 70.8728C327.052 70.1468 323.3 69.7838 319.424 69.7838C315.214 69.7838 311.17 70.2376 307.335 71.0845C301.083 68.9066 294.08 67.6967 286.702 67.6967C262.442 67.6967 242.35 80.7036 239.057 97.6127C222.384 98.7017 208.586 107.05 203.834 118.273C193.205 102.18 170.57 91.079 144.268 91.079C134.139 91.079 124.51 92.7426 115.923 95.707C110.712 94.5576 105.127 93.9224 99.3744 93.9224C81.2002 93.9224 65.0269 100.063 54.5642 109.652C36.0149 114.371 20.8836 124.322 12.5469 137.087C8.21174 137.239 4.04335 137.783 0.0416992 138.66V211.62H0Z" fill="url(#paint1_linear_2900_18351)"/>
<path d="M260.608 117.879C257.899 95.1929 231.596 77.3764 199.583 77.3764C198.166 77.3764 196.832 77.4066 195.456 77.4671C185.785 62.1915 164.443 51.6044 139.725 51.6044C105.877 51.6044 78.4494 71.4476 78.4494 95.9189C78.4494 97.8548 78.6162 99.7302 78.9496 101.606C73.8225 100.577 68.3619 100.033 62.7763 100.033C28.929 100.033 1.50098 119.876 1.50098 144.347C1.50098 168.849 28.929 188.692 62.7763 188.692C77.2823 188.692 90.5795 185.062 101.042 178.982C112.297 188.117 128.637 193.864 146.853 193.864C162.734 193.864 177.199 189.509 188.078 182.34C198.749 195.407 218.382 204.179 240.892 204.179C274.739 204.179 302.167 184.336 302.167 159.865C302.167 140.354 284.785 123.808 260.608 117.879Z" fill="url(#paint2_linear_2900_18351)"/>
<path d="M0 211.621H328.761C309.169 190.416 276.489 176.048 239.099 174.626C231.679 167.76 220.383 163.222 207.586 162.799C200.791 152.393 188.453 144.287 173.363 140.445C164.86 132.641 151.646 127.65 136.89 127.65C132.221 127.65 127.678 128.164 123.426 129.072C116.423 126.652 108.628 125.321 100.375 125.321C78.991 125.321 60.525 134.365 51.8548 147.463C47.9782 138.328 36.7235 131.522 23.1763 130.614C21.2588 120.723 12.2968 112.495 0.0833729 108.623V211.621H0Z" fill="url(#paint3_linear_2900_18351)"/>
<path d="M1038.55 81.339C1041.85 53.5101 1074.19 31.6402 1113.54 31.6402C1115.25 31.6402 1116.92 31.6705 1118.63 31.7612C1130.51 13.007 1156.69 0 1187.07 0C1228.63 0 1262.31 24.3805 1262.31 54.4175C1262.31 56.777 1262.11 59.1061 1261.69 61.405C1268.02 60.1648 1274.69 59.4692 1281.53 59.4692C1323.09 59.4692 1356.77 83.8496 1356.77 113.887C1356.77 143.954 1323.09 168.304 1281.53 168.304C1263.73 168.304 1247.39 163.827 1234.51 156.386C1220.71 167.578 1200.62 174.626 1178.28 174.626C1158.77 174.626 1141.01 169.272 1127.63 160.47C1114.54 176.532 1090.41 187.3 1062.77 187.3C1021.21 187.3 987.533 162.92 987.533 132.883C987.533 108.956 1008.88 88.6289 1038.55 81.339Z" fill="url(#paint4_linear_2900_18351)"/>
<path d="M1512 181.251C1479.95 184.306 1451.27 195.135 1429.68 211.016H1512V181.251Z" fill="url(#paint5_linear_2900_18351)"/>
<path d="M1512 39.6562C1508.71 39.263 1505.33 39.0512 1501.87 39.0512C1481.61 39.0512 1463.6 45.8874 1451.97 56.5653C1440.51 59.4691 1430.17 64.2182 1421.71 70.268C1418.17 69.542 1414.42 69.179 1410.54 69.179C1406.33 69.179 1402.29 69.6327 1398.45 70.4797C1392.2 68.3018 1385.2 67.0919 1377.82 67.0919C1353.56 67.0919 1333.47 80.0988 1330.17 97.0079C1313.5 98.0968 1299.7 106.446 1294.95 117.668C1284.32 101.575 1261.69 90.4742 1235.39 90.4742C1225.26 90.4742 1215.63 92.1378 1207.04 95.1022C1201.83 93.9527 1196.24 93.3175 1190.49 93.3175C1172.32 93.3175 1156.14 99.4581 1145.68 109.047C1127.13 113.766 1112 123.718 1103.66 136.483C1087.95 137.027 1074.07 142.593 1064.94 151.032C1010.88 153.119 964.898 177.137 943.681 211.016H1511.96V39.6562H1512Z" fill="url(#paint6_linear_2900_18351)"/>
<path d="M1351.81 117.275C1349.1 94.588 1322.8 76.7715 1290.78 76.7715C1289.37 76.7715 1288.03 76.8017 1286.66 76.8622C1276.99 61.5866 1255.69 50.9995 1230.93 50.9995C1197.08 50.9995 1169.65 70.8427 1169.65 95.314C1169.65 97.2499 1169.82 99.1253 1170.15 101.001C1165.02 99.9722 1159.56 99.4278 1153.98 99.4278C1120.13 99.4278 1092.7 119.271 1092.7 143.742C1092.7 168.244 1120.13 188.087 1153.98 188.087C1168.48 188.087 1181.78 184.457 1192.24 178.377C1203.5 187.512 1219.84 193.26 1238.05 193.26C1253.93 193.26 1268.4 188.904 1279.28 181.735C1289.95 194.802 1309.58 203.574 1332.09 203.574C1365.94 203.574 1393.37 183.731 1393.37 159.26C1393.37 139.749 1375.98 123.203 1351.81 117.275Z" fill="url(#paint7_linear_2900_18351)"/>
<path d="M895.869 113.584C888.325 101.999 874.611 92.9847 857.77 88.6894C848.308 80.008 833.594 74.412 817.129 74.412C811.918 74.412 806.874 74.9867 802.122 76.0152C794.327 73.3231 785.615 71.8106 776.403 71.8106C746.183 71.8106 721.214 87.9937 717.171 109.047C691.368 110.711 671.11 126.41 671.11 145.527C671.11 165.763 693.786 182.188 721.797 182.188C734.136 182.188 745.432 178.982 754.228 173.689C762.189 178.982 772.777 182.188 784.407 182.188C792.785 182.188 800.663 180.525 807.374 177.591C815.961 180.525 825.59 182.188 835.761 182.188C847.183 182.188 857.937 180.101 867.316 176.441C874.861 180.071 883.906 182.188 893.619 182.188C919.838 182.188 941.096 166.822 941.096 147.856C941.013 129.465 921.005 114.461 895.869 113.584Z" fill="url(#paint8_linear_2900_18351)"/>
<path d="M579.405 211.016H1013.08C996.786 203.484 977.737 198.825 957.27 198.039C949.892 191.172 938.554 186.635 925.757 186.181C918.962 175.776 906.624 167.669 891.534 163.827C883.031 156.023 869.859 151.032 855.061 151.032C850.392 151.032 845.849 151.546 841.555 152.484C834.552 150.064 826.758 148.733 818.462 148.733C797.079 148.733 778.613 157.778 769.984 170.875C766.107 161.74 754.894 154.904 741.305 154.027C738.638 140.233 722.298 129.646 702.539 129.646C696.495 129.646 690.785 130.645 685.699 132.369C682.573 131.703 679.28 131.31 675.862 131.31C672.694 131.31 669.651 131.612 666.775 132.187C659.855 127.257 651.477 123.415 642.098 121.056C632.636 112.344 617.963 106.778 601.456 106.778C596.246 106.778 591.202 107.323 586.45 108.381C584.199 107.595 581.823 106.929 579.405 106.355V211.016Z" fill="url(#paint9_linear_2900_18351)"/>
<path d="M1419.92 211.016C1400.33 189.811 1367.65 175.443 1330.26 174.021C1322.84 167.155 1311.54 162.617 1298.75 162.194C1291.95 151.788 1279.61 143.682 1264.52 139.84C1256.02 132.036 1242.81 127.045 1228.05 127.045C1223.34 127.045 1218.84 127.559 1214.59 128.467C1207.58 126.047 1199.79 124.716 1191.53 124.716C1170.15 124.716 1151.68 133.76 1143.01 146.858C1139.14 137.723 1127.88 130.917 1114.29 130.009C1111.63 116.246 1095.29 105.629 1075.49 105.629C1069.48 105.629 1063.77 106.627 1058.69 108.381C1055.56 107.686 1052.27 107.323 1048.85 107.323C1045.72 107.323 1042.64 107.625 1039.76 108.2C1032.84 103.269 1024.42 99.4278 1015.09 97.0381C1005.62 88.3567 990.909 82.7909 974.444 82.7909C969.234 82.7909 964.19 83.3657 959.438 84.3941C951.643 81.702 942.931 80.1896 933.719 80.1896C903.54 80.1896 878.53 96.3726 874.486 117.426C848.684 119.089 828.426 134.789 828.426 153.906C828.426 156.659 828.843 159.32 829.634 161.892C818.213 168.637 810.251 178.347 808.126 189.418C789.493 190.628 773.778 199.128 766.483 210.955H1419.92V211.016Z" fill="url(#paint10_linear_2900_18351)"/>
<defs>
<linearGradient id="paint0_linear_2900_18351" x1="231.32" y1="52.7348" x2="46.2481" y2="180.253" gradientUnits="userSpaceOnUse">
<stop stop-color="white"/>
<stop offset="0.7778" stop-color="#F5F6F6"/>
<stop offset="1" stop-color="#F1F2F2"/>
</linearGradient>
<linearGradient id="paint1_linear_2900_18351" x1="583.304" y1="78.4805" x2="191.714" y2="348.293" gradientUnits="userSpaceOnUse">
<stop stop-color="white"/>
<stop offset="0.7778" stop-color="#F5F6F6"/>
<stop offset="1" stop-color="#F1F2F2"/>
</linearGradient>
<linearGradient id="paint2_linear_2900_18351" x1="29.3417" y1="94.0846" x2="180.066" y2="197.937" gradientUnits="userSpaceOnUse">
<stop stop-color="white"/>
<stop offset="0.7778" stop-color="#F5F6F6"/>
<stop offset="1" stop-color="#F1F2F2"/>
</linearGradient>
<linearGradient id="paint3_linear_2900_18351" x1="-221.158" y1="62.5707" x2="97.7749" y2="282.322" gradientUnits="userSpaceOnUse">
<stop stop-color="white"/>
<stop offset="0.7778" stop-color="#F5F6F6"/>
<stop offset="1" stop-color="#F1F2F2"/>
</linearGradient>
<linearGradient id="paint4_linear_2900_18351" x1="1322.52" y1="52.13" x2="1137.45" y2="179.648" gradientUnits="userSpaceOnUse">
<stop stop-color="white"/>
<stop offset="0.7778" stop-color="#F5F6F6"/>
<stop offset="1" stop-color="#F1F2F2"/>
</linearGradient>
<linearGradient id="paint5_linear_2900_18351" x1="2055.32" y1="-4.13268" x2="1663.9" y2="265.565" gradientUnits="userSpaceOnUse">
<stop stop-color="white"/>
<stop offset="0.7778" stop-color="#F5F6F6"/>
<stop offset="1" stop-color="#F1F2F2"/>
</linearGradient>
<linearGradient id="paint6_linear_2900_18351" x1="1649.46" y1="41.5322" x2="1257.87" y2="311.345" gradientUnits="userSpaceOnUse">
<stop stop-color="white"/>
<stop offset="0.7778" stop-color="#F5F6F6"/>
<stop offset="1" stop-color="#F1F2F2"/>
</linearGradient>
<linearGradient id="paint7_linear_2900_18351" x1="1120.54" y1="93.4797" x2="1271.26" y2="197.332" gradientUnits="userSpaceOnUse">
<stop stop-color="white"/>
<stop offset="0.7778" stop-color="#F5F6F6"/>
<stop offset="1" stop-color="#F1F2F2"/>
</linearGradient>
<linearGradient id="paint8_linear_2900_18351" x1="695.795" y1="101.566" x2="821.446" y2="188.142" gradientUnits="userSpaceOnUse">
<stop stop-color="white"/>
<stop offset="0.7778" stop-color="#F5F6F6"/>
<stop offset="1" stop-color="#F1F2F2"/>
</linearGradient>
<linearGradient id="paint9_linear_2900_18351" x1="490.015" y1="96.6097" x2="808.804" y2="316.261" gradientUnits="userSpaceOnUse">
<stop stop-color="white"/>
<stop offset="0.7778" stop-color="#F5F6F6"/>
<stop offset="1" stop-color="#F1F2F2"/>
</linearGradient>
<linearGradient id="paint10_linear_2900_18351" x1="837.572" y1="109.092" x2="1156.5" y2="328.841" gradientUnits="userSpaceOnUse">
<stop stop-color="white"/>
<stop offset="0.7778" stop-color="#F5F6F6"/>
<stop offset="1" stop-color="#F1F2F2"/>
</linearGradient>
</defs>
</svg>
