<svg width="320" height="62" viewBox="0 0 320 62" fill="none" xmlns="http://www.w3.org/2000/svg">
<path d="M40.2724 17.5205C38.8167 17.5205 37.4052 17.7146 36.0731 18.0851C36.1613 17.4234 36.2054 16.7353 36.2054 16.0472C36.2054 7.27814 29.0773 0.176453 20.2818 0.176453C13.8505 0.176453 8.31031 3.96991 5.79605 9.43954C5.44317 9.41307 5.08147 9.40425 4.71976 9.40425C3.07887 9.40425 1.49092 9.66009 0 10.1188V53.6377C3.23767 52.3144 5.94602 49.9678 7.71042 46.9947C10.5423 49.5619 14.3004 51.1234 18.4291 51.1234C23.1577 51.1234 27.4099 49.0679 30.33 45.8038C33.056 47.9828 36.5142 49.2797 40.2812 49.2797C49.0767 49.2797 56.2049 42.1691 56.2049 33.4089C56.2049 24.631 49.0767 17.5205 40.2724 17.5205Z" fill="url(#paint0_linear_2892_9211)"/>
<path d="M0 61.7187H142.06C141.531 55.3845 136.485 50.3207 130.142 49.756C129.586 45.795 127.522 42.3103 124.558 39.8931C124.761 38.9756 124.875 38.014 124.875 37.0347C124.875 30.1889 119.609 24.5693 112.904 23.9694C111.845 16.4354 105.361 10.6393 97.5094 10.6393C95.1187 10.6393 92.8514 11.1775 90.8312 12.1391C89.5961 11.7686 88.2816 11.5657 86.9319 11.5657C82.6444 11.5657 78.8333 13.5594 76.372 16.6736C73.9459 17.5205 71.758 18.9056 69.9672 20.67C69.2173 20.4582 68.4233 20.3524 67.6029 20.3524C66.7119 20.3524 65.8561 20.4847 65.0445 20.7317C63.7212 20.0965 62.2391 19.7436 60.6776 19.7436C55.5432 19.7436 51.291 23.5371 50.5941 28.4686C47.0653 28.7862 44.1452 31.221 43.1395 34.494C40.8899 29.8007 36.0996 26.563 30.5329 26.563C28.3892 26.563 26.3513 27.0482 24.534 27.9128C23.4312 27.5776 22.2491 27.3923 21.0316 27.3923C17.1852 27.3923 13.7623 29.1832 11.548 31.9797C7.6222 33.356 4.41982 36.2584 2.65542 39.9813C1.73793 40.0254 0.855736 40.1842 0.00882522 40.44V61.7187H0Z" fill="url(#paint1_linear_2892_9211)"/>
<path d="M55.1554 34.3793C54.5819 27.7628 49.0153 22.5666 42.24 22.5666C41.94 22.5666 41.6577 22.5754 41.3666 22.5931C39.3199 18.138 34.803 15.0503 29.5716 15.0503C22.4081 15.0503 16.6033 20.8375 16.6033 27.9745C16.6033 28.5391 16.6385 29.0861 16.7091 29.633C15.624 29.3331 14.4683 29.1743 13.2862 29.1743C6.12274 29.1743 0.317871 34.9615 0.317871 42.0985C0.317871 49.2443 6.12274 55.0315 13.2862 55.0315C16.3562 55.0315 19.1705 53.9729 21.3848 52.1997C23.7667 54.8639 27.2249 56.5401 31.0801 56.5401C34.4413 56.5401 37.5026 55.2697 39.8051 53.1789C42.0635 56.99 46.2187 59.5484 50.9826 59.5484C58.146 59.5484 63.9509 53.7612 63.9509 46.6242C63.9509 40.934 60.2721 36.1084 55.1554 34.3793Z" fill="url(#paint2_linear_2892_9211)"/>
<path d="M0 61.7186H69.579C65.4327 55.5344 58.5162 51.344 50.6029 50.9293C49.0326 48.9267 46.6419 47.6034 43.9335 47.4799C42.4955 44.4452 39.8842 42.0809 36.6907 40.9605C34.891 38.6844 32.0944 37.2288 28.9714 37.2288C27.9834 37.2288 27.0218 37.3787 26.1219 37.6434C24.6398 36.9376 22.9901 36.5495 21.2434 36.5495C16.7177 36.5495 12.8095 39.1873 10.9746 43.0072C10.1541 40.3429 7.77218 38.358 4.90503 38.0933C4.49922 35.2085 2.60249 32.809 0.0176451 31.6797V61.7186H0Z" fill="url(#paint3_linear_2892_9211)"/>
<path d="M219.8 23.7223C220.497 15.6061 227.343 9.2278 235.671 9.2278C236.033 9.2278 236.385 9.23662 236.747 9.26309C239.261 3.79346 244.802 0 251.233 0C260.028 0 267.157 7.11051 267.157 15.8707C267.157 16.5589 267.112 17.2382 267.024 17.9086C268.365 17.5469 269.777 17.344 271.223 17.344C280.019 17.344 287.147 24.4546 287.147 33.2148C287.147 41.9838 280.019 49.0855 271.223 49.0855C267.456 49.0855 263.998 47.7799 261.272 45.6097C258.352 48.8738 254.1 50.9293 249.371 50.9293C245.243 50.9293 241.485 49.3678 238.653 46.8007C235.883 51.4851 230.775 54.6258 224.926 54.6258C216.13 54.6258 209.002 47.5152 209.002 38.755C209.002 31.7768 213.519 25.8484 219.8 23.7223Z" fill="url(#paint4_linear_2892_9211)"/>
<path d="M320 52.8614C313.216 53.7524 307.146 56.9107 302.577 61.5422H320V52.8614Z" fill="url(#paint5_linear_2892_9211)"/>
<path d="M320 11.5656C319.303 11.4509 318.588 11.3892 317.856 11.3892C313.568 11.3892 309.757 13.3829 307.296 16.4971C304.87 17.344 302.682 18.7291 300.891 20.4935C300.141 20.2817 299.347 20.1759 298.527 20.1759C297.636 20.1759 296.78 20.3082 295.969 20.5552C294.645 19.92 293.163 19.5671 291.602 19.5671C286.467 19.5671 282.215 23.3606 281.518 28.2921C277.989 28.6097 275.069 31.0446 274.064 34.3175C271.814 29.6242 267.024 26.3866 261.457 26.3866C259.313 26.3866 257.275 26.8717 255.458 27.7363C254.355 27.4011 253.173 27.2158 251.956 27.2158C248.109 27.2158 244.686 29.0067 242.472 31.8032C238.546 33.1795 235.344 36.0819 233.58 39.8048C230.254 39.9636 227.316 41.5868 225.384 44.0482C213.942 44.6569 204.211 51.6615 199.721 61.5422H319.991V11.5656H320Z" fill="url(#paint6_linear_2892_9211)"/>
<path d="M286.097 34.2028C285.524 27.5863 279.957 22.3902 273.182 22.3902C272.882 22.3902 272.6 22.399 272.308 22.4166C270.262 17.9615 265.754 14.8738 260.513 14.8738C253.35 14.8738 247.545 20.6611 247.545 27.7981C247.545 28.3627 247.58 28.9096 247.651 29.4566C246.566 29.1566 245.41 28.9978 244.228 28.9978C237.065 28.9978 231.26 34.7851 231.26 41.922C231.26 49.0679 237.065 54.8551 244.228 54.8551C247.298 54.8551 250.112 53.7964 252.327 52.0232C254.709 54.6875 258.167 56.3636 262.022 56.3636C265.383 56.3636 268.444 55.0933 270.747 53.0025C273.005 56.8136 277.161 59.3719 281.924 59.3719C289.088 59.3719 294.893 53.5847 294.893 46.4477C294.893 40.7575 291.214 35.9319 286.097 34.2028Z" fill="url(#paint7_linear_2892_9211)"/>
<path d="M189.602 33.1265C188.005 29.7477 185.103 27.1188 181.539 25.866C179.536 23.3341 176.422 21.7021 172.937 21.7021C171.834 21.7021 170.767 21.8697 169.761 22.1696C168.111 21.3845 166.268 20.9434 164.318 20.9434C157.922 20.9434 152.638 25.6631 151.782 31.8032C146.321 32.2884 142.034 36.8671 142.034 42.4426C142.034 48.3445 146.833 53.1348 152.761 53.1348C155.373 53.1348 157.763 52.1997 159.625 50.6558C161.31 52.1997 163.551 53.1348 166.012 53.1348C167.785 53.1348 169.452 52.6496 170.873 51.7939C172.69 52.6496 174.728 53.1348 176.881 53.1348C179.298 53.1348 181.574 52.5261 183.559 51.4586C185.156 52.5173 187.07 53.1348 189.125 53.1348C194.675 53.1348 199.174 48.6532 199.174 43.1219C199.156 37.7581 194.922 33.3824 189.602 33.1265Z" fill="url(#paint8_linear_2892_9211)"/>
<path d="M122.625 61.5422H214.409C210.96 59.3455 206.928 57.9869 202.597 57.7575C201.035 55.7549 198.636 54.4316 195.927 54.2993C194.489 51.2646 191.878 48.9003 188.685 47.7799C186.885 45.5038 184.097 44.0482 180.965 44.0482C179.977 44.0482 179.016 44.1981 178.107 44.4716C176.625 43.7659 174.975 43.3777 173.22 43.3777C168.694 43.3777 164.786 46.0155 162.96 49.8354C162.139 47.1711 159.766 45.1774 156.89 44.9215C156.325 40.8987 152.867 37.811 148.686 37.811C147.406 37.811 146.198 38.1022 145.122 38.605C144.46 38.4109 143.763 38.2962 143.04 38.2962C142.369 38.2962 141.725 38.3844 141.116 38.5521C139.652 37.1141 137.879 35.9937 135.894 35.3056C133.891 32.7648 130.786 31.1416 127.292 31.1416C126.19 31.1416 125.122 31.3004 124.116 31.6092C123.64 31.3798 123.137 31.1857 122.625 31.0181V61.5422Z" fill="url(#paint9_linear_2892_9211)"/>
<path d="M300.512 61.5422C296.366 55.358 289.449 51.1675 281.536 50.7529C279.966 48.7503 277.575 47.427 274.867 47.3035C273.429 44.2687 270.817 41.9044 267.624 40.784C265.824 38.508 263.028 37.0523 259.905 37.0523C258.908 37.0523 257.955 37.2023 257.055 37.467C255.573 36.7612 253.923 36.373 252.177 36.373C247.651 36.373 243.743 39.0108 241.908 42.8307C241.087 40.1665 238.705 38.1816 235.829 37.9169C235.265 33.9029 231.807 30.8064 227.616 30.8064C226.346 30.8064 225.137 31.0975 224.061 31.6092C223.399 31.4063 222.702 31.3004 221.979 31.3004C221.317 31.3004 220.664 31.3886 220.056 31.5562C218.591 30.1182 216.809 28.9979 214.833 28.3009C212.83 25.769 209.716 24.1458 206.232 24.1458C205.129 24.1458 204.061 24.3134 203.056 24.6133C201.406 23.8282 199.562 23.3871 197.613 23.3871C191.225 23.3871 185.932 28.1068 185.077 34.2469C179.616 34.7321 175.328 39.3108 175.328 44.8863C175.328 45.6891 175.416 46.4654 175.584 47.2153C173.167 49.1826 171.482 52.0144 171.032 55.2433C167.088 55.5962 163.763 58.0751 162.219 61.5245H300.512V61.5422Z" fill="url(#paint10_linear_2892_9211)"/>
<defs>
<linearGradient id="paint0_linear_2892_9211" x1="48.9567" y1="15.38" x2="2.74557" y2="38.4856" gradientUnits="userSpaceOnUse">
<stop stop-color="white"/>
<stop offset="0.7778" stop-color="#F5F6F6"/>
<stop offset="1" stop-color="#F1F2F2"/>
</linearGradient>
<linearGradient id="paint1_linear_2892_9211" x1="123.451" y1="22.8887" x2="25.6735" y2="71.7773" gradientUnits="userSpaceOnUse">
<stop stop-color="white"/>
<stop offset="0.7778" stop-color="#F5F6F6"/>
<stop offset="1" stop-color="#F1F2F2"/>
</linearGradient>
<linearGradient id="paint2_linear_2892_9211" x1="6.21009" y1="27.4395" x2="43.8449" y2="46.257" gradientUnits="userSpaceOnUse">
<stop stop-color="white"/>
<stop offset="0.7778" stop-color="#F5F6F6"/>
<stop offset="1" stop-color="#F1F2F2"/>
</linearGradient>
<linearGradient id="paint3_linear_2892_9211" x1="-46.8059" y1="18.2486" x2="32.8292" y2="58.0662" gradientUnits="userSpaceOnUse">
<stop stop-color="white"/>
<stop offset="0.7778" stop-color="#F5F6F6"/>
<stop offset="1" stop-color="#F1F2F2"/>
</linearGradient>
<linearGradient id="paint4_linear_2892_9211" x1="279.898" y1="15.2036" x2="233.687" y2="38.3091" gradientUnits="userSpaceOnUse">
<stop stop-color="white"/>
<stop offset="0.7778" stop-color="#F5F6F6"/>
<stop offset="1" stop-color="#F1F2F2"/>
</linearGradient>
<linearGradient id="paint5_linear_2892_9211" x1="434.989" y1="-1.20528" x2="337.253" y2="47.6625" gradientUnits="userSpaceOnUse">
<stop stop-color="white"/>
<stop offset="0.7778" stop-color="#F5F6F6"/>
<stop offset="1" stop-color="#F1F2F2"/>
</linearGradient>
<linearGradient id="paint6_linear_2892_9211" x1="349.092" y1="12.1127" x2="251.315" y2="61.0014" gradientUnits="userSpaceOnUse">
<stop stop-color="white"/>
<stop offset="0.7778" stop-color="#F5F6F6"/>
<stop offset="1" stop-color="#F1F2F2"/>
</linearGradient>
<linearGradient id="paint7_linear_2892_9211" x1="237.151" y1="27.2631" x2="274.786" y2="46.0806" gradientUnits="userSpaceOnUse">
<stop stop-color="white"/>
<stop offset="0.7778" stop-color="#F5F6F6"/>
<stop offset="1" stop-color="#F1F2F2"/>
</linearGradient>
<linearGradient id="paint8_linear_2892_9211" x1="147.258" y1="29.6214" x2="178.632" y2="45.3086" gradientUnits="userSpaceOnUse">
<stop stop-color="white"/>
<stop offset="0.7778" stop-color="#F5F6F6"/>
<stop offset="1" stop-color="#F1F2F2"/>
</linearGradient>
<linearGradient id="paint9_linear_2892_9211" x1="103.707" y1="28.176" x2="183.306" y2="67.9756" gradientUnits="userSpaceOnUse">
<stop stop-color="white"/>
<stop offset="0.7778" stop-color="#F5F6F6"/>
<stop offset="1" stop-color="#F1F2F2"/>
</linearGradient>
<linearGradient id="paint10_linear_2892_9211" x1="177.264" y1="31.8164" x2="256.898" y2="71.6337" gradientUnits="userSpaceOnUse">
<stop stop-color="white"/>
<stop offset="0.7778" stop-color="#F5F6F6"/>
<stop offset="1" stop-color="#F1F2F2"/>
</linearGradient>
</defs>
</svg>
