<svg width="283" height="311" viewBox="0 0 283 311" fill="none" xmlns="http://www.w3.org/2000/svg">
<g style="mix-blend-mode:soft-light">
<path d="M141.5 311C219.372 311 282.5 247.872 282.5 170C282.5 92.1278 219.372 29 141.5 29C63.6279 29 0.5 92.1278 0.5 170C0.5 247.872 63.6279 311 141.5 311Z" fill="white" fill-opacity="0.25"/>
</g>
<g style="mix-blend-mode:soft-light">
<path d="M141.5 269.023C196.189 269.023 240.523 224.689 240.523 170C240.523 115.311 196.189 70.9769 141.5 70.9769C86.8111 70.9769 42.4771 115.311 42.4771 170C42.4771 224.689 86.8111 269.023 141.5 269.023Z" fill="white" fill-opacity="0.25"/>
</g>
<path fill-rule="evenodd" clip-rule="evenodd" d="M103.325 220.397C102.653 223.949 100.349 225.773 99.5809 226.541C98.7168 227.501 96.3166 228.365 94.3005 229.805C90.3642 232.686 88.8281 234.798 88.8281 237.198C88.8281 238.926 90.7483 242.67 92.3804 245.934C93.2444 247.759 93.8205 249.103 93.9165 250.543C94.2045 253.519 94.1085 255.439 95.5486 258.127C96.6047 260.047 98.2368 262.352 100.253 264.464C102.173 266.576 107.357 269.84 109.566 270.128C110.91 270.32 111.966 270.224 112.446 269.36C114.174 266.288 111.966 258.319 110.814 252.463C109.662 246.703 109.182 241.134 110.43 236.334C110.718 235.086 116.094 223.469 116.67 222.317C110.91 221.357 106.301 220.493 103.325 220.397Z" fill="#F1B287"/>
<path fill-rule="evenodd" clip-rule="evenodd" d="M101.885 223.181C100.829 224.909 100.349 225.677 99.5809 226.445C98.7168 227.405 96.3166 228.269 94.3005 229.709C90.3642 232.59 88.8281 234.702 88.8281 237.102C88.8281 238.83 90.7483 242.574 92.3804 245.838C93.2444 247.663 93.8205 249.007 93.9165 250.447C94.2045 253.423 94.1085 255.343 95.5486 258.031C97.0847 261.104 100.253 264.848 103.805 267.728C104.861 268.592 110.814 271.568 112.638 269.072C108.413 268.976 105.149 266.192 102.749 262.064C100.253 257.935 100.925 253.231 98.9088 248.143C96.8927 243.054 94.6845 240.078 95.2606 236.718C95.8366 233.358 98.5248 231.245 102.173 226.541C102.077 226.157 101.789 224.525 101.885 223.181Z" fill="#E8A476"/>
<path fill-rule="evenodd" clip-rule="evenodd" d="M86.908 236.718C86.4279 237.39 86.428 239.022 86.62 239.79C88.2521 247.375 90.3642 243.63 91.9003 249.583C92.9564 253.807 91.9963 254.863 92.8604 257.743C93.9165 261.104 96.1246 263.888 98.5248 266.192C99.8689 267.536 104.669 270.8 108.125 271.28C110.334 271.568 112.446 270.608 112.542 268.496C112.83 264.272 107.261 257.455 106.781 256.207C105.821 253.999 103.037 244.974 99.8689 238.35C99.6768 238.446 99.4848 238.542 99.3888 238.542C96.2206 235.95 95.9326 233.934 95.6446 232.014C94.4925 231.053 93.2444 230.669 92.0923 231.438C90.4602 232.686 87.676 235.758 86.908 236.718Z" fill="#BAC6E3"/>
<path fill-rule="evenodd" clip-rule="evenodd" d="M94.6845 229.517C94.5885 229.613 94.3965 229.709 94.3005 229.805C90.3642 232.686 88.8281 234.798 88.8281 237.198C88.8281 238.926 90.7483 242.67 92.3804 245.934C93.2444 247.759 93.8205 249.103 93.9165 250.543C94.2045 253.519 94.1085 255.439 95.5486 258.127C96.6047 260.047 98.2368 262.352 100.253 264.464C102.173 266.576 107.357 269.84 109.566 270.128C110.91 270.32 111.966 270.224 112.446 269.36C114.174 266.288 111.966 258.319 110.814 252.463C109.854 247.471 109.278 242.574 109.95 238.254C108.221 236.334 102.077 237.294 99.3888 238.638C94.5885 234.894 96.3166 232.206 94.6845 229.517Z" fill="#F7F9FF"/>
<path fill-rule="evenodd" clip-rule="evenodd" d="M94.6845 229.517C94.5885 229.613 94.3965 229.709 94.3005 229.805C90.3642 232.686 88.8281 234.798 88.8281 237.198C88.8281 238.926 90.7483 242.67 92.3804 245.934C93.2444 247.759 93.8205 249.103 93.9165 250.543C94.2045 253.519 94.1085 255.439 95.5486 258.127C97.0847 261.2 100.253 264.944 103.805 267.824C104.861 268.688 110.814 271.664 112.638 269.168C108.413 269.072 105.149 266.288 102.749 262.16C100.253 258.031 100.925 253.327 98.9088 248.239C96.8927 243.15 94.6845 240.174 95.2606 236.814C95.3566 235.95 95.6446 235.182 96.0286 234.51C95.4526 232.59 95.6446 231.053 94.6845 229.517Z" fill="#EDF2FF"/>
<path fill-rule="evenodd" clip-rule="evenodd" d="M109.566 245.262C108.99 244.782 107.934 244.302 106.589 244.11C105.533 244.014 104.189 244.11 102.845 244.59L102.557 243.726C104.093 243.246 105.533 243.054 106.685 243.246C107.934 243.342 108.894 243.726 109.662 244.206C109.662 244.494 109.662 244.878 109.758 245.166L109.566 245.262Z" fill="#BAC6E3"/>
<path fill-rule="evenodd" clip-rule="evenodd" d="M109.95 247.855C109.374 247.375 108.318 246.991 107.166 246.895C106.11 246.799 104.765 246.895 103.421 247.375L103.133 246.511C104.669 246.03 106.11 245.838 107.262 246.03C108.318 246.126 109.182 246.415 109.854 246.799C109.854 247.087 109.854 247.471 109.95 247.855Z" fill="#BAC6E3"/>
<path fill-rule="evenodd" clip-rule="evenodd" d="M110.334 250.639C109.758 250.255 108.798 249.871 107.646 249.775C106.589 249.679 105.245 249.775 103.901 250.255L103.613 249.391C105.149 248.911 106.59 248.719 107.742 248.911C108.702 249.007 109.47 249.295 110.142 249.583C110.238 249.871 110.238 250.255 110.334 250.639Z" fill="#BAC6E3"/>
<path fill-rule="evenodd" clip-rule="evenodd" d="M111.006 253.903C110.43 253.423 109.47 253.039 108.222 252.943C107.166 252.847 105.822 252.943 104.477 253.423L104.189 252.559C105.726 252.079 107.166 251.887 108.318 252.079C109.278 252.175 110.046 252.463 110.718 252.751C110.814 253.039 110.91 253.519 111.006 253.903Z" fill="#BAC6E3"/>
<path fill-rule="evenodd" clip-rule="evenodd" d="M111.582 256.879C111.006 256.495 110.046 256.111 108.894 256.015C107.838 255.919 106.493 256.015 105.149 256.495L104.861 255.631C106.397 255.151 107.838 254.959 108.99 255.151C109.854 255.247 110.718 255.439 111.294 255.727C111.39 256.111 111.486 256.495 111.582 256.879Z" fill="#BAC6E3"/>
<path fill-rule="evenodd" clip-rule="evenodd" d="M112.158 259.855C111.582 259.375 110.526 258.991 109.374 258.895C108.317 258.799 106.973 258.895 105.629 259.375L105.341 258.511C106.877 258.031 108.318 257.839 109.47 258.031C110.43 258.127 111.294 258.415 111.966 258.703C112.062 258.991 112.158 259.471 112.158 259.855Z" fill="#BAC6E3"/>
<path fill-rule="evenodd" clip-rule="evenodd" d="M100.637 221.069C98.6208 228.269 109.854 237.582 114.846 235.566C117.438 231.822 104.093 217.613 100.637 221.069Z" fill="#20838A"/>
<path fill-rule="evenodd" clip-rule="evenodd" d="M154.593 197.835C139.712 211.948 128.383 220.877 114.654 235.278C110.142 236.718 100.925 229.037 101.693 222.029C111.582 209.74 116.19 204.172 122.239 197.931C127.231 192.747 132.703 188.81 138.752 185.546C144.896 178.058 156.129 178.154 156.417 184.586C156.513 188.522 157.665 194.379 154.593 197.835Z" fill="#30B5BE"/>
<path fill-rule="evenodd" clip-rule="evenodd" d="M148.352 124.39C152 137.351 155.745 173.546 156.705 189.867C157.281 203.5 141.152 202.059 137.119 197.163C132.511 184.106 125.311 160.201 123.006 145.128L128.287 128.998L144.128 126.214L148.352 124.39Z" fill="#30B5BE"/>
<path fill-rule="evenodd" clip-rule="evenodd" d="M104.765 230.285C102.749 227.885 101.405 224.909 101.693 222.029C111.582 209.74 116.19 204.172 122.239 197.931C125.983 194.091 130.015 190.827 134.335 188.138C130.111 174.89 124.447 148.68 122.527 136.583L149.312 128.038C145.184 133.223 142.784 134.759 138.56 137.831C138.656 144.743 138.848 150.216 137.312 152.424C137.408 158.472 144.032 185.642 144.032 190.443C144.032 192.459 143.168 192.843 139.616 195.435C126.367 205.42 115.902 217.804 104.765 230.285Z" fill="#289EA6"/>
<path fill-rule="evenodd" clip-rule="evenodd" d="M150.656 130.919C148.832 132.071 143.648 137.351 140.095 138.983C141.055 147.048 141.824 151.656 139.999 153.672C141.151 160.969 147.296 183.53 147.968 187.562C148.544 190.635 148.16 192.843 147.104 194.667C146.336 196.011 133.759 205.228 127.519 213.676L126.75 223.277C135.487 215.116 146.144 206.284 154.208 198.315C156.609 195.915 156.897 192.555 156.705 188.907C156.129 179.978 151.904 141.959 150.656 130.919Z" fill="#4ECED7"/>
<path fill-rule="evenodd" clip-rule="evenodd" d="M100.733 220.973C99.4849 226.157 109.566 234.99 114.846 235.566L109.566 239.214C106.397 239.214 95.4526 228.941 97.8528 223.949L100.733 220.973Z" fill="#5CDDE6"/>
<path fill-rule="evenodd" clip-rule="evenodd" d="M108.125 257.455C109.469 260.816 109.469 263.408 109.277 264.464C108.989 265.712 107.549 267.824 106.589 270.032C104.765 274.545 104.669 277.233 105.917 279.249C106.877 280.689 110.525 282.801 113.598 284.721C115.326 285.777 116.478 286.641 117.438 287.793C119.262 290.194 120.222 291.73 122.91 293.362C124.83 294.418 127.423 295.474 130.207 296.146C132.991 296.818 139.135 296.818 141.152 295.858C142.304 295.282 143.264 294.61 143.168 293.746C142.88 290.29 136.735 284.721 132.607 280.401C128.575 276.177 125.118 271.76 123.582 267.056C123.198 265.808 121.47 253.135 121.278 251.887C115.998 253.999 110.718 255.919 108.125 257.455Z" fill="#F1B287"/>
<path fill-rule="evenodd" clip-rule="evenodd" d="M109.469 260.432C109.469 262.448 109.469 263.408 109.277 264.464C108.989 265.712 107.549 267.824 106.589 270.032C104.765 274.544 104.669 277.233 105.917 279.249C106.877 280.689 110.525 282.801 113.598 284.721C115.326 285.777 116.478 286.641 117.438 287.793C119.262 290.194 120.222 291.73 122.91 293.362C125.887 295.09 130.495 296.53 135.103 297.106C136.447 297.298 143.072 296.53 143.264 293.458C139.711 295.57 135.391 294.994 131.167 292.882C126.847 290.674 124.83 286.449 120.414 283.185C115.902 279.921 112.542 278.673 111.198 275.505C109.853 272.336 111.006 269.072 111.582 263.216C111.198 262.928 110.045 261.68 109.469 260.432Z" fill="#E8A476"/>
<path fill-rule="evenodd" clip-rule="evenodd" d="M104.093 280.017C104.093 280.785 104.957 282.225 105.533 282.801C111.005 288.273 110.717 284.049 115.23 288.177C118.398 291.153 118.206 292.594 120.51 294.514C123.198 296.818 126.558 297.97 129.823 298.642C131.647 299.026 137.503 299.218 140.671 297.778C142.687 296.914 143.935 294.898 142.879 293.074C140.767 289.329 132.511 286.641 131.359 285.873C129.342 284.625 122.142 278.385 115.902 274.544C115.806 274.736 115.71 274.832 115.614 275.024C111.581 274.544 110.237 272.912 108.989 271.568C107.453 271.376 106.301 271.76 105.725 272.912C104.861 274.64 104.189 278.769 104.093 280.017Z" fill="#BAC6E3"/>
<path fill-rule="evenodd" clip-rule="evenodd" d="M106.781 269.648C106.685 269.84 106.685 269.936 106.589 270.128C104.765 274.64 104.669 277.329 105.917 279.345C106.877 280.785 110.525 282.897 113.598 284.817C115.326 285.873 116.478 286.737 117.438 287.889C119.262 290.289 120.222 291.826 122.91 293.458C124.83 294.514 127.423 295.57 130.207 296.242C132.991 296.914 139.135 296.914 141.152 295.954C142.304 295.378 143.168 294.706 143.168 293.842C142.88 290.385 136.735 284.817 132.703 280.497C129.151 276.849 126.079 273.008 124.35 268.976C121.854 268.304 117.15 272.432 115.614 275.024C109.565 274.256 109.565 271.088 106.781 269.648Z" fill="#F7F9FF"/>
<path fill-rule="evenodd" clip-rule="evenodd" d="M106.781 269.648C106.685 269.84 106.685 269.936 106.589 270.128C104.765 274.64 104.669 277.328 105.917 279.345C106.877 280.785 110.525 282.897 113.598 284.817C115.326 285.873 116.478 286.737 117.438 287.889C119.262 290.289 120.222 291.825 122.91 293.458C125.887 295.186 130.495 296.626 135.103 297.202C136.447 297.394 143.072 296.626 143.264 293.554C139.711 295.666 135.391 295.09 131.167 292.978C126.847 290.769 124.83 286.545 120.414 283.281C115.902 280.017 112.542 278.769 111.198 275.6C110.909 274.832 110.718 274.064 110.622 273.2C109.085 271.952 108.413 270.512 106.781 269.648Z" fill="#EDF2FF"/>
<path fill-rule="evenodd" clip-rule="evenodd" d="M127.711 274.928C126.943 274.832 125.791 275.024 124.542 275.6C123.582 276.08 122.526 276.848 121.662 278.001L120.99 277.424C122.046 276.176 123.102 275.312 124.254 274.736C125.311 274.16 126.367 273.968 127.231 273.968C127.423 274.256 127.615 274.448 127.807 274.736L127.711 274.928Z" fill="#BAC6E3"/>
<path fill-rule="evenodd" clip-rule="evenodd" d="M129.439 276.944C128.671 276.848 127.615 277.04 126.559 277.616C125.599 278.097 124.542 278.865 123.678 280.017L123.006 279.441C124.062 278.193 125.118 277.328 126.271 276.752C127.231 276.272 128.095 276.08 128.863 275.984C128.959 276.368 129.247 276.656 129.439 276.944Z" fill="#BAC6E3"/>
<path fill-rule="evenodd" clip-rule="evenodd" d="M131.359 279.057C130.591 279.057 129.631 279.249 128.575 279.729C127.615 280.209 126.559 280.977 125.694 282.129L125.022 281.553C126.079 280.305 127.135 279.441 128.287 278.865C129.151 278.481 129.919 278.193 130.687 278.097C130.783 278.481 131.071 278.769 131.359 279.057Z" fill="#BAC6E3"/>
<path fill-rule="evenodd" clip-rule="evenodd" d="M133.567 281.457C132.799 281.457 131.839 281.649 130.687 282.129C129.726 282.609 128.67 283.377 127.806 284.529L127.134 283.953C128.19 282.705 129.246 281.841 130.398 281.265C131.263 280.881 132.031 280.593 132.799 280.497C132.991 280.881 133.279 281.169 133.567 281.457Z" fill="#BAC6E3"/>
<path fill-rule="evenodd" clip-rule="evenodd" d="M135.775 283.569C135.007 283.569 134.047 283.761 132.991 284.241C132.031 284.721 130.975 285.489 130.111 286.641L129.438 286.065C130.495 284.817 131.551 283.953 132.703 283.377C133.471 282.993 134.335 282.705 135.007 282.609C135.199 282.993 135.487 283.281 135.775 283.569Z" fill="#BAC6E3"/>
<path fill-rule="evenodd" clip-rule="evenodd" d="M137.791 285.777C137.023 285.777 135.967 285.969 134.911 286.449C133.951 286.929 132.895 287.697 132.031 288.849L131.359 288.273C132.415 287.025 133.471 286.161 134.623 285.585C135.487 285.201 136.351 284.913 137.023 284.817C137.311 285.201 137.599 285.489 137.791 285.777Z" fill="#BAC6E3"/>
<path fill-rule="evenodd" clip-rule="evenodd" d="M104.093 260.623C108.509 266.672 123.006 263.6 124.446 258.415C123.102 253.999 103.517 255.727 104.093 260.623Z" fill="#20838A"/>
<path fill-rule="evenodd" clip-rule="evenodd" d="M135.967 130.247C136.351 133.127 137.887 141.671 136.927 149.448C136.447 153.288 132.127 156.936 131.935 159.336C130.399 174.122 127.038 192.363 125.982 203.404C125.598 215.98 107.165 215.308 106.397 207.436C105.533 198.603 100.445 172.201 100.637 154.44C100.733 147.144 102.557 134.567 105.053 131.975L117.246 129.19L135.967 130.247Z" fill="#30B5BE"/>
<path fill-rule="evenodd" clip-rule="evenodd" d="M125.887 203.596C125.791 208.3 124.639 208.78 124.543 211.468C123.487 228.845 123.871 246.222 123.775 263.408C118.014 268.88 108.03 265.904 105.437 260.335C104.285 244.59 103.133 236.334 103.325 227.693C103.421 220.493 104.381 213.868 106.493 207.436C108.702 196.299 126.271 194.379 125.887 203.596Z" fill="#30B5BE"/>
<path fill-rule="evenodd" clip-rule="evenodd" d="M113.886 266.096C110.142 265.424 106.685 263.216 105.341 260.335C104.189 244.59 103.037 236.334 103.229 227.693C103.325 220.493 104.285 213.868 106.397 207.436C105.437 197.451 99.0048 164.905 101.117 147.816C101.597 143.687 103.517 133.607 105.245 131.879L117.342 129.094L131.935 131.975L134.815 136.295C132.511 138.599 122.142 141.671 115.998 144.744C115.134 146.568 113.886 174.602 113.79 180.362C113.79 187.562 113.886 194.763 114.462 202.251C114.942 208.204 114.75 211.564 113.886 217.517C111.294 235.662 112.638 246.703 113.886 266.096Z" fill="#289EA6"/>
<path fill-rule="evenodd" clip-rule="evenodd" d="M135.583 140.615C131.359 143.783 123.678 145.608 118.302 147.816C117.534 166.441 118.782 199.275 118.11 212.14C117.822 217.804 116.094 223.373 116.19 228.941L116.958 266.96C119.358 266.96 121.086 266.48 123.486 264.944C123.87 249.871 122.334 228.269 124.062 214.54C124.35 212.14 125.022 210.316 125.311 208.204C125.599 206.188 125.503 205.228 125.695 203.115C126.559 195.627 128.479 174.89 131.743 159.241C132.703 154.632 135.295 154.44 135.967 150.792C136.447 147.528 136.255 143.303 135.583 140.615Z" fill="#4ECED7"/>
<path fill-rule="evenodd" clip-rule="evenodd" d="M104.093 260.623C107.453 264.752 120.798 262.256 124.446 258.415L124.638 266.768C122.718 269.36 107.933 271.568 105.437 266.576L104.093 260.623Z" fill="#5CDDE6"/>
<path fill-rule="evenodd" clip-rule="evenodd" d="M103.805 54.1133C106.013 52.9612 110.718 50.9451 115.518 48.3529C123.486 44.0326 140.192 35.872 146.528 45.8567C150.944 52.7692 152.384 65.5381 151.808 78.499C151.424 85.8915 150.56 92.8999 150.272 102.021C150.176 105.957 151.328 121.222 148.064 124.486C147.872 124.966 147.776 126.118 147.584 128.038C136.159 137.927 107.261 143.783 101.693 134.759C102.653 132.071 106.589 110.469 106.301 109.413C102.941 96.2602 97.1806 81.7632 97.5647 71.2025C97.7567 64.674 99.0048 56.6095 103.805 54.1133Z" fill="white"/>
<path fill-rule="evenodd" clip-rule="evenodd" d="M103.997 53.3452C106.206 52.1931 110.43 49.6969 115.23 47.1048C115.806 46.8167 116.478 46.4327 117.15 46.1447L117.246 46.6247L121.183 49.4089C124.351 55.3613 129.823 60.7377 131.359 66.9781C133.471 75.4267 132.127 127.462 118.014 160.104C107.934 160.489 99.1011 155.4 96.701 151.464C96.3169 144.263 104.477 122.662 104.477 113.637C104.669 93.4759 83.068 64.3859 103.997 53.3452ZM141.344 41.3444C143.744 42.0164 145.856 43.2645 147.2 45.4726C148.448 47.3928 149.601 49.8889 150.369 52.5771C154.017 64.2899 152.385 78.5949 152.481 90.8837C152.577 96.9322 152.769 103.077 152.673 109.221C152.481 121.222 155.937 130.15 155.745 138.887C154.497 140.519 152.385 143.495 150.465 145.031C142.88 121.126 152.481 78.4029 146.816 64.0979C146.144 62.3698 144.992 60.7377 143.072 59.0096L143.264 46.4327L141.344 41.3444Z" fill="#EDF2FF"/>
<path fill-rule="evenodd" clip-rule="evenodd" d="M140.384 49.0249C142.208 51.9051 141.056 56.6095 141.056 59.4897C144.704 59.8737 144.224 60.2577 146.816 63.7139C146.144 60.7377 145.472 59.4897 144.32 56.6095C146.144 54.5933 147.392 54.4013 149.792 53.0572C147.872 45.4727 142.88 41.4404 139.232 41.0564C137.6 45.9527 139.232 44.5126 140.384 49.0249Z" fill="#E2E9FA"/>
<path fill-rule="evenodd" clip-rule="evenodd" d="M103.997 53.3452C106.205 52.1931 110.429 49.697 115.23 47.1048C115.71 46.9128 116.19 46.6248 116.67 46.4327L119.166 49.601C117.63 51.9051 112.926 54.7853 108.989 57.8575C112.445 62.6579 115.134 68.8983 116.574 79.459C118.878 96.3562 121.086 103.941 118.014 120.454C115.806 132.551 110.237 149.64 106.877 158.472C103.517 157.224 98.0445 154.536 96.7964 151.656C96.3164 149.928 98.3325 139.463 99.1966 136.487C101.597 127.75 104.573 121.318 104.669 113.829C104.669 110.565 103.325 105.189 102.269 101.348C97.9485 85.1234 85.6596 63.8099 103.997 53.3452Z" fill="#E2E9FA"/>
<path fill-rule="evenodd" clip-rule="evenodd" d="M137.12 46.1448C138.752 46.9129 139.808 48.161 140.768 50.5611C141.632 52.6733 141.248 56.7055 141.056 58.8177C142.88 55.2654 145.76 53.5373 148.448 52.8653C146.528 47.5849 142.208 42.4966 138.848 41.7285C138.368 43.3606 137.504 44.3207 137.12 46.1448Z" fill="#EDF2FF"/>
<path fill-rule="evenodd" clip-rule="evenodd" d="M131.455 60.1617C131.647 60.4497 132.031 60.8338 132.127 61.2178C133.183 64.098 132.223 70.2424 131.455 71.7785C131.551 68.8023 130.591 64.674 129.919 64.962C126.559 66.4021 124.543 69.3783 122.911 70.7224C118.686 66.8822 112.638 56.8975 113.694 47.9689C114.366 47.5849 117.918 45.3767 117.822 46.3368C117.246 53.2492 124.159 55.7454 131.455 60.1617Z" fill="#E2E9FA"/>
<path fill-rule="evenodd" clip-rule="evenodd" d="M119.07 43.3606C118.686 44.2247 118.398 44.8007 118.206 45.3767C116.958 49.793 128.767 55.0734 132.127 61.1218C128.287 61.5058 124.831 64.578 123.199 68.1303C119.166 61.3138 113.214 53.0573 115.422 47.2969C115.902 45.9528 117.534 44.4167 119.07 43.3606Z" fill="#EDF2FF"/>
<path fill-rule="evenodd" clip-rule="evenodd" d="M113.885 59.2017C115.71 61.9859 123.102 73.9867 123.87 73.7947C126.366 71.4905 129.247 70.5304 131.551 69.0903C134.335 96.5482 127.902 135.911 118.206 160.393C115.23 160.009 112.157 159.24 109.949 158.088C121.086 132.263 124.734 115.846 120.222 88.1956C119.934 86.4675 115.806 67.7462 112.541 60.5458C112.349 60.0657 112.925 59.5857 113.885 59.2017Z" fill="#F7F9FF"/>
<path fill-rule="evenodd" clip-rule="evenodd" d="M149.985 54.4014C151.521 61.6019 151.233 71.1065 151.233 81.2832C151.233 101.733 150.753 118.342 154.113 137.735C152.673 139.559 152.481 141.287 151.137 143.207C147.392 118.534 149.888 105.189 150.177 81.2832C150.273 72.8346 149.216 65.8262 146.24 56.6095L149.985 54.4014Z" fill="#F7F9FF"/>
<path fill-rule="evenodd" clip-rule="evenodd" d="M173.122 188.906C171.777 191.211 166.689 194.667 163.041 201.483C156.224 214.06 156.416 230.765 151.424 242.574C150.752 243.438 149.984 244.206 149.024 244.782C142.399 248.622 147.296 249.678 144.032 256.879C143.744 257.551 141.919 269.648 141.919 269.648C141.919 269.648 147.872 274.064 148.448 274.256C149.024 274.352 153.728 274.544 153.728 274.544C153.632 273.776 153.824 272.144 153.728 271.472C152.96 260.431 156.8 252.655 161.217 243.918C169.473 227.789 178.594 211.276 188.963 196.011C190.307 193.995 191.363 191.883 191.459 189.386C191.747 184.298 190.691 181.418 190.019 175.945C188.195 161.929 184.738 144.071 181.474 131.878C180.61 126.694 179.458 126.022 178.594 120.742L158.625 130.534C158.337 137.447 149.696 139.655 154.4 150.024C158.913 160.2 169.473 178.634 173.122 188.906Z" fill="#F1B287"/>
<path fill-rule="evenodd" clip-rule="evenodd" d="M173.122 188.906C171.777 191.211 166.689 194.667 163.041 201.483C156.224 214.06 156.416 230.765 151.424 242.574C150.752 243.438 149.984 244.206 149.024 244.782C142.399 248.622 147.296 249.679 144.032 256.879C143.744 257.551 141.919 269.648 141.919 269.648C141.919 269.648 147.872 274.064 148.448 274.256C146.912 262.735 147.968 255.439 149.792 250.255C149.792 250.159 164.001 229.613 165.921 226.157C168.033 214.636 166.785 210.22 174.466 198.891C178.306 193.227 187.235 194.283 191.459 184.97C191.171 182.186 190.595 179.69 190.115 175.946C188.291 161.929 185.218 144.263 181.954 132.071C180.226 127.078 180.322 124.678 178.786 120.646L166.305 128.326C160.641 141.095 168.609 176.234 173.122 188.906Z" fill="#E8A476"/>
<path fill-rule="evenodd" clip-rule="evenodd" d="M153.633 268.976C153.825 270.608 153.921 272.816 154.017 274.448C154.209 276.656 154.113 278.001 154.017 279.633C153.921 280.401 153.633 281.073 153.153 281.361C150.656 282.897 144.128 275.792 142.304 272.336C141.152 270.128 141.824 268.304 142.304 265.904C142.976 262.255 142.976 261.871 143.552 258.127L139.04 267.152L137.792 267.248C139.136 263.312 140.96 258.223 141.632 254.767C141.92 253.327 142.112 251.695 142.304 251.023C143.648 246.606 146.528 245.358 148.928 244.878C147.2 247.182 147.488 252.079 146.336 257.743C145.088 263.6 145.856 270.896 148.064 272.336C149.024 272.912 151.712 272.528 153.249 272.336C153.537 272.144 153.633 270.416 153.633 268.976Z" fill="#E8258B"/>
<path fill-rule="evenodd" clip-rule="evenodd" d="M150.56 281.169C147.584 279.633 143.552 275.024 142.208 272.432C141.056 270.224 141.728 268.4 142.208 266C142.88 262.351 142.88 261.967 143.456 258.223L138.943 267.248L137.695 267.344C139.039 263.407 140.864 258.319 141.536 254.863C141.824 253.423 142.016 251.791 142.208 251.119C143.552 246.702 146.432 245.454 148.832 244.974C147.104 247.278 147.392 252.175 146.24 257.839C145.184 262.639 145.568 268.4 146.912 271.088C147.488 274.448 148.928 277.712 150.56 281.169Z" fill="#9C155A"/>
<path fill-rule="evenodd" clip-rule="evenodd" d="M188.579 196.395C189.251 194.763 184.45 194.859 182.338 196.779C178.21 200.907 174.754 206.86 171.681 211.756C171.009 214.06 165.921 229.997 165.441 235.374C171.105 224.813 175.714 217.036 176.962 214.924C180.418 208.78 182.05 206.188 184.258 202.923C185.218 201.579 187.33 198.219 188.579 196.395Z" fill="#F7C09C"/>
<path fill-rule="evenodd" clip-rule="evenodd" d="M156.993 266.48C156.897 267.536 156.609 268.688 156.033 269.648C152.288 276.368 157.089 274.736 157.953 282.513C158.049 283.185 162.753 294.61 162.753 294.61C162.753 294.61 170.146 295.378 170.722 295.186C171.202 294.994 175.33 292.69 175.33 292.69C174.85 292.114 174.178 290.577 173.794 290.097C167.745 281.553 165.825 267.632 164.865 257.167C164.193 245.742 164.289 232.877 164.577 224.045C164.769 214.828 164.481 214.348 166.785 205.036C167.841 200.715 168.033 197.643 167.265 193.035L168.033 150.312C173.89 141.287 177.25 134.567 182.53 127.846L181.762 123.526L149.792 124.678C148.544 130.438 141.248 134.183 139.423 144.359C136.543 160.489 142.976 176.33 146.624 190.731C150.56 206.284 149.6 205.228 147.296 218.188C144.512 233.742 149.984 243.054 154.497 256.879C155.553 259.855 156.513 263.312 156.993 266.48Z" fill="#F1B287"/>
<path fill-rule="evenodd" clip-rule="evenodd" d="M156.992 266.48C156.896 267.536 156.608 268.688 156.032 269.648C152.288 276.368 157.088 274.736 157.953 282.513C158.049 283.185 162.753 294.61 162.753 294.61C162.753 294.61 170.145 295.378 170.721 295.186C170.817 295.186 171.297 294.898 171.777 294.706C167.745 289.905 164.577 284.049 162.657 279.153C159.969 272.144 159.777 266.48 159.297 265.232C159.009 263.215 158.721 261.679 158.625 261.103C154.976 239.886 153.248 226.541 157.185 208.876C157.665 205.612 158.337 203.883 157.761 200.715C155.456 188.906 146.432 153.192 149.216 143.975C157.857 144.071 164.577 134.759 175.138 132.359C176.866 131.975 178.402 131.686 179.938 131.494C180.898 130.15 181.858 128.806 182.914 127.366L182.146 123.046L149.984 124.39C148.736 130.15 141.631 133.703 139.807 143.879C136.927 160.008 143.072 176.234 146.72 190.635C150.656 206.188 149.696 205.132 147.392 218.092C144.608 233.645 150.08 242.958 154.592 256.783C155.552 259.855 156.512 263.311 156.992 266.48Z" fill="#E8A476"/>
<path fill-rule="evenodd" clip-rule="evenodd" d="M172.546 288.081C173.506 289.329 174.754 291.249 175.714 292.593C176.962 294.418 177.634 295.57 178.306 297.01C178.69 297.778 178.69 298.45 178.498 298.93C177.154 301.522 167.842 298.834 164.577 296.818C162.465 295.474 162.081 293.554 161.217 291.249C159.969 287.793 159.777 287.409 158.241 283.953L159.009 294.034L157.953 294.802C157.089 290.769 156.033 285.393 154.785 282.129C154.305 280.785 153.633 279.345 153.441 278.577C152.288 274.16 154.113 271.568 155.937 269.936C155.649 272.816 158.433 276.848 160.257 282.321C162.177 287.985 166.593 293.842 169.186 293.938C170.338 293.938 172.45 292.209 173.602 291.249C174.082 290.769 173.218 289.233 172.546 288.081Z" fill="#E8258B"/>
<path fill-rule="evenodd" clip-rule="evenodd" d="M176.194 299.986C172.834 300.178 167.073 298.354 164.577 296.818C162.465 295.474 162.081 293.554 161.217 291.249C159.969 287.793 159.777 287.409 158.241 283.953L159.009 294.034L157.953 294.802C157.089 290.769 156.033 285.393 154.785 282.129C154.305 280.785 153.633 279.345 153.441 278.577C152.288 274.16 154.113 271.568 155.937 269.936C155.649 272.816 158.433 276.848 160.257 282.321C161.889 287.025 165.153 291.729 167.65 293.362C170.05 295.954 172.93 297.97 176.194 299.986Z" fill="#9C155A"/>
<path fill-rule="evenodd" clip-rule="evenodd" d="M166.593 205.708C163.713 207.34 164.481 207.916 161.217 208.684C155.648 225.485 159.201 239.406 162.273 260.431C164.097 273.2 163.329 277.424 170.625 289.329C171.009 290.001 172.354 291.057 172.834 290.577C173.218 290.097 172.738 288.273 172.354 287.601C168.705 280.977 167.457 275.312 166.017 266.672C163.809 252.655 164.865 236.334 164.769 222.029C164.769 218.572 164.673 216.46 164.961 214.732C165.249 212.236 165.537 210.316 166.593 205.708Z" fill="#F7C09C"/>
<path fill-rule="evenodd" clip-rule="evenodd" d="M145.472 110.181C147.008 113.733 147.968 117.573 148.352 120.838C149.024 125.926 147.008 129.19 144.32 133.703C142.304 137.159 140.383 140.999 139.615 145.703C136.639 163.753 132.607 166.249 127.134 168.649C125.502 174.697 127.903 183.434 132.799 183.338C136.447 183.242 137.407 183.338 139.807 187.274C143.936 193.995 147.488 194.475 154.4 189.482C155.648 188.618 157.185 188.138 158.721 188.138C163.233 188.33 165.633 192.555 171.682 191.883C177.922 191.211 177.922 187.562 181.474 186.506C185.122 185.45 189.539 186.122 192.227 183.05C194.339 180.554 193.379 176.233 196.739 174.793C200.868 172.969 204.132 166.825 201.06 162.697C194.435 158.664 185.699 148.392 184.546 140.519C198.947 112.869 189.155 103.653 181.762 97.0281C181.762 96.356 181.762 95.588 181.666 94.9159C190.595 89.6356 189.635 82.0511 184.93 76.9627C182.146 73.9865 181.282 72.4504 180.322 69.6662C180.13 67.5541 179.842 65.922 179.65 64.7699C179.458 63.8098 179.074 62.8498 178.594 61.9857C177.058 59.2975 173.986 57.8574 168.225 59.7775C161.985 61.8897 152.384 65.1539 145.568 69.4742C141.535 72.0664 136.447 75.4266 135.679 80.323C134.623 88.9635 142.304 102.404 145.472 110.181Z" fill="#FF76A7"/>
<path fill-rule="evenodd" clip-rule="evenodd" d="M145.472 110.181C146.912 113.733 148.352 118.342 148.352 122.278C148.352 126.31 146.528 128.326 143.456 133.607C137.984 142.919 138.752 149.928 136.543 156.168C133.471 164.905 131.071 167.113 127.039 168.553C125.695 173.161 126.943 178.922 129.343 181.418C130.687 182.858 132.031 183.146 135.871 183.338C139.52 183.53 140 190.635 144.896 192.267C147.296 193.131 149.408 192.459 151.136 191.595C148.16 181.898 147.008 162.697 148.448 148.008C149.312 138.983 155.265 127.078 155.265 126.694C155.457 121.126 153.153 116.806 157.377 112.773C158.337 111.813 160.929 111.237 163.137 110.565C170.146 108.549 170.914 103.173 174.37 101.444C180.034 98.5643 181.186 97.8922 181.955 96.8361C181.763 95.9721 181.859 95.6841 181.763 94.916C179.266 96.6441 176.194 97.6042 173.41 98.8523C170.722 100.004 168.034 103.845 163.521 105.477C156.609 107.973 149.696 103.461 151.04 91.5558C152 83.1072 150.08 81.6671 144.992 75.4267C145.376 75.2347 145.76 75.0427 146.24 74.8506C157.761 66.3061 162.369 63.3298 177.154 60.2576C175.33 58.8175 172.546 58.3375 168.322 59.7776C162.273 61.7937 155.169 64.2899 148.928 67.5541C145.664 69.2823 142.688 71.3944 140.096 73.3145C135.103 77.1548 134.623 82.4352 136.351 87.5235C138.272 95.396 143.072 104.325 145.472 110.181Z" fill="#F75E94"/>
<path fill-rule="evenodd" clip-rule="evenodd" d="M173.314 96.068C169.762 97.9881 166.306 103.557 161.793 103.941C154.401 104.517 152.193 97.8921 152.769 92.7078C153.537 86.6593 152.097 80.3229 149.024 76.0986C150.272 75.5226 152.577 73.1224 153.729 72.5464C160.161 76.5787 166.594 78.6908 170.914 75.4266C172.738 74.0825 173.41 68.6101 171.97 65.0579L178.114 62.4657C178.978 65.9219 179.458 69.5702 181.283 72.2584C183.011 74.7545 185.123 77.1547 186.371 79.7469C188.483 84.0672 187.331 89.2515 183.395 92.0357C180.323 94.2439 176.29 94.5319 173.314 96.068Z" fill="#FF99BD"/>
<path fill-rule="evenodd" clip-rule="evenodd" d="M156.417 144.839C157.473 139.559 162.369 126.31 160.833 120.358C159.681 115.749 159.681 115.077 165.153 113.733C169.377 112.677 173.026 109.125 174.658 106.437C176.866 102.885 181.858 103.077 183.874 98.9482C200.964 110.853 191.555 128.326 184.642 140.999C186.659 149.064 194.051 158.28 201.252 162.601C204.324 166.729 202.308 173.449 197.411 174.793C193.763 175.753 194.723 180.266 192.707 182.858C189.923 186.506 185.315 185.45 181.666 186.506C178.018 187.562 178.306 191.115 171.97 191.883C165.825 192.555 165.441 189.866 161.121 188.522C158.913 183.242 151.808 167.497 156.417 144.839Z" fill="#FF99BD"/>
<path fill-rule="evenodd" clip-rule="evenodd" d="M159.969 130.054C159.873 133.415 159.393 139.847 160.449 142.151C165.249 152.424 179.746 148.2 184.258 141.767C180.802 149.352 170.913 150.408 163.425 152.328C159.777 153.288 156.128 156.84 154.112 166.057C149.984 160.681 154.4 136.583 159.969 130.054Z" fill="#FF76A7"/>
<path fill-rule="evenodd" clip-rule="evenodd" d="M179.554 139.751C178.498 139.655 178.594 135.431 179.362 134.567C180.994 132.935 191.267 126.886 192.227 128.614C192.611 129.286 191.747 132.647 190.787 134.567C189.635 136.775 188.771 138.311 186.274 138.983C183.298 139.751 182.338 139.943 179.554 139.751Z" fill="#F1B287"/>
<path fill-rule="evenodd" clip-rule="evenodd" d="M179.554 139.751C184.547 138.407 186.851 137.255 190.787 134.567C189.635 136.775 188.771 138.311 186.275 138.983C183.298 139.751 182.338 139.943 179.554 139.751Z" fill="#E8A476"/>
<path fill-rule="evenodd" clip-rule="evenodd" d="M179.554 139.751C178.498 139.655 178.594 135.431 179.362 134.567C180.994 132.935 191.267 126.886 192.227 128.614C192.419 128.902 192.323 129.67 192.131 130.63C190.115 131.11 181.762 134.183 180.802 135.047C179.938 136.775 179.65 138.503 179.554 139.751Z" fill="#F7C09C"/>
<path fill-rule="evenodd" clip-rule="evenodd" d="M175.906 53.6332L169.377 44.8006L171.586 33.8558L176.386 25.9833C185.699 31.8397 183.586 52.8651 175.906 53.6332Z" fill="#241304"/>
<path fill-rule="evenodd" clip-rule="evenodd" d="M179.458 71.6825C182.914 62.8499 177.826 59.7777 173.602 55.8414C171.778 57.6656 171.874 57.1855 172.354 58.2416C173.698 61.5058 181.762 61.9859 179.458 71.6825Z" fill="#241304"/>
<path fill-rule="evenodd" clip-rule="evenodd" d="M168.513 67.1702C169.089 67.4582 170.337 69.5703 171.201 70.7224C170.337 74.0826 171.969 76.6748 173.889 77.9229C173.121 80.3231 174.177 84.3553 176.386 85.7954C177.25 86.3715 179.17 85.1234 179.266 84.7394C179.362 84.2593 179.362 83.8753 179.266 83.3953C179.074 82.5312 179.17 80.8031 178.018 80.035C179.842 77.3469 179.554 74.1786 178.306 72.2585C180.61 68.9943 179.362 64.29 176.866 62.7539C178.594 56.9935 176.866 49.2169 174.849 47.2968L166.401 46.8168L168.513 67.1702Z" fill="#241304"/>
<path fill-rule="evenodd" clip-rule="evenodd" d="M177.826 95.6842C180.514 94.1481 181.666 90.5958 181.282 87.8117C180.898 85.2195 179.074 84.5474 177.73 85.1235C176.77 85.5075 176.002 86.8516 176.002 88.0997C175.906 90.9799 179.17 92.324 177.826 95.6842Z" fill="#241304"/>
<path fill-rule="evenodd" clip-rule="evenodd" d="M177.826 95.6842C180.514 94.1481 181.666 90.5959 181.282 87.8117C181.09 86.7556 180.706 86.0835 180.226 85.6035C179.746 86.8516 179.554 87.4276 178.498 87.8117C178.594 91.4599 179.842 93.8601 177.826 95.6842Z" fill="#361D07"/>
<path fill-rule="evenodd" clip-rule="evenodd" d="M179.266 94.5321C180.898 92.708 181.57 90.0198 181.282 87.8117C181.09 86.7556 180.706 86.0835 180.226 85.6035C179.938 86.2756 179.746 86.8516 179.458 87.1396C180.13 90.2118 180.418 91.3639 179.266 94.5321Z" fill="#4A2B12"/>
<path fill-rule="evenodd" clip-rule="evenodd" d="M179.938 84.1634C179.842 83.6833 179.65 83.2993 179.266 82.9153C179.266 84.0674 178.498 85.0274 177.346 85.2194C176.578 85.3154 175.81 85.1234 175.33 84.6434C175.33 84.7394 175.33 84.8354 175.33 84.9314C175.522 86.1795 176.77 86.9476 178.018 86.7555C179.362 86.5635 180.13 85.4115 179.938 84.1634Z" fill="#C51D74"/>
<path fill-rule="evenodd" clip-rule="evenodd" d="M178.402 84.8354C178.114 85.0275 177.73 85.2195 177.442 85.2195C176.674 85.3155 175.906 85.1235 175.426 84.6434C175.426 84.7394 175.426 84.8354 175.426 84.9315C175.618 86.1795 176.866 86.9476 178.114 86.7556C178.594 86.6596 178.978 86.4676 179.362 86.1795C177.154 86.9476 177.154 85.8915 178.402 84.8354Z" fill="#9C155A"/>
<path fill-rule="evenodd" clip-rule="evenodd" d="M179.458 83.2034C179.938 83.9714 180.13 85.1235 179.362 85.8916C179.17 86.0836 178.882 85.9876 178.69 85.7955C178.498 85.5075 178.594 85.2195 178.786 84.8355C179.17 84.2594 179.458 83.6834 179.458 83.2034Z" fill="#F53B9B"/>
<path fill-rule="evenodd" clip-rule="evenodd" d="M177.058 62.8499C175.234 65.346 174.178 65.8261 174.178 68.8983C176.002 69.8583 176.866 70.7224 178.306 72.0665C180.226 68.4182 179.458 64.962 177.058 62.8499Z" fill="#361D07"/>
<path fill-rule="evenodd" clip-rule="evenodd" d="M177.346 63.714C176.098 66.3062 176.77 68.7063 178.594 71.1065C179.65 68.8983 179.746 65.8261 177.346 63.714Z" fill="#4A2B12"/>
<path fill-rule="evenodd" clip-rule="evenodd" d="M173.602 70.1464C175.33 71.2024 176.194 72.6425 174.658 77.4429C172.258 75.9068 170.337 70.7224 173.602 70.1464Z" fill="#361D07"/>
<path fill-rule="evenodd" clip-rule="evenodd" d="M173.602 70.1464C175.33 71.2024 176.194 72.6425 174.658 77.4429C175.714 75.6187 172.449 70.6264 173.602 70.1464Z" fill="#4A2B12"/>
<path fill-rule="evenodd" clip-rule="evenodd" d="M178.402 72.4506C175.618 73.9867 175.137 76.2908 178.018 80.2271C179.554 77.9229 180.13 75.2348 178.402 72.4506Z" fill="#361D07"/>
<path fill-rule="evenodd" clip-rule="evenodd" d="M178.402 72.4506C178.594 74.8507 178.402 77.3469 178.018 80.2271C179.554 77.9229 180.13 75.2348 178.402 72.4506Z" fill="#4A2B12"/>
<path fill-rule="evenodd" clip-rule="evenodd" d="M175.426 78.2109C176.098 79.747 176.386 81.2831 176.77 85.0274C174.561 83.7793 173.025 79.075 175.426 78.2109Z" fill="#361D07"/>
<path fill-rule="evenodd" clip-rule="evenodd" d="M175.618 79.075C176.29 80.6111 176.386 81.2831 176.77 85.0274C176.098 82.9152 174.562 80.323 175.618 79.075Z" fill="#4A2B12"/>
<path fill-rule="evenodd" clip-rule="evenodd" d="M178.114 80.3231L177.058 80.7071C177.154 82.1472 177.346 83.4913 177.538 84.9314C179.746 83.9714 179.458 80.9952 178.114 80.3231Z" fill="#361D07"/>
<path fill-rule="evenodd" clip-rule="evenodd" d="M178.114 80.3231C178.498 83.0113 178.498 83.5873 177.538 84.9314C179.746 83.9714 179.458 80.9952 178.114 80.3231Z" fill="#4A2B12"/>
<path fill-rule="evenodd" clip-rule="evenodd" d="M154.112 66.5941C153.248 74.2746 168.225 77.0588 170.625 72.1625C170.913 66.7861 171.201 62.9459 174.273 57.0895L159.969 51.5211L156.32 49.985C158.144 57.4735 156.704 60.1617 154.112 66.5941Z" fill="#E8A476"/>
<path fill-rule="evenodd" clip-rule="evenodd" d="M154.112 66.4982C154.112 66.5942 154.112 66.6902 154.112 66.7862C160.737 59.5857 166.689 64.482 171.586 64.194C171.778 63.81 173.314 59.2977 173.41 58.9136C173.89 57.6655 173.986 57.8576 174.658 56.2255L159.873 50.4651L156.224 48.929C158.049 56.4175 156.704 59.9697 154.112 66.4982Z" fill="#DB9669"/>
<path fill-rule="evenodd" clip-rule="evenodd" d="M164.865 72.3545C166.881 72.6425 169.185 72.0665 170.721 70.5304C170.817 67.9382 171.105 66.0181 171.489 64.386C165.825 64.962 165.921 70.8184 164.865 72.3545Z" fill="#F1B287"/>
<path fill-rule="evenodd" clip-rule="evenodd" d="M167.937 62.6577C160.353 59.0095 158.24 54.9772 156.8 47.0087C153.536 44.6085 152.096 42.5924 151.904 40.4802C151.328 35.3919 154.304 30.0155 158.24 27.0393C161.697 24.4471 165.633 23.8711 169.953 24.8311C178.402 26.8473 181.378 32.5117 181.666 39.8082C181.666 40.2882 181.57 41.0562 181.378 41.7283C181.186 42.5924 180.418 43.4564 180.13 44.2245C179.938 44.7045 179.938 45.5686 179.842 45.9526C179.458 47.0086 180.034 47.0087 180.13 47.4887C180.994 50.5609 179.65 53.4411 178.018 56.4173C177.826 56.8013 177.538 58.1454 177.346 58.5294C176.674 60.2576 176.482 61.9857 176.002 62.9457C175.426 64.0018 173.217 64.2898 172.161 64.1938C170.913 64.0978 169.665 63.5218 167.937 62.6577Z" fill="#F1B287"/>
<path fill-rule="evenodd" clip-rule="evenodd" d="M167.937 62.6577C160.353 59.0095 158.24 54.9772 156.8 47.0087C153.536 44.6085 152.096 42.5924 151.904 40.4802C151.328 35.3919 154.304 30.0155 158.24 27.0393C161.697 24.4471 165.633 23.8711 169.953 24.8311C175.234 26.0792 179.266 30.1115 180.706 34.1438C178.594 38.8481 171.201 43.2644 168.225 44.4165C166.305 45.1845 165.441 46.4326 165.153 47.7767C164.385 50.5609 167.745 50.9449 167.649 52.385C167.649 53.8251 164.097 53.7291 164.673 57.5694C164.865 58.6255 167.265 61.6977 168.417 62.9457C168.225 62.8497 168.033 62.7537 167.937 62.6577Z" fill="#E8A476"/>
<path fill-rule="evenodd" clip-rule="evenodd" d="M181.378 41.5363C181.378 42.0163 180.898 43.7444 180.322 44.4165C180.226 44.5125 179.746 46.1446 179.65 46.4326C179.554 46.9126 180.034 47.2966 180.13 47.6807C180.322 48.2567 180.514 49.0248 180.322 50.2729C180.034 52.001 179.458 53.4411 178.594 55.0732C178.306 55.1692 177.922 55.2652 177.73 55.3612C177.442 55.4572 177.346 55.6492 177.154 55.7452C176.962 55.7452 176.77 55.6492 176.482 55.5532C176.002 55.3612 175.81 55.7452 175.234 55.4572C174.754 55.1692 173.026 54.6892 173.986 53.7291C174.946 54.8812 175.618 54.0171 176.386 54.2091C176.866 54.3051 177.73 54.2091 178.498 54.0171C176.77 52.673 176.482 50.2729 176.29 48.2567C176.194 46.7206 176.866 45.0885 177.826 44.2244C178.882 43.2644 180.514 42.0163 181.378 41.5363Z" fill="#E8A476"/>
<path fill-rule="evenodd" clip-rule="evenodd" d="M172.546 56.5133C171.586 56.8013 171.01 56.6093 170.242 56.4173C170.05 56.3213 169.858 56.1293 169.762 56.1293C169.282 56.1293 169.186 56.5133 169.762 56.8973C169.858 56.9933 170.338 57.2813 170.434 57.4734C170.818 58.1454 171.586 59.1055 172.066 59.7775C172.546 60.4496 173.122 61.0256 173.89 61.3136C175.138 61.6976 176.77 61.6016 176.866 58.9135C176.866 58.4334 176.482 58.2414 175.714 57.2813L172.546 56.5133Z" fill="#E8A476"/>
<path fill-rule="evenodd" clip-rule="evenodd" d="M172.546 56.5132C171.586 56.8013 171.01 56.8013 170.338 56.6093C170.146 56.5132 170.05 56.4172 169.858 56.4172C169.666 56.4172 169.762 56.7053 169.954 56.8013C170.146 56.8973 170.338 56.9933 170.434 57.1853C170.818 57.8573 171.394 58.6254 171.97 59.2974C172.45 59.9695 173.026 60.5455 173.794 60.8335C175.042 61.2176 176.77 60.7375 176.866 58.7214C176.866 58.2414 176.482 58.0494 175.714 57.0893L172.546 56.5132Z" fill="#DB9669"/>
<path fill-rule="evenodd" clip-rule="evenodd" d="M176.386 58.7214L174.562 60.1615L171.97 59.2014L170.626 57.0893L173.122 57.2813L174.562 56.8013L176.098 56.8973H176.962C176.962 57.4733 176.674 58.2414 176.386 58.7214Z" fill="#5E3920"/>
<path fill-rule="evenodd" clip-rule="evenodd" d="M173.122 58.2414C173.026 58.1454 172.93 57.8574 172.93 57.8574C172.834 57.8574 172.834 57.8574 172.642 58.0494C172.546 58.0494 172.354 57.9534 172.162 57.9534L172.066 57.7614C171.97 57.7614 171.97 57.8574 171.874 57.8574C171.586 57.7614 171.01 57.2814 170.722 57.1853L170.626 57.0893H173.794L174.85 56.9933C175.426 57.1853 177.442 55.8413 177.154 56.4173C177.058 56.7053 176.77 57.7614 176.674 57.9534C176.29 58.3374 173.218 58.5294 173.122 58.2414Z" fill="#EBD3C3"/>
<path fill-rule="evenodd" clip-rule="evenodd" d="M171.009 57.2814C170.913 57.1853 170.817 57.1853 170.817 57.1853L170.721 57.0893H173.889L174.946 56.9933C175.522 57.1853 177.538 55.8413 177.25 56.4173C177.25 56.5133 177.154 56.8013 177.058 57.0893C177.058 57.0893 176.962 57.0893 176.866 57.0893C176.578 57.0893 176.29 57.3774 175.81 57.4734C175.522 57.4734 175.233 57.4734 175.041 57.4734C174.273 57.3774 173.793 57.7614 173.025 57.6654V57.9534C172.929 57.8574 173.025 57.7614 172.929 57.7614C172.737 57.5694 172.161 57.6654 172.161 57.7614C171.681 57.5694 171.393 57.3774 171.009 57.2814Z" fill="#CFB5A3"/>
<path fill-rule="evenodd" clip-rule="evenodd" d="M175.33 60.8336C174.562 61.1216 174.082 60.8336 173.506 60.7376C173.026 60.5456 172.161 59.5855 171.777 59.2015C171.393 58.7215 170.721 57.7614 170.433 57.3774C170.337 57.2814 170.337 57.1854 170.433 57.0894C170.529 57.0894 170.625 57.0894 170.721 57.1854C172.161 58.3374 172.161 59.2015 174.082 59.3935C174.562 59.4895 174.946 59.3935 175.234 59.2975C175.522 59.2015 175.906 59.0095 176.098 58.8175C176.386 58.6255 176.386 58.7215 176.482 58.3374C176.482 58.2414 176.578 58.1454 176.578 58.0494C177.058 58.6255 176.866 60.3536 175.33 60.8336Z" fill="#E89471"/>
<path fill-rule="evenodd" clip-rule="evenodd" d="M175.33 60.8336C174.562 61.1216 174.082 60.8336 173.506 60.7376C173.026 60.5456 172.161 59.5855 171.777 59.2015C171.393 58.7215 170.721 57.7614 170.433 57.3774C170.337 57.2814 170.337 57.1854 170.433 57.0894C170.529 57.0894 170.625 57.0894 170.721 57.1854C171.585 57.8574 171.969 58.5294 172.545 58.9135C172.545 58.9135 171.873 58.4334 171.777 58.5295C171.777 58.5295 171.681 58.6255 171.873 58.8175C172.065 59.1055 172.449 59.3935 172.545 59.5855C173.122 60.1616 173.89 60.7376 174.85 60.6416C175.618 60.5456 176.29 60.2576 176.77 59.3935C176.77 59.2975 176.866 59.2975 176.866 59.2015C176.674 59.7775 176.29 60.5456 175.33 60.8336ZM176.29 58.7215C176.674 58.5295 176.674 58.5295 176.866 58.7215C176.866 58.4334 176.77 58.2414 176.674 58.0494C176.674 58.1454 176.578 58.2414 176.578 58.3374C176.482 58.6255 176.482 58.6255 176.29 58.7215Z" fill="#DE8660"/>
<path fill-rule="evenodd" clip-rule="evenodd" d="M172.642 59.2015C173.122 59.2975 174.082 59.6815 175.042 59.4895C175.906 59.3935 176.29 58.7214 176.578 58.7214C177.058 58.8174 176.482 59.8735 175.618 60.2575C174.466 60.6416 173.122 60.1615 172.642 59.2015Z" fill="#EDA288"/>
<path fill-rule="evenodd" clip-rule="evenodd" d="M168.417 56.5133C168.898 55.0732 169.474 54.6892 171.01 55.1692C169.762 55.0732 169.09 55.4572 168.417 56.5133Z" fill="#E8A476"/>
<path fill-rule="evenodd" clip-rule="evenodd" d="M173.89 56.1293C172.834 56.5133 171.585 56.8973 170.817 56.8013C170.337 56.7053 170.241 56.8973 170.721 57.0893C172.065 57.6654 173.122 57.4734 174.562 57.0893C174.754 57.0893 174.85 57.0893 175.042 57.0893C175.33 57.0893 175.714 57.1853 176.002 57.0893C176.29 57.0893 176.482 56.8973 176.866 56.8013C177.058 56.7053 177.154 56.8013 177.154 56.9933C177.154 56.9933 177.538 56.5133 177.634 56.2253C177.73 55.9373 177.538 55.7452 177.25 55.7452C176.866 55.7452 176.482 56.0333 176.194 56.1293C175.906 56.1293 175.714 56.1293 175.33 56.0333C174.754 55.7452 174.274 55.9373 173.89 56.1293Z" fill="#E89471"/>
<path fill-rule="evenodd" clip-rule="evenodd" d="M173.793 56.8973C173.025 57.1853 172.065 57.3773 170.721 56.9933C172.065 57.5693 173.121 57.3773 174.561 56.9933C174.753 56.9933 174.849 56.9933 175.041 56.9933C175.33 56.9933 175.714 57.0893 176.002 56.9933C176.29 56.9933 176.482 56.8013 176.866 56.7053C177.058 56.6093 177.154 56.7053 177.154 56.8973C177.25 56.7053 177.346 56.3212 177.058 56.4173C176.77 56.4173 176.29 56.7053 176.002 56.8013C175.714 56.8013 175.522 56.8013 175.137 56.7053C174.561 56.5133 174.177 56.8013 173.793 56.8973Z" fill="#DE8660"/>
<path fill-rule="evenodd" clip-rule="evenodd" d="M173.889 56.1292C172.833 56.5132 171.585 56.8973 170.817 56.8012C170.721 56.8012 170.625 56.8012 170.529 56.8012C171.297 57.1853 173.313 56.8012 174.177 56.3212C174.369 56.2252 174.849 56.1292 175.041 56.1292C175.33 56.2252 175.618 56.4172 176.002 56.3212C176.29 56.3212 176.386 56.2252 176.674 56.0332C176.866 55.9372 177.25 55.7452 177.538 56.0332C177.538 55.8412 177.346 55.7452 177.154 55.6492C176.77 55.6492 176.386 55.9372 176.098 56.0332C175.81 56.0332 175.618 56.0332 175.234 55.9372C174.753 55.7452 174.273 55.9372 173.889 56.1292ZM170.433 56.8012C170.433 56.8973 170.433 56.9933 170.529 57.0893C170.337 56.8973 170.337 56.8012 170.433 56.8012Z" fill="#EDA288"/>
<path fill-rule="evenodd" clip-rule="evenodd" d="M176.674 47.2007L176.578 46.8167L176.482 45.9526C176.77 45.3766 177.346 43.8405 177.635 43.3604C178.595 41.9203 179.363 41.7283 181.475 40.8643C181.475 41.0563 181.379 41.3443 181.379 41.6323C179.459 43.1684 178.211 42.7844 176.674 47.2007Z" fill="#DB9669"/>
<path fill-rule="evenodd" clip-rule="evenodd" d="M179.842 45.8566C179.65 45.8566 179.074 46.2406 178.594 46.4326C177.922 46.6246 177.346 46.5286 176.866 46.4326C176.77 46.4326 176.674 46.3366 176.578 46.4326C176.578 46.5286 176.578 46.5286 176.674 46.6246C176.674 46.6246 176.77 46.6246 176.866 46.7206C177.154 46.9126 177.442 47.0086 177.73 47.1047C178.498 47.2967 179.362 46.8166 179.746 46.2406C179.746 46.1446 179.842 45.8566 179.842 45.8566Z" fill="#DED5D5"/>
<path fill-rule="evenodd" clip-rule="evenodd" d="M177.442 46.5286C177.538 46.8166 177.73 47.0087 177.922 47.0087C178.21 47.1047 178.979 46.9126 179.171 46.7206C179.555 46.4326 179.747 45.9526 179.651 45.8566C179.075 46.3366 178.498 46.5286 177.442 46.5286Z" fill="#062E4A"/>
<path fill-rule="evenodd" clip-rule="evenodd" d="M179.362 46.3365C178.882 46.6246 178.402 46.6246 177.826 46.6246C178.114 46.7206 178.306 46.7206 178.498 46.7206C178.69 46.7206 179.17 46.5286 179.362 46.3365Z" fill="#DED5D5"/>
<path fill-rule="evenodd" clip-rule="evenodd" d="M180.322 44.3204C180.322 45.0885 180.034 45.7605 179.746 46.0486C179.362 46.4326 177.538 46.7206 176.866 46.4326C177.73 46.4326 178.21 46.3366 178.69 46.1446C179.362 45.8565 179.65 45.4725 179.65 45.2805C179.746 44.8965 179.65 44.7045 178.69 44.9925C179.17 44.8005 179.938 44.5124 180.322 44.3204Z" fill="#C48C69"/>
<path fill-rule="evenodd" clip-rule="evenodd" d="M180.323 44.3204C180.323 44.9925 180.035 45.7605 179.747 46.0486C179.554 46.3366 178.594 46.5286 177.922 46.5286C178.594 46.3366 179.65 46.0486 180.035 45.2805C180.131 44.9925 180.227 44.6085 179.458 44.8005C179.362 44.8005 180.131 44.5124 180.323 44.3204Z" fill="#996C50"/>
<path fill-rule="evenodd" clip-rule="evenodd" d="M178.786 45.9525C178.21 46.2406 177.442 46.2406 176.866 46.2406C177.25 45.7605 178.018 45.1845 178.594 45.0885C179.842 44.8005 179.362 45.6645 178.786 45.9525Z" fill="#F1B287"/>
<path fill-rule="evenodd" clip-rule="evenodd" d="M179.746 46.0487C179.362 46.8168 178.594 47.2968 177.73 47.1048C177.442 47.0088 177.154 46.9128 176.866 46.7207C176.674 46.6247 176.674 46.4327 176.962 46.6247C177.25 46.8168 177.538 46.9128 177.826 47.0088C178.498 47.1048 179.362 46.6247 179.746 46.0487Z" fill="black"/>
<path fill-rule="evenodd" clip-rule="evenodd" d="M180.13 45.2806C180.034 45.6647 179.938 45.8567 179.746 46.0487C179.17 46.7207 177.346 46.8167 176.674 46.3367C177.826 46.6247 179.17 46.5287 180.13 45.2806Z" fill="#785A46"/>
<path fill-rule="evenodd" clip-rule="evenodd" d="M180.13 45.2806C180.034 45.6647 179.938 45.8567 179.746 46.0487C179.17 46.7207 177.346 46.8167 176.674 46.3367C177.25 46.6247 178.69 46.6247 179.458 46.1447C179.746 45.9527 179.938 45.6647 180.13 45.2806Z" fill="black"/>
<path fill-rule="evenodd" clip-rule="evenodd" d="M180.034 45.4726C180.61 45.3766 180.994 45.1846 181.282 44.8005C181.09 45.2806 180.802 45.5686 179.842 45.7606C179.842 45.6646 180.034 45.4726 180.034 45.4726Z" fill="black"/>
<path fill-rule="evenodd" clip-rule="evenodd" d="M179.938 45.7607C180.322 45.8567 180.802 45.7607 181.09 45.6647C180.706 45.8567 180.418 45.9527 179.842 45.8567C179.842 45.7607 179.938 45.7607 179.938 45.7607Z" fill="black"/>
<path fill-rule="evenodd" clip-rule="evenodd" d="M179.842 45.8566C180.226 46.0486 180.802 46.0486 181.09 45.9526C180.706 46.1446 180.322 46.1446 179.65 45.9526L179.842 45.8566Z" fill="black"/>
<path fill-rule="evenodd" clip-rule="evenodd" d="M179.555 46.1447C179.843 46.3367 180.227 46.5287 180.611 46.5287C180.227 46.5287 179.843 46.5287 179.458 46.2407L179.555 46.1447Z" fill="black"/>
<path fill-rule="evenodd" clip-rule="evenodd" d="M179.65 46.0486C179.938 46.2406 180.226 46.3366 180.514 46.3366C180.226 46.3366 179.938 46.3366 179.65 46.0486Z" fill="black"/>
<path fill-rule="evenodd" clip-rule="evenodd" d="M179.171 46.3367C179.459 46.6247 179.747 46.8167 180.035 46.8167C179.651 46.8167 179.363 46.7207 178.979 46.4327C179.075 46.3367 179.075 46.3367 179.171 46.3367Z" fill="black"/>
<path fill-rule="evenodd" clip-rule="evenodd" d="M179.266 46.2406C179.554 46.4326 179.746 46.6246 180.034 46.6246C179.746 46.6246 179.458 46.5286 179.266 46.2406Z" fill="black"/>
<path fill-rule="evenodd" clip-rule="evenodd" d="M178.882 46.4327C179.074 46.7208 179.362 47.0088 179.65 47.1048C179.266 47.0088 178.978 46.8168 178.786 46.4327C178.786 46.4327 178.786 46.4327 178.882 46.4327Z" fill="black"/>
<path fill-rule="evenodd" clip-rule="evenodd" d="M178.979 46.4327C179.171 46.6248 179.363 46.8168 179.651 46.9128C179.267 46.8168 179.075 46.7208 178.979 46.4327Z" fill="black"/>
<path fill-rule="evenodd" clip-rule="evenodd" d="M178.69 46.5287C178.786 46.9127 178.882 47.1047 178.978 47.2967C178.69 47.1047 178.594 46.8167 178.594 46.5287H178.69Z" fill="black"/>
<path fill-rule="evenodd" clip-rule="evenodd" d="M178.402 46.5287C178.402 46.9127 178.402 47.2007 178.21 47.3927C178.306 47.1047 178.306 46.8167 178.21 46.5287C178.306 46.5287 178.306 46.5287 178.402 46.5287Z" fill="black"/>
<path fill-rule="evenodd" clip-rule="evenodd" d="M178.595 46.5287C178.691 46.8167 178.595 47.1047 178.595 47.2967C178.595 47.0087 178.595 46.8167 178.499 46.5287C178.499 46.5287 178.499 46.5287 178.595 46.5287Z" fill="black"/>
<path fill-rule="evenodd" clip-rule="evenodd" d="M178.114 46.6248C178.114 46.9128 178.018 47.2968 177.826 47.3928C177.922 47.1048 177.922 46.8168 177.922 46.6248C178.018 46.6248 178.018 46.6248 178.114 46.6248Z" fill="black"/>
<path fill-rule="evenodd" clip-rule="evenodd" d="M178.211 46.6248C178.211 46.9128 178.211 47.2008 178.019 47.3928C178.115 47.1048 178.211 46.8168 178.211 46.6248Z" fill="black"/>
<path fill-rule="evenodd" clip-rule="evenodd" d="M177.73 46.5287C177.634 46.8167 177.538 47.2007 177.346 47.2967C177.442 47.1047 177.538 46.8167 177.538 46.5287C177.634 46.5287 177.73 46.5287 177.73 46.5287Z" fill="black"/>
<path fill-rule="evenodd" clip-rule="evenodd" d="M177.922 46.5287C177.922 46.8167 177.826 47.1047 177.634 47.2967C177.73 47.1047 177.826 46.8167 177.922 46.5287Z" fill="black"/>
<path fill-rule="evenodd" clip-rule="evenodd" d="M177.443 46.5287C177.347 46.8167 177.251 47.1047 177.059 47.2007C177.251 47.0087 177.251 46.7207 177.347 46.5287H177.443Z" fill="black"/>
<path fill-rule="evenodd" clip-rule="evenodd" d="M177.538 46.5287C177.538 46.8167 177.443 47.0087 177.25 47.2007C177.346 47.0087 177.442 46.7207 177.538 46.5287Z" fill="black"/>
<path fill-rule="evenodd" clip-rule="evenodd" d="M177.154 46.4327C177.058 46.7207 176.866 47.0087 176.674 47.0087C176.866 46.8167 176.962 46.6247 176.962 46.3367C177.058 46.4327 177.058 46.4327 177.154 46.4327Z" fill="black"/>
<path fill-rule="evenodd" clip-rule="evenodd" d="M177.25 46.5287C177.154 46.8167 177.058 47.0087 176.866 47.1047C177.058 46.9127 177.154 46.7207 177.25 46.5287Z" fill="black"/>
<path fill-rule="evenodd" clip-rule="evenodd" d="M176.866 46.4327C176.77 46.6247 176.578 46.8167 176.386 46.8167C176.482 46.7207 176.674 46.5287 176.674 46.3367L176.866 46.4327Z" fill="black"/>
<path fill-rule="evenodd" clip-rule="evenodd" d="M176.962 46.4326C176.866 46.6246 176.77 46.8166 176.578 46.8166C176.77 46.7206 176.866 46.6246 176.962 46.4326Z" fill="black"/>
<path fill-rule="evenodd" clip-rule="evenodd" d="M174.082 43.9364C174.466 44.8965 173.986 46.2406 173.602 47.7767C173.026 45.8565 172.066 45.3765 169.57 44.4164C168.13 43.8404 168.033 44.0324 166.401 44.1284C168.321 43.6484 168.129 42.9764 169.762 43.3604C171.586 43.7444 172.93 44.0324 174.082 43.9364Z" fill="#E8A476"/>
<path fill-rule="evenodd" clip-rule="evenodd" d="M165.633 44.4165C166.401 44.0324 167.169 43.6484 168.033 43.3604C168.802 43.0724 168.802 42.7843 169.666 42.9764C170.914 43.1684 172.45 43.2644 173.506 43.4564C174.274 43.5524 174.37 43.6484 174.274 44.2244C174.274 44.6085 174.178 44.8965 174.082 44.9925C173.89 45.0885 171.778 44.4165 170.146 43.9364C168.898 43.6484 168.898 43.4564 167.937 43.8404C167.169 44.0324 166.593 44.2244 165.633 44.4165Z" fill="#572F0C"/>
<path fill-rule="evenodd" clip-rule="evenodd" d="M166.786 47.2966C167.65 48.1607 168.418 48.7367 169.378 48.8327C170.242 48.9287 170.722 48.7367 171.394 48.4487C171.778 48.2567 172.162 47.9687 172.642 47.6806C171.49 47.8727 170.818 48.2567 169.474 48.1607C168.418 48.0647 166.978 47.2006 166.786 47.2966Z" fill="#DED5D5"/>
<path fill-rule="evenodd" clip-rule="evenodd" d="M171.394 47.8727C171.298 48.3527 170.914 48.5447 170.434 48.6407C169.762 48.7367 168.994 48.5447 168.898 48.0647C169.954 48.2567 171.01 47.9687 171.394 47.8727Z" fill="#031D30"/>
<path fill-rule="evenodd" clip-rule="evenodd" d="M171.202 48.0647C170.818 48.2567 170.626 48.4487 170.146 48.4487C170.626 48.5447 171.01 48.4487 171.202 48.0647Z" fill="#DED5D5"/>
<path fill-rule="evenodd" clip-rule="evenodd" d="M166.786 47.2966C167.65 48.1607 168.418 48.7367 169.378 48.8327C170.242 48.9287 170.722 48.7367 171.394 48.4487C171.778 48.2567 172.162 47.9687 172.642 47.6807C172.066 47.8727 171.874 47.9687 171.394 48.2567C170.818 48.5447 170.434 48.7367 169.474 48.6407C168.418 48.5447 167.65 47.9687 166.786 47.2966Z" fill="black"/>
<path fill-rule="evenodd" clip-rule="evenodd" d="M172.354 47.1047C171.49 46.6246 171.106 46.4326 169.185 46.7207C168.417 46.9127 168.129 47.2007 169.089 47.3927C169.473 47.4887 170.145 47.7767 170.817 47.6807C171.297 47.5847 171.586 47.4887 172.066 47.4887C172.834 47.4887 173.602 47.7767 172.354 47.1047Z" fill="#F5BC95"/>
<path fill-rule="evenodd" clip-rule="evenodd" d="M170.337 46.4325C168.609 46.8166 166.209 45.8565 166.113 46.3365C166.017 46.5285 166.305 46.9126 167.265 47.4886C169.761 48.3527 169.761 48.1607 172.45 47.5846C172.066 47.5846 171.586 47.6806 171.01 47.7766C170.625 47.8726 169.665 47.5846 169.089 47.3926C168.225 47.1046 167.745 47.2006 167.745 46.9126C167.649 46.6246 168.417 47.0086 170.337 46.4325Z" fill="#C48C69"/>
<path fill-rule="evenodd" clip-rule="evenodd" d="M166.114 46.3366C165.826 46.9126 167.65 47.6807 168.034 47.8727C168.322 47.9687 169.762 48.3528 170.53 48.0647C169.666 47.9687 168.802 47.5847 168.322 47.4887C167.554 47.2967 166.786 47.1047 166.882 46.8166C166.882 46.6246 167.458 46.8166 168.61 46.7206C167.554 46.6246 166.21 46.0486 166.114 46.3366Z" fill="#996C50"/>
<path fill-rule="evenodd" clip-rule="evenodd" d="M173.026 47.6807C172.546 47.3926 172.066 47.6807 171.01 47.8727C170.53 47.9687 170.434 47.9687 170.05 47.9687C169.282 47.9687 168.994 47.6807 168.13 47.4886C167.554 47.3926 166.594 47.1046 166.306 46.9126C166.978 47.3926 167.65 47.5846 168.322 47.8727C169.09 48.1607 169.858 48.4487 170.818 48.1607C171.586 47.9687 172.354 47.6807 173.026 47.6807Z" fill="#785A46"/>
<path fill-rule="evenodd" clip-rule="evenodd" d="M166.306 46.9126C166.882 47.4886 167.554 47.6807 168.226 47.8727C168.994 48.1607 169.858 48.4487 170.818 48.1607C171.394 47.9687 171.97 47.7767 172.546 47.6807C172.162 47.6807 171.202 47.9687 170.338 48.0647C169.666 48.1607 169.09 47.8727 168.322 47.6807C167.746 47.4886 166.978 47.3926 166.306 46.9126Z" fill="black"/>
<path fill-rule="evenodd" clip-rule="evenodd" d="M166.785 47.2966C166.209 47.2966 165.729 47.2966 165.345 47.0085C165.729 47.3926 166.017 47.5846 167.073 47.4886L166.785 47.2966Z" fill="black"/>
<path fill-rule="evenodd" clip-rule="evenodd" d="M167.17 47.3926C166.786 47.4886 166.402 47.5846 166.018 47.4886C166.402 47.5846 166.786 47.6806 167.266 47.4886L167.17 47.3926Z" fill="black"/>
<path fill-rule="evenodd" clip-rule="evenodd" d="M167.361 47.4885C166.977 47.7765 166.497 47.8725 166.113 47.8725C166.497 47.9686 166.977 47.9686 167.457 47.5845L167.361 47.4885Z" fill="black"/>
<path fill-rule="evenodd" clip-rule="evenodd" d="M167.841 47.6805C167.553 47.9686 167.265 48.1606 166.881 48.2566C167.265 48.2566 167.649 48.0646 167.937 47.7765L167.841 47.6805Z" fill="black"/>
<path fill-rule="evenodd" clip-rule="evenodd" d="M167.554 47.6805C167.265 47.8726 166.977 48.0646 166.689 48.0646C167.073 47.9686 167.361 47.8726 167.554 47.6805Z" fill="black"/>
<path fill-rule="evenodd" clip-rule="evenodd" d="M168.13 47.7766C167.842 48.0646 167.554 48.2566 167.266 48.3526C167.65 48.2566 167.938 48.1606 168.226 47.7766C168.226 47.7766 168.226 47.7766 168.13 47.7766Z" fill="black"/>
<path fill-rule="evenodd" clip-rule="evenodd" d="M168.034 47.6805C167.842 47.8726 167.554 48.0646 167.362 48.1606C167.65 48.1606 167.842 47.9686 168.034 47.6805Z" fill="black"/>
<path fill-rule="evenodd" clip-rule="evenodd" d="M168.514 47.8726C168.322 48.1606 168.034 48.4486 167.842 48.5446C168.226 48.4486 168.418 48.2566 168.706 47.8726C168.61 47.9686 168.514 47.8726 168.514 47.8726Z" fill="black"/>
<path fill-rule="evenodd" clip-rule="evenodd" d="M168.322 47.8726C168.13 48.0646 167.938 48.2566 167.746 48.4486C168.034 48.2566 168.226 48.1606 168.322 47.8726C168.418 47.8726 168.418 47.8726 168.322 47.8726Z" fill="black"/>
<path fill-rule="evenodd" clip-rule="evenodd" d="M168.801 47.9686C168.609 48.2566 168.513 48.6407 168.609 48.8327C168.705 48.5447 168.801 48.2566 168.993 47.9686C168.897 48.0646 168.801 47.9686 168.801 47.9686Z" fill="black"/>
<path fill-rule="evenodd" clip-rule="evenodd" d="M168.61 47.9686C168.514 48.1606 168.322 48.5447 168.322 48.7367C168.418 48.5447 168.514 48.2566 168.61 47.9686Z" fill="black"/>
<path fill-rule="evenodd" clip-rule="evenodd" d="M169.09 48.0646C168.994 48.4486 168.994 48.8326 169.09 49.0246C169.09 48.7366 169.186 48.3526 169.282 48.1606C169.186 48.0646 169.09 48.0646 169.09 48.0646Z" fill="black"/>
<path fill-rule="evenodd" clip-rule="evenodd" d="M168.994 48.0646C168.898 48.3526 168.802 48.6406 168.802 48.8326C168.802 48.6406 168.802 48.3526 168.994 48.0646Z" fill="black"/>
<path fill-rule="evenodd" clip-rule="evenodd" d="M169.378 48.1606C169.378 48.5447 169.378 48.9287 169.57 49.0247C169.474 48.7367 169.474 48.3527 169.57 48.1606H169.378Z" fill="black"/>
<path fill-rule="evenodd" clip-rule="evenodd" d="M169.281 48.1606C169.185 48.5447 169.185 48.7367 169.377 49.0247C169.185 48.7367 169.281 48.4487 169.281 48.1606Z" fill="black"/>
<path fill-rule="evenodd" clip-rule="evenodd" d="M169.762 48.1605C169.762 48.5445 169.858 48.8326 170.05 49.0246C169.954 48.7366 169.954 48.4485 169.954 48.1605C169.858 48.2565 169.762 48.2565 169.762 48.1605Z" fill="black"/>
<path fill-rule="evenodd" clip-rule="evenodd" d="M169.57 48.1605C169.57 48.4485 169.57 48.8326 169.762 48.9286C169.666 48.7366 169.666 48.4485 169.57 48.1605C169.666 48.1605 169.666 48.1605 169.57 48.1605Z" fill="black"/>
<path fill-rule="evenodd" clip-rule="evenodd" d="M170.05 48.2565C170.05 48.5446 170.146 48.9286 170.338 49.0246C170.242 48.7366 170.146 48.4485 170.146 48.2565C170.146 48.1605 170.05 48.2565 170.05 48.2565Z" fill="black"/>
<path fill-rule="evenodd" clip-rule="evenodd" d="M169.954 48.2566C169.954 48.5446 169.954 48.8326 170.146 49.0246C170.05 48.7366 169.954 48.4486 169.954 48.2566Z" fill="black"/>
<path fill-rule="evenodd" clip-rule="evenodd" d="M170.338 48.1605C170.434 48.4485 170.53 48.8326 170.722 48.9286C170.53 48.7366 170.434 48.4485 170.434 48.1605C170.434 48.1605 170.434 48.1605 170.338 48.1605Z" fill="black"/>
<path fill-rule="evenodd" clip-rule="evenodd" d="M170.242 48.1605C170.242 48.4485 170.338 48.7366 170.53 48.9286C170.434 48.7366 170.338 48.4485 170.242 48.1605Z" fill="black"/>
<path fill-rule="evenodd" clip-rule="evenodd" d="M170.626 48.1605C170.722 48.4485 170.914 48.7366 171.106 48.8326C170.914 48.6406 170.818 48.3525 170.818 48.1605C170.722 48.1605 170.722 48.1605 170.626 48.1605Z" fill="black"/>
<path fill-rule="evenodd" clip-rule="evenodd" d="M170.53 48.1605C170.626 48.4485 170.722 48.7366 170.914 48.8326C170.818 48.6406 170.626 48.3525 170.53 48.1605Z" fill="black"/>
<path fill-rule="evenodd" clip-rule="evenodd" d="M171.01 48.0645C171.106 48.3525 171.298 48.6405 171.49 48.6405C171.298 48.4485 171.202 48.2565 171.106 47.9685C171.106 48.0645 171.01 48.0645 171.01 48.0645Z" fill="black"/>
<path fill-rule="evenodd" clip-rule="evenodd" d="M171.298 47.9686C171.394 48.2566 171.586 48.4486 171.778 48.4486C171.586 48.2566 171.49 48.0646 171.394 47.8726L171.298 47.9686Z" fill="black"/>
<path fill-rule="evenodd" clip-rule="evenodd" d="M171.202 48.0646C171.298 48.2566 171.394 48.4486 171.586 48.5446C171.49 48.3526 171.298 48.1606 171.202 48.0646Z" fill="black"/>
<path fill-rule="evenodd" clip-rule="evenodd" d="M171.682 47.8726C171.874 48.1606 171.97 48.3526 172.162 48.3526C171.97 48.1606 171.874 48.0646 171.778 47.8726H171.682Z" fill="black"/>
<path fill-rule="evenodd" clip-rule="evenodd" d="M171.49 47.9685C171.586 48.1605 171.778 48.4485 171.97 48.4485C171.778 48.2565 171.682 48.0645 171.49 47.9685Z" fill="black"/>
<path fill-rule="evenodd" clip-rule="evenodd" d="M171.97 47.7765C172.162 47.9686 172.258 48.0646 172.45 48.0646C172.354 47.9686 172.162 47.8726 172.066 47.6805C172.066 47.7765 172.066 47.7765 171.97 47.7765Z" fill="black"/>
<path fill-rule="evenodd" clip-rule="evenodd" d="M171.874 47.8726C171.97 48.0646 172.162 48.1606 172.258 48.2566C172.162 48.0646 172.066 47.9686 171.874 47.8726Z" fill="black"/>
<path fill-rule="evenodd" clip-rule="evenodd" d="M174.466 45.5685C175.234 45.1845 176.962 42.4963 177.634 43.5524C177.058 44.5125 176.866 46.3366 176.77 46.4326C176.674 47.3927 176.866 49.1208 177.442 50.6569C178.018 52.193 179.074 52.865 178.882 53.6331C178.786 54.3051 177.634 54.8812 175.906 54.4972C175.042 54.3051 174.754 54.5932 174.178 54.4972C173.698 54.4011 173.602 54.0171 173.602 53.7291C173.602 53.5371 173.794 53.4411 173.794 53.2491C174.082 50.4649 173.89 48.9288 174.466 45.5685Z" fill="#F1B287"/>
<path fill-rule="evenodd" clip-rule="evenodd" d="M176.674 47.2007C176.578 48.9288 176.482 50.5609 177.73 52.7691C177.922 53.1531 177.922 53.4411 177.826 53.6331C177.538 54.4012 176.29 54.2092 175.522 54.3052C175.906 54.4012 176.578 54.4972 177.058 54.4972C177.826 54.4972 178.69 54.1132 178.786 53.6331C178.882 53.2491 178.786 53.0571 178.402 52.481C176.77 50.0809 176.77 49.1208 176.674 47.2007Z" fill="#F5BC95"/>
<path fill-rule="evenodd" clip-rule="evenodd" d="M174.85 54.7853C175.234 54.6893 175.522 54.4972 176.002 54.4972C175.81 54.4012 175.33 54.2092 175.042 54.2092C174.466 54.2092 174.082 54.4972 173.698 54.2092C173.698 54.5933 174.562 54.8813 174.85 54.7853Z" fill="#DB9669"/>
<path fill-rule="evenodd" clip-rule="evenodd" d="M173.314 53.5371C173.122 52.481 174.37 51.905 175.042 52.8651C174.178 52.289 173.41 52.673 173.314 53.5371Z" fill="#E8A476"/>
<path fill-rule="evenodd" clip-rule="evenodd" d="M177.634 42.3043C177.154 43.1684 177.442 43.6484 177.634 43.5524C178.786 42.9764 180.226 41.4403 181.379 41.0563C181.475 40.8642 181.571 40.4802 181.571 40.2882C180.226 40.3842 178.114 41.9203 177.634 42.3043Z" fill="#572F0C"/>
<path fill-rule="evenodd" clip-rule="evenodd" d="M147.008 53.0571C151.04 65.442 154.784 73.2185 165.057 77.8268C159.009 73.5065 153.248 66.306 152 58.8175L147.008 53.0571Z" fill="#241304"/>
<path fill-rule="evenodd" clip-rule="evenodd" d="M180.994 31.8396C176.001 46.3366 161.408 45.3766 157.856 47.5847L156.896 52.7691L156.416 53.7291C150.176 50.5609 147.104 45.0886 147.104 39.3282C147.104 29.8235 154.688 20.0308 166.113 22.143C166.209 22.143 166.209 22.143 166.305 22.143C172.737 22.719 179.17 26.8473 180.994 31.8396Z" fill="#361D07"/>
<path fill-rule="evenodd" clip-rule="evenodd" d="M174.754 40.8643C178.882 38.6561 181.282 32.8957 180.898 31.5516C180.514 30.3996 179.554 29.1515 179.074 28.4794C176.578 25.3112 171.202 22.335 165.537 22.047C161.985 21.567 156.513 22.431 153.632 25.2152C157.377 23.3911 160.737 22.527 165.057 22.815C162.561 23.007 156.897 24.0631 154.208 27.6154C157.473 24.9272 161.505 23.6791 165.249 23.8711C161.121 24.6392 160.065 25.6952 157.473 27.9994C160.449 26.3673 163.425 25.0232 166.689 24.7352C163.617 25.7912 162.465 26.6553 160.353 29.3435C164.001 27.0393 164.289 26.0793 168.705 25.6952C167.169 26.5593 163.713 28.5754 161.889 30.7836C164.865 29.2475 167.457 28.0954 170.529 27.1353C168.513 28.4794 166.017 30.3035 164.673 31.8397C167.169 30.4956 169.281 29.1515 172.93 28.2874C169.569 30.3036 167.169 31.8397 164.577 34.8159C167.361 33.0877 169.761 31.4556 173.89 29.6315C171.586 31.8397 170.049 33.0877 167.745 35.2959C170.529 34.1438 174.37 31.6476 176.962 29.8235C174.946 31.7436 168.993 37.216 166.689 38.9441C169.377 37.6961 176.098 32.7037 178.114 30.8796C177.154 33.4718 174.85 36.1599 172.45 37.7921C176.098 36.544 177.634 34.7199 179.074 32.6077C179.074 34.8159 178.018 37.9841 174.754 40.8643Z" fill="#4A2B12"/>
<path fill-rule="evenodd" clip-rule="evenodd" d="M154.496 65.5379C155.648 63.9058 156.512 60.7376 156.896 57.7614C157.184 55.5532 157.184 53.5371 157.088 52.001C156.992 50.3689 156.896 49.3128 157.952 47.9687C159.104 46.6246 161.601 46.4326 164.673 45.5685C168.705 44.3204 173.505 42.8803 177.058 38.176C172.449 42.4003 165.345 43.3604 161.889 44.3204C161.793 43.9364 161.601 43.5524 161.505 43.1684L160.737 43.3604C161.985 42.0163 163.713 40.2882 165.345 38.368C163.233 39.6161 158.72 42.2083 158.144 43.0724C158.624 41.4402 161.889 37.408 163.137 35.9679C161.313 36.8319 157.856 39.4241 156.416 41.1522C157.184 38.9441 159.008 36.0639 160.545 34.0477C157.472 36.3519 156.128 38.368 154.4 40.9602C154.496 38.7521 157.76 34.0477 159.2 32.7036C156.608 34.3358 153.152 39.3281 151.904 42.5923C152.576 38.6561 155.072 33.8557 156.704 31.3596C154.784 32.7036 151.52 38.08 150.464 40.6722C151.424 36.7359 152.48 32.9917 154.304 29.8235C151.52 32.8957 149.504 36.4479 148.544 40.0001C148.544 36.5439 149.984 31.3596 151.424 27.9033C140.671 40.7682 146.336 57.3773 154.496 65.5379Z" fill="#241304"/>
<path fill-rule="evenodd" clip-rule="evenodd" d="M156.321 41.8244C153.152 40.1922 152.576 44.0325 152.768 46.3367C152.864 47.9688 154.208 48.0648 154.497 49.4089C154.785 50.945 155.841 51.905 156.897 52.0011C158.913 52.2891 158.145 49.1209 158.049 47.8728C158.529 46.0486 158.337 42.8804 156.321 41.8244Z" fill="#E8A476"/>
<path fill-rule="evenodd" clip-rule="evenodd" d="M156.321 41.8244C153.152 40.1922 152.576 44.0325 152.768 46.3367C152.864 47.9688 154.208 48.0648 154.497 49.4089C154.785 50.945 155.841 51.905 156.897 52.0011C156.993 50.849 155.841 51.137 155.457 49.4089C155.265 48.5448 156.129 40.9603 158.241 44.6085C157.953 43.4565 157.377 42.4004 156.321 41.8244Z" fill="#DB9669"/>
<path fill-rule="evenodd" clip-rule="evenodd" d="M157.089 46.6247C156.609 44.9926 156.609 42.8804 154.4 42.7844C156.225 43.1685 156.417 45.0886 157.089 46.6247Z" fill="#DB9669"/>
<path fill-rule="evenodd" clip-rule="evenodd" d="M147.584 109.317C154.017 106.533 159.873 104.037 165.825 100.676C168.513 99.1402 170.914 98.0842 173.698 96.8361C176.962 95.876 180.898 96.7401 182.626 97.0281C185.315 98.8522 190.691 102.212 192.227 104.997C192.611 105.765 192.227 107.685 191.651 108.069C191.363 108.261 190.787 108.261 189.827 108.069C187.907 107.589 186.179 106.821 184.547 106.629C182.722 106.437 178.882 106.725 176.482 106.245C175.234 105.957 174.082 105.093 173.218 104.709C168.417 107.013 165.825 111.237 161.601 114.693C157.665 117.958 153.44 120.262 147.392 122.374C145.856 123.622 143.936 125.35 142.016 125.158C140 124.87 138.847 122.566 137.887 119.59C137.407 118.15 137.023 116.613 136.639 114.981C135.679 110.085 135.583 105.285 134.911 98.5642C134.719 97.5081 134.815 96.4521 134.623 95.492C134.047 92.6118 133.759 90.6917 133.855 87.8115C133.951 79.1709 136.447 76.0027 140.864 76.2907C145.568 76.5787 147.968 79.7469 148.352 85.5073C149.216 94.4359 148.736 100.484 147.584 109.317Z" fill="#F1B287"/>
<path fill-rule="evenodd" clip-rule="evenodd" d="M147.584 109.317C154.016 106.533 159.872 104.037 165.825 100.676C168.513 99.1402 170.913 98.0841 173.697 96.836C176.962 95.876 180.898 96.74 182.626 97.0281C184.642 98.4682 188.194 100.676 190.499 102.884C192.035 104.325 191.939 106.533 191.171 106.245C189.634 105.573 183.97 102.692 182.434 102.212C180.898 101.732 178.402 101.252 173.409 100.292C164.289 104.709 145.471 118.534 143.839 117.669C142.495 116.997 140.479 103.364 142.783 94.4359C139.903 87.3314 139.903 79.4589 141.151 76.2906C145.855 76.5787 148.256 79.7469 148.64 85.5073C149.216 94.4359 148.736 100.484 147.584 109.317Z" fill="#F7C09C"/>
<path fill-rule="evenodd" clip-rule="evenodd" d="M146.72 120.838C152.192 118.342 158.817 113.349 163.137 109.989C165.537 108.069 170.049 104.421 172.833 103.077C173.794 103.461 175.234 104.901 176.866 105.189C180.322 105.957 183.394 105.285 184.546 105.477C185.986 105.957 188.291 106.725 190.019 107.397C191.075 107.781 191.843 107.877 191.747 108.069C191.459 108.261 190.883 108.261 189.923 108.069C188.002 107.589 186.274 106.821 184.642 106.629C182.818 106.437 178.978 106.725 176.578 106.245C175.33 105.957 174.178 105.093 173.314 104.709C168.513 107.013 165.921 111.237 161.697 114.693C157.76 117.958 153.536 120.262 147.488 122.374C145.952 123.622 144.031 125.35 142.111 125.158C140.095 124.87 138.943 122.566 137.983 119.59C137.503 118.15 137.119 116.613 136.735 114.981C135.775 110.085 135.679 105.285 135.007 98.5642C134.815 97.5082 134.911 96.4521 134.719 95.492C134.143 92.6118 133.855 90.6917 133.951 87.8115C134.047 80.515 135.871 77.1548 139.135 76.3867C136.639 81.2831 136.447 89.1556 138.751 94.724C137.599 104.037 139.135 113.829 139.999 119.59C140.671 122.95 142.591 122.758 146.72 120.838Z" fill="#E8A476"/>
<path fill-rule="evenodd" clip-rule="evenodd" d="M139.232 43.8406C139.52 41.6324 139.904 39.6163 140.384 38.4642L124.158 30.9757L120.702 29.0555C122.046 36.6401 120.51 40.3843 117.726 46.2407C119.742 52.2891 127.615 56.8974 132.319 57.0895C137.503 57.1855 141.152 54.6893 140.96 50.753C140.576 49.4089 138.559 47.0088 139.232 43.8406Z" fill="#E8A476"/>
<path fill-rule="evenodd" clip-rule="evenodd" d="M118.494 47.8728C125.599 44.4166 130.495 47.9688 139.136 45.8567C139.136 43.9366 139.616 41.2484 140.48 38.4642L124.255 30.9757L120.798 29.0555C122.143 36.6401 120.606 40.3843 117.822 46.2407C118.014 46.8168 118.206 47.2968 118.494 47.8728Z" fill="#DB9669"/>
<path fill-rule="evenodd" clip-rule="evenodd" d="M119.838 67.3621C116.286 62.5618 112.734 54.8812 113.694 47.9688C114.366 47.5847 117.918 45.3766 117.822 46.3366C117.342 52.3851 122.622 55.0732 128.863 58.5295L126.367 59.3935L119.838 67.3621Z" fill="#E2E9FA"/>
<path fill-rule="evenodd" clip-rule="evenodd" d="M119.07 43.3605C118.686 44.2245 118.398 44.8006 118.206 45.3766C117.15 49.0249 125.214 53.3452 129.823 58.1455L126.175 59.3936L121.374 65.25C117.63 59.1056 113.406 52.2891 115.23 47.2007C115.902 45.9527 117.534 44.4165 119.07 43.3605Z" fill="#EDF2FF"/>
<path fill-rule="evenodd" clip-rule="evenodd" d="M136.64 44.8006C134.912 43.3605 130.111 39.5203 128.575 37.9842C125.311 34.7199 127.327 30.8797 123.967 26.2714C120.703 23.4872 120.607 21.375 120.511 19.0709C120.319 13.6945 123.103 8.31813 127.423 5.62995C131.264 3.22978 135.392 2.94176 139.808 4.38186C148.065 7.07005 151.521 14.0785 150.945 21.375C150.945 21.759 151.233 22.1431 151.233 22.5271C151.233 23.1991 151.137 23.7752 150.849 24.3512C150.177 25.8873 150.273 25.2153 150.081 26.2714C149.793 27.6154 150.465 28.7675 150.177 30.4956C149.601 33.2798 148.737 34.9119 147.681 37.9842C147.297 39.0402 146.721 40.2883 146.433 41.4404C145.953 43.4565 145.569 44.3206 145.185 44.5126C144.512 44.9926 143.744 45.1847 142.88 45.3767C141.344 45.7607 139.712 45.8567 138.944 45.5687C138.08 45.4727 137.312 45.1847 136.64 44.8006Z" fill="#F1B287"/>
<path fill-rule="evenodd" clip-rule="evenodd" d="M151.136 22.9111C151.136 23.4872 151.04 23.9672 150.848 24.4472C150.272 25.7913 150.368 25.3113 150.176 26.3674C149.888 27.7115 150.656 28.5755 150.272 30.2076C149.792 32.7038 149.312 33.6639 148.256 36.064C148.064 35.584 147.392 35.68 147.104 35.872C146.336 36.16 145.856 36.4481 145.088 36.352C144.992 36.352 144.896 36.5441 144.896 36.8321C144.896 36.9281 144.896 37.0241 144.896 37.0241C144.896 37.0241 144.8 37.0241 144.8 36.8321C144.8 36.6401 144.704 36.352 144.512 36.256C144.416 36.256 144.128 36.3521 144.032 36.4481C143.84 36.5441 143.84 36.9281 143.744 37.2161C143.744 37.5041 143.648 37.5041 143.552 37.2161C143.456 36.7361 143.072 36.16 142.592 36.064C142.016 35.872 141.152 35.68 140.768 34.9119C142.784 33.7599 142.016 34.3359 144.32 34.9119C145.28 35.104 146.528 35.2 146.432 34.0479C146.24 32.4158 145.376 30.5917 145.28 29.0556C145.184 27.0394 145.856 26.1754 147.2 25.2153C148.928 25.3113 150.08 24.3512 151.136 22.9111Z" fill="#E8A476"/>
<path fill-rule="evenodd" clip-rule="evenodd" d="M136.64 44.8006C134.912 43.3605 130.111 39.5203 128.575 37.9842C125.311 34.7199 127.327 30.8797 123.967 26.2714C120.703 23.4872 120.607 21.375 120.511 19.0709C120.319 13.6945 123.103 8.31813 127.423 5.62995C131.264 3.22978 135.392 2.94176 139.808 4.38186C139.904 4.38186 140.096 4.47787 140.192 4.47787C147.297 6.97404 150.753 12.0624 151.041 18.3988C149.889 19.0709 141.728 19.6469 135.584 18.6868C132.8 19.9349 133.376 22.2391 135.584 24.4472C136.448 25.3113 136.448 25.7913 136.064 26.0793C135.488 26.5594 133.952 26.6554 133.088 27.1354C132.128 27.6154 131.744 28.8635 132.32 29.7276C133.28 31.1677 135.392 32.7998 136.064 33.3758C137.696 35.104 137.792 37.8881 137.6 39.7123C137.312 42.1124 137.6 45.2807 141.536 45.6647C140.48 45.7607 139.616 45.7607 139.04 45.6647C138.08 45.4727 137.312 45.1847 136.64 44.8006Z" fill="#E8A476"/>
<path fill-rule="evenodd" clip-rule="evenodd" d="M148.64 16.4787C149.6 16.7667 150.848 16.5747 150.944 18.7828C151.328 15.4226 150.56 14.8465 148.736 13.8865L148.64 16.4787Z" fill="#361D07"/>
<path fill-rule="evenodd" clip-rule="evenodd" d="M135.199 17.0547C129.247 14.5585 123.871 8.22211 123.103 4.95789C117.822 10.4303 115.902 19.3589 119.454 26.1753C121.279 30.3036 121.183 32.4158 120.991 35.776C122.527 33.6638 123.103 32.8958 124.159 30.4956L126.847 24.5432L127.231 24.2552C127.327 25.1193 127.711 27.1354 127.807 27.9995C128.191 28.0955 128.959 27.7114 129.631 27.6154C130.207 21.663 131.647 18.3028 135.199 17.0547Z" fill="#361D07"/>
<path fill-rule="evenodd" clip-rule="evenodd" d="M135.488 17.0547C139.808 18.0147 146.048 18.3028 150.561 16.6707C150.849 16.5746 151.041 16.2866 151.137 15.8066C150.945 10.6222 145.184 4.66983 142.784 3.03772C141.056 1.88564 139.136 0.925574 136.928 0.445541C131.455 -0.706537 124.831 0.253528 123.199 4.76584C122.815 7.55003 130.015 15.9026 135.488 17.0547Z" fill="#361D07"/>
<path fill-rule="evenodd" clip-rule="evenodd" d="M135.776 16.9586C142.4 18.3987 151.713 18.0147 156.417 14.1744C150.369 13.2144 146.433 2.55763 137.024 0.541489C131.552 -0.61059 124.927 0.349475 123.295 4.86178C124.159 7.74198 130.207 15.7105 135.776 16.9586Z" fill="#361D07"/>
<path fill-rule="evenodd" clip-rule="evenodd" d="M135.392 17.1507C142.016 18.5908 151.617 18.0147 156.321 14.1744C156.321 14.1744 156.321 14.1744 156.225 14.1744C149.601 15.3265 144.896 13.8864 140.288 11.4863C141.056 11.4863 141.824 11.4863 142.88 11.1022C137.984 9.85416 134.624 9.0861 131.167 5.24584C131.935 5.82188 133.28 6.30191 134.432 6.49393C132.127 5.14983 130.399 2.46165 126.559 1.50159C124.927 2.26964 123.583 3.51772 123.007 5.24584C123.775 8.22204 129.919 15.9026 135.392 17.1507Z" fill="#241304"/>
<path fill-rule="evenodd" clip-rule="evenodd" d="M122.815 5.53381C121.951 6.49388 119.839 9.18207 119.455 11.5822C120.415 10.3341 121.183 9.18207 122.719 8.51002C120.799 10.2381 119.743 12.7343 119.743 15.9985C120.607 13.3103 121.375 11.9663 123.679 11.0062C121.471 13.2143 120.511 18.2067 120.607 20.5108C121.759 17.5346 123.295 13.5984 126.079 13.5024C123.871 15.5185 123.679 16.8626 123.775 19.5508C124.831 16.9586 126.175 15.7105 128.287 15.2305C127.615 17.7266 126.943 22.431 128.671 25.3112C128.767 24.2551 129.535 17.4386 131.071 16.9586C130.399 18.2067 130.207 19.0707 130.303 20.1268C130.975 18.7827 132.127 17.7266 134.144 17.1506C129.247 15.4225 123.199 8.318 122.815 5.53381Z" fill="#4A2B12"/>
<path fill-rule="evenodd" clip-rule="evenodd" d="M127.711 0.82956C130.975 -0.418525 135.871 -0.0345 139.04 1.11758C141.824 2.07764 144.128 4.09378 146.432 5.43787C145.568 5.34187 145.28 5.24586 144.416 4.86184C148.448 7.45401 150.945 12.5424 156.129 14.0785C153.825 13.9825 151.617 13.1184 150.176 11.9663C150.945 12.6384 151.233 13.2144 152.097 13.7904C147.008 12.6384 144.608 8.99012 140.672 6.01391C140.96 6.68596 141.536 7.55002 142.88 8.51009C138.464 6.20593 135.199 1.02157 127.711 0.82956Z" fill="#4A2B12"/>
<path fill-rule="evenodd" clip-rule="evenodd" d="M125.599 21.855C122.43 20.0308 121.566 23.9671 121.662 26.4633C121.662 28.1914 123.102 28.2874 123.294 29.7275C123.582 31.3596 124.638 32.3197 125.695 32.5117C127.807 32.8957 127.135 29.5355 127.135 28.1914C127.711 26.2713 127.615 23.0071 125.599 21.855Z" fill="#E8A476"/>
<path fill-rule="evenodd" clip-rule="evenodd" d="M122.526 25.1192C122.91 22.815 123.39 22.719 124.158 22.623C125.215 22.623 126.175 25.0232 126.079 25.7912C125.599 25.5032 124.927 25.1192 124.446 25.5992C124.831 25.5992 125.119 25.6952 125.407 25.9833C125.695 26.1753 125.791 26.5593 126.271 26.6553C126.463 26.4633 126.367 25.6952 126.367 25.4072C126.175 23.9671 125.407 22.239 124.158 22.335C123.39 22.431 122.526 22.815 122.526 25.1192Z" fill="#DB9669"/>
<path fill-rule="evenodd" clip-rule="evenodd" d="M125.407 28.2874C125.311 27.9034 125.695 27.3273 125.119 26.8473C125.791 27.0393 126.079 27.3273 126.175 27.7113C126.271 28.1914 126.175 28.5754 126.079 28.6714C125.983 28.7674 125.503 29.0554 125.407 28.2874Z" fill="#DB9669"/>
<path fill-rule="evenodd" clip-rule="evenodd" d="M142.784 26.3673C140.384 26.7513 138.656 26.0793 136.448 25.2152C135.392 25.7912 134.624 26.3673 133.472 26.7513L132.992 27.0393C134.336 27.1353 134.816 27.0393 135.68 26.6553C136.544 26.2713 136.256 26.2713 137.216 26.6553C138.176 27.0393 139.904 26.6553 140 27.3274C140 27.5194 137.984 28.7675 136.16 28.0954C136.544 29.0555 137.504 29.3435 138.272 29.2475C138.656 29.2475 139.04 29.1515 139.424 29.0555C140.192 28.7675 140.768 28.3834 141.056 28.2874C141.248 28.2874 141.152 28.3834 141.344 28.4794C142.016 28.4794 142.784 27.0393 142.784 26.3673Z" fill="#E8A476"/>
<path fill-rule="evenodd" clip-rule="evenodd" d="M143.36 25.8872C142.784 26.5593 142.496 27.0393 141.631 26.9433C140.383 26.8473 138.463 26.3673 137.503 25.9833C136.351 25.5992 136.831 25.4072 135.679 26.0793C134.719 26.6553 134.239 26.7513 133.087 26.8473C134.335 26.1753 135.391 25.4072 136.543 24.6392C137.791 24.9272 138.943 25.1192 140.095 25.3112C140.671 25.4072 141.247 25.4072 141.92 25.5992C142.112 25.5992 141.823 25.5032 141.439 25.4072C141.727 25.4072 142.976 25.5032 143.36 25.8872Z" fill="#361D07"/>
<path fill-rule="evenodd" clip-rule="evenodd" d="M149.697 26.9433L150.273 25.9833C148.353 27.2314 147.585 26.7513 147.777 26.2713C147.969 25.9833 150.273 24.9272 150.753 24.5432C151.041 24.2552 151.425 23.1031 151.233 22.8151L147.009 25.2152C144.896 27.8074 145.281 27.8074 145.665 30.9756C145.857 30.1116 145.857 28.7675 146.145 28.0954C146.145 27.9994 148.737 28.0954 149.697 26.9433Z" fill="#DB9669"/>
<path fill-rule="evenodd" clip-rule="evenodd" d="M135.007 27.4233C135.871 28.3834 136.639 28.9594 137.695 29.1515C138.56 29.2475 139.136 29.1515 139.808 28.7674C140.288 28.5754 140.672 28.2874 141.056 28.0954C139.808 28.1914 139.136 28.6714 137.695 28.4794C136.735 28.2874 135.199 27.4233 135.007 27.4233Z" fill="#DED5D5"/>
<path fill-rule="evenodd" clip-rule="evenodd" d="M139.616 28.1914C139.52 28.6714 139.04 28.9595 138.56 29.0555C137.887 29.1515 137.023 28.8635 137.023 28.3834C138.08 28.5754 139.136 28.2874 139.616 28.1914Z" fill="#031D30"/>
<path fill-rule="evenodd" clip-rule="evenodd" d="M139.424 28.3834C139.04 28.5754 138.752 28.7675 138.271 28.7675C138.752 28.9595 139.04 28.8635 139.424 28.3834Z" fill="#DED5D5"/>
<path fill-rule="evenodd" clip-rule="evenodd" d="M135.007 27.4233C135.871 28.3834 136.639 28.9594 137.695 29.1515C138.56 29.2475 139.136 29.1515 139.808 28.7674C140.288 28.5754 140.672 28.2874 141.056 28.0954C140.48 28.2874 140.288 28.3834 139.712 28.6714C139.136 28.9594 138.656 29.1515 137.695 28.9594C136.735 28.7674 135.871 28.1914 135.007 27.4233Z" fill="#C2845B"/>
<path fill-rule="evenodd" clip-rule="evenodd" d="M140.96 27.9994C140.768 27.9994 140.384 27.9994 140.096 28.0954C139.328 28.1914 138.368 28.3835 137.888 28.3835C137.119 28.3835 135.967 27.8074 135.103 27.3274H135.007V27.4234C136.255 28.3835 137.503 29.0555 139.328 28.5755C139.616 28.4795 139.904 28.3835 140.192 28.2875C140.384 28.1915 140.672 28.0954 140.96 27.9994C141.056 28.0954 141.056 27.9994 140.96 27.9994Z" fill="#704A31"/>
<path fill-rule="evenodd" clip-rule="evenodd" d="M149.985 26.4633C149.793 26.4633 149.12 26.8473 148.64 26.9433C147.968 27.1353 147.296 26.9433 146.816 26.8473C146.72 26.8473 146.528 26.8473 146.528 26.8473C146.528 26.9433 146.624 26.9433 146.72 26.9433C146.816 26.9433 146.816 26.9433 146.912 27.0393C147.2 27.2313 147.488 27.4233 147.776 27.4233C148.544 27.6153 149.505 27.2313 149.889 26.6553C149.889 26.7513 149.985 26.4633 149.985 26.4633Z" fill="#DED5D5"/>
<path fill-rule="evenodd" clip-rule="evenodd" d="M147.489 27.0394C147.585 27.3274 147.777 27.5194 147.969 27.6154C148.353 27.7114 149.025 27.6154 149.313 27.3274C149.697 27.0394 149.889 26.5593 149.889 26.3673C149.121 26.9433 148.545 27.1354 147.489 27.0394Z" fill="#062E4A"/>
<path fill-rule="evenodd" clip-rule="evenodd" d="M149.889 26.6553C149.697 27.1353 149.313 27.5193 148.833 27.6153C148.545 27.7113 148.065 27.7113 147.777 27.6153C147.489 27.5193 147.201 27.3273 146.913 27.1353C146.817 27.0393 146.625 27.0393 146.625 27.0393C146.625 27.0393 146.817 27.0393 147.009 27.1353C147.297 27.3273 147.585 27.5193 147.873 27.5193C148.161 27.6153 148.545 27.6153 148.929 27.5193C149.313 27.4233 149.697 27.0393 149.889 26.6553Z" fill="#C2845B"/>
<path fill-rule="evenodd" clip-rule="evenodd" d="M150.273 26.1753C150.177 26.3673 150.081 26.5593 149.985 26.6553C149.409 27.3274 147.105 27.4234 146.433 26.9433C147.393 26.8473 148.161 27.0393 148.929 26.8473C149.313 26.7513 149.793 26.4633 150.273 26.1753C150.273 26.0793 150.177 26.0793 150.273 26.1753Z" fill="#704A31"/>
<path fill-rule="evenodd" clip-rule="evenodd" d="M135.008 27.3274H134.912C135.008 27.4234 134.72 27.4234 134.432 27.4234C134.816 27.6154 134.912 27.5194 135.296 27.6154C135.2 27.7114 135.008 27.7114 134.72 27.8074C135.104 27.9034 135.2 27.9034 135.584 27.8074C135.392 27.9034 135.392 27.9994 135.104 27.9994C135.392 28.0954 135.584 28.0954 135.872 27.9994C136.064 28.0954 135.776 28.2875 135.488 28.3835C135.968 28.3835 136.064 28.3835 136.256 28.1914C136.16 28.3835 136.064 28.4795 135.872 28.5755C136.256 28.5755 136.448 28.1915 136.448 28.2875C136.352 28.5755 136.256 28.6715 136.064 28.8635C136.352 28.7675 136.544 28.4795 136.64 28.3835C136.64 28.4795 136.448 28.7675 136.544 29.0555C136.64 28.6715 136.832 28.3835 136.928 28.3835C136.832 28.5755 136.832 28.7675 136.928 29.0555C136.928 28.6715 137.024 28.3835 137.216 28.3835C137.216 28.5755 137.12 28.6715 137.312 29.0555C137.216 28.7675 137.312 28.3835 137.504 28.4795C137.504 28.7675 137.6 28.8635 137.696 29.0555C137.6 28.6715 137.696 28.4795 137.792 28.4795C137.792 28.6715 137.792 28.7675 138.08 29.0555C137.888 28.7675 137.984 28.4795 138.08 28.4795C138.08 28.5755 138.08 28.7675 138.368 28.9595C138.272 28.6715 138.176 28.5755 138.368 28.4795C138.464 28.6715 138.464 28.7675 138.752 28.8635C138.56 28.6715 138.56 28.4795 138.752 28.3835C138.848 28.5755 138.944 28.6715 139.136 28.7675C138.944 28.5755 139.04 28.4795 139.04 28.3835C139.136 28.5755 139.136 28.5755 139.424 28.6715C139.136 28.3835 139.232 28.2875 139.328 28.2875C139.328 28.3835 139.424 28.4795 139.616 28.5755C139.52 28.4795 139.424 28.3835 139.52 28.3835C139.52 28.3835 139.712 28.5755 139.808 28.4795C139.712 28.3835 139.712 28.2875 139.808 28.2875C139.904 28.3835 139.904 28.3835 140.096 28.4795C139.904 28.3835 139.904 28.2875 140 28.2875C140 28.3835 140.096 28.3835 140.288 28.4795C140.192 28.3835 140.096 28.2875 140.288 28.2875C140.288 28.2875 140.48 28.2875 140.576 28.2875C140.576 28.1915 140.768 28.1914 140.864 28.1914L140.192 28.2875L138.944 28.4795C136.928 28.7675 137.216 28.6715 135.392 27.9034L135.008 27.3274Z" fill="#704A31"/>
<path fill-rule="evenodd" clip-rule="evenodd" d="M150.177 26.0792C150.273 26.0792 150.369 26.1752 150.657 26.0792C150.465 26.1752 150.369 26.1752 150.177 26.1752C150.081 26.2712 150.369 26.3672 150.561 26.2712C150.369 26.3672 150.177 26.3672 150.081 26.3672C150.081 26.3672 150.177 26.4632 150.369 26.5593C150.177 26.5593 150.177 26.5593 149.985 26.4633C149.985 26.4633 150.081 26.6553 150.273 26.6553C150.081 26.6553 149.889 26.5593 149.889 26.5593C149.889 26.6553 150.081 26.7513 150.177 26.7513C149.985 26.7513 149.793 26.7513 149.793 26.6553C149.697 26.5593 149.697 26.6553 149.793 26.6553C149.793 26.7513 149.889 26.8473 150.081 26.8473C149.697 26.8473 149.601 26.6553 149.601 26.6553C149.601 26.7513 149.601 26.8473 149.889 27.0393C149.601 26.9433 149.601 26.9433 149.409 26.8473C149.409 26.9433 149.505 27.1353 149.601 27.2313C149.409 27.1353 149.409 27.0393 149.313 26.8473C149.313 26.9433 149.313 27.1353 149.313 27.3273C149.313 27.1353 149.217 26.8473 149.121 26.9433C149.121 27.0393 149.121 27.3273 149.121 27.3273C149.121 27.1353 149.025 26.9433 148.929 26.9433C148.929 27.0393 148.929 27.1353 148.833 27.4233C148.833 27.2313 148.737 27.0393 148.737 27.0393C148.737 27.0393 148.737 27.0393 148.641 27.0393C148.737 27.1353 148.641 27.2313 148.545 27.4233C148.545 27.1353 148.545 27.0393 148.353 27.0393C148.353 27.1353 148.353 27.2313 148.161 27.4233C148.257 27.2313 148.257 26.9433 148.065 27.0393C148.065 27.1353 148.065 27.2313 147.873 27.4233C147.969 27.2313 147.969 27.1353 147.873 27.0393C147.873 27.0393 147.873 27.2313 147.681 27.3273C147.777 27.0393 147.681 26.9433 147.681 26.9433C147.681 27.0393 147.681 27.1353 147.489 27.3273C147.585 27.2313 147.585 26.9433 147.489 26.9433C147.489 27.0393 147.392 27.2313 147.296 27.2313C147.392 27.0393 147.296 26.9433 147.296 26.9433C147.296 27.0393 147.296 27.1353 147.2 27.2313C147.296 27.1353 147.2 26.9433 147.2 26.9433C147.2 27.0393 147.104 27.1353 147.008 27.1353C147.104 27.0393 147.104 26.9433 147.008 26.8473C147.008 26.9433 146.912 27.0393 146.816 27.1353C147.008 26.7513 146.624 26.8473 146.528 26.7513L146.336 26.6553L147.296 26.7513C148.833 26.7513 148.737 26.8473 150.081 26.0792H150.177Z" fill="#704A31"/>
<path fill-rule="evenodd" clip-rule="evenodd" d="M143.744 35.296C142.976 35.104 141.728 35.872 140.864 34.9119C140.384 34.3359 142.496 33.6639 143.744 35.296Z" fill="#DB9669"/>
<path fill-rule="evenodd" clip-rule="evenodd" d="M147.2 25.5033C145.184 27.6154 145.28 29.3436 146.432 32.7998C146.72 33.6639 147.104 34.7199 147.104 35.0079C147.008 35.488 146.24 35.968 145.568 36.064C144.416 36.16 144.032 35.1039 142.688 34.9119C142.496 34.9119 142.208 34.9119 142.016 34.9119C141.248 34.9119 140.48 35.2 140.48 34.1439C140.48 33.6639 140.768 33.1838 141.152 32.7998C141.536 32.5118 142.208 32.4158 142.976 32.7998C143.168 29.3436 143.456 26.7514 147.2 25.5033Z" fill="#F1B287"/>
<path fill-rule="evenodd" clip-rule="evenodd" d="M146.048 27.0393C145.088 28.6714 145.472 30.2075 146.336 32.7997C146.624 33.6638 147.008 34.6238 147.008 34.9118C146.912 35.3919 146.24 35.8719 145.568 35.8719C144.8 35.9679 144.224 35.3919 143.648 35.0079C145.28 35.4879 146.24 35.0078 145.952 33.9518C144.608 29.4395 145.664 27.3273 146.048 27.0393Z" fill="#F5BC95"/>
<path fill-rule="evenodd" clip-rule="evenodd" d="M146.912 26.0793C147.393 26.1753 147.969 25.8873 148.449 25.5993C149.313 25.1193 149.889 24.8312 150.465 24.3512C150.657 24.1592 150.849 24.0632 151.041 23.8712C151.521 23.3912 151.329 22.6231 151.137 22.1431C150.657 22.7191 150.657 22.7191 150.081 23.1991C149.505 23.5832 149.121 23.7752 148.737 23.9672C148.257 24.1592 147.777 24.3512 147.008 24.7352C147.2 24.6392 147.2 24.5432 147.393 24.4472C146.912 24.5432 146.432 24.9273 146.336 25.0233C146.336 25.3113 146.336 25.9833 146.912 26.0793Z" fill="#361D07"/>
<path fill-rule="evenodd" clip-rule="evenodd" d="M143.36 38.9443L140.768 39.0403L139.04 38.8483C139.328 39.4243 140 40.4804 141.152 41.0564C141.248 41.1524 144.224 41.0564 144.224 41.0564C145.184 40.6724 145.76 40.8644 145.952 40.2884C146.048 40.0963 146.336 39.4243 146.432 38.8483L146.144 38.4642L143.36 38.9443Z" fill="#5E3920"/>
<path fill-rule="evenodd" clip-rule="evenodd" d="M146.528 38.0802C146.528 38.2722 146.432 38.6562 146.336 38.8483C146.048 39.7123 142.112 40.0963 141.632 39.7123L141.44 39.6163C141.056 39.8083 140.576 39.4243 140.096 39.0403H141.248C143.36 38.9443 143.936 38.7522 146.528 38.0802Z" fill="#EBD3C3"/>
<path fill-rule="evenodd" clip-rule="evenodd" d="M138.848 38.7522C139.424 40.0003 140.864 42.5925 143.072 42.6885C145.857 42.7845 146.337 40.2883 146.049 39.9043C146.049 40.0003 145.953 40.0963 145.857 40.0963C145.761 40.0963 145.569 40.1923 145.377 40.2883C144.993 40.4803 144.897 40.6723 144.513 40.6723C144.032 40.6723 143.072 40.4803 142.112 40.6723C141.248 40.8643 140.288 40.2883 139.904 39.8083C139.712 39.5203 139.232 39.0402 138.848 38.7522Z" fill="#F1B287"/>
<path fill-rule="evenodd" clip-rule="evenodd" d="M140.288 41.2484C140.768 41.7284 141.632 42.3045 142.016 42.4005C142.88 42.5925 143.552 42.2085 144.032 42.1125C144.512 42.0165 144.416 42.4965 145.184 42.1125C145.376 42.0165 145.76 41.5364 145.76 41.3444C145.376 42.6885 144.608 43.2645 143.744 43.4566C142.592 43.5526 141.056 42.3045 140.288 41.2484Z" fill="#E8A476"/>
<path fill-rule="evenodd" clip-rule="evenodd" d="M146.144 37.7921C145.856 37.7921 145.472 38.0801 144.992 38.1761C144.224 38.0801 143.84 38.0801 143.264 38.2721C140.96 38.9442 139.615 38.6562 138.463 38.5602C138.559 38.8482 140.095 39.2322 141.152 39.2322C141.728 39.2322 142.688 39.0402 143.456 38.9442C143.936 38.8482 144.416 38.9442 144.8 38.9442C145.184 38.8482 145.856 38.6562 146.144 38.5602C146.624 38.4642 146.624 38.5602 146.816 38.4642C146.72 38.0801 146.624 37.7921 146.144 37.7921Z" fill="#DB9669"/>
<path fill-rule="evenodd" clip-rule="evenodd" d="M139.616 36.5441C138.176 37.1201 137.024 37.5041 138.08 39.7123C137.408 37.8882 138.464 37.3121 139.616 36.5441Z" fill="#E8A476"/>
<path fill-rule="evenodd" clip-rule="evenodd" d="M126.367 103.269C118.686 102.885 116.382 115.557 118.782 118.054C125.023 120.646 131.455 105.861 126.367 103.269Z" fill="#D3DBED"/>
<path fill-rule="evenodd" clip-rule="evenodd" d="M106.109 96.4521C103.037 105.765 100.829 112.773 111.486 115.653L121.854 101.156C114.75 97.4122 114.078 97.6042 106.109 96.4521Z" fill="#EDF2FF"/>
<path fill-rule="evenodd" clip-rule="evenodd" d="M96.1245 62.3698C94.3004 71.9705 97.3726 90.2117 100.061 102.117C101.405 108.165 102.941 112.869 108.125 113.445C113.022 114.021 116.286 108.645 116.382 103.557C116.574 97.6042 116.094 90.4037 115.71 78.0189C115.422 68.1302 109.277 60.3537 103.709 58.4336C100.445 57.3775 96.9886 57.6655 96.1245 62.3698Z" fill="#EDF2FF"/>
<path fill-rule="evenodd" clip-rule="evenodd" d="M105.149 59.2976C106.205 72.8345 106.493 89.7317 109.661 102.981L116.286 97.8923C116.286 93.86 115.998 89.9237 115.998 86.6595C115.902 71.9705 113.598 64.1939 105.149 59.2976Z" fill="#F7F9FF"/>
<path fill-rule="evenodd" clip-rule="evenodd" d="M96.1245 62.3698C94.3004 71.9704 97.3726 90.2117 100.061 102.116C101.405 108.165 102.941 112.869 108.125 113.445C111.582 113.829 114.174 111.333 115.518 107.973C113.598 108.069 111.678 107.973 109.853 107.877C108.221 107.781 107.261 107.973 106.781 104.325C104.573 88.0995 102.749 74.1786 102.653 58.0495C99.6768 57.4734 96.8926 58.2415 96.1245 62.3698Z" fill="#E2E9FA"/>
<path fill-rule="evenodd" clip-rule="evenodd" d="M142.304 113.349C131.551 109.221 126.462 103.845 119.358 100.868C116.574 99.7164 110.525 115.365 111.869 115.749C122.526 118.822 132.895 119.302 142.88 122.566L147.488 114.597C145.856 114.597 143.84 113.925 142.304 113.349Z" fill="#E8A476"/>
<path fill-rule="evenodd" clip-rule="evenodd" d="M152.768 129.862C156.129 129.574 161.313 127.462 163.809 126.31C165.249 125.638 166.017 117.382 166.017 116.998C164.193 117.19 157.089 118.534 155.169 118.63C152.96 117.67 145.856 114.597 143.552 113.637L140.96 118.054L140.288 121.798C141.056 121.99 142.688 122.854 142.88 122.95C146.144 124.774 148.928 128.422 152.768 129.862Z" fill="#E8A476"/>
<path fill-rule="evenodd" clip-rule="evenodd" d="M115.23 111.621C112.446 110.469 110.525 115.365 111.87 115.845C120.606 118.342 129.151 119.11 137.503 121.126C139.519 121.606 141.152 122.086 142.976 123.046C146.144 124.774 148.928 128.422 152.768 129.862C153.92 129.766 155.36 124.774 154.688 121.99C153.248 121.414 146.432 119.014 143.552 117.766C141.728 116.901 119.454 112.581 115.23 111.621Z" fill="#DB9669"/>
<path fill-rule="evenodd" clip-rule="evenodd" d="M154.976 119.686C158.336 119.398 163.137 118.438 165.537 117.574C166.209 117.382 166.209 116.709 165.537 116.421C165.057 116.133 164.481 116.325 163.041 116.421C161.217 116.613 156.704 117.382 154.784 117.478C153.152 116.805 152.384 114.213 149.888 113.733C149.12 113.637 147.008 114.213 144.896 113.541C140.959 112.293 135.007 109.221 134.239 109.029C138.079 112.005 142.879 113.253 146.624 115.461C149.504 117.19 152.192 118.534 154.976 119.686Z" fill="#F1B287"/>
<path fill-rule="evenodd" clip-rule="evenodd" d="M157.569 116.806C157.761 119.59 153.632 117.958 152.672 117.382C151.808 117.19 145.472 114.885 146.72 114.597C147.872 114.309 149.6 113.445 151.808 114.309C153.152 114.789 153.152 115.365 154.592 115.941C155.648 116.229 156.321 116.517 157.569 116.806Z" fill="#F1B287"/>
<path fill-rule="evenodd" clip-rule="evenodd" d="M142.784 113.061C133.951 108.549 127.135 103.941 119.646 101.156L116.19 106.725C122.91 108.357 132.895 111.909 147.104 115.557L147.488 114.597C145.856 114.597 144.224 113.829 142.784 113.061Z" fill="#F1B287"/>
<path fill-rule="evenodd" clip-rule="evenodd" d="M99.2925 97.8922C100.157 101.924 101.021 105.381 101.693 107.877C102.941 112.485 103.901 112.389 107.165 113.829C108.413 114.405 109.661 115.173 111.389 115.653L119.838 100.292C115.422 97.3161 109.469 109.125 108.701 108.069C107.453 106.437 107.357 103.365 105.437 96.9321C103.901 96.6441 101.981 98.2762 99.2925 97.8922Z" fill="#E2E9FA"/>
<path fill-rule="evenodd" clip-rule="evenodd" d="M126.367 103.269C120.798 104.229 117.726 115.077 118.782 118.054C114.75 117.574 113.31 116.998 109.565 115.365C110.237 109.029 114.27 102.885 118.11 100.004C120.03 99.9084 121.95 100.676 126.367 103.269Z" fill="#F7F9FF"/>
</svg>
