<svg width="33" height="115" viewBox="0 0 33 115" fill="none" xmlns="http://www.w3.org/2000/svg">
<path d="M17.5078 111.062C17.2407 110.226 16.7732 108.631 16.5729 106.276C16.3726 103.997 16.5061 101.034 16.9736 97.7679C17.1739 96.0967 17.441 94.3495 17.7081 92.5263C17.9752 90.7031 18.1756 88.728 18.1756 86.6769C18.2423 82.6507 17.7749 78.4726 17.1071 74.2945C16.7732 72.2434 16.5061 70.1924 16.1722 68.1413C15.9051 66.0902 15.638 64.1151 15.5045 62.14C15.2374 58.1898 15.1038 54.3915 15.1038 51.049C15.1038 44.364 15.638 39.2743 15.7716 37.5271C15.9719 34.9443 15.9719 34.5645 15.9051 34.5645C15.8384 34.5645 15.7048 34.7924 15.3041 37.5271C15.1038 39.2743 14.5028 44.364 14.436 51.125C14.436 54.4675 14.5696 58.2658 14.9035 62.2919C15.037 64.267 15.3041 66.3181 15.5712 68.3692C15.8384 70.4203 16.1722 72.4713 16.5061 74.5224C17.1071 78.6246 17.6413 82.8027 17.5746 86.7529C17.5078 90.7031 16.7732 94.4254 16.3726 97.7679C15.9051 101.11 15.8384 104.149 16.1055 106.504C16.3058 108.859 16.84 110.53 17.1739 111.366C17.6413 112.581 18.042 113.265 18.3091 113.645C18.5762 114.025 18.643 114.101 18.7098 114.025C18.7765 114.025 18.7098 113.873 18.5762 113.493C18.2423 113.037 17.9085 112.277 17.5078 111.062Z" fill="#4F525D"/>
<path d="M32.7998 14.7373C32.5994 12.0785 31.7981 9.41975 30.5293 7.06481C30.1955 6.45709 29.7948 5.92532 29.3941 5.39356C28.9935 4.8618 28.526 4.40601 27.9918 3.95022C26.9902 3.03863 25.8549 2.27897 24.7197 1.74721C23.1838 0.987555 21.5812 0.455795 19.9118 0.227898C18.9769 0.0759666 18.1088 0 17.1739 0C14.5696 0 11.9653 0.531761 9.62809 1.74721C7.29089 2.96266 5.22079 4.78584 3.68492 6.98884C2.14904 9.19185 1.08061 11.7747 0.746726 14.3575C0.346063 16.9404 0.41284 19.4472 0.746726 21.8022C0.947057 22.9416 1.21416 24.0811 1.54805 25.1446C1.88194 26.2082 2.34938 27.1198 2.88359 27.9554L3.08393 28.2592L3.28426 28.5631C3.41781 28.715 3.55137 28.9429 3.7517 29.0949C4.08558 29.3987 4.35269 29.7786 4.68657 30.0824C5.02046 30.3863 5.28757 30.6901 5.62146 30.918C5.75501 31.07 5.95534 31.2219 6.0889 31.2979C6.22245 31.4498 6.42278 31.5258 6.55634 31.6777C7.15733 32.1335 7.75832 32.5133 8.35932 32.8172C8.89354 33.121 9.42776 33.3489 9.8952 33.5009C10.8969 33.8807 11.6982 34.0326 12.2324 34.1846C12.6331 34.2605 13.0337 34.3365 13.3008 34.4125C13.0337 34.4884 12.6998 34.4884 12.3659 34.5644C12.1656 34.6404 11.8985 34.7163 11.6982 34.7923C11.2307 34.9442 10.7633 35.1721 10.2959 35.476C9.96198 35.7039 9.56131 35.9318 9.22742 36.2356C9.02709 36.3876 8.89354 36.6155 8.75999 36.9193C8.62643 37.2232 8.55965 37.679 8.75999 37.9828C8.96032 38.2867 9.22743 38.4386 9.49454 38.5146C9.76165 38.5906 10.0287 38.5146 10.2291 38.5146C10.6297 38.4386 11.0304 38.2867 11.4311 38.1348C12.1656 37.8309 12.8334 37.3751 13.4344 36.9953C13.5679 36.9193 13.7015 36.8434 13.8351 36.6914C13.6347 36.9953 13.4344 37.2992 13.1673 37.603C13.0337 37.755 12.967 37.8309 12.8334 37.9828C12.6998 38.1348 12.5663 38.2867 12.4327 38.5146C12.2992 38.7425 12.2324 39.1223 12.3659 39.5022C12.4995 39.806 12.7666 39.958 12.9669 40.1099C13.6347 40.4137 14.3693 40.6416 15.1038 40.7176C15.2374 40.7176 15.3041 40.7176 15.4377 40.7176C15.5045 40.7176 15.5713 40.7176 15.638 40.7176C16.4394 40.7176 17.1739 40.5657 17.9085 40.2618C18.1088 40.1859 18.3091 40.0339 18.5095 39.806C18.7098 39.6541 18.8433 39.3502 18.8433 38.9704C18.8433 38.6665 18.7766 38.3627 18.643 38.1348C18.5095 37.9069 18.4427 37.755 18.3091 37.603C17.9752 37.1472 17.7749 36.7674 17.5746 36.3876C17.7749 36.5395 17.9752 36.6914 18.1756 36.8434C18.643 37.2232 19.244 37.603 19.9786 37.7549C20.3792 37.8309 20.7799 37.8309 21.1805 37.679C21.3809 37.603 21.5812 37.4511 21.7815 37.2992C21.9819 37.1472 22.1154 36.8434 22.1822 36.5395C22.249 36.2356 22.1822 35.9318 22.0486 35.7039C21.9151 35.476 21.7815 35.3241 21.5812 35.1721C21.4476 35.0202 21.2473 34.9442 21.047 34.7923C20.9134 34.7163 20.7131 34.6404 20.5128 34.5644C19.9786 34.3365 19.3776 34.2605 18.9101 34.1846C19.1772 34.1086 19.4443 34.0326 19.7782 33.9567C19.9785 33.8807 20.2457 33.8047 20.5128 33.7288C20.9134 33.5768 21.4476 33.3489 22.0486 33.121C22.9835 32.7412 24.1187 32.1335 25.3875 31.2979C25.9885 30.918 26.6563 30.3863 27.324 29.8545C27.9918 29.3228 28.5928 28.6391 29.1938 27.8794C30.3958 26.3601 31.4642 24.385 32.0652 22.182C32.3991 21.0425 32.5994 19.827 32.7998 18.6116C32.8665 18.0039 32.9333 17.3961 33.0001 16.7125C32.7998 16.1047 32.8665 15.421 32.7998 14.7373ZM12.9669 36.1597C12.4327 36.5395 11.765 36.9193 11.0972 37.2232C10.7633 37.3751 10.3626 37.5271 10.0287 37.603C9.82842 37.603 9.69486 37.679 9.56131 37.603C9.42776 37.603 9.36098 37.4511 9.2942 37.4511C9.2942 37.3751 9.22743 37.2992 9.2942 37.2232C9.36098 37.0713 9.42776 36.9193 9.56131 36.8434C9.82842 36.5395 10.1623 36.3116 10.4962 36.1597C11.164 35.7798 11.8317 35.476 12.4327 35.324C13.3676 35.0202 14.1689 34.9442 14.6364 34.9442C14.7032 34.9442 14.7699 34.9442 14.8367 34.9442C14.9035 34.9442 14.9035 34.9442 14.9035 34.9442C14.9703 34.9442 14.9703 34.9442 15.037 34.9442C15.037 34.9442 15.037 34.9442 14.9703 34.9442H14.9035C14.7699 35.0202 14.5696 35.1721 14.3693 35.2481C14.1022 35.4 13.5679 35.7798 12.9669 36.1597ZM17.6414 38.0588C17.8417 38.3627 17.9752 38.5906 17.9752 38.8185C17.9752 38.8944 17.9085 38.9704 17.8417 39.1223C17.7749 39.1983 17.6413 39.2743 17.441 39.3502C17.3742 39.3502 17.3075 39.4262 17.2407 39.4262C17.1739 39.4262 17.1071 39.5022 17.0403 39.5022C16.9736 39.5022 16.9068 39.5022 16.84 39.5781C16.7732 39.5781 16.6397 39.6541 16.5729 39.6541C16.5061 39.6541 16.4394 39.6541 16.3058 39.7301C16.239 39.7301 16.1722 39.7301 16.0387 39.7301C15.9719 39.7301 15.9051 39.7301 15.8384 39.7301H15.7716C15.7048 39.7301 15.638 39.7301 15.5713 39.7301C15.5045 39.7301 15.3709 39.7301 15.3041 39.7301C15.2374 39.7301 15.1038 39.7301 15.037 39.7301C14.9703 39.7301 14.9035 39.7301 14.8367 39.7301C14.7699 39.7301 14.7699 39.7301 14.7031 39.7301C14.6364 39.7301 14.5696 39.7301 14.5028 39.7301C14.436 39.7301 14.436 39.7301 14.3693 39.7301C14.3025 39.7301 14.2357 39.7301 14.1689 39.6541C13.9686 39.5781 13.8351 39.5781 13.6347 39.5022C13.4344 39.4262 13.3008 39.3502 13.1673 39.2743C13.0337 39.1983 12.9669 39.1223 12.9002 39.0464C12.9002 38.9704 12.9002 38.9704 12.9669 38.8185C13.0337 38.7425 13.1005 38.5906 13.2341 38.4386C13.3676 38.2867 13.5012 38.1348 13.5679 37.9828C14.3025 37.0713 14.6364 36.2356 14.8367 35.7039C15.1706 35.4 15.4377 35.2481 15.5713 35.0961C15.638 35.0202 15.638 35.0202 15.7048 34.9442C15.7716 34.8683 15.7716 34.8683 15.8384 34.8683C15.8384 34.9442 15.9051 35.0202 15.9719 35.0961C16.0387 35.1721 16.1055 35.2481 16.1723 35.324C16.239 35.4 16.4394 35.5519 16.6397 35.7039C16.7065 35.8558 16.7732 36.0837 16.84 36.3876C16.9068 36.8434 17.2407 37.4511 17.6414 38.0588ZM16.84 34.7923C17.2407 34.7923 17.7749 34.7923 18.3759 34.8683C18.9101 34.9442 19.5111 35.0202 20.1121 35.324C20.3792 35.476 20.7131 35.6279 20.9134 35.7798C21.047 35.8558 21.1138 36.0077 21.1805 36.0837C21.2473 36.1597 21.2473 36.3116 21.2473 36.3876C21.2473 36.5395 21.047 36.7674 20.7799 36.8434C20.5128 36.9193 20.2457 36.9193 19.9786 36.9193C19.3776 36.7674 18.8433 36.4635 18.3759 36.1597C17.8417 35.7798 17.3742 35.476 17.0403 35.2481C16.84 35.0962 16.6397 35.0202 16.5061 34.9442C16.4394 34.9442 16.4394 34.8683 16.3726 34.8683C16.3058 34.8683 16.3058 34.7923 16.239 34.7923C16.3726 34.7923 16.5061 34.7923 16.5061 34.7923H16.84ZM32.0652 16.7125C31.9984 17.3202 31.9984 17.9279 31.9317 18.5356C31.8649 18.9155 31.8649 19.2953 31.7981 19.6751C31.7981 19.903 31.7313 20.0549 31.6646 20.2828C31.6646 20.4348 31.5978 20.5867 31.531 20.8146V20.8906C31.531 21.0425 31.4642 21.1944 31.3974 21.3464C31.3307 21.5743 31.2639 21.7262 31.2639 21.9541V22.0301C31.1971 22.182 31.1971 22.258 31.1303 22.4099C31.0636 22.5618 30.9968 22.7137 30.9968 22.9416C30.93 23.0176 30.93 23.1695 30.8632 23.2455C30.7965 23.3974 30.7297 23.5494 30.6629 23.7013C30.5961 23.8532 30.5293 24.0811 30.4626 24.2331C30.4626 24.309 30.3958 24.309 30.3958 24.385C30.329 24.5369 30.2622 24.6888 30.1955 24.8408V24.9168C30.1287 25.0687 29.9951 25.2206 29.9283 25.4485C29.8616 25.5245 29.7948 25.6764 29.728 25.7524C29.6612 25.8283 29.5945 25.9803 29.5277 26.0562C29.1938 26.588 28.8599 27.0438 28.526 27.4996C27.3908 28.9429 26.0553 30.0064 24.8533 30.8421C24.3858 31.1459 23.9184 31.4498 23.451 31.6777C23.2506 31.7537 23.1171 31.9056 22.9167 31.9816C22.1822 32.3614 21.4477 32.6653 20.8467 32.9691C20.2457 33.197 19.7114 33.4249 19.3776 33.5009C18.8433 33.6528 18.4427 33.8047 18.042 33.9567C17.9752 33.9567 17.9085 33.9567 17.9085 34.0326C17.5746 34.1086 17.2407 34.1846 16.9736 34.2605C16.9068 34.2605 16.9068 34.2605 16.84 34.2605C16.5061 34.2605 16.239 34.3365 16.0387 34.3365C15.8384 34.4125 15.7048 34.4884 15.638 34.4884C15.5713 34.4884 15.4377 34.4125 15.1706 34.3365C14.7032 34.1846 13.7683 34.0326 12.1656 33.6528C11.6314 33.5009 10.8969 33.3489 9.96198 32.9691C9.82842 32.8931 9.76165 32.8931 9.62809 32.8172C9.56131 32.7412 9.42775 32.7412 9.36098 32.6652C9.36098 32.6652 9.2942 32.6653 9.2942 32.5893C8.82676 32.3614 8.29255 32.0575 7.75833 31.7537C7.69155 31.6777 7.558 31.6017 7.49122 31.6017C7.29089 31.4498 7.02378 31.2979 6.75667 31.07C6.15568 30.6142 5.62145 30.0824 5.02046 29.4747C4.75335 29.1708 4.41947 28.867 4.15237 28.4871C3.88526 28.1073 3.61814 27.8034 3.35103 27.4236C2.34937 25.8283 1.6816 23.7773 1.34772 21.5743C1.34772 21.4223 1.28095 21.2704 1.28095 21.1185C1.28095 20.9665 1.21416 20.8146 1.21416 20.6627C1.21416 20.4348 1.14739 20.1309 1.14739 19.903C1.14739 19.6751 1.14739 19.3713 1.08061 19.1434C1.08061 18.7635 1.08061 18.3837 1.08061 18.0039C1.08061 17.8519 1.08061 17.7 1.08061 17.5481C1.08061 17.3961 1.08061 17.2442 1.08061 17.0923C1.08061 16.4846 1.14739 15.9528 1.21416 15.3451C1.21416 15.1931 1.28095 15.0412 1.28095 14.8893C1.28095 14.7373 1.34772 14.5854 1.34772 14.4335C1.34772 14.2816 1.4145 14.1296 1.4145 13.9777C1.4145 13.8258 1.48128 13.6738 1.48128 13.5219C1.48128 13.4459 1.48127 13.37 1.54805 13.294C1.54805 13.218 1.54805 13.1421 1.61483 13.0661C1.61483 12.9901 1.6816 12.9142 1.6816 12.8382V12.7622C1.6816 12.6863 1.74838 12.5343 1.74838 12.4584C1.74838 12.3824 1.81516 12.2305 1.81516 12.1545C1.88194 11.9266 1.94871 11.6987 2.01549 11.4708C2.08226 11.3189 2.14904 11.167 2.21582 11.015C2.21582 10.9391 2.2826 10.8631 2.2826 10.8631C2.34938 10.7112 2.41616 10.5592 2.48294 10.4073C2.54971 10.2554 2.68326 10.0275 2.75004 9.87554C2.81682 9.72361 2.95037 9.49571 3.01715 9.34378C3.08392 9.26782 3.15071 9.11588 3.15071 9.03992C3.41782 8.50816 3.7517 8.05236 4.08558 7.59657C4.28592 7.36867 4.48624 7.06481 4.68657 6.83691C4.82013 6.68498 4.88691 6.60902 5.02046 6.45708C5.55468 5.84936 6.0889 5.3176 6.68989 4.78584C6.75667 4.70987 6.82345 4.63391 6.89022 4.63391C6.957 4.55794 7.02378 4.48198 7.09056 4.48198C7.22411 4.40601 7.29089 4.33004 7.42444 4.25408C7.49122 4.17811 7.558 4.17811 7.62478 4.10215C7.69155 4.02618 7.75833 4.02618 7.82511 3.95022C7.95866 3.87425 8.09222 3.72232 8.29255 3.64635C8.4261 3.57039 8.49288 3.49442 8.62643 3.41846C8.69321 3.34249 8.75999 3.34249 8.82677 3.26653C8.89354 3.19056 8.96031 3.19056 9.02709 3.11459C9.16064 3.03863 9.2942 2.96266 9.42776 2.8867C9.49453 2.8867 9.56131 2.81073 9.56131 2.81073C9.62809 2.81073 9.69486 2.73477 9.69486 2.73477C9.76164 2.73477 9.76164 2.73477 9.76164 2.6588C9.96197 2.58283 10.1623 2.4309 10.3626 2.35494C10.563 2.27897 10.7633 2.20301 10.9636 2.12704C11.4311 1.97511 11.8317 1.82318 12.2992 1.67125C12.4327 1.59528 12.5663 1.59528 12.6998 1.51931C12.9669 1.44335 13.1673 1.36738 13.4344 1.36738C13.6347 1.29142 13.835 1.29142 14.0354 1.21545C14.1689 1.21545 14.3025 1.13949 14.436 1.13949C14.436 1.13949 14.436 1.13949 14.5028 1.13949C14.6364 1.13949 14.7699 1.13949 14.9035 1.06352C15.037 1.06352 15.1706 1.06352 15.3041 0.987555C15.638 0.987555 15.9719 0.911589 16.239 0.911589C16.3726 0.911589 16.5061 0.911589 16.7065 0.911589H16.9068C18.042 0.911589 19.1772 1.06352 20.3124 1.29142C20.446 1.29142 20.5795 1.36738 20.6463 1.36738C20.9134 1.44335 21.1138 1.51931 21.3809 1.59528C22.3157 1.89914 23.2506 2.20301 24.1187 2.6588C26.3892 3.79828 28.3257 5.46953 29.5945 7.7485C30.8632 10.0275 31.5978 12.5343 31.7981 15.0412C32.132 15.497 32.132 16.1047 32.0652 16.7125Z" fill="#4F525D"/>
<path d="M32.0651 16.7123C31.9983 17.3201 31.9983 17.9278 31.9315 18.5355C31.8648 18.9153 31.8648 19.2952 31.798 19.675C31.6644 20.4347 31.5309 21.1943 31.3306 21.878V21.954C31.2638 22.1059 31.2638 22.1819 31.197 22.3338C30.9299 23.2454 30.596 24.081 30.1953 24.8407C29.7279 25.8282 29.1269 26.6638 28.5259 27.4995C27.3907 28.9428 26.0552 30.0063 24.8532 30.842C23.3173 31.8295 21.9817 32.5132 20.9133 32.969C20.3123 33.1969 19.7781 33.4248 19.4442 33.5008C18.3758 33.8806 17.5745 34.1085 17.0402 34.1844C16.9735 34.1844 16.9735 34.1844 16.9067 34.1844C16.5728 34.1844 16.3057 34.2604 16.1054 34.2604C15.905 34.3364 15.7715 34.4123 15.7047 34.4123C15.6379 34.4123 15.5044 34.3364 15.2373 34.2604C14.7698 34.1085 13.8349 33.9565 12.2323 33.5767C11.6981 33.4248 10.9635 33.2729 10.0286 32.893C9.09375 32.5132 7.95855 31.9055 6.82334 30.9939C6.22234 30.5381 5.68812 30.0063 5.08713 29.3986C4.82002 29.0947 4.48613 28.7909 4.21902 28.4111C3.95191 28.0312 3.68481 27.7274 3.4177 27.3475C2.41604 25.7523 1.74827 23.7012 1.41438 21.4982C1.28083 20.3587 1.14727 19.1432 1.21405 17.8518C1.21405 16.7123 1.34761 15.4969 1.48117 14.2814C1.61472 13.5977 1.74827 12.9141 1.9486 12.2304C2.48282 10.4831 3.28414 8.8119 4.35258 7.29259C5.82167 5.24152 7.75822 3.49431 9.96186 2.43079C10.0286 2.43079 10.0286 2.43079 10.0286 2.35482C10.4293 2.12692 10.83 1.97499 11.2306 1.82306C13.1672 1.0634 15.2373 0.683574 17.2406 0.75954C18.5093 0.75954 19.7781 0.911472 21.0469 1.21533C21.314 1.2913 21.5143 1.36727 21.7814 1.44323C22.7163 1.74709 23.6512 2.05096 24.5193 2.50675C26.7897 3.64624 28.7262 5.31748 29.995 7.59645C31.2638 9.87542 31.9983 12.3823 32.1987 14.8892C32.1319 15.4969 32.1319 16.1046 32.0651 16.7123Z" fill="#CCE7FF"/>
<path d="M13.4341 3.57021C13.3673 3.41828 13.2337 3.26635 13.167 3.19038C12.9666 3.03845 12.6995 3.03845 12.4324 3.03845C12.1653 3.03845 11.8982 3.03845 11.6311 3.11442C11.4975 2.81055 11.4308 2.43072 11.2972 2.12686C11.2972 2.0509 11.2304 1.89896 11.2304 1.823C11.0301 1.89896 10.8298 1.97493 10.6294 2.0509C10.4291 2.12686 10.2288 2.20283 10.0284 2.35476C9.96165 2.35476 9.96165 2.35476 9.96165 2.43072V2.50669C9.8281 2.88652 9.76132 3.26635 9.69454 3.64618C9.36065 3.87407 9.02677 4.10197 8.75966 4.32987C8.42578 4.55776 8.09189 4.78566 7.758 5.08952C7.62445 5.24146 7.42412 5.39339 7.35734 5.62128C7.29056 5.84918 7.29056 6.07708 7.42412 6.22901C7.62445 6.53287 8.02511 6.53287 8.359 6.53287C8.55933 6.53287 8.75966 6.53287 8.96 6.53287C8.96 6.53287 8.96 6.53287 8.96 6.60884C8.82644 7.06463 8.75966 7.52043 8.62611 7.97622C8.55933 8.43201 8.42578 9.03974 8.82644 9.3436C9.16033 9.5715 9.62776 9.03974 9.89487 8.73588C10.162 8.43201 10.4291 8.12815 10.6294 7.82429C10.763 7.90025 10.8298 8.05219 10.8965 8.20412C11.0301 8.35605 11.1636 8.50798 11.2972 8.65991C11.6311 8.88781 12.1653 9.19167 12.4992 8.73588C12.7663 8.35605 12.6995 7.82429 12.6327 7.36849C12.566 6.83673 12.4992 6.38094 12.3656 5.84918C12.566 5.62128 12.7663 5.39339 12.9666 5.16549C13.167 4.93759 13.3673 4.63373 13.5008 4.2539C13.5008 3.95004 13.5008 3.79811 13.4341 3.57021Z" fill="white"/>
<path d="M21.2472 13.9017C21.1804 13.7497 20.9801 13.5978 20.8465 13.5218C20.5794 13.3699 20.2455 13.2939 19.9784 13.2939C19.6445 13.2939 19.3106 13.2939 18.9768 13.2939C18.7764 12.9141 18.6429 12.6102 18.4425 12.2304C18.3758 12.0785 18.2422 11.8506 18.1086 11.6987C17.9751 11.5467 17.9083 11.3188 17.7748 11.1669C17.6412 11.015 17.5077 10.863 17.3073 10.863C17.107 10.863 16.9734 11.015 16.9067 11.2429C16.7731 11.6227 16.7063 12.0025 16.6396 12.3824C16.5728 12.7622 16.5728 13.142 16.506 13.5218C16.1721 13.6738 15.7714 13.9017 15.4376 14.0536C15.0369 14.2815 14.6362 14.4334 14.3024 14.7373C14.1688 14.8892 13.9685 15.0412 13.9017 15.269C13.8349 15.4969 13.9017 15.7248 14.0352 15.9527C14.3023 16.3326 14.8366 16.3326 15.2372 16.4085C15.5043 16.4085 15.7047 16.4845 15.9718 16.4845C15.9718 16.4845 15.9718 16.4845 15.9718 16.5605C15.905 17.0163 15.8382 17.4721 15.7714 17.9278C15.7047 18.3836 15.6379 19.0673 16.1053 19.3712C16.5728 19.6751 16.9734 19.1433 17.2405 18.8394C17.5077 18.5356 17.7748 18.2317 17.9751 17.9278C18.1087 18.0038 18.1754 18.2317 18.309 18.3077C18.4425 18.4596 18.6429 18.6875 18.8432 18.7635C19.1771 19.0673 19.8449 19.3712 20.1787 18.9154C20.5126 18.5356 20.3791 18.0038 20.3123 17.548C20.2455 17.0163 20.112 16.5605 19.9116 16.0287C20.112 15.8008 20.3123 15.5729 20.5126 15.345C20.713 15.1171 20.9801 14.8133 21.1136 14.5094C21.314 14.2815 21.3807 14.0536 21.2472 13.9017ZM17.4409 11.6227C17.4409 11.5467 17.4409 11.5467 17.4409 11.6227C17.5077 11.6227 17.5077 11.6227 17.5077 11.6987C17.4409 11.6227 17.4409 11.6227 17.4409 11.6227Z" fill="white"/>
<path d="M4.41929 13.6738C4.35251 13.5219 4.21895 13.3699 4.0854 13.294C3.81829 13.142 3.55119 13.142 3.28408 13.218C2.95019 13.218 2.6163 13.294 2.28242 13.294C2.21564 12.9901 2.08208 12.6862 2.0153 12.4583C2.0153 12.3824 1.94853 12.3064 1.94853 12.3064C1.94853 12.3824 1.88175 12.5343 1.88175 12.6103V12.6862C1.88175 12.7622 1.81498 12.8382 1.81498 12.9141C1.81498 12.9901 1.7482 13.0661 1.7482 13.142C1.7482 13.218 1.7482 13.294 1.68142 13.3699C1.61464 13.5218 1.61465 13.6738 1.61465 13.8257C1.61465 13.9776 1.54787 14.1296 1.54787 14.2815C1.54787 14.4334 1.4811 14.5854 1.4811 14.7373C1.4811 14.8892 1.41431 15.0412 1.41431 15.1931C1.34754 15.8008 1.28076 16.3326 1.28076 16.9403C1.28076 17.0922 1.28076 17.2442 1.28076 17.3961C1.28076 17.548 1.28076 17.7 1.28076 17.8519C1.41432 18.0038 1.48109 18.0798 1.61465 18.1558C1.94853 18.3837 2.54953 18.6875 2.95019 18.3077C3.28408 18.0038 3.2173 17.4721 3.2173 17.0922C3.15052 16.6364 3.08374 16.1806 3.01696 15.7249C3.28407 15.497 3.48441 15.2691 3.75151 15.1171C4.01862 14.8892 4.28573 14.5854 4.41929 14.2815C4.41929 14.0536 4.48606 13.8257 4.41929 13.6738Z" fill="white"/>
<path d="M25.3875 7.59649C25.1872 7.14069 24.9869 6.60893 24.7197 6.15314C24.8533 6.00121 24.9869 5.84928 25.1204 5.69735C25.254 5.54541 25.3875 5.31752 25.3875 5.01366C25.3875 4.86172 25.3875 4.70979 25.254 4.48189C25.1204 4.32996 24.9869 4.17803 24.7865 4.0261C24.5194 3.7982 24.2523 3.72224 23.9852 3.64627C23.7181 3.57031 23.3842 3.49434 23.1171 3.41838C22.9168 3.03855 22.6497 2.73468 22.4493 2.35486C22.3158 2.20292 22.1822 1.97503 22.0487 1.8231C21.9819 1.67116 21.8483 1.51923 21.7148 1.3673C21.4477 1.29134 21.2473 1.21537 20.9802 1.1394C20.9802 1.29134 20.9802 1.44327 20.9802 1.5952C20.9802 1.74713 20.9802 1.97503 20.9802 2.20292C20.9802 2.50679 21.047 2.88662 21.1138 3.26644C20.8467 3.41838 20.5796 3.49434 20.3125 3.64627C20.0453 3.7982 19.7115 3.95014 19.4444 4.17803C19.3108 4.254 19.244 4.40593 19.1772 4.63383C19.1772 4.86172 19.244 5.08962 19.4444 5.24155C19.7782 5.62138 20.1789 5.69735 20.5128 5.77331C20.7131 5.84928 20.9802 5.92524 21.1806 5.92524C21.1806 5.92524 21.1806 5.92524 21.1806 6.00121C21.1806 6.457 21.1806 6.83683 21.2473 7.29263C21.3141 7.74842 21.3141 8.35615 21.7816 8.66001C22.249 8.96387 22.5161 8.50808 22.7164 8.28018C22.9168 8.05228 23.1171 7.82439 23.2506 7.52052C23.3842 7.59649 23.5178 7.82439 23.6513 7.97632L23.7181 8.05228C23.8516 8.20421 24.052 8.35615 24.1855 8.50808C24.5862 8.81194 25.1872 9.19177 25.4543 8.81194C25.7882 8.50808 25.5878 8.05228 25.3875 7.59649ZM21.5144 1.67116L21.5812 1.74713C21.5144 1.74713 21.5144 1.67116 21.5144 1.67116Z" fill="white"/>
<path d="M31.1972 19.6751C30.8633 19.6751 30.4626 19.751 30.1287 19.751C29.9952 19.4472 29.7949 19.1433 29.5945 18.8394C29.461 18.6875 29.3942 18.5356 29.2606 18.3836C29.1271 18.2317 29.0603 18.0798 28.9267 17.9278C28.7932 17.7759 28.6596 17.7 28.4593 17.7C28.259 17.7 28.1254 17.8519 28.0586 18.0038C27.9251 18.3077 27.8583 18.6875 27.7248 19.0673C27.658 19.4472 27.5912 19.751 27.5912 20.1309C27.1905 20.3588 26.8567 20.5107 26.456 20.7386C26.0553 20.9665 25.6547 21.1184 25.254 21.4223C25.0537 21.5742 24.9201 21.7261 24.8533 21.954C24.7866 22.1819 24.8533 22.4098 24.9869 22.5618C25.254 22.8656 25.7882 22.8656 26.1889 22.9416C26.456 22.9416 26.6563 22.9416 26.9234 23.0176C26.8567 23.4733 26.7231 23.8532 26.6563 24.309C26.5896 24.7648 26.456 25.3725 26.9234 25.6004C27.3241 25.8283 27.7915 25.2965 28.1254 24.9927C28.3925 24.6888 28.7264 24.3849 28.9267 24.0811C29.0603 24.157 29.1271 24.309 29.1939 24.3849C29.3274 24.5369 29.461 24.6888 29.6613 24.7648C29.7949 24.8407 29.9284 24.9167 30.062 24.9167V24.8407C30.1287 24.6888 30.1955 24.5369 30.2623 24.3849C30.2623 24.309 30.3291 24.309 30.3291 24.233C30.3958 24.0811 30.4626 23.9291 30.5294 23.7012C30.5962 23.5493 30.663 23.3974 30.7297 23.2454C30.7965 23.1695 30.7965 23.0175 30.8633 22.9416C30.9301 22.7897 30.9968 22.6377 30.9968 22.4098C30.9968 22.3339 30.9301 22.2579 30.9301 22.1819C30.9968 22.106 31.0636 22.03 31.1304 22.03C31.1972 21.8021 31.2639 21.6502 31.2639 21.4223C31.3307 21.2703 31.3307 21.1184 31.3975 20.9665C31.3975 20.8905 31.3975 20.8905 31.3975 20.8905C31.4643 20.7386 31.4643 20.5866 31.5311 20.3588C31.5978 20.2068 31.5978 19.9789 31.6646 19.751C31.5978 19.5991 31.3975 19.6751 31.1972 19.6751ZM28.5261 18.3077C28.5929 18.3077 28.5929 18.3077 28.5929 18.3836C28.5929 18.3836 28.5261 18.3836 28.5261 18.3077Z" fill="white"/>
<path d="M22.3822 30.538C22.3154 30.3861 22.1818 30.2342 22.0483 30.1582C21.7812 30.0063 21.5141 30.0063 21.1802 30.0063C20.8463 30.0063 20.5124 30.0822 20.1785 30.0822C20.1118 29.9303 20.045 29.7784 19.9782 29.5505C19.9114 29.3985 19.8446 29.1706 19.7779 29.0187C19.7111 28.8668 19.6443 28.6389 19.5108 28.487C19.444 28.335 19.3772 28.1071 19.2436 27.9552C19.1101 27.8033 18.9765 27.7273 18.843 27.7273C18.6427 27.7273 18.4423 27.8792 18.3755 28.1071C18.242 28.487 18.1084 28.9427 17.9749 29.3226C17.9081 29.7024 17.8413 30.0822 17.7745 30.4621C17.641 30.538 17.5074 30.614 17.3071 30.69C17.1068 30.8419 16.8397 30.9179 16.6393 31.0698C16.2387 31.2977 15.838 31.4496 15.5041 31.7535C15.3706 31.9054 15.1702 32.0573 15.1702 32.2852C15.1035 32.5131 15.1702 32.741 15.3038 32.9689C15.5709 33.3488 16.0383 33.3488 16.3722 33.4247C16.5726 33.4247 16.8397 33.5007 17.04 33.5007C17.04 33.5007 17.04 33.5007 17.04 33.5767C16.9732 33.7286 16.9732 33.9565 16.9064 34.1844C17.1735 34.1084 17.4407 34.0324 17.8413 33.9565C17.9081 33.9565 17.9749 33.9565 17.9749 33.8805C18.3755 33.8045 18.7762 33.6526 19.3104 33.4247C19.7111 33.2728 20.1785 33.1209 20.7795 32.893C20.9799 32.6651 21.247 32.4372 21.4473 32.1333C21.7144 31.8294 21.9147 31.5256 22.1151 31.1458C22.3822 30.9179 22.4489 30.69 22.3822 30.538ZM18.843 28.5629L18.9098 28.6389C18.843 28.5629 18.843 28.5629 18.843 28.5629C18.7762 28.5629 18.7762 28.5629 18.843 28.5629Z" fill="white"/>
<path d="M13.4341 21.9539C13.3674 21.802 13.2338 21.65 13.0335 21.5741C12.7664 21.4222 12.4325 21.3462 12.0986 21.3462C11.7647 21.3462 11.364 21.3462 11.0302 21.3462C10.8966 20.9664 10.6963 20.6625 10.5627 20.2827C10.4959 20.1307 10.3624 19.9028 10.2956 19.7509C10.2288 19.599 10.0953 19.3711 9.96173 19.2191C9.82818 19.0672 9.69463 18.9912 9.4943 18.9153C9.29396 18.9153 9.09362 19.0672 9.02685 19.2951C8.89329 19.6749 8.75974 20.0548 8.69296 20.4346C8.62618 20.8144 8.55941 21.1943 8.55941 21.5741C8.15875 21.726 7.82486 21.8779 7.4242 22.1058C7.02354 22.2578 6.62288 22.4097 6.28899 22.6376C6.08866 22.7136 5.9551 22.8655 5.88832 23.0934C5.82155 23.3213 5.88832 23.5492 6.08866 23.7011C6.42254 24.0809 6.88998 24.1569 7.29065 24.2329C7.55776 24.3088 7.82486 24.3088 8.02519 24.3848V24.4608C7.95841 24.9166 7.89164 25.2964 7.89164 25.7522C7.89164 26.208 7.82486 26.8157 8.2923 27.1196C8.75974 27.4234 9.09363 26.9676 9.42751 26.7397C9.69462 26.5119 9.96174 26.208 10.1621 25.9041C10.2956 25.9801 10.3624 26.208 10.496 26.3599C10.6295 26.5878 10.8298 26.7397 11.0302 26.8917C11.364 27.1955 11.965 27.4994 12.3657 27.1196C12.6996 26.7397 12.566 26.208 12.4993 25.7522C12.4325 25.2204 12.2989 24.6887 12.1654 24.2329C12.3657 24.005 12.6328 23.7771 12.8332 23.5492C13.1003 23.3213 13.3006 23.0174 13.4341 22.6376C13.4341 22.4097 13.5009 22.1818 13.4341 21.9539ZM9.56107 19.6749C9.62784 19.6749 9.62785 19.6749 9.62785 19.7509C9.56107 19.7509 9.56107 19.7509 9.56107 19.6749Z" fill="white"/>
<path d="M17.9755 38.8184C17.9755 38.8944 17.9087 38.9704 17.8419 39.1223C17.7751 39.1982 17.6416 39.2742 17.4412 39.3502C16.7735 39.654 16.0389 39.73 15.2376 39.73C15.104 39.73 14.9705 39.73 14.9037 39.73C14.6366 39.73 14.3695 39.654 14.1692 39.5781C13.9688 39.5021 13.8353 39.5021 13.6349 39.4261C13.4346 39.3502 13.3011 39.2742 13.1675 39.1982C13.034 39.1223 12.9672 39.0463 12.9004 38.9703C12.9004 38.8944 12.9004 38.8944 12.9672 38.7425C13.0339 38.6665 13.1007 38.5146 13.2343 38.3626C13.3678 38.2107 13.5014 38.0588 13.5682 37.9068C14.2359 37.0712 14.6366 36.2356 14.8369 35.7038C14.8369 35.7038 14.8369 35.6279 14.9037 35.6279C15.2376 35.324 15.5047 35.1721 15.6383 35.0201C15.7718 34.9442 15.8386 34.8682 15.9054 34.7922C15.9054 34.8682 15.9721 35.0201 16.2392 35.248C16.306 35.324 16.5064 35.4759 16.7067 35.6279C16.7735 35.7798 16.8402 36.0077 16.907 36.3115C17.0406 36.8433 17.3745 37.451 17.7751 37.9828C17.8419 38.3626 18.0422 38.6665 17.9755 38.8184Z" fill="#CCE7FF"/>
<g opacity="0.3">
<path d="M17.9748 38.8184C17.9748 38.8943 17.9081 38.9703 17.8413 39.1222C17.7745 39.1982 17.6409 39.2742 17.4406 39.3501C16.7728 39.654 16.0383 39.73 15.237 39.73C15.1034 39.73 14.9699 39.73 14.9031 39.73C15.6376 39.0463 16.2386 38.0587 15.7044 36.9192C15.5709 36.5394 15.0366 36.1596 14.7695 35.7798C14.7695 35.7798 14.7695 35.7038 14.8363 35.7038C15.1702 35.3999 15.4373 35.248 15.5709 35.0961C15.7044 35.0201 15.7712 34.9441 15.838 34.8682C15.838 34.9441 15.9047 35.0961 16.1719 35.324C16.2386 35.3999 16.439 35.5519 16.6393 35.7038C16.7061 35.8557 16.7729 36.0836 16.8396 36.3875C16.9732 36.9192 17.3071 37.527 17.7077 38.0587C17.8413 38.3626 18.0416 38.6664 17.9748 38.8184Z" fill="#99ADBF"/>
<path d="M32.7996 16.7123C32.7328 17.3201 32.7328 18.0038 32.5993 18.6115C32.4657 19.8269 32.1986 21.0424 31.8647 22.1819C31.1969 24.4608 30.1953 26.36 28.9933 27.8793C28.3923 28.639 27.7245 29.3226 27.1235 29.8544C26.4558 30.3862 25.8548 30.9179 25.187 31.2978C23.9182 32.1334 22.783 32.6651 21.8481 33.1209C21.2471 33.3488 20.7797 33.5767 20.3123 33.7287L16.4392 34.8681C16.4392 34.8681 16.3724 34.8681 16.1721 34.8681C16.1053 34.8681 15.9717 34.8681 15.8382 34.8681C15.7714 34.8681 15.7046 34.8681 15.6379 34.8681C15.4375 34.8681 15.2372 34.8681 14.9701 34.8681C14.9033 34.8681 14.8365 34.8681 14.8365 34.8681C13.9684 34.8681 12.7664 34.7922 11.5644 34.7922C11.8316 34.7162 12.0319 34.6402 12.2322 34.5643C12.5661 34.4883 12.9 34.4123 13.1671 34.4123C12.8332 34.3364 12.4993 34.2604 12.0987 34.1845C11.5644 34.1085 10.7631 33.8806 9.76146 33.5008C9.29402 33.3488 8.7598 33.1209 8.22559 32.8171C8.55947 32.7411 8.82658 32.6651 9.22724 32.6651C12.6329 32.6651 14.7698 32.1334 16.8398 31.4497C17.8415 31.1458 19.1103 30.1583 19.9116 29.7025C23.2504 27.7274 25.4541 24.6128 25.8548 17.548C26.0551 13.9776 25.2538 10.9389 24.5192 8.35611C23.7179 5.62135 21.9817 3.26641 20.98 1.7471C20.8465 1.5192 20.7129 1.36727 20.6461 1.21534C20.379 0.835508 20.1119 0.531646 19.9116 0.227783C21.581 0.531646 23.1837 0.98744 24.7195 1.7471C25.9215 2.35482 26.99 3.03851 27.9916 3.9501C28.4591 4.4059 28.9265 4.86169 29.3939 5.39345C29.7946 5.92521 30.1953 6.53294 30.5292 7.0647C31.8647 9.41963 32.666 12.0784 32.7996 14.7372C32.8664 15.4209 32.7996 16.1046 32.7996 16.7123Z" fill="#99ADBF"/>
</g>
<g opacity="0.5">
<path d="M4.95345 25.7524C4.8199 25.2966 4.28568 24.0812 3.88501 22.334C3.48435 20.5868 3.28402 18.3838 3.41757 16.2567C3.48435 15.1932 3.68468 14.0537 3.88501 13.0662C4.15212 12.0786 4.41923 11.167 4.75312 10.3314C5.42089 8.73611 6.08866 7.59662 6.28899 7.2168C6.62288 6.60907 6.62288 6.45714 6.48933 6.38117C6.42255 6.30521 6.35577 6.30521 5.88833 6.83697C5.62122 7.2168 4.8199 8.28032 4.15213 9.95156C3.81824 10.7872 3.48435 11.7747 3.21724 12.7623C2.95013 13.8258 2.7498 14.9653 2.68302 16.1048C2.61624 17.2443 2.61625 18.3838 2.7498 19.5232C2.88336 20.5868 3.01691 21.6503 3.28402 22.4859C3.75146 24.2331 4.28568 25.5245 4.55278 25.9044C4.88667 26.5121 5.02023 26.588 5.15378 26.5121C5.15378 26.588 5.15378 26.4361 4.95345 25.7524Z" fill="white"/>
</g>
</svg>
