<svg width="38" height="74" viewBox="0 0 38 74" fill="none" xmlns="http://www.w3.org/2000/svg">
<path d="M37.6661 12.1005C37.5991 10.3769 37.3981 8.57829 36.9292 6.9296C36.4602 5.20597 35.5223 3.70716 34.3835 2.58306C33.2446 1.45895 31.9048 0.709549 30.498 0.334847C29.0911 -0.0398545 27.7513 -0.114795 26.4785 0.184966C23.9328 0.709549 21.99 2.13342 20.7172 3.48234C19.7793 4.53151 19.1094 5.43079 18.7744 6.1802C18.7074 6.03032 18.6404 5.8055 18.5064 5.58067C18.4395 5.43079 18.3055 5.28091 18.2385 5.13103C18.1045 4.98115 18.0375 4.75633 17.8365 4.53151C17.4346 3.93199 16.5637 2.88282 15.0899 1.98353C14.353 1.53389 13.4151 1.08425 12.4102 0.859429C11.3383 0.634608 10.1995 0.484728 8.92665 0.709549C7.7208 0.85943 6.38097 1.38401 5.24211 2.20836C4.10325 3.0327 2.96439 4.15681 2.16049 5.50573C1.35659 6.85466 0.75366 8.42841 0.418702 10.0771C0.0837434 11.7258 -0.050244 13.4494 0.0167476 15.173C0.0837393 16.8967 0.35171 18.5454 0.75366 20.194C1.2226 21.7678 1.69154 23.3415 2.42845 24.7654C3.16536 26.1893 4.03624 27.4633 4.97413 28.5124C5.24209 28.7373 5.51006 29.037 5.71104 29.2618C5.84502 29.4117 5.97901 29.4867 6.11299 29.6365C6.24698 29.7115 6.38096 29.8614 6.51495 29.9363C6.78291 30.1611 7.05087 30.3859 7.31883 30.5358C7.5868 30.6857 7.85478 30.9105 8.12274 31.0604C10.2665 32.4843 12.3432 33.0838 14.018 33.4585C14.4199 33.5334 14.8219 33.6084 15.1569 33.6833C15.4918 33.7583 15.8268 33.7583 16.1617 33.7583C16.4967 33.8332 16.7647 33.8332 17.0326 33.8332C16.6977 33.9081 16.2957 34.058 15.8938 34.2828C15.1569 34.5826 14.4199 35.0322 13.683 35.6318C13.3481 35.9315 12.9461 36.2313 12.6112 36.606C12.4772 36.7559 12.2092 36.9807 12.0752 37.2805C11.9413 37.5802 11.8073 37.9549 11.9413 38.4046C12.0083 38.6294 12.1422 38.7793 12.3432 38.8542C12.4772 38.9291 12.6782 39.0041 12.8122 39.0041C13.1471 39.079 13.4151 39.0041 13.683 38.8542C14.152 38.6294 14.5539 38.4046 14.9559 38.1797C15.7598 37.7301 16.4297 37.1306 17.0326 36.6809C17.2336 36.5311 17.3676 36.3812 17.5016 36.2313C17.3676 36.5311 17.1666 36.9058 16.9656 37.2805C16.8987 37.4303 16.7647 37.5802 16.6977 37.7301C16.5637 37.88 16.4297 38.0299 16.3627 38.2547C16.2287 38.4795 16.1617 38.8542 16.2287 39.154C16.3627 39.5287 16.5637 39.7535 16.7647 39.8284C16.9656 39.9783 17.1666 40.0532 17.4346 40.1282C17.6356 40.2031 17.8365 40.2781 18.1045 40.2781C18.5734 40.353 18.9754 40.353 19.4443 40.353C19.9133 40.2781 20.3152 40.2031 20.7842 40.0532C20.9851 39.9783 21.1861 39.9034 21.3871 39.7535C21.5881 39.6036 21.789 39.5287 21.99 39.3038C22.191 39.154 22.325 38.9291 22.459 38.7043C22.5929 38.4795 22.6599 38.1048 22.5929 37.805C22.5929 37.5053 22.459 37.2805 22.325 37.0556C22.191 36.8308 22.124 36.6809 21.99 36.5311C21.7221 36.1564 21.5211 35.7067 21.3871 35.4069C21.722 35.7067 22.124 36.0814 22.5259 36.4561C22.8609 36.7559 23.1959 37.0556 23.5308 37.3554C23.7318 37.5053 23.8658 37.6552 24.1337 37.805C24.2677 37.88 24.3347 37.9549 24.4687 38.0299C24.5357 38.0299 24.6027 38.1048 24.6697 38.1048L24.8707 38.1797C25.1386 38.1797 25.4736 38.1797 25.8085 37.9549C26.1435 37.7301 26.3445 37.3554 26.3445 36.9807C26.4115 36.2313 26.0765 35.6318 25.6746 35.2571C25.1386 34.7325 24.6027 34.2828 23.9998 33.9831C23.4638 33.6833 22.8609 33.5334 22.392 33.3836C23.0619 33.3086 23.9998 33.0838 25.0716 32.7091C26.7464 32.1096 28.7562 31.0604 30.6989 29.3368C31.2349 28.8871 31.6368 28.3626 32.1727 27.9129C32.4407 27.6881 32.6417 27.3883 32.8427 27.0886C33.0436 26.7888 33.3116 26.564 33.5126 26.1893C33.9145 25.5898 34.3835 24.9902 34.7184 24.2408C34.9194 23.8661 35.1204 23.5664 35.3214 23.1917C35.5223 22.817 35.6563 22.4423 35.8573 22.0676C36.0583 21.6929 36.1922 21.3182 36.3262 20.9435C36.4602 20.5688 36.6612 20.194 36.7282 19.7444C36.8622 19.3697 36.9962 18.9201 37.0631 18.5454C37.1301 18.3205 37.1971 18.1707 37.1971 17.9458L37.3311 17.3463C37.5321 16.522 37.6661 15.6227 37.7331 14.7983C37.6661 13.8241 37.6661 12.9998 37.6661 12.1005ZM16.4297 35.9315C15.8268 36.3812 15.1569 36.9058 14.42 37.3554C14.018 37.5802 13.6161 37.805 13.2811 37.9549C13.0801 38.0299 12.9461 38.1048 12.8122 38.0299C12.6782 38.0299 12.6112 37.9549 12.5442 37.88C12.5442 37.805 12.5442 37.6552 12.6112 37.5053C12.6782 37.3554 12.8122 37.2805 13.0131 37.0556C13.3481 36.6809 13.683 36.4561 14.018 36.1564C14.6879 35.6318 15.4248 35.1821 16.0947 34.8824C16.8986 34.5077 17.6356 34.2828 18.1045 34.133C18.2385 34.133 18.3055 34.058 18.3725 34.058C18.4394 34.058 18.5734 33.9831 18.6404 33.9831C18.5734 34.058 18.5064 34.133 18.4395 34.2079C18.3055 34.3578 18.1045 34.5077 17.9035 34.6575C17.5016 35.0322 16.9656 35.4069 16.4297 35.9315ZM21.1861 37.0556C21.3871 37.3554 21.5881 37.6552 21.5881 37.88C21.5881 38.1048 21.4541 38.4046 21.1861 38.6294C20.9181 38.8542 20.5832 39.0041 20.2482 39.154C19.9133 39.3038 19.5113 39.3788 19.1094 39.3788C18.7074 39.4537 18.3055 39.3788 17.9705 39.3038C17.7695 39.3038 17.5686 39.2289 17.4346 39.154C17.2336 39.079 17.0996 39.0041 16.9656 38.9291C16.8317 38.8542 16.7647 38.7793 16.7647 38.7043C16.7647 38.6294 16.7647 38.5544 16.8317 38.4046C16.9656 38.1797 17.2336 37.805 17.4346 37.4303C17.9705 36.4561 18.2385 35.5568 18.3725 34.9573C18.7744 34.5826 18.9754 34.2828 19.1094 34.133C19.5113 33.6084 19.5113 33.4585 19.4443 33.3836C19.4443 33.3836 19.4443 33.3836 19.5113 33.3836C19.5113 33.4585 19.5783 33.6084 19.8463 33.9831C19.9133 34.058 20.0473 34.2079 20.2482 34.3578C20.3152 34.5826 20.3822 34.8074 20.4492 35.1072C20.5162 35.7816 20.7842 36.4561 21.1861 37.0556ZM23.4638 34.7325C23.9998 35.0322 24.4687 35.4069 24.9377 35.8566C25.2056 36.0814 25.4066 36.5311 25.3396 36.8308C25.3396 36.9807 25.2726 37.0556 25.2056 37.1306C25.1386 37.2055 24.9376 37.2055 24.8037 37.2055C24.4687 37.2055 24.1337 36.9058 23.7988 36.606C23.4638 36.3062 23.1289 36.0065 22.7939 35.7067C21.923 34.9573 21.1861 34.3578 20.6502 33.9081C20.5162 33.7583 20.3152 33.6833 20.2482 33.6084C20.3152 33.6084 20.4492 33.6833 20.5832 33.6833C20.9182 33.7583 21.4541 33.8332 21.99 34.058C22.392 34.2828 22.9279 34.5077 23.4638 34.7325ZM36.7952 14.7234C36.7282 15.5477 36.5942 16.3721 36.3932 17.1964C36.2592 18.0208 35.9913 18.7702 35.7903 19.5945C35.6563 19.9692 35.5223 20.3439 35.3884 20.7186C35.2544 21.0933 35.1204 21.468 34.9194 21.8427C34.7854 22.2174 34.5844 22.5172 34.4505 22.8919C34.2495 23.2666 34.0485 23.5664 33.9145 23.8661C33.5796 24.5406 33.1106 25.1401 32.7087 25.7396C31.8378 26.8637 30.9669 27.9129 30.029 28.7373C28.1533 30.4609 26.2105 31.51 24.6027 32.1096C22.9949 32.7091 21.789 32.9339 21.1191 33.0089C20.6502 33.0838 20.2482 33.1587 19.9803 33.1587H19.9133C19.7793 33.1587 19.7123 33.1587 19.6453 33.1587C19.5113 33.1587 19.4443 33.1587 19.3104 33.2337C19.2434 33.2337 19.1764 33.2337 19.1094 33.3086C18.7744 33.3086 18.2385 33.3086 17.3676 33.2337C17.0326 33.2337 16.5637 33.1587 16.0277 33.0838C15.7598 33.0089 15.4248 33.0089 15.0899 32.9339C14.7549 32.859 14.353 32.784 13.951 32.7091C12.3432 32.3344 10.3335 31.6599 8.32371 30.311C8.05574 30.1611 7.78779 29.9363 7.58682 29.7864C7.31885 29.5616 7.11787 29.4117 6.8499 29.1869C6.71592 29.112 6.58193 28.9621 6.44795 28.8871C6.31397 28.7373 6.24698 28.6623 6.11299 28.5124C5.91202 28.2876 5.64405 28.0628 5.37608 27.763C4.4382 26.7139 3.63429 25.5148 2.96438 24.1659C2.29446 22.817 1.82553 21.3182 1.42358 19.7444C1.02163 18.1707 0.753656 16.5969 0.686664 14.9482C0.552681 11.7258 1.2226 8.35347 2.76341 5.80549C2.96438 5.50573 3.16536 5.20597 3.36633 4.90621C3.56731 4.60645 3.83527 4.38163 4.03625 4.08187C4.30421 3.85705 4.57218 3.63222 4.77316 3.4074C4.90714 3.25752 5.04113 3.18258 5.17511 3.10764C5.3091 3.0327 5.44308 2.88282 5.57707 2.80788C6.64893 2.05848 7.78779 1.53389 8.92665 1.38401C10.0655 1.23413 11.1374 1.30907 12.1422 1.53389C13.1471 1.75871 13.951 2.13342 14.6879 2.58306C16.0947 3.48234 16.9656 4.38163 17.3676 4.90621C17.7025 5.28091 17.9035 5.58067 18.1045 5.80549C18.2385 6.03032 18.3725 6.25514 18.5064 6.40502L18.5734 6.47996C18.5065 6.62984 18.4395 6.70478 18.4395 6.77972C18.3055 7.00454 18.2385 7.22936 18.1715 7.45418C18.1045 7.679 18.0375 7.82888 17.9705 7.97877C17.8365 8.27853 17.8365 8.57829 17.7695 8.72817C17.7025 9.10287 17.7025 9.17781 17.7695 9.25275C17.8365 9.25275 17.9035 9.17781 18.0375 8.87805C18.1045 8.72817 18.2385 8.50335 18.3725 8.20359C18.4394 8.05371 18.5065 7.90383 18.6404 7.679C18.7074 7.45418 18.8414 7.22936 18.9754 7.00454C19.3104 6.40502 19.9803 5.20597 21.2531 3.93199C21.856 3.33246 22.6599 2.658 23.5308 2.13342C24.4687 1.60883 25.5406 1.15919 26.6794 0.93437C27.8853 0.709549 29.1581 0.78449 30.431 1.15919C31.7038 1.53389 32.9097 2.2833 33.9815 3.33246C35.0534 4.38163 35.8573 5.73055 36.2592 7.3043C36.7282 8.87805 36.8622 10.5267 36.9292 12.2504C36.8622 12.9998 36.8622 13.8991 36.7952 14.7234Z" fill="#4F525D"/>
<path d="M21.5881 37.9549C21.5881 38.1797 21.4541 38.4795 21.1861 38.7043C20.9181 38.9291 20.5832 39.079 20.2482 39.2289C19.9133 39.3788 19.5113 39.4537 19.1094 39.4537C18.9754 39.4537 18.8414 39.4537 18.6404 39.4537C18.3725 39.4537 18.1715 39.4537 17.9705 39.3788C17.7695 39.3788 17.5685 39.3038 17.4346 39.2289C17.2336 39.154 17.0996 39.079 16.9656 39.0041C16.8317 38.9291 16.7646 38.8542 16.7646 38.7793C16.7646 38.7043 16.7647 38.6294 16.8316 38.4795C16.9656 38.2547 17.2336 37.88 17.4346 37.5053C17.9705 36.531 18.2385 35.6318 18.3724 35.0322C18.4394 34.9573 18.5064 34.8824 18.6404 34.8074C18.9084 34.5077 19.0424 34.3578 19.1764 34.2079C19.5113 33.7583 19.5783 33.6084 19.5113 33.5334C19.5113 33.5334 19.5113 33.5334 19.5113 33.4585C19.5113 33.4585 19.5113 33.4585 19.5783 33.4585C19.5783 33.4585 19.5783 33.4585 19.5783 33.5334C19.5783 33.6084 19.7123 33.7583 19.9133 34.058C19.9803 34.133 20.1142 34.2828 20.3152 34.4327C20.3822 34.6575 20.4492 34.8824 20.5162 35.1821C20.6502 35.7067 20.9181 36.3812 21.3201 36.9807C21.3871 37.3554 21.5881 37.6552 21.5881 37.9549Z" fill="#F9C4D2"/>
<path d="M36.7954 14.7235C36.7284 15.5478 36.5944 16.3722 36.3934 17.1965C36.3264 17.5712 36.2594 17.9459 36.1254 18.3206C35.9915 18.7703 35.8575 19.145 35.7905 19.5946C35.6565 19.9693 35.5225 20.344 35.3885 20.7187C35.2546 21.0934 35.1206 21.4681 34.9196 21.8428C34.7856 22.2175 34.5846 22.5173 34.4506 22.892C34.2497 23.2667 34.0487 23.5665 33.9147 23.8662C33.5798 24.5407 33.1108 25.1402 32.7089 25.7397C31.838 26.8638 30.9671 27.913 30.0292 28.7374C28.1534 30.461 26.2107 31.5101 24.6029 32.1097C23.799 32.4094 23.0621 32.6343 22.5261 32.7841C21.9232 32.934 21.4543 33.009 21.1863 33.009C20.7174 33.0839 20.3154 33.1588 20.0474 33.1588H19.9805C19.8465 33.1588 19.7795 33.1588 19.7125 33.1588C19.5785 33.1588 19.5115 33.1588 19.3775 33.2338C19.3105 33.2338 19.2436 33.2338 19.1766 33.3087C18.8416 33.3087 18.3057 33.3087 17.4348 33.2338C17.1668 33.2338 16.8318 33.1588 16.4299 33.1588C16.2959 33.1588 16.2289 33.1588 16.0949 33.0839C15.827 33.009 15.492 33.009 15.1571 32.934C14.8221 32.8591 14.4201 32.7841 14.0182 32.7092C13.6162 32.6343 13.1473 32.4844 12.6784 32.3345C11.3385 31.9598 9.86472 31.2853 8.3909 30.3111C8.18992 30.1612 7.98895 30.0113 7.78798 29.9364C7.72099 29.8615 7.654 29.8615 7.58701 29.7865C7.31905 29.5617 7.11807 29.4118 6.8501 29.187C6.71612 29.1121 6.58213 28.9622 6.44815 28.8872C6.31416 28.7374 6.24717 28.6624 6.11319 28.5125C5.91221 28.2877 5.64424 28.0629 5.37628 27.7631C4.43839 26.714 3.63449 25.5149 2.96457 24.166C2.29466 22.8171 1.82572 21.3183 1.42377 19.7445C1.02182 18.1708 0.753851 16.597 0.68686 14.9483C0.619868 13.2247 0.753859 11.4261 1.15581 9.77743C1.49077 8.35357 2.0267 7.00464 2.7636 5.80559C2.96458 5.50583 3.16555 5.20607 3.36653 4.90631C3.5675 4.68149 3.7015 4.53161 3.90247 4.30679C3.96946 4.23185 4.03644 4.15691 4.03644 4.08196C4.30441 3.85714 4.57238 3.63232 4.77335 3.4075C4.90734 3.25762 5.04132 3.18268 5.17531 3.10774C5.30929 3.0328 5.44328 2.88292 5.57726 2.80798C6.64913 2.05857 7.78799 1.53399 8.92684 1.38411C10.0657 1.23423 11.1376 1.30917 12.1424 1.53399C12.4104 1.60893 12.6784 1.68387 12.8793 1.75881C13.5493 1.98363 14.1522 2.2834 14.6881 2.58316C15.894 3.33256 16.6979 4.1569 17.1668 4.68149C17.2338 4.75643 17.3008 4.83137 17.3678 4.90631C17.7027 5.28101 17.9037 5.58077 18.1047 5.80559C18.2387 6.03041 18.3727 6.25524 18.5066 6.40512L18.5736 6.48006C18.5066 6.62994 18.4396 6.70488 18.4396 6.77982C18.3057 7.00464 18.2387 7.22946 18.1717 7.45428C18.1047 7.6791 18.0377 7.82898 17.9707 7.97886C17.8367 8.27863 17.8367 8.57839 17.7697 8.72827C17.7027 9.10297 17.7027 9.17791 17.7697 9.25285C17.8367 9.25285 17.9037 9.17791 18.0377 8.87815C18.1047 8.72827 18.2387 8.50345 18.3727 8.20368C18.4396 8.0538 18.5067 7.90392 18.6406 7.6791C18.7076 7.45428 18.8416 7.22946 18.9756 7.00464C19.3106 6.40512 19.9805 5.20607 21.2533 3.93208C21.8562 3.33256 22.6601 2.6581 23.531 2.13351C24.4689 1.60893 25.5408 1.15929 26.6796 0.934468C27.3495 0.784587 28.0864 0.784587 28.8234 0.859528C28.8903 0.859528 28.9573 0.859528 29.0913 0.859528C29.4933 0.934468 29.9622 1.00941 30.4311 1.15929C31.704 1.53399 32.9099 2.2834 33.9817 3.33256C34.3167 3.63232 34.5846 4.00702 34.8526 4.38173C35.4555 5.20607 35.9915 6.1803 36.2594 7.3044C36.5944 8.57839 36.7954 10.0023 36.9293 11.4261C36.9293 11.7259 36.9294 12.0256 36.9963 12.2505C36.8624 12.9999 36.8623 13.8992 36.7954 14.7235Z" fill="#F9C4D2"/>
<path d="M21.4543 18.1705C21.1864 17.1963 20.7844 16.297 19.9805 15.6975C19.3776 15.2478 18.5737 15.023 17.8368 15.0979C16.095 15.3228 14.7552 16.8965 14.5542 18.845C14.4872 19.6693 14.6882 20.4937 15.0901 21.2431C15.3581 21.9925 15.76 22.592 16.363 22.9667C17.1669 23.4913 18.1717 23.5662 19.0426 23.2664C19.9135 22.8917 20.6504 22.2173 21.1864 21.3929C21.6553 20.3438 21.6553 19.2197 21.4543 18.1705Z" fill="white"/>
<path d="M27.5505 6.92946C27.2156 5.95523 26.6796 5.05595 25.9427 4.38148C25.3398 3.8569 24.6029 3.63208 24 3.63208C22.4592 3.78196 21.4543 5.35571 21.3203 7.30416C21.2533 8.1285 21.4543 9.02779 21.8562 9.70225C22.1242 10.3767 22.5261 11.0512 23.1291 11.4259C23.933 11.9505 24.9378 12.0254 25.7417 11.6507C26.5456 11.276 27.2156 10.6765 27.6175 9.85213C28.0195 9.02779 27.8855 7.90368 27.5505 6.92946Z" fill="white"/>
<path d="M22.5259 32.709C21.923 32.8589 21.4541 32.9338 21.1861 32.9338C20.7172 33.0087 20.3152 33.0837 20.0472 33.0837H19.9803C19.8463 33.0837 19.7793 33.0837 19.7123 33.0837C19.5783 33.0837 19.5113 33.0837 19.3773 33.1586C19.3103 33.1586 19.2433 33.1586 19.1763 33.2336C18.8414 33.2336 18.3055 33.2336 17.4346 33.1586C17.1666 33.1586 16.8316 33.0837 16.4297 33.0837C16.6977 31.435 17.8365 30.236 19.3103 30.0861C20.0472 30.0111 20.7841 30.236 21.3871 30.7605C21.923 31.2102 22.325 31.8846 22.5259 32.709Z" fill="white"/>
<path d="M32.3066 22.4422C32.1057 21.6179 31.7037 20.8685 31.0338 20.4188C30.4979 20.0441 29.694 19.8942 29.024 19.9692C27.4162 20.194 26.2104 21.6928 26.0094 23.4914C25.9424 24.2408 26.0764 24.9902 26.4114 25.6646C26.6123 26.2642 26.9473 26.8637 27.4832 27.1635C28.1531 27.5382 29.024 27.5382 29.8279 27.0885C30.6318 26.6389 31.3687 26.0393 31.8377 25.215C32.4406 24.3157 32.5076 23.3415 32.3066 22.4422Z" fill="white"/>
<path d="M36.7954 14.7233C36.7284 15.5477 36.5944 16.372 36.3934 17.1964C36.3265 17.5711 36.2594 17.9458 36.1255 18.3205C35.7235 18.3205 35.3216 18.1706 34.9196 17.9458C34.3167 17.646 33.8477 17.0465 33.5128 16.372C33.0438 15.7725 32.7759 14.9482 32.7759 14.1988C32.7759 12.4002 33.7138 11.0513 35.3886 11.0513C35.7905 11.0513 36.3264 11.2011 36.7954 11.351C36.7954 11.6508 36.7954 11.9506 36.8624 12.1754C36.8624 12.9997 36.8624 13.899 36.7954 14.7233Z" fill="white"/>
<path d="M34.7856 4.30662C34.5846 4.68132 34.2497 4.90614 33.7807 4.98108C33.1778 5.13097 32.2399 4.90614 31.436 4.30662C30.8331 3.85698 30.2972 3.18252 29.9622 2.50805C29.5603 1.98347 29.2923 1.38395 29.0913 0.784424C29.4933 0.859364 29.9622 0.934304 30.4311 1.08419C31.704 1.45889 32.9098 2.20829 33.9817 3.25746C34.1827 3.63216 34.4506 3.93192 34.7856 4.30662Z" fill="white"/>
<path d="M17.1669 4.60627C17.0999 4.83109 17.0329 5.05591 16.8989 5.28073C16.497 6.03014 15.827 6.62966 15.0901 7.00436C14.3532 7.37906 13.5493 7.37906 12.9464 7.00436C12.4775 6.7046 12.2095 6.25496 12.0755 5.65543C11.8075 5.13085 11.8075 4.45639 11.9415 3.70698C12.1425 2.95758 12.4775 2.28312 12.8794 1.68359C13.5493 1.90841 14.1522 2.20818 14.6882 2.50794C15.894 3.25734 16.6979 4.08169 17.1669 4.60627Z" fill="white"/>
<path d="M12.6115 32.2593C11.2716 31.8846 9.79781 31.2101 8.324 30.2359C8.05603 30.086 7.78808 29.8612 7.58711 29.7113C7.31914 29.4865 7.11816 29.3366 6.85019 29.1118C6.71621 29.0368 6.58222 28.887 6.44824 28.812C6.31426 28.6621 6.24726 28.5872 6.11328 28.4373C6.44824 27.3881 7.38611 26.7137 8.65896 26.7886C9.39586 26.7886 10.1998 27.1633 10.8027 27.6879C11.6066 28.3624 12.0755 29.2617 12.4105 30.3108C12.6115 30.9853 12.6785 31.6597 12.6115 32.2593Z" fill="white"/>
<path d="M7.58692 17.4962C7.38594 16.6718 7.05097 15.9224 6.38105 15.4728C5.84512 15.0981 5.17521 14.9482 4.5053 15.0231C2.8975 15.248 1.62465 16.447 1.42368 17.7959C1.35668 18.3954 1.49068 18.995 1.89263 19.5196C2.0936 20.0441 2.49554 20.5687 3.09847 20.9434C3.83538 21.3931 4.70627 21.6179 5.44317 21.3931C6.18008 21.1682 6.84999 20.7186 7.31893 20.0441C7.78787 19.3697 7.78789 18.3954 7.58692 17.4962Z" fill="white"/>
<path d="M7.31888 5.2809C7.31888 6.18019 7.05092 7.15441 6.381 8.0537C5.77808 8.87804 4.97418 9.5525 4.10329 9.92721C3.2324 10.3768 2.29451 10.3768 1.69159 10.152C1.49061 10.0771 1.28965 9.92721 1.22266 9.77732C1.55761 8.35346 2.09354 7.00453 2.83045 5.80548C3.03143 5.50572 3.2324 5.20596 3.43337 4.9062C3.63435 4.68138 3.76832 4.5315 3.9693 4.30668C4.37125 4.00691 4.84021 3.70715 5.24216 3.55727C5.84508 3.25751 6.448 3.18257 6.84995 3.48233C7.18491 3.78209 7.31888 4.45656 7.31888 5.2809Z" fill="white"/>
<path opacity="0.3" d="M36.795 14.7233C36.728 15.5477 36.594 16.372 36.393 17.1964C36.326 17.5711 36.259 17.9458 36.1251 18.3205C35.9911 18.7701 35.8571 19.1448 35.7901 19.5945C35.6561 19.9692 35.5221 20.3439 35.3882 20.7186C35.2542 21.0933 35.1202 21.468 34.9192 21.8427C34.7852 22.2174 34.5842 22.5171 34.4503 22.8919C34.2493 23.2666 34.0483 23.5663 33.9143 23.8661C33.5794 24.5405 33.1104 25.1401 32.7085 25.7396C31.8376 26.8637 30.9667 27.9129 30.0288 28.7372C28.1531 30.4608 26.2103 31.51 24.6025 32.1095C23.7986 32.4093 23.0617 32.6341 22.5258 32.784C21.9228 32.9339 21.4539 33.0088 21.1859 33.0088C20.717 33.0837 20.315 33.1587 20.0471 33.1587H19.9801C19.8461 33.1587 19.7791 33.1587 19.7121 33.1587C19.5781 33.1587 19.5111 33.1587 19.3771 33.2336C19.3102 33.2336 19.2432 33.2336 19.1762 33.3086C18.8412 33.3086 18.3053 33.3086 17.4344 33.2336C17.1664 33.2336 16.8315 33.1587 16.4295 33.1587C16.2955 33.1587 16.2285 33.1587 16.0946 33.0837C15.8266 33.0088 15.4916 33.0088 15.1567 32.9339C14.8217 32.8589 14.4198 32.784 14.0178 32.709C13.6159 32.6341 13.1469 32.4842 12.678 32.3343C11.3381 31.9596 9.86433 31.2852 8.39052 30.3109C8.18954 30.1611 7.98857 30.0112 7.7876 29.9362C7.85459 29.9362 7.92157 29.9362 7.98856 29.9362C9.66336 30.0112 11.4051 30.5358 13.0799 30.6856C15.2907 30.9105 17.6354 31.0604 19.8461 30.7606C25.6074 30.0112 29.9618 26.2642 31.3687 19.7444C32.0386 16.5219 32.4405 13.4494 32.2396 10.077C32.0386 7.07943 31.1677 2.88277 28.823 0.859375C28.89 0.859375 28.957 0.859375 29.0909 0.859375C29.4929 0.934315 29.9618 1.00926 30.4308 1.15914C31.7036 1.53384 32.9095 2.28324 33.9813 3.33241C34.3163 3.63217 34.5843 4.00687 34.8522 4.38157C35.4551 5.20592 35.9911 6.18014 36.259 7.30425C36.594 8.57824 36.795 10.0021 36.929 11.426C36.929 11.7257 36.929 12.0255 36.996 12.2503C36.862 12.9997 36.862 13.899 36.795 14.7233Z" fill="#99ADBF"/>
<path opacity="0.3" d="M21.588 37.9549C21.588 38.1798 21.454 38.4795 21.186 38.7043C20.918 38.9292 20.5831 39.079 20.2481 39.2289C19.9132 39.3788 19.5112 39.4538 19.1093 39.4538C18.9753 39.4538 18.8413 39.4538 18.6403 39.4538C18.9083 39.2289 19.2432 38.9292 19.3772 38.7043C19.9132 37.8051 19.9132 34.8824 18.5063 34.8824C18.7743 34.5826 18.9083 34.4327 19.0423 34.2829C19.3772 33.8332 19.4442 33.6833 19.3772 33.6084C19.3772 33.6833 19.5112 33.8332 19.7122 34.133C19.7792 34.2079 19.9132 34.3578 20.1141 34.5077C20.1811 34.7325 20.2481 34.9573 20.3151 35.2571C20.4491 35.7817 20.7171 36.4561 21.119 37.0557C21.387 37.3554 21.588 37.6552 21.588 37.9549Z" fill="#99ADBF"/>
<g opacity="0.5">
<path d="M3.50045 20.7186C3.50045 20.6436 3.43345 20.4937 3.36646 20.3439C3.29947 20.194 3.29948 19.9692 3.23249 19.7443C3.23249 19.5945 3.16549 19.5195 3.0985 19.3696C3.0985 19.2197 3.0315 19.0699 3.0315 18.9949C2.96451 18.6952 2.89753 18.3954 2.83053 18.0956C2.56257 16.7467 2.42859 15.0231 2.56257 13.3744C2.69655 11.6508 3.0315 10.0021 3.43345 8.72809C3.50045 8.42833 3.63443 8.12857 3.76841 7.82881C3.8354 7.52905 3.96938 7.30423 4.03637 7.07941C4.10337 6.85459 4.17037 6.7047 4.23736 6.55482C4.30435 6.40494 4.37133 6.25506 4.37133 6.18012C4.57231 5.65554 4.50532 5.5806 4.43833 5.50566C4.37134 5.43072 4.30434 5.43072 3.96938 5.88036C3.90239 5.9553 3.8354 6.10518 3.76841 6.18012C3.70142 6.33 3.56744 6.55482 3.50045 6.7047C3.36647 6.92953 3.29947 7.15435 3.16549 7.45411C3.03151 7.75387 2.89753 8.05363 2.83053 8.35339C2.36159 9.70232 1.95964 11.4259 1.82566 13.2245C1.69168 15.0231 1.89265 16.8217 2.22761 18.2455C2.2946 18.6202 2.36159 18.92 2.49558 19.2197C2.56257 19.5195 2.62955 19.8193 2.76354 20.0441C2.83053 20.2689 2.89751 20.4937 2.9645 20.6436C3.0315 20.7935 3.0985 20.9434 3.16549 21.0183C3.43346 21.468 3.56743 21.5429 3.63442 21.468C3.63442 21.393 3.63443 21.2431 3.50045 20.7186Z" fill="white"/>
</g>
<path d="M19.5783 71.9029C19.5113 71.5282 19.3774 70.8537 19.3104 69.8795C19.2434 68.9053 19.2434 67.7062 19.3773 66.2824C19.5113 64.8585 19.7793 63.3597 20.0473 61.6361C20.2482 59.9874 20.4492 58.1888 20.5162 56.3902C20.7172 52.7931 20.5832 49.2709 20.3822 46.4232C20.1812 43.5754 19.9803 41.4022 19.9133 40.6528C19.7793 39.5287 19.6453 39.3788 19.5783 39.4537C19.5113 39.4537 19.4443 39.6036 19.4443 40.7277C19.4443 41.4771 19.5783 43.6504 19.7123 46.4981C19.8463 49.3458 19.9133 52.868 19.7793 56.3902C19.7123 58.1139 19.5113 59.9124 19.3104 61.5611C19.1094 63.2098 18.8414 64.7836 18.7074 66.2074C18.5734 67.6313 18.5734 68.9053 18.7074 69.9544C18.8414 71.0036 19.0424 71.6781 19.1764 72.0528C19.3773 72.5774 19.5113 72.8771 19.6453 73.027C19.7793 73.1769 19.8463 73.1769 19.8463 73.1769C19.9133 73.1769 19.9133 73.1019 19.8463 72.8771C19.7793 72.7272 19.7123 72.4275 19.5783 71.9029Z" fill="#4F525D"/>
</svg>
