<svg width="79" height="37" viewBox="0 0 79 37" fill="none" xmlns="http://www.w3.org/2000/svg">
<path d="M77.7176 16.8417C77.5172 17.7533 77.1166 18.513 76.6491 19.1207C76.1817 19.7284 75.6475 20.1082 75.2468 20.4121C74.8461 20.716 74.4455 20.7919 74.3119 20.8679C74.0448 20.9439 73.9113 21.0198 73.7777 21.0958C73.7109 21.1718 73.6442 21.1718 73.6442 21.2477C73.6442 21.3237 73.6442 21.3237 73.7777 21.3997C73.8445 21.3997 73.9113 21.3997 73.978 21.3997V21.4756C73.978 21.6276 73.978 21.7795 73.978 22.1593C73.978 22.6151 74.0448 23.9065 73.4438 25.5018C73.1099 26.2615 72.6425 27.0971 72.0415 27.7808C71.4405 28.4645 70.6392 29.0722 69.7711 29.452C68.903 29.9078 67.9681 30.1357 67.1 30.2876C66.2319 30.4396 65.3638 30.5155 64.6292 30.4396C63.8947 30.3636 63.2269 30.2117 62.7595 30.0598C62.292 29.8319 61.9582 29.6039 61.7578 29.528C61.4907 29.3761 61.3572 29.3001 61.2904 29.2241C61.2236 29.1482 61.1568 29.2241 61.0901 29.2241C61.0901 29.2241 61.0233 29.3001 61.0901 29.3761C61.1568 29.452 61.2236 29.6799 61.4907 29.9078C61.5575 29.9838 61.6911 30.0598 61.8246 30.2117C61.6911 30.2876 61.4907 30.4396 61.0901 30.8194C60.6226 31.1992 59.4206 32.4147 57.5509 33.5542C56.616 34.0859 55.5475 34.6937 54.3456 35.0735C53.1436 35.4533 51.8748 35.7572 50.5393 35.8331C49.2037 35.9091 47.9349 35.8331 46.6662 35.5293C45.4642 35.3014 44.329 34.8456 43.3273 34.4658C41.324 33.5542 39.9885 32.5666 39.521 32.2628C39.0536 31.9589 38.8533 31.807 38.7197 31.807C38.7197 31.807 38.7197 31.807 38.7197 31.731C38.6529 31.655 38.5194 31.655 37.9184 32.1108C37.5177 32.4147 36.3825 33.2503 34.7131 33.858C33.845 34.1619 32.9101 34.3898 31.8417 34.5417C30.7732 34.6937 29.7048 34.6177 28.6364 34.3898C26.4995 34.01 24.4962 32.7945 23.0938 31.655C21.6915 30.4396 20.8234 29.2241 20.4895 28.8443C20.356 28.6924 20.2224 28.5404 20.1556 28.4645C20.2224 28.4645 20.2224 28.3885 20.2892 28.3885C20.8902 28.0087 20.957 27.7808 20.8902 27.7048C20.8234 27.6288 20.7566 27.6288 20.0889 27.8567C19.6882 28.0087 18.4862 28.5404 16.8836 28.8443C16.0822 28.9962 15.1474 29.0722 14.1457 28.9962C13.2108 28.9203 12.1424 28.6924 11.2743 28.2366C10.3394 27.7808 9.53808 27.0971 8.80353 26.3374C8.06898 25.5778 7.53477 24.7422 7.06733 23.9825C6.19922 22.3872 5.86534 21.0198 5.66501 20.564C5.46467 19.8803 5.33112 19.8044 5.26434 19.8044C5.19757 19.8044 5.13079 19.8803 5.19757 20.564C5.19757 20.564 5.19756 20.564 5.13079 20.564C5.06401 20.564 4.99724 20.4881 4.86368 20.4881C4.73013 20.4881 4.59657 20.4121 4.46301 20.3361C4.26268 20.2602 3.86202 20.1082 3.32781 19.7284C2.86036 19.3486 2.25937 18.8168 1.79193 17.9812C1.32449 17.1456 0.990605 16.158 0.923828 15.0185C0.923828 14.8666 0.923828 14.7147 0.923828 14.6387C0.923828 13.6512 1.12416 12.5876 1.45804 11.6001C1.85871 10.5366 2.52648 9.54901 3.26103 8.78936C3.99558 8.0297 4.86368 7.49793 5.66501 7.19407C7.26766 6.51038 8.6032 6.51038 9.07064 6.43441C9.67163 6.35845 9.80519 6.35845 9.87197 6.20652V6.28249C9.87197 6.28249 9.93874 6.28248 10.0723 6.20652C10.2059 6.13055 10.4062 5.90266 10.8068 5.52283C11.074 5.29493 11.6082 4.83913 12.4095 4.30737C12.8102 4.07948 13.2776 3.85158 13.8118 3.62369C14.346 3.47175 14.947 3.31982 15.548 3.24386C16.149 3.16789 16.8836 3.16788 17.5513 3.31982C18.2859 3.39578 18.9537 3.69965 19.6214 4.00351C19.9553 4.15545 20.4228 4.38334 20.8902 4.38334C21.4244 4.38334 21.8251 4.07948 22.2257 3.85159C22.5596 3.54772 22.8935 3.31983 23.2274 3.09193C23.5613 2.86403 23.8952 2.63613 24.2958 2.40823C25.7649 1.57261 27.3008 1.19278 28.8367 1.04085C29.5712 0.964879 30.3726 1.04085 31.0403 1.11682C31.7081 1.26875 32.3759 1.42068 32.9769 1.64857C34.1789 2.10437 35.2473 2.7121 35.9818 3.24386C36.7832 3.77562 37.3174 4.2314 37.5845 4.4593C37.9852 4.76316 38.2523 4.99107 38.3858 5.143C38.5194 5.21897 38.5861 5.21896 38.6529 5.21896C38.6529 5.21896 38.6529 5.143 38.5861 4.9151C38.5194 4.83913 38.4526 4.76317 38.3858 4.61124C38.4526 4.53528 38.5861 4.4593 38.7197 4.30737C39.0536 4.00351 39.8549 3.01596 41.324 2.2563C42.7263 1.49664 44.6629 0.964882 46.5994 0.888916C47.6011 0.888916 48.5359 0.964889 49.4708 1.19279C50.3389 1.42068 51.207 1.8005 51.8748 2.18033C53.2771 3.01595 54.0784 4.00351 54.3456 4.30737C54.4791 4.4593 54.6127 4.53528 54.6794 4.61124C54.6127 4.68721 54.5459 4.68721 54.5459 4.76317C54.0117 5.21897 53.9449 5.44686 54.0117 5.52283C54.0784 5.59879 54.212 5.59879 54.813 5.21896C55.2137 4.99106 56.3489 4.23141 57.9515 3.62369C58.7529 3.31982 59.6877 3.01596 60.6894 2.78806C61.691 2.56016 62.7595 2.4842 63.7611 2.63613C64.8296 2.78806 65.8312 3.09192 66.6993 3.54772C67.5674 4.07948 68.4355 4.61123 69.0365 5.21896C70.3053 6.43441 70.8395 7.80179 71.0398 8.25759C71.307 8.94128 71.4405 9.01725 71.5073 8.94129C71.5741 8.94129 71.5741 8.86532 71.5741 8.71339C71.6408 8.71339 71.7744 8.71339 71.9747 8.71339C72.1751 8.71339 72.5089 8.63742 73.0432 8.71339C73.5106 8.78935 74.1784 8.86531 74.7794 9.24514C75.0465 9.39707 75.3804 9.549 75.6475 9.7769C75.9814 10.0808 76.3152 10.3846 76.6491 10.8404C77.1834 11.6001 77.584 12.5117 77.7176 13.4992C77.9847 14.8666 77.9847 15.9301 77.7176 16.8417Z" fill="white"/>
<path opacity="0.2" d="M18.6201 21.0198C18.1527 21.0958 16.4832 22.3112 17.2178 22.691C17.6185 22.9189 18.353 22.4632 18.7537 22.4632C19.4214 22.3872 20.0892 22.3872 20.757 22.4632C22.4932 22.6151 23.9623 24.0584 24.9639 25.5777C25.2978 26.0335 26.1659 26.7932 26.0992 25.6537C26.0324 24.8941 25.6985 24.2863 25.2978 23.6786C24.4965 22.4632 23.5616 21.3237 22.2261 20.8679C21.0909 20.488 18.8872 20.488 18.6201 21.0198Z" fill="#99ADBF"/>
<path opacity="0.2" d="M67.4342 20.8678C66.5661 20.6399 65.5644 20.7918 64.6963 21.1717C64.3625 21.3236 63.0937 21.9313 63.5611 22.5391C63.5611 22.5391 63.5611 22.5391 63.4944 22.615C63.0937 22.4631 62.3591 22.3871 61.8917 22.3112C60.89 22.2352 59.8884 22.4631 58.9535 22.767C58.0854 22.9949 57.3509 23.4507 56.5495 23.9824C56.0821 24.2863 55.6814 24.5901 55.4143 25.1219C55.1472 25.5777 55.2808 26.1854 55.815 26.0335C56.416 25.8816 57.017 25.1219 57.618 24.818C58.2857 24.5142 59.0871 24.2103 59.7548 23.9824C60.7565 23.7545 61.8249 23.6786 62.8266 23.9064C63.6279 24.0584 64.3625 24.3622 65.1638 24.4382C65.6312 24.5142 66.8332 24.5901 66.2322 23.6785C66.0319 23.3747 65.5644 23.2987 65.4977 22.8429C65.4309 22.4631 65.7648 22.0073 66.0319 21.8554C66.4993 21.5515 67.1671 21.5515 67.501 21.0957C67.5678 21.0198 67.501 20.9438 67.4342 20.8678Z" fill="#99ADBF"/>
<path d="M78.5191 13.727C78.3188 12.5875 77.8514 11.6 77.2504 10.7643C76.6494 9.92872 75.848 9.321 75.1135 9.01713C74.379 8.6373 73.6444 8.56135 73.1102 8.56135C72.576 8.56135 72.1753 8.63731 71.975 8.71327C71.8414 8.78924 71.7079 8.78924 71.6411 8.8652C71.6411 8.78924 71.5743 8.71328 71.5743 8.56135C71.5075 8.25748 71.374 7.80169 71.0401 7.19396C70.7062 6.58623 70.2388 5.82658 69.571 5.14289C68.9032 4.4592 68.0351 3.85147 67.1002 3.31971C66.1654 2.78795 65.0301 2.40813 63.8949 2.33216C62.7597 2.18023 61.6245 2.25619 60.6229 2.48409C59.5544 2.71199 58.6195 3.01585 57.8182 3.39568C56.5495 3.85147 55.6146 4.4592 55.0803 4.91499C55.0136 4.76306 54.9468 4.61112 54.8132 4.45919C54.5461 4.07936 53.7448 2.93988 52.2757 2.02829C51.5412 1.5725 50.6731 1.19267 49.7382 0.888805C48.8033 0.660908 47.7349 0.508981 46.7332 0.584947C44.6631 0.660913 42.6598 1.19267 41.1907 2.10426C39.7216 2.93988 38.7867 4.07936 38.5864 4.45919C38.5196 4.61112 38.4528 4.76305 38.3861 4.83902C38.3193 4.76305 38.2525 4.68709 38.1189 4.53516C37.5847 4.0034 35.9821 2.48408 33.4445 1.42056C32.7768 1.19267 32.109 0.964778 31.3745 0.812846C30.6399 0.660915 29.8386 0.660906 29.0373 0.660906C27.4346 0.736871 25.7652 1.19267 24.2293 2.10426C23.8286 2.33216 23.4947 2.56005 23.0941 2.78795C22.7602 3.01584 22.3595 3.31971 22.0924 3.5476C21.7585 3.7755 21.4914 3.92743 21.1575 3.92743C20.8237 3.92743 20.4898 3.77551 20.1559 3.62357C19.4213 3.24375 18.62 3.01585 17.8855 2.86392C17.1509 2.78795 16.4164 2.78795 15.6818 2.86392C15.014 2.93988 14.3463 3.16777 13.8121 3.31971C13.2778 3.5476 12.7436 3.7755 12.343 4.07936C11.5416 4.61112 11.0074 5.14288 10.7403 5.44675C10.3396 5.90254 10.2061 6.13044 10.1393 6.35833C10.1393 6.4343 10.0725 6.43431 10.0725 6.51027C10.0725 6.43431 9.93898 6.35834 9.27121 6.28237C8.80377 6.20641 7.40145 6.20641 5.59846 6.8901C4.73036 7.26993 3.79548 7.80168 2.92738 8.6373C2.12605 9.47293 1.3915 10.5365 0.924063 11.7519C0.456623 12.9674 0.25629 14.3347 0.323068 15.5502C0.389845 16.8416 0.857284 17.9811 1.3915 18.8927C1.92572 19.8043 2.59349 20.412 3.19449 20.7159C3.79548 21.0957 4.26292 21.1717 4.53003 21.2476C4.73036 21.2476 4.86391 21.2476 4.99747 21.2476C5.13102 21.2476 5.1978 21.2476 5.26458 21.1716C5.33136 21.1716 5.33136 21.1716 5.33136 21.1716C5.39813 21.7794 5.73202 23.1468 6.60012 24.742C7.06756 25.5777 7.66856 26.4892 8.4031 27.3249C9.13765 28.1605 10.0725 28.8442 11.0742 29.3759C12.0758 29.9077 13.2111 30.1356 14.2127 30.1356C15.2144 30.2116 16.216 30.0596 17.0841 29.9077C18.3529 29.6798 19.3546 29.224 19.9556 28.9202C20.0223 29.0721 20.0891 29.224 20.2227 29.4519C20.4898 29.9077 21.2911 31.1991 22.7602 32.4905C24.2293 33.782 26.2994 35.0734 28.6366 35.4532C29.7718 35.6811 30.9738 35.6811 32.0422 35.6051C33.1107 35.4532 34.1791 35.1493 35.0472 34.8455C36.7834 34.1618 37.9186 33.1742 38.3193 32.7944C38.5864 32.5665 38.7199 32.3386 38.7867 32.2626C38.8535 32.4146 39.0538 32.5665 39.3877 32.9463C39.8552 33.4021 41.1907 34.4656 43.194 35.4532C44.1957 35.909 45.3977 36.3648 46.6664 36.6687C47.9352 36.9725 49.3375 37.0485 50.6731 36.9725C52.0754 36.8965 53.4109 36.5927 54.6129 36.1369C55.8817 35.6811 57.0169 35.0734 57.9518 34.4656C59.8883 33.2502 61.0903 31.8828 61.491 31.427C61.8916 30.9712 62.0252 30.6674 62.0252 30.5154C62.1587 30.5914 62.3591 30.7433 62.5594 30.8193C63.0936 31.0472 63.7614 31.2751 64.6295 31.3511C65.4308 31.427 66.3657 31.3511 67.3006 31.1991C68.2355 31.0472 69.2371 30.7433 70.172 30.2875C71.1069 29.8317 71.975 29.224 72.6427 28.3884C73.3105 27.6287 73.8447 26.7171 74.1786 25.8056C74.5125 24.9699 74.6461 24.1343 74.6461 23.4506C74.6461 22.7669 74.6461 22.3111 74.5793 22.0832C74.5125 21.7034 74.4457 21.5515 74.3789 21.3995C74.4457 21.3995 74.5125 21.3995 74.5793 21.3995C74.7796 21.3995 75.1803 21.2476 75.7145 21.0197C76.2487 20.7918 76.7829 20.336 77.3839 19.6523C77.9181 18.9686 78.4524 18.133 78.6527 17.0695C78.7195 16.006 78.7195 14.7905 78.5191 13.727ZM77.7178 16.8416C77.5175 17.7532 77.1168 18.5128 76.6494 19.1206C76.1819 19.7283 75.6477 20.1081 75.2471 20.412C74.8464 20.7159 74.4457 20.7918 74.3122 20.8678C74.0451 20.9438 73.9115 21.0197 73.778 21.0957C73.7112 21.1717 73.6444 21.1717 73.6444 21.2476C73.6444 21.3236 73.6444 21.3236 73.778 21.3995C73.8447 21.3995 73.9115 21.3995 73.9783 21.3995V21.4755C73.9783 21.6274 73.9783 21.7794 73.9783 22.1592C73.9783 22.615 74.0451 23.9064 73.4441 25.5017C73.1102 26.2614 72.6427 27.097 72.0417 27.7807C71.4408 28.4644 70.6394 29.0721 69.7713 29.4519C68.9032 29.9077 67.9683 30.1356 67.1002 30.2875C66.2321 30.4395 65.364 30.5154 64.6295 30.4395C63.8949 30.3635 63.2272 30.2116 62.7597 30.0596C62.2923 29.8317 61.9584 29.6038 61.7581 29.5279C61.491 29.3759 61.3574 29.3 61.2906 29.224C61.2239 29.148 61.1571 29.224 61.0903 29.224C61.0903 29.224 61.0235 29.3 61.0903 29.3759C61.1571 29.4519 61.2239 29.6798 61.491 29.9077C61.5577 29.9837 61.6913 30.0596 61.8248 30.2116C61.6913 30.2875 61.491 30.4395 61.0903 30.8193C60.6229 31.1991 59.4209 32.4146 57.5511 33.5541C56.6162 34.0858 55.5478 34.6935 54.3458 35.0734C53.1438 35.4532 51.875 35.7571 50.5395 35.833C49.204 35.909 47.9352 35.833 46.6664 35.5292C45.4644 35.3013 44.3292 34.8455 43.3276 34.4656C41.3243 33.5541 39.9887 32.5665 39.5213 32.2626C39.0538 31.9588 38.8535 31.8068 38.7199 31.8068C38.7199 31.8068 38.7199 31.8068 38.7199 31.7309C38.6532 31.6549 38.5196 31.6549 37.9186 32.1107C37.518 32.4146 36.3827 33.2502 34.7133 33.8579C33.8452 34.1618 32.9103 34.3897 31.8419 34.5416C30.7735 34.6935 29.705 34.6176 28.6366 34.3897C26.4997 34.0099 24.4964 32.7944 23.0941 31.6549C21.6918 30.4395 20.8237 29.224 20.4898 28.8442C20.3562 28.6923 20.2227 28.5403 20.1559 28.4644C20.2227 28.4644 20.2227 28.3884 20.2894 28.3884C20.8904 28.0086 20.9572 27.7807 20.8904 27.7047C20.8237 27.6287 20.7569 27.6287 20.0891 27.8566C19.6884 28.0086 18.4865 28.5403 16.8838 28.8442C16.0825 28.9961 15.1476 29.0721 14.1459 28.9961C13.2111 28.9201 12.1426 28.6923 11.2745 28.2365C10.3396 27.7807 9.53832 27.097 8.80377 26.3373C8.06922 25.5777 7.535 24.742 7.06756 23.9824C6.19946 22.3871 5.86557 21.0197 5.66524 20.5639C5.46491 19.8802 5.33136 19.8043 5.26458 19.8043C5.1978 19.8043 5.13103 19.8802 5.1978 20.5639C5.1978 20.5639 5.1978 20.5639 5.13102 20.5639C5.06424 20.5639 4.99747 20.488 4.86392 20.488C4.73036 20.488 4.5968 20.412 4.46325 20.336C4.26292 20.2601 3.86226 20.1081 3.32804 19.7283C2.8606 19.3485 2.25961 18.8167 1.79217 17.9811C1.32473 17.1455 0.99084 16.1579 0.924063 15.0184C0.857286 13.8789 1.05762 12.6635 1.45828 11.6C1.85894 10.5365 2.52672 9.5489 3.26126 8.78924C3.99581 8.02959 4.86392 7.49782 5.66524 7.19396C7.26789 6.51027 8.60344 6.51027 9.07088 6.4343C9.67187 6.35834 9.80543 6.35834 9.87221 6.2064V6.28237C9.87221 6.28237 9.93898 6.28237 10.0725 6.2064C10.2061 6.13044 10.4064 5.90255 10.8071 5.52272C11.0742 5.29482 11.6084 4.83902 12.4097 4.30726C12.8104 4.07936 13.2778 3.85147 13.8121 3.62357C14.3463 3.47164 14.9473 3.31971 15.5483 3.24375C16.1493 3.16778 16.8838 3.16777 17.5516 3.31971C18.2861 3.39567 18.9539 3.69954 19.6217 4.0034C19.9556 4.15533 20.423 4.38323 20.8904 4.38323C21.4247 4.38323 21.8253 4.07937 22.226 3.85147C22.5599 3.54761 22.8938 3.31971 23.2276 3.09182C23.5615 2.86392 23.8954 2.63602 24.2961 2.40812C25.7652 1.5725 27.301 1.19267 28.8369 1.04073C29.5715 0.964768 30.3728 1.04074 31.0406 1.1167C31.7083 1.26864 32.3761 1.42056 32.9771 1.64846C34.1791 2.10426 35.2475 2.71199 35.9821 3.24375C36.7834 3.77551 37.3176 4.23129 37.5847 4.45919C37.9854 4.76305 38.2525 4.99096 38.3861 5.14289C38.5196 5.21885 38.5864 5.21885 38.6532 5.21885C38.6532 5.21885 38.6532 5.14289 38.5864 4.91499C38.5196 4.83902 38.4528 4.76306 38.3861 4.61113C38.4528 4.53517 38.5864 4.45919 38.7199 4.30726C39.0538 4.0034 39.8552 3.01585 41.3243 2.25619C42.7266 1.49653 44.6631 0.964771 46.5997 0.888805C47.6013 0.888805 48.5362 0.964778 49.4711 1.19267C50.3392 1.42057 51.2073 1.80039 51.875 2.18022C53.2774 3.01584 54.0787 4.0034 54.3458 4.30726C54.4794 4.45919 54.6129 4.53517 54.6797 4.61113C54.6129 4.6871 54.5461 4.68709 54.5461 4.76306C54.0119 5.21885 53.9451 5.44675 54.0119 5.52272C54.0787 5.59868 54.2122 5.59868 54.8132 5.21885C55.2139 4.99095 56.3491 4.2313 57.9518 3.62357C58.7531 3.31971 59.688 3.01584 60.6896 2.78795C61.6913 2.56005 62.7597 2.48409 63.7614 2.63602C64.8298 2.78795 65.8315 3.09181 66.6996 3.5476C67.5677 4.07936 68.4358 4.61112 69.0368 5.21885C70.3055 6.4343 70.8398 7.80168 71.0401 8.25748C71.3072 8.94117 71.4408 9.01714 71.5075 8.94117C71.5743 8.94117 71.5743 8.86521 71.5743 8.71327C71.6411 8.71327 71.7746 8.71327 71.975 8.71327C72.1753 8.71327 72.5092 8.63731 73.0434 8.71327C73.5108 8.78924 74.1786 8.8652 74.7796 9.24503C75.4474 9.5489 76.1152 10.0807 76.5826 10.8403C77.1168 11.6 77.5175 12.5116 77.651 13.4991C77.9849 14.8665 77.9849 15.93 77.7178 16.8416Z" fill="#4F525D"/>
<path d="M25.3644 23.2987C24.897 22.4631 24.0956 21.6274 23.094 21.0197C22.0923 20.4879 21.0239 20.2601 20.1558 20.336C19.2877 20.412 18.6867 20.7158 18.4863 20.8678C18.2192 21.0957 18.2192 21.1716 18.2192 21.3236C18.2192 21.3995 18.286 21.4755 18.6199 21.3995C18.8202 21.3236 19.4212 21.1716 20.1558 21.1716C20.9571 21.1716 21.892 21.3236 22.7601 21.8553C23.6282 22.3111 24.296 23.0708 24.7634 23.8304C25.2308 24.5141 25.4979 25.1219 25.6315 25.3498C25.8318 25.6536 25.8986 25.6536 25.9654 25.6536C26.0322 25.6536 26.0989 25.5777 26.0322 25.1219C26.0322 24.818 25.8318 24.0583 25.3644 23.2987Z" fill="#4F525D"/>
<path d="M66.6996 20.4879C66.6329 20.4119 66.3658 20.3359 65.9651 20.3359C65.6312 20.3359 65.1638 20.4119 64.6963 20.6398C64.2957 20.8677 63.895 21.0956 63.6279 21.3995C63.3608 21.7033 63.2272 21.9312 63.1605 22.0832C63.1605 22.1591 63.1605 22.1591 63.1605 22.2351C62.3591 21.9312 61.3575 21.7793 60.4226 21.9312C59.2206 22.0072 58.0186 22.5389 57.2173 23.1467C56.416 23.7544 55.8818 24.2861 55.7482 24.59C55.5479 24.9698 55.5479 25.0458 55.6146 25.1218C55.6814 25.1977 55.7482 25.1977 56.0821 24.9698C56.2824 24.8179 56.8166 24.2861 57.618 23.8304C58.4193 23.3746 59.4877 22.9188 60.5562 22.8428C61.6246 22.7668 62.7598 22.9188 63.5611 23.2986C64.4292 23.6025 64.9634 24.0583 65.2306 24.1342C65.5644 24.2862 65.6312 24.2861 65.698 24.2102C65.7648 24.1342 65.7648 24.0583 65.4977 23.6784C65.2973 23.4505 64.6963 22.9947 63.8282 22.5389C63.7615 22.5389 63.7615 22.5389 63.6947 22.463C63.7615 22.387 63.9618 22.2351 64.1621 22.0832C64.4292 21.8553 64.7631 21.6274 65.097 21.4754C65.4309 21.3235 65.8315 21.2475 66.0987 21.1716C66.3658 21.0956 66.6329 21.0956 66.6996 21.0956C66.8332 21.0196 66.9 20.9437 66.9 20.8677C66.8332 20.6398 66.8332 20.5638 66.6996 20.4879Z" fill="#4F525D"/>
<path opacity="0.2" d="M77.7176 16.8416C77.5172 17.7531 77.1166 18.5128 76.6491 19.1205C76.1817 19.7282 75.6475 20.1081 75.2468 20.4119C74.8461 20.7158 74.4455 20.7918 74.3119 20.8677C74.0448 20.9437 73.9113 21.0197 73.7777 21.0956C73.7109 21.1716 73.6442 21.1716 73.6442 21.2476C73.6442 21.3235 73.6442 21.3235 73.7777 21.3995C73.8445 21.3995 73.9113 21.3995 73.978 21.3995V21.4755C73.978 21.6274 73.978 21.7793 73.978 22.1592C73.978 22.6149 74.0448 23.9064 73.4438 25.5016C73.1099 26.2613 72.6425 27.0969 72.0415 27.7806C71.4405 28.4643 70.6392 29.072 69.7711 29.4519C68.903 29.9077 67.9681 30.1355 67.1 30.2875C66.2319 30.4394 65.3638 30.5154 64.6292 30.4394C63.8947 30.3635 63.2269 30.2115 62.7595 30.0596C62.292 29.8317 61.9582 29.6038 61.7578 29.5278C61.4907 29.3759 61.3572 29.2999 61.2904 29.224C61.2236 29.148 61.1568 29.224 61.0901 29.224C61.0901 29.224 61.0233 29.2999 61.0901 29.3759C61.1568 29.4519 61.2236 29.6798 61.4907 29.9077C61.5575 29.9836 61.6911 30.0596 61.8246 30.2115C61.6911 30.2875 61.4907 30.4394 61.0901 30.8192C60.6226 31.1991 59.4206 32.4145 57.5509 33.554C56.616 34.0858 55.5475 34.6935 54.3456 35.0733C53.1436 35.4531 51.8748 35.757 50.5393 35.833C49.2037 35.9089 47.9349 35.833 46.6662 35.5291C45.4642 35.3012 44.329 34.8454 43.3273 34.4656C41.324 33.554 39.9885 32.5665 39.521 32.2626C39.0536 31.9587 38.8533 31.8068 38.7197 31.8068C38.7197 31.8068 38.7197 31.8068 38.7197 31.7308C38.6529 31.6549 38.5194 31.6549 37.9184 32.1107C37.5177 32.4145 36.3825 33.2502 34.7131 33.8579C33.845 34.1617 32.9101 34.3896 31.8417 34.5416C30.7732 34.6935 29.7048 34.6175 28.6364 34.3896C26.4995 34.0098 24.4962 32.7943 23.0938 31.6549C21.6915 30.4394 20.8234 29.224 20.4895 28.8441C20.356 28.6922 20.2224 28.5403 20.1556 28.4643C20.2224 28.4643 20.2224 28.3883 20.2892 28.3883C20.8902 28.0085 20.957 27.7806 20.8902 27.7046C20.8234 27.6287 20.7566 27.6287 20.0889 27.8566C19.6882 28.0085 18.4862 28.5403 16.8836 28.8441C16.0822 28.9961 15.1474 29.072 14.1457 28.9961C13.2108 28.9201 12.1424 28.6922 11.2743 28.2364C10.3394 27.7806 9.53808 27.0969 8.80353 26.3373C8.06898 25.5776 7.53477 24.742 7.06733 23.9823C6.19922 22.3871 5.86534 21.0197 5.66501 20.5639C5.46467 19.8802 5.33112 19.8042 5.26434 19.8042C5.19757 19.8042 5.13079 19.8802 5.19757 20.5639C5.19757 20.5639 5.19756 20.5639 5.13079 20.5639C5.06401 20.5639 4.99724 20.4879 4.86368 20.4879C4.73013 20.4879 4.59657 20.4119 4.46301 20.336C4.26268 20.26 3.86202 20.1081 3.32781 19.7283C2.86036 19.3484 2.25937 18.8167 1.79193 17.981C1.32449 17.1454 0.990605 16.1579 0.923828 15.0184C0.923828 14.8664 0.923828 14.7145 0.923828 14.6386C1.19094 14.7905 1.39127 15.0184 1.65838 15.3222C2.39292 16.2338 2.92714 17.0695 4.06235 17.4493C4.86368 17.6772 5.93212 17.2214 6.59989 17.7531C7.20088 18.2089 7.26766 19.2725 7.40121 19.9562C7.60154 21.0197 7.93543 21.8553 8.40287 22.7669C9.67163 25.0459 12.2092 26.2613 14.5464 26.1853C16.149 26.1094 17.6181 25.7295 19.0204 24.8939C19.8885 24.3622 20.8902 23.6025 21.8919 24.0583C22.5596 24.3622 22.6932 25.0459 22.9603 25.8055C23.2942 26.7171 23.6948 27.7046 24.2291 28.4643C26.032 31.275 30.4393 31.5789 33.1104 30.8192C34.7798 30.3635 36.1822 29.5278 37.4509 28.3124C38.2523 27.4768 39.0536 27.3248 39.9217 28.2364C41.0569 29.4519 41.925 30.6673 43.3273 31.5789C45.4642 32.8703 47.8014 33.1742 50.2054 33.0982C53.4107 33.0223 57.818 32.0347 59.8881 28.9201C60.7562 27.6287 60.8897 25.8815 62.5591 26.7171C64.4957 27.7046 66.8329 28.2364 68.903 27.021C70.6392 25.9574 71.7076 23.4506 71.8412 21.2476C71.908 20.6398 71.7076 19.4244 71.9747 18.8926C72.2418 18.2849 72.8428 18.5888 73.377 18.5128C74.9129 18.4368 76.1817 17.2214 76.5824 15.4742C76.983 13.727 76.5156 11.7518 75.8478 10.0046C76.1817 10.3085 76.5156 10.6124 76.8495 11.0682C77.3837 11.8278 77.7843 12.7394 77.9179 13.727C77.9847 14.8665 77.9847 15.93 77.7176 16.8416Z" fill="#99ADBF"/>
</svg>
