<svg width="86" height="45" viewBox="0 0 86 45" fill="none" xmlns="http://www.w3.org/2000/svg">
<path d="M84.3937 28.7943C84.1257 29.6186 83.7237 30.443 83.2548 31.1924C82.9868 31.5671 82.7859 31.9418 82.5179 32.2416C82.3839 32.3914 82.25 32.5413 82.116 32.7661C81.982 32.916 81.848 33.0659 81.714 33.2158C80.5751 34.4148 79.3693 35.3141 78.1634 35.9136C76.9576 36.5132 75.8187 36.8129 74.9479 36.8129C74.4789 36.8879 74.077 36.8129 73.809 36.8129C73.474 36.8129 73.2061 36.738 73.0721 36.738C72.8041 36.738 72.6031 36.663 72.4692 36.5881C72.3352 36.5881 72.2682 36.5132 72.2012 36.5132C72.4691 35.8387 72.4691 35.6888 72.3352 35.6139C72.2682 35.5389 72.1342 35.6888 71.5983 36.5881C71.2633 37.1127 70.2584 38.8363 68.4497 40.4101C67.5118 41.1595 66.4399 41.9089 65.1671 42.5084C63.8942 43.1079 62.5544 43.4826 61.0806 43.7074C59.6738 43.9323 58.1999 43.8573 56.8601 43.7074C55.5203 43.4826 54.2474 43.1079 53.1756 42.6583C51.0318 41.684 49.692 40.485 49.1561 40.0354C48.4192 39.4358 48.2852 39.3609 48.2182 39.5108C48.1512 39.5857 48.1512 39.7356 48.7541 40.4101C48.6201 40.485 48.4861 40.5599 48.2852 40.7098C48.1512 40.7848 48.0172 40.8597 47.8162 41.0096C47.6153 41.0845 47.4143 41.2344 47.0793 41.3843C46.9453 41.4592 46.8114 41.5342 46.6774 41.6091C46.5434 41.6841 46.3424 41.759 46.2084 41.8339C45.8735 41.9838 45.4715 42.2086 45.0696 42.3585C43.3948 43.033 41.2511 43.4077 39.0403 43.3327C36.8296 43.1829 34.6859 42.5084 33.1451 41.684C33.0111 41.6091 32.9441 41.6091 32.8771 41.5342C32.8101 41.4592 32.6761 41.4592 32.6091 41.3843C32.4082 41.3093 32.2742 41.1595 32.0732 41.0845C31.7382 40.9346 31.4703 40.7098 31.2023 40.485C30.9343 40.3351 30.7334 40.1852 30.5324 40.0354C30.3314 39.8855 30.1974 39.8105 30.1304 39.7356C29.5275 39.286 29.3935 39.286 29.3265 39.4358C29.3265 39.5108 29.2596 39.5108 29.3935 39.6607C29.2596 39.7356 29.0586 39.8105 28.7236 40.0354C28.5896 40.1103 28.3886 40.2602 28.1877 40.4101C27.9867 40.5599 27.6517 40.7098 27.3168 40.8597C26.6469 41.1595 25.776 41.5342 24.7041 41.759C22.6274 42.2836 19.9477 42.2086 17.335 41.684C17.0001 41.6091 16.6651 41.5342 16.3302 41.4592C15.9952 41.3843 15.6602 41.3093 15.3923 41.2344C14.7893 41.0845 14.1864 40.7848 13.5835 40.5599C12.4446 40.0354 11.4398 39.3609 10.5689 38.6115C9.76498 37.8621 9.09505 37.1127 8.6931 36.5132C8.55911 36.3633 8.49213 36.2134 8.42514 36.0635C8.35814 35.9136 8.29116 35.7638 8.22417 35.6888C8.09019 35.464 8.0232 35.2392 7.95621 35.0893C7.88921 35.0144 7.88921 34.8645 7.82221 34.7895C7.82221 34.7146 7.75522 34.6396 7.75522 34.5647C7.68823 34.4148 7.68824 34.3399 7.62125 34.265C7.55426 34.1151 7.48725 34.1151 7.42026 34.1151C7.35327 34.1151 7.35326 34.19 7.35326 34.3399C7.35326 34.4148 7.35326 34.5647 7.35326 34.7146C7.35326 34.7895 7.35327 34.8645 7.42026 35.0144C7.42026 35.0893 7.48726 35.2392 7.48726 35.3141C7.55425 35.464 7.62123 35.6888 7.68822 35.9886C7.55424 35.9136 7.42026 35.8387 7.1523 35.7638C6.68336 35.5389 5.34353 35.0144 3.93671 33.6654C3.26679 32.991 2.52987 32.0917 2.06093 31.0425C1.65898 29.9933 1.45801 28.6444 1.45801 27.3704C1.45801 27.1456 1.45801 26.8459 1.45801 26.621C1.59199 24.2979 2.19491 22.0497 2.99881 20.401C3.46775 19.5017 3.93669 18.8272 4.40564 18.3026C4.87458 17.7781 5.27653 17.5532 5.47751 17.4034C5.74547 17.1785 5.94644 17.0287 6.01343 16.9537C6.08042 16.8788 6.08043 16.8038 6.08043 16.7289C6.08043 16.654 6.01344 16.654 5.87946 16.654C5.81247 16.654 5.74548 16.654 5.6115 16.7289C5.67849 16.579 5.67848 16.3542 5.74547 16.0544C5.87945 15.4549 6.14743 13.7313 7.21929 11.8578C7.75523 10.8836 8.49212 9.90932 9.36301 9.08498C10.2339 8.18569 11.3058 7.43629 12.4446 6.91171C13.5835 6.31219 14.7894 5.93749 15.9282 5.7876C17.0671 5.63772 18.2059 5.63773 19.2108 5.86255C20.2157 6.08737 21.0196 6.38713 21.6225 6.68689C21.9575 6.83677 22.2254 6.98665 22.4264 7.13653C22.6274 7.28641 22.8283 7.36135 22.8953 7.43629C23.5653 7.88593 23.6992 7.88593 23.7662 7.81099C23.8332 7.88593 23.9672 7.73605 24.5701 6.91171C24.6371 6.76183 24.8381 6.61195 24.9721 6.31219C25.1731 6.08736 25.374 5.7876 25.642 5.4129C26.1779 4.73844 26.9148 3.98903 27.8527 3.31457C28.7906 2.56517 29.9295 1.96564 31.2023 1.44106C32.4751 0.991418 33.882 0.766602 35.2888 0.766602C36.6956 0.841542 38.1024 1.06636 39.3753 1.66588C40.6481 2.19047 41.72 2.86493 42.6579 3.68927C43.5958 4.43868 44.2657 5.26302 44.8016 5.93748C45.3375 6.61195 45.6725 7.13653 45.8735 7.43629C46.0744 7.73605 46.2084 7.88594 46.2754 8.03582C46.0744 8.33558 46.1414 8.48546 46.1414 8.48546C46.2084 8.5604 46.3424 8.48545 46.8783 7.96087C46.9453 7.88593 47.0793 7.73605 47.2133 7.58617C47.3473 7.43629 47.5483 7.21148 47.8162 6.98666C48.0172 6.76183 48.2852 6.53701 48.6201 6.23725C48.7541 6.08737 48.9551 6.01243 49.0891 5.86255C49.1561 5.78761 49.2231 5.71267 49.357 5.63773C49.424 5.56279 49.558 5.48785 49.625 5.48785C51.0988 4.43868 53.1756 3.53939 55.3193 3.31457C57.463 3.08975 59.6738 3.53939 61.2146 4.2888C62.0185 4.6635 62.6884 5.0382 63.1573 5.4129C63.4253 5.56278 63.6262 5.71267 63.8272 5.86255C64.0282 6.01243 64.1622 6.08737 64.2292 6.16231L64.2962 6.23725C64.0952 6.31219 63.9612 6.38712 63.8272 6.46206C63.2243 6.76183 63.1573 6.91172 63.1573 6.98666C63.1573 7.0616 63.2913 7.13653 63.9612 6.91171C64.0952 6.91171 64.2292 6.83677 64.4302 6.76183C64.6311 6.68689 64.8991 6.68689 65.1671 6.61195C65.435 6.53701 65.77 6.46206 66.1719 6.46206C66.3729 6.46206 66.5739 6.46207 66.7079 6.38713C66.7749 6.38713 66.9088 6.38713 66.9758 6.38713C67.1098 6.38713 67.1768 6.38713 67.3108 6.38713C68.9856 6.38713 71.0623 6.91171 72.9381 8.03582C74.7469 9.23486 76.2207 10.9585 77.0916 12.5322C77.1586 12.6072 77.2256 12.7571 77.2926 12.832C77.3596 12.9069 77.3596 13.0568 77.4266 13.1318C77.4935 13.3566 77.6275 13.5065 77.6945 13.7313C77.8955 14.106 77.9625 14.4057 78.0965 14.7805C78.1635 15.0802 78.2974 15.38 78.3644 15.6048C78.4314 15.8296 78.4314 15.9795 78.4984 16.1294C78.5654 16.4291 78.6324 16.654 78.6994 16.7289C78.2974 16.7289 78.0295 16.7289 77.8285 16.7289C77.2926 16.8038 76.9576 16.9537 76.8236 17.0287C76.6896 17.1036 76.6226 17.1785 76.6896 17.2535C76.6896 17.3284 76.7566 17.3284 76.8906 17.3284C77.0246 17.3284 77.3595 17.2535 77.8955 17.2535C78.2304 17.2535 78.9004 17.2535 79.7713 17.5532C80.6422 17.853 81.647 18.3776 82.5849 19.3518C82.5849 19.3518 82.5849 19.3518 82.6519 19.4268C83.1208 19.9513 83.5228 20.5509 83.8577 21.2253C84.1927 21.8998 84.4606 22.7241 84.5946 23.5485C85.0636 25.1972 84.9296 27.0707 84.3937 28.7943Z" fill="white"/>
<path d="M85.4654 23.3236C85.1304 21.4501 84.2595 19.8763 83.1876 18.8271C82.1158 17.703 80.9769 17.1785 79.9721 16.8787C79.6371 16.8038 79.3021 16.7288 79.0342 16.7288C79.0342 16.5789 79.0342 16.3541 78.9672 15.9794C78.9672 15.8295 78.9002 15.6796 78.9002 15.3799C78.8332 15.1551 78.7662 14.8553 78.6992 14.5555C78.6322 14.4057 78.6322 14.1808 78.5652 14.031C78.4982 13.8811 78.4312 13.6563 78.3642 13.4314C78.2973 13.2066 78.2303 13.0567 78.0963 12.8319C78.0293 12.757 78.0293 12.6071 77.9623 12.5322C77.8953 12.4572 77.8283 12.3073 77.7613 12.2324C76.8905 10.5088 75.2826 8.63525 73.3399 7.36127L72.603 6.91162L72.201 6.6868C72.067 6.61186 71.9331 6.61186 71.7991 6.53692C71.5311 6.46198 71.2632 6.3121 71.0622 6.23716C70.7942 6.16222 70.5262 6.08728 70.2583 6.01234C69.9903 5.9374 69.7223 5.86246 69.5213 5.86246C69.2534 5.86246 68.9854 5.78752 68.7844 5.78752C68.6505 5.78752 68.5165 5.78751 68.4495 5.71257C68.3155 5.71257 68.1815 5.71257 68.1145 5.71257C67.8466 5.71257 67.6456 5.71257 67.4446 5.71257C67.3106 5.71257 67.2436 5.71257 67.1097 5.71257C66.9757 5.71257 66.9087 5.71257 66.7747 5.71257C66.5737 5.71257 66.3727 5.78752 66.1718 5.78752C65.7698 5.78752 65.4348 5.9374 65.1669 6.01234C65.0999 6.01234 65.0329 6.08727 64.8989 6.08727C64.8319 6.01233 64.7649 5.86245 64.631 5.71257C64.564 5.63763 64.43 5.48775 64.229 5.33787C64.095 5.18799 63.8271 4.96317 63.5591 4.81329C63.2911 4.58847 63.0232 4.36365 62.6882 4.13883C62.4872 4.06389 62.3532 3.914 62.1523 3.83906C61.9513 3.68918 61.7503 3.61424 61.5494 3.5393C61.3484 3.46436 61.1474 3.31449 60.8794 3.23955C60.7455 3.16461 60.6785 3.1646 60.5445 3.08966C60.4105 3.01472 60.2765 3.01472 60.2095 2.93978C59.9416 2.86484 59.7406 2.7899 59.4726 2.71495C59.2046 2.64001 58.9367 2.64002 58.6687 2.56508C57.5969 2.34025 56.458 2.34026 55.3191 2.4152C53.0414 2.71496 50.8977 3.68918 49.3569 4.81329C49.2899 4.88823 49.1559 4.96317 49.0889 5.03811C49.0219 5.11305 48.8879 5.18799 48.8209 5.26293C48.687 5.41282 48.486 5.56269 48.352 5.71257C48.017 5.93739 47.7491 6.23716 47.5481 6.53692C47.3471 6.76174 47.1461 6.98656 46.9452 7.21138C46.8112 7.4362 46.6772 7.58608 46.6102 7.66102C46.6102 7.66102 46.6102 7.66103 46.6102 7.73597C46.5432 7.58609 46.4762 7.4362 46.3422 7.21138C46.2083 6.91162 45.8733 6.3121 45.3374 5.56269C44.8014 4.81329 44.1315 3.98895 43.1266 3.1646C42.1888 2.34026 40.9829 1.59086 39.7101 0.991335C38.3702 0.391812 36.8964 0.092041 35.4226 0.092041C33.9488 0.092041 32.408 0.316862 31.0682 0.841445C29.7283 1.36603 28.5225 2.0405 27.5176 2.86484C26.5127 3.61425 25.7758 4.51353 25.2399 5.18799C24.9719 5.56269 24.7709 5.86246 24.57 6.16222C24.436 6.46198 24.302 6.6868 24.168 6.83668C23.9 7.36126 23.766 7.66102 23.766 7.8109C23.6991 7.66102 23.4981 7.51115 23.2301 7.13644C23.0961 7.0615 22.9621 6.91162 22.7612 6.76174C22.5602 6.61186 22.2922 6.38704 21.9573 6.23716C21.2874 5.86246 20.4165 5.48776 19.4116 5.26293C18.3397 5.03811 17.2009 4.96318 15.928 5.11306C14.6552 5.26294 13.3823 5.71257 12.1765 6.3121C10.9706 6.91162 9.89879 7.73596 8.96091 8.71019C8.02302 9.60947 7.2861 10.6586 6.75017 11.7078C5.6783 13.7312 5.41034 15.6047 5.41034 16.2042C5.41034 16.6539 5.41034 16.8787 5.41034 17.0286C5.34335 17.0286 5.34336 17.0286 5.27637 17.1035C5.0084 17.2534 4.60644 17.4782 4.0705 18.0028C3.53457 18.5274 2.99864 19.2768 2.46271 20.251C1.45783 22.1245 0.720926 24.8973 0.787918 27.5952C0.787918 28.9441 0.988893 30.368 1.45783 31.6419C1.99377 32.841 2.79767 33.8152 3.53458 34.4897C5.07539 35.9136 6.5492 36.4381 7.08513 36.5131C7.48708 36.588 7.68806 36.588 7.82204 36.588C7.82204 36.588 7.82205 36.588 7.88904 36.588C7.88904 36.663 7.95603 36.663 7.95603 36.7379C8.02302 36.8878 8.157 37.0377 8.224 37.2625C8.69294 38.0119 9.29586 38.8362 10.1667 39.5856C11.0376 40.335 12.1095 41.0844 13.3154 41.684C13.9183 41.9837 14.5882 42.2085 15.1911 42.4334C15.5261 42.5083 15.861 42.5832 16.196 42.6582C16.531 42.7331 16.8659 42.8081 17.2009 42.883C18.5407 43.1828 19.9475 43.2577 21.2204 43.2577C22.5602 43.2577 23.7661 43.1078 24.8379 42.8081C25.9098 42.5083 26.8477 42.1336 27.5176 41.7589C27.8525 41.5341 28.1875 41.3842 28.3885 41.1594C28.5895 41.0095 28.7904 40.8596 28.9244 40.7097C29.1924 40.41 29.3933 40.2601 29.4603 40.1102C29.5273 40.1852 29.5943 40.2601 29.7283 40.41C29.7953 40.4849 29.9293 40.6348 30.1303 40.7847C30.3312 40.9346 30.5322 41.0844 30.8002 41.3093C31.0681 41.5341 31.3361 41.7589 31.6711 41.9837C32.006 42.2085 32.408 42.4334 32.8099 42.6582C34.4847 43.5575 36.6954 44.3069 38.9732 44.4568C41.2509 44.6066 43.5956 44.0821 45.2704 43.3327C45.7393 43.1828 46.0743 42.958 46.4762 42.7331C46.6772 42.6582 46.8112 42.5832 47.0122 42.4334C47.1461 42.3584 47.3471 42.2085 47.4811 42.1336C47.7491 41.9837 48.017 41.8338 48.218 41.684C48.419 41.5341 48.553 41.3842 48.62 41.3093C48.8209 41.1594 48.9549 41.0095 49.0219 40.8596C49.5578 41.4591 50.8977 42.6582 52.9744 43.6324C54.1133 44.157 55.3861 44.6066 56.7929 44.8315C58.1998 45.0563 59.6736 45.0563 61.2144 44.8315C62.6882 44.6066 64.162 44.157 65.4349 43.5575C66.7747 42.9579 67.9135 42.1336 68.8514 41.3093C70.7272 39.5856 71.7321 37.7871 72 37.1875C72.067 37.2625 72.134 37.2625 72.268 37.3374C72.335 37.4124 72.469 37.4124 72.536 37.4873C72.6699 37.5622 72.737 37.5622 72.9379 37.6372C73.1389 37.7121 73.4069 37.7871 73.7418 37.7871C74.0768 37.7871 74.4787 37.862 75.0147 37.862C76.0195 37.862 77.2254 37.5622 78.4982 36.9627C79.7711 36.3632 81.1109 35.389 82.3168 34.115C82.4507 33.9651 82.5847 33.8152 82.7857 33.6653C82.9197 33.5155 83.0537 33.2906 83.1876 33.1408C83.4556 32.7661 83.7236 32.3914 83.9916 32.0167C84.4605 31.1923 84.9294 30.368 85.1974 29.3937C85.7333 27.2205 85.8673 25.1971 85.4654 23.3236ZM84.3935 28.7942C84.1255 29.6186 83.7236 30.4429 83.2546 31.1923C82.9867 31.567 82.7857 31.9417 82.5177 32.2415C82.3837 32.3914 82.2498 32.5412 82.1158 32.7661C81.9818 32.9159 81.8478 33.0658 81.7138 33.2157C80.575 34.4147 79.3691 35.314 78.1633 35.9135C76.9574 36.5131 75.8186 36.8128 74.9477 36.8128C74.4787 36.8878 74.0768 36.8128 73.8088 36.8128C73.4739 36.8128 73.2059 36.7379 73.0719 36.7379C72.804 36.7379 72.603 36.663 72.469 36.588C72.335 36.588 72.268 36.5131 72.201 36.5131C72.469 35.8386 72.469 35.6887 72.335 35.6138C72.268 35.5389 72.134 35.6887 71.5981 36.588C71.2631 37.1126 70.2583 38.8362 68.4495 40.41C67.5116 41.1594 66.4397 41.9088 65.1669 42.5083C63.894 43.1078 62.5542 43.4825 61.0804 43.7074C59.6736 43.9322 58.1998 43.8572 56.8599 43.7074C55.5201 43.4825 54.2473 43.1078 53.1754 42.6582C51.0317 41.684 49.6918 40.4849 49.1559 40.0353C48.419 39.4357 48.285 39.3608 48.218 39.5107C48.151 39.5856 48.151 39.7355 48.7539 40.41C48.62 40.4849 48.486 40.5599 48.285 40.7097C48.151 40.7847 48.017 40.8596 47.8161 41.0095C47.6151 41.0844 47.4141 41.2343 47.0792 41.3842C46.9452 41.4591 46.8112 41.5341 46.6772 41.609C46.5432 41.684 46.3422 41.7589 46.2082 41.8338C45.8733 41.9837 45.4714 42.2085 45.0694 42.3584C43.3946 43.0329 41.2509 43.4076 39.0402 43.3327C36.8294 43.1828 34.6857 42.5083 33.1449 41.684C33.0109 41.609 32.9439 41.609 32.8769 41.5341C32.8099 41.4591 32.6759 41.4591 32.609 41.3842C32.408 41.3093 32.274 41.1594 32.073 41.0844C31.7381 40.9346 31.4701 40.7097 31.2021 40.4849C30.9342 40.335 30.7332 40.1852 30.5322 40.0353C30.3312 39.8854 30.1972 39.8105 30.1303 39.7355C29.5273 39.2859 29.3934 39.2859 29.3264 39.4357C29.3264 39.5107 29.2594 39.5107 29.3934 39.6606C29.2594 39.7355 29.0584 39.8104 28.7234 40.0353C28.5895 40.1102 28.3885 40.2601 28.1875 40.41C27.9865 40.5599 27.6516 40.7097 27.3166 40.8596C26.6467 41.1594 25.7758 41.5341 24.7039 41.7589C22.6272 42.2835 19.9475 42.2085 17.3349 41.684C16.9999 41.609 16.6649 41.5341 16.33 41.4591C15.995 41.3842 15.6601 41.3093 15.3921 41.2343C14.7892 41.0844 14.1863 40.7847 13.5833 40.5599C12.4445 40.0353 11.4396 39.3608 10.5687 38.6114C9.7648 37.862 9.09487 37.1126 8.69292 36.5131C8.55894 36.3632 8.49195 36.2133 8.42496 36.0634C8.35797 35.9135 8.29099 35.7637 8.224 35.6887C8.09001 35.4639 8.02302 35.2391 7.95603 35.0892C7.88904 35.0143 7.88903 34.8644 7.82204 34.7894C7.82204 34.7145 7.75505 34.6396 7.75505 34.5646C7.68805 34.4147 7.68807 34.3398 7.62107 34.2649C7.55408 34.115 7.48708 34.115 7.42009 34.115C7.3531 34.115 7.35309 34.1899 7.35309 34.3398C7.35309 34.4147 7.35309 34.5646 7.35309 34.7145C7.35309 34.7895 7.3531 34.8644 7.42009 35.0143C7.42009 35.0892 7.48708 35.2391 7.48708 35.314C7.55408 35.4639 7.62106 35.6887 7.68805 35.9885C7.55407 35.9136 7.42009 35.8386 7.15213 35.7637C6.68318 35.5388 5.34336 35.0143 3.93653 33.6653C3.26662 32.9909 2.5297 32.0916 2.06076 31.0424C1.65881 29.9933 1.45783 28.6443 1.45783 27.3703C1.45783 24.7474 2.12774 22.1995 2.99863 20.4009C3.46758 19.5016 3.93652 18.8271 4.40546 18.3026C4.8744 17.778 5.27636 17.5532 5.47733 17.4033C5.7453 17.1785 5.94627 17.0286 6.01326 16.9536C6.08025 16.8787 6.08025 16.8038 6.08025 16.7288C6.08025 16.6539 6.01327 16.6539 5.87929 16.6539C5.8123 16.6539 5.74531 16.6539 5.61132 16.7288C5.67832 16.5789 5.6783 16.3541 5.7453 16.0543C5.87928 15.4548 6.14725 13.7312 7.21912 11.8577C7.75505 10.8835 8.49195 9.90923 9.36284 9.08489C10.2337 8.1856 11.3056 7.4362 12.4445 6.91162C13.5833 6.3121 14.7892 5.9374 15.928 5.78752C17.0669 5.63763 18.2057 5.63764 19.2106 5.86246C20.2155 6.08728 21.0194 6.38704 21.6223 6.6868C21.9573 6.83668 22.2252 6.98656 22.4262 7.13644C22.6272 7.28633 22.8282 7.36126 22.8952 7.4362C23.5651 7.88584 23.6991 7.88584 23.766 7.8109C23.833 7.88584 23.967 7.73597 24.57 6.91162C24.6369 6.76174 24.8379 6.61186 24.9719 6.3121C25.1729 6.08727 25.3739 5.78752 25.6418 5.41281C26.1778 4.73835 26.9147 3.98894 27.8525 3.31448C28.7904 2.56508 29.9293 1.96555 31.2021 1.44097C32.475 0.991328 33.8818 0.766511 35.2886 0.766511C36.6954 0.841452 38.1023 1.06627 39.3751 1.66579C40.648 2.19038 41.7198 2.86484 42.6577 3.68918C43.5956 4.43859 44.2655 5.26293 44.8014 5.93739C45.3374 6.61186 45.6723 7.13644 45.8733 7.4362C46.0743 7.73596 46.2083 7.88585 46.2752 8.03573C46.0743 8.33549 46.1413 8.48537 46.1413 8.48537C46.2083 8.56031 46.3422 8.48536 46.8782 7.96078C46.9452 7.88584 47.0791 7.73596 47.2131 7.58608C47.3471 7.4362 47.5481 7.21139 47.8161 6.98657C48.017 6.76174 48.285 6.53692 48.62 6.23716C48.7539 6.08728 48.9549 6.01234 49.0889 5.86246C49.1559 5.78752 49.2229 5.71258 49.3569 5.63764C49.4239 5.5627 49.5578 5.48776 49.6248 5.48776C51.0986 4.43859 53.1754 3.5393 55.3191 3.31448C57.4629 3.08966 59.6736 3.5393 61.2144 4.28871C62.0183 4.66341 62.6882 5.03811 63.1571 5.41281C63.4251 5.56269 63.6261 5.71258 63.827 5.86246C64.028 6.01234 64.162 6.08728 64.229 6.16222L64.296 6.23716C64.095 6.3121 63.961 6.38703 63.827 6.46197C63.2241 6.76174 63.1571 6.91163 63.1571 6.98657C63.1571 7.06151 63.2911 7.13644 63.961 6.91162C64.095 6.91162 64.229 6.83668 64.43 6.76174C64.631 6.6868 64.8989 6.6868 65.1669 6.61186C65.4348 6.53692 65.7698 6.46197 66.1718 6.46197C66.3727 6.46197 66.5737 6.46198 66.7077 6.38704C66.7747 6.38704 66.9087 6.38704 66.9757 6.38704C67.1096 6.38704 67.1766 6.38704 67.3106 6.38704C68.9854 6.38704 71.0622 6.91162 72.9379 8.03573C74.7467 9.23477 76.2205 10.9584 77.0914 12.5322C77.1584 12.6071 77.2254 12.757 77.2924 12.8319C77.3594 12.9068 77.3594 13.0567 77.4264 13.1317C77.4934 13.3565 77.6273 13.5064 77.6943 13.7312C77.8953 14.1059 77.9623 14.4057 78.0963 14.7804C78.1633 15.0801 78.2973 15.3799 78.3642 15.6047C78.4312 15.8295 78.4312 15.9794 78.4982 16.1293C78.5652 16.4291 78.6322 16.6539 78.6992 16.7288C78.2973 16.7288 78.0293 16.7288 77.8283 16.7288C77.2924 16.8038 76.9574 16.9536 76.8234 17.0286C76.6895 17.1035 76.6225 17.1785 76.6895 17.2534C76.6895 17.3283 76.7564 17.3283 76.8904 17.3283C77.0244 17.3283 77.3594 17.2534 77.8953 17.2534C78.2303 17.2534 78.9002 17.2534 79.7711 17.5532C80.642 17.8529 81.7138 18.3775 82.6517 19.4267C83.1207 19.9512 83.5226 20.5508 83.8576 21.2252C84.1925 21.8997 84.4605 22.724 84.5945 23.5484C85.0634 25.1971 84.9294 27.0706 84.3935 28.7942Z" fill="#4F525D"/>
<path opacity="0.2" d="M84.3937 28.7943C84.1257 29.6187 83.7237 30.443 83.2548 31.1924C82.9868 31.5671 82.7859 31.9418 82.5179 32.2416C82.3839 32.3915 82.25 32.5413 82.116 32.7662C81.982 32.916 81.848 33.0659 81.714 33.2158C80.5751 34.4148 79.3693 35.3141 78.1634 35.9136C76.9576 36.5132 75.8187 36.8129 74.9479 36.8129C74.4789 36.8879 74.077 36.8129 73.809 36.8129C73.474 36.8129 73.2061 36.738 73.0721 36.738C72.8041 36.738 72.6031 36.6631 72.4692 36.5881C72.3352 36.5881 72.2682 36.5132 72.2012 36.5132C72.4691 35.8387 72.4691 35.6888 72.3352 35.6139C72.2682 35.539 72.1342 35.6888 71.5983 36.5881C71.2633 37.1127 70.2584 38.8363 68.4497 40.4101C67.5118 41.1595 66.4399 41.9089 65.1671 42.5084C63.8942 43.1079 62.5544 43.4826 61.0806 43.7075C59.6738 43.9323 58.1999 43.8573 56.8601 43.7075C55.5203 43.4826 54.2474 43.1079 53.1756 42.6583C51.0318 41.6841 49.692 40.485 49.1561 40.0354C48.4192 39.4358 48.2852 39.3609 48.2182 39.5108C48.1512 39.5857 48.1512 39.7356 48.7541 40.4101C48.6201 40.485 48.4861 40.56 48.2852 40.7098C48.1512 40.7848 48.0172 40.8597 47.8162 41.0096C47.6153 41.0845 47.4143 41.2344 47.0793 41.3843C46.9453 41.4592 46.8114 41.5342 46.6774 41.6091C46.5434 41.6841 46.3424 41.759 46.2084 41.8339C45.8735 41.9838 45.4715 42.2086 45.0696 42.3585C43.3948 43.033 41.2511 43.4077 39.0403 43.3328C36.8296 43.1829 34.6859 42.5084 33.1451 41.6841C33.0111 41.6091 32.9441 41.6091 32.8771 41.5342C32.8101 41.4592 32.6761 41.4592 32.6091 41.3843C32.4082 41.3094 32.2742 41.1595 32.0732 41.0845C31.7382 40.9347 31.4703 40.7098 31.2023 40.485C30.9343 40.3351 30.7334 40.1853 30.5324 40.0354C30.3314 39.8855 30.1974 39.8106 30.1304 39.7356C29.5275 39.286 29.3935 39.286 29.3265 39.4358C29.3265 39.5108 29.2596 39.5108 29.3935 39.6607C29.2596 39.7356 29.0586 39.8105 28.7236 40.0354C28.5896 40.1103 28.3886 40.2602 28.1877 40.4101C27.9867 40.56 27.6517 40.7098 27.3168 40.8597C26.6469 41.1595 25.776 41.5342 24.7041 41.759C22.6274 42.2836 19.9477 42.2086 17.335 41.6841C17.0001 41.6091 16.6651 41.5342 16.3302 41.4592C15.9952 41.3843 15.6602 41.3094 15.3923 41.2344C14.7893 41.0845 14.1864 40.7848 13.5835 40.5599C12.4446 40.0354 11.4398 39.3609 10.5689 38.6115C9.76498 37.8621 9.09505 37.1127 8.6931 36.5132C8.55911 36.3633 8.49213 36.2134 8.42514 36.0635C8.35814 35.9136 8.29116 35.7638 8.22417 35.6888C8.09019 35.464 8.0232 35.2392 7.95621 35.0893C7.88921 35.0144 7.88921 34.8645 7.82221 34.7895C7.82221 34.7146 7.75522 34.6397 7.75522 34.5647C7.68823 34.4148 7.68824 34.3399 7.62125 34.265C7.55426 34.1151 7.48725 34.1151 7.42026 34.1151C7.35327 34.1151 7.35326 34.19 7.35326 34.3399C7.35326 34.4148 7.35326 34.5647 7.35326 34.7146C7.35326 34.7895 7.35327 34.8645 7.42026 35.0144C7.42026 35.0893 7.48726 35.2392 7.48726 35.3141C7.55425 35.464 7.62123 35.6888 7.68822 35.9886C7.55424 35.9137 7.42026 35.8387 7.1523 35.7638C6.68336 35.5389 5.34353 35.0144 3.93671 33.6654C3.26679 32.991 2.52987 32.0917 2.06093 31.0425C1.65898 29.9934 1.45801 28.6444 1.45801 27.3704C1.45801 27.1456 1.45801 26.8459 1.45801 26.621C2.06093 28.0449 3.06581 29.3938 3.46776 30.0683C4.80759 32.1666 7.48726 31.5671 8.55913 30.1432C9.63099 31.4922 9.76497 33.2907 10.4349 34.8645C11.1048 36.5881 12.6456 37.6373 14.2534 38.3867C18.8088 40.4101 27.1158 40.9347 29.5945 35.1642C30.5324 35.9136 31.6712 37.4125 32.6761 38.1619C35.0208 39.8855 37.3655 40.2602 39.3083 40.2602C43.9307 40.1853 46.0744 39.1361 49.223 35.5389C50.3619 36.8129 51.7017 38.4616 53.2425 39.4358C55.6542 41.1595 58.6689 41.3094 61.4155 40.485C64.2292 39.6607 65.904 38.6115 68.1817 36.5881C69.1196 35.7638 69.9235 34.8645 70.3924 33.5905C70.5934 33.0659 70.5934 32.3915 70.9953 32.0168C72.4691 32.991 72.6701 34.4898 74.6799 34.265C76.6896 34.0401 79.0343 33.0659 80.3742 31.3423C82.7189 28.3447 84.2597 23.2487 82.6519 19.5017C82.6519 19.5017 82.6519 19.5017 82.7189 19.5766C83.1878 20.1012 83.5898 20.7008 83.9247 21.3752C84.2597 22.0497 84.5277 22.874 84.6616 23.6984C85.0636 25.1972 84.9296 27.0707 84.3937 28.7943Z" fill="#99ADBF"/>
<path opacity="0.2" d="M12.0424 21.1501C12.5784 21.0752 13.0473 20.9253 13.5833 20.9253C14.1862 20.9253 14.7891 21.0752 15.459 21.1501C16.3299 21.3 17.3348 21.3 18.0717 21.8246C18.2727 21.9745 18.4737 22.1243 18.6076 22.3492C18.8086 22.574 19.0766 22.7239 19.2776 22.8737C19.6125 23.1735 19.9475 23.3234 20.1484 23.773C20.0814 23.848 20.0815 23.848 19.9475 23.848C20.0145 23.9229 20.1484 23.9229 20.2824 23.848C20.6844 23.773 21.0863 23.6981 21.5553 23.6981C22.2252 23.6981 22.8281 23.6981 23.431 23.848C23.967 23.9979 24.5699 23.9979 25.1058 24.1477C25.5078 24.2976 25.8427 24.4475 26.2447 24.5974C26.9816 24.9721 27.6515 25.4967 28.2544 26.0212C28.4554 26.1711 28.7234 26.3959 28.7904 26.7706C28.5224 26.9205 28.1874 26.6208 27.9195 26.5458C27.1156 26.2461 26.2447 26.0212 25.4408 25.7215C23.0961 24.9721 20.4164 24.4475 18.0047 24.9721C17.8037 25.047 17.2678 25.2718 17.1338 24.9721C16.9998 24.7473 17.3348 24.4475 17.4018 24.3726C17.7367 23.9229 18.1387 23.6231 17.6028 23.1735C16.8659 22.574 15.995 22.2742 15.1911 21.9745C14.5211 21.7496 13.9182 21.6747 13.1813 21.5998C12.9133 21.5998 12.6454 21.5998 12.3774 21.5248C12.3104 21.5248 12.0425 21.5248 11.9755 21.5248C11.6405 21.3 12.3104 21.0752 12.0424 21.1501Z" fill="#99ADBF"/>
<path d="M28.7233 26.2462C28.6563 26.3211 28.5223 26.396 28.1874 26.1712C28.1204 26.1712 28.0534 26.0963 27.9864 26.0213C27.8524 25.9464 27.7854 25.8714 27.6514 25.7965C27.5175 25.7216 27.3835 25.5717 27.1825 25.4967C26.9815 25.4218 26.8475 25.2719 26.6466 25.197C25.8427 24.7473 24.7708 24.3726 23.6319 24.2228C22.4931 24.0729 21.3542 24.0729 20.4833 24.2228C20.2824 24.2228 20.0814 24.2977 19.8804 24.3726C19.6794 24.3726 19.5455 24.4476 19.3445 24.5225C19.2105 24.5975 19.0765 24.5975 18.9425 24.5975C18.8085 24.5975 18.7416 24.6724 18.6746 24.6724C18.2726 24.7473 18.2056 24.6724 18.2056 24.5975C18.1386 24.4476 18.1386 24.3726 18.4736 24.1478C18.6076 24.0729 18.8085 23.923 19.1435 23.8481C19.2775 23.7731 19.4785 23.6982 19.6794 23.6232C19.7464 23.6232 19.8804 23.5483 19.9474 23.5483C19.8804 23.5483 19.8134 23.5483 19.6794 23.4734C19.5455 23.3984 19.0765 23.0237 18.5406 22.5741C17.9377 22.1994 17.2008 21.7497 16.3299 21.5249C15.526 21.2251 14.6551 21.1502 13.9182 21.1502C13.2482 21.1502 12.7123 21.2252 12.5113 21.2252C12.2434 21.2252 12.1764 21.1502 12.1094 21.0753C12.1094 20.9254 12.1094 20.8504 12.3773 20.7006C12.5783 20.5507 13.1143 20.4008 13.8512 20.3259C14.5881 20.2509 15.5929 20.3259 16.4638 20.6256C17.4017 20.9254 18.2056 21.375 18.8085 21.8996C19.4115 22.4242 19.8134 22.8738 19.9474 23.0237C20.1484 23.3235 20.0814 23.3984 20.0144 23.4734C20.0144 23.4734 20.0144 23.4734 19.9474 23.5483C20.0144 23.5483 20.1484 23.4734 20.2154 23.4734C21.1533 23.2485 22.4261 23.1736 23.565 23.3984C24.7708 23.6232 25.9097 24.0729 26.7805 24.5225C26.9815 24.6724 27.1825 24.7473 27.3835 24.8972C27.5845 25.0471 27.7184 25.122 27.8524 25.2719C27.9864 25.3469 28.1204 25.4967 28.1874 25.5717C28.2544 25.6466 28.3214 25.7216 28.3884 25.7965C28.7903 26.0963 28.7903 26.1712 28.7233 26.2462Z" fill="#4F525D"/>
<path d="M68.8513 28.1944C68.6503 27.2951 68.0474 26.5457 67.3775 25.9462C66.6406 25.2717 65.7027 24.5223 64.7648 24.1476C63.693 23.698 62.5541 23.3982 61.3483 23.3982C59.7405 23.3982 57.9987 23.8478 56.5249 24.5223C55.788 24.897 54.9841 25.3466 54.3141 25.7963C54.0462 25.9462 53.5772 26.2459 53.4433 26.5457C52.9073 26.3958 52.3714 26.3209 51.7685 26.0961C51.0316 25.7963 50.1607 25.7963 49.4238 25.7963C48.2849 25.8712 47.0791 26.171 46.0742 26.6206C45.2703 26.9953 44.3994 27.5199 43.7295 28.1944C42.8586 28.9438 41.8537 29.993 41.9877 31.3419C42.1217 32.6908 43.5955 32.9906 44.6004 32.9156C46.0072 32.7657 47.28 31.5667 48.7538 31.5667C49.5577 31.5667 50.4956 32.466 51.2995 32.466C51.7685 32.466 52.2374 32.6159 52.7063 32.6159C53.3763 32.6159 54.1132 32.466 54.7831 32.391C57.3288 31.9414 59.9414 32.0913 62.4871 31.4918C64.0949 31.1171 65.8367 30.8173 67.3775 30.2178C67.9135 29.993 68.7843 29.8431 68.9853 29.0937C69.0523 28.7939 69.0523 28.2693 68.9183 27.9696C68.7843 27.9696 68.8513 27.9696 68.8513 28.1944Z" fill="white"/>
<path opacity="0.2" d="M42.8584 29.7681C44.8012 26.7705 49.2896 24.897 52.3712 26.6206C52.9741 26.9204 53.0411 26.9953 53.5771 26.7705C54.5819 26.2459 55.4528 25.3466 56.3907 24.7471C58.1325 23.623 60.6112 23.3982 62.554 23.7729C63.9608 23.9977 65.0327 24.5223 66.2385 25.2717C66.5735 25.4965 69.0521 26.8454 67.5113 27.2951C67.1764 27.37 66.5735 27.0703 66.2385 26.9204C65.6356 26.6206 65.0996 26.3958 64.4967 26.2459C62.8889 25.7963 61.2811 25.4965 59.6063 25.6464C57.9985 25.7963 56.2567 26.3958 54.8499 27.2951C53.845 27.9696 53.1081 28.9438 52.1033 29.6182C51.7683 29.8431 51.0984 30.2927 50.7634 29.8431C50.4955 29.4684 50.7634 28.719 50.6294 28.2693C50.0935 26.7705 48.1507 27.9696 47.2799 28.2693C46.141 28.644 45.2701 29.2435 44.2652 29.8431C43.7293 30.0679 43.1934 30.2927 42.8584 29.7681Z" fill="#99ADBF"/>
<path d="M67.9134 26.4709C67.8464 26.5458 67.7124 26.5458 67.1765 26.246C67.1095 26.1711 66.9755 26.0961 66.8415 25.9463C66.7075 25.8713 66.5066 25.7214 66.3056 25.5716C66.1046 25.4217 65.8367 25.2718 65.5687 25.1219C65.3007 24.972 64.9657 24.7472 64.6308 24.6723C63.291 24.0728 61.4822 23.773 59.6734 23.9229C57.8647 24.1477 56.1898 24.8971 54.984 25.7964C54.917 25.8713 54.85 25.8713 54.783 25.9463C54.716 26.0212 54.649 26.0962 54.582 26.0962C54.4481 26.246 54.3141 26.321 54.1801 26.3959C53.9121 26.6207 53.7112 26.8456 53.5102 26.9954C53.3092 27.2203 53.1752 27.3701 53.0412 27.52C52.9073 27.6699 52.8403 27.8198 52.7733 27.8947C52.3713 28.3444 52.2374 28.4193 52.1704 28.3444C52.1034 28.2694 52.0364 28.1195 52.3713 27.595C52.4383 27.52 52.5053 27.3701 52.6393 27.1453C52.7063 27.0704 52.7733 26.9205 52.9073 26.8456C52.8403 26.8456 52.7733 26.8455 52.7063 26.7706C52.6393 26.7706 52.5053 26.6957 52.3713 26.6957C52.2373 26.6207 52.1034 26.6207 51.9024 26.5458C51.7014 26.4708 51.5674 26.4708 51.3665 26.3959C50.5626 26.246 49.5577 26.1711 48.6198 26.3959C47.6149 26.5458 46.677 26.9954 46.0071 27.4451C45.8061 27.52 45.6722 27.6699 45.5382 27.7448C45.4042 27.8198 45.2702 27.9697 45.1362 28.0446C45.0023 28.1195 44.9352 28.1945 44.8683 28.2694C44.8013 28.3444 44.7343 28.4193 44.6673 28.4193C44.3993 28.6441 44.2653 28.5692 44.1983 28.4942C44.1313 28.4193 44.0644 28.3444 44.2653 27.9697C44.3323 27.8198 44.4663 27.6699 44.7343 27.4451C44.8683 27.2952 45.0023 27.2202 45.1362 27.0704C45.2702 26.9205 45.4712 26.7706 45.6722 26.6957C46.4091 26.1711 47.4809 25.7214 48.5528 25.4966C49.6247 25.2718 50.7635 25.3467 51.6344 25.5716C51.8354 25.6465 52.0364 25.7214 52.2373 25.7214C52.4383 25.7964 52.5723 25.8713 52.7063 25.9463C52.8403 26.0212 52.9743 26.0962 53.0412 26.0962C53.1082 26.1711 53.1752 26.246 53.2422 26.246C53.3092 26.321 53.3092 26.321 53.3762 26.321C53.5102 26.1711 53.7112 25.9463 53.9121 25.7214C54.0461 25.5716 54.1801 25.4966 54.3141 25.3467C54.3811 25.2718 54.4481 25.1969 54.5151 25.1219C54.5821 25.047 54.649 24.972 54.783 24.972C56.0559 23.9229 57.8646 23.0985 59.8074 22.8737C61.7501 22.6489 63.6929 23.0236 65.0997 23.698C65.4347 23.8479 65.7697 24.0728 66.1046 24.2226C66.2386 24.2976 66.3726 24.3725 66.5065 24.4475C66.6405 24.5224 66.7745 24.6723 66.8415 24.7472C67.0425 24.8971 67.2435 25.047 67.3775 25.1969C67.5115 25.3467 67.6454 25.4217 67.7124 25.5716C67.9134 26.246 67.9804 26.3959 67.9134 26.4709Z" fill="#4F525D"/>
</svg>
