<svg width="61" height="64" viewBox="0 0 61 64" fill="none" xmlns="http://www.w3.org/2000/svg">
<path d="M25.2127 14.6601C24.1987 11.9941 22.9387 9.56411 21.5637 7.68511C20.9587 6.85811 20.3397 6.14706 19.7217 5.58306V1.42107C19.7887 1.45407 19.8547 1.48706 19.9207 1.52306C21.4737 2.34606 22.9737 3.7931 24.3347 5.6541C26.3837 8.4531 28.1847 12.2581 29.3997 16.2811H29.3967C29.4547 16.4721 29.4807 16.6761 29.4667 16.8851C29.4077 17.8321 28.5907 18.5521 27.6437 18.4931C25.2037 18.3391 22.3557 17.5671 19.7207 16.4031V12.6081C21.4527 13.5201 23.3757 14.2361 25.2127 14.6601ZM19.7207 5.5841C19.2507 5.1541 18.7817 4.81008 18.3187 4.56408C17.5057 4.13208 16.7217 4.04106 16.0267 4.39806C15.6647 4.58606 15.2947 4.8901 14.9217 5.3261C14.4797 5.8421 14.2637 6.34208 14.2337 6.81908C14.2017 7.32808 14.3747 7.87708 14.7027 8.43908C15.1007 9.12108 15.7087 9.79609 16.4607 10.4411C17.3887 11.2361 18.5077 11.9681 19.7207 12.6081V16.4041C17.6607 15.4921 15.7307 14.3391 14.2267 13.0501C13.1817 12.1571 12.3217 11.1871 11.7297 10.1731C11.0667 9.04009 10.7257 7.84008 10.8027 6.60308C10.8797 5.39608 11.3527 4.21112 12.3117 3.09111C12.9827 2.30812 13.7017 1.73211 14.4537 1.34411C16.1887 0.449106 17.9757 0.553071 19.7217 1.42107L19.7207 5.5841Z" fill="white"/>
<path d="M35.7816 1.42208C37.5286 0.55408 39.3156 0.450054 41.0496 1.34505C41.8016 1.73305 42.5196 2.30906 43.1916 3.09206C44.1506 4.21206 44.6236 5.39709 44.6996 6.60409C44.7776 7.84109 44.4366 9.04203 43.7736 10.174C43.1816 11.188 42.3206 12.157 41.2756 13.051C39.7716 14.34 37.8416 15.4921 35.7816 16.4051V12.6101C36.9956 11.9701 38.1146 11.237 39.0426 10.442C39.7946 9.79704 40.4015 9.12209 40.8005 8.44009C41.1285 7.87709 41.3016 7.32903 41.2696 6.82003C41.2396 6.34303 41.0246 5.84305 40.5816 5.32705C40.2086 4.89205 39.8396 4.58707 39.4756 4.39907C38.7816 4.04207 37.9976 4.13309 37.1846 4.56509C36.7216 4.81009 36.2516 5.15504 35.7816 5.58504V1.42208ZM26.1036 16.281C27.3186 12.259 29.1206 8.45308 31.1686 5.65408C32.5306 3.79308 34.0296 2.34603 35.5826 1.52303C35.6486 1.48803 35.7146 1.45504 35.7806 1.42104V5.58303C35.1636 6.14603 34.5456 6.85808 33.9396 7.68508C32.5636 9.56408 31.3026 11.9941 30.2906 14.6601C32.1266 14.2361 34.0506 13.519 35.7806 12.609V16.4041C33.1466 17.5681 30.2996 18.339 27.8586 18.494C26.9116 18.553 26.0946 17.8331 26.0356 16.8861C26.0226 16.6761 26.0476 16.4731 26.1046 16.2821L26.1036 16.281Z" fill="white"/>
<path d="M28.0365 18.48C27.0895 18.541 26.2724 17.82 26.2144 16.873C26.1544 15.926 26.8745 15.1089 27.8225 15.0509C31.5805 14.8149 35.5285 13.6619 39.3095 12.5589C47.9075 10.0499 55.7254 7.76795 60.4924 15.457L57.9375 14.779L57.5725 17.2599C54.1835 11.7919 47.5545 13.727 40.2645 15.855C36.2965 17.014 32.1505 18.224 28.0365 18.48Z" fill="white"/>
<path d="M27.9401 18.3971C26.9931 18.4201 26.2071 17.67 26.1841 16.723C26.1621 15.775 26.9121 14.9891 27.8591 14.9671C33.5451 14.8171 37.7131 11.6091 41.3871 8.78005C46.5681 4.79305 50.9171 1.44608 57.3591 5.91408L54.4331 6.02706L55.4081 8.73904C51.0241 5.69804 47.5841 8.34607 43.4871 11.4981C39.3961 14.6471 34.7571 18.2171 27.9401 18.3971Z" fill="white"/>
<path fill-rule="evenodd" clip-rule="evenodd" d="M3.85254 25.1641V54.398L28.2566 62.062L28.2576 24.457L3.85254 25.1641Z" fill="#22B1E3" stroke="#C6E8F4" stroke-width="2.4001" stroke-miterlimit="22.9256" stroke-linecap="round" stroke-linejoin="round"/>
<path fill-rule="evenodd" clip-rule="evenodd" d="M52.6488 25.152V54.398L28.2568 62.062L28.2578 24.457L52.6488 25.152Z" fill="#22B1E3" stroke="#C6E8F4" stroke-width="2.4001" stroke-miterlimit="22.9256" stroke-linecap="round" stroke-linejoin="round"/>
<path fill-rule="evenodd" clip-rule="evenodd" d="M1.96875 17.1801V25.221L28.3168 24.457L28.3148 13.874L1.96875 17.1801Z" fill="#22B1E3" stroke="#C6E8F4" stroke-width="2.4001" stroke-miterlimit="22.9256" stroke-linecap="round" stroke-linejoin="round"/>
<path fill-rule="evenodd" clip-rule="evenodd" d="M55.0248 17.1801V25.221L28.2578 24.457L28.2588 13.874L55.0248 17.1801Z" fill="#22B1E3" stroke="#C6E8F4" stroke-width="2.4001" stroke-miterlimit="22.9256" stroke-linecap="round" stroke-linejoin="round"/>
<path fill-rule="evenodd" clip-rule="evenodd" d="M43.6797 15.746V57.2971L39.1357 58.696V15.186L43.6797 15.746Z" fill="white"/>
<path fill-rule="evenodd" clip-rule="evenodd" d="M11.0996 15.9431V56.83L15.6426 58.23V15.374L11.0996 15.9431Z" fill="white"/>
</svg>
