<svg width="220" height="289" viewBox="0 0 220 289" fill="none" xmlns="http://www.w3.org/2000/svg">
<path d="M117.158 52.7715C118.172 53.1727 119.137 53.6877 120.02 54.322C120.888 54.9779 121.674 55.7369 122.352 56.5826C123.685 58.2903 124.569 60.3178 124.959 62.4213C125.371 64.5247 125.29 66.6986 124.791 68.7804C124.249 70.8513 123.224 72.765 121.999 74.4455C120.785 76.1424 119.424 77.682 118.183 79.2867C117.57 80.089 116.968 80.9022 116.442 81.7588C115.895 82.6045 115.472 83.4827 115.141 84.4152C114.491 86.2801 114.361 88.3022 114.426 90.3243C114.474 92.3518 114.691 94.4065 114.605 96.4882C114.599 97.0087 114.54 97.5291 114.502 98.0441C114.442 98.5592 114.377 99.0742 114.29 99.5838C114.122 100.608 113.9 101.622 113.612 102.62C113.043 104.615 112.214 106.539 111.108 108.296C110.555 109.174 109.937 110.009 109.259 110.795C108.576 111.576 107.839 112.307 107.053 112.98C106.256 113.641 105.426 114.259 104.543 114.801C103.659 115.338 102.748 115.831 101.8 116.238C98.0102 117.897 93.8521 118.531 89.7591 118.515C85.6498 118.493 81.5676 117.837 77.6318 116.699C81.5785 117.783 85.6715 118.374 89.7591 118.336C93.8359 118.292 97.9452 117.598 101.653 115.912C102.58 115.5 103.469 114.996 104.326 114.46C105.183 113.917 105.985 113.299 106.755 112.638C107.514 111.966 108.224 111.245 108.88 110.475C109.53 109.7 110.121 108.876 110.642 108.014C111.693 106.29 112.474 104.403 113 102.452C113.266 101.476 113.466 100.484 113.618 99.4862C113.694 98.9874 113.748 98.4832 113.802 97.9791C113.835 97.4749 113.884 96.9762 113.884 96.472C113.938 94.4553 113.699 92.4277 113.612 90.3568C113.515 88.3022 113.607 86.1554 114.285 84.1333C114.355 83.8785 114.464 83.6345 114.561 83.3851C114.664 83.1412 114.746 82.8864 114.876 82.6533L115.239 81.9431C115.358 81.7046 115.505 81.4931 115.635 81.2654C116.166 80.3655 116.773 79.5198 117.391 78.6849C118.633 77.0315 119.966 75.4756 121.11 73.8221C122.276 72.1849 123.181 70.4013 123.653 68.4985C124.081 66.5956 124.124 64.5843 123.723 62.6706C123.338 60.7515 122.503 58.9354 121.294 57.4337C120.676 56.691 119.977 56.0296 119.202 55.4604C118.41 54.9129 117.554 54.4738 116.659 54.1322L117.158 52.7715Z" fill="#452321"/>
<path d="M120.807 55.3249C116.947 50.4837 110.224 50.9012 100.445 51.427C94.6113 51.7414 86.5282 52.1697 80.0824 57.9271C76.6074 61.028 74.71 64.6982 73.7287 66.5902C69.9718 73.8438 71.0561 75.6436 67.9551 81.3197C64.0898 88.3889 60.7937 87.6462 55.8278 95.1817C52.2336 100.63 50.9162 105.639 50.0542 109.044C46.975 121.16 54.9496 126.164 51.209 136.481C49.9079 140.064 48.1731 141.945 49.1868 143.989C51.1385 147.914 60.4738 146.851 62.7616 146.586C68.34 145.946 74.4443 144.748 77.2037 140.812C81.1775 135.131 71.197 126.847 74.1733 119.588C75.2954 116.85 76.5152 115.907 76.9164 115.69C78.5699 114.79 80.0282 115.408 84.1375 115.978C85.1458 116.135 88.057 116.688 91.6459 116.558C94.801 116.444 96.8231 116.368 99.1543 115.403C102.564 113.993 104.516 111.554 105.795 109.917C106.56 108.935 109.503 105.108 110.994 97.7893C111.818 93.7397 111.488 89.7117 111.997 85.6566C112.203 84.0249 112.68 82.469 113.521 81.0486C114.659 79.1186 116.421 78.4681 118.085 77.1074C123.826 72.3855 125.501 61.2069 120.807 55.3249Z" fill="#452321"/>
<path d="M41.386 117.414C39.8897 118.688 40.2367 120.911 41.9823 130.973C46.2054 155.281 47.3602 160.594 46.0048 168.244C45.2947 172.25 45.0344 171.187 42.828 179.796C40.8059 187.679 39.1145 194.271 39.0711 200.592C38.9627 217.078 50.1141 229.059 52.6458 231.78C55.6709 235.033 65.2556 245.355 72.5743 242.753C76.9546 241.197 78.6731 235.749 79.508 233.222C90.7137 199.285 107.156 196.483 104.343 176.619C101.681 157.819 88.6753 146.765 71.1322 131.856C65.1689 126.782 46.5361 113.028 41.386 117.414Z" fill="#452321"/>
<path d="M116.188 152.934C117.147 155.824 118.101 158.719 119.061 161.608C122.612 164.975 126.157 168.341 129.708 171.708L131.345 169.599C128.917 165.49 126.488 161.386 124.059 157.276C121.956 156.236 119.809 155.086 117.635 153.801C117.142 153.514 116.659 153.227 116.188 152.934Z" fill="#ED8B6E"/>
<path d="M43.8418 123.334L66.6543 181.672V207.488C66.6543 207.488 44.5737 224.391 54.9011 253.872C55.8498 256.577 57.1455 259.136 58.6472 261.575C59.9754 263.728 61.9433 268.2 62.3228 276.104L62.2035 288.091H113.857C113.857 288.091 118.926 262.242 117.484 247.513C117.484 247.513 161.575 214.937 130.674 172.77C129.898 171.713 128.988 170.759 127.99 169.908C124.965 167.317 117.701 160.209 115.825 150.337C115.825 150.337 127.898 131.846 101.03 119.935C101.03 119.935 91.4889 114.861 82.6795 101.769C82.4951 101.037 82.2674 99.6651 82.6795 98.0604C83.4059 95.2414 85.5744 93.7939 86.1273 93.447C81.3621 91.002 76.5968 88.5625 71.8316 86.1175L54.7601 91.3164L43.8418 123.334Z" fill="#88C7FF"/>
<path d="M91.6401 138.21C91.6401 138.21 95.229 148.624 105.996 150.045C109.828 150.549 113.352 152.387 115.868 155.325C116.941 156.577 118.139 158.035 119.397 159.662C117.819 156.946 116.491 153.818 115.83 150.343C115.83 150.343 116.898 148.706 117.695 146.087C113.471 146.803 101.268 147.838 91.6401 138.21Z" fill="#39A2FF"/>
<path d="M117.489 247.518C117.489 247.518 161.601 214.926 130.657 172.743C129.892 171.702 128.998 170.77 128.022 169.93C126.992 169.046 125.458 167.636 123.815 165.761C134.967 182.35 145.972 208.897 122.167 229.433C117.787 233.212 112.078 235.163 106.321 234.599C99.5445 233.933 91.2608 229.774 85.2324 215.809C85.2324 215.809 87.3792 235.456 105.193 244.265C109.899 246.597 113.173 251.091 113.824 256.306C114.653 262.947 115.168 273.296 113.873 288.096C113.862 288.091 118.931 262.248 117.489 247.518Z" fill="#39A2FF"/>
<path d="M77.4694 89.0123L71.2783 88.6816L75.0352 100.809C75.0352 100.809 83.14 120.586 101.035 119.94C101.035 119.94 91.9332 115.099 83.3026 102.679C82.8797 102.072 82.7388 101.308 82.9068 100.587C83.1996 99.3723 83.7797 97.7134 84.994 96.0491C86.7397 93.6529 88.8702 92.4873 89.9057 92.0049C85.7584 91.0019 81.6112 90.0098 77.4694 89.0123Z" fill="#FC9E81"/>
<path d="M118.643 55.4659C118.643 55.4659 119.955 62.0147 115.342 69.6207C114.707 70.667 113.596 70.7049 112.707 71.388C111.829 72.0602 111.297 73.1499 111.173 74.2342C111.075 75.0961 111.249 76.0123 111.319 76.8743C111.406 77.9965 111.493 79.1187 111.579 80.2409C111.59 80.3764 111.601 80.5119 111.612 80.6475C111.693 81.7371 111.856 82.9352 111.064 83.8189C110.349 84.6104 109.216 84.5941 108.256 84.3556C107.985 84.258 107.709 84.1604 107.427 84.0683C107.123 83.9653 106.819 83.8677 106.527 83.7809C106.494 83.7701 105.751 83.5695 105.204 84.0899C104.732 84.5399 104.787 85.1525 104.797 85.223C104.797 85.223 105.085 87.2451 103.063 86.665C103.063 86.665 102.195 88.6871 101.04 88.9745C101.04 88.9745 101.29 91.2405 99.2081 91.3056C98.8611 91.3164 98.525 91.4357 98.2485 91.6417L98.2214 91.6634C97.8365 91.9561 97.5925 92.3953 97.5438 92.8778C97.4408 93.9186 97.1046 95.0029 96.3511 95.7564C95.6246 96.4829 94.5187 96.781 93.5104 96.7539C92.3665 96.7268 91.4991 96.1684 90.5666 95.5613C88.4469 94.1897 86.5061 92.5362 84.8093 90.6659C83.8931 89.6521 83.0474 88.5733 82.283 87.4348L74.1729 75.3943L82.695 51.8662L101.902 43.0513H113.943L117.787 48.2502L118.643 55.4659Z" fill="#FC9E81"/>
<path d="M112.431 70.629C112.431 70.629 112.832 70.4555 113.201 70.0381C113.618 69.5664 113.569 68.8346 113.098 68.4226C112.393 67.81 111.124 66.8992 109.4 66.4438C109.4 66.4438 106.077 65.7228 104.055 67.1648C104.776 67.0185 105.909 66.8938 107.232 67.1648C108.848 67.4955 109.916 68.2545 110.409 68.6069C111.396 69.3171 112.041 70.0923 112.431 70.629Z" fill="#452321"/>
<path d="M107.666 72.5047C107.666 72.5047 107.519 73.2258 109.254 74.0932C108.69 74.1582 107.411 74.31 106.511 73.9468C103.941 72.9168 103.377 69.8755 103.334 69.6152C103.974 70.1303 104.695 70.667 105.502 71.2037C106.256 71.7078 106.982 72.1361 107.666 72.5047Z" fill="#452321"/>
<path d="M109.975 69.8809C109.937 70.1628 109.802 70.8513 109.254 71.4964C108.663 72.1957 107.937 72.4343 107.666 72.5047C107.666 72.5047 105.069 71.35 103.334 69.6152C103.876 69.3333 104.716 68.9918 105.79 68.8942C107.828 68.7099 109.384 69.5231 109.975 69.8809Z" fill="#ED8B6E"/>
<path d="M101.892 85.4398L97.2729 83.4828L96.1182 82.9027L96.9856 85.7922L99.8751 88.6817L101.035 89.3431C101.046 89.1209 101.03 88.9691 101.03 88.9691C102.185 88.6817 103.052 86.6596 103.052 86.6596C103.399 86.7572 103.675 86.7789 103.898 86.7464L101.892 85.4398Z" fill="#F8FAFB"/>
<path d="M100.591 85.3639C100.466 85.3043 100.341 85.2447 100.217 85.1905C99.4143 84.8272 98.6336 84.4207 97.8692 83.987C97.2729 83.6454 96.6874 83.2876 96.1182 82.9027C96.1182 82.9027 98.7149 83.7701 100.737 84.0574C100.737 84.0574 103.307 84.1984 104.83 84.6863C104.76 84.9519 104.776 85.1688 104.781 85.2121C104.781 85.2121 105.069 87.2343 103.046 86.6542C102.228 86.2259 101.42 85.7651 100.591 85.3639Z" fill="#FC5162"/>
<path d="M96.1128 82.9027C96.1128 83.4719 96.1724 84.0412 96.2537 84.605C96.373 85.4398 96.5248 86.2747 96.7904 87.0825C97.1049 88.0366 97.544 88.9419 98.0427 89.8093C98.3409 90.3244 98.6553 90.8285 98.9915 91.3219C99.0565 91.311 99.127 91.3002 99.1975 91.3002C101.122 91.2405 101.052 89.2997 101.03 89.007C97.7554 86.4102 96.1128 82.9027 96.1128 82.9027Z" fill="#FC5162"/>
<path d="M116.578 153.243C116.507 153.059 116.54 152.853 116.664 152.706C117.152 152.132 118.583 150.972 121.077 152.983C121.386 153.232 121.755 153.395 122.14 153.476C122.948 153.644 124.346 154.067 125.067 155.048C125.257 155.309 125.506 155.515 125.783 155.683C126.536 156.143 127.919 157.136 128.353 158.41C128.466 158.746 128.667 159.049 128.922 159.304C129.556 159.949 130.673 161.196 130.982 162.334C131.096 162.746 131.334 163.115 131.627 163.424C132.169 163.993 132.928 165.002 133.08 166.308C133.145 166.85 133.389 167.349 133.757 167.75C134.462 168.515 134.522 169.756 134.316 170.721C134.088 171.805 133.329 172.619 132.646 173.448C131.296 175.085 130.516 175.356 130.147 175.448C129.789 175.535 129.177 175.665 128.607 175.237C128.239 174.961 128.033 174.516 128 174.055C127.941 173.188 128.39 172.537 128.998 172.011C130.19 170.976 131.275 169.366 131.036 169.572C130.602 169.94 130.158 170.293 129.659 170.558C129.247 170.781 128.889 170.981 128.602 171.144C126.58 172.315 125.544 173.204 124.27 173.166C122.953 173.128 122.183 172.109 122.536 170.857C122.677 170.363 122.942 170.038 123.099 169.854C124.243 168.531 126.292 167.116 127.16 166.525C127.978 165.961 128.64 165.506 129.036 165.224C128.732 165.446 127.436 166.384 126.249 167.241C124.525 168.488 124.493 168.45 124.059 168.829C123.398 169.409 122.937 169.924 121.961 170.569C121.213 171.063 120.871 171.166 120.519 171.149C119.944 171.122 119.375 170.781 119.077 170.282C118.654 169.577 118.909 168.791 119.077 168.26C119.136 168.076 119.31 167.756 119.662 167.121C120.183 166.184 120.535 165.69 120.925 165.267C121.001 165.186 121.061 165.121 121.099 165.083C122.118 164.026 123.978 162.031 126.444 159.45C124.471 161.521 122.498 163.592 120.524 165.658C120.454 165.728 120.356 165.831 120.237 165.945C119.223 166.926 118.714 167.42 118.215 167.387C117.478 167.338 116.794 166.249 116.773 165.365C116.751 164.617 117.206 163.782 117.423 163.375C117.472 163.283 117.51 163.224 117.553 163.148C117.754 162.817 118.052 162.448 119.375 160.692C119.792 160.133 120.21 159.58 120.627 159.022C120.736 158.881 120.98 158.626 121.229 158.225C121.468 157.84 121.609 157.607 121.684 157.282C121.847 156.555 121.571 155.78 121.543 155.699V155.693C121.543 155.693 121.663 156.046 121.69 156.127C121.842 156.604 121.733 157.098 121.69 157.282C121.63 157.537 121.527 158.019 121.11 158.437C120.963 158.583 120.546 159.006 119.955 159.017C119.239 159.028 118.741 158.431 118.513 158.149C117.993 157.526 118.177 157.271 117.667 156.078C117.19 154.989 116.93 154.17 116.578 153.243Z" fill="#FC9E81"/>
<path d="M129.751 175.161C129.491 175.302 129.236 175.34 128.933 175.161C128.607 174.961 128.358 174.586 128.298 174.212C128.288 174.142 128.282 174.033 128.309 173.893C128.391 173.508 128.705 173.28 128.889 173.155C129.388 172.808 130.402 172.402 130.911 172.868C131.101 173.041 131.145 173.269 131.155 173.318C131.28 173.99 130.456 174.673 129.952 175.036C129.887 175.08 129.822 175.123 129.751 175.161Z" fill="#ED8B6E"/>
<path d="M124.721 172.646C124.379 172.835 124.043 172.884 123.648 172.646C123.219 172.385 122.889 171.892 122.813 171.399C122.796 171.307 122.791 171.16 122.829 170.981C122.937 170.477 123.349 170.179 123.593 170.011C124.249 169.556 125.583 169.019 126.244 169.631C126.494 169.859 126.553 170.157 126.564 170.222C126.727 171.106 125.643 172.001 124.987 172.478C124.9 172.543 124.808 172.597 124.721 172.646Z" fill="#ED8B6E"/>
<path d="M121.69 170.266C121.419 170.575 121.105 170.743 120.628 170.645C120.113 170.542 119.614 170.174 119.359 169.707C119.31 169.621 119.251 169.48 119.223 169.29C119.153 168.753 119.451 168.314 119.635 168.059C120.123 167.376 121.251 166.373 122.124 166.742C122.449 166.877 122.617 167.154 122.65 167.214C123.127 168.027 122.373 169.301 121.891 170.005C121.826 170.098 121.761 170.184 121.69 170.266Z" fill="#ED8B6E"/>
<path d="M119.24 166.628C118.936 166.861 118.622 166.964 118.199 166.791C117.743 166.606 117.348 166.178 117.201 165.712C117.174 165.625 117.142 165.484 117.153 165.305C117.18 164.801 117.532 164.449 117.743 164.248C118.313 163.706 119.516 162.985 120.253 163.473C120.53 163.657 120.633 163.939 120.655 163.999C120.947 164.828 120.037 165.864 119.473 166.427C119.391 166.498 119.316 166.563 119.24 166.628Z" fill="#ED8B6E"/>
<path d="M121.235 157.309C121.279 157.689 121.192 158.008 120.823 158.279C120.427 158.567 119.858 158.675 119.381 158.556C119.294 158.534 119.159 158.485 119.007 158.382C118.59 158.09 118.481 157.607 118.422 157.325C118.259 156.556 118.34 155.433 119.143 155.065C119.441 154.929 119.739 154.989 119.799 155C120.661 155.189 121.002 156.225 121.181 157C121.208 157.108 121.224 157.211 121.235 157.309Z" fill="#ED8B6E"/>
<path d="M118.785 55.8996C121.084 54.8858 122.2 48.2611 119.94 42.9049C117.798 37.8252 113.288 35.467 109.834 33.6617C101.421 29.2651 93.3811 29.5524 89.4724 29.7639C83.6391 30.0783 75.5561 30.5066 69.1103 36.2639C65.6352 39.3648 63.7378 43.035 62.7566 44.927C58.9997 52.1806 60.0839 53.9805 56.983 59.6565C53.1176 66.7258 49.8215 65.9831 44.8557 73.5186C41.4674 78.6633 40.0904 83.2713 39.0821 87.3806C36.057 99.6489 40.8386 101.004 38.9845 115.885C38.7568 117.718 38.3773 120.157 39.7977 122.158C42.3674 125.768 48.8294 125.188 51.7894 124.928C56.4029 124.516 63.2662 123.383 66.2316 119.154C70.2053 113.473 60.2249 105.189 63.2011 97.9303C64.3233 95.1926 65.5431 94.2493 65.9443 94.0325C67.5977 93.1326 69.056 93.7506 73.1653 94.3198C73.1653 94.3198 78.9173 95.3715 79.7684 95.5016C83.4114 96.0546 86.9786 93.2952 88.5345 92.0863C89.4398 91.3869 91.3427 89.7606 93.2239 86.4807C96.3031 81.1029 95.2134 78.4573 97.962 67.8263C98.7752 64.682 99.8377 61.1798 102.245 58.2958C102.245 58.2958 104.961 55.0376 108.105 54.4684C108.506 54.3979 108.88 54.3762 108.88 54.3762C109.981 54.3708 110.94 54.9454 115.039 55.6231C117.169 55.9646 118.248 56.1381 118.785 55.8996Z" fill="#452321"/>
<path d="M55.898 96.163L40.6643 112.362C40.6643 112.362 23.9127 125.069 8.02854 142.975C6.87382 144.217 5.32877 146.13 3.98431 148.749C3.05728 150.56 2.52058 151.633 2.55853 153.01C2.65611 156.496 6.35338 158.827 7.17199 159.32L9.18326 160.301C9.18326 160.301 31.9958 173.583 50.7695 175.606C50.7695 175.606 59.7199 177.34 60.5873 181.092C60.5873 181.092 62.0294 193.788 62.0294 193.799C62.3709 196.819 61.3463 199.79 61.6174 202.815C61.8071 204.913 62.0944 207.011 62.3167 209.109L62.3817 215.061C62.1757 215.831 62.7016 216.541 63.2329 216.715C63.6883 216.861 64.2575 216.612 64.5069 216.238C64.7562 215.864 64.6099 215.473 64.8647 215.338C65.049 215.24 65.1791 215.419 65.5261 215.441C66.0573 215.468 66.5561 215.088 66.8 214.725C67.0006 214.422 67.0061 214.156 67.0548 213.739C67.1145 213.251 67.2337 212.557 67.5102 211.706C67.5102 211.706 68.0524 209.396 68.9523 206.794C69.5703 205.016 70.1287 203.829 70.6274 202.733C71.5057 200.798 72.7363 197.936 74.1512 194.087C74.4386 193.414 74.7313 192.737 75.0186 192.064C75.1433 191.858 75.5716 191.213 76.1733 191.197C76.401 191.192 76.7643 191.273 77.6154 192.352C78.7593 193.799 79.1984 195.529 80.0333 197.155C80.7218 198.489 81.8006 200.007 83.389 200.728C83.389 200.728 89.1626 203.324 86.5658 197.551L85.5737 195.572C85.3352 195.095 85.1401 194.602 84.9666 194.097C84.766 193.517 84.3269 192.547 83.3944 191.457C82.8035 190.769 82.2614 190.031 81.8168 189.24C81.4482 188.579 81.047 187.803 80.7868 187.158C80.7868 187.158 80.2989 185.689 79.5616 184.345C79.0412 183.39 78.5695 182.409 78.1792 181.395C77.3877 179.363 75.783 176.088 73.2784 174.744C73.2784 174.744 71.5436 173.876 70.6816 173.009C70.6816 173.009 66.697 169.274 61.7366 167.121C60.6849 166.666 59.6332 166.2 58.6086 165.679C54.5643 163.636 45.3049 158.74 40.6481 154.522C40.6481 154.522 35.3136 150.045 33.8173 148.781C33.6276 148.624 33.6438 148.331 33.839 148.19C34.7172 147.562 36.7014 146.017 36.8695 145.903C41.7648 142.504 46.9746 139.657 51.7995 136.139C57.8767 131.705 63.6828 126.88 69.0173 121.572C69.6787 120.916 70.3293 120.249 70.9744 119.577C70.9744 119.577 85.1238 108.025 76.1733 97.6267C76.1733 97.6267 76.092 97.502 75.9294 97.2798C71.0937 90.7418 61.4818 90.2322 55.898 96.163Z" fill="#FC9E81"/>
<path d="M86.9181 198.993C86.9561 199.139 87.0266 199.421 87.0157 199.725C87.0049 199.909 86.9886 200.305 86.7284 200.592C86.3001 201.064 85.514 200.923 85.2863 200.879C84.8797 200.803 84.6033 200.63 84.5274 200.581C84.0015 200.234 83.7847 199.735 83.6871 199.454C83.3781 198.597 83.1829 196.971 84.0557 196.418C84.381 196.212 84.728 196.233 84.7984 196.239C85.8176 196.32 86.4899 197.778 86.8151 198.646C86.8748 198.819 86.9181 198.993 86.9181 198.993Z" fill="#ED8B6E"/>
<path d="M92.0688 288.091C73.0999 277.254 59.1078 256.089 52.6294 244.791C53.0577 247.67 53.795 250.695 54.9063 253.872C55.855 256.577 57.1507 259.136 58.6524 261.575C59.9806 263.728 61.9485 268.2 62.328 276.104L62.2087 288.091H92.0688Z" fill="#39A2FF"/>
<path d="M66.7787 213.966C66.7624 214.297 66.6594 214.573 66.3395 214.796C65.9926 215.034 65.5318 215.116 65.1686 214.996C65.1035 214.975 65.0005 214.931 64.8975 214.839C64.6048 214.579 64.5776 214.156 64.5668 213.907C64.5343 213.24 64.7349 212.269 65.4125 211.971C65.6673 211.863 65.8896 211.917 65.9384 211.933C66.5889 212.118 66.7353 213.023 66.7787 213.701C66.7841 213.798 66.7841 213.885 66.7787 213.966Z" fill="#ED8B6E"/>
<path d="M64.5884 215.5C64.5884 215.777 64.5071 216.005 64.2306 216.178C63.9324 216.368 63.5258 216.417 63.2006 216.308C63.1409 216.287 63.0488 216.249 62.9512 216.167C62.6801 215.94 62.6367 215.582 62.6205 215.376C62.5609 214.817 62.7018 214.01 63.2927 213.787C63.515 213.706 63.7156 213.76 63.7589 213.771C64.3499 213.95 64.5125 214.714 64.5775 215.278C64.583 215.354 64.5884 215.43 64.5884 215.5Z" fill="#ED8B6E"/>
<path d="M78.9062 107.553C78.9062 107.553 47.192 117.718 42.275 110.193C41.825 109.499 40.8383 109.418 40.2691 110.014L33.9371 116.59C33.4492 117.1 33.4546 117.902 33.9534 118.401C36.5068 120.943 46.4222 126.11 78.9062 107.553Z" fill="#88C7FF"/>
<path d="M31.2476 119.366L24.6012 124.923C23.9615 125.459 23.9452 126.43 24.5632 126.988C28.8352 130.837 45.809 141.457 78.9002 107.553C78.9002 107.553 45.3536 131.9 33.0962 119.458C32.6029 118.948 31.7952 118.905 31.2476 119.366Z" fill="#88C7FF"/>
<path d="M78.9065 107.553C78.7276 105.813 78.1638 102.668 76.0875 99.4212C73.1112 94.7698 68.8935 92.8073 67.2617 92.1513C68.0803 92.2652 68.7255 92.4224 69.1537 92.5416C71.5608 93.2085 72.6125 94.1897 74.6075 94.58C74.7755 94.6125 75.399 94.7264 75.9845 94.8348C76.673 94.9595 77.2422 95.0571 77.6325 95.1276C77.8006 95.4637 77.9578 95.8161 78.1042 96.1793C79.7685 100.278 79.5571 104.371 78.9065 107.553Z" fill="#88C7FF"/>
<path d="M113.407 55.2816C111.726 54.8533 109.959 54.7448 108.246 54.9888C106.532 55.2328 104.863 55.8291 103.404 56.767C101.946 57.6994 100.699 58.968 99.8156 60.4642C98.9157 61.9605 98.4061 63.6628 98.2055 65.4192C97.7772 68.9376 98.4982 72.5698 98.0103 76.24C97.761 78.0615 97.3164 79.8343 96.7255 81.5637C96.1346 83.293 95.3648 84.9573 94.4269 86.5241C93.4944 88.0962 92.3614 89.5383 91.0983 90.8502C90.4748 91.5116 89.7972 92.1242 89.1087 92.7151C88.3985 93.2843 87.6721 93.8373 86.8968 94.3198C85.3572 95.2902 83.6603 96.0383 81.8768 96.4232C81.6545 96.4666 81.4322 96.5317 81.2045 96.5642L80.5215 96.6455C80.2938 96.6672 80.0661 96.7051 79.8384 96.716L79.1553 96.7377C78.2445 96.7431 77.3338 96.6672 76.4393 96.5208C74.6448 96.2281 72.9155 95.6751 71.2295 95.0571C70.3838 94.7481 69.5489 94.4228 68.714 94.0975C67.8846 93.7668 67.0334 93.4849 66.204 93.1217C65.3745 92.7693 64.5668 92.3953 63.7373 92.0808C62.9079 91.7718 62.0676 91.5062 61.2002 91.4682C60.7665 91.3978 60.3328 91.452 59.8991 91.452C59.6823 91.4682 59.4654 91.5116 59.2486 91.5387L58.9233 91.5875C58.8149 91.6038 58.7119 91.6363 58.6034 91.6634L57.9692 91.826C57.7577 91.8911 57.5571 91.9724 57.3457 92.0429C56.9283 92.173 56.5325 92.379 56.1314 92.5579C54.543 93.3331 53.0955 94.4011 51.7293 95.545C50.3632 96.6943 49.0838 97.952 47.8369 99.2423C45.3323 101.817 42.974 104.523 40.7026 107.314C40.1387 108.014 39.5695 108.713 39.0274 109.423C38.4853 110.139 37.9757 110.876 37.4661 111.619C36.4577 113.104 35.4873 114.628 34.4465 116.097C33.4002 117.566 32.278 118.992 31.004 120.271C29.7354 121.551 28.3584 122.727 26.8839 123.762C25.4147 124.809 23.8588 125.714 22.2433 126.506C20.6386 127.313 18.9472 127.948 17.272 128.566C13.9434 129.851 10.7232 131.52 7.95294 133.803C7.26444 134.372 6.60847 134.99 5.98503 135.635C5.37785 136.291 4.78694 136.974 4.27192 137.711C3.22563 139.17 2.3745 140.774 1.75106 142.466C0.477067 145.843 0.0216849 149.486 0 153.091C0 149.486 0.439119 145.843 1.69684 142.449C2.31486 140.753 3.15515 139.137 4.20145 137.668C4.71646 136.925 5.30195 136.237 5.90913 135.575C6.53257 134.925 7.18312 134.301 7.87704 133.727C10.6473 131.417 13.8729 129.726 17.207 128.419C18.0418 128.094 18.8876 127.796 19.7116 127.449C20.541 127.113 21.3542 126.739 22.1511 126.343C23.7504 125.546 25.2954 124.635 26.7483 123.589C28.2066 122.554 29.5674 121.383 30.8197 120.103C32.0774 118.829 33.1833 117.414 34.2134 115.945C35.2434 114.47 36.2029 112.953 37.2113 111.456C37.7155 110.708 38.2251 109.965 38.7672 109.239C39.3093 108.513 39.8731 107.813 40.4369 107.114C42.6921 104.306 45.0504 101.579 47.5496 98.982C48.7964 97.6809 50.0759 96.4124 51.4528 95.2414C52.8298 94.0758 54.2936 92.9862 55.9254 92.1784C56.3428 91.9941 56.744 91.7772 57.1777 91.6417C57.3945 91.5658 57.6059 91.4791 57.8228 91.414L58.4842 91.2405C58.598 91.2134 58.7065 91.1755 58.8149 91.1592L59.1564 91.1104C59.3841 91.0779 59.6118 91.0345 59.8395 91.0183C60.3003 91.0128 60.7611 90.9586 61.2165 91.0291C62.1381 91.0671 63.0326 91.3435 63.8837 91.658C64.7349 91.9724 65.5535 92.3465 66.3721 92.6934C67.1852 93.0404 68.0364 93.3223 68.8712 93.6476C69.7115 93.9674 70.5464 94.2873 71.3813 94.5908C73.0564 95.198 74.7587 95.7293 76.4989 96.0058C77.3717 96.1413 78.25 96.2064 79.1282 96.201L79.7842 96.1739C80.001 96.163 80.2179 96.1251 80.4347 96.1034L81.0853 96.0221C81.3021 95.9949 81.5135 95.9299 81.725 95.8865C83.4381 95.507 85.0644 94.7806 86.5499 93.8319C87.298 93.3656 88.0028 92.8235 88.6858 92.2651C89.3526 91.6851 90.014 91.0887 90.6158 90.4382C91.841 89.1534 92.9361 87.7384 93.836 86.2096C95.6467 83.1521 96.7851 79.6879 97.273 76.1695C97.7338 72.6512 96.9966 69.0352 97.414 65.3542C97.6146 63.5218 98.1459 61.6894 99.1 60.0847C100.043 58.4746 101.371 57.1031 102.927 56.1001C104.483 55.0918 106.261 54.4467 108.088 54.1756C109.915 53.9046 111.791 54.013 113.58 54.4629L113.407 55.2816Z" fill="#452321"/>
<path d="M71.4302 95.301C68.3726 97.399 64.9952 99.0362 61.4063 99.9145C60.5118 100.148 59.6011 100.294 58.6849 100.429C57.7633 100.554 56.8363 100.635 55.9038 100.701C54.0389 100.825 52.1577 100.858 50.2657 100.939C48.3792 101.02 46.4763 101.156 44.5897 101.481C44.1181 101.552 43.6518 101.666 43.1802 101.758C42.7194 101.877 42.2423 101.98 41.7924 102.11C40.8816 102.359 39.9708 102.609 39.0655 102.891C37.2548 103.444 35.4495 104.121 33.7906 105.086C32.1263 106.046 30.6409 107.298 29.4103 108.773C28.1959 110.264 27.2852 111.977 26.6509 113.771C26.0003 115.56 25.5666 117.403 25.1221 119.23C24.683 121.063 24.2222 122.884 23.6258 124.668C23.0241 126.446 22.2976 128.181 21.3814 129.823C19.5653 133.114 17.1041 136.036 14.2417 138.486C17.1421 136.085 19.6575 133.195 21.5387 129.91C22.4874 128.273 23.2518 126.533 23.8806 124.755C24.5095 122.971 24.9974 121.144 25.4691 119.317C25.9461 117.496 26.4069 115.669 27.0737 113.923C27.7243 112.177 28.6351 110.529 29.8277 109.114C31.0367 107.716 32.4895 106.523 34.1051 105.628C35.7206 104.723 37.4771 104.094 39.2769 103.574C40.1768 103.314 41.0822 103.08 41.993 102.847C42.4483 102.723 42.8983 102.631 43.3483 102.522C43.8036 102.441 44.259 102.338 44.7198 102.278C46.5576 101.991 48.4225 101.888 50.2983 101.839C52.174 101.785 54.0606 101.785 55.958 101.687C56.9067 101.633 57.8555 101.568 58.8096 101.454C59.7583 101.324 60.7124 101.188 61.6503 100.961C65.4018 100.104 68.9419 98.4562 72.1295 96.3419C73.6908 95.3118 75.1763 94.1842 76.602 92.9861C76.434 92.8886 76.087 92.7259 75.6154 92.7042C75.1546 92.6826 74.7968 92.8127 74.6233 92.8886C73.5933 93.7451 72.5307 94.5529 71.4302 95.301Z" fill="#452321"/>
<path d="M49.4902 137.771C52.5586 135.722 55.7626 133.342 59.0099 130.566C68.1121 122.787 74.4929 114.514 78.9058 107.553C78.4558 109.011 77.686 111.229 76.4446 113.793C72.3841 122.19 67.2068 126.132 64.1926 129.737C60.6742 133.943 57.0745 141.289 57.8389 154.956L60.7881 166.655L49.4902 137.771Z" fill="#39A2FF"/>
<path d="M51.3555 175.736C53.3559 176.197 59.8614 177.926 60.5932 181.097C60.5932 181.097 62.0353 193.794 62.0353 193.805C62.0732 194.135 62.0949 194.466 62.1003 194.797C63.1846 189.3 62.6533 183.336 62.2955 180.593C62.16 179.541 61.5799 178.598 60.7071 178.002C57.3134 175.682 53.8113 175.465 51.3555 175.736Z" fill="#ED8B6E"/>
<path d="M53.4256 162.936C49.0995 160.551 43.8246 157.385 40.6695 154.528C40.6695 154.528 35.335 150.05 33.8387 148.787C33.6544 148.63 33.6652 148.337 33.8604 148.196C34.7387 147.567 36.7228 146.022 36.8909 145.908C38.4793 144.808 40.1002 143.761 41.732 142.731L32.9442 147.182C31.9576 147.681 31.8383 149.036 32.7165 149.703C37.0752 153.01 47.9068 160.968 53.4256 162.936Z" fill="#ED8B6E"/>
<path d="M206.695 287.928C207.221 286.551 207.947 285.337 208.657 284.345C211.872 279.877 214.214 274.841 215.434 269.48C220.714 246.244 209.595 226.224 205.979 220.526C205.903 220.407 205.827 220.282 205.751 220.163C205.724 220.114 205.697 220.07 205.67 220.022C205.627 219.946 205.583 219.875 205.54 219.799C205.502 219.74 205.469 219.675 205.437 219.615C205.404 219.555 205.372 219.501 205.339 219.442C205.301 219.366 205.258 219.295 205.22 219.219C205.198 219.181 205.177 219.143 205.16 219.106C204.933 218.677 204.716 218.238 204.521 217.794H148.785C148.801 218.135 148.823 218.471 148.839 218.802C148.839 218.824 148.839 218.845 148.845 218.867C148.861 219.176 148.883 219.485 148.904 219.794C148.904 219.821 148.91 219.848 148.91 219.875C148.915 219.967 148.921 220.054 148.926 220.146C148.926 220.184 148.932 220.222 148.932 220.26C148.942 220.45 148.959 220.634 148.969 220.819C148.969 220.824 148.969 220.835 148.969 220.84C148.975 220.911 148.98 220.981 148.986 221.052C148.991 221.111 148.997 221.176 149.002 221.236C149.007 221.301 149.013 221.366 149.018 221.431C149.024 221.507 149.029 221.583 149.035 221.659C149.04 221.708 149.04 221.756 149.045 221.8C149.056 221.919 149.067 222.038 149.072 222.158C149.078 222.201 149.078 222.239 149.083 222.282C149.089 222.369 149.1 222.461 149.105 222.548C149.11 222.586 149.11 222.624 149.116 222.662C149.127 222.781 149.138 222.906 149.148 223.025C149.506 227.026 149.593 231.048 149.419 235.066C149.409 235.293 149.398 235.521 149.392 235.743C149.392 235.808 149.387 235.873 149.387 235.938C149.381 236.117 149.371 236.291 149.365 236.47C149.365 236.524 149.36 236.584 149.36 236.638C149.349 236.865 149.344 237.088 149.338 237.315C149.338 237.359 149.333 237.402 149.333 237.446C149.327 237.63 149.322 237.82 149.316 238.004C149.316 238.069 149.311 238.139 149.311 238.204C149.306 238.394 149.3 238.584 149.295 238.774C149.295 238.812 149.295 238.855 149.289 238.893C149.284 239.121 149.278 239.343 149.273 239.571C149.273 239.63 149.268 239.69 149.268 239.75C149.262 239.923 149.257 240.097 149.257 240.27C149.257 240.335 149.251 240.4 149.251 240.471C149.246 240.698 149.241 240.926 149.235 241.148C149.235 241.159 149.235 241.164 149.235 241.175C149.23 241.392 149.224 241.614 149.224 241.831C149.224 241.896 149.224 241.961 149.219 242.026C149.213 242.205 149.213 242.379 149.208 242.558C149.208 242.617 149.208 242.672 149.208 242.731C149.203 242.959 149.203 243.181 149.197 243.409C149.197 243.458 149.197 243.501 149.197 243.55C149.197 243.734 149.192 243.918 149.192 244.108C149.192 244.173 149.192 244.244 149.192 244.309C149.192 244.499 149.186 244.694 149.186 244.883C149.186 244.921 149.186 244.959 149.186 244.997C149.186 245.225 149.181 245.447 149.181 245.675C149.181 245.735 149.181 245.8 149.181 245.859C149.181 246.033 149.181 246.206 149.181 246.38C149.181 246.445 149.181 246.51 149.181 246.575C149.181 246.803 149.181 247.03 149.181 247.258C149.181 247.274 149.181 247.29 149.181 247.312C149.181 247.524 149.181 247.735 149.181 247.946C149.181 248.011 149.181 248.082 149.181 248.147C149.181 248.326 149.181 248.499 149.181 248.678C149.181 248.733 149.181 248.792 149.181 248.846C149.181 249.074 149.181 249.296 149.186 249.524C149.186 249.573 149.186 249.627 149.186 249.676C149.186 249.855 149.192 250.039 149.192 250.218C149.192 250.288 149.192 250.353 149.192 250.424C149.192 250.619 149.197 250.814 149.197 251.009C149.197 251.042 149.197 251.08 149.197 251.112C149.203 251.34 149.203 251.562 149.208 251.79C149.208 251.855 149.208 251.915 149.213 251.98C149.213 252.153 149.219 252.327 149.224 252.5C149.224 252.565 149.224 252.63 149.23 252.695C149.235 252.923 149.235 253.145 149.241 253.373C149.241 253.4 149.241 253.422 149.241 253.449C149.246 253.65 149.246 253.856 149.251 254.056C149.251 254.127 149.257 254.192 149.257 254.262C149.262 254.441 149.262 254.615 149.268 254.793C149.268 254.848 149.268 254.907 149.273 254.961C149.278 255.184 149.284 255.411 149.289 255.634C149.289 255.688 149.295 255.742 149.295 255.796C149.3 255.975 149.306 256.149 149.311 256.328C149.311 256.398 149.316 256.469 149.316 256.539C149.322 256.734 149.327 256.929 149.333 257.125C149.333 257.157 149.333 257.19 149.338 257.222C149.344 257.444 149.354 257.672 149.36 257.894C149.36 257.959 149.365 258.024 149.365 258.09C149.371 258.258 149.376 258.431 149.381 258.599C149.381 258.664 149.387 258.729 149.387 258.794C149.392 259.017 149.403 259.244 149.409 259.467C149.409 259.499 149.409 259.532 149.414 259.559C149.419 259.754 149.43 259.949 149.436 260.144C149.436 260.215 149.441 260.28 149.441 260.35C149.447 260.524 149.457 260.703 149.463 260.876C149.463 260.93 149.468 260.984 149.468 261.039C149.479 261.261 149.484 261.483 149.495 261.705C149.495 261.76 149.501 261.814 149.501 261.874C149.506 262.047 149.517 262.221 149.522 262.394C149.528 262.464 149.528 262.53 149.533 262.6C149.544 262.795 149.55 262.996 149.56 263.191C149.56 263.218 149.56 263.245 149.566 263.272C149.577 263.494 149.587 263.717 149.598 263.934C149.604 263.999 149.604 264.064 149.609 264.134C149.62 264.302 149.625 264.47 149.636 264.633C149.642 264.698 149.642 264.763 149.647 264.828C149.658 265.05 149.669 265.267 149.68 265.489C149.68 265.527 149.685 265.565 149.685 265.603C149.696 265.793 149.707 265.977 149.712 266.162C149.718 266.232 149.718 266.303 149.723 266.373C149.734 266.547 149.745 266.72 149.75 266.894C149.756 266.942 149.756 266.997 149.761 267.045C149.772 267.262 149.788 267.485 149.799 267.701C149.804 267.761 149.804 267.815 149.81 267.875C149.821 268.043 149.831 268.211 149.837 268.384C149.842 268.45 149.842 268.52 149.848 268.585C149.859 268.786 149.869 268.992 149.886 269.192C149.886 269.214 149.886 269.23 149.891 269.252C149.902 269.469 149.918 269.686 149.934 269.908C149.94 269.973 149.945 270.043 149.945 270.108C149.956 270.271 149.967 270.434 149.978 270.596C149.983 270.661 149.989 270.721 149.989 270.786C150.005 271.003 150.016 271.22 150.032 271.437C150.032 271.475 150.037 271.513 150.037 271.556C150.048 271.735 150.059 271.919 150.075 272.098C150.081 272.168 150.086 272.239 150.092 272.304C150.103 272.477 150.113 272.646 150.13 272.819C150.135 272.868 150.135 272.917 150.14 272.971C150.157 273.188 150.173 273.399 150.184 273.616C150.189 273.676 150.195 273.73 150.195 273.789C150.206 273.957 150.216 274.12 150.233 274.288C150.238 274.353 150.243 274.418 150.249 274.483C150.265 274.689 150.281 274.89 150.292 275.09C150.292 275.107 150.292 275.118 150.298 275.134C150.314 275.351 150.33 275.562 150.346 275.779C150.352 275.844 150.357 275.909 150.363 275.969C150.374 276.131 150.39 276.299 150.401 276.462C150.406 276.522 150.412 276.576 150.412 276.636C150.428 276.847 150.444 277.058 150.46 277.27C150.466 277.313 150.466 277.357 150.471 277.4C150.487 277.573 150.498 277.747 150.515 277.92C150.52 277.985 150.525 278.05 150.531 278.116C150.547 278.289 150.558 278.463 150.574 278.631C150.58 278.674 150.58 278.717 150.585 278.766C150.601 278.978 150.623 279.189 150.639 279.395C150.645 279.449 150.65 279.509 150.655 279.563C150.672 279.726 150.683 279.888 150.699 280.051C150.704 280.111 150.71 280.176 150.715 280.235C150.731 280.441 150.753 280.653 150.769 280.859C150.769 280.864 150.769 280.875 150.769 280.88C150.786 281.086 150.807 281.292 150.824 281.498C150.829 281.563 150.834 281.623 150.84 281.688C150.856 281.851 150.867 282.013 150.883 282.171C150.889 282.225 150.894 282.279 150.899 282.333C150.921 282.539 150.937 282.751 150.959 282.957C150.964 283 150.964 283.043 150.97 283.081C150.986 283.249 151.002 283.423 151.019 283.591C151.024 283.656 151.03 283.716 151.035 283.781C151.051 283.954 151.067 284.122 151.084 284.296C151.089 284.334 151.089 284.377 151.095 284.415C151.116 284.621 151.133 284.827 151.154 285.033C151.16 285.087 151.165 285.141 151.17 285.196C151.187 285.353 151.203 285.516 151.219 285.673C151.225 285.732 151.23 285.792 151.236 285.846C151.257 286.052 151.279 286.258 151.295 286.464C151.295 286.475 151.295 286.48 151.301 286.491C151.322 286.687 151.339 286.882 151.36 287.077C151.366 287.136 151.371 287.196 151.377 287.261C151.393 287.418 151.409 287.576 151.425 287.733C151.431 287.787 151.436 287.836 151.442 287.89C151.442 287.906 151.447 287.928 151.447 287.944H206.695V287.928Z" fill="black"/>
<path d="M204.51 217.783C203.913 216.449 203.453 215.05 203.144 213.614C200.531 201.421 205.599 186.746 205.599 186.746L214.962 156.539C232.63 95.0624 187.227 67.3274 187.227 67.3274C179.903 61.5863 178.922 52.7714 178.922 52.7714L176.52 42.6717L171.034 32.5774L159.969 30.7721L158.971 53.8611L141.466 70.9488C145.473 70.7862 146.85 72.6402 146.85 72.6402C148.492 74.8954 151.252 77.6982 151.252 77.6982C155.139 80.5552 157.54 86.9902 158.332 89.4081C158.521 89.9881 158.581 90.6007 158.505 91.2025L158.153 94.0324C157.763 97.1658 156.776 100.196 155.252 102.956C143.022 126.939 142.339 139.43 144.508 146.456C144.833 147.507 146.161 148.982 145.988 151.622C145.066 165.755 146.725 172.732 147.815 175.665C148.357 177.129 148.644 178.674 148.649 180.235C148.671 186.806 148.883 195.285 149.034 200.57C149.11 203.14 149.045 205.71 148.828 208.274C148.552 211.462 148.644 215.305 148.85 218.802C148.828 218.466 148.812 218.13 148.796 217.793H204.51V217.783Z" fill="#FC9E81"/>
<path d="M151.42 77.8284C151.42 77.8284 151.431 77.8393 151.447 77.8501C151.502 77.8935 151.561 77.9369 151.616 77.9856C151.626 77.9965 151.637 78.0019 151.648 78.0128C151.702 78.0561 151.756 78.1049 151.816 78.1537C151.822 78.1591 151.832 78.1645 151.838 78.17C151.892 78.2188 151.946 78.2621 152 78.3109C152.006 78.3163 152.011 78.3163 152.011 78.3218C152.065 78.3706 152.12 78.4193 152.174 78.4736C152.185 78.4844 152.19 78.4898 152.201 78.5007C152.255 78.5495 152.304 78.6037 152.358 78.6524C152.369 78.6633 152.375 78.6687 152.385 78.6796C152.44 78.7338 152.494 78.788 152.543 78.8422C152.548 78.8476 152.548 78.8476 152.553 78.853C152.608 78.9073 152.656 78.9615 152.705 79.0157C152.711 79.0211 152.716 79.0319 152.727 79.0374C152.776 79.0916 152.83 79.1458 152.879 79.2054C152.89 79.2163 152.895 79.2271 152.906 79.2379C152.955 79.2922 153.003 79.3518 153.052 79.406C153.058 79.4168 153.068 79.4223 153.074 79.4331C153.177 79.5524 153.28 79.6771 153.377 79.7963C153.383 79.8072 153.394 79.8126 153.399 79.8234C153.448 79.8831 153.497 79.9427 153.54 80.0023C153.545 80.0132 153.556 80.024 153.562 80.0349C153.611 80.0945 153.654 80.1596 153.703 80.2192C153.708 80.2246 153.714 80.23 153.714 80.2355C153.762 80.3005 153.806 80.3601 153.854 80.4252C153.854 80.4306 153.86 80.4306 153.86 80.436C153.909 80.5011 153.952 80.5661 154.001 80.6312C154.006 80.642 154.012 80.6475 154.023 80.6583C154.066 80.7234 154.115 80.7884 154.158 80.8535C154.164 80.8643 154.169 80.8697 154.174 80.8806C154.218 80.9456 154.267 81.0161 154.31 81.0812C154.353 81.1516 154.402 81.2221 154.445 81.2926C154.451 81.298 154.451 81.3034 154.456 81.3088C154.5 81.3793 154.543 81.4444 154.586 81.5149C154.592 81.5257 154.597 81.5311 154.603 81.542C154.646 81.6124 154.689 81.6775 154.733 81.748C154.738 81.7534 154.738 81.7588 154.744 81.7642C154.83 81.9052 154.917 82.0516 154.998 82.1979C155.004 82.2034 155.004 82.2088 155.009 82.2142C155.053 82.2847 155.091 82.3551 155.128 82.4256C155.134 82.431 155.134 82.4419 155.139 82.4473C155.183 82.5178 155.221 82.5937 155.259 82.6642C155.259 82.6642 155.259 82.6642 155.259 82.6696C155.34 82.8214 155.421 82.9732 155.503 83.1195C155.508 83.125 155.508 83.1304 155.513 83.1358C155.551 83.2117 155.589 83.2822 155.627 83.3581C155.627 83.3635 155.633 83.3635 155.633 83.3689C155.709 83.5207 155.79 83.6725 155.86 83.8243C155.898 83.9002 155.936 83.9761 155.969 84.052C155.969 84.0574 155.974 84.0574 155.974 84.0628C156.012 84.1387 156.045 84.2146 156.083 84.2851C155.492 76.0015 157.367 70.5043 159.227 66.9968C161.526 62.649 163.878 61.169 165.976 56.4742C168.438 50.9663 168.497 45.6155 168.161 41.9724C167.7 39.7443 167.234 37.5162 166.773 35.2827C164.345 37.359 161.916 39.4407 159.487 41.5171C158.392 44.0217 157.297 46.5317 156.202 49.0363C151.285 56.3387 146.362 63.6357 141.445 70.9381C141.51 70.9381 141.57 70.9326 141.63 70.9326C141.695 70.9326 141.754 70.9326 141.819 70.9272C142.231 70.9218 142.611 70.9381 142.963 70.976C142.98 70.976 142.99 70.976 143.007 70.9814C143.256 71.0085 143.489 71.041 143.711 71.079C143.804 71.0953 143.89 71.1115 143.977 71.1332C144.031 71.1441 144.085 71.1603 144.14 71.1712C144.21 71.1874 144.281 71.2037 144.351 71.2254C144.47 71.2579 144.584 71.2904 144.698 71.3284C144.92 71.3989 145.121 71.4802 145.3 71.5615C145.484 71.6428 145.647 71.7241 145.793 71.8109C145.842 71.838 145.891 71.8651 145.934 71.8922C146.026 71.9464 146.108 72.0006 146.183 72.0548C146.314 72.147 146.427 72.2337 146.514 72.315C146.541 72.3367 146.563 72.3584 146.585 72.3801C146.753 72.5319 146.829 72.6349 146.829 72.6349C146.904 72.7433 146.986 72.8463 147.067 72.9547C147.121 73.0252 147.176 73.1011 147.235 73.1716C147.262 73.2095 147.289 73.2421 147.322 73.28C147.376 73.3505 147.436 73.4264 147.495 73.4969C147.522 73.5348 147.555 73.5728 147.582 73.6053C147.669 73.7137 147.761 73.8276 147.848 73.936C147.897 73.9956 147.935 74.039 147.94 74.0444C147.945 74.0498 150.466 77.0966 151.42 77.8284Z" fill="#ED8B6E"/>
<path d="M128.152 20.0598C128.152 20.0598 124.46 20.9543 125.003 28.4031C125.003 28.4031 125.545 30.7559 124.921 33.3039C124.661 34.3664 124.645 35.4778 124.921 36.5403C124.932 36.5783 124.943 36.6216 124.954 36.6596C125.073 37.0933 125.225 37.4836 125.387 37.8197C125.68 38.4323 126.119 38.9582 126.64 39.3919C127.046 39.728 127.507 40.384 127.057 41.4845C127.057 41.4845 123.262 48.2393 122.845 51.839C122.753 52.2239 122.633 53.0263 123.078 53.666C123.642 54.4846 124.856 54.6689 125.621 54.5984C126.396 54.5225 126.922 54.1647 127.86 54.3762C128.098 54.4304 128.315 54.3978 128.38 54.555C128.667 55.2056 129.144 56.5663 128.694 57.7319C128.694 57.7319 128.12 58.6047 129.762 59.6402C129.616 59.8462 129.453 60.1172 129.329 60.4479C129.166 60.8654 129.096 61.2611 129.079 61.5972C129.058 61.9279 129.133 62.2586 129.296 62.5459C129.405 62.7357 129.508 62.958 129.594 63.2073C129.73 63.6085 129.789 63.988 129.806 64.3349C129.833 64.9042 129.708 65.4626 129.48 65.983C129.177 66.6606 128.819 67.7883 129.139 69.0243C129.643 70.9705 131.41 72.1415 132.386 72.3421C135.048 72.8842 140.469 73.0577 146.958 68.2003L158.376 56.7886C159.113 56.0513 159.601 55.0918 159.758 54.0617L161.357 43.5825L158.381 13.164L130.83 14.8392L128.152 20.0598Z" fill="#FC9E81"/>
<path d="M129.974 58.106C129.383 57.7753 128.96 57.7319 128.651 57.8241C128.559 58.0735 128.434 58.7999 129.757 59.6348L133.779 59.2716C133.112 59.3203 131.589 58.7891 130.787 58.4909C130.505 58.3879 130.234 58.2578 129.974 58.106Z" fill="#C56956"/>
<path d="M133.573 59.2878L133.524 59.2932C133.541 59.2878 133.557 59.2878 133.573 59.2878Z" fill="#C56956"/>
<path d="M133.774 59.2715L129.751 59.6402L129.757 59.6456C129.61 59.8516 129.448 60.1227 129.323 60.4534C129.155 60.8817 129.09 61.2828 129.068 61.6189C129.057 61.8195 129.079 62.0201 129.139 62.2044C132.283 61.4834 133.774 59.2715 133.774 59.2715Z" fill="#C56956"/>
<path d="M125.777 36.5892C125.55 37.4891 126.65 38.8065 127.686 38.8824C128.249 38.9258 128.412 38.5734 129.708 38.0584C129.892 37.9879 130.765 37.6409 131.779 37.462C132.559 37.3211 132.988 37.359 134.901 37.4132C135.492 37.4295 136.43 37.4566 137.617 37.4783C137.043 36.7573 135.904 35.5754 134.104 34.9845C132.332 34.4045 130.89 34.7189 128.894 35.158C127.138 35.5429 125.978 35.7977 125.777 36.5892Z" fill="#28150F"/>
<path d="M129.583 21.5778C129.014 21.6374 124.785 22.0006 123.056 19.3551C122.14 17.9564 122.351 16.3571 122.465 15.468C122.747 13.2833 123.945 11.8141 124.726 10.8492C125.311 10.1281 126.471 9.15232 128.759 7.22778C129.101 6.94046 130.347 5.89416 130.835 5.50925C136.473 1.04758 147.164 0.294035 150.677 0.0500804C151.262 0.00671057 151.523 -0.0041332 151.761 0.00128802C153.827 0.0826064 154.808 0.814473 159.183 1.62224C160.798 1.9204 161.021 1.88787 161.937 2.06135C165.84 2.79864 168.686 4.72318 170.676 6.08391C174.503 8.7132 178.737 11.6244 181.578 17.3221C184.364 22.9168 184.896 29.3518 183.768 33.7755C182.874 37.283 181.784 40.7309 181.784 40.7309C180.889 43.5554 180.694 43.8319 180.434 45.236C180.028 47.4153 179.691 49.2314 179.816 51.6656C179.887 53.0534 180.06 53.6552 179.632 54.0617C178.645 55.0159 175.777 53.5196 174.866 53.048C167.743 49.3399 164.881 43.1054 164.881 43.1054C162.398 37.6896 163.14 33.0708 160.869 32.5232C159.953 32.3009 159.004 32.8539 158.191 33.3256C156.754 34.155 156.082 35.3531 154.857 37.5107C154.683 37.8198 154.212 38.351 154.195 39.1154C154.185 39.6142 154.347 39.9828 154.434 40.178C154.521 40.3786 155.019 42.135 156.017 45.648C156.125 46.0329 156.174 46.2172 156.261 46.51C156.261 46.51 156.326 46.7323 156.386 46.9491C156.646 47.849 156.776 48.299 157.351 50.0121C157.779 51.2807 158.001 54.593 156.998 57.5584C156.288 59.6564 154.662 61.3316 151.431 64.5952C147.901 68.1569 146.139 69.9351 144.134 71.0464C142.778 71.8 138.42 74.1365 133.557 73.1553C130.781 72.5969 129.719 71.3338 129.475 71.0247C129.176 70.6507 128.011 69.2086 128.314 67.6528C128.504 66.6878 129.111 66.433 129.269 65.1156C129.328 64.6006 129.399 64.0368 129.16 63.3863C129.025 63.0068 128.9 62.9309 128.932 62.7303C129.014 62.2369 129.838 62.2153 131.193 61.5864C133.107 60.2907 134.001 59.5101 133.871 59.2553C133.833 59.174 133.692 59.1469 133.459 59.1685C132.565 59.0167 131.903 58.7999 131.453 58.621C130.662 58.3066 130.32 58.1493 130.32 58.1493C129.881 57.9433 129.697 57.862 129.344 57.7428C128.889 57.591 128.732 57.6669 128.558 57.5964C128.114 57.4066 128.103 56.523 128.098 55.9266C128.092 55.4279 128.092 54.8966 128.417 54.6906C128.586 54.5822 128.786 54.6093 128.873 54.6255C131.817 55.0701 133.291 55.2869 134.121 56.0893C134.961 56.897 134.95 57.5368 136.132 58.3716C136.679 58.7565 137.043 58.8758 137.373 58.892C138.257 58.9408 138.951 58.3066 139.314 57.965C141.96 55.4658 142.437 54.2677 144.34 52.2402C146.324 50.1314 146.562 50.088 147.289 48.5375C149.23 44.4011 148.622 40.8285 148.205 36.9957C148.015 35.2393 147.744 32.4148 145.955 31.504C144.714 30.8697 143.31 31.0541 142.057 30.3222C140.892 29.6391 139.883 28.7121 139.282 27.4815C138.973 26.8526 138.739 26.4894 138.777 25.9744C138.945 23.6324 143.846 22.4668 143.483 19.8104C143.315 18.5907 141.748 17.6257 140.496 17.5173C139.157 17.4034 139.027 18.3467 136.056 19.6858C133.963 20.629 132.001 21.079 131.166 21.2688C130.407 21.4422 130.006 21.5344 129.583 21.5778Z" fill="#28150F"/>
<path d="M130.938 42.3627C130.938 42.3627 131.394 43.0187 129.388 43.5445C129.648 43.5933 130.022 43.6421 130.472 43.6421C131.421 43.6367 132.12 43.3927 132.684 43.1976C133.562 42.8886 134.31 42.6175 134.993 41.9561C135.763 41.2188 136.045 40.4382 136.105 40.2864C135.324 40.6875 134.451 41.0941 133.492 41.4736C132.592 41.8368 131.735 42.1242 130.938 42.3627Z" fill="#452321"/>
<path d="M129.096 39.1046C129.074 39.4082 129.063 40.1563 129.497 40.9532C129.963 41.8152 130.668 42.2218 130.939 42.3573C130.939 42.3573 133.915 41.7176 136.105 40.281C135.758 39.831 135.086 39.0992 134.013 38.6492C131.649 37.6734 129.405 38.9257 129.096 39.1046Z" fill="#ED8B6E"/>
<path d="M154.25 39.4136C154.164 39.1101 154.185 38.7902 154.315 38.5029C155.161 36.638 158.674 29.856 163.515 33.5587C163.515 33.5587 169.571 36.1338 163.293 48.8737C163.293 48.8737 161.368 54.2027 157.438 50.3537L154.25 39.4136Z" fill="#FC9E81"/>
<path d="M161.883 42.341C161.986 42.032 161.623 41.3001 161.455 41.067C160.593 39.831 159.351 40.9695 158.213 40.6767C156.923 40.346 156.386 38.8769 156.489 37.6679C156.69 35.3205 158.766 34.3068 160.869 34.1279C160.869 34.1279 164.144 34.1604 164.691 38.5028C164.691 38.5028 163.64 35.4019 161.054 35.5537C160.208 35.6024 158.712 36.1717 158.506 37.1475C158.175 38.7359 160.549 38.4215 161.341 39.0991C162.311 39.9286 162.257 41.2188 161.883 42.341Z" fill="#ED8B6E"/>
<path d="M156.641 41.0454C157.693 42.0158 158.69 42.0483 160.035 41.9399C160.224 41.9236 160.43 41.9128 160.598 42.0104C160.864 42.1676 160.913 42.5254 160.87 42.829C160.658 44.3849 159.314 45.5016 158.202 46.4178C156.473 47.849 157.4 44.992 157.292 44.2114C157.183 43.409 156.63 43.2844 156.186 42.7585C155.725 42.211 155.627 41.3707 155.801 40.6984C155.833 40.5737 155.915 40.4274 156.039 40.4491C156.104 40.4599 156.148 40.5141 156.191 40.5629C156.327 40.731 156.478 40.8936 156.641 41.0454Z" fill="#ED8B6E"/>
<path d="M164.794 40.1564C164.87 40.8882 164.848 41.6309 164.756 42.3628C164.713 42.7315 164.642 43.0947 164.561 43.4579C164.474 43.8211 164.377 44.1735 164.257 44.5259C164.019 45.2252 163.71 45.9083 163.336 46.5426C162.962 47.1823 162.528 47.784 162.024 48.3153C162.425 47.7027 162.799 47.0739 163.13 46.4287C163.461 45.7836 163.737 45.1114 163.97 44.4283C164.089 44.0868 164.192 43.7398 164.279 43.3874C164.371 43.035 164.447 42.6827 164.518 42.3249C164.659 41.6147 164.745 40.8882 164.794 40.1564Z" fill="#ED8B6E"/>
<path d="M134.403 198.89L126.054 199.806C124.845 199.936 123.62 199.79 122.482 199.367C120.216 198.527 116.28 196.976 113.824 195.507C112.691 194.829 111.406 194.428 110.089 194.309C107.877 194.108 104.592 193.718 102.83 193.073C101.989 192.764 101.144 192.482 100.276 192.287C97.9831 191.766 94.4593 191.262 94.725 193.132C94.725 193.132 94.6708 195.908 99.0511 197.329C99.0511 197.329 102.488 198.971 104.949 198.527C105.871 198.359 106.814 198.31 107.73 198.51C108.685 198.716 109.541 199.101 109.064 199.811C108.907 200.039 108.668 200.202 108.403 200.272C107.454 200.532 104.516 201.373 102.824 202.316C101.187 203.232 99.4902 204.029 97.7121 204.625C97.0941 204.831 96.4489 204.945 95.7929 204.962C93.0878 205.021 85.2975 205.341 80.6786 207.043C80.2178 207.211 79.7624 207.39 79.2962 207.542C78.2011 207.905 75.9513 208.93 78.277 210.708C78.277 210.708 76.5042 210.795 75.9025 212.4C75.6856 212.985 75.8537 213.641 76.3308 214.042C76.9542 214.563 78.0981 215.121 79.9792 214.747C79.9792 214.747 77.3445 215.712 80.5701 217.723C81.7574 218.466 83.1073 218.921 84.4951 219.127L86.6582 219.442C88.8104 219.756 90.9952 219.778 93.1582 219.507L100.732 218.558L102.732 218.591L98.5198 220.081C96.8609 220.667 95.1587 221.133 93.4347 221.464L90.6536 222.001C89.8838 222.147 89.1465 222.445 88.5231 222.917C87.634 223.584 86.9076 224.624 88.5285 225.774L90.7404 225.687C92.074 225.633 93.4022 225.438 94.6979 225.096L98.7529 224.028L100.428 223.415C102.922 222.505 105.481 221.8 108.088 221.317C111.634 220.656 117.364 219.214 121.62 216.292C122.514 215.679 123.523 215.24 124.574 214.958L139.065 211.039L134.403 198.89Z" fill="#FC9E81"/>
<path d="M98.6501 192.514C100.049 193.23 99.7669 193.913 99.3549 194.726C98.9429 195.54 98.5526 196.168 97.1485 195.453C95.7498 194.737 94.9475 193.501 95.3649 192.688C95.7823 191.875 97.2515 191.804 98.6501 192.514Z" fill="#ED8B6E"/>
<path d="M80.2449 207.862C81.649 207.775 81.7412 208.41 81.79 209.201C81.8388 209.993 81.8225 210.632 80.4184 210.714C79.0143 210.8 77.8433 210.231 77.7945 209.44C77.7457 208.659 78.8462 207.949 80.2449 207.862Z" fill="#ED8B6E"/>
<path d="M78.9874 211.505C80.3915 211.483 80.4566 212.123 80.4729 212.909C80.4837 213.701 80.4403 214.34 79.0362 214.362C77.6321 214.384 76.4828 213.766 76.472 212.974C76.4503 212.188 77.5833 211.527 78.9874 211.505Z" fill="#ED8B6E"/>
<path d="M82.571 214.931C83.9642 215.126 83.9263 215.766 83.8178 216.552C83.7094 217.333 83.563 217.962 82.1752 217.767C80.7874 217.571 79.7465 216.78 79.8549 215.999C79.9634 215.213 81.1831 214.736 82.571 214.931Z" fill="#ED8B6E"/>
<path d="M89.8562 222.852C91.0651 222.526 91.2603 223.068 91.4446 223.746C91.6289 224.424 91.7265 224.988 90.5176 225.313C89.3086 225.638 88.181 225.345 87.9967 224.668C87.8124 223.99 88.6472 223.177 89.8562 222.852Z" fill="#ED8B6E"/>
<path d="M190.577 69.7128L158.283 92.921L158.147 94.0215C157.757 97.155 156.77 100.185 155.247 102.945C143.017 126.928 142.334 139.419 144.502 146.445C144.827 147.496 146.156 148.971 145.982 151.611C145.061 165.744 146.719 172.721 147.809 175.654C148.351 177.118 148.639 178.663 148.644 180.224C148.666 186.795 148.877 195.274 149.029 200.559C149.105 203.129 149.04 205.699 148.823 208.263C148.579 211.12 148.622 214.514 148.785 217.701L203.951 216.384C203.621 215.479 203.355 214.552 203.154 213.608C200.541 201.416 205.61 186.741 205.61 186.741L214.973 156.534C229.659 105.417 200.737 77.6278 190.577 69.7128Z" fill="#29ABE2"/>
<path d="M203.15 213.619C202.689 211.483 202.472 209.271 202.412 207.07L148.574 210.892C148.455 214.942 148.694 219.49 149.008 223.02C149.084 223.898 149.203 224.782 149.252 225.665L206.674 221.643C206.424 221.225 206.191 220.851 205.985 220.526C204.641 218.406 203.676 216.07 203.15 213.619Z" fill="#F2F2F2"/>
<path d="M154.537 94.168L144.996 119.458C143.364 123.79 142.264 128.3 141.722 132.897L141.705 133.022C141.277 136.66 141.201 140.33 141.478 143.978L145.023 190.79C145.207 193.566 145.717 196.732 146.839 200.099C151.22 213.24 162.566 222.017 166.871 224.516C180.38 224.158 195.674 222.272 209.178 221.914C210.165 209.32 208.652 196.477 209.639 183.884L215.662 162.318C215.662 162.318 225.951 137.446 214.838 101.606C214.838 101.606 208.159 82.6695 190.572 69.7074L154.537 94.168Z" fill="#333333"/>
<path opacity="0.3" d="M151.301 209.239C152.266 210.73 153.302 212.123 154.359 213.424L209.39 201.606C209.287 196.515 209.211 191.43 209.482 186.378L207.736 178.051L171.468 131.634L173.441 171.908L145.246 192.032L151.301 209.239Z" fill="#333333"/>
<path d="M128.288 213.961L122.216 199.226L131.074 195.789C134.663 194.396 138.279 193.089 141.933 191.864C148.346 189.712 161.135 184.963 171.744 178.143C174.52 176.354 177.295 174.809 179.963 173.475C175.604 162.329 172.172 142.888 170.795 134.339C170.405 131.9 169.413 129.606 167.971 127.601C163.873 121.881 162.658 113.549 162.338 107.829C162.04 102.5 163.357 97.1876 166.247 92.7096C172.102 83.6345 180.082 84.0411 186.522 86.6541C193.06 89.3051 198.221 94.5474 200.916 101.069C212.447 129.016 211.812 159.982 211.4 168.254C211.303 170.195 211.243 172.141 211.216 174.082L211.053 184.041C210.978 188.86 208.066 193.187 203.626 195.068L188.897 201.329C185.953 202.668 182.614 203.904 179.095 205.037C171.641 207.434 163.986 209.147 156.223 210.193L128.288 213.961Z" fill="#FC9E81"/>
<path d="M190.578 69.7128L174.959 80.3113L174.054 89.343L176.607 190.514L197.354 197.393L209.221 196.933C209.254 196.933 209.281 196.9 209.281 196.868C209.227 192.509 209.297 188.188 209.633 183.884L215.656 162.318C215.656 162.318 225.946 137.446 214.832 101.606C214.843 101.611 208.164 82.6749 190.578 69.7128Z" fill="black"/>
<path d="M179.09 205.032C182.609 203.899 185.948 202.663 188.892 201.324L203.621 195.062C208.061 193.176 210.967 188.855 211.048 184.036L211.211 174.077C211.238 172.131 211.298 170.19 211.395 168.249C211.813 159.976 212.442 129.01 200.911 101.064C198.222 94.5421 193.061 89.2997 186.517 86.6487C180.077 84.0357 172.102 83.6291 166.242 92.7043C163.347 97.1876 162.035 102.5 162.333 107.824C162.653 113.543 163.867 121.876 167.966 127.595C169.402 129.601 170.394 131.894 170.79 134.334C172.167 142.883 175.593 162.324 179.958 173.47C177.29 174.803 174.515 176.348 171.739 178.137C161.135 184.957 148.346 189.706 141.928 191.858C138.279 193.084 134.658 194.39 131.069 195.783L123.88 198.575L128.277 213.95L128.282 213.961L156.213 210.188C163.981 209.141 171.636 207.428 179.09 205.032Z" fill="#F2F2F2"/>
<path d="M154.185 83.8189L151.279 102.631C153.312 100.364 155.708 98.3098 157.953 96.2606C165.076 89.7388 172.346 83.3635 180.277 77.8284C182.24 76.4568 184.229 75.1341 186.252 73.8492C187.271 73.2041 191.451 70.2333 191.857 70.564C191.131 69.9676 190.35 69.2032 189.613 68.5744C187.233 66.536 184.875 64.6386 182.831 62.611C178.347 65.2241 173.566 68.2762 168.611 71.8379C168.611 71.8434 161.368 77.3459 154.185 83.8189Z" fill="#F2F2F2"/>
<path d="M146.162 162.362C147.189 162.362 148.021 161.529 148.021 160.502C148.021 159.475 147.189 158.643 146.162 158.643C145.135 158.643 144.302 159.475 144.302 160.502C144.302 161.529 145.135 162.362 146.162 162.362Z" fill="black"/>
<path d="M147.105 173.768C148.132 173.768 148.965 172.935 148.965 171.908C148.965 170.881 148.132 170.049 147.105 170.049C146.078 170.049 145.246 170.881 145.246 171.908C145.246 172.935 146.078 173.768 147.105 173.768Z" fill="black"/>
<path d="M148.808 185.013C149.742 184.587 150.154 183.484 149.727 182.549C149.301 181.615 148.198 181.204 147.264 181.63C146.33 182.056 145.918 183.159 146.344 184.094C146.771 185.028 147.874 185.439 148.808 185.013Z" fill="black"/>
<path d="M149.203 243.409C149.209 243.181 149.209 242.959 149.214 242.731C149.209 242.953 149.203 243.181 149.203 243.409Z" fill="#FC9E81"/>
<path d="M149.181 245.675C149.181 245.447 149.181 245.225 149.187 244.997C149.187 245.22 149.187 245.447 149.181 245.675Z" fill="#FC9E81"/>
<path d="M149.197 244.103C149.197 243.918 149.203 243.734 149.203 243.544C149.197 243.729 149.197 243.918 149.197 244.103Z" fill="#FC9E81"/>
<path d="M149.214 251.79C149.209 251.562 149.209 251.34 149.203 251.112C149.209 251.335 149.209 251.562 149.214 251.79Z" fill="#FC9E81"/>
<path d="M149.187 249.519C149.187 249.291 149.181 249.069 149.181 248.841C149.187 249.069 149.187 249.296 149.187 249.519Z" fill="#FC9E81"/>
<path d="M149.197 250.218C149.197 250.039 149.192 249.855 149.192 249.676C149.192 249.855 149.192 250.039 149.197 250.218Z" fill="#FC9E81"/>
<path d="M149.187 244.878C149.187 244.688 149.192 244.493 149.192 244.303C149.192 244.499 149.192 244.688 149.187 244.878Z" fill="#FC9E81"/>
<path d="M151.284 286.448C151.263 286.242 151.241 286.036 151.225 285.83C151.246 286.036 151.268 286.242 151.284 286.448Z" fill="#FC9E81"/>
<path d="M151.225 285.83C151.22 285.77 151.214 285.711 151.209 285.656C151.214 285.716 151.22 285.776 151.225 285.83Z" fill="black"/>
<path d="M149.219 251.974C149.219 251.909 149.219 251.85 149.214 251.785C149.214 251.85 149.214 251.915 149.219 251.974Z" fill="black"/>
<path d="M151.29 286.475C151.29 286.464 151.29 286.459 151.285 286.448C151.29 286.459 151.29 286.47 151.29 286.475Z" fill="black"/>
</svg>
