<?xml version="1.0" encoding="utf-8"?>
<!-- Generator: Adobe Illustrator 25.2.1, SVG Export Plug-In . SVG Version: 6.00 Build 0)  -->
<svg version="1.1" id="Layer_6" xmlns="http://www.w3.org/2000/svg" xmlns:xlink="http://www.w3.org/1999/xlink" x="0px" y="0px"
	 viewBox="0 0 450 450" style="enable-background:new 0 0 450 450;" xml:space="preserve">
<style type="text/css">
	.st0{display:none;opacity:0.3;fill:#BCBCBC;}
	.st1{display:none;fill:url(#SVGID_1_);}
	.st2{display:none;opacity:0.4;fill:#EE7484;}
	.st3{fill:#9DD6E0;}
	.st4{opacity:0.5;}
	.st5{fill:#BAE5E5;}
	.st6{opacity:0.4;}
	.st7{fill:#88C8D3;}
	.st8{opacity:0.6;fill:#9DD6E0;}
	.st9{fill:#B52854;}
	.st10{fill:url(#SVGID_2_);}
	.st11{opacity:0.4;fill:#CC4A5A;}
	.st12{fill:url(#SVGID_3_);}
	.st13{opacity:0.3;fill:#EF968A;}
	.st14{fill:url(#SVGID_4_);}
	.st15{opacity:0.2;fill:url(#SVGID_5_);}
	.st16{fill:#BF692E;}
	.st17{fill:url(#SVGID_6_);}
	.st18{fill:url(#SVGID_7_);}
	.st19{fill:#99511D;}
	.st20{fill:url(#SVGID_8_);}
	.st21{fill:url(#SVGID_9_);}
	.st22{fill:url(#SVGID_10_);}
	.st23{opacity:0.7;fill:#FBA59C;}
	.st24{fill:#FFFFFF;}
	.st25{fill:#5F8A99;}
	.st26{fill:#474747;}
	.st27{fill:#C77D6D;}
	.st28{fill:#D98980;}
	.st29{fill:#B7276C;}
	.st30{opacity:0.4;fill:url(#SVGID_11_);}
	.st31{fill:#07A891;}
	.st32{fill:#0A998E;}
	.st33{fill:#06BAA4;}
	.st34{opacity:0.6;}
	.st35{fill:#56F4E5;}
	.st36{fill:url(#SVGID_12_);}
	.st37{fill:url(#SVGID_13_);}
	.st38{fill:url(#SVGID_14_);}
	.st39{fill:url(#SVGID_15_);}
	.st40{fill:url(#SVGID_16_);}
	.st41{opacity:0.3;fill:#DB472A;}
	.st42{opacity:0.4;fill:url(#SVGID_17_);}
	.st43{opacity:0.3;fill:url(#SVGID_18_);}
	.st44{fill:url(#SVGID_19_);}
	.st45{opacity:0.2;fill:#EB958A;}
	.st46{fill:url(#SVGID_20_);}
	.st47{fill:#FDFBE7;}
	.st48{fill:#DCF6F9;}
	.st49{fill:#C7F0F2;}
	.st50{fill:url(#SVGID_21_);}
	.st51{fill:url(#SVGID_22_);}
	.st52{fill:#593537;}
	.st53{opacity:0.5;fill:#F7827F;}
	.st54{fill:#99C2C4;}
	.st55{opacity:0.4;fill:#9DD6E0;}
	.st56{fill:#492A2E;}
	.st57{fill:#564336;}
	.st58{fill:#473B33;}
	.st59{opacity:0.2;fill:#492A2E;}
	.st60{opacity:0.4;fill:#492A2E;}
	.st61{fill:#FFAE4D;}
	.st62{opacity:0.3;fill:#BCAE04;}
	.st63{fill:url(#SVGID_23_);}
	.st64{fill:url(#SVGID_24_);}
	.st65{fill:#6D777C;}
	.st66{fill:#344551;}
	.st67{opacity:0.3;fill:#F78DAE;}
	.st68{fill:#A57146;}
	.st69{opacity:0.3;fill:#C18D5D;}
	.st70{fill:#193644;}
	.st71{opacity:0.2;fill:#344551;}
	.st72{fill:#4A606D;}
	.st73{fill:#E0A77C;}
	.st74{fill:#6D5151;}
	.st75{fill:#939FA3;}
	.st76{display:none;fill:#FF8793;}
	.st77{display:none;fill:#FF8C98;}
	.st78{display:none;fill:#E5617B;}
	.st79{display:none;fill:#F78B9D;}
	.st80{fill:#FFC950;}
</style>
<g>
	<path class="st0" d="M166.2,410.1c1.6,4.8,28.3,15.1,85.5,14.7c57.2-0.4,74.3-13.8,74.3-13.8S296.7,399,244.8,396
		C192.9,393.1,166.2,410.1,166.2,410.1z"/>
	<linearGradient id="SVGID_1_" gradientUnits="userSpaceOnUse" x1="193.138" y1="318.1045" x2="240.8213" y2="22.4698">
		<stop  offset="5.102040e-03" style="stop-color:#EE7484"/>
		<stop  offset="1" style="stop-color:#FC7D84"/>
	</linearGradient>
	<path class="st1" d="M333.7,180.7c-7.3,16.8-25.2,45.9-44.1,74.6c-10.4,15.9-21.2,31.7-30.6,45.4c-0.8,1.2-1.6,2.3-2.4,3.5
		c-14.8,21.4-25.6,36.5-25.6,36.5s-2.8-1.8-7.6-5.7c-2.9-2.4-6.6-5.5-10.8-9.5c-7.7-7.3-17.4-17.5-28-31.1c-1.1-1.4-2.2-2.9-3.3-4.3
		c-9.1-12-18.8-26.5-28.5-43.7c-4.9-8.8-9.9-18.2-14.8-28.5C94.5,126.6,86.1,46.8,156,33c38.4-7.6,58.3,21.3,63.8,31
		c1.1,1.9,1.6,3,1.6,3s9.8-17.1,28.8-27.5c2.8-1.5,5.7-2.9,8.8-4c0,0,0.1,0,0.2-0.1c12.9-4.7,29.1-5.9,48.3,1.5
		c17,6.5,28,17.3,34.6,30.4C359,100.6,347.6,148.8,333.7,180.7z"/>
	<path class="st2" d="M272.1,217.3c0,0,11.7,23.6,17.5,38c-10.4,15.9-21.2,31.7-30.6,45.4c-2.2-8.7-8.7-34.5-10.2-39.1
		c0.1,0.5,5.5,28.6,7.8,42.6c-14.8,21.4-25.6,36.5-25.6,36.5s-2.8-1.8-7.6-5.7c-0.2-8.5-0.6-25-1.8-37.1c-1.6-15.8-8-45.7-9.8-57.5
		c0,0-1.5,20.9-1.3,38.2c0.1,13.3,0.9,34.8,2.1,46.9c-7.7-7.3-17.4-17.5-28-31.1c-0.7-4.4-1.4-9.9-1.4-15c0,0-1.3,5.9-1.9,10.6
		c-9.1-12-18.8-26.5-28.5-43.7c1.3-4.1,3-9.2,4.9-14.2c4.6-12.1,11-18.2,11-18.2s-9.8-3.4-14.1-11.2c-4.3-7.8,0.6-18.7,0.6-18.7
		s-1.7-3.1-1.3-4.9c0.4-1.8,1.3-1.1,1.3-1c0-0.1-1.3-2.2-0.6-4.2c0.7-1.9,1.6-0.2,1.6,0c-0.1-0.2-1-3.3-0.3-4.8c0.7-1.5,2.2,0,2.2,0
		s0-5,0.7-5.6c0.7-0.6,2.1,2.3,2.1,2.3s2.1-8.9,5.2-13.7c0,0-8.6-8.4-4.7-18.5c0,0,3.6,0.8,2.9-2.2c-0.7-3-8.9-1.2-8.4-9.2
		c0.4-8,7.8-33,11.5-40.1c3.7-7.1,7.1-13.3,8.6-14.2c1.6-0.9,3.8,1.1,3.8,1.1s-0.4-5,3.3-7.1c3.7-2.1,24.9-1.7,35.4,14.8
		c0,0,0.1-6.6,1.2-12.7c1.1,1.9,1.6,3,1.6,3s9.8-17.1,28.8-27.5c0.7,0.7,1.3,1.7,1.2,2.9c0,0,1.7-1.6,2.8-1.1c1,0.5,1,3.1,1,3.1
		s12.3-3.2,13.8,14.7c0,0,4,12.7,0,19.6c0,0,4.1-1,5.3,2.8c1.2,3.8,2,18-9,14.8c0,0-4.1,6.8-7.1,9.9l3.3,2.7c0,0,9.1-0.1,18.3,13.9
		c9.2,13.9,12,26.4,12.5,36.1l4.3,3.2l-4.7,8c0,0-0.1,23.8-3.7,32.6C284.7,211.6,276.6,216.6,272.1,217.3z"/>
	<path class="st3" d="M288.2,166.9c-1.3,0.2-2.7,0.4-4,0.6c-3.1,0.4-6.2,0.8-8.8,1c-4.3,0.4-7.3,0.5-7.3,0.5c0,0,0,0,0,0
		c0-0.3-0.8,3.4-1.8,8.3c-0.2,1.1-0.4,2.2-0.7,3.3c-0.9,4.3-1.8,9.1-2.6,13.2c-0.1,0.3-0.1,0.7-0.2,1c0,0.2-0.1,0.5-0.1,0.7
		c-0.1,0.6-0.2,1.2-0.3,1.8c0,0,0,0,0,0.1c0,0.2-0.1,0.4-0.1,0.6c0,0.2-0.1,0.4-0.1,0.5c-0.1,0.3-0.1,0.7,0,1.3
		c0.1,0.8,0.2,1.8,0.5,2.9c0.7,3.1,2,7.3,3.1,10.6c0.3,0.8,0.5,1.6,0.7,2.3c0.7,2.1,1.2,3.6,1.2,3.6s-0.8,0.1-2.3,0.3
		c-2,0.3-5.2,0.7-9.1,1.2c-3.9,0.5-8.4,1-13,1.5c-2.9,0.3-5.9,0.6-8.9,0.9c-3.2,0.3-6.4,0.6-9.2,0.8c-3.3,0.2-6.2,0.4-8.5,0.4
		c-2.3,0-3.9-0.1-4.6-0.4c-0.1-0.7-0.4-2.7-1-5.6c-0.2-0.8-0.3-1.6-0.5-2.6c0-0.1-0.1-0.3-0.1-0.4c-1-4.6-2.3-10-2.9-12.9
		c0,0,0,0,0-0.1c0-0.2-0.1-0.4-0.1-0.5c0-0.1,0-0.2-0.1-0.3c0-0.1,0-0.2,0-0.2c0-0.1,0-0.2-0.1-0.3c0-0.1,0-0.2-0.1-0.3
		c0-0.3-0.1-0.6-0.1-0.9c0-0.2,0-0.3-0.1-0.5c0-0.1,0-0.3,0-0.4c0-0.1,0-0.2,0-0.4c0-0.5-0.1-0.9-0.1-1.4c0-0.1,0-0.3,0-0.4
		c0-0.1,0-0.3,0-0.4c0-0.1,0-0.3,0-0.4c0-0.1,0-0.2,0-0.3c0-0.5,0-0.9,0-1.4c0-0.1,0-0.3,0-0.4c0-0.5,0-1,0.1-1.4c0-0.1,0-0.3,0-0.4
		c0,0,0-0.1,0-0.1c0-0.1,0-0.1,0-0.2c0-0.1,0-0.1,0-0.2c0,0,0,0,0,0c0-0.1,0-0.1,0-0.2c0,0,0-0.1,0-0.1c0,0,0-0.1,0-0.1
		c0-0.1,0-0.2,0-0.3c0,0,0,0,0,0c0,0,0-0.1,0.1-0.2c0,0,0,0,0-0.1c0,0,0,0,0.1-0.1c0.1-0.1,0.2-0.2,0.3-0.4c0,0,0.1-0.1,0.1-0.2
		c0-0.1,0.1-0.1,0.2-0.2c0,0,0.1-0.1,0.1-0.1c1-1.1,2.6-2.9,3.9-4.7c0-0.1,0.1-0.1,0.1-0.2c0.5-0.7,0.9-1.5,1.3-2.2
		c0-0.1,0.1-0.1,0.1-0.2c0-0.1,0.1-0.1,0.1-0.2c0-0.1,0-0.1,0.1-0.2c0.1-0.3,0.2-0.7,0.3-1c0,0,0-0.1,0-0.1c0-0.1,0-0.1,0-0.2
		c0-0.1,0-0.1,0-0.2v-0.1c0-0.2,0-0.4,0-0.6c0-0.2,0-0.3,0-0.5c0-0.1,0-0.2,0-0.4c0,0,0,0,0-0.1c0-0.1,0-0.2-0.1-0.4
		c0-0.1,0-0.3-0.1-0.4c0-0.1,0-0.2-0.1-0.3c0-0.1,0-0.2-0.1-0.3c0-0.1,0-0.2-0.1-0.3c0-0.1-0.1-0.2-0.1-0.4
		c-0.2-0.8-0.4-1.7-0.7-2.6c0-0.2-0.1-0.3-0.2-0.5c-0.1-0.2-0.1-0.3-0.2-0.5c-0.1-0.2-0.2-0.5-0.2-0.7c0-0.1-0.1-0.2-0.1-0.4
		c0,0,0,0,0,0c-0.1-0.3-0.2-0.5-0.3-0.8c0,0,0-0.1,0-0.1c-0.1-0.2-0.1-0.3-0.2-0.5c-0.1-0.4-0.3-0.7-0.4-1.1
		c-0.1-0.1-0.1-0.3-0.2-0.4c-0.1-0.2-0.2-0.5-0.3-0.7c-0.1-0.2-0.2-0.4-0.3-0.6c-0.1-0.1-0.1-0.3-0.2-0.4c-0.1-0.2-0.1-0.3-0.2-0.5
		c-0.5-1.1-1-2.2-1.6-3.4c-0.3-0.6-0.6-1.2-0.9-1.9c-0.1-0.2-0.2-0.5-0.3-0.7c0,0,0-0.1-0.1-0.2c-0.1-0.3-0.2-0.5-0.4-0.8
		c-0.4-0.9-0.8-1.7-1.2-2.7c-0.1-0.3-0.3-0.6-0.4-0.9c-0.2-0.5-0.4-0.9-0.6-1.4c-0.1-0.3-0.3-0.6-0.4-0.9c-0.2-0.5-0.4-0.9-0.6-1.4
		c-0.1-0.2-0.2-0.5-0.3-0.7c-0.2-0.4-0.3-0.8-0.5-1.2c-0.3-0.8-0.6-1.6-0.9-2.3c-0.1-0.2-0.1-0.3-0.2-0.5c-0.1-0.2-0.1-0.3-0.2-0.5
		c-0.2-0.6-0.4-1.1-0.6-1.7c-0.2-0.4-0.3-0.8-0.4-1.2c-0.4-1.1-0.7-2.1-1-3c0-0.1-0.1-0.2-0.1-0.4c-0.1-0.4-0.3-0.8-0.4-1.2
		c0-0.1-0.1-0.3-0.1-0.4c-0.1-0.5-0.3-0.9-0.3-1.3c0-0.1,0-0.2-0.1-0.3c0,0,0-0.1,0-0.1c0,0-0.5-1.1-1.8-1.9c0.9-1.6,2-3.2,3-4.8
		c0.2-0.2,0.3-0.5,0.5-0.7c0.1-0.1,0.2-0.3,0.3-0.4c0.2-0.2,0.3-0.5,0.5-0.7c0.2-0.3,0.4-0.6,0.7-1c0.3-0.5,0.7-1,1-1.5
		c0.1-0.1,0.2-0.3,0.3-0.4c0.1-0.2,0.2-0.3,0.3-0.5c0.1-0.2,0.3-0.4,0.4-0.6c0.2-0.2,0.3-0.4,0.5-0.6c0.2-0.2,0.3-0.4,0.5-0.6
		c0,0,0,0,0,0c0.2-0.2,0.3-0.4,0.5-0.6c0.2-0.2,0.3-0.4,0.5-0.6c0.1-0.2,0.3-0.4,0.4-0.5c0.4-0.4,0.7-0.9,1.1-1.3
		c0.1-0.1,0.3-0.3,0.4-0.4c0,0,0.1-0.1,0.1-0.1c0.1-0.1,0.3-0.3,0.4-0.4c0.2-0.2,0.3-0.3,0.5-0.5c0,0,0,0,0,0
		c0.1-0.1,0.3-0.3,0.4-0.4c0,0,0,0,0.1-0.1c0.2-0.1,0.3-0.3,0.5-0.4c0,0,0,0,0,0c0.1-0.1,0.3-0.3,0.4-0.4c0.2-0.2,0.4-0.3,0.6-0.5
		c0.1-0.1,0.3-0.2,0.4-0.3c0,0,0.1-0.1,0.1-0.1c0.2-0.1,0.3-0.3,0.5-0.4c0.4-0.3,0.7-0.5,1.1-0.8c0.1-0.1,0.2-0.1,0.3-0.2
		c0.1-0.1,0.2-0.1,0.3-0.2c0.2-0.1,0.3-0.2,0.5-0.3c0.1-0.1,0.3-0.2,0.4-0.2c0.1-0.1,0.3-0.2,0.4-0.3c0.2-0.1,0.4-0.2,0.6-0.3
		c0.2-0.1,0.4-0.2,0.6-0.3c0.2-0.1,0.4-0.2,0.5-0.3c0.2-0.1,0.4-0.2,0.6-0.3c0.2-0.1,0.3-0.2,0.5-0.2c0,0,0,0,0,0
		c0.2-0.1,0.3-0.2,0.5-0.2c0.1-0.1,0.2-0.1,0.4-0.2c0.1-0.1,0.2-0.1,0.4-0.2c0.1-0.1,0.3-0.1,0.4-0.2c0.1,0,0.2-0.1,0.4-0.1
		c0.9-0.3,1.7-0.7,2.6-0.9c0.1,0,0.3-0.1,0.4-0.1c0.5-0.2,1-0.3,1.5-0.4c0.2-0.1,0.4-0.1,0.6-0.2c2.2-0.6,4.2-1,6.2-1.3
		c5.6-0.8,9.9-0.7,10.6-0.7c1.3-0.1,2.6-0.1,3.8-0.1c4.7,0.1,9,0.8,12.7,2.1c4,1.3,7.5,3.2,10.6,5.4c3.3,2.4,6.1,5.2,8.4,8.2
		c2.7,3.5,4.8,7.3,6.4,11c0.2,0.6,0.5,1.1,0.7,1.7c0.1,0.2,0.2,0.5,0.3,0.7c0.1,0.2,0.2,0.4,0.2,0.7c1.7,4.7,2.7,9.8,3.3,14.4
		c0,0,0,0,0,0c0.1,0.9,0.2,1.8,0.3,2.6c0.2,1.4,0.3,2.8,0.4,4c0,0.5,0.1,1,0.1,1.5C288.2,164.7,288.2,166.9,288.2,166.9z"/>
	<g>
		<g class="st4">
			<path class="st5" d="M263.7,215.8l1.6,3.5c-2,0.3-5.2,0.7-9.1,1.2c-2-3.4-5.3-11.1-7-26.8c-2.6-22.8,9.9-60.8,18.8-77.2
				c3.3,2.4,6.1,5.2,8.4,8.2C268.6,141.4,249,183.3,263.7,215.8z"/>
			<path class="st5" d="M243.2,222c-2.9,0.3-5.9,0.6-8.9,0.9c-1.6-9-5.4-32.5-5.7-58.2c-0.3-27.4,6.7-44.4,16-55.7
				c4.7,0.1,9,0.8,12.7,2.1C249.3,122.4,230.3,148.2,243.2,222z"/>
			<path class="st5" d="M217.9,164.8c1.8,27.3,5.1,48.1,7.2,58.9c-3.3,0.2-6.2,0.4-8.5,0.4c-2.1-7.6-5.3-20.8-7.4-36.2
				c-1.1-8.3-1.9-17.2-2-26.1c-0.2-16.7,2-33.8,8.8-47.7c2.6-1.3,5.4-2.3,8-3c2.2-0.6,4.2-1,6.2-1.3
				C224.1,117.7,215.7,131.7,217.9,164.8z"/>
			<path class="st5" d="M287.2,153.1c-1.4,4.8-2.4,9.6-3,14.4c-3.1,0.4-6.2,0.8-8.8,1c1.6-11.2,4.7-21.6,8.2-30.4
				C285.4,143,286.5,148.4,287.2,153.1z"/>
		</g>
		<g class="st6">
			<path class="st7" d="M283.9,138.8c-12.6,1.2-45.9,2.7-82.2-11.2c0.2-0.2,0.3-0.5,0.5-0.7c0.1-0.1,0.2-0.3,0.3-0.4
				c0.1-0.2,0.2-0.3,0.3-0.5c0-0.1,0.1-0.1,0.1-0.2c12.7,4.3,46.2,13.4,79.7,9.9c0.2,0.6,0.5,1.1,0.7,1.7c0.1,0.2,0.2,0.5,0.3,0.7
				C283.7,138.3,283.8,138.5,283.9,138.8z"/>
			<path class="st7" d="M287.5,155.7c-15.1,2.3-54.7,6.2-87-9.9v0c-0.4-1.1-0.8-2.2-1.1-3.1c13.4,6.7,40.7,15.5,87.8,10.4
				c0,0,0,0,0,0C287.3,154,287.4,154.9,287.5,155.7z"/>
			<path class="st7" d="M266.2,177.3c-0.2,1.1-0.4,2.2-0.7,3.3c-10-0.2-22.2-1.2-36.5-4.1c-6.6-1.3-12.2-2.7-17.2-4.1
				c-0.4-1.1-0.8-2.2-1.3-3.4C229.6,175.5,250.2,177.3,266.2,177.3z"/>
			<path class="st7" d="M262.5,202.6c-24.3,1-43.2-2-55.8-5.2c-0.1-0.9-0.1-1.8-0.1-2.6c19.5,4.9,39.8,5.6,55.4,4.9
				C262.1,200.5,262.3,201.5,262.5,202.6z"/>
			<path class="st7" d="M266.3,215.5c-31.8,2.9-47.5,3.2-55.3,2.8c-0.2-0.8-0.3-1.6-0.5-2.6c13.6,1,38.7-0.9,55.1-2.5
				C265.8,214,266.1,214.8,266.3,215.5z"/>
		</g>
	</g>
	<path class="st8" d="M288,164.2c-9.4,1.6-19.9,4.8-19.9,4.8c0,0,0,0,0,0c-0.1-0.7-3.2,15.1-5.1,24.8c-0.1,0.3-0.1,0.7-0.2,1
		c0,0.2-0.1,0.5-0.1,0.7c-0.1,0.6-0.2,1.2-0.3,1.8c0,0,0,0,0,0.1c0,0.2-0.1,0.4-0.1,0.6c0,0.2-0.1,0.4-0.1,0.5
		c-0.1,0.3-0.1,0.7,0,1.3c0.1,0.8,0.2,1.8,0.5,2.9c0.7,3.1,2,7.3,3.1,10.6c0.3,0.8,0.5,1.6,0.7,2.3c0.7,2.1,1.2,3.6,1.2,3.6
		s-0.8,0.1-2.3,0.3c-2,0.3-5.2,0.7-9.1,1.2c-3.9,0.5-8.4,1-13,1.5c-2.9,0.3-5.9,0.6-8.9,0.9c-3.2,0.3-6.4,0.6-9.2,0.8
		c-3.3,0.2-6.2,0.4-8.5,0.4c-2.3,0-3.9-0.1-4.6-0.4c-0.1-0.7-0.4-2.7-1-5.6c-0.2-0.8-0.3-1.6-0.5-2.6c0-0.1-0.1-0.3-0.1-0.4
		c-1-4.6-2.3-10-2.9-12.9c0,0,0,0,0-0.1c0-0.2-0.1-0.4-0.1-0.5c0-0.1,0-0.2-0.1-0.3c0-0.1,0-0.2,0-0.2c0-0.1,0-0.2-0.1-0.3
		c0-0.1,0-0.2-0.1-0.3c0-0.3-0.1-0.6-0.1-0.9c0-0.2,0-0.3-0.1-0.5c0-0.1,0-0.3,0-0.4c0-0.1,0-0.2,0-0.4c0-0.5-0.1-0.9-0.1-1.4
		c0-0.1,0-0.3,0-0.4c0-0.1,0-0.3,0-0.4c0-0.1,0-0.3,0-0.4c0-0.1,0-0.2,0-0.3c0-0.5,0-0.9,0-1.4c0-0.1,0-0.3,0-0.4c0-0.5,0-1,0.1-1.4
		c0-0.1,0-0.3,0-0.4c0,0,0-0.1,0-0.1c0-0.1,0-0.1,0-0.2c0-0.1,0-0.1,0-0.2c0,0,0,0,0,0c0-0.1,0-0.1,0-0.2c0,0,0-0.1,0-0.1
		c0,0,0-0.1,0-0.1c0-0.1,0-0.2,0-0.3c0,0,0,0,0,0c0,0,0-0.1,0.1-0.2c0,0,0,0,0-0.1c0,0,0,0,0.1-0.1c0.1-0.1,0.2-0.2,0.3-0.4
		c0,0,0.1-0.1,0.1-0.2c0-0.1,0.1-0.1,0.2-0.2c0,0,0.1-0.1,0.1-0.1c1-1.1,2.6-2.9,3.9-4.7c0-0.1,0.1-0.1,0.1-0.2
		c0.5-0.7,0.9-1.5,1.3-2.2c0-0.1,0.1-0.1,0.1-0.2c0-0.1,0.1-0.1,0.1-0.2c0-0.1,0-0.1,0.1-0.2c0.1-0.3,0.2-0.7,0.3-1c0,0,0-0.1,0-0.1
		c0-0.1,0-0.1,0-0.2c0-0.1,0-0.1,0-0.2v-0.1c0-0.2,0-0.4,0-0.6c0-0.2,0-0.3,0-0.5c0-0.1,0-0.2,0-0.4c0,0,0,0,0-0.1
		c0-0.1,0-0.2-0.1-0.4c0-0.1,0-0.3-0.1-0.4c0-0.1,0-0.2-0.1-0.3c0-0.1,0-0.2-0.1-0.3c0-0.1,0-0.2-0.1-0.3c0-0.1-0.1-0.2-0.1-0.4
		c-0.2-0.8-0.4-1.7-0.7-2.6c0-0.2-0.1-0.3-0.2-0.5c-0.1-0.2-0.1-0.3-0.2-0.5c-0.1-0.2-0.2-0.5-0.2-0.7c0-0.1-0.1-0.2-0.1-0.4
		c0,0,0,0,0,0c-0.1-0.3-0.2-0.5-0.3-0.8c0,0,0-0.1,0-0.1c-0.1-0.2-0.1-0.3-0.2-0.5c-0.1-0.4-0.3-0.7-0.4-1.1
		c-0.1-0.1-0.1-0.3-0.2-0.4c-0.1-0.2-0.2-0.5-0.3-0.7c-0.1-0.2-0.2-0.4-0.3-0.6c-0.1-0.1-0.1-0.3-0.2-0.4c-0.1-0.2-0.1-0.3-0.2-0.5
		c-0.5-1.1-1-2.2-1.6-3.4c-0.3-0.6-0.6-1.2-0.9-1.9c-0.1-0.2-0.2-0.5-0.3-0.7c0,0,0-0.1-0.1-0.2c-0.1-0.3-0.2-0.5-0.4-0.8
		c-0.4-0.9-0.8-1.7-1.2-2.7c-0.1-0.3-0.3-0.6-0.4-0.9c-0.2-0.5-0.4-0.9-0.6-1.4c-0.1-0.3-0.3-0.6-0.4-0.9c-0.2-0.5-0.4-0.9-0.6-1.4
		c-0.1-0.2-0.2-0.5-0.3-0.7c-0.2-0.4-0.3-0.8-0.5-1.2c-0.3-0.8-0.6-1.6-0.9-2.3c-0.1-0.2-0.1-0.3-0.2-0.5c-0.1-0.2-0.1-0.3-0.2-0.5
		c-0.2-0.6-0.4-1.1-0.6-1.7c-0.2-0.4-0.3-0.8-0.4-1.2c-0.4-1.1-0.7-2.1-1-3c0-0.1-0.1-0.2-0.1-0.4c-0.1-0.4-0.3-0.8-0.4-1.2
		c0-0.1-0.1-0.3-0.1-0.4c-0.1-0.5-0.3-0.9-0.3-1.3c0-0.1,0-0.2-0.1-0.3c0,0,0-0.1,0-0.1c0,0-0.5-1.1-1.8-1.9c0.9-1.6,2-3.2,3-4.8
		c0.2-0.2,0.3-0.5,0.5-0.7c0.1-0.1,0.2-0.3,0.3-0.4c0.2-0.2,0.3-0.5,0.5-0.7c0.2-0.3,0.4-0.6,0.7-1c0.3-0.5,0.7-1,1-1.5
		c0.1-0.1,0.2-0.3,0.3-0.4c0.1-0.2,0.2-0.3,0.3-0.5c0.1-0.2,0.3-0.4,0.4-0.6c0.2-0.2,0.3-0.4,0.5-0.6c0.2-0.2,0.3-0.4,0.5-0.6
		c0,0,0,0,0,0c0.2-0.2,0.3-0.4,0.5-0.6c0.2-0.2,0.3-0.4,0.5-0.6c0.1-0.2,0.3-0.4,0.4-0.5c0.4-0.4,0.7-0.9,1.1-1.3
		c0.1-0.1,0.3-0.3,0.4-0.4c0,0,0.1-0.1,0.1-0.1c0.1-0.1,0.3-0.3,0.4-0.4c0.2-0.2,0.3-0.3,0.5-0.5c0,0,0,0,0,0
		c0.1-0.1,0.3-0.3,0.4-0.4c0,0,0,0,0.1-0.1c0.2-0.1,0.3-0.3,0.5-0.4c0,0,0,0,0,0c0.1-0.1,0.3-0.3,0.4-0.4c0.2-0.2,0.4-0.3,0.6-0.5
		c0.1-0.1,0.3-0.2,0.4-0.3c0,0,0.1-0.1,0.1-0.1c0.2-0.1,0.3-0.3,0.5-0.4c0.4-0.3,0.7-0.5,1.1-0.8c0.1-0.1,0.2-0.1,0.3-0.2
		c0.1-0.1,0.2-0.1,0.3-0.2c0.2-0.1,0.3-0.2,0.5-0.3c0.1-0.1,0.3-0.2,0.4-0.2c0.1-0.1,0.3-0.2,0.4-0.3c0.2-0.1,0.4-0.2,0.6-0.3
		c0.2-0.1,0.4-0.2,0.6-0.3c0.2-0.1,0.4-0.2,0.5-0.3c0.2-0.1,0.4-0.2,0.6-0.3c0.2-0.1,0.3-0.2,0.5-0.2c0,0,0,0,0,0
		c0.2-0.1,0.3-0.2,0.5-0.2c0.1-0.1,0.2-0.1,0.4-0.2c0.1-0.1,0.2-0.1,0.4-0.2c0.1-0.1,0.3-0.1,0.4-0.2c0.1,0,0.2-0.1,0.4-0.1
		c0.9-0.3,1.7-0.7,2.6-0.9c0.1,0,0.3-0.1,0.4-0.1c0.5-0.2,1-0.3,1.5-0.4c0.2-0.1,0.4-0.1,0.6-0.2c1.4,5.2-2.4,18.5-4.5,22.9
		c-2.1,4.6-1.8,8.1,1.5,10.6c3.3,2.5,8.4-3.7,8.4-3.7c1.6,3.1-1.4,9.9-4.7,12.9c-3.3,3-10,1-10.2,1c0,0.1,1.6,4.1,5.8,12.6
		c4.2,8.6,2.8,14.9,3.5,14.3c0.8-0.6,2.7-5.7,2.7-5.7c2.4,3.7,0,7.7,0,7.7c2.3,3.3,7,15.8,7,15.8s-2.3,0.6,5.1,0
		c7.3-0.6,20-14.3,22.2-19.6c2.2-5.3,3.5-17.5,1.8-27.3c-1.7-9.7,1.9-16.3,2.9-17.9c-0.1,0.2-2,6.4-2.5,9.8
		c-0.5,3.5,0.1,6.9,0.8,11.6c0.8,4.7,2.3,9.6,2.3,9.6c8.4-5.7,17.5-6.3,21.7-6.1c0,0,0,0,0.1,0c0,0.5,0,1,0,1.5
		C288,163.1,288,164.2,288,164.2z"/>
	<g>
		<path class="st9" d="M215.4,209.5c0,0-4.2-2.1-5.2-2.5c0,0,3.7-14.1,2.6-23.8c0-0.2,0-0.4-0.1-0.6c1.4-2.1,2.5-4.4,2.4-7.8
			c-0.2-3.6-1.2-5.6-7.6-17.9c-0.2-0.4-0.4-0.8-0.7-1.4c-0.1-0.1-0.1-0.2-0.2-0.4c-0.1-0.1-0.1-0.3-0.2-0.4
			c-0.1-0.1-0.1-0.3-0.2-0.4c-0.3-0.6-0.6-1.3-0.9-2c-0.1-0.2-0.1-0.3-0.2-0.5c0-0.1-0.1-0.2-0.1-0.2c-0.1-0.3-0.2-0.6-0.4-0.9
			c-0.1-0.3-0.2-0.6-0.3-0.8c0-0.1-0.1-0.1-0.1-0.2c-0.1-0.2-0.2-0.4-0.2-0.6c-0.1-0.2-0.1-0.3-0.2-0.5c-0.1-0.2-0.2-0.5-0.3-0.7
			c-0.1-0.2-0.2-0.5-0.3-0.7c-0.2-0.6-0.5-1.2-0.7-1.8c-0.1-0.2-0.1-0.3-0.2-0.5c-0.1-0.1-0.1-0.3-0.2-0.4c-0.1-0.2-0.2-0.5-0.3-0.7
			c0-0.1-0.1-0.2-0.1-0.3c-0.1-0.3-0.2-0.5-0.3-0.7c-1.6-4.3-3.8-6.3-5.8-7.3c2.6,1,3.8,1.3,10.3,10.6c0.9,1.3,1.8,2.6,2.7,4
			c5.7,8.5,11.4,18.1,13.9,23.5C225.6,180.1,222.7,199.3,215.4,209.5z"/>
		<linearGradient id="SVGID_2_" gradientUnits="userSpaceOnUse" x1="141.393" y1="353.2692" x2="213.8829" y2="124.0444">
			<stop  offset="7.971900e-04" style="stop-color:#D2355D"/>
			<stop  offset="0.9991" style="stop-color:#E8385D"/>
		</linearGradient>
		<path class="st10" d="M212.6,182.6c-0.9,1.4-1.9,2.8-2.6,4.5c-2.1,5.1-3.3,12.1-2.6,15.3c1.3,5.7,1.6,22,1.7,22
			c0,0-1.5,1.9-14.6,2.3c-8.1,0.2-15.3-2.3-19.6-4.3c-2.7-1.3-4.3-2.3-4.3-2.3c1.3-2.1,3.2-5.1,4.8-8.2c0.6-1.2,1.1-2.4,1.5-3.5
			c0.5-1.5,0.4-4.3,0-7.7c-0.7-6.4-2.2-14.7-2.2-19.5c0-0.2,0-0.3,0-0.5v0c0-3.2,0.5-7.3,1.2-12c0.7-5,1.8-10.7,2.9-16.4
			c0.2-1.3,0.5-2.6,0.8-3.9c0.4-2.2,1-4,1.6-5.5c0.9-2.3,2-3.9,3.1-5c2.4-2.4,5.1-2.6,6.7-2.9c1.1-0.2,2.5-0.3,4.1,0.2
			c0.3,0.1,0.6,0.2,0.9,0.3c2,0.9,4.2,3,5.8,7.3c0.1,0.2,0.2,0.5,0.3,0.7c0,0.1,0.1,0.2,0.1,0.3c0.1,0.2,0.2,0.4,0.3,0.7
			c0,0.1,0.1,0.3,0.2,0.4c0.1,0.2,0.1,0.3,0.2,0.5c0.2,0.6,0.5,1.2,0.7,1.8c0.1,0.2,0.2,0.5,0.3,0.7c0.1,0.2,0.2,0.5,0.3,0.7
			c0.1,0.2,0.1,0.3,0.2,0.5c0.1,0.2,0.2,0.4,0.2,0.6c0,0.1,0.1,0.1,0.1,0.2c0.1,0.3,0.2,0.6,0.3,0.8c0.1,0.3,0.2,0.6,0.4,0.9
			c0,0.1,0.1,0.2,0.1,0.2c0.1,0.2,0.1,0.3,0.2,0.5c0.3,0.7,0.6,1.4,0.9,2c0.1,0.1,0.1,0.3,0.2,0.4c0.1,0.1,0.1,0.3,0.2,0.4
			c0.1,0.1,0.1,0.2,0.2,0.4c0.2,0.5,0.5,1,0.7,1.4c6.4,12.3,7.4,14.3,7.6,17.9C215.2,178.3,214,180.5,212.6,182.6z"/>
	</g>
	<path class="st11" d="M208.8,150.3c-2-0.5-3.8-1.6-5.5-3c-5.3-4.4-8.9-11.6-8.9-11.6c0.2-0.1,0.3-0.3,0.5-0.4
		c0.3,0.1,0.6,0.2,0.9,0.3c2.6,1,3.8,1.3,10.3,10.6C207,147.6,207.9,148.9,208.8,150.3z"/>
	<linearGradient id="SVGID_3_" gradientUnits="userSpaceOnUse" x1="196.7846" y1="145.4769" x2="192.6466" y2="135.0192">
		<stop  offset="0" style="stop-color:#FACDB9"/>
		<stop  offset="1" style="stop-color:#FBB1A3"/>
	</linearGradient>
	<path class="st12" d="M195.7,136c-0.4,1.6-0.6,2.9-0.4,3.5c0.7,1.9-0.5,4.6-3,4.3c-2.5-0.3-5.7-4.7-5.9-5.9c0-0.1,0-0.2-0.1-0.4
		c-0.5-2.8-3-16.8-3-16.8c1.6,1.7,3.3,3.4,4.9,4.7c4.4,3.8,7.8,4.2,9.8,4C197.3,131,196.3,133.7,195.7,136z"/>
	<path class="st11" d="M192.8,218.7c0,0-7-0.9-13.5-3.7c0,0-2.3,4.5-4.4,7.4c-2.7-1.3-4.3-2.3-4.3-2.3c1.3-2.1,3.2-5.1,4.8-8.2
		c0.6-1.2,1.1-2.4,1.5-3.5c0.5-1.5,0.4-4.3,0-7.7c-0.7-6.4-2.2-14.7-2.2-19.5c0-0.2,0-0.3,0-0.5v0c0-3.2,0.5-7.3,1.2-12
		c1.9-1.7,3.6-2.9,3.6-2.9c-0.5,3.2-1.4,16.3,0.6,25.8c2,9.6,2.6,16.3,1.1,18.7c0,0,11.5,5.3,13.9,5.4c0,0,1.9,2.1,2.5,2.8
		C198.2,219.4,194.5,219.4,192.8,218.7z"/>
	<path class="st9" d="M189.3,216.6c0.1,0.1-1.6-0.3-4.1-1.1c-2.7-0.8-6.3-2-9.8-3.6c-2.2-1-4.4-2-6.2-3.2
		c-8.9-5.7-11.3-8.9-11.9-18.6c-0.1-1.8-0.1-3.6,0.1-5.4c0.5-6.8,2.6-13.3,4.9-18.9c0.3-0.8,0.7-1.6,1-2.4c1.3-3,3.4-7,5.8-10.7
		c3.5-5.4,7.7-10.1,10.8-10.1c0.4,0,0.9,0.1,1.3,0.2c1.6,0.6,2.7,2.4,2.7,5.9c0,3.1-0.8,7.4-3,13.4c-0.5,1.5-1,2.9-1.5,4.2
		c0,0,0,0,0,0c-2.1,6.1-3.5,10.6-4.6,14.3v0c-0.9,2.9-1.6,5.1-2.5,7.1c-1.6,3.8,1.2,9.1,4.7,12.9c1.2,1.4,2.5,2.5,3.7,3.4
		c1.5,1,2.9,2.1,4.2,3c1.5,1.1,2.9,2.1,4.1,3c1.7,1.2,2.7,2,2.7,2S184.6,214.3,189.3,216.6z"/>
	<path class="st11" d="M183.7,148.8c-1.6,1.6-3.3,2.7-5,3.5c-3.9,1.6-7.8,1.3-9.8,0.6c3.5-5.4,7.7-10.1,10.8-10.1
		c0.4,0,0.9,0.1,1.3,0.2c0.9-2.3,2-3.9,3.1-5c1.1-0.2,1.7-0.2,1.7-0.2C188.9,138.4,190.7,141.7,183.7,148.8z"/>
	<path class="st13" d="M197.9,129.3c-0.6,1.6-1.6,4.4-2.2,6.6c-2.4-0.5-5.8-1.2-9.5,1.4c-0.5-2.8-3-16.8-3-16.8
		c1.6,1.7,3.3,3.4,4.9,4.7C192.5,129.1,195.9,129.5,197.9,129.3z"/>
	<linearGradient id="SVGID_4_" gradientUnits="userSpaceOnUse" x1="154.6503" y1="106.4278" x2="229.9927" y2="106.4278">
		<stop  offset="0" style="stop-color:#99511D"/>
		<stop  offset="1" style="stop-color:#A65701"/>
	</linearGradient>
	<path class="st14" d="M221,150.9c-0.4,0.1-0.8,0.1-1.2,0.2c-0.7,0.1-1.4,0.1-2.1,0c-1.2-0.1-2.4-0.3-3.5-0.6
		c-0.5-0.1-0.9-0.2-1.4-0.4c-13.7-4.4-15.1-20.4-12.7-22.6c6.6-6,11.5-17.1,11.6-22.4c0.1-5.3-3.7-8.2-3.7-8.2s-0.3-2.5-0.6-5.9
		c-0.3-3.4-3.3-9.7-4-10c-0.6-0.3-2.8,1.2-8.6,1.4c-0.4,0-0.9,0-1.3,0c-2.9-0.3-5-1.8-6.6-3.1c-0.5-0.4-0.9-0.8-1.2-1.2
		c-0.5-0.5-0.8-0.8-1.1-1c0,0,0,0,0,0c-1-0.7-4.7,1.9-6.7,5.7c-0.3,0.6-0.7,1.5-1,2.5c0,0.1,0,0.1-0.1,0.2
		c-1.6,5.2-3.1,14.3-2.8,17.4c0.4,3.8,3.2,10.4,5.8,13.2c2.6,2.8,6.8,10.9,7.9,19c1.1,8.1-9.6,17.1-14.9,17c-5.3-0.1-9.9-5.5-12-9.9
		c-1.2-2.6-1-5.1-0.7-6.8c0.1-0.4,0.2-0.8,0.3-1.1c0.1-0.4,0.2-0.7,0.3-0.8c-0.1,0.3,0,0.5,0.1,0.7c0.8,0.9,4.5,0.5,5.2-0.7
		c0.5-0.8,0.4-2-0.5-3.2c-0.1-0.1-0.2-0.2-0.3-0.3c-0.1-0.1-0.1-0.1-0.2-0.2c-0.6-0.6-1.4-1.2-2.5-1.7c-0.1,0-0.2-0.1-0.3-0.1
		c-0.1-0.1-0.3-0.1-0.4-0.2c-4-1.5-7-4.1-7.4-7.6c-0.3-2.4-0.1-4.9,0.5-7.7c0.5-2.4,1.1-5.1,1.9-8.2c2.7-10.8,10.9-26.6,15.4-32.1
		c3.9-4.6,8.1-1.4,9.1-1.1c0.1,0,0.2,0,0.2,0c0,0,0-0.1,0-0.2c-0.4-4.1,7-11.1,14.7-9.9c7.7,1.2,12.6,9,15.1,14.3
		c1.2,2.6,3,7.7,4.7,13.3c1.5,5,2.9,10.5,3.8,14.8c0.2,0.9,0.3,1.8,0.4,2.6c0.4,2.6,0.5,5.4,0.4,8.2c0,0.3,0,0.6,0,1
		c-0.2,6.6-1.4,13.3-2.7,17.5c-0.3,1.1-0.5,2-0.6,2.8c0,0.2,0,0.4,0,0.6c0,3.7,2.6,5.3,5,5.9c2.7,0.7,5-0.8,5.4-2.7
		c0-0.2,0.1-0.4,0.1-0.6c0-0.1,0-0.2,0-0.3c-0.1-1.3-0.5-1.9-1-2c-0.1,0-0.2,0-0.3,0c-0.7,0-1.4,0.6-1.4,0.6
		c0.3,0.1,0.4,0.4,0.3,0.6c0,0.1,0,0.1,0,0.2c-0.2,0.6-0.8,1.2-1.5,1c-0.3-0.1-0.6-0.3-0.6-0.6c0-0.1,0-0.2,0-0.3
		c0-0.6,0.6-1.4,1.8-1.9c0.2-0.1,0.5-0.2,0.7-0.2c0.1,0,0.2,0,0.4-0.1c0.5,0,0.9,0.1,1.3,0.3c0.9,0.5,1.5,1.5,1.9,3.3
		c0,0.2,0.1,0.4,0.1,0.7c0,0.3,0.1,0.5,0.1,0.8C230.3,144.5,226.5,149.7,221,150.9z"/>
	<linearGradient id="SVGID_5_" gradientUnits="userSpaceOnUse" x1="160.1502" y1="113.3244" x2="229.9927" y2="113.3244">
		<stop  offset="0" style="stop-color:#99511D"/>
		<stop  offset="1" style="stop-color:#A65701"/>
	</linearGradient>
	<path class="st15" d="M217.7,151.1c-18.3-1.7-20.3-21.1-17.6-23.5c6.6-6,11.5-17.1,11.6-22.4c0.1-5.3-3.7-8.2-3.7-8.2
		s-0.3-2.5-0.6-5.9c-0.3-3.4-3.3-9.7-4-10c-0.6-0.3-2.8,1.2-8.6,1.4c-0.4,0-0.9,0-1.3,0c-1.3-1.2-2.5-2.1-3.7-2.7
		c-0.7-0.3-1.7-0.5-2.8-0.4c-1.1-1-1.9-1.9-2.3-2.2c-1-0.7-4.7,1.9-6.7,5.7c-2,3.8-4.2,16.4-3.8,20.2c0.4,3.8,3.2,10.4,5.8,13.2
		c2.6,2.8,6.8,10.9,7.9,19c1.1,8.1-9.6,17.1-14.9,17c-5.3-0.1-9.9-5.5-12-9.9c-1.9-4.1-0.3-8.4-0.2-8.8c-0.1,0.3,0,0.5,0.1,0.7
		c-0.3,2.8-0.2,7.3,3.2,9c17.4,9,15.9-13.5,11.8-20.2c-3-5-8.4-11.2-8.3-15.9c0-4.7,3-6.9,5-5.9c0,0,0.2-10.3,2.8-16.6
		c2.6-6.4,6.5-9.4,7.4-9.6c0.9-0.2,0.8,0.6,0.8,0.6c0.5-0.6,4-2.1,6.1,0.5c2.1,2.6,9.7,4.5,13.5,3.9c0,0,4.9,4.1,5.3,9.3
		c0.4,5.2,0,7.7,0,7.7s3.8,2.1,4.4,7.2c0.6,5.2-2.7,15.6-6.4,22.6c-3.7,6.9-1.5,13.6,1.2,17.5c2.7,3.8,13.7,5.2,17.8,2.8
		c4.1-2.4,5-8,2-10.8c1.1,0.6,1.9,2.1,2.1,4.7C230.3,145.2,224.8,151.8,217.7,151.1z"/>
	<path class="st11" d="M166.2,180.9c0,0,1.9,2.5-0.5,1.9c0,0,1.1,0.9,0.5,1.9c-0.7,1-1.7,0.5-1.8,0.4c0.1,0.1,1.5,2.1-0.3,2.2
		c-1.5,0.1-4.5-0.3-6.8-2.6c0.5-6.8,2.6-13.3,4.9-18.9c1.3,2.5,5.6,9.2,4.8,11.8C167,177.7,169.1,181.3,166.2,180.9z"/>
	<path class="st16" d="M224.5,137.7c-0.3,0.1-0.6,0.2-0.8,0.4c0,0.1,0,0.2,0,0.3c0.3-0.4,0.9-0.5,1.4-0.6c0.2,0,0.5,0,0.8,0.1
		c0-0.1,0-0.1,0-0.2C225.4,137.5,224.8,137.6,224.5,137.7z M220.5,116.4c-1,3-2.1,5.8-2.7,8.9c-0.5,2.4-0.8,4.8-0.7,7.3
		c0.1,1.2,0.3,2.4,0.7,3.6c0-0.2,0-0.4,0-0.6c-0.4-1.2-0.5-2.5-0.6-3.7c-0.1-2.5,0.4-5.1,0.9-7.5c0.7-3,1.9-5.8,2.8-8.7
		c0-0.2,0.1-0.3,0.1-0.5c0-0.3,0-0.6,0-1C221,114.9,220.7,115.7,220.5,116.4z M229.8,139.4c-0.1,0.5-0.2,1-0.4,1.5
		c-0.3,0.7-0.7,1.2-1.1,1.7c0-0.2,0.1-0.4,0.1-0.6c0.2-1.1,0.2-2.4-0.1-3.5c-0.2-0.7-0.5-1.4-1-2c-0.1-0.1-0.2-0.2-0.3-0.3
		c-0.1-0.1-0.3-0.2-0.4-0.3c-0.1,0-0.2,0-0.4,0.1c0.3,0.1,0.5,0.3,0.7,0.5c0.4,0.4,0.7,0.9,0.9,1.4c0.2,0.5,0.3,1,0.4,1.6
		c0.1,1.1,0,2.4-0.2,3.5c-1.5,1.3-3.6,1.9-5.5,2.2c-1.3,0.2-2.5,0.3-3.8,0c-1.1-0.3-2.1-0.9-2.9-1.7c-1.7-1.6-2.6-3.9-3-6.1
		c-0.6-2.9,0-5.9,0.7-8.7c0.4-1.7,0.9-3.3,1.6-4.9c0.6-1.5,1.4-2.8,2.3-4.1c0.8-1.2,1.5-2.5,1.9-3.9c0.5-1.4,0.5-3,0.5-4.5
		c0-3.2-0.8-6.4-1.2-9.6c-0.5-3.3-1.5-6.5-2.7-9.7c-0.3-0.9-0.6-1.7-1-2.6c-0.2-1.5-0.5-3.1-0.9-4.6c-1.2-5-3.2-9.9-6.1-14.2
		c3.5,4.6,5.9,10.2,7.8,15.7c1.1,3.3,2.1,6.6,2.9,9.9c0.6,2.5,1.3,4.9,1.9,7.4c-0.8-4.3-2.2-9.8-3.8-14.8c-1.5-4.7-3.3-9.4-5.7-13.7
		c-2.4-4.4-5.7-8.8-10.3-11.1c-4.6-2.3-10-1.3-13.9,1.9c-2.2,1.8-4,4.4-3.8,7.4c0-0.1-0.1-0.1-0.1-0.2c-0.3-0.6-0.6-1.3-0.8-1.9
		c0,0-0.1,0-0.2,0c0,0.1,0.1,0.2,0.1,0.4c-6.6-4-11.7,4.6-14.1,9.6c-1.6,3.4-3,7-4.1,10.5c-1.4,4.2-2.8,8.4-4,12.7
		c-1.3,4.7-2.4,9.7-1.7,14.7c0.3,2.1,0.9,4.5,2.2,6.1c0.7,0.9,1.9,1.8,2.4,2.9c0.1,0,0.2,0.1,0.3,0.1c-0.4-1-1.5-2-2.2-2.8
		c-0.9-1-1.4-2.3-1.8-3.5c-0.4-1.4-0.7-2.8-0.8-4.2c-0.5-5.9,1.3-11.9,3.1-17.5c2.4-7.4,4.5-15,8.3-21.7c1.4-2.5,3.1-5,5.5-6.6
		c1-0.6,2.1-1.1,3.3-1.1c1.3-0.1,2.6,0.4,3.7,1.1c0,0,0,0,0,0c0.1,0.3,0.3,0.7,0.4,1c0.1,0.1,0.1,0.2,0.2,0.4c0,0,0,0,0,0v0.1
		c0,0.1,0.1,0.1,0.1,0.1c0.4,0.8,0.8,1.5,1.2,2.3c0,0,0,0.1,0.1,0.1c-1.5-0.2-3-0.5-4.5-0.2c-1.1,0.2-2.2,0.7-3.1,1.3
		c-2,1.3-3.5,3.3-4.8,5.3c-1.2,1.9-2.1,3.8-3,5.9c0,0-0.1,0-0.1,0c-3.4,5.5-6,11.7-6.8,18.1c-0.4,3.4-0.2,6.9,0.3,10.3
		c0.2,1.8,0.6,3.5,0.9,5.3c0.2,0.9,0.6,1.7,0.9,2.5c0.5,1.1,0.9,2.2,1.2,3.3c0.2,0.7,0.4,1.5,0.3,2.3c0.1,0.1,0.1,0.1,0.2,0.2
		c0.1-0.6,0-1.3-0.1-1.8c-0.4-2.1-1.5-3.9-2.1-5.9c-0.5-1.5-0.7-3.2-0.9-4.7c-0.3-1.8-0.5-3.7-0.6-5.5c-0.2-4.3,0.4-8.4,1.6-12.5
		c1.1-3.6,2.8-7.1,4.7-10.4c-1.2,2.9-2.2,5.8-2.8,8.9c-0.7,3.3-1,6.5-0.8,9.9c0.1,1.6,0.2,3.1,0.5,4.7c0.3,1.5,0.9,3,1.7,4.3
		c1.6,2.9,3.7,5.5,5.3,8.5c1.4,2.8,2.4,5.9,2.8,9c0.2,1.4,0,2.8-0.8,4c-0.7,1-1.8,1.9-2.9,2.4c-1.9,0.9-4,0.6-5.7-0.4
		c-1.8-1-3.2-2.6-4.2-4.5c-0.2-0.5-0.3-1-0.5-1.5c-0.1,0.3-0.2,0.7-0.3,1.1c0.1,0.3,0.2,0.6,0.2,0.9c0.3,1,0.6,2,0.9,2.9
		c0.7,2.1,1.6,4.2,2.8,6.1c1.1,1.7,2.4,3.4,4.2,4.4c1.8,1.1,3.8,1.1,5.8,0.7c5-1.1,9.2-4.7,11.3-9.3c2.3-5.1,1.3-10.7-1.1-15.6
		c-2.7-5.3-6.6-9.8-8.8-15.3c-1.2-3-1.9-6.2-2.3-9.4c-0.2-1.7-0.4-3.5-0.3-5.2c0.1-1.8,0.5-3.5,1.1-5.1c0.3-0.9,0.7-1.8,1.1-2.7
		c0.4-0.8,0.9-1.9,1.8-2.4c0,0,0,0,0.1,0c0.1,0,0.1-0.1,0-0.2c0,0-0.1,0-0.1,0c-0.9,0.4-1.4,1.5-1.9,2.4c-0.5,1-0.9,2.1-1.3,3.2
		c-1.2,3.2-1.1,6.4-0.8,9.7c0.3,3.1,1,6.2,2.1,9.1c1.1,2.9,2.6,5.5,4.3,8.1c3.1,4.9,6.6,9.7,7.2,15.6c0.6,5.5-2.1,10.9-6.5,14.1
		c-2.2,1.6-4.8,2.7-7.5,3c-2.1,0.3-4.1-0.7-5.7-2.2c-1.6-1.5-2.8-3.5-3.8-5.5c-1-2-1.7-4.1-2.3-6.2c-0.1-0.5-0.3-1-0.4-1.5
		c0,0,0,0,0-0.1c0.1,0.3,0.2,0.5,0.4,0.8c1.1,3.5,3,7,6.2,8.7c2.1,1.1,4.7,1.2,6.9,0.4c2.6-0.9,4.7-3,6.1-5.4
		c3.2-5.2,2.1-11.6-0.1-17c-1.2-3.1-3.1-5.8-4.9-8.5c-1-1.4-2.1-2.7-2.9-4.2c-0.8-1.4-1.5-2.9-2-4.5c-1.8-5.6-1.1-12.2,1.7-17.4
		c1.3-2.6,3.2-4.8,5.2-6.9c2-2,4.4-4.1,7.4-4.3c0.1,0,0.1,0,0.1-0.1c0,0,0.1,0,0.1,0c0.1,0.1,0.1,0.2,0.2,0.3c0.3,0.4,0.5,0.7,0.9,1
		c0.1,0.1,0.2,0,0.2,0c0,0,0-0.1,0-0.1c-0.4-0.4-0.8-0.9-1.1-1.4c0,0,0,0,0,0c1.9,0.7,3.5,2,5.5,2.8c2.2,0.8,4.4,0.7,6.7,0.4
		c1.9-0.3,3.8-0.6,5.6-1.1c0.2-0.1,0.4-0.1,0.6-0.2c3-0.3,5.3,3.1,6.6,5.5c1.8,3.2,3.1,6.9,3.7,10.5c0.2,1.3,0.2,2.6,0.3,3.9
		c0.1,1.8,0,3.6-0.1,5.3c-0.2,3.5-0.7,7.1-1.8,10.4c-1.1,3.1-2.8,6-4.5,8.9c-1.6,2.7-3.3,5.5-4.1,8.6c-0.7,2.6-0.4,5.3,0.4,7.8
		c0.7,2.5,1.9,4.9,3.6,6.9c1.5,1.7,3.5,3,5.5,3.9c0.4,0.1,0.9,0.3,1.4,0.4c-2.8-2.7-4.6-6.6-4.9-10.4c-0.3-3,0.7-5.9,2-8.5
		c0.7-1.4,1.4-2.7,2.1-4.1c0-0.1,0.1-0.2,0.1-0.3c0,0,0,0.1,0,0.1c-0.8,2.8-1.4,5.8-1.2,8.7c0.4,4.1,2.6,8.8,7.1,9.5
		c1.7,0.3,3.5-0.2,5.2-0.6c1.2-0.3,2.4-0.8,3.3-1.6c0,0.1-0.1,0.3-0.1,0.4c-0.6,2-1.8,3.7-3.4,5c-1.3,1.1-2.8,1.9-4.5,2.4
		c0.4,0,0.8-0.1,1.2-0.2c1.6-0.7,3.1-1.7,4.4-2.9c1.4-1.4,2.3-3.1,2.7-5c0.3-0.2,0.5-0.5,0.8-0.8c0.5-0.6,0.8-1.3,1-2.1
		C229.8,139.8,229.8,139.6,229.8,139.4z M217.8,99.5c0.3,1.6,0.5,3.2,0.8,4.8c0.3,1.7,0.5,3.4,0.7,5.1c0.1,1.6,0.1,3.3-0.1,4.9
		c-0.3,1.6-1,3-1.8,4.4c-0.7,1.3-1.6,2.5-2.2,3.8c-0.1,0.1-0.1,0.2-0.2,0.3c0-0.1,0-0.1,0.1-0.2c1.8-6.6,1.9-13.5,1.3-20.3
		c-0.2-3-0.6-6-1-9c-0.1-1-0.3-2.1-0.4-3.1C216.1,93.4,217.2,96.4,217.8,99.5z M184.5,76.6C184.5,76.6,184.5,76.6,184.5,76.6
		c-2.8,0.2-5.1,1.8-7,3.7c-2,2-3.9,4.2-5.4,6.6c-3,4.9-3.9,11.2-2.6,16.8c0.7,3,2.1,5.8,3.9,8.3c2,2.8,4,5.6,5.6,8.6
		c2.8,5.5,4.3,12.6,1.3,18.3c-1.3,2.4-3.4,4.5-5.9,5.6c-2.3,1-5,0.8-7.1-0.3c-2.8-1.5-4.5-4.4-5.6-7.4c1,1.5,2.3,2.8,3.8,3.6
		c1.7,1,3.7,1.2,5.6,0.4c1.1-0.4,2.1-1.3,2.9-2.2c0.9-1,1.2-2.3,1.2-3.5c0-1.4-0.3-2.9-0.7-4.3c-0.3-1.5-0.8-2.9-1.4-4.3
		c-1.3-3-3.3-5.7-5-8.4c-0.9-1.4-1.8-2.9-2.3-4.5c-0.5-1.6-0.7-3.3-0.8-4.9c-0.2-3.4,0-6.8,0.6-10.2c0.6-3.2,1.7-6.4,2.9-9.4
		c0.9-2.2,1.9-4.3,3.1-6.3c1.2-2.1,2.7-4.1,4.6-5.6c0.9-0.7,2-1.2,3.1-1.5c1.6-0.4,3.3,0,4.9,0.2c0,0,0,0,0,0
		C184.2,76.1,184.4,76.4,184.5,76.6C184.5,76.6,184.5,76.6,184.5,76.6z M184.6,76.2C184.6,76.2,184.6,76.2,184.6,76.2
		c-0.1-0.2-0.3-0.4-0.4-0.6c-0.4-0.7-0.8-1.4-1.1-2.1c0,0,0,0,0-0.1c-0.6-5.4,5.3-9.8,10.1-10.5c2.7-0.4,5.5,0.1,7.9,1.4
		c2.1,1.2,4,2.9,5.5,4.7c0,0,0,0.1,0,0.1c3.9,5.4,6.4,11.8,7.6,18.4c0,0.2,0.1,0.4,0.1,0.6c-0.6-1.6-1.2-3.1-2-4.6
		c-2.5-4.9-6-9.8-10.8-12.7c-1.6-1-3.3-1.8-5.2-2.1c-1.9-0.3-3.8,0.3-5.5,1.1c-1.5,0.7-2.9,1.7-4.1,2.8
		C185.8,73.7,184.9,74.8,184.6,76.2z M212.7,128.3c-1.3,2.8-3,5.4-3.5,8.5c-0.4,2.3-0.1,4.7,0.6,6.9c0.8,2.4,2.1,4.7,3.9,6.6
		c-2-0.8-3.9-2-5.4-3.4c-2-1.9-3.3-4.5-4.2-7.1c-0.9-2.7-1.3-5.6-0.6-8.4c0.8-3.2,2.6-6,4.3-8.8c1.6-2.8,3.2-5.6,4.3-8.6
		c1.1-3.2,1.6-6.7,1.8-10c0.2-3.1,0.3-6.4-0.2-9.4c-0.5-3.5-1.8-7.1-3.4-10.2c-1.3-2.5-3.4-6-6.5-6.2c1.2-0.5,2.3-1.1,3.2-2
		c0.1-0.1-0.1-0.3-0.2-0.2c-1,1.1-2.3,1.7-3.7,2.2c-0.5,0-0.9,0.2-1.3,0.4c0,0,0,0-0.1,0.1c-1.6,0.4-3.3,0.7-4.9,0.9
		c-2.3,0.3-4.7,0.4-6.9-0.5c-1.8-0.7-3.4-1.9-5.2-2.6c0.6-2.5,3.1-4.4,5.2-5.6c1.3-0.8,2.7-1.4,4.2-1.6c1.5-0.2,3,0,4.4,0.6
		c5.6,2.2,9.7,7.2,12.6,12.2c1.4,2.5,2.4,5,3.4,7.7c0.4,2.7,0.8,5.5,1.1,8.2c0.4,3.5,0.7,7.1,0.8,10.7
		C216.6,115.2,215.7,122.1,212.7,128.3z"/>
	<linearGradient id="SVGID_6_" gradientUnits="userSpaceOnUse" x1="195.7224" y1="83.9907" x2="187.4435" y2="115.8381">
		<stop  offset="0" style="stop-color:#FACDB9"/>
		<stop  offset="1" style="stop-color:#FBB1A3"/>
	</linearGradient>
	<path class="st17" d="M208.8,116.8c-0.4,0.9-1,2-1.8,3.2c-2.5,4-6.4,8.7-7.7,9.1c-0.4,0.1-0.8,0.2-1.4,0.3c-2,0.2-5.4-0.2-9.8-4
		c-1.6-1.4-3.3-3.1-4.9-4.7c-4-4.3-7.5-8.8-7.5-8.8c-0.1,0-0.2,0.1-0.3,0.1c-4.6,1.5-8.1-3.5-7.7-6.6c0.1-0.8,0.5-1.5,1.1-2
		c3.3-2.3,5.3,1.6,5.3,1.6c-0.5-2.9-0.1-10,1.7-17.6c2-8,7.8-10.8,9.1-10.7c0,0,0.8,1.2,4.8,4c4,2.9,11.5,0.5,12.7,0
		c0.7-0.2,1.9,0.6,3.7,5.5c0.1,0.2,0.1,0.3,0.2,0.5c0.6,1.8,1,3.6,1.3,5.1c0.1,0.7,0.2,1.4,0.2,2c0.2,1.9,0.1,3.1,0.1,3.1
		C214.7,101.9,212,109.6,208.8,116.8z"/>
	<linearGradient id="SVGID_7_" gradientUnits="userSpaceOnUse" x1="160.2864" y1="168.7577" x2="164.6314" y2="178.7455">
		<stop  offset="0" style="stop-color:#FACDB9"/>
		<stop  offset="1" style="stop-color:#FBB1A3"/>
	</linearGradient>
	<path class="st18" d="M166.7,180.1c-1.1,1-3.6-2.1-5.5-4.5c-1.7-2.1-2.3-5.8-1.5-7.4c0.1-0.2,0.2-0.4,0.4-0.5
		c1.3-1.2,2.7,3.2,3.7,5.1c0.8,1.5,2.7,4.3,3.1,6C167,179.4,167,179.8,166.7,180.1z"/>
	<path class="st19" d="M208,93.8c-0.7-0.3-1.6-0.5-2.7-0.7c-3.4-0.4-5.5,1.8-6.1,1.9c-0.5,0.2-0.7-2.7-0.7-2.7
		c0.9-1.7,5.3-2.5,8.4-1.1c0.3,0.1,0.6,0.3,0.9,0.5C207.9,92.5,208,93.2,208,93.8z"/>
	<linearGradient id="SVGID_8_" gradientUnits="userSpaceOnUse" x1="157.292" y1="172.0104" x2="165.2402" y2="181.7753">
		<stop  offset="0" style="stop-color:#FACDB9"/>
		<stop  offset="1" style="stop-color:#FBB1A3"/>
	</linearGradient>
	<path class="st20" d="M166.1,182.3c-0.7,0.8-3.1-1-5.9-4.1c-2.4-2.6-3-4.8-2.5-6.1c0.1-0.2,0.2-0.4,0.3-0.5c1.1-1.2,2.9,2.7,4,4.2
		c0.7,1,2.7,3.3,3.7,4.9C166.1,181.4,166.3,182,166.1,182.3z"/>
	<linearGradient id="SVGID_9_" gradientUnits="userSpaceOnUse" x1="155.16" y1="173.7082" x2="163.0546" y2="183.4073">
		<stop  offset="0" style="stop-color:#FACDB9"/>
		<stop  offset="1" style="stop-color:#FBB1A3"/>
	</linearGradient>
	<path class="st21" d="M165.7,184.2c-0.2,0.8-1.8,0.9-5.7-2.1c-3.6-2.8-4.1-5.4-3.7-6.4c0-0.1,0.1-0.2,0.1-0.2
		c1.1-1.6,2.3,1.2,4.2,3.1c1.2,1.2,3,2.9,4.1,4.1C165.4,183.4,165.8,183.9,165.7,184.2z"/>
	<linearGradient id="SVGID_10_" gradientUnits="userSpaceOnUse" x1="156.0752" y1="177.9152" x2="161.4921" y2="185.3071">
		<stop  offset="0" style="stop-color:#FACDB9"/>
		<stop  offset="1" style="stop-color:#FBB1A3"/>
	</linearGradient>
	<path class="st22" d="M164.4,185.9c-0.1,0.8-2.8,0.5-5.2-1c-2.6-1.6-3.3-3.8-3.1-4.9c0-0.2,0.1-0.3,0.1-0.4c0.7-1.3,2.2,0.2,4,1.9
		c1.1,1,2.5,2.2,3.4,3.1C164.1,185.1,164.5,185.6,164.4,185.9z"/>
	<path class="st19" d="M177,97.2c-0.4-0.2,1-3,2.9-4.1c3-1.8,7.8-1.7,9-0.2c0,0,0.3,2.8-0.3,2.7c-0.6-0.1-3.2-1.9-6.7-1
		C178.5,95.5,177.2,97.3,177,97.2z"/>
	<path class="st23" d="M179.1,104.4c-1.8,2,1.6,5.8,3.4,3.9C184.3,106.3,180.9,102.5,179.1,104.4z"/>
	<path class="st23" d="M207.2,105.9c1.5,1.3,4.7-2.4,3-3.6C208.6,101.1,205.7,104.6,207.2,105.9z"/>
	<path class="st24" d="M179.2,101.5c-0.1-0.4,4.9-4,8-2.6c3.1,1.4,4.6,4.3,4.6,5.6c0,0-2.9,0.4-6.7-0.6
		C181.4,102.9,179.2,101.5,179.2,101.5z"/>
	<path class="st24" d="M200.7,103c0,0,1.7-3.8,4.4-5.1c2.7-1.3,4-0.1,4-0.1s-0.8,3.7-4,4.9C202.6,103.5,200.7,103,200.7,103z"/>
	<path class="st25" d="M182.6,99.6c-0.2,0.8,0,3.4,2.1,4.2c2.4,0.8,4-1.6,4.3-2.9c-1.2-1-2.7-1.7-4.1-1.7
		C184.1,99.2,183.3,99.4,182.6,99.6z"/>
	<path class="st26" d="M189.1,98.9c-2.6-2-7.7-1.4-9.9,2.6c0,0,1.5-1.2,3.5-1.9c0.7-0.2,1.5-0.4,2.2-0.4c1.4,0,2.9,0.7,4.1,1.7
		c1.4,1.1,2.5,2.5,2.8,3.6C191.8,104.5,191.7,100.9,189.1,98.9z"/>
	<path class="st25" d="M201.9,101.2c0.3,1,1.2,2.3,2.8,1.6c2.1-0.9,1.6-3.9,0.8-5.1c-0.3,0.1-0.5,0.3-0.8,0.5
		C203.7,98.8,202.7,100.1,201.9,101.2z"/>
	<path class="st26" d="M202.7,98c-2.1,2.1-2,5-2,5s0.5-0.8,1.2-1.8c0.8-1.1,1.8-2.3,2.8-3.1c0.3-0.2,0.5-0.3,0.8-0.5
		c1.8-0.8,3.6,0.1,3.6,0.1C208.4,96.2,204.8,95.9,202.7,98z"/>
	<path class="st27" d="M202.6,108.4C202.6,108.3,202.6,108.3,202.6,108.4c-1.7-1.3-2.6-3.4-3.2-5.3c-0.8-2.5-0.6-5-0.7-7.5
		c0-0.2-0.3-0.2-0.3,0c0,1.4,0,2.8,0.1,4.2c0.1,1.2,0.3,2.4,0.7,3.6c0.6,1.9,1.4,3.9,3,5.1c-1.3,1-2.7,2.1-4.3,2.4
		c-0.2,0-0.1,0.4,0.1,0.3c1.7-0.3,3.3-1.5,4.6-2.6C202.6,108.5,202.6,108.4,202.6,108.4z"/>
	<path class="st28" d="M170.8,105c0.1-0.4,1.7,0.3,2.5,1c0.9,0.8,1.5,1.9,1.4,2.5c-0.1,0.7-0.5,0.6-1,0.5c-0.5-0.1-0.9-1.3-0.5-1.9
		c0,0,0-0.6-0.7-1C171.7,105.8,170.7,105.3,170.8,105z"/>
	<path class="st29" d="M176.1,111.7c0,0.7-0.6,1.3-1.3,1.3c-0.7,0-1.3-0.6-1.3-1.3c0-0.7,0.6-1.3,1.3-1.3
		C175.5,110.4,176.1,111,176.1,111.7z"/>
	<path class="st24" d="M190.6,114.2c0,0,5.4,3,12.4,0c0,0-1.6,4.7-6.2,4.7C193.8,119,190.6,114.2,190.6,114.2z"/>
	<path class="st13" d="M207,120c-2.5,4-6.4,8.7-7.7,9.1c-0.4,0.1-0.8,0.2-1.4,0.3c-2,0.2-5.4-0.2-9.8-4c-1.6-1.4-3.3-3.1-4.9-4.7
		c-4-4.3-7.5-8.8-7.5-8.8c-0.1,0-0.2,0.1-0.3,0.1c-0.1-0.5-0.1-0.8-0.1-0.8s-0.2-4.1-1.9-5.1c-1.5-0.9-4.2-1.8-5.6-0.7
		c0.1-0.8,0.5-1.5,1.1-2c3.3-2.3,5.3,1.6,5.3,1.6c-0.5-2.9-0.1-10,1.7-17.6c2-8,7.8-10.8,9.1-10.7c0,0,0.8,1.2,4.8,4
		c4,2.9,11.5,0.5,12.7,0c0.7-0.2,1.9,0.6,3.7,5.5c-1-1.7-2.5-4-3.3-4.2c-1.3-0.3-6.8,2.4-10.8,1.4c-4.1-1-6.7-5.7-7.8-5.5
		c-1.2,0.2-6,3.8-7.4,10.4c-1.4,6.7-2.3,14.3-0.3,19.1c1.9,4.7,4.8,7.7,7.9,11c3,3.2,7.8,8.5,14,8.2
		C200.6,126.5,204.1,123.8,207,120z"/>
	<path class="st13" d="M196.8,122.9c0,0,1.5-1.1,2.9-0.3c0,0-0.6-1.3-1.4-1.2C197.4,121.5,196.8,122.9,196.8,122.9z"/>
	<path class="st11" d="M189.3,216.6c0.1,0.1-1.6-0.3-4.1-1.1c-1.3-3.3,1.9-4.8,3.7-5.4c1.7,1.2,2.7,2,2.7,2S184.6,214.3,189.3,216.6
		z"/>
	<linearGradient id="SVGID_11_" gradientUnits="userSpaceOnUse" x1="161.4409" y1="131.3352" x2="161.5444" y2="131.3352">
		<stop  offset="0" style="stop-color:#99511D"/>
		<stop  offset="1" style="stop-color:#A65701"/>
	</linearGradient>
	<path class="st30" d="M161.5,131.4C161.5,131.4,161.5,131.4,161.5,131.4c0-0.1,0-0.1,0-0.2C161.5,131.3,161.5,131.3,161.5,131.4z"
		/>
	<g>
		<path class="st31" d="M228.8,188.6l-0.5,3.8l-0.3,2.3l-0.4,3.4l-0.2,1.6l-0.2,1.5l-0.5,4.2l-0.1,1.1l-0.1,0.5l-0.4,3.7l-0.1,0.6
			c0,0,0,0,0,0l-0.2,1.7l-0.2,1.6l-0.3,2.2L225,220c-2.3,0.8-5.4,1-8.5,1c-1.6,0-3.2-0.1-4.8-0.2c-0.6,0-1.3-0.1-1.9-0.2
			c-6.1-0.6-11.2-1.7-11.2-1.7s-0.2-0.7-0.5-1.9c-0.1-0.3-0.1-0.6-0.2-0.9c-0.1-0.4-0.2-0.8-0.3-1.2c0,0,0,0,0,0
			c-0.2-0.7-0.3-1.4-0.5-2.2c-0.2-0.7-0.4-1.5-0.5-2.2c0-0.2-0.1-0.4-0.1-0.6c-0.2-0.7-0.4-1.5-0.5-2.2c0,0,0,0,0,0
			c-0.1-0.6-0.3-1.2-0.4-1.8c-0.3-1.3-0.7-2.7-1-4c0-0.1,0-0.1,0-0.2c-0.3-1.2-0.6-2.4-0.9-3.5c-0.2-0.9-0.4-1.7-0.6-2.5
			c-0.2-1-0.5-1.9-0.7-2.7c-0.5-2.1-0.8-3.5-0.9-3.6l14.6-0.3l7.7-0.1L228.8,188.6z"/>
		<g>
			<polygon class="st32" points="234.4,183.4 233.6,189.4 232.7,196.7 231.9,203.5 230.3,216.6 229.3,217.3 226.5,219.2 225,220.3 
				226,211.6 226,211.6 226.6,206.8 227.5,199.9 228.7,189.3 230.2,187.5 			"/>
			<polygon class="st33" points="234.4,183.4 233,184.9 232.9,184.9 230,187.9 228.7,189.3 191.3,189.3 195,186.9 199.7,183.9 
				202.8,182 214.3,182.5 221.6,182.9 			"/>
			<g class="st34">
				<g>
					<path class="st35" d="M200.7,200.5c-0.3-0.3-2.7-4.6-1.6-5.2c1.1-0.6,1.1,1.7,1.1,1.7s0.5-2.2,1.4-1.3
						C202.5,196.6,200.7,200.5,200.7,200.5z"/>
					<path class="st35" d="M218.8,208.3c0,0-1.8-4-0.9-3.8c1,0.2,0.9,1,0.9,1s0.8-1.7,1.4-1C220.9,205.2,218.8,208.3,218.8,208.3z"
						/>
					<path class="st35" d="M223.5,196.8c0,0-1.1-4.3,0-4.6c1.1-0.3,0.6,1.6,0.6,1.6s1-2.4,1.8-1.3
						C226.7,193.6,223.5,196.8,223.5,196.8z"/>
					<path class="st35" d="M204.2,206.9c0,0-2.1-3-1.2-2.9c0.9,0.1,1.2,1,1.2,1s-0.2-1.7,0.5-1.4C205.5,204,204.2,206.9,204.2,206.9
						z"/>
					<path class="st35" d="M193.9,192.3c0,0-1.3-2.1-0.7-2.1c0.5,0,0.7,0.9,0.7,0.9s0-1.9,0.8-1.3
						C195.5,190.4,193.9,192.3,193.9,192.3z"/>
					<path class="st35" d="M205.9,194.6c0,0-1.6-3.6-0.9-3.3c0.8,0.2,0.9,1,0.9,1s0.3-1.7,0.9-1
						C207.5,191.9,205.9,194.6,205.9,194.6z"/>
					<path class="st35" d="M215.3,200.4c0,0-2.4-4.2-1.3-4.4c1.1-0.2,1.3,1.8,1.3,1.8s0.1-2.8,1.4-2.3
						C218.1,196.2,215.3,200.4,215.3,200.4z"/>
					<path class="st35" d="M196.9,204.6c0,0-1.2-2.3-0.6-2.4c0.7-0.1,0.6,1,0.6,1s0.5-1.7,1-1.2
						C198.4,202.5,196.9,204.6,196.9,204.6z"/>
					<path class="st35" d="M225.2,208.9c0,0-0.9-3.1-0.4-2.8c0.5,0.3,0.4,1.2,0.4,1.2s0.6-1,0.8-0.7
						C226.1,207,225.2,208.9,225.2,208.9z"/>
					<path class="st35" d="M200.5,213.1c0,0-2.5-2.9-1.6-3c1-0.1,1.1,1,1.1,1s0-2,1-1.4C202.1,210.3,200.5,213.1,200.5,213.1z"/>
					<path class="st35" d="M200.3,188.9c0,0,1.7-3.1,2.2-2.7c0.5,0.3,0,1.2,0,1.2s1.5-0.6,1.8,0C204.6,188,200.3,188.9,200.3,188.9z
						"/>
					<path class="st35" d="M219.3,188.9c0,0-2.3-1.9-1.8-2.3c0.5-0.5,0.9,0.5,0.9,0.5s0.1-2,0.9-1
						C220.1,187,219.3,188.9,219.3,188.9z"/>
					<path class="st35" d="M230.1,183.5c0,0-1.8,0-1.8,0.5c0,0.6,0.7,0.2,0.7,0.2s0.1,0.7,0.6,0.5
						C230.1,184.4,230.1,183.5,230.1,183.5z"/>
					<path class="st35" d="M228.1,204.1c0,0-0.6-5.1,0.3-4.9c0.8,0.2,0.4,1.9,0.4,1.9s1.2-2.7,1.6-1.7
						C230.8,200.3,228.1,204.1,228.1,204.1z"/>
					<path class="st35" d="M232.4,191.2c0,0-1-2.5-0.5-2.7c0.6-0.2,0.5,0.9,0.5,0.9s0.2-1.7,0.6-1.5
						C233.4,188.1,232.4,191.2,232.4,191.2z"/>
					<path class="st35" d="M203.7,183.7c0,0-1.2-1-0.9-1.1c0.3-0.1,0.6,0.4,0.6,0.4s-0.1-0.7,0.2-0.6
						C203.9,182.6,203.7,183.7,203.7,183.7z"/>
					<path class="st35" d="M210.1,183c-0.1,0-1.4,0.4-1.2,0.7c0.2,0.3,0.8,0,0.8,0s0,0.6,0.3,0.2C210.3,183.6,210.1,183,210.1,183z"
						/>
				</g>
				<path class="st35" d="M208,215.1c0,0-1.5-2.4-1-2.6c0.6-0.1,0.8,0.9,0.8,0.9s0.1-1.5,0.6-0.9C209,213.1,208,215.1,208,215.1z"/>
				<path class="st35" d="M218.1,220.4c0-0.2-1.9-4-1-3.7c0.8,0.3,1,1.4,1,1.4s0-1.6,0.7-1.2C219.5,217.2,218.1,220.4,218.1,220.4z"
					/>
			</g>
			<linearGradient id="SVGID_12_" gradientUnits="userSpaceOnUse" x1="211.3357" y1="212.5706" x2="211.2487" y2="190.3053">
				<stop  offset="0" style="stop-color:#FF7B00"/>
				<stop  offset="1" style="stop-color:#F17909"/>
			</linearGradient>
			<path class="st36" d="M213.9,189.3h-8l4.1,31.4c2.2,0.2,4.5,0.4,6.7,0.4L213.9,189.3z"/>
			<linearGradient id="SVGID_13_" gradientUnits="userSpaceOnUse" x1="226.5117" y1="201.8403" x2="232.9717" y2="201.8403">
				<stop  offset="0" style="stop-color:#FF7B00"/>
				<stop  offset="1" style="stop-color:#E88500"/>
			</linearGradient>
			<polygon class="st37" points="233,184.7 229.3,217 226.5,219 230.2,187.3 			"/>
			<g>
				<linearGradient id="SVGID_14_" gradientUnits="userSpaceOnUse" x1="194.9756" y1="185.9431" x2="232.9531" y2="185.9431">
					<stop  offset="0" style="stop-color:#FF8F00"/>
					<stop  offset="1" style="stop-color:#FF9900"/>
				</linearGradient>
				<polygon class="st38" points="233,184.9 232.9,184.9 230.2,187.9 230,187.9 195,186.9 199.7,183.9 				"/>
				<linearGradient id="SVGID_15_" gradientUnits="userSpaceOnUse" x1="205.9102" y1="185.8891" x2="221.5898" y2="185.8891">
					<stop  offset="0" style="stop-color:#FF8F00"/>
					<stop  offset="1" style="stop-color:#FF9900"/>
				</linearGradient>
				<polygon class="st39" points="221.6,182.9 213.9,189.3 205.9,189.3 214.3,182.5 				"/>
				<linearGradient id="SVGID_16_" gradientUnits="userSpaceOnUse" x1="205.3084" y1="182.6488" x2="221.8639" y2="166.5337">
					<stop  offset="0" style="stop-color:#FF9600"/>
					<stop  offset="1" style="stop-color:#FFB500"/>
				</linearGradient>
				<path class="st40" d="M229.2,171.8C229.2,171.7,229.2,171.7,229.2,171.8c0,0-7.3-1.3-10.7,2c-0.5,0.5-1.1,1.2-1.6,1.9
					c0,0,0,0,0,0c-2.4,3.4-4,8.1-4.1,8.5c0.1-0.3,1.4-5,0.5-9.9c-0.1-0.8-0.3-1.6-0.5-2.3c-1.4-4.5-8.2-7.5-8.4-7.6c0,0,0,0,0,0
					s-4.1,7.1-2.4,13.4c1.8,6.3,7.4,9.7,7.4,9.7c1,0.7,3.8,0.6,3.8,0.6c2.9-0.5,13.2-5.4,15.6-9.1
					C231,175.3,229.4,172.1,229.2,171.8z M210.8,186.4c0,0-4.7-4.1-6.8-8.9c-2.1-4.8,1-10.4,1.1-10.7c0,0,5.2,3.6,6.2,8
					C212.2,179.2,210.8,186.4,210.8,186.4z M225,180.5c-2.4,3-11.4,6.3-11.5,6.3c0-0.1,1.2-3.9,3.4-8.4c2.3-4.5,10-5.1,10-5.1
					S227.4,177.5,225,180.5z"/>
			</g>
		</g>
		<g>
			<path class="st41" d="M234,187l-0.9,7.3l-0.9,6.9l-1.6,13l-4.9,6.2c-2.4,0.8-6,0.6-9.2,0.6c-0.2-1.7,2.5-3.2,2.5-3.2
				c-5.7-0.3-8.1-1.9-7.9-2.7c0.2-0.8,2.1-0.6,2.2-0.6c-3.4-1-3.4-2.9-3.4-2.9c0.4-3.4,7.1-0.7,7.3-0.7l-3.9-1.2
				c1.4-2.2,9.8-0.1,9.9-0.1c-0.1-0.1-1.8-2-1-3.3c0.7-1.3,4.1,2.8,4.2,2.8c0,0,0,0,0,0s1.9-1.1,2-1.3
				C228.5,207.7,232.4,193.2,234,187z"/>
			<path class="st41" d="M197.4,214.3c-0.4-1.4-0.8-3.2-1.2-5.1c1.5-0.2,4.7-0.4,5,0.6C201.5,210.8,198.8,213.2,197.4,214.3z"/>
			<path class="st41" d="M211.6,220.8c-0.6,0-1.3-0.1-1.9-0.2c-6.1-0.6-11.3-1.7-11.3-1.7s-0.3-1.1-0.7-2.8c1.5-0.2,4.7-0.5,7.8,0.1
				C209.6,217.2,212.6,218.7,211.6,220.8z"/>
		</g>
	</g>
	<linearGradient id="SVGID_17_" gradientUnits="userSpaceOnUse" x1="161.4409" y1="131.3352" x2="161.5444" y2="131.3352">
		<stop  offset="0" style="stop-color:#99511D"/>
		<stop  offset="1" style="stop-color:#A65701"/>
	</linearGradient>
	<path class="st42" d="M161.5,131.3c0,0,0,0.1,0,0.2c0,0,0,0-0.1,0C161.5,131.3,161.5,131.3,161.5,131.3z"/>
	<linearGradient id="SVGID_18_" gradientUnits="userSpaceOnUse" x1="154.6503" y1="121.3103" x2="165.8218" y2="121.3103">
		<stop  offset="0" style="stop-color:#99511D"/>
		<stop  offset="1" style="stop-color:#A65701"/>
	</linearGradient>
	<path class="st43" d="M165.8,130.2c-0.7-0.9-1.9-1.9-3.7-2.5c-4-1.5-7-4.1-7.4-7.6c-0.3-2.4-0.1-4.9,0.5-7.7
		c-0.1,3.5,0.1,8.4,2.3,10.6C160.1,125.4,165.4,127.8,165.8,130.2z"/>
	<g>
		<linearGradient id="SVGID_19_" gradientUnits="userSpaceOnUse" x1="194.7959" y1="205.7538" x2="200.0626" y2="217.3406">
			<stop  offset="0" style="stop-color:#F7CCB9"/>
			<stop  offset="1" style="stop-color:#F8B0A3"/>
		</linearGradient>
		<path class="st44" d="M211.2,214.7C211.2,214.7,211.2,214.7,211.2,214.7L211.2,214.7c0,0,0,0.1-0.1,0.1c-0.6,0.5-6.1-0.4-8-0.4
			c0,0,0,0,0,0c-0.2,0-0.4,0-0.5,0c-0.1,0-0.2,0-0.2,0.1c0,0.1,0,0.1,0.1,0.2c0.4,0.3,1.7,0.6,3.7,0.8c2.1,0.2,3.8,0.3,4,1
			c0,0.1,0,0.2,0,0.3c0,0,0,0,0,0v0c0,0.1,0,0.1,0,0.2c-0.4,1-7-0.5-8.7-0.4c0,0-0.1,0-0.1,0h0c-0.2,0-0.3,0.1-0.3,0.1
			c-0.2,0.7,6.8,1.6,7,2.6c0,0,0,0.1,0,0.1c0,0.1,0,0.1,0,0.2c0,0,0,0,0,0c-0.4,1.3-5.3-0.7-6.9-0.8c-0.1,0-0.3,0-0.3,0
			c-0.1,0-0.1,0-0.1,0.1c0,0,0,0.1,0,0.2c0.3,0.7,3.6,2.3,4.2,3.2c0.1,0.1,0.1,0.2,0.1,0.3c0,0.1,0,0.1-0.1,0.2c0,0-0.1,0.1-0.1,0.1
			c-1.2,0.4-8.1-2.9-10.2-5.1c-0.1-0.1-0.2-0.3-0.3-0.4c0,0-5.2-0.3-7-1.8c-1-0.8-1-1.7-0.6-2.5c0.7-1.2,2.5-2.1,3.7-1.8
			c0.2,0.1,0.4,0.1,0.5,0.2c0.4,0.3,3,2,3,2s2.7-6.2,5.8-6.5c1.2-0.1,2-0.1,2.5,0c0.1,0,0.2,0.1,0.3,0.2c0.1,0.1,0.1,0.2,0,0.3
			c-0.1,0.3-0.6,0.8-1.6,1.4c-2.4,1.5-4.3,3.3-4.5,3.4c0,0,0,0,0,0s0.2,0,0.5,0c0,0,0,0,0,0c0.8,0,2.4,0.1,4.1,0.2l0,0
			c1.8,0.1,3.8,0.2,5,0.2c1.5,0,3.3,0.6,4.4,1.1c0,0,0,0,0,0C211,214.2,211.3,214.5,211.2,214.7z"/>
	</g>
	<path class="st13" d="M164.4,185.9c-0.1,0.8-2.8,0.5-5.2-1c-2.6-1.6-3.3-3.8-3.1-4.9c0.5,1.2,1.6,3,3.1,4c1.8,1.2,4.4,1.8,4.5,0.6
		C164.1,185.1,164.5,185.6,164.4,185.9z"/>
	<path class="st13" d="M165.7,184.2c-0.2,0.8-1.8,0.9-5.7-2.1c-3.6-2.8-4.1-5.4-3.7-6.4c0.2,1.2,0.9,3.3,3,5c2.4,1.9,5.3,3.1,5.4,2
		C165.4,183.4,165.8,183.9,165.7,184.2z"/>
	<path class="st13" d="M166.1,182.3c-0.7,0.8-3.1-1-5.9-4.1c-2.4-2.6-3-4.8-2.5-6.1c0.3,1.5,1,3.6,2.9,5.6c2.4,2.6,4.1,4.3,4.6,3.6
		c0.2-0.2,0.4-0.5,0.5-0.7C166.1,181.4,166.3,182,166.1,182.3z"/>
	<path class="st13" d="M166.7,180.1c-1.1,1-3.6-2.1-5.5-4.5c-1.7-2.1-2.3-5.8-1.5-7.4c0,1.2,0.2,3.1,1.9,5.7c2.3,3.6,4.1,6,4.7,5.4
		c0.2-0.2,0.4-0.4,0.6-0.5C167,179.4,167,179.8,166.7,180.1z"/>
	<path class="st45" d="M204.8,222.9c-1.2,0.4-8.1-2.9-10.2-5.1c-0.1-0.1-0.2-0.3-0.3-0.4c0,0-5.2-0.3-7-1.8c-1-0.8-1-1.7-0.6-2.5
		c1.7,1.4,4.1,2.7,7.5,3.6C194.1,216.8,201.3,221.7,204.8,222.9z"/>
	<path class="st45" d="M208,219.7c-0.4,1.3-5.3-0.7-6.9-0.8c-0.1,0-0.3,0-0.3,0c-0.1,0-0.1,0-0.1,0.1c0,0,0,0,0,0
		c-0.5-0.3-1.2-1.8-1.2-1.8C200.7,217.9,205,219.6,208,219.7z"/>
	<path class="st45" d="M210.1,216.9C210.1,216.9,210.1,216.9,210.1,216.9L210.1,216.9c0,0.1,0,0.1-0.1,0.2c-0.4,1-7-0.5-8.7-0.4
		c0,0-0.1,0-0.1,0h0l-1.1-0.8c1.3-0.1,5.1,1.1,6.7,1C208.3,216.8,209.8,216.9,210.1,216.9z"/>
	<g>
		<linearGradient id="SVGID_20_" gradientUnits="userSpaceOnUse" x1="275.3326" y1="163.7351" x2="243.0643" y2="211.8788">
			<stop  offset="0" style="stop-color:#F7CCB9"/>
			<stop  offset="1" style="stop-color:#F8B0A3"/>
		</linearGradient>
		<path class="st46" d="M285.8,191.3c-0.6,2.5-1.2,4.8-2,6.7c-4.4,10.8-6.2,12-11.5,14.8c-5.3,2.8-26.2,8.1-34.6,7.2
			c-8.4-1-11.6-2.1-11.6-2.1s-6,1.3-8.2,0.5c-0.5-0.2-0.8-0.4-1-0.6c-0.2-0.2-0.1-0.4,0.2-0.6h0c0.5-0.3,1.6-0.5,3-0.6c0,0,0,0,0,0
			c0,0-0.3,0-0.7-0.1c-1.9-0.2-7.1-1-7.2-2c0-0.1,0-0.2,0-0.2c0,0,0,0,0-0.1c0.3-0.5,1.5-0.5,2.4-0.5c0.3,0,2.8,0.4,3.3,0.5
			c-0.5-0.1-2.8-0.5-2.9-0.5c0,0-0.1,0-0.1,0c-1.9-0.3-5.2-1-4.8-2.1c0,0,0,0,0,0c0.1-0.2,0.3-0.4,0.6-0.5c0.7-0.2,1.7-0.2,2.7-0.2
			c1.5,0.1,4.7,1.1,4.9,1.1c-0.1,0-0.6-0.2-1.3-0.5c0,0,0,0,0,0c-1.9-0.8-5.1-2.2-4.2-2.8c0,0,0.1,0,0.1,0c0.1,0,0.1-0.1,0.2-0.1
			c1.3-0.4,6,1.1,9,2.2c0,0-0.1-0.1-0.1-0.2c-0.3-0.5-1.3-1.5-1.4-1.8c-0.6-1.1-0.6-2-0.2-2.3c0.2-0.2,0.6-0.1,1.1,0.3
			c1.1,1.1,2.3,3.7,2.4,4c1.3-0.3,6-1.6,11.2-3.3c2.8-0.9,5.7-2,8.4-3.2c20.5-9.2,22.4-26.5,22.3-33.4c0-1.9-0.2-3-0.2-3
			s7.1-3.5,22.4-5.6C288.4,162.1,288.4,179.8,285.8,191.3z"/>
		<path class="st45" d="M216.8,217.8c0.1,0.2,0.4,0.4,1,0.6c2.3,0.8,8.2-0.5,8.2-0.5s3.2,1.1,11.6,2.1c8.4,1,29.4-4.4,34.7-7.2
			c5.3-2.8,7.2-4,11.5-14.8c0.8-1.9,1.4-4.2,2-6.7c-2.8,3.2-10.3,17.9-25.7,21.5c-20.6,4.8-29.7,4.8-33.7,4.3
			C226.4,217.1,219.8,219,216.8,217.8z"/>
		<path class="st45" d="M222.7,211c0,0-0.2-0.1-0.6-0.3c-0.3-0.5-1.3-1.5-1.4-1.8c-0.6-1.1-0.6-2-0.2-2.3
			C220.8,207.8,221.7,210.3,222.7,211z"/>
		<path class="st45" d="M220.6,212.2c0,0-1.4,0-3.5-0.6c0,0,0,0,0,0c-1.9-0.8-5.1-2.2-4.2-2.8c0,0,0.1,0,0.1,0
			C214.5,209.6,218.5,211.8,220.6,212.2z"/>
		<path class="st45" d="M219.7,214c0,0-2.7-0.2-4.8-0.3c-1.9-0.3-5.2-1-4.8-2.1c0,0,0,0,0,0C211.7,212.1,216.5,213.5,219.7,214z"/>
		<path class="st45" d="M221.4,215.7c0,0-0.1,0.7-2.1,0.8c-1.9-0.2-7.1-1-7.2-2c0-0.1,0-0.2,0-0.2
			C213.7,214.9,218.1,216,221.4,215.7z"/>
		<path class="st47" d="M254.4,198.9c-6.2,5-13.9,7.4-19.3,8.6c2.8-0.9,5.7-2,8.4-3.2c20.5-9.2,22.4-26.3,22.3-33.2l0.4-0.2
			C266.3,179.8,263.9,191.2,254.4,198.9z"/>
	</g>
	<path class="st45" d="M211.2,214.7C211.2,214.7,211.2,214.7,211.2,214.7L211.2,214.7c0,0,0,0.1-0.1,0.1c-0.6,0.5-6.1-0.4-8-0.4
		c0,0,0,0,0,0c-0.6-0.2-1-0.3-1-0.3c0.1-0.2,3.5-0.3,5.9,0C209.4,214.3,210.5,214.5,211.2,214.7z"/>
	<path class="st45" d="M202.5,207.6c-0.1,0.3-0.6,0.8-1.6,1.4c-2.4,1.5-4.3,3.3-4.5,3.4c0,0,0,0,0,0s0.2,0,0.5,0
		c-0.5,0.1-0.8,0.1-1,0c-0.4-0.2,0.7-1.7,3.4-3.6c1.4-1,2.4-1.4,3.1-1.5C202.5,207.4,202.5,207.4,202.5,207.6z"/>
	<path class="st48" d="M265.8,170.7l-0.7-3.6c0,0,16.6-9.5,26-4.9l-1.3,5.3C289.8,167.5,274.7,167.1,265.8,170.7z"/>
	<g>
		<path class="st49" d="M260.1,152.4c-0.7,2.2-1.8,5-2.4,6.2c-1.4,3.2-4.9,5-7.5,4.4c-2.9-0.7-3.9-6.6-3.5-10.3
			c0.1-1.3,0.3-2.4,0.4-3.4c0.3-1.7,0.5-2.7,0.5-2.7s12.5,3,13,3C260.9,149.5,260.6,150.8,260.1,152.4z"/>
		<path class="st5" d="M260.1,152.4c-3.6-0.4-10.9-2.6-12.9-3.1c0.3-1.7,0.5-2.7,0.5-2.7s12.5,3,13,3
			C260.9,149.5,260.6,150.8,260.1,152.4z"/>
	</g>
	<g>
		
			<linearGradient id="SVGID_21_" gradientUnits="userSpaceOnUse" x1="210.7169" y1="110.93" x2="227.6187" y2="98.2717" gradientTransform="matrix(0.9992 -3.990000e-02 3.990000e-02 0.9992 21.5761 13.3951)">
			<stop  offset="0" style="stop-color:#FACDB9"/>
			<stop  offset="1" style="stop-color:#FBB1A3"/>
		</linearGradient>
		<path class="st50" d="M258,97.2c0,0.1-5.1,12.9-5.9,14.7c-0.3,0.7-1,1.4-1.9,2c-1.4,1-3.4,1.7-5.9,1.8c-4.1,0.2-6.8-3.2-7.3-4.1
			c-0.1-0.1-0.1-0.3-0.2-0.4c-0.5-1.3-1.1-3.9-1.1-3.9c0,0,4.8-0.6,9.5-1.8C249.8,104.3,257.8,97.3,258,97.2z"/>
		<path class="st13" d="M258,97.2c0,0.1-5.1,12.9-5.9,14.7c-0.3,0.7-1,1.4-1.9,2c-4.1-2.6-10.5-2.7-13.4-2.7
			c-0.5-1.3-1.1-3.9-1.1-3.9c0,0,4.8-0.6,9.5-1.8C249.8,104.3,257.8,97.3,258,97.2z"/>
		
			<linearGradient id="SVGID_22_" gradientUnits="userSpaceOnUse" x1="219.8511" y1="52.4714" x2="221.2897" y2="94.0439" gradientTransform="matrix(0.9992 -3.990000e-02 3.990000e-02 0.9992 21.5761 13.3951)">
			<stop  offset="0" style="stop-color:#FACDB9"/>
			<stop  offset="1" style="stop-color:#FBB1A3"/>
		</linearGradient>
		<path class="st51" d="M269.3,91.3c-2.3,2.5-7.2,0.6-7.2,0.6s-2.8,4.4-8,9.5c-5.1,5.1-15.1,7.4-21.1,5.4c-6-2-10.3-10-11.7-14.7
			c-1.3-4.3-1.2-10.8-1.1-12.1c0-0.1,0-0.2,0-0.2s-1.1-2.3-2.2-5.9c-1-3.4-0.7-8.1,1.2-9.2c0.1-0.1,0.2-0.1,0.3-0.2
			c2.2-0.7,3.3,4.3,3.3,4.3c0.4-1.9,3.9-7.9,6.9-11.6c3-3.7,6.3-2.6,6.8-2c1.1,1.2,3.8,6,7.9,7.7c4.1,1.7,9.4,1.6,12.7,0.3
			c3.3-1.4,6.2,2.4,7.9,6.8c1.7,4.4,0,11.4,0,11.4c0.3-0.3,0.6-0.5,0.9-0.7c2.4-1.6,4.9-0.3,6,1.9c0,0,0,0.1,0.1,0.1
			C273.1,85.1,271.6,88.9,269.3,91.3z"/>
		<path class="st13" d="M271.9,82.7c0.1,1.5,0,3.7-1.8,5.3c-2.3,2.1-7,1.5-6.8,0.7c0.2-0.6,1.5-4,2.4-8c-0.3,0.2-0.6,0.4-0.9,0.7
			c0,0,1.7-7,0-11.4c-1.7-4.4-4.6-8.2-7.9-6.8c-3.3,1.4-8.6,1.4-12.7-0.3c-4.1-1.7-6.8-6.6-7.9-7.7c-0.5-0.6-3.8-1.7-6.8,2
			c-3,3.7-6.4,9.8-6.9,11.6c0,0-1.1-5.1-3.3-4.3c-0.1,0-0.2,0.1-0.3,0.2c1.2,0.6,3.1,2.6,2.8,4.7c-0.2,1.6-1.1,6.6-1.8,10.6
			c0,1.3-0.2,7.8,1.1,12.1c1.5,4.8,5.8,12.7,11.7,14.7c6,2,16-0.3,21.1-5.4c5.1-5.1,8-9.5,8-9.5s4.8,1.9,7.2-0.6
			C271.6,88.9,273.1,85.1,271.9,82.7z M257.6,92.5c-5.4,7-12,12.5-18.2,13c-7.2,0.5-11.3-3-14.3-8.2c-3-5.2-4.5-14.3-3.4-20
			c0.6-3.2,1.1-6,1.2-8.3c0.1,0.3,0.4,0.4,0.9-0.4c0.9-1.5,4.1-8.3,6.5-10.4c2.4-2,4.9-3.7,6.6-0.7s5.2,9.3,13.6,8.3
			c8.4-1,10.2,1.2,11.4,4.4C262.8,73.4,262.9,85.5,257.6,92.5z"/>
		<g>
			<path class="st52" d="M235.8,72.6c0.6-0.7-1.5-3.4-3.7-4.8c-2.2-1.4-4.4-1.4-5.7-1c-1.4,0.4-1,2.2,0.1,2.7
				c0.7,0.3,6.1,2.8,6.9,3.2C234.1,73,235,73.3,235.8,72.6z"/>
			<path class="st52" d="M245.1,76.5c-0.2-0.7,2-2.9,5.8-2.8c3.7,0.2,5.7,2.2,5.8,3.1c0,0.9-1.2,1.3-5.2,1
				C247.4,77.5,245.4,77.7,245.1,76.5z"/>
		</g>
		<path class="st53" d="M222.8,77.4c-1.5,0.9,0.3,5.7,2.4,4.5C227.4,80.8,224.6,76.3,222.8,77.4z"/>
		<path class="st53" d="M252.3,90c0.3,1.7,6.6-0.2,5.8-2.3C257.4,85.6,251.8,86.5,252.3,90z"/>
		<path class="st28" d="M268.7,82.1c-0.4-0.9-3.6,2.3-4.4,3.9c-0.8,1.6-0.7,2.8-0.5,3.2c0.2,0.4,2.2,0.4,2.5-1.3
			c0.3-1.7-0.1-2.5-0.1-2.5s0.8-1.2,1.4-1.9C268.3,82.7,268.9,82.6,268.7,82.1z"/>
		<path class="st28" d="M219,66.8c0.2-0.4,1.5,0.9,1.8,2.3c0.3,1.5,0.6,4.5,0.2,5c-0.4,0.6-1.5-1.1-0.8-3c0,0,0.6-1.1-0.1-2.3
			C219.4,67.6,218.8,67.2,219,66.8z"/>
		<g>
			<path class="st48" d="M241.3,113.1l-4.1,4.8c0,0-3.2-5.5-3.3-9.9l1.7-0.9C235.6,107.1,237.6,111.3,241.3,113.1z"/>
			<path class="st48" d="M242.8,113.5l1.4,6.2c0,0,6.5,0.4,11.9-8.9l-2.6-2.5C253.6,108.2,249.2,113.9,242.8,113.5z"/>
			<path class="st54" d="M241.3,113.1l0.1,2.1c0,0-1-0.4-1.3-0.7L241.3,113.1z"/>
			<path class="st54" d="M242.8,113.5l-1.4,1.8c0,0,1,0.4,2,0.5L242.8,113.5z"/>
			<path class="st55" d="M237.2,117.9l4.1-2.6c0,0-1-0.4-1.3-0.7L237.2,117.9z"/>
			<path class="st55" d="M244.2,119.7l-2.9-4.4c0,0,1.4,0.5,2,0.5L244.2,119.7z"/>
		</g>
		<path class="st52" d="M268.9,66.3c-0.1-2.2-0.6-4.2-1.1-6.1v0c-0.1-0.4-0.3-0.8-0.4-1.2c-0.3-0.8-0.6-1.6-1-2.3
			c-2.3-5.1-7.6-6.8-10.4-8.5c-4.4-2.6-10.7-5.6-19.1-1.8c-2.2,1-4.1,2.1-5.7,3.2c-0.3,0.2-0.6,0.5-1,0.7c-1.5,1.2-2.8,2.4-3.8,3.8
			c-0.8,1-1.5,2.1-2,3.3c-0.5,1.1-1,2.3-1.4,3.7c-0.1,0.3-0.2,0.6-0.3,1c-0.8,3.1-0.7,6.8-0.4,7c0.6,0.5,1.4-2,2.6-4.7
			c0.6-1.4,1.4-2.6,2.2-3.8c0.3-0.4,0.6-0.9,0.9-1.3c0.6-0.8,1.3-1.5,1.9-2.1c0.5-0.5,1-0.9,1.6-1.2c2.3-1.4,4.3-1,5.2,0.8
			c0.1,0.1,0.1,0.3,0.2,0.4c0,0,0,0,0,0c0.7,1.3,2.1,3.2,4.7,4.9c0.6,0.4,1.4,0.8,2.2,1.2c0.8,0.4,1.6,0.7,2.5,0.9
			c0.6,0.2,1.2,0.3,1.7,0.4c0,0,0,0,0,0c0.7,0.1,1.4,0.1,2,0.1c2.5-0.1,4.9-0.8,6.8-1.1c0.7-0.1,1.3-0.2,1.9-0.1
			c0.2,0,0.4,0.1,0.6,0.1c2,0.6,5.3,5.9,5.7,10.4c0.2,2.2-0.4,4.5-0.6,6.1c-0.1,0.4-1.2,3.9-4.1,8.7c-0.7,1.1-2.3,3.5-3.4,4.4
			c-0.5,0.4-3.1,0.8-6.8,0.8c-0.1,0-0.2,0-0.3,0c-2.6,0-5.6-0.1-8.8-0.4c-0.1,0-0.2,0-0.3,0c-2.7-0.3-5.5-0.8-8.1-1.6
			c-0.6-0.2-1.2-0.4-1.8-0.5c-0.1,0-0.2-0.1-0.3-0.1c-2.6-0.9-4.6-1.7-6.1-2.5c-0.1-0.1-0.2-0.1-0.3-0.2c-2.9-1.7-3.7-3.1-4-4.2
			c0,0-0.4,8.4,3.6,15.3c0.4,0.7,0.8,1.3,1.2,1.9c0.2,0.3,0.4,0.6,0.6,0.8c0.7,0.9,1.4,1.7,2.1,2.4c2.2,2.2,4.5,3.5,6.9,4.2l0,0
			c0.2,0.1,0.3,0.1,0.5,0.1c0.9,0.3,1.8,0.4,2.8,0.6c2.6,0.3,5.9,0.1,9.1-1.1c0.1,0,0.2-0.1,0.3-0.1c2.3-0.9,4.6-2.3,6.7-4.4
			c0.1-0.1,0.2-0.2,0.2-0.2c0.5-0.6,1.1-1.2,1.6-1.8c5.4-6.9,5.6-9.9,6.7-12.5c1.1-2.5,2.1-4.3,2.8-8.1c0,0,0.1,0,0.1-0.1
			C267.6,80.6,269.5,75.6,268.9,66.3z"/>
		<path class="st56" d="M267.7,60.1L267.7,60.1c0,0.1,0,0.1,0,0.2c0,0.1-0.6,0.4-1.5,0.8c-1,0.4-2.4,0.9-4.1,1.5
			c-0.1,0-0.2,0.1-0.4,0.1c-0.1,0-0.2,0.1-0.4,0.1c-0.8,0.2-1.7,0.5-2.6,0.7c-0.2,0.1-0.4,0.1-0.6,0.2c-2.7,2.2-5.8,3.2-6.3,2.9
			c0,0-0.1-0.1-0.1-0.1c0-0.4,0.5-1.1,0.5-1.5c0-0.1-0.1-0.2-0.3-0.3c-0.6,0-1.2,0-1.8,0c-0.6,0-1.2-0.1-1.8-0.2c0,0-0.1,0-0.2,0.1
			c0,0,0,0,0,0c-1.1,0.3-5.6,1.3-7.6-0.5c0,0-0.9-1-0.3-1c0.2,0,0.5,0,1,0.2c0.8,0.3,1.8,0.3,2.7,0c0.1,0,0.2,0,0.3-0.1
			c-0.7-0.3-1.5-0.7-2.2-1c-0.1,0-0.2-0.1-0.2-0.1c-0.3-0.1-0.6-0.3-0.9-0.4c-4.3-2.2-8.5-4.5-11.3-3.4c-0.5,0.2-1,0.5-1.4,0.9
			c0,0,0,0-0.1,0.1c0,0-1.2-2.5-1.6-5.2c-0.1-0.6-0.1-1.2-0.1-1.8c0-0.3,0.1-0.6,0.1-0.9c0.1-0.7,0.4-1.3,0.8-1.9
			c0.1-0.1,0.1-0.2,0.2-0.2c1.3-1.3,2.2-0.2,2.7,1.1c0.3,0.8,0.6,1.7,0.7,2.2c0-0.6,0-1.7,0.3-2.9c0.6-2.8,2.3-6.5,6.9-8.6
			c0.1-0.1,0.3-0.1,0.4-0.2c1-0.4,2.2-0.7,3.5-1c0,0,2.7-0.3,5.1,0.4c0.1,0,0.3,0.1,0.4,0.1c1.7,0.6,3.2,1.6,3.4,3.6
			c0,0,1.1-1.8,2.6-1c0.1,0.1,0.2,0.1,0.3,0.2c0.2,0.2,0.4,0.4,0.6,0.6c0.5,0.7,0.8,1.9,0.9,3.3c0.5-1.4,1.3-2.4,2.8-1.9
			c0.6,0.2,1.2,0.5,1.8,0.9c0.1,0.1,0.2,0.1,0.3,0.2c1.3,0.8,2.6,1.9,3.7,3.3c0.1,0.1,0.1,0.2,0.2,0.2c1.1,1.3,2,2.8,2.7,4.4
			c0,0.1,0.1,0.2,0.1,0.3c0.4,1,0.7,2.1,0.8,3.2C267.8,58.6,267.8,59.4,267.7,60.1z"/>
		<path class="st27" d="M236.8,76.5c0,1.7,0,3.4-0.2,5.1c-0.2,1.7-0.7,3.7-2.2,4.6c-0.7,0.4-1.6,0.3-2.4,0.3c-0.6,0-1.1,0.1-1.3,0.7
			c-0.3,1,0.1,2.3,0.5,3.1c0.5,1,1.4,1.8,2.4,2.1c0.2,0.1,0.3-0.3,0.1-0.3c-1.2-0.4-2.1-1.4-2.6-2.6c-0.3-0.7-0.6-2.5,0.4-2.6
			c0.7-0.1,1.4,0.1,2.1,0c0.7-0.1,1.2-0.5,1.7-1.1c1-1.2,1.3-2.9,1.5-4.4c0.2-1.6,0.2-3.2,0.2-4.8C237.1,76.3,236.8,76.2,236.8,76.5
			z"/>
		<path class="st24" d="M255.8,82.2c0,0-1,1-4.2,1.3c-0.4,0-0.9,0.1-1.3,0.1c-0.9,0-1.7,0-2.4-0.1c-2.4-0.2-3.3-0.8-3.3-0.8
			c0-0.3,1.4-2.9,2-3.1c0.6-0.2,5.2-0.4,7.4,0.8C256.3,81.5,255.8,82.2,255.8,82.2z"/>
		<path class="st57" d="M251.9,82.8c-0.1,0.2-0.2,0.4-0.3,0.6c-0.4,0-0.9,0.1-1.3,0.1c-0.9,0-1.7,0-2.4-0.1c-0.3-0.6-0.4-1.3-0.2-2
			c0.4-1.2,1.7-1.9,2.8-1.5C251.6,80.3,252.3,81.6,251.9,82.8z"/>
		<path class="st58" d="M245.6,80.6c0,0,6-1.1,10.2,1.3c0,0-0.5-1.7-4.2-2.5c-3.7-0.8-5.3,0.1-5.3,0.1L245.6,80.6z"/>
		<g>
			<path class="st24" d="M224.6,74.1c0,0,0.4,1.3,3.2,3c0.3,0.2,0.7,0.4,1.2,0.7c0.8,0.4,1.5,0.8,2.1,1c2.3,0.9,3.3,0.8,3.3,0.8
				c0.1-0.3,0.1-3.3-0.4-3.7c-0.4-0.4-4.5-2.7-7-2.7C224.4,73.4,224.6,74.1,224.6,74.1z"/>
			<path class="st57" d="M227.7,76.5c0,0.2,0,0.4,0,0.6c0.3,0.2,0.7,0.4,1.2,0.7c0.8,0.4,1.5,0.8,2.1,1c0.6-0.3,1-0.9,1.1-1.6
				c0.2-1.3-0.6-2.4-1.8-2.6C229.1,74.4,228,75.3,227.7,76.5z"/>
			<path class="st58" d="M234.3,77.4c0,0-4.8-3.8-9.7-3.5c0,0,1.2-1.3,4.9-0.3c3.7,1,4.7,2.5,4.7,2.5L234.3,77.4z"/>
		</g>
		<g>
			<path class="st52" d="M262.1,62.6c-0.1,0-0.2,0.1-0.4,0.1c-0.1-0.1-0.1-0.1-0.2-0.2c-0.5-0.5-1-0.9-1.6-1.2
				c-2.6-1.4-5.6-0.5-8.3,0.2c-1.4,0.4-2.7,0.8-4.1,1c-1.5,0.2-3,0.1-4.5-0.1c-0.4-0.1-0.8-0.1-1.2-0.2c-0.4-0.2-0.7-0.4-1.1-0.5
				c1.2,0.2,2.4,0.4,3.5,0.5c1.6,0.1,3.2,0,4.8-0.3c1.4-0.3,2.8-0.8,4.3-1.1c1.4-0.3,2.9-0.6,4.4-0.5c0.9,0.1,1.8,0.4,2.5,0.9
				c-1.2-1.2-2.6-2.3-4.3-3.1c-6.1-3.1-13.3-2.3-19.8-1.7c-2.5,0.2-5.1,0.5-7.4-0.9c-1.2-0.8-2.1-1.9-2.5-3.2c0-0.3,0.1-0.6,0.1-0.9
				c0.2,1.3,0.8,2.5,1.8,3.3c1.3,1.1,3.1,1.6,4.8,1.6c3.4-0.1,6.8-0.6,10.2-0.7c3.2-0.1,6.5,0.1,9.6,1c2.7,0.8,5.3,2.2,7.4,4.1
				C261,61.3,261.6,61.9,262.1,62.6z"/>
			<path class="st52" d="M266.9,54.6c-2.1,1.6-4.7,2.7-7.5,2.3c-0.8-0.1-1.5-0.4-2.3-0.6c-0.8-0.2-1.6-0.4-2.4-0.6
				c-1.7-0.5-3.4-0.8-5.1-1c-1.6-0.2-3.2-0.4-4.8-0.6c-1.1-0.2-2.3-0.6-3.3-1.2c-2.1-1.3-3.7-3.7-4.3-6.1c-0.5-2,0-4,0.7-5.8
				c0.1-0.1,0.3-0.1,0.4-0.2c-1,2.2-1.5,4.7-0.5,7.1c1,2.5,2.9,4.7,5.5,5.6c1.5,0.5,3,0.6,4.5,0.8c1.6,0.2,3.2,0.4,4.8,0.7
				c1.7,0.3,3.3,0.8,4.9,1.3c1.5,0.4,3,0.6,4.6,0.2c1.6-0.4,3.1-1.2,4.4-2.2C266.8,54.4,266.9,54.5,266.9,54.6z"/>
			<path class="st52" d="M264.1,49.9c-1.5,1.3-3.4,2.3-5.3,2.8c-2.3,0.6-4.8,0.5-7-0.5c-2-1-3.5-2.9-3.7-5.1
				c-0.2-1.8-0.2-3.7-0.5-5.5c-0.1-0.4-0.2-0.9-0.4-1.3c0.1,0,0.3,0.1,0.4,0.1c0.2,0.5,0.3,1,0.4,1.5c0.3,1.8,0.3,3.6,0.5,5.4
				c0.4,2.6,2.4,4.5,4.9,5.2c3.7,1,7.7-0.3,10.6-2.7C264,49.8,264,49.9,264.1,49.9z"/>
			<path class="st52" d="M260.2,46.4c-0.4,0.9-1,1.8-1.8,2.4c-1.1,0.8-2.7,1.1-3.8,0.2c-1.2-1-1.6-2.9-1.4-4.4
				c0.1-0.5,0.2-1,0.4-1.5c0.1,0.1,0.2,0.1,0.3,0.2c-0.1,0.3-0.2,0.6-0.2,0.9c-0.2,1.3-0.1,3.1,0.9,4.2c1.9,2.2,4.5,0.1,5.5-2.1
				C260,46.2,260.1,46.3,260.2,46.4z"/>
		</g>
		<g>
			<path class="st56" d="M225.6,102.7c-0.2-0.3-0.4-0.5-0.6-0.8c-0.3-1.2-0.6-2.5-0.8-3.7c-0.3-2-0.5-4.1-0.4-6.2
				c0.1-1.1,0.2-2.1,0.4-3.2c0.1,0.1,0.2,0.1,0.3,0.2c-0.1,1-0.3,2-0.4,3c-0.1,2,0,4.1,0.4,6.1C224.8,99.6,225.1,101.2,225.6,102.7z
				"/>
			<path class="st56" d="M235,109.4c-0.2,0-0.3-0.1-0.5-0.1l0,0c-3.4-5.2-4.3-11.7-4-17.9c0.1,0,0.2,0.1,0.3,0.1
				C230.6,97.8,231.5,104.3,235,109.4z"/>
			<path class="st56" d="M247.3,108.8c-0.1,0-0.2,0.1-0.3,0.1c-1.8-2.2-3.1-4.9-4.1-7.6c-0.9-2.5-1.6-5.1-2.1-7.7c0.1,0,0.2,0,0.3,0
				c0.5,2.5,1.1,5,2,7.4C244.1,103.8,245.4,106.5,247.3,108.8z"/>
			<path class="st56" d="M254.2,104.1c-0.1,0.1-0.2,0.2-0.2,0.2c-0.8-1.2-1.5-2.4-2.1-3.6c-1-2.1-1.8-4.3-2-6.7c0.1,0,0.2,0,0.3,0
				c0.2,2.4,1.1,4.7,2.1,6.8C252.9,102,253.5,103.1,254.2,104.1z"/>
		</g>
		<path class="st24" d="M231.2,94.6c0,0,4.7,3,12.6,1.9c0,0-4,3.6-10.3,2.9C229.3,99.1,231.2,94.6,231.2,94.6z"/>
		<path class="st59" d="M229.4,58.3C229.4,58.3,229.4,58.3,229.4,58.3c-0.5,0.2-1,0.5-1.4,1c0,0-1.8-3.8-1.7-7
			c0-0.3,0.1-0.6,0.1-0.9c0.1-0.7,0.4-1.3,0.8-1.9c0.1-0.1,0.1-0.2,0.2-0.2C226.9,52.7,226.7,55.8,229.4,58.3z"/>
		<path class="st60" d="M231.1,59.7C231.1,59.7,231.1,59.7,231.1,59.7C231.1,59.7,231.9,60.5,231.1,59.7z"/>
		<path class="st59" d="M253.1,63.7c-0.2,0.6-0.6,1-0.9,1.2c0-0.1-0.1-0.2-0.3-0.3c-1.3,0.1-2.5,0-3.6-0.1c0,0-5.6,1.6-7.8-0.5
			c0,0-0.9-1-0.3-1c0.5,0.8,1.5,1.5,3.7,1.4C246.7,64.3,253.6,62.5,253.1,63.7z"/>
		<path class="st59" d="M227.2,60.5c-0.8,1.2-1.5,2.4-2.2,3.8c-1.3,2.7-2,5.2-2.6,4.7c-0.3-0.2-0.4-3.9,0.4-7c0.1-0.3,0.2-0.7,0.3-1
			c0.4-1.3,0.8-2.5,1.4-3.7C224.6,59.8,226.1,60.5,227.2,60.5z"/>
		<path class="st59" d="M268.9,66.3c-0.1-2.2-0.6-4.2-1.1-6.1v0c0.1-0.8,0.1-1.6,0-2.3c-0.1,0.4-0.2,0.8-0.4,1.2
			c-0.3,0.8-0.7,1.5-1.1,2.2c-1.3,1.9-3.1,3.1-4,2.3c-0.3-0.2-0.5-0.4-0.8-0.6c-1.6-1.1-3.1-1.1-4.2,0.4c-0.1,0.1-0.2,0.3-0.3,0.4
			c-1.3,1.4-3.8,2.6-5.1,3c0.5,0.3,3.6-0.7,6.3-2.9c0.2,0,0.4-0.1,0.6-0.2c0.2,0,0.4,0.1,0.6,0.1c2,0.6,5.3,5.9,5.7,10.4
			c0.3,3.5-1.4,7.5-0.3,7.7c-3.3,14.5-17.1,25.8-25.2,26.2c-5.1,0.3-9-1.2-12-3c2.2,2.2,4.5,3.5,6.9,4.2l0,0
			c0.2,0.1,0.3,0.1,0.5,0.1c0.9,0.3,1.8,0.4,2.8,0.6c2.6,0.3,5.9,0.1,9.1-1.1c0.1,0,0.2-0.1,0.3-0.1c2.3-0.9,4.6-2.3,6.7-4.4
			c0.1-0.1,0.2-0.2,0.2-0.2c0.5-0.6,1.1-1.2,1.6-1.8c5.4-6.9,5.6-9.9,6.7-12.5c1.1-2.5,2.1-4.3,2.8-8.1c0,0,0.1,0,0.1-0.1
			C267.6,80.6,269.5,75.6,268.9,66.3z"/>
	</g>
	<path class="st61" d="M213.8,179.6C213.8,179.6,213.8,179.6,213.8,179.6C213.8,179.5,213.8,179.6,213.8,179.6z"/>
	<path class="st62" d="M211.2,217.2L211.2,217.2C211.2,217.2,211.1,217.4,211.2,217.2z"/>
	<linearGradient id="SVGID_23_" gradientUnits="userSpaceOnUse" x1="233.6727" y1="232.3941" x2="284.6266" y2="410.5835">
		<stop  offset="0" style="stop-color:#344551"/>
		<stop  offset="1" style="stop-color:#26333D"/>
	</linearGradient>
	<path class="st63" d="M306,403c0,0-1.2,0.1-2.7,0.1c-1,0-2.1,0-3-0.1c0,0-8.7-24.5-13.5-39.3c-6.8-20.7-16.3-51.7-20.6-62.4
		c-4.3-10.8-17.2-44.4-18.3-45.7c-0.1-0.1-0.1,0-0.2,0.3c-0.4,3.3,2.5,31,4.4,48.1c2,18.5,2.4,20.8,2.4,20.8s6.4,9.2,6.7,21.3
		c0.3,12.1-5.1,33-8.8,42.2c-3.7,9.2-7.2,13-7.2,13s-1.4,0.2-2.8,0.2c-1,0-2-0.1-2.6-0.5c0,0-0.3-3.8-0.9-9.6c0,0,0,0,0,0
		c-1.2-12.9-3.3-35.5-4.7-47.1c-2-16.7-8.7-50.3-11.5-64c-0.7-3.7-1.9-9.5-3.1-16c-1.2-6-2.4-12.6-3.6-18.7c-0.2-1-0.4-2-0.6-2.9
		c-1-5.1-1.9-9.7-2.5-13.1c-0.7-3.5-1.1-5.7-1.1-5.7s26.9-2.4,47.8-4.1c2.7-0.2,5.3-0.4,7.8-0.6c0,0,0.9,2.4,2.4,6.2
		c1,2.5,2.1,5.5,3.5,9v0c0.3,0.7,0.5,1.4,0.8,2.2c3.5,9.4,7.8,20.9,10.8,30.4c6.3,19.6,17.1,59.3,20,75.1
		C308,357.7,308.5,394.2,306,403z"/>
	<linearGradient id="SVGID_24_" gradientUnits="userSpaceOnUse" x1="175.2326" y1="393.083" x2="196.8867" y2="243.0945">
		<stop  offset="0" style="stop-color:#C18D5D"/>
		<stop  offset="1" style="stop-color:#D5925E"/>
	</linearGradient>
	<path class="st64" d="M209.8,402.1c0,0.3-1.1,0.5-2,0.7c-0.9,0.2-1.8,0.3-1.8,0.3s-8.1-19.3-14.8-47.3c-4.6-19.3-0.4-28.9,0.1-32.8
		c0.4-3.2-0.3-3.5-3.6-21c-5.1-26.8-2.6-40-2.6-42.2c0-0.5-0.2,0.2-0.6,2c0,0,0,0,0,0c-0.5,2.1-1.1,5.6-1.8,9.9c0,0,0,0,0,0
		c-1.8,10.5-3.8,25.8-4.1,37.5c-0.4,18.1-1.1,56.5,0.2,70.1c1.3,13.6,2.7,23.9,2.7,23.9h-2.9c-0.9,0-1.6,0-1.6,0
		c-8.2-19.1-16.5-60.9-17.8-68.7c-1.3-7.8,5-20,5-20s-4.6-26-5.1-49.6c-0.3-11.2,1.9-21.3,4.5-29.1c0.2-0.6,0.4-1.1,0.6-1.7v0
		c1.8-5.1,3.7-9.1,5-11.5c0.7-1.2,1.2-2,1.5-2.4c0,0,1.7,1,4.5,2.1c3.6,1.5,9.1,3.4,15.2,4.1c10.8,1.2,18.8-2,18.8-2
		c-0.3,1.1-0.5,2.5-0.7,4.1c-0.3,2.3-0.6,5.1-0.8,8.2c-0.1,1.2-0.2,2.5-0.2,3.8c-0.1,2.3-0.3,4.7-0.4,7.2
		c-1.2,28.7-0.7,72.4-0.8,90.2C206,362,209.9,401.2,209.8,402.1z"/>
	<path class="st65" d="M195.7,412.7c0,0.8-1.3,1.3-4.5,1.1c-6.1-0.4-12.1-1.7-12.8-3.1c-0.2-0.3-0.3-0.9-0.5-1.6
		c-0.5-2.3-0.9-6-0.9-6c1,0,4.5,0,4.5,0c1.3,0.8,2.4,1.4,3.4,2c0.3,0.2,0.6,0.3,0.8,0.5c0.6,0.3,1.1,0.6,1.5,0.9
		c0.4,0.2,0.8,0.5,1.1,0.7c0.5,0.3,0.9,0.5,1.3,0.8c0.4,0.2,0.7,0.4,1,0.6c1.1,0.7,1.8,1.1,2.6,1.6
		C194.7,411,195.7,411.9,195.7,412.7z"/>
	<path class="st65" d="M223.7,409.9c0,0.2-0.1,0.4-0.3,0.7c-1.1,1.7-13,1.2-16.4-0.7c-0.1-0.1-0.2-0.5-0.3-1.2
		c-0.4-2-0.7-5.6-0.7-5.6l3.8-0.9c0,0.1,0.6,0.5,1.5,1.1c0.3,0.2,0.5,0.3,0.9,0.5c0.5,0.3,1,0.6,1.5,0.9c0.4,0.2,0.8,0.4,1.2,0.6
		c0.4,0.2,0.9,0.5,1.3,0.7c0.4,0.2,0.7,0.3,1.1,0.5c0.4,0.2,0.8,0.4,1.2,0.5C221.9,408.3,223.9,408.8,223.7,409.9z"/>
	<path class="st66" d="M223.7,409.9c0,0.2-0.1,0.4-0.3,0.7c-1.1,1.7-13,1.2-16.4-0.7c-0.1-0.1-0.2-0.5-0.3-1.2
		c1.3,0.5,4.8,1.4,8.1,1.7C218.2,410.6,221.9,410.8,223.7,409.9z"/>
	<path class="st66" d="M195.7,412.7c0,0.8-1.3,1.3-4.5,1.1c-6.1-0.4-12.1-1.7-12.8-3.1c-0.2-0.3-0.3-0.9-0.5-1.6c1.9,1.1,5,2.3,8,3
		C188.9,412.6,193.6,413,195.7,412.7z"/>
	<path class="st67" d="M180.6,204.1c0.2,0.1,0.3,0.2,0.5,0.3c0,0-0.1,0-0.1,0c-1.6-0.5-4.2-2.3-5.3-3c-4.4-2.6-7.3-8-5.9-12.8
		c1.8-6,6.4-16.2,9.4-22.2c-0.6,1.8-1.2,3.6-1.7,5.2c0,0.1-0.1,0.3-0.1,0.4c0,0.1,0,0.1-0.1,0.2c-0.1,0.3-0.2,0.6-0.3,0.9
		c-0.3,0.9-0.6,1.8-0.8,2.7c0,0.1-0.1,0.3-0.1,0.4c-0.1,0.4-0.3,0.9-0.4,1.3c-0.1,0.2-0.1,0.5-0.2,0.7c0,0.1-0.1,0.3-0.1,0.4
		c0,0.1-0.1,0.3-0.1,0.4c0,0.1-0.1,0.2-0.1,0.4c-0.1,0.4-0.2,0.7-0.3,1.1c-0.1,0.5-0.3,0.9-0.4,1.4c-0.1,0.2-0.1,0.3-0.2,0.5
		c-0.4,1.2-0.7,2.3-1.1,3.3c-0.1,0.2-0.1,0.3-0.2,0.5c-0.1,0.2-0.1,0.3-0.2,0.5c-0.1,0.2-0.1,0.3-0.2,0.5c-0.1,0.3-0.2,0.6-0.4,0.9
		c-0.1,0.2-0.2,0.4-0.2,0.6c0,0.1,0,0.2-0.1,0.3c0,0,0,0.1,0,0.1c0,0.1,0,0.2-0.1,0.3c0,0,0,0,0,0c-0.1,0.5-0.1,1-0.1,1.5
		c0,0.1,0,0.2,0,0.2c0,0.1,0,0.2,0,0.2c0,0.1,0,0.2,0,0.2c0,0.1,0,0.2,0,0.2c0,0.1,0,0.2,0,0.2c0,0.1,0,0.2,0.1,0.3
		c0,0.1,0,0.1,0.1,0.2c0,0.1,0,0.2,0.1,0.2c0,0.2,0.1,0.3,0.1,0.5c0,0.1,0.1,0.2,0.1,0.2c0,0.1,0.1,0.2,0.1,0.2
		c0.1,0.2,0.1,0.3,0.2,0.5c0.1,0.2,0.2,0.5,0.3,0.7c0,0.1,0.1,0.2,0.1,0.2c0.1,0.2,0.2,0.3,0.2,0.5c0,0.1,0.1,0.2,0.1,0.2
		c0,0.1,0.1,0.1,0.1,0.2c0.1,0.2,0.2,0.3,0.3,0.5c0,0.1,0.1,0.1,0.1,0.2c0,0,0,0.1,0.1,0.1c0,0.1,0.1,0.1,0.1,0.2l0.1,0.2
		c0.1,0.1,0.1,0.2,0.2,0.2c0.1,0.1,0.1,0.2,0.2,0.2c0.2,0.3,0.4,0.6,0.6,0.9c0.1,0.1,0.1,0.2,0.2,0.3c0.1,0.1,0.1,0.2,0.2,0.2
		c0.1,0.1,0.1,0.2,0.2,0.2c0.2,0.2,0.4,0.4,0.5,0.7c0.1,0.1,0.1,0.1,0.2,0.2c0.5,0.6,1.1,1.2,1.6,1.7c0.1,0.1,0.2,0.2,0.2,0.2
		c0.1,0.1,0.1,0.1,0.2,0.2c0.3,0.3,0.6,0.5,0.8,0.7c0.1,0.1,0.2,0.2,0.3,0.3c0,0,0,0,0,0c0.1,0.1,0.2,0.1,0.2,0.2
		C180.1,203.8,180.4,203.9,180.6,204.1z"/>
	<path class="st68" d="M209.1,224.3c-0.3,1.1-0.5,2.5-0.7,4.1c-3.3,0.8-10,1.9-19.5,1c-11.1-1-17.6-5-19.8-6.9
		c0.7-1.2,1.2-2,1.5-2.4c0,0,8.9,5,19.7,6.2C201.1,227.5,209.1,224.3,209.1,224.3z"/>
	<path class="st68" d="M176.3,226.5c-2.1,5.5-5.5,8.3-8.5,9c-1.9,0.4-3.4,0.3-4.3,0.2c0.2-0.6,0.4-1.1,0.6-1.7c0,0,0.2,0.3,4.2-0.3
		c4.3-0.6,7.1-7.6,7.1-7.6L176.3,226.5z"/>
	<path class="st68" d="M207.6,236.6c-0.1,1.2-0.2,2.5-0.2,3.8c-2.6-4.2-3.3-11.2-3.3-11.2l1.4-0.2
		C205.7,231.5,206.7,234.4,207.6,236.6z"/>
	<path class="st69" d="M178.5,403c-0.9,0-1.6,0-1.6,0c-8.2-19.1-16.5-60.9-17.8-68.7c-1.3-7.8,5-20,5-20s-4.6-26-5.1-49.6
		c-0.3-11.2,1.9-21.3,4.5-29.1c0.2-0.6,0.4-1.1,0.6-1.7v0c1.8-5.1,3.7-9.1,5-11.5c0.7-1.2,1.2-2,1.5-2.4c0,0,1.7,1,4.5,2.1
		c-2.8,4.8-12.3,23.1-11.6,41.5c0.8,19.7,4.4,50.1,4.1,52c-0.3,2-5.7,12.1-4.1,24.1c1.6,12.1,5.6,34.4,9.2,45.4
		C175.3,393.8,177.6,400.4,178.5,403z"/>
	<path class="st69" d="M207.8,402.6c-0.9,0.2-1.8,0.4-1.8,0.4s-8.1-19.3-14.8-47.3c-4.6-19.3-0.4-28.9,0.1-32.8
		c0.4-3.2-0.3-3.5-3.6-21c-5.1-26.8-2.6-40-2.6-42.2c0-0.5-0.2,0.2-0.6,2c0.7-4.9,1.7-9.2,2.8-12.2l0.1,4.5
		c-0.4,2.5-1.5,20,0.8,31.9c2.3,11.9,5.6,30.7,6,34c0.4,3.3-3.4,14.6-1.3,28.3C194.9,361.4,203.6,391.3,207.8,402.6z"/>
	<path class="st70" d="M270,225.3c-19.2-0.7-50.1,3.1-57,4.2c-0.7-3.5-1.1-5.7-1.1-5.7s34.3-3.1,55.6-4.8
		C267.6,219.1,268.5,221.4,270,225.3z"/>
	<path class="st70" d="M274.3,236.5c-3.5-1.4-10-4.8-14.5-11.2l1.9,0c0,0,5.6,5.3,11.8,9v0C273.7,235,274,235.7,274.3,236.5z"/>
	<path class="st70" d="M216.1,245.5c-0.2-1-0.4-2-0.6-2.9c3.6-8.3,3-13.8,3-13.8l1.7-0.2C220.7,236.3,217.4,243,216.1,245.5z"/>
	<path class="st66" d="M254,220.2l1.4,5.7h1.8c0,0-1.1-4.6-1.6-5.8L254,220.2z"/>
	<path class="st66" d="M223.2,222.8l1.5,5.7c0,0,1.6-0.1,1.8,0l-1.6-5.8L223.2,222.8z"/>
	<path class="st71" d="M306,403c0,0-1.2,0.1-2.7,0.1c3.8-52.7-10.3-84.6-15.1-107.8c-4.8-23.2-24.8-68.6-28.2-75.3l-0.2-0.3
		c2.7-0.2,5.3-0.4,7.8-0.6c0,0,0.9,2.4,2.4,6.2c1,2.5,2.1,5.5,3.5,9v0c0.3,0.7,0.5,1.4,0.8,2.2c3.5,9.4,7.8,20.9,10.8,30.4
		c6.3,19.6,17.1,59.3,20,75.1C308,357.7,308.5,394.2,306,403z"/>
	<path class="st71" d="M252.5,388.2c-3.7,9.2-7.2,13-7.2,13s-1.4,0.2-2.8,0.2c2.5-5.7,10-23.7,10.5-39.1c0.6-18.5-2.5-32-5.4-37.2
		c0,0-3.9-75.3-5.5-83.4c-0.3-1.3,2.6,5.6,5.6,14.2c-0.4,3.3,2.5,31,4.4,48.1c2,18.5,2.4,20.8,2.4,20.8s6.4,9.2,6.7,21.3
		C261.6,358.1,256.2,379,252.5,388.2z"/>
	<path class="st72" d="M239.1,391.3c-1.2-12.9-3.3-35.5-4.7-47.1c-2-16.7-8.7-50.3-11.5-64c-0.7-3.7-1.9-9.5-3.1-16
		c3.2,11.5,7.3,28.3,11.1,47.4C236,337.4,240.3,375.7,239.1,391.3z"/>
	<path class="st73" d="M178.7,379.2c1.3,13.6,2.7,23.9,2.7,23.9h-0.2c-1.3-8.4-4.6-28.1-5.6-51.1c-1.2-28,0.3-45.3,7-80.4
		c-1.8,10.5-3.8,25.8-4.1,37.5C178.2,327.2,177.5,365.6,178.7,379.2z"/>
	<path class="st73" d="M209.8,402.1c-1.5-5.7-6.2-59.9-5.8-90.5c0.4-26.2,1.4-50.2,3-64c-1.2,28.7-0.7,72.4-0.8,90.2
		C206,362,209.9,401.2,209.8,402.1z"/>
	<path class="st52" d="M247.6,406.2c-0.9,1.2-5.5,4.5-12.1,7.2c-4.5,1.8-9.3,1.7-9.4-1.1c0,0,0,0,0,0c0-0.8,2.6-2.2,4.3-3.6
		c5-4,9.5-8,9.5-7.8c0,0.3,5.7,0.1,5.7,0.1c0.5,0.9,0.9,1.9,1.3,2.9C247.4,405.1,247.6,406.2,247.6,406.2z"/>
	<path class="st52" d="M310.3,416.7c-1.3,0.5-3.4,0.1-5.1-2.4c-0.3-0.4-0.5-0.8-0.8-1.3c-1.8-3.8-4.2-10-4.2-10l5.9-0.6
		c0,0,2.6,2.7,5.2,6.6c0.5,0.7,0.8,1.4,1,2.1c0,0,0,0,0,0C313.2,414,311.5,416.2,310.3,416.7z"/>
	<path class="st74" d="M247.6,406.2c-0.9,1.2-5.5,4.5-12.1,7.2c-4.5,1.8-9.3,1.7-9.4-1.1c4.9,5.2,20.6-7.8,20.8-8.5
		C247.4,405.1,247.6,406.2,247.6,406.2z"/>
	<path class="st74" d="M310.3,416.7c-1.3,0.5-3.4,0.1-5.1-2.4c1.2,0.9,2.5,1.3,4.3,0.5c1.7-0.7,2.9-1.9,2.8-3.7
		C313.2,414,311.5,416.2,310.3,416.7z"/>
	<g>
		<path class="st75" d="M185.6,405.6c-0.5,0.8-1.5,2-2,1.9c-0.5-0.1,0.5-1.6,1.1-2.4C185.1,405.2,185.3,405.4,185.6,405.6z"/>
		<path class="st75" d="M188.2,407.1c-0.5,0.8-1.7,2.5-2.3,2.1c-0.6-0.4,0.6-2,1.2-2.8C187.5,406.7,187.9,406.9,188.2,407.1z"/>
		<path class="st75" d="M190.5,408.5c-0.6,0.8-1.6,2.1-2.1,1.9c-0.5-0.3,0.5-1.7,1.1-2.5C189.9,408.1,190.2,408.3,190.5,408.5z"/>
	</g>
	<g>
		<path class="st75" d="M212.2,403.7c-0.5,0.7-1.2,1.4-1.6,1.3c-0.4-0.1,0.1-1.1,0.7-1.8C211.6,403.3,211.9,403.5,212.2,403.7z"/>
		<path class="st75" d="M214.9,405.1c-0.6,0.9-1.5,1.9-2,1.6c-0.5-0.3,0.2-1.4,0.8-2.3C214.1,404.7,214.5,404.9,214.9,405.1z"/>
		<path class="st75" d="M217.3,406.3c-0.6,0.8-1.4,1.8-1.9,1.6c-0.4-0.2,0.2-1.3,0.8-2.1C216.6,406,217,406.2,217.3,406.3z"/>
	</g>
	<path class="st66" d="M176.8,402.7c0,0,0.1,0.3,0.2,0.9c0,0,4.5,0.3,4.9-0.3c0,0-0.2-1-0.6-0.9
		C181.3,402.5,177.1,402.8,176.8,402.7z"/>
	<path class="st66" d="M205.8,402.6c0,0,0.2,0.4,0.3,1.1c0,0,3.2-0.5,4.2-1.3c0,0,0.2-0.6-0.4-1
		C209.8,401.5,207.1,402.7,205.8,402.6z"/>
	<path class="st76" d="M305.9,78c0,0-8.9-14.2-5.6-14.7c3.4-0.5,4.4,5.1,4.4,5.1s0.6-7.1,4.2-5.1C312.5,65.3,305.9,78,305.9,78z"/>
	<path class="st77" d="M137,110.4c0,0-4.4-11.5-2-10.8c2.4,0.6,3.2,4.8,3.2,4.8s1.5-3.9,3.1-2.3C142.8,103.6,137,110.4,137,110.4z"
		/>
	<path class="st78" d="M98.3,171.5c0,0-7.6-11.9-4.4-13.2c3.2-1.3,4.4,5.3,4.4,5.3s2-9.5,4.9-5.3C106.1,162.5,98.3,171.5,98.3,171.5
		z"/>
	<path class="st78" d="M340.2,218.1c0,0-9.3-14.4-5.4-16c3.9-1.6,5.4,6.5,5.4,6.5s2.4-11.5,6-6.5
		C349.8,207.1,340.2,218.1,340.2,218.1z"/>
	<path class="st76" d="M182.6,55.7c0,0-5.4-5.9-3.4-6.8c2-0.9,3.4,2.4,3.4,2.4s0.5-4,3.2-2.4C188.5,50.6,182.6,55.7,182.6,55.7z"/>
	<path class="st76" d="M295,213.8c0,0-5.7-8.9-3.2-9.9c2.5-1,3.2,3.2,3.2,3.2s2.1-5.7,4.5-3.3C301.9,206.1,295,213.8,295,213.8z"/>
	<path class="st76" d="M214.4,311.6c0,0-5.7-8.9-3.2-9.9c2.5-1,3.2,3.2,3.2,3.2s2.1-5.7,4.5-3.3
		C221.3,303.8,214.4,311.6,214.4,311.6z"/>
	<path class="st76" d="M154.7,228.5c0,0-7.3-10.3-5.3-11.1c2-0.8,3.6,5.5,3.6,5.5s1.3-7,3.3-3.9
		C158.3,222.2,154.7,228.5,154.7,228.5z"/>
	<path class="st76" d="M134.4,167.5c0,0-7.9-12.6-5-14.5c3-1.8,4.9,3.3,4.9,3.3s3.1-6.6,5.2-3.3
		C141.6,156.4,134.4,167.5,134.4,167.5z"/>
	<path class="st76" d="M316,143.1c0,0-7.9-12.6-5-14.5c3-1.8,4.9,3.3,4.9,3.3s3.1-6.6,5.2-3.3C323.1,131.9,316,143.1,316,143.1z"/>
	<path class="st78" d="M209.1,40.3c0,0,5.9-6.1,3.1-8.6c-2.8-2.6-2.4,1.2-2.4,1.2s-1.2-4-3.6-2.1C203.8,32.7,209.1,40.3,209.1,40.3z
		"/>
	<path class="st78" d="M364.5,77.2c0,0,6.2-8.4,4.6-10.6s-3.2,3.1-3.2,3.1s-2.6-5.3-4.6-3.1C359.3,68.8,364.5,77.2,364.5,77.2z"/>
	<path class="st78" d="M140.9,375.9c0,0,6.2-8.4,4.6-10.6c-1.6-2.2-3.2,3.1-3.2,3.1s-2.6-5.3-4.6-3.1
		C135.8,367.5,140.9,375.9,140.9,375.9z"/>
	<path class="st79" d="M259,35.6C259,35.6,259,35.5,259,35.6C259,35.6,259,35.6,259,35.6z"/>
	<path class="st80" d="M213,173.6c0.2,0.7,0.3,1.5,0.4,2.1c-0.3-1-0.7-2.2-1.5-3.4c-1.7-2.6-5.7-5.3-5.9-5.4
		C206.1,167,211.9,169.7,213,173.6z"/>
	<path class="st80" d="M229.2,173.5c-6.6-0.1-10.2,2-11.7,3.2c0.5-0.6,1-1.1,1.6-1.6C222.2,172.3,229.2,173.5,229.2,173.5
		S229.1,173.7,229.2,173.5z"/>
</g>
</svg>
