<?xml version="1.0" encoding="utf-8"?>
<svg viewBox="353.623 8.3586 125.5812 127.4428" xmlns="http://www.w3.org/2000/svg">
  <g transform="matrix(1, 0, 0, 1, 8.7697930450707, 13.130015032440642)">
    <g transform="matrix(1, 0, 0, 1, -1.060222, -37.107518)">
      <path style="fill: rgb(246, 208, 125);" d="M466.429,87.758l1.587-2.302l-3.101-2.48c-4.311-3.445-6.196-9.122-4.806-14.461l0.704-2.706&#10;&#9;&#9;&#9;&#9;l-3.762-1.269c-5.229-1.764-8.943-6.453-9.462-11.946l-0.264-2.783l-3.97,0.094c-5.502,0.133-10.61-3.004-12.977-7.988&#10;&#9;&#9;&#9;&#9;l-1.199-2.526l-3.699,1.446c-5.138,2.01-10.998,0.806-14.926-3.069l-1.991-1.962l-2.981,2.623&#10;&#9;&#9;&#9;&#9;c-4.142,3.646-10.059,4.518-15.076,2.222l-2.542-1.164l-1.904,3.486c-2.644,4.843-7.903,7.689-13.407,7.243l-2.787-0.224&#10;&#9;&#9;&#9;&#9;l-0.597,3.926c-0.828,5.456-4.801,9.927-10.121,11.393l-2.695,0.743l0.782,3.893c1.087,5.41-1.117,10.971-5.614,14.167&#10;&#9;&#9;&#9;&#9;l-2.279,1.62l2.067,3.391c2.871,4.712,2.702,10.691-0.431,15.233l-1.587,2.302l3.102,2.479c4.31,3.446,6.196,9.122,4.806,14.462&#10;&#9;&#9;&#9;&#9;l-0.704,2.706l3.762,1.269c5.229,1.763,8.943,6.452,9.462,11.946l0.263,2.783l3.971-0.095c5.514-0.123,10.61,3.005,12.977,7.99&#10;&#9;&#9;&#9;&#9;l1.199,2.525l3.699-1.446c1.651-0.646,3.378-0.96,5.089-0.96c3.616,0,7.17,1.399,9.837,4.029l1.991,1.962l2.981-2.623&#10;&#9;&#9;&#9;&#9;c4.141-3.647,10.059-4.519,15.076-2.222l2.542,1.163l1.904-3.485c2.644-4.843,7.908-7.685,13.407-7.244l2.787,0.225l0.596-3.927&#10;&#9;&#9;&#9;&#9;c0.829-5.455,4.801-9.927,10.122-11.392l2.695-0.743l-0.782-3.894c-1.087-5.41,1.117-10.971,5.614-14.167l2.278-1.62l-2.066-3.39&#10;&#9;&#9;&#9;&#9;C463.128,98.279,463.297,92.3,466.429,87.758z M408.704,144.066c-26.472,0-48.008-21.536-48.008-48.008&#10;&#9;&#9;&#9;&#9;c0-26.471,21.536-48.007,48.008-48.007s48.008,21.536,48.008,48.007C456.712,122.53,435.176,144.066,408.704,144.066z"/>
      <circle style="fill: rgb(254, 237, 162);" cx="408.704" cy="96.058" r="45.076"/>
      <path style="fill:#FFFFFF;" d="M408.704,48.051c-26.472,0-48.008,21.536-48.008,48.007c0,26.472,21.536,48.008,48.008,48.008&#10;&#9;&#9;&#9;&#9;s48.008-21.536,48.008-48.008C456.712,69.587,435.176,48.051,408.704,48.051z M408.704,141.134&#10;&#9;&#9;&#9;&#9;c-24.854,0-45.076-20.221-45.076-45.076c0-24.855,20.222-45.076,45.076-45.076s45.076,20.221,45.076,45.076&#10;&#9;&#9;&#9;&#9;C453.78,120.913,433.558,141.134,408.704,141.134z"/>
      <path style="fill:#FFFFFF;" d="M468.502,101.465c-2.27-3.725-2.136-8.452,0.341-12.043l2.363-3.425&#10;&#9;&#9;&#9;&#9;c0.436-0.634,0.31-1.497-0.292-1.978l-4.169-3.333c-3.407-2.724-4.898-7.211-3.799-11.433l1.049-4.026&#10;&#9;&#9;&#9;&#9;c0.194-0.746-0.221-1.513-0.95-1.759l-5.058-1.706c-4.133-1.394-7.069-5.101-7.479-9.444l-0.393-4.143&#10;&#9;&#9;&#9;&#9;c-0.072-0.766-0.709-1.343-1.494-1.327l-5.335,0.127c-4.363,0.088-8.388-2.376-10.26-6.316l-1.785-3.76&#10;&#9;&#9;&#9;&#9;c-0.33-0.695-1.142-1.017-1.858-0.736l-4.97,1.944c-4.063,1.588-8.695,0.636-11.801-2.426l-2.964-2.922&#10;&#9;&#9;&#9;&#9;c-0.548-0.541-1.42-0.566-1.997-0.057l-4.007,3.527c-3.273,2.883-7.952,3.572-11.918,1.756l-3.784-1.732&#10;&#9;&#9;&#9;&#9;c-0.7-0.321-1.528-0.045-1.896,0.63l-2.559,4.684c-2.091,3.829-6.251,6.077-10.599,5.727l-4.149-0.334&#10;&#9;&#9;&#9;&#9;c-0.765-0.064-1.451,0.48-1.566,1.242l-0.802,5.276c-0.655,4.313-3.796,7.848-8.001,9.007l-4.013,1.105&#10;&#9;&#9;&#9;&#9;c-0.741,0.204-1.199,0.948-1.048,1.702l1.052,5.232c0.86,4.277-0.883,8.674-4.438,11.201l-3.393,2.411&#10;&#9;&#9;&#9;&#9;c-0.627,0.446-0.803,1.3-0.402,1.957l2.777,4.558c2.271,3.725,2.137,8.452-0.34,12.043l-2.363,3.426&#10;&#9;&#9;&#9;&#9;c-0.436,0.633-0.31,1.496,0.292,1.977l4.168,3.332c3.408,2.724,4.898,7.212,3.8,11.433l-1.049,4.028&#10;&#9;&#9;&#9;&#9;c-0.194,0.744,0.221,1.512,0.95,1.758l5.057,1.706c4.134,1.394,7.07,5.101,7.48,9.444l0.392,4.143&#10;&#9;&#9;&#9;&#9;c0.073,0.766,0.723,1.345,1.495,1.327l5.335-0.127c4.355-0.103,8.388,2.376,10.26,6.317l1.785,3.759&#10;&#9;&#9;&#9;&#9;c0.33,0.694,1.141,1.016,1.858,0.736l4.97-1.944c4.063-1.59,8.694-0.637,11.801,2.426l2.963,2.922&#10;&#9;&#9;&#9;&#9;c0.285,0.281,0.657,0.422,1.03,0.422c0.345,0,0.69-0.121,0.968-0.365l4.006-3.527c3.274-2.882,7.953-3.572,11.919-1.756&#10;&#9;&#9;&#9;&#9;l3.784,1.732c0.699,0.32,1.527,0.045,1.896-0.631l2.559-4.684c2.091-3.828,6.25-6.077,10.599-5.726l4.148,0.333&#10;&#9;&#9;&#9;&#9;c0.763,0.064,1.451-0.48,1.566-1.241l0.802-5.276c0.655-4.313,3.797-7.848,8.002-9.007l4.013-1.106&#10;&#9;&#9;&#9;&#9;c0.741-0.204,1.199-0.947,1.048-1.702l-1.052-5.232c-0.86-4.277,0.883-8.673,4.438-11.2l3.392-2.411&#10;&#9;&#9;&#9;&#9;c0.628-0.446,0.804-1.301,0.403-1.958L468.502,101.465z M465.787,108.001c-4.497,3.196-6.701,8.757-5.614,14.167l0.782,3.894&#10;&#9;&#9;&#9;&#9;l-2.695,0.743c-5.321,1.465-9.293,5.937-10.122,11.392l-0.596,3.927l-2.787-0.225c-5.499-0.441-10.763,2.401-13.407,7.244&#10;&#9;&#9;&#9;&#9;l-1.904,3.485l-2.542-1.163c-5.017-2.297-10.935-1.425-15.076,2.222l-2.981,2.623l-1.991-1.962&#10;&#9;&#9;&#9;&#9;c-2.667-2.63-6.221-4.029-9.837-4.029c-1.711,0-3.438,0.314-5.089,0.96l-3.699,1.446l-1.199-2.525&#10;&#9;&#9;&#9;&#9;c-2.367-4.985-7.463-8.113-12.977-7.99l-3.971,0.095l-0.263-2.783c-0.519-5.494-4.233-10.183-9.462-11.946l-3.762-1.269&#10;&#9;&#9;&#9;&#9;l0.704-2.706c1.39-5.34-0.496-11.016-4.806-14.462l-3.102-2.479l1.587-2.302c3.133-4.542,3.302-10.521,0.431-15.233l-2.067-3.391&#10;&#9;&#9;&#9;&#9;l2.279-1.62c4.497-3.196,6.701-8.757,5.614-14.167l-0.782-3.893l2.695-0.743c5.32-1.466,9.293-5.937,10.121-11.393l0.597-3.926&#10;&#9;&#9;&#9;&#9;l2.787,0.224c5.504,0.446,10.763-2.4,13.407-7.243l1.904-3.486l2.542,1.164c5.017,2.296,10.934,1.424,15.076-2.222l2.981-2.623&#10;&#9;&#9;&#9;&#9;l1.991,1.962c3.928,3.875,9.788,5.079,14.926,3.069l3.699-1.446l1.199,2.526c2.367,4.984,7.475,8.121,12.977,7.988l3.97-0.094&#10;&#9;&#9;&#9;&#9;l0.264,2.783c0.519,5.493,4.233,10.182,9.462,11.946l3.762,1.269l-0.704,2.706c-1.39,5.339,0.495,11.016,4.806,14.461l3.101,2.48&#10;&#9;&#9;&#9;&#9;l-1.587,2.302c-3.132,4.542-3.301,10.521-0.43,15.233l2.066,3.39L465.787,108.001z"/>
    </g>
  </g>
</svg>