<svg preserveAspectRatio="none" xmlns="http://www.w3.org/2000/svg" viewBox="0 0 264.58 23.81">
  <path fill="#cce7ff" d="M0 8.3c30 0 30-6.1 60 0s30-6.1 60 0 30-6.1 60 0 30-6.1 60 0v-8.3H0v8.3z"/>
  <path fill="#cce7ff" opacity="0.3" transform="matrix(0 -.2646 .2646 0 0 26.62)" d="M88.7 500H70.5c-10.6 0-19.3-10.7-19.3-23.9 0-1 0-1.9.2-2.8a25.2 25.2 0 0 1-8.7-19.7 27.4 27.4 0 0 1 3.1-12.7 26.7 26.7 0 0 1-4.8-15.5c0-12.3 7.8-22.4 17.6-23.5a27 27 0 0 1 4-13.7c-8-2.9-14-12-14-22.7a27.8 27.8 0 0 1 1.8-9.9 38 38 0 0 1-8.3-24.2 40.8 40.8 0 0 1 1.8-12c-12.3-3.6-21.5-17.1-21.5-33.2 0-15.5 8.5-28.6 20-32.7a41.3 41.3 0 0 1-.6-7.2c0-13.5 6.4-25.1 15.6-30.7a25.8 25.8 0 0 1-7.3-18.4c0-13 8.7-23.6 19.3-23.6h.6a14.2 14.2 0 0 1-5-8.8c-4.3-2-7.3-7-7.3-12.9a16.7 16.7 0 0 1 .5-4 14.8 14.8 0 0 1-5.1-11.6c0-6 3-11 7.3-13a17.2 17.2 0 0 1-.4-3.4 15.3 15.3 0 0 1 4-10.4 12.7 12.7 0 0 1-3.5-9c0-5.5 3.1-10 7.3-11.3-3.8-2.2-6.4-6.9-6.4-12.4a16.7 16.7 0 0 1 .5-4c-4.9-1.6-8.4-7-8.4-13.4a16.3 16.3 0 0 1 .9-5.3 15 15 0 0 1-4.2-10.7 14.9 14.9 0 0 1 4.6-11 16.6 16.6 0 0 1-.5-4c0-5.9 3.1-11 7.4-12.9v-1c0-6.9 4-12.5 9.5-13.6V0h17.5z"/>
  <path fill="#cce7ff" d="M132.3 7.78V3.15H0v4.63V0h264.58v3.15H132.3Z"/>
</svg>
