<svg width="200" height="244" viewBox="0 0 200 244" fill="none" xmlns="http://www.w3.org/2000/svg">
<g id="aves">
<g id="bebe">
<path id="Vector" d="M151.396 51.6953C150.135 51.8267 149.11 52.8254 147.822 53.0357C146.455 53.2591 145.338 52.9568 144.037 52.6677C143.262 52.4969 142.934 52.5889 142.29 52.1421C141.882 51.853 141.62 51.0777 141.212 50.8806C140.45 50.5258 139.333 50.9857 138.584 51.5508C134.432 54.7308 135.391 61.5114 136.679 65.8872C137.835 69.7769 140.279 72.1553 144.445 72.0502L151.396 51.6953Z" fill="#E275A4"/>
<path id="Vector_2" d="M138.584 51.5376C138.624 51.4982 138.676 51.4719 138.729 51.4325C138.518 52.0501 138.387 52.7597 138.334 53.6007C138.177 56.4259 139.162 59.5534 140.595 61.9713C141.79 63.995 143.709 66.5048 145.877 67.8452L144.445 72.0239C140.266 72.129 137.835 69.7506 136.679 65.8609C135.378 61.4982 134.432 54.7177 138.584 51.5376Z" fill="#F3A3C5"/>
<path id="Vector_3" d="M138.532 69.5009C142.776 78.8176 176.666 85.3617 191.83 69.1593C192.237 68.7388 192.632 68.292 193.013 67.8189C172.329 49.0935 158.427 16.9646 156.363 18.1604C154.642 19.1591 152.474 42.2735 144.392 59.6454V59.6586C142.697 63.2722 140.765 66.6363 138.532 69.5009Z" fill="#F3A3C5"/>
<path id="Vector_4" d="M191.725 66.7677C190.227 67.3459 188.453 68.1606 186.732 67.7926C185.037 67.4247 184.025 66.0186 182.487 65.2565C179.031 63.5613 175.602 66.2946 172.513 64.3761C166.035 60.3287 164.406 52.7597 162.973 46.2551C162.027 41.9975 158.506 25.1907 158.545 21.6558C160.805 23.6401 164.235 34.468 170.766 41.5376C176.127 47.3458 181.607 52.9831 186.732 59.0147C187.454 59.8557 188.729 61.1697 188.742 61.8268L191.725 66.7677Z" fill="#EE73A8"/>
<g id="Group">
<path id="Vector_5" d="M187.296 55.2959C189.202 56.8333 191.37 58.4496 195.01 60.8281C197.113 62.2078 194.576 68.3708 191.528 67.5429C185.956 66.0449 184.366 61.0252 184.642 58.0423C184.865 55.5324 186.219 54.4154 187.296 55.2959Z" fill="#EBB28F"/>
<g id="Group_2">
<path id="Vector_6" d="M168.86 39.1592C165.01 43.7978 166.469 51.1828 173.814 57.2538C181.147 63.3248 186.837 64.1527 191.764 59.8557C193.867 58.0291 196.429 54.2315 197.231 49.8688C198.046 45.3878 195.72 38.8701 191.764 35.598C187.205 31.8267 181.712 30.0133 176.206 32.7465C172.737 34.4679 170.319 37.3983 168.86 39.1592Z" fill="#FAC7A6"/>
<path id="Vector_7" d="M176.574 51.5508C176.574 51.5508 175.864 52.8648 177.27 54.0475C178.203 54.8228 179.32 54.4023 179.32 54.4023" stroke="#1A0B07" stroke-miterlimit="10" stroke-linecap="round"/>
<path id="Vector_8" d="M170.529 44.4942C169.925 45.217 170.332 46.5573 171.436 47.464C172.54 48.3839 173.919 48.5284 174.524 47.8057C175.128 47.0829 174.721 45.7557 173.604 44.8359C172.513 43.916 171.133 43.7715 170.529 44.4942Z" fill="#F5AC9A"/>
<path id="Vector_9" d="M183.328 55.0856C182.724 55.8083 183.131 57.1487 184.235 58.0554C185.339 58.9621 186.718 59.1198 187.323 58.3971C187.927 57.6743 187.52 56.3471 186.416 55.4273C185.312 54.5074 183.919 54.3629 183.328 55.0856Z" fill="#F5AC9A"/>
<path id="Vector_10" d="M179.452 41.8004C179.268 41.0514 177.888 40.1972 176.902 40.8674" stroke="#1A0B07" stroke-miterlimit="10" stroke-linecap="round"/>
<path id="Vector_11" d="M188.479 49.2643C189.241 49.3037 190.345 50.4995 189.872 51.5902" stroke="#1A0B07" stroke-miterlimit="10" stroke-linecap="round"/>
<path id="Vector_12" d="M180.477 52.0895C182.645 51.9056 181.659 48.9752 180.122 49.6585" stroke="#ECAA8E" stroke-miterlimit="10" stroke-linecap="round"/>
<path id="Vector_13" d="M167.559 35.9265C166.639 37.0303 166.797 38.6729 167.901 39.5796C169.005 40.4995 170.647 40.3418 171.554 39.238C172.474 38.1342 172.316 36.4916 171.212 35.5849C170.109 34.6782 168.479 34.8227 167.559 35.9265Z" fill="#FAC7A6"/>
<g id="Group_3">
<g id="Group_4">
<path id="Vector_14" d="M168.86 39.1591C168.86 39.1591 168.926 39.1197 169.018 39.0277C169.11 38.9489 169.267 38.8306 169.412 38.6598C169.57 38.4889 169.727 38.2918 169.872 38.0422C170.03 37.8056 170.135 37.5165 170.227 37.2012C170.253 37.0435 170.279 36.8858 170.279 36.715C170.279 36.5441 170.253 36.3864 170.187 36.2288C170.135 36.0711 170.03 35.9265 169.898 35.8345C169.78 35.7294 169.635 35.69 169.517 35.6637C169.399 35.6374 169.281 35.6374 169.189 35.6506C169.097 35.6637 169.018 35.6769 168.952 35.69C168.821 35.7294 168.755 35.7557 168.755 35.7557C168.755 35.7557 168.834 35.7688 168.952 35.7951C169.07 35.8083 169.254 35.8608 169.425 35.9397C169.465 35.9528 169.504 35.9922 169.543 36.0185C169.583 36.0448 169.622 36.0711 169.635 36.1105C169.662 36.1499 169.688 36.1762 169.701 36.2288C169.714 36.2682 169.741 36.3076 169.754 36.3733C169.78 36.4653 169.78 36.5836 169.78 36.7018C169.78 36.8201 169.754 36.9515 169.714 37.0698C169.583 37.5822 169.346 38.0947 169.162 38.4758C169.07 38.6729 168.992 38.8437 168.939 38.9489C168.886 39.0803 168.86 39.1591 168.86 39.1591Z" fill="#ECAA8E"/>
</g>
</g>
<path id="Vector_15" d="M196.18 59.6191C195.26 60.7229 193.631 60.8806 192.527 59.9608C191.423 59.0409 191.265 57.4115 192.185 56.3077C193.105 55.2039 194.734 55.0462 195.838 55.966C196.942 56.8859 197.087 58.5153 196.18 59.6191Z" fill="#FAC7A6"/>
<g id="Group_5">
<g id="Group_6">
<path id="Vector_16" d="M192.763 58.9489C192.763 58.9489 192.829 58.9095 192.934 58.8306C193.039 58.7518 193.197 58.6467 193.367 58.5153C193.709 58.2656 194.169 57.9239 194.642 57.7006C194.76 57.648 194.879 57.5954 194.997 57.5691C195.115 57.5429 195.233 57.5166 195.325 57.5297C195.378 57.5297 195.43 57.5429 195.47 57.556C195.522 57.556 195.562 57.5823 195.601 57.6086C195.641 57.6217 195.68 57.648 195.72 57.6874C195.759 57.7137 195.798 57.74 195.825 57.7794C195.943 57.9239 196.022 58.0948 196.061 58.213C196.101 58.3313 196.127 58.4101 196.127 58.4101C196.127 58.4101 196.14 58.3313 196.153 58.1999C196.166 58.1342 196.166 58.0553 196.153 57.9502C196.153 57.8582 196.127 57.74 196.088 57.6217C196.035 57.5034 195.969 57.372 195.838 57.28C195.72 57.1749 195.562 57.0961 195.391 57.0698C195.22 57.0304 195.049 57.0435 194.892 57.0698C194.721 57.0961 194.576 57.1618 194.432 57.2143C194.143 57.3589 193.88 57.5297 193.683 57.7268C193.459 57.9108 193.289 58.1079 193.157 58.2919C193.013 58.4758 192.934 58.6335 192.868 58.7518C192.789 58.8701 192.763 58.9489 192.763 58.9489Z" fill="#ECAA8E"/>
</g>
</g>
<g id="Group_7">
<path id="Vector_17" d="M177.428 45.2564C176.259 45.3484 175.247 44.1 175.365 43.2065" stroke="#1A0B07" stroke-miterlimit="10" stroke-linecap="round"/>
<g id="Group_8">
<g id="Group_9">
<path id="Vector_18" d="M175.431 42.9831L173.985 42.786L175.299 43.4168C175.418 43.4693 175.549 43.4299 175.602 43.3116C175.654 43.1934 175.615 43.062 175.497 43.0094C175.47 42.9963 175.457 42.9831 175.431 42.9831Z" fill="#1A0B07"/>
</g>
</g>
<g id="Group_10">
<g id="Group_11">
<path id="Vector_19" d="M175.562 43.7059L174.117 43.4956L175.431 44.1395C175.549 44.1921 175.68 44.1526 175.733 44.0344C175.786 43.9161 175.746 43.7847 175.628 43.7321C175.602 43.7059 175.588 43.7059 175.562 43.7059Z" fill="#1A0B07"/>
</g>
</g>
</g>
<path id="Vector_20" d="M196.929 50.0265C197.664 45.69 195.299 39.33 191.396 36.0842C186.902 32.3391 181.502 30.4863 176.166 33.0356C173.604 34.2577 171.646 36.1762 170.24 37.7662C170.345 37.6085 170.476 37.4509 170.595 37.3063C171.988 35.6243 174.314 32.8253 177.664 31.2353C183.013 28.6729 188.4 30.5389 192.908 34.2708C196.81 37.5166 199.176 43.8766 198.44 48.213C197.796 51.9844 195.772 55.2827 193.906 57.1881C195.247 55.2958 196.469 52.786 196.929 50.0265Z" fill="#F08CB6"/>
<path id="Vector_21" d="M192.119 36.7281C192.159 37.8319 191.804 38.489 191.081 39.3037C190.516 39.9344 189.412 40.8937 189.544 41.8661C189.675 42.786 191.423 43.6138 191.843 42.3523C192.395 40.6966 190.109 41.485 190.766 41.853" stroke="#1A0B07" stroke-miterlimit="10" stroke-linecap="round"/>
<path id="Vector_22" d="M191.042 35.966C188.834 35.3746 188.821 39.9607 186.876 40.4469C185.785 40.7097 184.222 39.4614 185.22 38.3575C186.35 37.1092 187.441 39.5796 185.969 39.3562" stroke="#1A0B07" stroke-miterlimit="10" stroke-linecap="round"/>
<path id="Vector_23" d="M191.685 35.8477C192.737 37.6742 186.639 40.3286 188.755 41.5639" stroke="#1A0B07" stroke-miterlimit="10" stroke-linecap="round"/>
<g id="Group_12">
<g id="Group_13">
<path id="Vector_24" d="M190.608 35.69C190.608 35.69 188.584 35.2432 186.521 35.0987C184.524 34.9541 183.328 33.6532 183.42 33.1407C183.512 32.6282 184.143 31.6033 184.629 31.1565C185.115 30.7097 186.048 30.2366 186.626 29.5533C187.191 28.8831 188.216 26.9777 190.148 28.5809C190.963 29.2642 192.185 33.6795 192.185 33.6795C192.185 33.6795 191.948 34.9935 191.567 35.2564C191.173 35.5323 190.608 35.69 190.608 35.69Z" fill="#F3A3C5"/>
<path id="Vector_25" d="M192.146 33.8766C191.41 32.4837 191.173 30.8411 190.411 29.4482C190.135 28.9357 189.504 28.2786 188.873 28.3312C188.085 28.3969 188.624 29.527 188.834 29.9607C189.268 30.8542 189.82 31.7084 190.516 32.4048C190.897 32.7859 192.316 33.824 191.922 34.4416L192.146 33.8766Z" fill="#EE73A8"/>
<path id="Vector_26" d="M189.202 31.577C189.623 32.2209 190.24 32.7071 190.805 33.2327C191.239 33.64 191.804 34.2182 191.87 34.8227C191.87 34.8884 191.778 34.9015 191.751 34.849C191.62 34.5336 191.502 34.2314 191.291 33.9423C191.055 33.6138 190.74 33.3378 190.45 33.0619C189.977 32.6151 189.478 32.1814 189.202 31.577Z" fill="#EE73A8"/>
<path id="Vector_27" d="M189.333 34.941C189.938 35.0461 190.792 35.0461 191.252 35.4929C191.278 35.5192 191.265 35.5717 191.225 35.5586C190.91 35.4666 190.608 35.3089 190.292 35.2169C189.977 35.1249 189.649 35.0461 189.32 34.9673C189.294 34.9673 189.307 34.9278 189.333 34.941Z" fill="#EE73A8"/>
<path id="Vector_28" d="M190.332 34.5336C190.476 34.5862 190.608 34.665 190.752 34.757C190.91 34.8621 191.12 34.9672 191.252 35.1118C191.291 35.1512 191.252 35.2038 191.212 35.1775C191.068 35.1249 190.95 35.0067 190.818 34.9147C190.647 34.7964 190.476 34.6913 190.319 34.573C190.279 34.5599 190.306 34.5204 190.332 34.5336Z" fill="#EE73A8"/>
<path id="Vector_29" d="M190.871 34.0211C191.173 34.3102 191.502 34.665 191.62 35.0592C191.633 35.0855 191.594 35.1118 191.567 35.0855C191.305 34.757 191.121 34.3628 190.845 34.0342C190.832 34.0342 190.858 34.008 190.871 34.0211Z" fill="#EE73A8"/>
<path id="Vector_30" d="M188.466 28.4363C188.046 29.5927 188.913 30.5914 189.544 31.5244C189.557 31.5507 189.53 31.5638 189.517 31.5507C189.084 31.0645 188.689 30.5651 188.413 29.9869C188.164 29.4876 187.954 28.8043 188.321 28.3443C188.361 28.2392 188.492 28.3312 188.466 28.4363Z" fill="white"/>
<path id="Vector_31" d="M184.366 31.393C185.102 30.6834 186.009 30.1709 186.758 29.4744C186.968 29.0145 187.283 28.6203 187.73 28.3838C187.77 28.3706 187.809 28.4101 187.783 28.4363C187.362 28.9094 186.994 29.3168 186.784 29.9212C186.561 30.5388 186.574 31.2747 186.784 31.9186C186.784 31.9317 186.771 31.9317 186.758 31.9317C186.469 31.3141 186.429 30.5126 186.64 29.8161C186.534 29.9081 186.429 30.0001 186.324 30.0789C185.877 30.4337 185.417 30.7622 184.971 31.1039C184.182 31.7215 183.078 32.7465 183.735 33.8634C183.749 33.8766 183.722 33.8897 183.709 33.8766C183.065 32.9173 183.67 32.0763 184.366 31.393Z" fill="#EE73A8"/>
<path id="Vector_32" d="M187.481 29.0408C187.52 29.0014 187.586 29.0408 187.559 29.0934C187.454 29.3299 187.323 29.5533 187.218 29.803C187.099 30.0921 187.007 30.4206 186.942 30.7228C186.942 30.7491 186.902 30.736 186.902 30.7097C186.968 30.1446 187.06 29.4613 187.481 29.0408Z" fill="#EE73A8"/>
<path id="Vector_33" d="M184.498 31.8135C184.957 31.4061 185.496 31.0513 185.982 30.6703C186.022 30.644 186.074 30.6965 186.048 30.736C185.562 31.6952 184.024 31.8529 184.064 33.1407C184.064 33.167 184.024 33.167 184.024 33.1407C183.919 32.5888 184.103 32.1551 184.498 31.8135Z" fill="white"/>
</g>
<g id="Group_14">
<path id="Vector_34" d="M192.027 37.0435C192.027 37.0435 192.842 38.962 193.354 40.9594C193.867 42.9042 195.352 43.8372 195.838 43.6532C196.324 43.4693 197.218 42.6546 197.572 42.1026C197.927 41.5507 198.23 40.5389 198.781 39.8556C199.346 39.1723 201.028 37.8188 199.097 36.2156C198.282 35.5323 193.709 35.1512 193.709 35.1512C193.709 35.1512 192.461 35.6243 192.264 36.0448C192.093 36.4653 192.027 37.0435 192.027 37.0435Z" fill="#F3A3C5"/>
<path id="Vector_35" d="M193.525 35.2038C195.037 35.6769 196.692 35.598 198.19 36.1105C198.742 36.2945 199.504 36.7807 199.57 37.4246C199.649 38.1999 198.44 37.8845 197.98 37.7531C197.021 37.4903 196.075 37.0961 195.273 36.5573C194.826 36.2551 193.552 35.0461 193.013 35.5455L193.525 35.2038Z" fill="#EE73A8"/>
<path id="Vector_36" d="M196.324 37.6743C195.601 37.372 195.023 36.8595 194.406 36.3996C193.933 36.0448 193.262 35.598 192.645 35.6506C192.579 35.6506 192.579 35.7557 192.645 35.7689C192.986 35.8477 193.302 35.9003 193.617 36.058C193.972 36.2419 194.3 36.4916 194.629 36.7281C195.155 37.1092 195.68 37.5166 196.311 37.7005C196.324 37.7005 196.337 37.6874 196.324 37.6743Z" fill="#EE73A8"/>
<path id="Vector_37" d="M193.013 38.1605C192.802 37.5954 192.645 36.7544 192.106 36.3733C192.08 36.3602 192.027 36.3733 192.053 36.4128C192.211 36.7019 192.408 36.9647 192.553 37.2669C192.697 37.5691 192.829 37.8714 192.973 38.1736C192.986 38.1999 193.013 38.1867 193.013 38.1605Z" fill="#EE73A8"/>
<path id="Vector_38" d="M193.683 37.4772C193.604 37.3458 193.499 37.2275 193.394 37.1092C193.262 36.9647 193.118 36.7939 192.947 36.6887C192.908 36.6625 192.855 36.7019 192.881 36.7413C192.96 36.8727 193.092 36.9778 193.21 37.083C193.354 37.2275 193.499 37.3721 193.643 37.5166C193.657 37.5429 193.696 37.5035 193.683 37.4772Z" fill="#EE73A8"/>
<path id="Vector_39" d="M194.077 36.8596C193.749 36.6099 193.328 36.3471 192.908 36.3076C192.881 36.3076 192.868 36.3471 192.894 36.3602C193.275 36.5573 193.683 36.6624 194.064 36.8858C194.077 36.899 194.09 36.8727 194.077 36.8596Z" fill="#EE73A8"/>
<path id="Vector_40" d="M199.557 37.832C198.492 38.4496 197.362 37.7925 196.324 37.3458C196.298 37.3326 196.285 37.372 196.311 37.3852C196.863 37.7268 197.428 38.0159 198.059 38.1868C198.584 38.3313 199.294 38.4233 199.701 37.9765C199.767 37.8977 199.649 37.7794 199.557 37.832Z" fill="white"/>
<path id="Vector_41" d="M197.388 42.3918C197.954 41.5376 198.295 40.5521 198.847 39.6979C199.268 39.4088 199.596 39.0146 199.754 38.5415C199.767 38.5021 199.714 38.4758 199.688 38.5021C199.294 38.9883 198.965 39.4351 198.413 39.7636C197.835 40.0921 197.113 40.2104 196.455 40.1316C196.442 40.1316 196.442 40.1447 196.455 40.1578C197.113 40.3287 197.901 40.2236 198.558 39.895C198.492 40.0133 198.427 40.1447 198.361 40.263C198.098 40.7623 197.848 41.2748 197.599 41.7741C197.139 42.6677 196.324 43.9424 195.115 43.4956C195.102 43.4956 195.089 43.5087 195.102 43.5218C196.14 43.9555 196.85 43.2065 197.388 42.3918Z" fill="#EE73A8"/>
<path id="Vector_42" d="M199.136 38.8963C199.162 38.8569 199.123 38.7912 199.07 38.8306C198.847 38.9752 198.663 39.1592 198.44 39.2906C198.177 39.4614 197.875 39.6059 197.586 39.7373C197.559 39.7505 197.572 39.7768 197.599 39.7768C198.151 39.6191 198.808 39.3957 199.136 38.8963Z" fill="#EE73A8"/>
<path id="Vector_43" d="M196.955 42.3392C197.27 41.8004 197.52 41.2223 197.809 40.6703C197.835 40.6309 197.769 40.5784 197.743 40.6178C196.889 41.2748 197.02 42.8123 195.733 43.0094C195.706 43.0094 195.706 43.0488 195.733 43.0488C196.298 43.0619 196.692 42.7991 196.955 42.3392Z" fill="white"/>
</g>
<path id="Vector_44" d="M193.722 35.1381C193.775 35.3483 193.643 36.1236 193.289 36.5047C192.934 36.8858 192.132 37.2143 191.896 36.9646C191.646 36.7281 190.634 35.9791 190.621 35.6768C190.608 35.3746 191.147 35.0987 191.462 34.6782C191.777 34.2577 191.791 33.4955 192.185 33.6663C192.579 33.8503 193.722 35.1381 193.722 35.1381Z" fill="#F5B0CD"/>
<path id="Vector_45" d="M193.079 35.0198C193.289 35.2301 193.236 35.5455 193.157 35.782C193.092 36.0317 192.868 36.439 192.566 36.3996C192.5 36.3865 192.474 36.3076 192.513 36.2551C192.632 36.0842 192.829 35.9922 192.934 35.8083C193.065 35.5717 193.092 35.3221 193.013 35.0593C192.987 35.033 193.052 34.9936 193.079 35.0198Z" fill="white"/>
</g>
<g id="Group_15">
<path id="Vector_46" d="M185.64 52.0501C185.772 53.2196 187.191 53.9818 188.045 53.6927" stroke="#1A0B07" stroke-miterlimit="10" stroke-linecap="round"/>
<g id="Group_16">
<g id="Group_17">
<path id="Vector_47" d="M187.835 53.811L188.702 54.9936L188.229 53.6007C188.19 53.4824 188.058 53.4167 187.94 53.4562C187.822 53.4956 187.756 53.627 187.795 53.7453C187.809 53.7715 187.822 53.7847 187.835 53.811Z" fill="#1A0B07"/>
</g>
</g>
<g id="Group_18">
<g id="Group_19">
<path id="Vector_48" d="M187.112 53.811L187.979 54.9936L187.506 53.6007C187.467 53.4824 187.336 53.4167 187.217 53.4562C187.099 53.4956 187.033 53.627 187.073 53.7453C187.086 53.7715 187.099 53.7978 187.112 53.811Z" fill="#1A0B07"/>
</g>
</g>
</g>
</g>
<path id="Vector_49" d="M185.352 69.7769L185.68 69.8688C185.562 69.8294 185.444 69.79 185.352 69.7769Z" fill="#CDE0EB"/>
<path id="Vector_50" d="M160.161 62.0239C160.069 62.1553 159.977 62.2998 159.898 62.4444C160.003 62.313 160.082 62.1684 160.161 62.0239Z" fill="#CDE0EB"/>
<g id="Group_20">
<path id="Vector_51" d="M191.58 58.8175C193.959 59.422 196.902 60.828 196.85 63.351C196.797 65.874 195.457 67.8845 192.999 67.832C190.542 67.7794 187.218 65.9397 187.27 63.4167C187.336 60.8937 188.335 58.0028 191.58 58.8175Z" fill="#FAC7A6"/>
<path id="Vector_52" d="M190.661 58.6335C192.29 58.5021 193.867 59.33 195.102 60.3287C195.168 60.3812 195.102 60.4995 195.036 60.4469C194.012 59.6979 192.908 59.1723 191.646 59.0015C189.925 58.7649 189.228 59.8162 188.414 61.104C188.361 61.1828 188.216 61.1565 188.216 61.0514C188.308 59.803 189.399 58.7386 190.661 58.6335Z" fill="#ECAA8E"/>
</g>
<g id="Group_21">
<path id="Vector_53" d="M167.047 46.715C168.742 48.5022 169.649 52.1552 172.947 54.9936C176.916 55.7426 178.558 59.5534 176.613 61.2486C174.905 62.7466 170.227 63.7453 167.691 60.9726C166.022 59.1592 162.829 53.3905 163.486 50.4601C164.038 48.0028 166.088 45.7032 167.047 46.715Z" fill="#FAC7A6"/>
<path id="Vector_54" d="M167.152 47.556C168.112 48.8043 168.913 50.1841 169.885 51.4325C170.818 52.6414 171.896 53.7189 172.855 54.9147C174.182 55.0199 175.457 55.5455 176.324 56.5704C177.363 57.8057 178.085 59.7111 176.968 61.1303C176.942 61.1697 176.876 61.1303 176.903 61.0908C177.652 59.3694 177.152 57.8319 175.878 56.5047C174.577 55.1381 172.908 55.3484 171.213 55.1118C171.134 55.0987 171.147 54.9936 171.213 54.9804C171.673 54.9016 172.159 54.8753 172.632 54.9016C171.515 53.9423 170.556 52.7465 169.649 51.6033C168.677 50.3812 167.638 49.0671 166.968 47.6611C166.929 47.5428 167.087 47.464 167.152 47.556Z" fill="#E3A588"/>
</g>
</g>
<path id="Vector_55" d="M157.27 19.803C157.914 19.2774 158.676 18.6992 158.242 17.7925C158.058 17.7662 157.848 17.7005 157.651 17.6873C157.809 17.4377 157.782 17.0434 158.045 16.7675C157.125 15.7294 154.865 16.9383 154.655 18.2392C154.931 18.2392 155.299 18.3969 155.575 18.3838C154.944 19.0277 154.563 21.0776 156.074 20.3549L157.27 19.803Z" fill="#F3A3C5"/>
<path id="Vector_56" d="M156.455 18.9226C156.469 18.8174 156.6 18.8306 156.626 18.9094C156.679 19.0803 156.718 19.2642 156.745 19.4351C156.758 19.3694 156.836 19.3299 156.876 19.3825C157.323 19.9344 157.467 20.644 157.625 21.3273C157.835 22.2866 158.006 23.2853 158.124 24.2577C158.137 24.3759 157.967 24.4416 157.927 24.3234C157.664 23.5612 157.559 22.7728 157.415 21.9843C157.27 21.2222 157.007 20.4863 156.823 19.7373C156.955 20.5389 156.955 21.3405 156.981 22.1552C157.034 23.5481 157.204 24.9147 157.296 26.3076C157.31 26.4259 157.139 26.4916 157.099 26.3733C156.219 24.2708 156.193 21.1565 156.455 18.9226Z" fill="#EE73A8"/>
<path id="Vector_57" d="M156.048 19.6453C156.101 19.5665 156.232 19.619 156.232 19.711C156.179 20.6177 155.864 21.485 155.772 22.3917C155.68 23.3378 155.667 24.2708 155.588 25.2169C155.575 25.3352 155.391 25.3483 155.378 25.2301C155.246 23.5612 155.049 21.0908 156.048 19.6453Z" fill="#EE73A8"/>
<path id="Vector_58" d="M158.965 30.5783C160.253 36.0448 160.319 41.7216 161.699 47.175C161.699 47.1881 161.686 47.1881 161.686 47.175C159.977 41.7742 159.741 36.15 158.887 30.5915C158.887 30.5389 158.952 30.5258 158.965 30.5783Z" fill="#EE73A8"/>
<path id="Vector_59" d="M162.75 52.2998C164.248 56.0974 165.194 59.7637 167.993 62.9043C168.019 62.9306 167.98 62.97 167.953 62.9437C165.115 60.0659 163.696 56.1763 162.658 52.3261C162.631 52.2735 162.723 52.2472 162.75 52.2998Z" fill="#EE73A8"/>
<path id="Vector_60" d="M161.843 53.5219C162.172 54.4811 162.54 55.4404 162.947 56.3734C163.013 56.5311 162.776 56.6494 162.697 56.4917C162.198 55.5324 161.856 54.6388 161.698 53.5744C161.685 53.4825 161.817 53.4299 161.843 53.5219Z" fill="#EE73A8"/>
<path id="Vector_61" d="M174.051 65.8347C175.996 65.6376 177.875 66.3866 179.78 65.5324C179.885 65.4799 179.964 65.6507 179.859 65.7033C178.23 66.5443 175.772 66.5049 174.038 66.0055C173.959 65.9792 173.972 65.8478 174.051 65.8347Z" fill="#EE73A8"/>
<path id="Vector_62" d="M181.212 66.0844C181.62 66.0449 181.948 66.1106 182.29 66.3472C182.553 66.5311 182.894 66.8465 182.829 67.1882C182.802 67.3196 182.697 67.3984 182.566 67.359C182.329 67.2802 182.264 67.1093 182.106 66.9254C181.883 66.6625 181.515 66.4917 181.186 66.3735C181.042 66.334 181.055 66.0975 181.212 66.0844Z" fill="#EE73A8"/>
<path id="Vector_63" d="M157.178 17.188C158.295 15.0461 158.466 12.983 156.626 11.0513C155.194 9.55328 152.934 8.83054 152.579 6.45209C150.91 10.7491 151.475 15.4929 155.68 17.5428L157.178 17.188Z" fill="#F3A3C5"/>
<path id="Vector_64" d="M152.697 11.5375C152.934 12.7859 153.275 13.6137 154.143 14.5599C154.839 15.322 155.641 15.9922 156.179 16.8595C156.258 16.9909 156.048 17.1223 155.969 17.004C154.918 15.3746 152.198 13.7583 152.553 11.5375C152.553 11.4587 152.671 11.4455 152.697 11.5375Z" fill="#EE73A8"/>
<path id="Vector_65" d="M154.668 11.9317C155.417 13.1013 156.455 14.3759 156.836 15.7557C156.902 15.4534 156.981 15.1643 156.994 14.849C157.034 14.2445 156.863 13.64 156.626 13.1013C156.561 12.9567 156.758 12.8779 156.836 13.0093C157.375 13.9291 157.796 15.506 157.06 16.439C157.034 16.4653 157.007 16.4784 156.981 16.4916C156.981 16.531 156.994 16.5704 156.994 16.6098C157.02 16.9515 156.495 17.0566 156.469 16.7018C156.337 14.9672 154.865 13.6926 154.353 12.0763C154.313 11.9186 154.576 11.7872 154.668 11.9317Z" fill="#EE73A8"/>
<path id="Vector_66" d="M138.532 69.5009C142.776 78.8176 176.666 85.3616 191.83 69.1592C189.163 69.0147 186.85 69.2644 184.195 68.3182C182.96 70.1054 189.136 70.0397 185.22 72.7729C183.499 73.9687 181.462 75.1382 179.425 75.5587C174.576 76.5705 169.031 74.3104 165.825 70.3813C164.524 68.7913 162.356 62.6152 160.332 62.602C160.056 65.1776 162.198 67.359 163.249 69.5403C163.906 70.9201 166.285 75.3485 162.789 75.0594C161.423 74.9411 161.278 73.4825 160.687 72.4181C159.911 71.0121 159.333 70.263 158.992 71.9188C158.703 73.3511 159.491 74.4155 157.743 74.7571C156.6 74.9805 154.957 74.2709 153.893 73.9687C152.237 73.4694 149.701 73.2854 148.335 72.2473C146.745 71.0515 146.994 68.9753 147.152 67.175C145.904 68.6467 146.902 70.3944 144.721 70.1973C143.381 70.0791 141.869 69.1198 140.687 68.4496C141.252 66.8859 142.986 65.6375 143.709 64.0212C144.419 62.4312 145.588 60.4864 145.417 58.6599C145.063 58.9752 144.721 59.3037 144.366 59.6323V59.6454C142.697 63.2722 140.766 66.6362 138.532 69.5009Z" fill="#F3A3C5"/>
<path id="Vector_67" opacity="0.4" d="M153.499 9.01453C154.143 9.67156 156.495 11.0907 155.536 11.8266C155.128 11.4718 154.642 11.1959 154.143 11.0119C154.156 10.9593 153.814 11.209 153.814 11.209C153.867 11.4455 153.814 11.7346 153.854 11.9712C152.921 11.6427 152.907 10.3417 152.789 9.60586L153.499 9.01453Z" fill="#DDF1FD"/>
<path id="Vector_68" opacity="0.4" d="M179.635 67.7269C182.329 67.6087 183.959 70.0003 182.553 72.1159C181.239 74.1001 178.532 74.2184 176.311 73.811C172.066 73.0095 166.994 69.698 164.248 66.0712C163.223 64.7177 161.002 59.5272 158.913 61.4194C157.533 62.6678 161.278 70.066 159.031 69.9477C158.676 67.6744 157.717 69.606 157.323 70.4865C156.692 71.8662 156.245 72.3656 154.563 72.0371C152.066 71.5377 149.596 70.7493 149.53 67.9897C149.504 66.8202 149.767 65.3748 148.479 64.6652C146.928 63.7979 146.613 65.4273 146.022 66.5048C145.443 67.5824 144.156 68.5942 143.906 66.6757C143.801 65.8478 144.957 64.2052 145.299 63.4956C147.441 59.0015 148.453 53.5613 149.938 48.7518C151.436 43.9029 152.763 38.7912 153.722 33.7321C154.024 32.1289 154.169 27.1749 155.378 26.1762C157.178 27.1223 157.454 31.012 157.572 32.7597C157.756 35.3484 157.888 37.9634 158.177 40.4864C158.755 45.493 159.399 51.2354 161.16 55.9923C162.316 59.1329 164.064 62.8517 166.955 64.7571C168.571 65.8215 170.542 66.3603 172.329 66.8991C173.512 67.2539 176.731 68.9096 177.769 68.0423L179.635 67.7269Z" fill="#DDF1FD"/>
</g>
<g id="Group_22">
<path id="Vector_69" d="M86.2581 130.868L75.1017 174.166L88.4395 232.445" stroke="#F28E00" stroke-width="5" stroke-miterlimit="10"/>
<path id="Vector_70" d="M71.7378 173.995C71.7378 176.072 73.4198 177.767 75.5092 177.767C77.5985 177.767 79.2805 176.085 79.2805 173.995C79.2805 171.919 77.5985 170.224 75.5092 170.224C73.4198 170.224 71.7378 171.919 71.7378 173.995Z" fill="#F28E00"/>
<path id="Vector_71" d="M86.5077 230.776C86.5077 232.852 87.0596 235.861 89.0701 236.361C92.1187 237.123 94.5235 239.699 98.1109 239.685C99.2147 239.685 97.4407 237.228 98.4788 237.005C99.5038 236.768 103.354 238.766 104.234 238.384C105.128 238.003 102.644 235.717 103.301 235.283C104.629 234.429 108.729 235.428 108.729 234.915C108.729 232.839 91.5143 232.432 89.3198 230.027C87.9137 228.503 86.5077 228.687 86.5077 230.776Z" fill="#F28E00"/>
</g>
<g id="Group_23">
<path id="Vector_72" d="M71.5272 134.337L60.3707 177.635L73.7085 235.914" stroke="#F28E00" stroke-width="5" stroke-miterlimit="10"/>
<path id="Vector_73" d="M57.0068 177.478C57.0068 179.554 58.6888 181.249 60.7782 181.249C62.8544 181.249 64.5496 179.567 64.5496 177.478C64.5496 175.401 62.8676 173.706 60.7782 173.706C58.6888 173.706 57.0068 175.388 57.0068 177.478Z" fill="#F28E00"/>
<path id="Vector_74" d="M71.7767 234.245C71.7767 236.321 72.3286 239.331 74.3392 239.83C77.3878 240.592 79.7925 243.155 83.3799 243.155C84.4837 243.155 82.7097 240.697 83.7479 240.474C84.786 240.237 88.623 242.235 89.5035 241.854C90.397 241.473 87.9134 239.186 88.5705 238.766C89.8977 237.911 93.9976 238.91 93.9976 238.398C93.9976 236.321 76.7833 235.914 74.5888 233.509C73.1828 231.972 71.7767 232.156 71.7767 234.245Z" fill="#F28E00"/>
</g>
<g id="cara">
<path id="Vector_75" d="M91.4748 17.7399C91.4748 27.5428 99.4249 35.4798 109.215 35.4798C119.018 35.4798 126.955 27.5297 126.955 17.7399C126.955 7.93697 119.018 1.62666e-05 109.215 1.62666e-05C99.4118 -0.0131244 91.4748 7.93697 91.4748 17.7399Z" fill="white"/>
<path id="Vector_76" d="M125.68 11.117C125.68 11.117 159.517 15.9396 159.189 17.7267C158.86 19.5139 125.956 23.6138 125.956 23.6138C125.956 23.6138 123.38 19.803 123.499 16.8726C123.617 13.9554 125.68 11.117 125.68 11.117Z" fill="#F28E00"/>
<path id="Vector_77" d="M129.031 20.6702C129.031 20.6702 159.517 15.9528 159.189 17.7399C158.86 19.527 125.956 23.6269 125.956 23.6269C125.956 23.6269 123.38 19.8161 123.499 16.8857C126.429 18.7123 129.031 20.6702 129.031 20.6702Z" fill="#E57C00"/>
<path id="Vector_78" d="M113.131 13.4298C113.131 11.4587 112.25 9.8555 111.173 9.8555C110.095 9.8555 109.215 11.4587 109.215 13.4298" stroke="#432918" stroke-miterlimit="10" stroke-linecap="round"/>
<path id="Vector_79" d="M104.51 20.2498C104.51 21.9449 106.442 23.3115 108.82 23.3115C111.199 23.3115 113.131 21.9449 113.131 20.2498C113.131 18.5546 111.199 17.188 108.82 17.188C106.442 17.188 104.51 18.5546 104.51 20.2498Z" fill="#F9D5E7"/>
<path id="Vector_80" d="M105.851 31.6558C109.425 33.4692 113.367 34.1657 117.099 33.6269C112.605 35.874 107.414 36.0448 102.855 34.3102C100.003 33.2196 103.262 30.3418 105.851 31.6558Z" fill="#EDEDED"/>
</g>
<g id="cuerpo">
<path id="Vector_81" d="M93.7219 26.3733C93.7219 26.3733 115.562 57.648 102.539 72.9175C83.6561 95.0595 42.4077 93.6534 33.288 91.6954C24.1684 89.7375 14.9568 79.7506 10.4102 83.338C5.85038 86.9123 20.8307 94.4024 20.8307 94.4024C20.8307 94.4024 1.92133 88.568 0.160477 93.1015C-2.11285 98.9622 20.5022 105.086 20.5022 105.086C20.5022 105.086 0.856934 104.705 0.515274 109.501C0.121063 114.915 23.4326 114.271 23.4326 114.271C23.4326 114.271 4.54947 115.243 5.85039 119.803C7.46669 125.441 31.2512 119.159 31.2512 119.159C31.2512 119.159 50.7914 137.714 81.7113 133.811C110.476 130.184 130.831 108.673 128.86 80.066C126.955 52.4312 112.474 40.0527 112.303 29.3168C112.145 18.5546 93.7219 26.3733 93.7219 26.3733Z" fill="white"/>
<path id="Vector_82" d="M2.27623 109.186C5.77164 116.387 18.6495 112.655 25.049 112.747C25.2855 112.747 25.3512 113.128 25.1015 113.167C20.7389 113.903 1.51408 117.543 1.54036 109.383C1.5535 109.015 2.1054 108.818 2.27623 109.186Z" fill="#EDEDED"/>
<path id="Vector_83" d="M1.94758 92.497C2.07899 92.4838 2.23667 92.6415 2.22353 92.7729C2.00014 94.8754 2.38122 95.5588 4.18149 96.9254C6.28399 98.5417 8.76757 99.6981 11.1592 100.802C15.1933 102.668 19.5166 104.389 23.8399 105.48C24.1947 105.572 24.1158 106.111 23.761 106.111C18.1631 106.071 11.5665 102.484 6.75705 99.8952C4.65455 98.7651 1.98701 97.3065 0.922619 95.0331C0.449554 94.0476 0.764921 92.6547 1.94758 92.497Z" fill="#EDEDED"/>
<path id="Vector_84" d="M11.6454 84.4681C12.8937 91.0384 21.7637 92.6284 26.2184 96.1633C26.4023 96.3078 26.2446 96.6232 26.0344 96.6232C22.9201 96.6101 19.0173 93.5746 16.56 91.9583C14.2604 90.4339 10.3313 87.8058 10.4496 84.6389C10.4759 83.9687 11.514 83.7716 11.6454 84.4681Z" fill="#EDEDED"/>
<path id="Vector_85" d="M26.2185 116.991C30.4104 115.519 34.1292 114.705 38.3211 116.781C41.0937 118.148 43.7481 119.698 46.442 121.209C51.9742 124.297 57.4144 126.544 63.6956 127.543C75.8639 129.475 87.8876 128.831 99.9244 126.347C102.263 125.861 104.655 125.322 107.047 124.665C99.8587 129.409 91.2516 132.602 81.7115 133.798C50.7784 137.701 31.2514 119.146 31.2514 119.146C31.2514 119.146 8.64948 125.125 6.02135 120.184C12.6574 120.579 19.3591 119.396 26.2185 116.991Z" fill="#EDEDED"/>
</g>
<g id="alas">
<path id="Vector_86" d="M97.9794 88.3708C85.6141 76.5048 42.9595 94.4024 43.2881 98.6468C43.472 101.117 51.7506 102.221 51.7506 102.221C51.7506 102.221 41.3301 107.425 43.748 112.392C45.3249 115.625 58.2684 115.533 58.2684 115.533C58.2684 115.533 52.5259 120.776 56.5338 122.734C60.5417 124.692 71.7113 117.201 71.7113 117.201C71.7113 117.201 68.045 123.496 70.9754 124.219C73.8926 124.928 105.916 95.9792 97.9794 88.3708Z" fill="#EDEDED"/>
<path id="Vector_87" d="M60.0558 98.1738C60.726 92.9963 66.337 91.2092 70.4763 89.5798C71.199 89.2907 71.5144 90.4602 70.8048 90.7361C67.6248 91.9845 64.0111 93.0358 62.0006 96.0055C61.107 97.3328 60.8442 98.9753 61.0545 100.539C61.3698 102.839 63.0124 103.22 65.0361 102.891C65.0361 102.891 65.0361 102.891 65.0492 102.891C65.9034 101.84 67.27 100.381 68.5841 100.158C69.0571 99.8952 69.5565 99.6718 70.0032 99.4353C71.3567 98.7125 72.7365 98.108 74.1031 97.4379C74.3791 97.3065 74.6025 97.6744 74.3397 97.8452C73.2096 98.5811 72.0926 99.317 70.91 100C70.0427 100.5 69.0965 101.288 68.1241 101.682C67.9007 101.84 67.6642 101.998 67.4277 102.169C66.3633 102.957 65.3383 103.929 64.9047 105.217C64.3922 106.755 65.8114 108.331 67.0072 109.107C67.9796 109.738 69.1885 109.475 70.2661 109.054C70.542 108.45 71.0676 107.845 71.9086 107.307C72.2503 106.833 72.5919 106.374 72.9205 105.966C74.2608 104.297 76.0217 102.957 78.0453 102.287C78.3081 102.195 78.479 102.615 78.2293 102.734C76.5079 103.548 75.0755 104.692 73.8535 106.15C73.433 106.649 73.1044 107.188 72.8022 107.74C72.8153 107.872 72.7628 108.016 72.6314 108.121C71.7904 111.485 72.5788 113.023 75.0098 112.707C76.1531 112.72 77.3357 112.313 78.4264 111.985C80.5946 111.328 82.3423 110.132 84.0506 108.647C87.1518 105.94 89.3068 102.313 92.3686 99.5404C92.4606 99.4615 92.592 99.5929 92.5132 99.6849C87.2175 105.243 84.2871 112.247 76.1005 113.916C73.8535 114.376 71.5013 113.259 70.5289 111.695C70.3712 111.656 70.2529 111.525 70.2529 111.341C70.2529 111.288 70.2661 111.249 70.2661 111.196C70.1215 110.854 70.0427 110.5 70.0427 110.132C67.6905 111.065 64.9572 109.58 63.9191 107.004C63.4986 105.979 63.814 104.823 64.3659 103.864C61.2384 104.928 59.6878 100.986 60.0558 98.1738Z" fill="white"/>
<path id="Vector_88" d="M46.9282 110.631C50.7652 113.929 57.2961 111.906 61.8559 111.42C62.1187 111.393 62.1713 111.827 61.9216 111.879C57.8743 112.878 48.9912 115.953 46.1003 111.262C45.7455 110.736 46.4814 110.25 46.9282 110.631Z" fill="white"/>
<path id="Vector_89" d="M46.7047 99.0279C46.7442 99.0542 46.7836 99.0805 46.823 99.1068C48.2159 98.66 49.7271 98.66 51.1726 98.4235C53.0648 98.1212 54.8914 97.4773 56.5339 96.4918C56.7836 96.3472 56.9939 96.7152 56.7573 96.8729C54.208 98.5417 50.5944 99.6718 47.4538 99.501C48.689 100.289 49.6351 100.776 51.396 100.657C53.2619 100.539 55.0359 99.8558 56.8756 99.5667C57.3487 99.4878 57.5589 100.145 57.0727 100.303C54.6548 101.078 46.823 103.837 46.2448 99.2776C46.2054 99.0542 46.5208 98.9097 46.7047 99.0279Z" fill="white"/>
<path id="Vector_90" d="M57.756 120.263C62.7495 121.091 65.9427 117.136 70.6339 116.558C70.9887 116.518 71.0544 117.083 70.7127 117.175C66.3894 118.292 62.237 123.128 57.4669 121.301C56.823 121.038 57.0727 120.145 57.756 120.263Z" fill="white"/>
<path id="Vector_91" d="M72.2633 120.526C75.8244 120.789 77.4801 116.899 80.2791 115.349C80.5156 115.217 80.7916 115.559 80.5682 115.73C77.9795 117.819 76.1266 122.405 72.1056 121.643C71.4749 121.525 71.6194 120.473 72.2633 120.526Z" fill="white"/>
<path id="Vector_92" d="M74.7996 110.434C77.9008 109.711 80.0296 109.041 82.3818 106.781C84.3791 104.875 85.8903 102.497 88.0585 100.762C88.2819 100.578 88.5579 100.854 88.3739 101.078C85.0887 104.836 80.6735 111.853 74.7996 110.933C74.5368 110.894 74.5631 110.487 74.7996 110.434Z" fill="white"/>
<path id="Vector_93" d="M67.9795 106.571C69.4381 106.19 70.6602 105.664 71.8297 104.678C72.881 103.785 73.6957 102.668 74.7075 101.722C74.8915 101.551 75.2069 101.774 75.0623 101.998C73.6694 104.205 70.8967 107.464 67.9664 106.965C67.7561 106.952 67.7824 106.623 67.9795 106.571Z" fill="white"/>
<path id="Vector_94" d="M62.8284 99.6324C64.5235 99.6061 65.9164 99.5667 67.4933 98.8571C68.8205 98.2658 69.99 97.3065 71.1858 96.5049C71.3829 96.3735 71.5932 96.6626 71.4355 96.8334C69.3987 98.9622 65.8113 101.262 62.7495 100.237C62.421 100.119 62.4736 99.6324 62.8284 99.6324Z" fill="white"/>
<path id="Vector_95" d="M73.748 119.002C74.1817 118.476 74.8913 118.134 75.4169 117.701C75.9951 117.215 76.5207 116.65 77.0463 116.111C77.1646 115.993 77.3617 116.137 77.2697 116.282C76.8361 117.044 76.3499 117.675 75.7191 118.279C75.2329 118.739 74.5628 119.291 73.8794 119.33C73.7086 119.357 73.6561 119.12 73.748 119.002Z" fill="white"/>
<path id="Vector_96" d="M58.597 118.003C61.7244 117.937 64.1555 117.017 66.9544 115.717C67.1778 115.611 67.3881 115.94 67.1515 116.058C64.6548 117.412 61.4616 119.422 58.5444 118.318C58.3867 118.266 58.3998 118.016 58.597 118.003Z" fill="white"/>
<path id="Vector_97" d="M48.8598 109.908C52.6706 110.907 55.7718 110.671 59.5301 109.567C59.7009 109.514 59.7666 109.764 59.6089 109.83C56.2186 111.209 52.1319 112.063 48.7679 110.132C48.6496 110.066 48.7284 109.882 48.8598 109.908Z" fill="white"/>
</g>
</g>
</svg>
