<svg width="360" height="73" viewBox="0 0 360 73" fill="none" xmlns="http://www.w3.org/2000/svg">
<path d="M407.668 -22.4189C407.988 -23.0585 408.353 -23.7438 408.627 -24.4291C413.835 -36.9009 407.988 -51.2458 395.516 -56.4539C387.932 -59.6061 379.663 -58.6924 373.176 -54.6722C371.303 -55.997 369.293 -57.0935 367.1 -58.0071C360.384 -60.7939 353.258 -61.1594 346.725 -59.469C344.395 -65.4994 339.735 -70.6161 333.294 -73.3114C328.999 -75.0931 324.522 -75.5957 320.274 -74.9561C319.086 -83.225 313.741 -90.6715 305.472 -94.0979C294.325 -98.7577 281.716 -94.5547 275.457 -84.7782C261.843 -86.1945 248.32 -78.6108 242.747 -65.3167C240.554 -60.063 239.869 -54.5808 240.463 -49.3271C232.696 -46.3119 226.072 -40.2359 222.6 -31.9213C215.793 -15.6576 223.468 3.02731 239.686 9.8343C240.874 21.027 248.001 31.2603 259.102 35.9201C267.736 39.5292 277.01 39.0724 284.868 35.4176C287.792 43.0469 293.731 49.4884 301.863 52.9147C309.949 56.2954 318.675 56.0213 326.121 52.7777C327.674 60.4984 332.882 67.3054 340.694 70.5947C352.938 75.7113 366.963 70.1378 372.399 58.1685C385.968 59.4933 399.399 51.9554 404.927 38.7069C408.399 30.3923 408.079 21.4382 404.79 13.7632C406.663 11.4789 408.262 8.87493 409.45 5.99681C413.561 -3.64262 412.51 -14.0587 407.668 -22.4189ZM337.314 -1.17566C337.131 -1.22134 336.994 -1.26702 336.811 -1.31271C336.948 -1.54113 337.04 -1.76955 337.131 -1.99798C337.359 -1.86092 337.542 -1.72387 337.771 -1.58681C337.634 -1.44977 337.451 -1.31271 337.314 -1.17566Z" fill="#F2E9F0"/>
<path d="M267.03 -33.3455C266.756 -33.117 266.527 -32.8429 266.344 -32.5688C264.7 -30.3303 265.248 -27.1781 267.486 -25.5334C267.852 -25.305 268.217 -25.0766 268.583 -24.9395C266.984 -23.569 265.613 -21.833 264.7 -19.7315C262.05 -13.7925 263.74 -6.98551 268.446 -2.91959C266.207 2.60823 268.72 9.00406 274.248 11.4253C277.766 12.9786 281.649 12.5674 284.664 10.6944C285.943 14.1664 288.547 17.1359 292.202 18.7348C295.857 20.3795 299.831 20.2881 303.257 18.8719C304.491 22.618 307.278 25.8159 311.115 27.5519C315.729 29.6077 320.846 29.0139 324.82 26.5012C324.866 28.1915 325.734 29.7905 327.287 30.7042C329.663 32.0747 332.724 31.2981 334.094 28.8768C334.14 28.8311 334.14 28.7854 334.14 28.7397C334.825 31.1153 336.379 33.2625 338.709 34.5874C342.637 36.8716 347.526 36.1406 350.632 33.1711C351.455 35.1356 352.871 36.8716 354.881 38.0594C359.632 40.8461 365.754 39.2015 368.541 34.4503C371.327 29.6991 369.683 23.5774 364.931 20.7906C364.703 20.6536 364.475 20.5622 364.292 20.4252C364.429 20.2881 364.52 20.1054 364.612 19.9683C365.617 18.2323 365.023 15.9938 363.287 14.9887C362.921 14.7603 362.51 14.6232 362.099 14.5776C363.515 10.6944 362.373 6.26299 359.221 3.5676C359.723 3.33918 360.18 2.92802 360.5 2.42549C361.277 1.10064 360.866 -0.589687 359.632 -1.41201C361.505 -2.55412 363.058 -4.24445 364.018 -6.39162C366.485 -12.0108 363.972 -18.5894 358.353 -21.0563C354.15 -22.9294 349.399 -21.97 346.201 -19.0005C345.881 -22.9294 343.46 -26.5842 339.622 -28.2745C335.922 -29.9191 331.765 -29.3709 328.704 -27.1781C327.562 -28.777 326.008 -30.1019 324.09 -30.9699C321.211 -32.249 318.059 -32.2033 315.318 -31.0612C313.856 -33.7566 311.526 -35.9952 308.465 -37.32C307.506 -37.7768 306.501 -38.051 305.45 -38.2794C304.765 -41.66 302.481 -44.6752 299.054 -46.1828C295.582 -47.7361 291.745 -47.3249 288.775 -45.4975C288.41 -46.1828 287.907 -46.7767 287.268 -47.2335C285.669 -48.3756 283.659 -48.467 282.014 -47.6447C281.375 -48.5127 280.598 -49.335 279.639 -50.0203C274.933 -53.4009 268.4 -52.3502 264.974 -47.6447C261.685 -43.1219 262.598 -36.7718 267.03 -33.3455ZM299.283 -10.0007C299.237 -9.90932 299.192 -9.77227 299.146 -9.6809C299.1 -9.72658 299.009 -9.77227 298.963 -9.81795C298.963 -9.90932 298.963 -10.0007 298.963 -10.0921C299.054 -10.0464 299.192 -10.0464 299.283 -10.0007Z" fill="white"/>
<path d="M279.867 18.3237C280.415 17.3643 281.648 17.0445 282.562 17.5927C283.521 18.1409 283.841 19.3744 283.293 20.2881C282.745 21.2475 281.511 21.5673 280.598 21.0191C279.684 20.4708 279.318 19.2374 279.867 18.3237Z" fill="white"/>
<path d="M298.643 33.2625C298.917 32.76 299.557 32.5772 300.059 32.897C300.562 33.1711 300.745 33.8107 300.425 34.3132C300.151 34.8158 299.511 34.9985 299.009 34.6787C298.506 34.4046 298.323 33.765 298.643 33.2625Z" fill="white"/>
<path d="M355.063 46.511C355.337 46.0085 355.977 45.8257 356.48 46.1455C356.982 46.4196 357.165 47.0592 356.845 47.5617C356.571 48.0643 355.931 48.247 355.429 47.9272C354.926 47.6531 354.744 47.0135 355.063 46.511Z" fill="white"/>
<path d="M149.418 -39.9137C145.946 -48.2283 139.321 -54.3043 131.555 -57.3195C132.149 -62.5732 131.464 -68.0553 129.271 -73.309C123.697 -86.6032 110.22 -94.1412 96.5607 -92.7706C90.2562 -102.593 77.6473 -106.75 66.546 -102.09C58.2771 -98.6182 52.932 -91.1717 51.7442 -82.9485C47.4955 -83.588 42.9728 -83.0855 38.7241 -81.3038C32.2826 -78.6084 27.6228 -73.4918 25.2929 -67.4614C18.76 -69.1517 11.6332 -68.832 4.91761 -65.9995C2.72476 -65.0858 0.714645 -63.9437 -1.15842 -62.6645C-7.64561 -66.6848 -15.9145 -67.5985 -23.4981 -64.4462C-35.97 -59.2382 -41.8633 -44.8933 -36.6096 -32.4214C-36.3355 -31.7362 -36.0157 -31.0509 -35.6502 -30.4113C-40.4928 -22.051 -41.5435 -11.635 -37.5233 -2.04125C-36.3355 0.836868 -34.7365 3.44089 -32.8634 5.72511C-36.1527 13.4001 -36.4725 22.3543 -33.0005 30.6688C-27.4727 43.9173 -14.0414 51.4553 -0.473152 50.1304C5.00898 62.0998 19.0341 67.6732 31.2319 62.5566C39.0439 59.313 44.2519 52.4603 45.8052 44.7396C53.2975 47.9376 61.9775 48.2574 70.0637 44.8767C78.1955 41.4961 84.1345 35.0089 87.0583 27.3795C94.916 31.0343 104.19 31.4911 112.824 27.8821C123.971 23.2223 131.052 12.9889 132.24 1.79625C148.595 -4.96506 156.225 -23.65 149.418 -39.9137ZM34.7496 -9.12234C34.6125 -9.2594 34.4298 -9.39645 34.247 -9.5335C34.4755 -9.67056 34.6582 -9.80762 34.8866 -9.94467C34.978 -9.71625 35.1151 -9.48782 35.2064 -9.2594C35.1151 -9.21371 34.9323 -9.16803 34.7496 -9.12234Z" fill="#F2E9F0"/>
<path d="M-6.38914 3.94004C-6.43483 4.25983 -6.48051 4.6253 -6.43483 4.99078C-6.29777 7.77753 -3.92218 9.9247 -1.13543 9.74197C-0.724268 9.74197 -0.313108 9.6506 0.098053 9.51354C-0.313108 11.615 -0.267424 13.8079 0.326475 16.0007C1.97112 22.3052 7.54462 26.5538 13.7577 26.7823C15.448 32.5385 21.387 35.9192 27.2346 34.3659C30.9351 33.4065 33.7218 30.6198 34.9096 27.2848C38.0619 29.2036 41.9907 29.8888 45.8282 28.8381C49.7114 27.833 52.7723 25.2747 54.5539 22.0311C57.8432 24.1783 62.0005 24.9549 66.1121 23.8585C71.0004 22.5793 74.6551 18.9245 76.1627 14.4475C77.2591 15.7266 78.9495 16.4576 80.7312 16.1835C83.4722 15.7723 85.3453 13.214 84.9341 10.5186C84.9341 10.4729 84.9341 10.4272 84.8884 10.3815C86.8986 11.7978 89.4569 12.483 92.1523 12.1176C96.675 11.4323 100.01 7.82322 100.558 3.52888C102.431 4.57962 104.624 5.03646 106.908 4.67099C112.345 3.84867 116.091 -1.22231 115.269 -6.70444C114.446 -12.1409 109.375 -15.887 103.893 -15.0647C103.665 -15.019 103.391 -14.9733 103.162 -14.9277C103.162 -15.1104 103.162 -15.2931 103.117 -15.5215C102.797 -17.486 100.969 -18.8565 98.9593 -18.5824C98.5024 -18.5367 98.1369 -18.354 97.7715 -18.1712C96.4466 -22.1001 92.7919 -24.7955 88.6346 -24.9326C88.863 -25.4351 89 -26.029 88.9087 -26.6229C88.6803 -28.1305 87.3097 -29.1812 85.8021 -29.0898C86.5331 -31.1456 86.7158 -33.4299 86.1219 -35.7141C84.5686 -41.6531 78.4469 -45.2165 72.5079 -43.6175C68.0309 -42.4297 64.9243 -38.7293 64.3304 -34.3892C61.635 -37.2674 57.4778 -38.5922 53.3661 -37.5415C49.4373 -36.4907 46.5592 -33.4755 45.5084 -29.8665C43.6354 -30.4147 41.5796 -30.4604 39.5238 -29.9578C36.4629 -29.1355 34.0416 -27.1254 32.6254 -24.5671C29.793 -25.7549 26.5494 -26.029 23.3514 -25.2067C22.3007 -24.9326 21.3413 -24.5671 20.4276 -24.0645C17.7779 -26.2574 14.0775 -27.2168 10.5141 -26.2574C6.85935 -25.298 4.11829 -22.6026 2.88481 -19.2677C2.19954 -19.5875 1.4229 -19.7245 0.646267 -19.6788C-1.31817 -19.5875 -2.96281 -18.3997 -3.69376 -16.7093C-4.7445 -16.9835 -5.88661 -17.1205 -7.02873 -17.0748C-12.8307 -16.755 -17.262 -11.8668 -16.9879 -6.06486C-16.6681 -0.39999 -11.9626 3.98572 -6.38914 3.94004ZM33.402 1.92992C33.4477 2.02129 33.4934 2.15834 33.4934 2.24971C33.402 2.24971 33.3563 2.24971 33.265 2.29539C33.2193 2.20403 33.1279 2.15834 33.0822 2.06697C33.1736 2.02129 33.265 1.97561 33.402 1.92992Z" fill="white"/>
<path d="M35.9606 36.1933C35.7778 35.0969 36.5545 34.0918 37.6052 33.9547C38.7016 33.772 39.7067 34.5486 39.8437 35.5994C40.0265 36.6958 39.2499 37.7009 38.1991 37.8379C37.1027 38.0207 36.0976 37.244 35.9606 36.1933Z" fill="white"/>
<path d="M118.786 1.65582C118.604 0.55939 119.38 -0.445668 120.431 -0.582721C121.528 -0.765459 122.533 0.0111769 122.67 1.06192C122.852 2.15835 122.076 3.16341 121.025 3.30046C119.929 3.4832 118.924 2.75225 118.786 1.65582Z" fill="white"/>
<path d="M59.8992 36.1019C59.8079 35.5537 60.219 35.0055 60.7672 34.9141C61.3154 34.8227 61.8637 35.2339 61.955 35.7821C62.0464 36.3303 61.6352 36.8785 61.087 36.9699C60.5388 37.0613 59.9906 36.6958 59.8992 36.1019Z" fill="white"/>
<path d="M112.253 11.2039C112.162 10.6557 112.573 10.1074 113.121 10.0161C113.67 9.92471 114.218 10.3359 114.309 10.8841C114.401 11.4323 113.989 11.9805 113.441 12.0719C112.893 12.1632 112.345 11.7978 112.253 11.2039Z" fill="white"/>
</svg>
