<svg width="1512" height="262" viewBox="0 0 1512 262" fill="none" xmlns="http://www.w3.org/2000/svg">
<path d="M577.807 281.895C588.001 269.645 589.113 255.864 582.811 243.732C593.561 239.374 602.643 233.131 609.13 225.475C610.613 223.59 611.91 221.706 613.208 219.821C641.009 227.006 673.63 219.821 687.901 202.507C703.099 184.132 691.979 161.399 663.065 151.741C641.38 144.438 615.802 146.676 598.009 155.981C597.824 142.671 586.333 129.832 566.315 123.119C547.225 116.758 525.169 117.7 507.932 124.296C502.557 118.643 494.773 113.813 484.764 110.515C469.937 105.568 453.07 104.979 438.428 108.16C431.57 98.7368 419.894 90.6095 404.51 85.4269C399.506 83.7779 394.316 82.4822 388.941 81.5399C386.346 69.9969 375.411 59.2783 357.989 53.389C329.075 43.7305 293.304 50.7977 278.105 69.1724C277.179 70.2324 276.437 71.1747 275.881 72.2348C252.899 74.5905 231.769 83.6601 220.093 97.7944C216.571 102.035 214.162 106.393 212.679 110.869C193.403 114.52 176.166 122.883 165.972 135.015C149.847 154.45 156.334 177.771 179.688 192.495C165.787 210.634 176.908 232.66 205.265 242.201C223.244 248.208 244.002 247.737 260.868 242.083C266.429 254.097 279.218 264.698 297.937 270.941C316.842 277.183 337.972 277.89 356.691 274.003C362.066 286.842 375.411 298.267 395.428 304.981C421.191 313.579 451.217 312.048 473.829 302.507C511.454 314.993 557.975 305.805 577.807 281.895ZM344.273 176.24C344.273 175.887 344.273 175.651 344.273 175.298C344.829 175.416 345.385 175.534 346.127 175.651C345.941 176.005 345.571 176.358 345.385 176.711C344.829 176.594 344.644 176.476 344.273 176.24Z" fill="#EFF0F0"/>
<path d="M1264.77 196.796C1256.98 183.84 1241.41 174.299 1222.88 169.352C1224.73 161.342 1223.44 152.862 1218.43 144.734C1217.32 142.732 1215.84 140.848 1214.35 139.081C1241.23 130.482 1254.02 110.223 1242.9 91.9662C1231.22 72.6492 1196.93 62.9907 1166.35 70.4112C1143.55 76.065 1129.28 89.7282 1128.54 104.334C1112.6 95.6176 1089.8 92.6729 1068.86 97.8555C1048.66 102.803 1035.31 113.992 1031.79 126.595C1021.6 125.418 1010.66 126.006 1000.28 128.598C984.528 132.485 973.036 140.141 966.92 149.21C951.351 146.266 934.114 146.501 917.618 150.506C912.243 151.802 907.424 153.451 902.791 155.335C887.407 148.857 867.576 147.09 849.041 151.684C818.645 159.104 803.446 180.895 815.123 200.33C815.865 201.39 816.421 202.45 817.347 203.392C805.115 215.995 801.964 232.014 810.86 246.855C813.64 251.331 817.162 255.336 821.61 258.987C813.084 270.648 811.787 284.311 819.571 297.268C831.989 317.763 863.869 330.013 896.86 328.481C909.278 347.092 942.64 356.161 972.666 348.858C991.756 344.147 1004.73 333.9 1008.99 322.121C1026.79 327.421 1047.73 328.246 1067.56 323.299C1087.39 318.469 1102.22 308.811 1109.82 297.15C1128.54 303.039 1150.97 304.217 1171.91 299.035C1199.16 292.321 1216.95 277.009 1220.66 259.812C1260.32 250.389 1279.97 222.002 1264.77 196.796ZM985.825 239.081C985.454 238.846 985.084 238.61 984.713 238.492C985.269 238.257 985.825 238.139 986.381 237.904C986.566 238.257 986.937 238.61 987.122 238.964C986.566 238.964 986.196 238.964 985.825 239.081Z" fill="#EFF0F0"/>
<path d="M1550.15 236.236C1536.07 214.798 1509.19 199.133 1477.68 191.359C1480.09 177.814 1477.31 163.679 1468.42 150.134C1466.19 146.836 1463.78 143.773 1461 140.711C1505.49 125.516 1525.5 91.0049 1505.49 60.7338C1484.36 28.5781 1426.16 13.3837 1375.56 26.9291C1337.56 37.0587 1314.58 60.3804 1314.58 85.1156C1287.15 71.099 1248.6 66.7409 1213.94 76.046C1180.39 84.9978 1158.71 104.197 1153.89 125.399C1136.65 123.75 1118.3 125.045 1101.07 129.639C1074.93 136.588 1056.03 149.78 1046.57 165.328C1020.07 160.97 991.156 161.795 963.911 169.097C955.014 171.453 946.859 174.398 939.26 177.696C912.941 167.331 879.394 164.975 848.627 173.102C798.028 186.53 774.119 223.515 795.433 255.67C796.545 257.437 797.843 259.204 799.325 260.853C779.679 282.408 775.416 309.263 791.726 333.998C796.545 341.419 803.032 348.133 810.631 354.022C797.287 373.81 795.989 396.896 810.075 418.333C832.502 452.492 886.993 471.926 942.04 468.51C964.282 499.37 1021.18 513.74 1070.67 500.548C1102.36 492.186 1123.49 474.518 1129.79 454.612C1160.19 462.857 1195.41 463.681 1228.21 454.965C1261.2 446.249 1285.3 429.523 1297.16 409.853C1329.04 419.276 1366.66 420.454 1401.69 411.148C1446.92 399.134 1475.65 372.75 1480.46 343.892C1546.63 326.224 1577.77 278.05 1550.15 236.236ZM1084.94 315.506C1084.38 315.152 1083.64 314.799 1082.9 314.446C1083.83 314.092 1084.57 313.739 1085.5 313.386C1085.87 313.975 1086.42 314.564 1086.79 315.152C1086.24 315.27 1085.5 315.388 1084.94 315.506Z" fill="#F2E9F0"/>
<path d="M1600.51 293.283C1591.43 272.434 1569.56 255.944 1541.76 246.404C1546.58 234.036 1546.58 220.726 1540.83 207.534C1539.35 204.354 1537.68 201.291 1535.83 198.229C1579.94 187.51 1604.77 157.004 1591.8 127.557C1578.08 96.2258 1526.93 77.8511 1477.63 86.5673C1447.97 91.7499 1425.73 105.531 1415.72 122.61C1412.94 120.254 1408.31 118.605 1403.3 118.605C1396.45 118.605 1390.7 121.314 1388.66 125.201C1368.09 117.899 1343.25 115.661 1318.79 119.901C1302.66 122.728 1288.58 128.146 1277.64 135.213C1265.41 125.555 1246.69 119.312 1225.74 119.312C1189.05 119.312 1159.39 138.158 1159.39 161.479C1159.39 165.249 1160.13 168.9 1161.62 172.316C1156.8 168.429 1149.38 165.838 1141.04 165.838C1126.77 165.838 1115.09 173.258 1115.09 182.328C1115.09 183.27 1115.28 184.212 1115.47 185.037C1100.64 183.977 1085.25 184.683 1070.06 187.393C1061.34 188.924 1053.37 191.044 1045.78 193.517C1023.35 181.974 992.767 177.263 962.742 182.563C932.345 187.981 909.733 202.351 899.91 220.019C894.164 218.488 887.677 217.781 881.005 218.017C864.694 218.724 851.164 225.202 845.048 234.036C836.151 232.505 826.884 231.916 817.246 232.269C769.057 234.272 732.544 260.656 735.51 291.28C738.475 321.08 777.953 343.931 824.66 343.342C824.289 345.109 824.104 346.993 824.289 348.878C825.772 363.601 845.789 374.791 868.957 373.848C872.479 373.731 876 373.26 879.151 372.553C876 383.625 876.556 395.286 881.561 406.829C896.018 440.162 942.91 462.188 994.621 463.131C1009.45 493.402 1059.49 510.834 1107.87 502.353C1138.63 496.935 1161.62 482.212 1171.07 464.308C1197.57 474.203 1230.19 477.618 1262.26 471.965C1294.51 466.311 1319.71 452.648 1334.36 435.333C1362.16 446.405 1396.82 450.292 1430.92 444.285C1475.03 436.511 1506.54 414.249 1516.36 387.865C1580.86 376.558 1618.49 334.154 1600.51 293.283ZM1155.13 332.152C1154.57 331.799 1154.02 331.445 1153.46 331.092C1154.39 330.856 1155.13 330.621 1156.06 330.267C1156.43 330.856 1156.61 331.445 1156.98 332.034C1156.43 332.034 1155.87 332.152 1155.13 332.152Z" fill="white"/>
<path d="M692.406 174.213C652.743 163.612 608.26 170.679 580.829 189.761C567.114 175.391 546.355 163.494 520.036 156.545C501.687 151.598 482.411 149.713 463.692 150.302C468.14 123.329 444.601 96.5915 403.27 85.5195C387.701 81.397 371.39 79.9836 355.821 80.9259C347.11 75.5077 336.731 71.0318 324.684 67.8516C316.714 65.7314 308.559 64.318 300.404 63.6113C300.218 38.9939 277.236 15.79 239.425 5.66034C191.051 -7.17838 135.633 6.13148 112.279 35.5781C102.456 28.2753 89.8527 22.1505 75.0252 18.2635C24.4262 4.83585 -33.7718 19.9125 -54.901 52.186C-76.0303 84.3417 -52.3062 121.327 -1.7073 134.754C-1.33661 134.872 -0.965912 134.872 -0.59523 134.99C-1.52195 136.168 -2.26333 137.346 -3.19005 138.641C-12.0866 152.187 -14.8667 166.321 -12.4573 179.866C-43.9657 187.64 -70.8406 203.306 -84.9268 224.743C-112.543 266.675 -81.4053 314.85 -15.6081 332.4C-10.7892 361.258 18.1245 387.642 63.1631 399.656C98.1932 408.961 135.818 407.783 167.697 398.36C179.559 418.031 203.654 434.639 236.645 443.473C269.451 452.189 304.852 451.482 335.063 443.119C341.365 463.025 362.494 480.575 394.188 489.056C443.86 502.248 500.76 487.878 522.816 457.018C577.864 460.434 632.355 440.999 654.781 406.841C668.868 385.404 667.57 362.318 654.225 342.53C661.825 336.64 668.312 329.926 673.131 322.506C679.432 312.847 682.768 302.836 683.139 292.941C710.199 287.641 733.553 274.92 745.415 257.017C766.729 224.625 743.005 187.64 692.406 174.213ZM380.472 303.778C379.731 303.66 379.175 303.542 378.433 303.424C379.916 301.658 381.214 299.891 382.326 298.006C383.067 296.711 383.994 295.533 384.55 294.237C386.959 295.533 389.369 296.828 391.964 298.006C388.071 299.891 384.179 301.775 380.472 303.778Z" fill="#F2E9F0"/>
<path d="M710.756 229.572C671.092 218.972 626.609 226.039 599.179 245.12C585.463 230.75 564.705 218.854 538.386 211.904C520.037 206.957 500.761 205.073 482.041 205.662C486.489 178.689 462.951 151.951 421.619 140.879C406.05 136.757 389.74 135.343 374.171 136.286C365.46 130.867 355.08 126.392 343.033 123.211C335.063 121.091 326.908 119.678 318.753 118.971C318.568 94.3537 295.585 71.1497 257.775 61.0201C209.4 48.1814 153.982 61.4912 130.629 90.9378C120.991 83.3995 108.387 77.3924 93.5598 73.3877C42.9609 59.96 -15.2371 75.0367 -36.3664 107.192C-57.4956 139.348 -33.7716 176.333 16.8274 189.761C17.1981 189.878 17.5688 189.878 17.9394 189.996C17.0127 191.174 16.2714 192.352 15.3446 193.648C6.44812 207.193 3.66795 221.327 6.07743 234.873C-25.4311 242.647 -52.306 258.312 -66.3921 279.749C-94.0084 321.681 -62.8706 369.856 2.92657 387.406C7.74552 416.264 36.6592 442.648 81.6978 454.662C116.728 463.967 154.353 462.79 186.232 453.367C198.094 473.037 222.189 489.645 255.18 498.479C287.986 507.195 323.387 506.488 353.598 498.125C359.899 518.031 381.029 535.582 412.722 544.062C462.395 557.254 519.295 542.884 541.351 512.024C596.398 515.44 650.89 496.005 673.316 461.847C687.402 440.41 686.105 417.324 672.76 397.536C680.359 391.647 686.846 384.933 691.665 377.512C697.967 367.854 701.303 357.842 701.674 347.948C728.734 342.647 752.087 329.926 763.949 312.023C785.264 279.985 761.355 243 710.756 229.572ZM398.822 359.255C398.08 359.138 397.524 359.02 396.783 358.902C398.266 357.135 399.563 355.368 400.675 353.484C401.416 352.188 402.343 351.01 402.899 349.715C405.309 351.01 407.718 352.306 410.313 353.484C406.421 355.251 402.528 357.135 398.822 359.255Z" fill="white"/>
<path d="M175.719 149.486C175.719 153.373 170.715 156.554 164.598 156.554C158.482 156.554 153.478 153.373 153.478 149.486C153.478 145.599 158.482 142.419 164.598 142.419C170.715 142.419 175.719 145.599 175.719 149.486Z" fill="#F2E9F0"/>
<path d="M487.097 245.482C487.097 249.369 482.092 252.55 475.976 252.55C469.86 252.55 464.855 249.369 464.855 245.482C464.855 241.595 469.86 238.415 475.976 238.415C482.092 238.415 487.097 241.595 487.097 245.482Z" fill="#F2E9F0"/>
<path d="M214.641 171.63C214.641 173.632 212.046 175.399 208.71 175.399C205.559 175.399 202.779 173.75 202.779 171.63C202.779 169.628 205.373 167.861 208.71 167.861C212.046 167.979 214.641 169.628 214.641 171.63Z" fill="#F2E9F0"/>
<path d="M435.201 181.289C435.201 183.291 432.606 185.058 429.27 185.058C426.119 185.058 423.339 183.409 423.339 181.289C423.339 179.286 425.933 177.519 429.27 177.519C432.606 177.519 435.201 179.168 435.201 181.289Z" fill="#F2E9F0"/>
<path d="M592.372 338.651C592.372 337.827 592.558 337.12 592.558 336.413C606.273 331.466 615.54 322.044 615.54 311.207C615.54 301.078 607.385 292.244 595.153 287.061C596.265 285.648 596.821 283.999 596.821 282.232C596.821 275.989 588.851 270.924 579.028 270.924C575.135 270.924 571.429 271.749 568.463 273.162C561.049 263.621 545.48 257.143 527.687 257.143C512.304 257.143 498.588 261.972 490.433 269.511C474.493 263.504 458.369 257.968 439.093 257.261C425.933 256.79 413.33 258.321 401.839 261.266C395.166 243.833 371.257 230.523 341.602 229.463C330.481 229.11 319.917 230.523 310.464 233.35C303.05 231.23 295.08 229.935 286.555 229.581C280.809 229.346 275.249 229.699 270.059 230.288C261.348 214.976 238.921 203.786 211.861 202.844C177.202 201.666 147.361 217.803 143.284 239.357C134.572 236.177 124.749 234.175 113.999 233.822C77.8572 232.644 46.9047 250.194 44.8659 273.28C43.0125 296.248 70.6287 315.919 106.956 317.214C107.142 317.214 107.512 317.214 107.698 317.214C107.512 318.039 107.512 318.981 107.327 319.806C106.585 329.464 109.736 338.651 116.038 346.779C99.1717 356.084 87.8657 369.629 86.5683 384.941C83.9735 414.859 120.301 440.537 167.378 442.186C180.538 459.5 207.598 471.868 239.848 472.928C264.869 473.753 287.852 467.745 304.533 457.38C318.804 467.863 339.563 474.93 363.102 475.755C386.64 476.579 408.326 471.043 424.265 461.62C435.201 473.046 454.476 481.055 477.088 481.88C512.489 483.058 542.885 466.096 546.036 443.835C581.437 438.181 608.497 418.393 610.536 394.011C611.833 378.699 602.937 364.564 587.739 354.081C590.148 349.017 591.816 343.952 592.372 338.651Z" fill="#F2E9F0"/>
<path d="M1514.34 315.969C1514.9 314.791 1515.27 313.614 1515.45 312.318C1516.94 302.424 1505.63 293.708 1490.06 292.765C1487.65 292.648 1485.24 292.648 1483.02 292.883C1487.1 285.816 1488.58 278.042 1487.28 269.915C1483.39 246.829 1455.96 229.043 1422.04 224.803C1417.41 203.719 1387.2 188.642 1353.65 190.998C1332.33 192.529 1314.54 200.656 1305.27 211.964C1289.33 203.601 1268.39 199.125 1246.15 200.656C1223.91 202.188 1204.82 209.49 1192.03 219.973C1175.53 210.668 1153.11 205.721 1129.57 207.37C1101.4 209.373 1078.23 220.209 1066.18 235.168C1061.18 230.103 1052.46 226.687 1042.46 226.687C1027.07 226.687 1014.47 234.579 1014.47 244.473C1014.47 244.591 1014.47 244.826 1014.47 244.944C1004.46 238.819 990.745 235.05 975.732 235.05C950.155 235.05 928.655 245.886 921.983 260.728C912.53 256.016 900.668 253.307 887.694 253.307C856.741 253.307 831.72 269.208 831.72 288.878C831.72 308.549 856.741 324.45 887.694 324.45C889.177 324.45 890.474 324.45 891.771 324.332C891.586 325.039 891.401 325.746 891.401 326.452C891.401 333.637 900.483 339.409 911.789 339.409C914.198 339.409 916.608 339.055 918.832 338.584C922.909 353.072 940.888 364.615 963.685 367.206C961.832 368.855 960.905 370.858 960.905 372.978C960.905 378.396 967.577 382.872 976.103 383.225C970.172 390.057 967.577 398.066 968.875 406.429C972.581 428.22 1003.35 443.885 1037.64 441.53C1063.4 439.763 1083.6 428.22 1090.65 413.496C1103.25 425.04 1125.12 431.989 1148.66 430.34C1171.27 428.809 1189.8 419.739 1198.52 407.372C1208.52 410.316 1219.83 411.612 1231.51 410.787C1249.11 409.61 1264.13 403.72 1274.14 395.475C1288.78 401.129 1306.39 403.838 1324.92 402.542C1330.85 402.071 1336.6 401.247 1342.16 400.069C1355.13 409.256 1374.59 414.439 1395.35 413.025C1416.48 411.612 1433.9 403.602 1443.36 392.531C1446.88 393.944 1450.95 394.886 1455.59 395.122C1466.52 395.829 1476.53 392.413 1482.09 386.995C1487.65 388.644 1493.77 389.704 1500.26 390.057C1532.51 392.059 1561.23 377.1 1564.57 356.606C1567.72 336.582 1545.29 318.796 1514.34 315.969ZM1292.49 301.835C1292.3 301.482 1292.3 301.01 1292.11 300.657C1292.49 300.657 1293.04 300.657 1293.41 300.657C1293.78 300.893 1293.97 301.246 1294.34 301.482C1293.78 301.599 1293.04 301.717 1292.49 301.835Z" fill="#F2E9F0"/>
<path d="M1306.94 180.044C1306.94 183.931 1301.94 187.111 1295.82 187.111C1289.7 187.111 1284.7 183.931 1284.7 180.044C1284.7 176.157 1289.7 172.977 1295.82 172.977C1301.94 172.977 1306.94 176.157 1306.94 180.044Z" fill="#F2E9F0"/>
<path d="M1365.88 145.886C1365.88 147.888 1363.29 149.655 1359.95 149.655C1356.8 149.655 1354.02 148.006 1354.02 145.886C1354.02 143.883 1356.62 142.117 1359.95 142.117C1363.29 142.234 1365.88 143.883 1365.88 145.886Z" fill="#F2E9F0"/>
<path d="M1170.71 194.767C1170.71 196.769 1168.12 198.536 1164.78 198.536C1161.63 198.536 1158.85 196.887 1158.85 194.767C1158.85 192.765 1161.45 190.998 1164.78 190.998C1168.12 190.998 1170.71 192.765 1170.71 194.767Z" fill="#F2E9F0"/>
</svg>
