<svg width="360" height="119" viewBox="0 0 360 119" fill="none" xmlns="http://www.w3.org/2000/svg">
<path d="M122.096 117.096C124.794 111.993 125.089 106.253 123.421 101.2C126.266 99.3846 128.67 96.7843 130.387 93.5953C130.78 92.8103 131.123 92.0253 131.467 91.2403C138.826 94.2331 147.461 91.2403 151.238 84.0283C155.262 76.3746 152.318 66.9058 144.664 62.8827C138.924 59.8409 132.154 60.773 127.444 64.6489C127.395 59.1049 124.353 53.7572 119.054 50.9607C114.001 48.3114 108.162 48.7039 103.6 51.4513C102.177 49.0964 100.116 47.0848 97.4669 45.7111C93.542 43.6505 89.0774 43.4052 85.2015 44.7299C83.3862 40.805 80.2953 37.4197 76.2232 35.261C74.8986 34.5741 73.5248 34.0344 72.102 33.6419C71.4152 28.8339 68.5205 24.3693 63.9087 21.9162C56.2551 17.8932 46.7862 20.8369 42.7632 28.4905C42.5178 28.932 42.3216 29.3245 42.1744 29.7661C36.0908 30.7473 30.4977 34.525 27.4069 40.4124C26.4747 42.1787 25.8369 43.994 25.4444 45.8583C20.342 47.3792 15.7792 50.8626 13.0809 55.9159C8.81249 64.0111 10.5296 73.7253 16.7114 79.858C13.0318 87.4135 15.9755 96.5881 23.4819 100.562C28.2409 103.064 33.7358 102.868 38.2004 100.513C39.6723 105.517 43.0575 109.933 48.0128 112.533C53.017 115.133 58.6101 115.428 63.5653 113.809C64.9881 119.156 68.5205 123.915 73.8192 126.712C80.6388 130.293 88.5867 129.656 94.5723 125.682C104.532 130.882 116.846 127.055 122.096 117.096ZM60.2782 73.0875C60.2782 72.9403 60.2782 72.8422 60.2782 72.695C60.4254 72.7441 60.5725 72.7931 60.7688 72.8422C60.7197 72.9894 60.6216 73.1366 60.5725 73.2838C60.4254 73.2347 60.3763 73.1856 60.2782 73.0875Z" fill="#EFF0F0"/>
<path d="M303.938 81.6497C301.878 76.2529 297.757 72.2789 292.851 70.2183C293.341 66.8821 292.998 63.3497 291.673 59.9644C291.379 59.1304 290.986 58.3454 290.594 57.6095C297.708 54.028 301.093 45.5894 298.149 37.9848C295.058 29.9387 285.982 25.9156 277.887 29.0065C271.852 31.3615 268.074 37.0526 267.878 43.1363C263.659 39.5057 257.624 38.2792 252.08 40.4379C246.733 42.4985 243.2 47.1593 242.268 52.4089C239.57 51.9183 236.675 52.1636 233.927 53.243C229.757 54.862 226.715 58.051 225.096 61.8288C220.975 60.6022 216.412 60.7004 212.046 62.3684C210.623 62.9081 209.348 63.595 208.121 64.38C204.049 61.6816 198.799 60.9457 193.893 62.8591C185.847 65.9499 181.824 75.0264 184.915 83.1215C185.111 83.5631 185.258 84.0047 185.504 84.3971C182.266 89.6467 181.432 96.3191 183.786 102.501C184.522 104.365 185.455 106.033 186.632 107.554C184.375 112.411 184.032 118.103 186.092 123.499C189.379 132.036 197.818 137.138 206.551 136.501C209.838 144.252 218.669 148.03 226.617 144.988C231.671 143.026 235.105 138.757 236.233 133.851C240.943 136.059 246.487 136.402 251.737 134.342C256.986 132.33 260.911 128.307 262.923 123.45C267.878 125.903 273.815 126.394 279.359 124.235C286.571 121.439 291.281 115.061 292.262 107.898C302.761 103.973 307.962 92.1489 303.938 81.6497ZM230.101 99.2628C230.003 99.1647 229.904 99.0666 229.806 99.0175C229.953 98.9194 230.101 98.8703 230.248 98.7722C230.297 98.9194 230.395 99.0666 230.444 99.2138C230.297 99.2138 230.199 99.2138 230.101 99.2628Z" fill="#EFF0F0"/>
<path d="M379.482 98.0774C375.753 89.1482 368.639 82.623 360.299 79.3849C360.937 73.7429 360.201 67.8555 357.846 62.2134C357.257 60.8396 356.619 59.564 355.883 58.2884C367.658 51.9595 372.957 37.5844 367.658 24.9756C362.065 11.5817 346.66 5.25278 333.266 10.8949C323.208 15.1142 317.125 24.8284 317.125 35.1313C309.863 29.293 299.659 27.4777 290.484 31.3536C281.604 35.0823 275.864 43.0793 274.588 51.9104C270.025 51.2236 265.168 51.7632 260.605 53.6766C253.688 56.5713 248.684 62.0662 246.181 68.5423C239.166 66.727 231.512 67.0705 224.3 70.1123C221.945 71.0935 219.786 72.3201 217.775 73.6938C210.808 69.3764 201.928 68.3951 193.784 71.7804C180.39 77.3734 174.061 92.7788 179.703 106.173C179.997 106.909 180.341 107.644 180.733 108.331C175.533 117.31 174.404 128.496 178.722 138.799C179.997 141.889 181.714 144.686 183.726 147.139C180.193 155.381 179.85 164.998 183.579 173.927C189.515 188.155 203.939 196.25 218.511 194.827C224.398 207.681 239.46 213.667 252.559 208.172C260.949 204.688 266.542 197.329 268.21 189.038C276.256 192.472 285.578 192.816 294.262 189.185C302.995 185.554 309.373 178.588 312.513 170.394C320.951 174.319 330.911 174.81 340.184 170.934C352.155 165.93 359.759 154.94 361.035 142.92C378.55 135.561 386.792 115.494 379.482 98.0774ZM256.337 131.096C256.19 130.949 255.994 130.802 255.797 130.654C256.043 130.507 256.239 130.36 256.484 130.213C256.582 130.458 256.73 130.703 256.828 130.949C256.681 130.998 256.484 131.047 256.337 131.096Z" fill="#F2E9F0"/>
<path d="M392.812 121.839C390.408 113.155 384.618 106.287 377.259 102.313C378.535 97.1612 378.535 91.6172 377.014 86.1223C376.621 84.7977 376.18 83.5221 375.689 82.2465C387.366 77.7818 393.94 65.0749 390.506 52.8095C386.875 39.7591 373.334 32.1054 360.284 35.736C352.434 37.8947 346.546 43.6349 343.897 50.7489C343.161 49.7676 341.935 49.0808 340.61 49.0808C338.795 49.0808 337.274 50.2092 336.734 51.8282C331.288 48.7864 324.714 47.8542 318.238 49.6205C313.969 50.7979 310.241 53.0548 307.346 55.9985C304.108 51.9754 299.153 49.3751 293.609 49.3751C283.895 49.3751 276.045 57.225 276.045 66.9392C276.045 68.5092 276.241 70.0301 276.634 71.4529C275.358 69.8339 273.395 68.7545 271.188 68.7545C267.41 68.7545 264.319 71.8454 264.319 75.6231C264.319 76.0156 264.368 76.4081 264.417 76.7515C260.492 76.31 256.42 76.6044 252.397 77.7328C250.091 78.3706 247.982 79.2537 245.97 80.284C240.034 75.4759 231.938 73.5135 223.99 75.7213C215.944 77.9781 209.959 83.9636 207.358 91.3229C205.838 90.6851 204.12 90.3907 202.354 90.4888C198.037 90.7832 194.455 93.4816 192.836 97.1612C190.481 96.5234 188.028 96.2781 185.477 96.4253C172.721 97.2593 163.056 108.249 163.841 121.005C164.626 133.418 175.076 142.936 187.439 142.69C187.341 143.426 187.292 144.211 187.341 144.996C187.734 151.129 193.032 155.79 199.165 155.397C200.097 155.348 201.03 155.152 201.864 154.858C201.03 159.47 201.177 164.327 202.501 169.135C206.328 183.019 218.741 192.194 232.429 192.586C236.354 205.195 249.601 212.456 262.406 208.924C270.55 206.667 276.634 200.534 279.136 193.077C286.151 197.198 294.786 198.621 303.274 196.266C311.811 193.911 318.483 188.22 322.359 181.008C329.718 185.619 338.893 187.238 347.92 184.736C359.597 181.498 367.937 172.226 370.538 161.236C387.611 156.526 397.571 138.864 392.812 121.839ZM274.916 138.03C274.769 137.882 274.622 137.735 274.475 137.588C274.72 137.49 274.916 137.392 275.162 137.245C275.26 137.49 275.309 137.735 275.407 137.98C275.26 137.98 275.113 138.03 274.916 138.03Z" fill="white"/>
<path d="M152.431 72.243C141.932 67.8275 130.157 70.7712 122.896 78.7191C119.265 72.7336 113.77 67.7784 106.804 64.8838C101.947 62.8232 96.8442 62.0382 91.8889 62.2835C93.0664 51.0484 86.8356 39.9114 75.8949 35.2996C71.7737 33.5824 67.4562 32.9937 63.3351 33.3862C61.0292 31.1293 58.2817 29.265 55.0927 27.9403C52.983 27.0572 50.8243 26.4685 48.6656 26.1741C48.6166 15.9202 42.5329 6.25508 32.5243 2.03577C19.7193 -3.31195 5.04981 2.23202 -1.13196 14.4974C-3.73223 11.4556 -7.06842 8.90441 -10.9934 7.28538C-24.3872 1.69235 -39.7925 7.97223 -45.3856 21.4151C-50.9786 34.809 -44.6987 50.2143 -31.3049 55.8074C-31.2068 55.8564 -31.1086 55.8564 -31.0105 55.9055C-31.2558 56.3961 -31.4521 56.8867 -31.6974 57.4264C-34.0523 63.0685 -34.7883 68.9559 -34.1505 74.598C-42.4909 77.836 -49.6049 84.3612 -53.3336 93.2905C-60.6437 110.756 -52.4014 130.823 -34.9845 138.133C-33.7089 150.153 -26.0553 161.143 -14.1333 166.147C-4.86065 170.023 5.09888 169.532 13.5375 165.607C16.6774 173.801 23.0554 180.718 31.7884 184.398C40.4723 188.029 49.8431 187.734 57.8402 184.251C59.5083 192.542 65.1013 199.852 73.4908 203.385C86.6394 208.88 101.701 202.894 107.54 190.04C122.111 191.463 136.535 183.368 142.472 169.14C146.2 160.211 145.857 150.594 142.324 142.352C144.336 139.899 146.053 137.103 147.329 134.012C148.997 129.989 149.88 125.818 149.978 121.697C157.141 119.489 163.323 114.191 166.463 106.733C172.105 93.2414 165.825 77.836 152.431 72.243ZM69.8603 126.211C69.664 126.162 69.5168 126.113 69.3206 126.064C69.7131 125.328 70.0565 124.592 70.3509 123.807C70.5471 123.267 70.7924 122.777 70.9396 122.237C71.5774 122.777 72.2152 123.316 72.9021 123.807C71.8718 124.592 70.8415 125.377 69.8603 126.211Z" fill="#F2E9F0"/>
<path d="M157.288 95.302C146.789 90.8865 135.014 93.8302 127.753 101.778C124.123 95.7926 118.628 90.8374 111.661 87.9428C106.804 85.8822 101.701 85.0972 96.7461 85.3425C97.9236 74.1074 91.6928 62.9704 80.752 58.3586C76.6309 56.6414 72.3134 56.0527 68.1923 56.4452C65.8864 54.1884 63.1389 52.324 59.9499 50.9993C57.8402 50.1162 55.6815 49.5275 53.5228 49.2331C53.4738 38.9792 47.3901 29.3141 37.3815 25.0948C24.5764 19.7471 9.907 25.291 3.72523 37.5565C1.17403 34.4165 -2.16217 31.9144 -6.0871 30.2463C-19.4809 24.6532 -34.8863 30.9331 -40.4793 44.327C-46.0723 57.7208 -39.7925 73.1261 -26.3986 78.7192C-26.3005 78.7682 -26.2024 78.7682 -26.1043 78.8173C-26.3496 79.3079 -26.5458 79.7985 -26.7911 80.3382C-29.1461 85.9803 -29.882 91.8677 -29.2442 97.5098C-37.5847 100.748 -44.6986 107.273 -48.4273 116.202C-55.7375 133.668 -47.4951 153.734 -30.0783 161.045C-28.8026 173.065 -21.149 184.055 -9.22704 189.059C0.0456085 192.935 10.0051 192.444 18.4437 188.519C21.5837 196.712 27.9617 203.63 36.6947 207.31C45.3786 210.94 54.7494 210.646 62.7464 207.163C64.4145 215.454 70.0075 222.764 78.3971 226.297C91.5456 231.792 106.608 225.806 112.446 212.952C127.017 214.375 141.441 206.279 147.378 192.052C151.106 183.122 150.763 173.506 147.231 165.264C149.242 162.811 150.959 160.014 152.235 156.923C153.903 152.9 154.786 148.73 154.884 144.609C162.047 142.401 168.229 137.103 171.369 129.645C177.011 116.3 170.682 100.895 157.288 95.302ZM74.7175 149.319C74.5212 149.27 74.374 149.221 74.1778 149.172C74.5703 148.436 74.9137 147.7 75.2081 146.915C75.4043 146.375 75.6496 145.885 75.7968 145.345C76.4346 145.885 77.0724 146.424 77.7593 146.915C76.729 147.651 75.6987 148.436 74.7175 149.319Z" fill="white"/>
<path d="M15.6608 61.9437C15.6608 63.5627 14.3362 64.8874 12.7171 64.8874C11.0981 64.8874 9.77344 63.5627 9.77344 61.9437C9.77344 60.3247 11.0981 59 12.7171 59C14.3362 59 15.6608 60.3247 15.6608 61.9437Z" fill="#F2E9F0"/>
<path d="M98.0844 101.929C98.0844 103.548 96.7598 104.873 95.1407 104.873C93.5217 104.873 92.197 103.548 92.197 101.929C92.197 100.31 93.5217 98.9853 95.1407 98.9853C96.7598 98.9853 98.0844 100.31 98.0844 101.929Z" fill="#F2E9F0"/>
<path d="M25.9637 71.1673C25.9637 72.0013 25.2768 72.7372 24.3937 72.7372C23.5597 72.7372 22.8237 72.0504 22.8237 71.1673C22.8237 70.3332 23.5106 69.5973 24.3937 69.5973C25.2768 69.6464 25.9637 70.3332 25.9637 71.1673Z" fill="#F2E9F0"/>
<path d="M84.3472 75.1903C84.3472 76.0244 83.6604 76.7603 82.7772 76.7603C81.9432 76.7603 81.2073 76.0735 81.2073 75.1903C81.2073 74.3563 81.8941 73.6204 82.7772 73.6204C83.6604 73.6204 84.3472 74.3072 84.3472 75.1903Z" fill="#F2E9F0"/>
<path d="M125.951 140.737C125.951 140.393 126.001 140.099 126.001 139.805C129.631 137.744 132.084 133.819 132.084 129.305C132.084 125.086 129.925 121.406 126.687 119.248C126.982 118.659 127.129 117.972 127.129 117.236C127.129 114.636 125.019 112.526 122.419 112.526C121.389 112.526 120.408 112.87 119.623 113.458C117.66 109.484 113.539 106.786 108.829 106.786C104.757 106.786 101.126 108.798 98.9675 111.938C94.7482 109.435 90.4799 107.13 85.3775 106.835C81.8941 106.639 78.5579 107.277 75.5161 108.503C73.7498 101.242 67.4209 95.6982 59.571 95.2566C56.6273 95.1094 53.8308 95.6982 51.3287 96.8756C49.3662 95.9925 47.2566 95.4529 44.9997 95.3057C43.4788 95.2075 42.007 95.3547 40.6332 95.6C38.3273 89.222 32.3909 84.5612 25.2279 84.1687C16.0533 83.678 8.15442 90.3995 7.07506 99.3778C4.76916 98.0531 2.16889 97.2191 -0.676683 97.0719C-10.2437 96.5813 -18.437 103.891 -18.9767 113.508C-19.4673 123.075 -12.1571 131.268 -2.54103 131.808C-2.49196 131.808 -2.39384 131.808 -2.34478 131.808C-2.39384 132.151 -2.39384 132.543 -2.44291 132.887C-2.63915 136.91 -1.8051 140.737 -0.137007 144.122C-4.60162 147.998 -7.59438 153.64 -7.93781 160.018C-8.62467 172.48 0.991411 183.175 13.4531 183.862C16.9365 191.074 24.0995 196.226 32.6362 196.667C39.2595 197.01 45.3431 194.508 49.7587 190.191C53.5364 194.557 59.0314 197.501 65.2622 197.845C71.493 198.188 77.2332 195.882 81.4525 191.957C84.3472 196.716 89.4496 200.052 95.4351 200.396C104.806 200.886 112.852 193.821 113.686 184.549C123.057 182.194 130.22 173.952 130.76 163.796C131.103 157.418 128.748 151.53 124.725 147.164C125.363 145.054 125.804 142.945 125.951 140.737Z" fill="#F2E9F0"/>
<path d="M370.002 131.289C370.149 130.798 370.248 130.308 370.297 129.768C370.689 125.647 367.696 122.016 363.575 121.624C362.937 121.575 362.3 121.575 361.711 121.673C362.79 118.729 363.183 115.491 362.839 112.106C361.809 102.49 354.548 95.0815 345.57 93.3153C344.343 84.5332 336.346 78.2533 327.466 79.2346C321.824 79.8724 317.114 83.2576 314.661 87.9675C310.441 84.4842 304.897 82.6198 299.01 83.2576C293.123 83.8954 288.069 86.9372 284.684 91.3037C280.317 87.4279 274.381 85.3673 268.15 86.0541C260.693 86.8882 254.56 91.4019 251.371 97.6327C250.046 95.523 247.741 94.1003 245.091 94.1003C241.019 94.1003 237.683 97.3874 237.683 101.509C237.683 101.558 237.683 101.656 237.683 101.705C235.034 99.1536 231.403 97.5836 227.429 97.5836C220.659 97.5836 214.967 102.097 213.201 108.279C210.699 106.317 207.559 105.188 204.125 105.188C195.931 105.188 189.308 111.812 189.308 120.005C189.308 128.198 195.931 134.821 204.125 134.821C204.517 134.821 204.861 134.821 205.204 134.772C205.155 135.067 205.106 135.361 205.106 135.655C205.106 138.648 207.51 141.052 210.503 141.052C211.141 141.052 211.778 140.905 212.367 140.709C213.446 146.743 218.205 151.551 224.24 152.631C223.749 153.318 223.504 154.152 223.504 155.035C223.504 157.292 225.27 159.156 227.527 159.303C225.957 162.149 225.27 165.485 225.614 168.968C226.595 178.045 234.739 184.57 243.816 183.589C250.635 182.853 255.983 178.045 257.847 171.912C261.183 176.72 266.973 179.615 273.204 178.928C279.189 178.29 284.095 174.512 286.401 169.361C289.05 170.587 292.043 171.127 295.134 170.784C299.795 170.293 303.769 167.84 306.418 164.406C310.294 166.761 314.955 167.889 319.861 167.349C321.431 167.153 322.952 166.81 324.424 166.319C327.858 170.146 333.01 172.305 338.505 171.716C344.098 171.127 348.709 167.791 351.212 163.179C352.144 163.768 353.223 164.16 354.45 164.258C357.344 164.553 359.994 163.13 361.465 160.873C362.937 161.56 364.556 162.002 366.274 162.149C374.81 162.983 382.415 156.752 383.298 148.215C384.132 139.875 378.195 132.466 370.002 131.289ZM311.275 125.402C311.226 125.254 311.226 125.058 311.177 124.911C311.275 124.911 311.423 124.911 311.521 124.911C311.619 125.009 311.668 125.156 311.766 125.254C311.619 125.303 311.423 125.353 311.275 125.402Z" fill="#F2E9F0"/>
<path d="M315.102 74.6718C315.102 76.2909 313.778 77.6155 312.159 77.6155C310.54 77.6155 309.215 76.2909 309.215 74.6718C309.215 73.0528 310.54 71.7281 312.159 71.7281C313.778 71.7281 315.102 73.0528 315.102 74.6718Z" fill="#F2E9F0"/>
<path d="M330.704 60.4439C330.704 61.278 330.017 62.0139 329.134 62.0139C328.3 62.0139 327.564 61.327 327.564 60.4439C327.564 59.6099 328.251 58.874 329.134 58.874C330.017 58.923 330.704 59.6099 330.704 60.4439Z" fill="#F2E9F0"/>
<path d="M279.042 80.8045C279.042 81.6386 278.355 82.3745 277.472 82.3745C276.638 82.3745 275.902 81.6876 275.902 80.8045C275.902 79.9705 276.589 79.2346 277.472 79.2346C278.355 79.2346 279.042 79.9705 279.042 80.8045Z" fill="#F2E9F0"/>
</svg>
