<svg width="1600" height="211" viewBox="0 0 1600 211" fill="none" xmlns="http://www.w3.org/2000/svg">
<path d="M614.677 222.148C625.339 212.468 626.502 201.577 619.911 191.991C631.154 188.547 640.653 183.614 647.437 177.564C648.988 176.074 650.345 174.585 651.702 173.096C680.779 178.774 714.896 173.096 729.823 159.414C745.718 144.894 734.087 126.93 703.847 119.297C681.167 113.527 654.416 115.295 635.806 122.648C635.613 112.13 623.594 101.985 602.658 96.6797C582.692 91.6536 559.624 92.3982 541.596 97.6105C535.975 93.1428 527.833 89.3267 517.365 86.7205C501.857 82.8113 484.217 82.3459 468.903 84.859C461.731 77.4128 449.518 70.9905 433.429 66.8951C428.195 65.592 422.767 64.5682 417.146 63.8236C414.432 54.702 402.995 46.232 384.773 41.5782C354.533 33.9458 317.12 39.5305 301.225 54.0505C300.255 54.8882 299.48 55.6328 298.898 56.4705C274.861 58.332 252.763 65.4989 240.55 76.6682C236.867 80.0189 234.347 83.4628 232.796 86.9997C212.636 89.8851 194.608 96.4936 183.946 106.081C167.082 121.438 173.866 139.867 198.291 151.502C183.753 165.836 195.384 183.241 225.042 190.781C243.846 195.528 265.557 195.155 283.197 190.688C289.012 200.181 302.388 208.558 321.966 213.491C341.739 218.424 363.838 218.983 383.416 215.911C389.038 226.057 402.995 235.085 423.93 240.391C450.875 247.185 482.279 245.975 505.928 238.436C545.279 248.302 593.935 241.042 614.677 222.148ZM370.428 138.657C370.428 138.378 370.428 138.192 370.428 137.913C371.01 138.006 371.591 138.099 372.367 138.192C372.173 138.471 371.785 138.751 371.591 139.03C371.01 138.937 370.816 138.844 370.428 138.657Z" fill="#EFF0F0"/>
<path d="M1333.16 154.901C1325.02 144.663 1308.73 137.123 1289.35 133.214C1291.29 126.885 1289.93 120.183 1284.7 113.761C1283.53 112.179 1281.98 110.69 1280.43 109.293C1308.54 102.499 1321.91 86.4896 1310.28 72.0626C1298.07 56.798 1262.21 49.1657 1230.22 55.0295C1206.38 59.4972 1191.45 70.2942 1190.68 81.8357C1174.01 74.948 1150.16 72.6211 1128.26 76.7165C1107.13 80.6257 1093.17 89.468 1089.49 99.4273C1078.83 98.4965 1067.39 98.9619 1056.54 101.01C1040.06 104.081 1028.04 110.131 1021.64 117.298C1005.36 114.971 987.332 115.157 970.08 118.322C964.458 119.346 959.418 120.649 954.572 122.138C938.483 117.019 917.741 115.623 898.356 119.253C866.565 125.117 850.669 142.336 862.882 157.693C863.657 158.531 864.239 159.369 865.208 160.113C852.414 170.073 849.119 182.731 858.423 194.459C861.331 197.996 865.014 201.16 869.666 204.046C860.749 213.26 859.392 224.057 867.534 234.296C880.522 250.491 913.864 260.171 948.369 258.961C961.357 273.667 996.249 280.834 1027.65 275.064C1047.62 271.34 1061.19 263.243 1065.65 253.935C1084.26 258.124 1106.16 258.775 1126.9 254.866C1147.64 251.05 1163.15 243.417 1171.1 234.203C1190.68 238.857 1214.13 239.787 1236.04 235.692C1264.54 230.387 1283.14 218.287 1287.02 204.697C1328.5 197.251 1349.05 174.82 1333.16 154.901ZM1041.42 188.316C1041.03 188.13 1040.64 187.943 1040.25 187.85C1040.83 187.664 1041.42 187.571 1042 187.385C1042.19 187.664 1042.58 187.943 1042.77 188.223C1042.19 188.223 1041.8 188.223 1041.42 188.316Z" fill="#EFF0F0"/>
<path d="M1631.64 186.067C1616.91 169.127 1588.8 156.748 1555.84 150.605C1558.36 139.901 1555.46 128.732 1546.15 118.028C1543.82 115.422 1541.3 113.002 1538.4 110.582C1584.92 98.5746 1605.86 71.303 1584.92 47.3822C1562.82 21.9722 1501.95 9.96529 1449.03 20.6691C1409.29 28.6738 1385.26 47.103 1385.26 66.6492C1356.57 55.573 1316.25 52.1291 1280 59.4822C1244.91 66.5561 1222.23 81.7276 1217.19 98.4815C1199.16 97.1784 1179.97 98.2022 1161.94 101.832C1134.61 107.324 1114.84 117.748 1104.95 130.035C1077.23 126.591 1046.99 127.242 1018.5 133.013C1009.19 134.875 1000.66 137.202 992.714 139.808C965.188 131.617 930.101 129.755 897.923 136.178C845.002 146.788 819.996 176.015 842.288 201.425C843.451 202.821 844.808 204.217 846.359 205.52C825.811 222.553 821.352 243.775 838.411 263.321C843.451 269.185 850.236 274.49 858.184 279.144C844.227 294.781 842.87 313.024 857.602 329.964C881.058 356.956 938.049 372.314 995.622 369.615C1018.88 394.001 1078.4 405.356 1130.15 394.932C1163.3 388.323 1185.4 374.362 1191.99 358.632C1223.78 365.147 1260.61 365.799 1294.92 358.911C1329.43 352.023 1354.63 338.806 1367.03 323.262C1400.38 330.709 1439.73 331.639 1476.37 324.286C1523.66 314.792 1553.71 293.943 1558.75 271.139C1627.95 257.178 1660.52 219.109 1631.64 186.067ZM1145.08 248.708C1144.5 248.429 1143.72 248.149 1142.95 247.87C1143.92 247.591 1144.69 247.312 1145.66 247.032C1146.05 247.498 1146.63 247.963 1147.02 248.429C1146.44 248.522 1145.66 248.615 1145.08 248.708Z" fill="#F2E9F0"/>
<path d="M1684.3 231.146C1674.81 214.672 1651.93 201.641 1622.85 194.102C1627.89 184.329 1627.89 173.811 1621.89 163.386C1620.33 160.873 1618.59 158.453 1616.65 156.033C1662.79 147.563 1688.76 123.456 1675.19 100.187C1660.85 75.4286 1607.35 60.9086 1555.78 67.7963C1524.77 71.8917 1501.51 82.7817 1491.04 96.2779C1488.13 94.4163 1483.28 93.1133 1478.05 93.1133C1470.88 93.1133 1464.87 95.254 1462.74 98.3256C1441.22 92.5548 1415.24 90.7863 1389.66 94.1371C1372.79 96.371 1358.06 100.652 1346.62 106.237C1333.83 98.6048 1314.25 93.6717 1292.34 93.6717C1253.96 93.6717 1222.95 108.564 1222.95 126.993C1222.95 129.972 1223.72 132.857 1225.27 135.556C1220.23 132.485 1212.48 130.437 1203.75 130.437C1188.83 130.437 1176.62 136.301 1176.62 143.468C1176.62 144.213 1176.81 144.957 1177 145.609C1161.5 144.771 1145.41 145.329 1129.51 147.47C1120.4 148.68 1112.06 150.356 1104.12 152.31C1080.66 143.189 1048.68 139.466 1017.27 143.654C985.482 147.936 961.833 159.291 951.559 173.253C945.549 172.043 938.765 171.484 931.786 171.67C914.727 172.229 900.577 177.348 894.18 184.329C884.875 183.119 875.182 182.653 865.102 182.933C814.702 184.515 776.514 205.364 779.615 229.564C782.717 253.113 824.006 271.17 872.856 270.704C872.469 272.1 872.275 273.59 872.469 275.079C874.019 286.713 894.955 295.556 919.186 294.811C922.869 294.718 926.552 294.346 929.848 293.787C926.552 302.537 927.134 311.751 932.368 320.873C947.488 347.213 996.531 364.619 1050.61 365.364C1066.12 389.284 1118.46 403.06 1169.06 396.358C1201.23 392.077 1225.27 380.442 1235.16 366.294C1262.88 374.113 1297 376.812 1330.53 372.344C1364.26 367.877 1390.62 357.08 1405.94 343.397C1435.02 352.147 1471.27 355.218 1506.93 350.471C1553.07 344.328 1586.02 326.737 1596.3 305.887C1663.76 296.952 1703.11 263.444 1684.3 231.146ZM1218.49 261.862C1217.91 261.583 1217.32 261.303 1216.74 261.024C1217.71 260.838 1218.49 260.652 1219.46 260.373C1219.84 260.838 1220.04 261.303 1220.43 261.769C1219.84 261.769 1219.26 261.862 1218.49 261.862Z" fill="white"/>
<path d="M734.534 137.055C693.051 128.678 646.527 134.263 617.838 149.341C603.493 137.986 581.782 128.585 554.256 123.094C535.065 119.185 514.904 117.695 495.326 118.161C499.978 96.8461 475.359 75.7176 432.131 66.9683C415.848 63.7106 398.789 62.5937 382.506 63.3383C373.395 59.0568 362.54 55.5199 349.94 53.0068C341.604 51.3314 333.075 50.2145 324.546 49.656C324.352 30.203 300.315 11.8668 260.77 3.86215C210.175 -6.28324 152.215 4.23446 127.79 27.5037C117.516 21.7329 104.334 16.8929 88.8263 13.8214C35.9058 3.21063 -24.9625 15.1245 -47.0612 40.6276C-69.1599 66.0376 -44.3473 95.2638 8.57319 105.875C8.96089 105.968 9.34859 105.968 9.73629 106.061C8.76705 106.991 7.99165 107.922 7.02241 108.946C-2.2823 119.65 -5.19002 130.819 -2.67 141.523C-35.6242 147.666 -63.7321 160.045 -78.4646 176.985C-107.348 210.121 -74.7815 248.189 -5.96542 262.058C-0.925365 284.862 29.3149 305.711 76.42 315.205C113.057 322.558 152.409 321.627 185.75 314.181C198.157 329.725 223.357 342.849 257.862 349.829C292.173 356.717 329.198 356.159 360.795 349.55C367.386 365.28 389.485 379.149 422.633 385.85C474.584 396.275 534.095 384.919 557.163 360.533C614.736 363.232 671.728 347.875 695.183 320.882C709.916 303.942 708.559 285.699 694.602 270.062C702.549 265.409 709.334 260.103 714.374 254.239C720.965 246.607 724.454 238.695 724.842 230.877C753.144 226.689 777.569 216.636 789.975 202.488C812.267 176.892 787.455 147.666 734.534 137.055ZM408.288 239.44C407.513 239.347 406.931 239.254 406.156 239.161C407.706 237.765 409.063 236.369 410.226 234.879C411.002 233.855 411.971 232.925 412.553 231.901C415.073 232.925 417.593 233.949 420.307 234.879C416.236 236.369 412.165 237.858 408.288 239.44Z" fill="#F2E9F0"/>
<path d="M753.726 180.802C712.242 172.425 665.719 178.009 637.029 193.088C622.685 181.732 600.973 172.332 573.447 166.84C554.256 162.931 534.096 161.442 514.517 161.907C519.17 140.592 494.551 119.464 451.323 110.715C435.039 107.457 417.981 106.34 401.698 107.085C392.587 102.803 381.731 99.2661 369.131 96.7531C360.796 95.0777 352.266 93.9608 343.737 93.4023C343.543 73.9492 319.506 55.6131 279.961 47.6084C229.367 37.463 171.406 47.9807 146.981 71.25C136.901 65.2931 123.719 60.5461 108.212 57.3815C55.291 46.7707 -5.57726 58.6846 -27.6759 84.0946C-49.7746 109.505 -24.9621 138.731 27.9585 149.342C28.3462 149.435 28.7338 149.435 29.1215 149.528C28.1523 150.459 27.3769 151.389 26.4077 152.413C17.103 163.117 14.1952 174.286 16.7153 184.99C-16.2389 191.133 -44.3469 203.512 -59.0793 220.452C-87.9627 253.588 -55.3962 291.656 13.4199 305.525C18.4599 328.329 48.7002 349.178 95.8053 358.672C132.443 366.025 171.794 365.094 205.136 357.648C217.542 373.192 242.742 386.316 277.247 393.296C311.558 400.184 348.583 399.626 380.18 393.017C386.771 408.747 408.87 422.616 442.018 429.317C493.969 439.742 553.481 428.386 576.549 404C634.122 406.699 691.113 391.342 714.569 364.349C729.301 347.409 727.944 329.166 713.987 313.529C721.935 308.876 728.719 303.57 733.759 297.706C740.35 290.074 743.84 282.162 744.227 274.344C772.529 270.155 796.954 260.103 809.36 245.955C831.653 220.639 806.646 191.412 753.726 180.802ZM427.479 283.279C426.704 283.186 426.122 283.093 425.347 283C426.898 281.604 428.255 280.208 429.418 278.719C430.193 277.695 431.163 276.764 431.744 275.74C434.264 276.764 436.784 277.788 439.498 278.719C435.427 280.115 431.356 281.604 427.479 283.279Z" fill="white"/>
<path d="M194.14 117.516C194.14 120.588 188.906 123.101 182.509 123.101C176.112 123.101 170.878 120.588 170.878 117.516C170.878 114.445 176.112 111.932 182.509 111.932C188.906 111.932 194.14 114.445 194.14 117.516Z" fill="#F2E9F0"/>
<path d="M519.805 193.374C519.805 196.445 514.571 198.959 508.174 198.959C501.777 198.959 496.543 196.445 496.543 193.374C496.543 190.302 501.777 187.789 508.174 187.789C514.571 187.789 519.805 190.302 519.805 193.374Z" fill="#F2E9F0"/>
<path d="M234.847 135.014C234.847 136.597 232.133 137.993 228.644 137.993C225.349 137.993 222.441 136.69 222.441 135.014C222.441 133.432 225.155 132.036 228.644 132.036C232.133 132.129 234.847 133.432 234.847 135.014Z" fill="#F2E9F0"/>
<path d="M465.528 142.647C465.528 144.229 462.814 145.625 459.325 145.625C456.029 145.625 453.122 144.322 453.122 142.647C453.122 141.065 455.835 139.668 459.325 139.668C462.814 139.668 465.528 140.971 465.528 142.647Z" fill="#F2E9F0"/>
<path d="M629.911 266.998C629.911 266.346 630.105 265.788 630.105 265.229C644.449 261.32 654.142 253.874 654.142 245.311C654.142 237.306 645.613 230.326 632.819 226.23C633.982 225.113 634.563 223.81 634.563 222.414C634.563 217.481 626.228 213.479 615.954 213.479C611.883 213.479 608.006 214.13 604.904 215.247C597.151 207.708 580.867 202.589 562.258 202.589C546.169 202.589 531.824 206.405 523.294 212.362C506.623 207.615 489.759 203.24 469.598 202.682C455.835 202.309 442.654 203.519 430.635 205.846C423.656 192.071 398.65 181.553 367.634 180.715C356.003 180.436 344.954 181.553 335.068 183.787C327.314 182.112 318.978 181.088 310.061 180.809C304.052 180.622 298.237 180.902 292.809 181.367C283.698 169.267 260.243 160.425 231.941 159.68C195.691 158.749 164.482 171.501 160.217 188.534C151.106 186.021 140.832 184.439 129.589 184.159C91.7885 183.229 59.4159 197.097 57.2835 215.34C55.345 233.49 84.2284 249.034 122.223 250.058C122.417 250.058 122.804 250.058 122.998 250.058C122.804 250.709 122.804 251.454 122.61 252.106C121.835 259.738 125.13 266.998 131.721 273.42C114.081 280.773 102.256 291.477 100.899 303.577C98.1855 327.219 136.18 347.509 185.417 348.813C199.18 362.495 227.482 372.268 261.212 373.106C287.381 373.757 311.418 369.01 328.865 360.819C343.791 369.103 365.502 374.688 390.121 375.339C414.739 375.991 437.42 371.616 454.091 364.17C465.528 373.199 485.688 379.528 509.337 380.179C546.362 381.11 578.153 367.707 581.449 350.116C618.474 345.648 646.776 330.011 648.908 310.744C650.265 298.644 640.96 287.475 625.065 279.191C627.585 275.189 629.329 271.186 629.911 266.998Z" fill="#F2E9F0"/>
<path d="M1594.18 249.074C1594.76 248.143 1595.15 247.213 1595.35 246.189C1596.9 238.37 1585.07 231.482 1568.79 230.738C1566.27 230.645 1563.75 230.645 1561.42 230.831C1565.69 225.246 1567.24 219.103 1565.88 212.681C1561.81 194.438 1533.12 180.383 1497.65 177.032C1492.8 160.372 1461.2 148.458 1426.12 150.319C1403.82 151.529 1385.21 157.952 1375.52 166.887C1358.85 160.279 1336.95 156.742 1313.68 157.952C1290.42 159.162 1270.46 164.932 1257.08 173.216C1239.83 165.863 1216.37 161.954 1191.75 163.257C1162.29 164.839 1138.06 173.402 1125.46 185.223C1120.22 181.221 1111.11 178.522 1100.65 178.522C1084.56 178.522 1071.37 184.758 1071.37 192.576C1071.37 192.669 1071.37 192.856 1071.37 192.949C1060.91 188.109 1046.56 185.13 1030.86 185.13C1004.11 185.13 981.622 193.693 974.644 205.421C964.758 201.698 952.351 199.557 938.782 199.557C906.409 199.557 880.24 212.122 880.24 227.666C880.24 243.21 906.409 255.776 938.782 255.776C940.333 255.776 941.69 255.776 943.047 255.683C942.853 256.241 942.659 256.799 942.659 257.358C942.659 263.036 952.157 267.596 963.982 267.596C966.502 267.596 969.022 267.317 971.348 266.945C975.613 278.393 994.416 287.515 1018.26 289.563C1016.32 290.866 1015.35 292.448 1015.35 294.123C1015.35 298.405 1022.33 301.942 1031.25 302.221C1025.04 307.619 1022.33 313.949 1023.69 320.557C1027.56 337.776 1059.74 350.156 1095.6 348.294C1122.55 346.898 1143.68 337.776 1151.05 326.142C1164.23 335.263 1187.1 340.755 1211.72 339.452C1235.37 338.242 1254.75 331.075 1263.87 321.302C1274.33 323.629 1286.16 324.653 1298.37 324.001C1316.79 323.07 1332.49 318.416 1342.96 311.901C1358.27 316.369 1376.68 318.509 1396.07 317.486C1402.27 317.113 1408.28 316.462 1414.1 315.531C1427.67 322.791 1448.02 326.886 1469.73 325.769C1491.83 324.653 1510.05 318.323 1519.94 309.574C1523.62 310.691 1527.89 311.436 1532.73 311.622C1544.17 312.18 1554.64 309.481 1560.45 305.199C1566.27 306.503 1572.67 307.34 1579.45 307.619C1613.18 309.202 1643.23 297.381 1646.72 281.186C1650.01 265.363 1626.56 251.308 1594.18 249.074ZM1362.15 237.905C1361.95 237.626 1361.95 237.253 1361.76 236.974C1362.15 236.974 1362.73 236.974 1363.12 236.974C1363.5 237.16 1363.7 237.439 1364.08 237.626C1363.5 237.719 1362.73 237.812 1362.15 237.905Z" fill="#F2E9F0"/>
<path d="M1377.27 141.663C1377.27 144.735 1372.03 147.248 1365.63 147.248C1359.24 147.248 1354 144.735 1354 141.663C1354 138.592 1359.24 136.079 1365.63 136.079C1372.03 136.079 1377.27 138.592 1377.27 141.663Z" fill="#F2E9F0"/>
<path d="M1438.91 114.671C1438.91 116.253 1436.2 117.649 1432.71 117.649C1429.41 117.649 1426.5 116.346 1426.5 114.671C1426.5 113.089 1429.22 111.692 1432.71 111.692C1436.2 111.785 1438.91 113.089 1438.91 114.671Z" fill="#F2E9F0"/>
<path d="M1234.79 153.298C1234.79 154.88 1232.07 156.276 1228.59 156.276C1225.29 156.276 1222.38 154.973 1222.38 153.298C1222.38 151.715 1225.1 150.319 1228.59 150.319C1232.07 150.319 1234.79 151.715 1234.79 153.298Z" fill="#F2E9F0"/>
</svg>
