<svg width="1512" height="202" viewBox="0 0 1512 202" fill="none" xmlns="http://www.w3.org/2000/svg">
<path d="M1703.79 -112.876C1705.13 -114.998 1706.67 -117.271 1707.82 -119.544C1729.72 -160.919 1705.13 -208.508 1652.71 -225.785C1620.83 -236.243 1586.07 -233.212 1558.8 -219.875C1550.93 -224.27 1542.48 -227.907 1533.26 -230.938C1505.03 -240.183 1475.07 -241.396 1447.61 -235.788C1437.82 -255.794 1418.23 -272.768 1391.15 -281.71C1373.1 -287.62 1354.28 -289.288 1336.42 -287.166C1331.43 -314.598 1308.96 -339.301 1274.2 -350.668C1227.35 -366.127 1174.35 -352.183 1148.04 -319.75C1090.81 -324.449 1033.97 -299.29 1010.54 -255.187C1001.32 -237.758 998.44 -219.572 1000.94 -202.143C968.29 -192.14 940.445 -171.983 925.85 -144.4C897.237 -90.4456 929.499 -28.4591 997.672 -5.87723C1002.66 31.2541 1032.62 65.2027 1079.29 80.6615C1115.58 92.6344 1154.57 91.1188 1187.6 78.9944C1199.89 104.304 1224.85 125.674 1259.03 137.04C1293.02 148.256 1329.7 147.346 1361 136.586C1367.53 162.199 1389.43 184.781 1422.26 195.693C1473.73 212.667 1532.69 194.177 1555.54 154.469C1612.57 158.865 1669.03 133.858 1692.27 89.9064C1706.86 62.3232 1705.52 32.6181 1691.69 7.15665C1699.57 -0.421173 1706.29 -9.05991 1711.28 -18.6079C1728.56 -50.5863 1724.15 -85.1412 1703.79 -112.876ZM1408.05 -42.4023C1407.29 -42.5539 1406.71 -42.7054 1405.94 -42.857C1406.52 -43.6147 1406.9 -44.3725 1407.29 -45.1303C1408.25 -44.6756 1409.01 -44.221 1409.97 -43.7663C1409.4 -43.3116 1408.63 -42.857 1408.05 -42.4023Z" fill="#F2E9F0"/>
<path d="M1112.61 -149.124C1111.46 -148.366 1110.5 -147.457 1109.73 -146.548C1102.82 -139.122 1105.12 -128.664 1114.53 -123.208C1116.07 -122.45 1117.6 -121.693 1119.14 -121.238C1112.42 -116.691 1106.66 -110.932 1102.82 -103.96C1091.68 -84.2582 1098.79 -61.6763 1118.56 -48.1877C1109.16 -29.8494 1119.72 -8.63153 1142.95 -0.599045C1157.74 4.55388 1174.06 3.18987 1186.74 -3.02396C1192.11 8.49434 1203.06 18.3455 1218.42 23.65C1233.79 29.106 1250.49 28.8029 1264.9 24.1046C1270.08 36.5323 1281.8 47.1412 1297.93 52.9003C1317.32 59.7204 1338.83 57.7502 1355.54 49.4146C1355.73 55.0221 1359.38 60.3266 1365.91 63.3577C1375.89 67.9044 1388.76 65.328 1394.52 57.2955C1394.71 57.1439 1394.71 56.9924 1394.71 56.8408C1397.59 64.7218 1404.12 71.8449 1413.92 76.24C1430.43 83.8179 1450.98 81.3929 1464.04 71.5418C1467.5 78.0587 1473.45 83.8178 1481.9 87.7583C1501.87 97.0033 1527.6 91.5472 1539.32 75.7854C1551.03 60.0235 1544.12 39.715 1524.15 30.47C1523.19 30.0154 1522.23 29.7122 1521.46 29.2576C1522.03 28.8029 1522.42 28.1967 1522.8 27.742C1527.03 21.9828 1524.53 14.5566 1517.23 11.2223C1515.7 10.4646 1513.97 10.0099 1512.24 9.85834C1518.19 -3.02396 1513.39 -17.7249 1500.14 -26.6667C1502.25 -27.4245 1504.17 -28.7885 1505.52 -30.4556C1508.78 -34.8508 1507.05 -40.4584 1501.87 -43.1864C1509.74 -46.9753 1516.27 -52.5829 1520.31 -59.706C1530.68 -78.3475 1520.11 -100.172 1496.49 -108.356C1478.83 -114.569 1458.85 -111.387 1445.41 -101.536C1444.07 -114.569 1433.89 -126.694 1417.76 -132.302C1402.2 -137.758 1384.73 -135.939 1371.86 -128.664C1367.06 -133.969 1360.53 -138.364 1352.47 -141.243C1340.37 -145.487 1327.12 -145.335 1315.59 -141.546C1309.45 -150.488 1299.66 -157.915 1286.79 -162.31C1282.76 -163.825 1278.53 -164.735 1274.11 -165.492C1271.23 -176.708 1261.63 -186.71 1247.23 -191.712C1232.63 -196.865 1216.5 -195.501 1204.02 -189.438C1202.48 -191.712 1200.37 -193.682 1197.68 -195.197C1190.96 -198.986 1182.51 -199.289 1175.6 -196.561C1172.91 -199.441 1169.65 -202.169 1165.61 -204.442C1145.83 -215.658 1118.37 -212.172 1103.97 -196.561C1090.14 -181.557 1093.98 -160.491 1112.61 -149.124ZM1248.19 -71.679C1248 -71.3759 1247.81 -70.9212 1247.61 -70.6181C1247.42 -70.7696 1247.04 -70.9212 1246.85 -71.0728C1246.85 -71.3759 1246.85 -71.679 1246.85 -71.9821C1247.23 -71.8305 1247.81 -71.8305 1248.19 -71.679Z" fill="white"/>
<path d="M1166.57 22.2859C1168.88 19.1033 1174.06 18.0424 1177.9 19.861C1181.94 21.6797 1183.28 25.7717 1180.98 28.8029C1178.67 31.9855 1173.49 33.0464 1169.65 31.2278C1165.8 29.4091 1164.27 25.3171 1166.57 22.2859Z" fill="white"/>
<path d="M1245.5 71.8448C1246.65 70.1777 1249.34 69.5715 1251.45 70.6324C1253.57 71.5417 1254.33 73.6635 1252.99 75.3306C1251.84 76.9977 1249.15 77.6039 1247.04 76.5431C1244.92 75.6337 1244.16 73.5119 1245.5 71.8448Z" fill="white"/>
<path d="M1482.67 115.796C1483.82 114.129 1486.51 113.523 1488.62 114.584C1490.73 115.493 1491.5 117.615 1490.15 119.282C1489 120.949 1486.31 121.555 1484.2 120.494C1482.09 119.585 1481.32 117.463 1482.67 115.796Z" fill="white"/>
<path d="M618.225 -164.279C603.63 -191.862 575.785 -212.019 543.138 -222.022C545.635 -239.451 542.754 -257.638 533.536 -275.067C510.108 -319.17 453.457 -344.177 396.038 -339.63C369.537 -372.215 316.535 -386.006 269.87 -370.547C235.112 -359.029 212.643 -334.325 207.65 -307.045C189.791 -309.167 170.779 -307.5 152.92 -301.589C125.843 -292.647 106.255 -275.673 96.4613 -255.668C69.0001 -261.275 39.0424 -260.214 10.813 -250.818C1.59528 -247.787 -6.85432 -243.998 -14.7278 -239.754C-41.997 -253.091 -76.7556 -256.122 -108.634 -245.665C-161.06 -228.388 -185.832 -180.799 -163.748 -139.424C-162.596 -137.151 -161.252 -134.877 -159.715 -132.755C-180.071 -105.021 -184.488 -70.4659 -167.589 -38.639C-162.596 -29.091 -155.875 -20.4523 -148.001 -12.8745C-161.828 12.587 -163.172 42.2921 -148.577 69.8753C-125.341 113.827 -68.8821 138.833 -11.8473 134.438C11.1971 174.146 70.1523 192.636 121.426 175.662C154.264 164.901 176.156 142.168 182.686 116.555C214.18 127.164 250.667 128.225 284.657 117.009C318.84 105.794 343.804 84.2732 356.095 58.9633C389.125 71.0878 428.108 72.6033 464.403 60.6304C511.26 45.1716 541.026 11.223 546.019 -25.9083C614.768 -48.3386 646.838 -110.325 618.225 -164.279ZM136.213 -62.1302C135.637 -62.5849 134.869 -63.0396 134.1 -63.4943C135.061 -63.9489 135.829 -64.4036 136.789 -64.8583C137.173 -64.1005 137.749 -63.3427 138.133 -62.5849C137.749 -62.4334 136.981 -62.2818 136.213 -62.1302Z" fill="#F2E9F0"/>
<path d="M-36.7154 -25.4312C-36.9075 -24.3703 -37.0995 -23.1579 -36.9075 -21.9454C-36.3314 -12.7005 -26.3455 -5.57733 -14.6312 -6.18356C-12.9029 -6.18356 -11.1746 -6.48666 -9.44624 -6.94133C-11.1746 0.0302582 -10.9825 7.30496 -8.48606 14.5797C-1.57275 35.4944 21.8557 49.5892 47.9727 50.347C55.078 69.4431 80.0428 80.6582 104.623 75.5053C120.178 72.3226 131.893 63.0777 136.886 52.0141C150.136 58.3795 166.651 60.6528 182.782 57.167C199.105 53.8328 211.972 45.3456 219.461 34.5851C233.288 41.7083 250.763 44.2847 268.047 40.6474C288.595 36.4038 303.957 24.2793 310.295 9.42676C314.904 13.6703 322.009 16.0952 329.498 15.1859C341.021 13.8219 348.894 5.33472 347.166 -3.6071C347.166 -3.75865 347.166 -3.9102 346.974 -4.06177C355.423 0.63649 366.177 2.90982 377.507 1.69737C396.519 -0.575974 410.538 -12.5489 412.842 -26.7952C420.716 -23.3094 429.933 -21.7939 439.535 -23.0063C462.388 -25.7343 478.135 -42.5571 474.678 -60.7438C471.221 -78.7791 449.905 -91.2067 426.861 -88.4787C425.901 -88.3271 424.748 -88.1755 423.788 -88.024C423.788 -88.6302 423.788 -89.2364 423.596 -89.9942C422.252 -96.5111 414.57 -101.058 406.121 -100.148C404.201 -99.9969 402.664 -99.3907 401.128 -98.7845C395.559 -111.818 380.196 -120.76 362.721 -121.215C363.681 -122.882 364.257 -124.852 363.873 -126.822C362.913 -131.824 357.152 -135.31 350.814 -135.006C353.887 -141.826 354.655 -149.404 352.159 -156.982C345.629 -176.684 319.896 -188.506 294.932 -183.201C276.112 -179.261 263.054 -166.985 260.557 -152.587C249.227 -162.135 231.752 -166.53 214.468 -163.044C197.953 -159.559 185.855 -149.556 181.438 -137.583C173.565 -139.402 164.923 -139.553 156.281 -137.886C143.415 -135.158 133.237 -128.49 127.284 -120.002C115.378 -123.943 101.743 -124.852 88.3004 -122.124C83.8835 -121.215 79.8508 -120.002 76.01 -118.335C64.8719 -125.61 49.3169 -128.793 34.3381 -125.61C18.9752 -122.427 7.45298 -113.485 2.26799 -102.422C-0.612556 -103.483 -3.87718 -103.937 -7.1418 -103.786C-15.3994 -103.483 -22.3127 -99.5423 -25.3853 -93.9347C-29.8021 -94.844 -34.603 -95.2987 -39.4039 -95.1471C-63.7926 -94.0862 -82.4201 -77.8697 -81.2679 -58.6221C-79.9237 -39.8291 -60.1439 -25.2796 -36.7154 -25.4312ZM130.548 -32.0997C130.74 -31.7966 130.932 -31.3419 130.932 -31.0388C130.548 -31.0388 130.356 -31.0388 129.972 -30.8873C129.78 -31.1904 129.396 -31.3419 129.204 -31.645C129.588 -31.7966 129.972 -31.9481 130.548 -32.0997Z" fill="white"/>
<path d="M141.303 81.5675C140.535 77.9302 143.8 74.596 148.217 74.1413C152.825 73.5351 157.05 76.1115 157.626 79.5973C158.395 83.2347 155.13 86.5689 150.713 87.0236C146.104 87.6298 141.879 85.0533 141.303 81.5675Z" fill="white"/>
<path d="M241.93 81.2645C241.546 79.4458 243.274 77.6271 245.579 77.324C247.883 77.0209 250.188 78.3849 250.572 80.2036C250.956 82.0222 249.227 83.8409 246.923 84.144C244.619 84.4471 242.314 83.2347 241.93 81.2645Z" fill="white"/>
<path d="M462.003 -1.33377C461.619 -3.15245 463.348 -4.97112 465.652 -5.27424C467.956 -5.57735 470.261 -4.21334 470.645 -2.39466C471.029 -0.575988 469.301 1.24269 466.996 1.5458C464.692 1.84891 462.387 0.636463 462.003 -1.33377Z" fill="white"/>
</svg>
