<svg width="300" height="228" viewBox="0 0 300 228" fill="none" xmlns="http://www.w3.org/2000/svg">
<path d="M39.3257 227.512C26.6918 223.771 13.97 217.828 6.39848 207.043C-1.17301 196.258 -1.61321 179.618 8.3794 171.078C13.4857 166.676 20.441 164.959 25.5913 160.601C32.4145 154.835 35.0117 144.622 31.7101 136.302C28.2325 127.498 19.5605 122.084 12.8695 115.437C1.60027 104.299 -4.51855 85.767 3.97737 72.3848C5.47406 70.0077 7.49899 67.8067 10.0081 66.5741C15.8628 63.6688 23.0382 66.398 28.2766 70.2718C33.559 74.1456 38.005 79.2519 43.9918 81.9372C46.8971 83.2578 50.2427 83.9181 53.192 82.8176C55.3931 81.9812 57.1539 80.2204 58.6946 78.4156C64.9014 71.1082 68.7752 61.8199 69.5676 52.2675C70.0518 46.3688 69.5236 40.1179 72.2088 34.8795C75.8625 27.7482 84.4905 24.5788 92.5022 24.0945C101.13 23.5223 110.286 25.5032 116.713 31.2698C126.574 40.0739 127.762 54.7767 128.863 67.9387C129.963 81.1008 132.781 96.0237 144.05 102.935C146.867 104.652 150.169 105.752 153.47 105.576C159.853 105.224 165.136 100.162 167.909 94.4389C170.726 88.7163 171.607 82.2893 172.971 76.0385C175.392 65.2975 179.574 54.6886 186.794 46.3688C194.013 38.049 204.578 32.1943 215.583 32.3263C226.588 32.4584 237.681 39.4136 241.071 49.8904C242.919 55.6131 242.479 61.8199 243.492 67.7627C244.504 73.7054 247.718 80.0003 253.528 81.585C258.723 82.9937 264.005 80.2204 269.2 78.9438C277.123 76.9629 286.059 78.6797 292.266 84.0061C298.473 89.3326 301.554 98.3127 299.221 106.148C296.8 114.336 289.493 119.927 283.55 126.046C277.607 132.164 272.501 141.056 275.803 148.936C278.4 155.099 285.135 158.224 289.889 162.89C299.353 172.179 300.41 187.454 296.404 200.088C293.015 210.785 286.5 220.425 277.828 227.556L39.3257 227.512Z" fill="#FBB0C1"/>
<path d="M158.368 121.984C158.809 121.588 159.513 121.588 160.041 121.852C160.569 122.116 160.966 122.6 161.318 123.085C161.67 122.6 162.066 122.16 162.594 121.852C163.123 121.588 163.827 121.544 164.267 121.984C164.575 122.292 164.663 122.776 164.619 123.173C164.531 123.613 164.355 124.009 164.091 124.361C163.431 125.33 162.594 126.122 161.582 126.738C161.582 126.738 161.406 126.914 161.318 126.87C161.274 126.914 161.23 126.958 161.142 126.958C161.142 126.958 159.205 125.33 158.544 124.361C158.324 124.009 158.104 123.613 158.016 123.173C157.972 122.776 158.06 122.292 158.368 121.984Z" fill="white"/>
<path d="M259.483 113.488C259.923 113.092 260.627 113.092 261.156 113.356C261.684 113.62 262.08 114.104 262.432 114.589C262.784 114.148 263.181 113.664 263.709 113.356C264.237 113.092 264.941 113.048 265.382 113.488C265.69 113.796 265.778 114.281 265.734 114.677C265.646 115.117 265.47 115.513 265.206 115.865C264.545 116.834 263.709 117.626 262.696 118.242C262.696 118.242 262.52 118.418 262.432 118.374C262.388 118.418 262.344 118.462 262.256 118.462C262.256 118.462 260.319 116.834 259.659 115.865C259.439 115.513 259.219 115.117 259.131 114.677C259.087 114.237 259.175 113.796 259.483 113.488Z" fill="white"/>
<path d="M262.784 186.21C263.225 185.813 263.929 185.813 264.457 186.078C264.985 186.342 265.382 186.826 265.734 187.31C266.086 186.826 266.482 186.386 267.01 186.078C267.539 185.813 268.243 185.769 268.683 186.21C268.991 186.518 269.079 187.002 269.035 187.398C268.947 187.838 268.771 188.235 268.507 188.587C267.847 189.555 267.01 190.348 265.998 190.964C265.998 190.964 265.822 191.14 265.734 191.096C265.69 191.14 265.646 191.184 265.558 191.184C265.558 191.184 263.621 189.555 262.961 188.587C262.74 188.235 262.52 187.838 262.432 187.398C262.388 186.958 262.476 186.474 262.784 186.21Z" fill="white"/>
<path d="M29.9614 204.346C30.4016 203.95 31.106 203.95 31.6342 204.214C32.1624 204.478 32.5586 204.962 32.9108 205.447C33.2629 205.006 33.6591 204.522 34.1874 204.214C34.7156 203.95 35.4199 203.906 35.8601 204.346C36.1683 204.654 36.2563 205.138 36.2123 205.535C36.1243 205.975 35.9482 206.371 35.6841 206.723C35.0238 207.692 34.1874 208.484 33.1749 209.1C33.1749 209.1 32.9988 209.276 32.9108 209.232C32.8668 209.276 32.8227 209.32 32.7347 209.32C32.7347 209.32 30.7978 207.692 30.1375 206.723C29.9174 206.371 29.6973 205.975 29.6093 205.535C29.5652 205.094 29.6533 204.654 29.9614 204.346Z" fill="white"/>
<path d="M29.9614 102.571C30.4016 102.175 31.106 102.175 31.6342 102.439C32.1624 102.703 32.5586 103.187 32.9108 103.671C33.2629 103.231 33.6591 102.747 34.1874 102.439C34.7156 102.175 35.4199 102.131 35.8601 102.571C36.1683 102.879 36.2563 103.363 36.2123 103.759C36.1243 104.2 35.9482 104.596 35.6841 104.948C35.0238 105.916 34.1874 106.709 33.1749 107.325C33.1749 107.325 32.9988 107.501 32.9108 107.457C32.8668 107.501 32.8227 107.545 32.7347 107.545C32.7347 107.545 30.7978 105.916 30.1375 104.948C29.9174 104.596 29.6973 104.2 29.6093 103.759C29.5652 103.319 29.6533 102.879 29.9614 102.571Z" fill="white"/>
<path d="M105.5 73.4299C105.5 73.9581 105.94 74.3983 106.468 74.3983C106.997 74.3983 107.437 73.9581 107.437 73.4299C107.437 72.9016 106.997 72.4614 106.468 72.4614C105.94 72.4614 105.5 72.9016 105.5 73.4299Z" fill="white"/>
<path d="M143.886 113.18C143.886 113.708 144.326 114.148 144.854 114.148C145.382 114.148 145.823 113.708 145.823 113.18C145.823 112.652 145.382 112.211 144.854 112.211C144.326 112.211 143.886 112.652 143.886 113.18Z" fill="white"/>
<path d="M275.066 214.206C275.066 214.735 275.506 215.175 276.035 215.175C276.563 215.175 277.003 214.735 277.003 214.206C277.003 213.678 276.563 213.238 276.035 213.238C275.462 213.238 275.066 213.678 275.066 214.206Z" fill="white"/>
<path d="M35.5078 160.81C35.5078 161.338 35.948 161.778 36.4763 161.778C37.0045 161.778 37.4447 161.338 37.4447 160.81C37.4447 160.282 37.0045 159.842 36.4763 159.842C35.948 159.842 35.5078 160.282 35.5078 160.81Z" fill="white"/>
<path d="M113.864 51.3315C113.864 51.8597 114.304 52.2999 114.832 52.2999C115.36 52.2999 115.801 51.8597 115.801 51.3315C115.801 50.8032 115.36 50.363 114.832 50.363C114.304 50.363 113.864 50.8032 113.864 51.3315Z" fill="white"/>
<path d="M97.8845 35.9684C97.8845 36.4967 98.3247 36.9369 98.853 36.9369C99.3812 36.9369 99.8214 36.4967 99.8214 35.9684C99.8214 35.4402 99.3812 35 98.853 35C98.2807 35 97.8845 35.4402 97.8845 35.9684Z" fill="white"/>
<path d="M149.74 136.114C149.74 136.643 150.18 137.083 150.709 137.083C151.237 137.083 151.677 136.643 151.677 136.114C151.677 135.586 151.237 135.146 150.709 135.146C150.18 135.19 149.74 135.586 149.74 136.114Z" fill="white"/>
<path d="M195.741 95.6599C195.741 96.1881 196.182 96.6283 196.71 96.6283C197.238 96.6283 197.678 96.1881 197.678 95.6599C197.678 95.1316 197.238 94.6914 196.71 94.6914C196.182 94.6914 195.741 95.1316 195.741 95.6599Z" fill="white"/>
<path d="M161.318 159.841C161.318 160.37 161.758 160.81 162.286 160.81C162.814 160.81 163.255 160.37 163.255 159.841C163.255 159.313 162.814 158.873 162.286 158.873C161.758 158.917 161.318 159.313 161.318 159.841Z" fill="white"/>
<path d="M179.234 118.022C179.769 118.022 180.203 117.589 180.203 117.054C180.203 116.519 179.769 116.085 179.234 116.085C178.699 116.085 178.266 116.519 178.266 117.054C178.266 117.589 178.699 118.022 179.234 118.022Z" fill="white"/>
<path d="M192.748 59.7394C192.748 60.2677 193.188 60.7079 193.716 60.7079C194.245 60.7079 194.685 60.2677 194.685 59.7394C194.685 59.2112 194.245 58.771 193.716 58.771C193.188 58.815 192.748 59.2112 192.748 59.7394Z" fill="white"/>
<path d="M251.735 82.5859C251.735 83.1141 252.176 83.5543 252.704 83.5543C253.232 83.5543 253.672 83.1141 253.672 82.5859C253.672 82.0576 253.232 81.6174 252.704 81.6174C252.176 81.6615 251.735 82.0576 251.735 82.5859Z" fill="white"/>
<path d="M244.648 215.131C244.648 215.659 245.088 216.099 245.617 216.099C246.145 216.099 246.585 215.659 246.585 215.131C246.585 214.603 246.145 214.162 245.617 214.162C245.044 214.206 244.648 214.603 244.648 215.131Z" fill="white"/>
<path d="M251.735 176.261C251.735 176.789 252.176 177.229 252.704 177.229C253.232 177.229 253.672 176.789 253.672 176.261C253.672 175.733 253.232 175.292 252.704 175.292C252.176 175.292 251.735 175.733 251.735 176.261Z" fill="white"/>
<path d="M217.223 46.0051C217.223 46.5333 217.664 46.9735 218.192 46.9735C218.72 46.9735 219.16 46.5333 219.16 46.0051C219.16 45.4768 218.72 45.0366 218.192 45.0366C217.664 45.0806 217.223 45.4768 217.223 46.0051Z" fill="white"/>
<path d="M19 89.673C19 90.2013 19.4402 90.6415 19.9684 90.6415C20.4967 90.6415 20.9369 90.2013 20.9369 89.673C20.9369 89.1448 20.4967 88.7046 19.9684 88.7046C19.3962 88.7486 19 89.1448 19 89.673Z" fill="white"/>
<path d="M43.2114 96.1442C43.2114 96.6725 43.6516 97.1127 44.1799 97.1127C44.7081 97.1127 45.1483 96.6725 45.1483 96.1442C45.1483 95.616 44.7081 95.1758 44.1799 95.1758C43.6516 95.2198 43.2114 95.616 43.2114 96.1442Z" fill="white"/>
<path d="M48.8018 198.843C48.8018 199.372 49.242 199.812 49.7702 199.812C50.2985 199.812 50.7387 199.372 50.7387 198.843C50.7387 198.315 50.2985 197.875 49.7702 197.875C49.1979 197.875 48.8018 198.315 48.8018 198.843Z" fill="white"/>
<path d="M68.6108 208.132C68.6108 208.66 69.051 209.1 69.5793 209.1C70.1075 209.1 70.5477 208.66 70.5477 208.132C70.5477 207.604 70.1075 207.163 69.5793 207.163C69.007 207.207 68.6108 207.648 68.6108 208.132Z" fill="white"/>
<path d="M69.6145 83.5418L95.7147 67.7119L94.9296 72.4439L70.7604 83.372L70.7816 83.5842L71.9062 83.8813L71.9911 84.1996C71.1635 83.9662 70.4845 83.6691 69.6145 83.5418Z" fill="#6793CC"/>
<path d="M215.436 66.3328L215.924 66.5874C216.964 74.184 217.94 83.0963 224.56 88.0617C227.213 90.0563 231.011 90.6929 234.258 90.2049C237.229 89.7593 240.178 88.2951 241.96 85.8336C242.788 84.709 243.276 83.4782 243.785 82.1838C243.891 82.9265 243.955 83.5843 243.764 84.327C244.189 85.1758 243.701 86.4278 243.403 87.2766C242.533 89.8654 240.857 91.7115 238.417 92.8998C237.844 93.1756 237.292 93.409 236.677 93.5151C237.95 93.791 240.263 92.6239 241.345 92.0085C244.655 90.1412 246.311 87.6585 247.308 84.0724L247.52 85.4305C247.711 87.1068 247.838 90.9476 246.777 92.2844C247.074 93.4939 245.78 95.9766 245.143 97.0376C243.191 100.221 239.584 102.279 236.019 103.085C233.558 103.658 231.266 103.701 228.762 103.658C231.733 105.674 235.87 106.226 239.308 105.589C240.857 105.292 242.491 104.698 243.934 104.083C241.727 106.608 238.99 108.475 235.552 108.708L235.085 108.73C234.661 108.793 234.258 108.815 233.855 108.687C232.921 108.411 232.008 107.732 231.117 107.308L225.812 105.059C224.815 104.613 223.648 103.785 222.523 103.849C222.311 103.234 220.062 101.918 219.425 101.366C218.301 100.39 217.261 99.2869 216.306 98.1198C213.738 95.043 212.147 91.6478 210.789 87.9132L208.794 78.2582C209.24 77.0699 209.685 75.7967 209.898 74.5448C209.94 74.2689 210.046 72.7623 210.152 72.635C210.322 72.444 211.362 72.0833 211.638 71.9348C212.274 71.5952 212.805 71.1708 213.293 70.6404C214.142 69.6855 215.521 67.6484 215.436 66.3328Z" fill="#330B11"/>
<path d="M236.698 93.515C237.971 93.7909 240.284 92.6238 241.366 92.0084C244.677 90.1411 246.332 87.6584 247.329 84.0723L247.541 85.4303C247.732 87.1067 247.86 90.9474 246.799 92.2843L246.756 92.0296C246.098 92.836 245.589 93.7484 244.91 94.5336C242.151 97.8014 238.459 99.8173 234.173 100.242C230.247 100.645 226.597 99.6899 223.499 97.1648C220.147 94.4487 218.088 90.6291 216.433 86.7035C216.179 86.0881 215.606 85.0908 215.542 84.433V84.2845C216.285 85.1757 216.815 86.2579 217.515 87.1916C220.168 90.8201 223.818 94.2153 228.528 94.6397C229.993 94.767 231.605 94.767 233.048 94.4699C234.258 94.2577 235.446 93.8121 236.698 93.515Z" fill="#602C2C"/>
<path d="M69.3177 185.248L74.856 187.539C79.6092 189.258 84.5322 190.595 89.4551 191.741L96.1393 193.205L99.5557 193.842C100.129 193.948 100.808 193.969 101.359 194.16L100.893 203.496C100.829 205.088 100.659 206.764 100.765 208.356C100.702 210.478 100.468 212.897 100.765 214.998L102.569 215.719C101.72 219.475 102.399 223.613 102.569 227.411H101.423H98.3886H70.8879L70.8455 227.262C70.3362 226.074 70.2938 224.186 70.1452 222.891C69.0842 214.488 68.7447 206.064 68.7872 197.619C68.8084 194.86 68.7023 191.826 69.1267 189.088L69.3177 185.248Z" fill="#6793CC"/>
<path d="M101.465 227.411L100.85 218.817C100.786 217.629 100.532 216.122 100.807 214.976L102.611 215.698C101.762 219.453 102.441 223.591 102.611 227.39H101.465V227.411Z" fill="#03070E"/>
<path d="M69.3172 185.248L74.8555 187.539C79.6087 189.258 84.5317 190.595 89.4546 191.741L96.1388 193.205L99.5552 193.842C100.128 193.948 100.807 193.969 101.359 194.16L100.892 203.496C100.828 205.088 100.659 206.764 100.765 208.356C100.637 208.717 100.659 208.716 100.34 208.886L88.8817 203.39C84.5953 201.141 80.4787 198.616 76.4258 196.006C73.9855 194.436 71.2906 192.759 69.1262 190.828L69.105 189.11L69.3172 185.248Z" fill="#275584"/>
<path d="M178.089 27.8826C186.683 24.8694 195.935 24.7421 204.253 28.7314C212.041 32.466 218.279 40.0839 221.08 48.211C222.438 52.1367 223.266 56.0411 223.711 60.1577L224.221 66.7995C224.475 72.2529 224.666 79.4251 230.353 82.1625C233.133 83.4993 236.761 83.5418 239.647 82.502C241.599 81.8018 242.618 80.6771 243.743 79.022C243.955 80.6559 244.146 82.2474 244.061 83.8813L243.721 84.3057C243.912 83.563 243.849 82.9052 243.743 82.1625C243.233 83.4569 242.745 84.6876 241.918 85.8123C240.114 88.2737 237.165 89.7379 234.215 90.1835C230.99 90.6716 227.191 90.035 224.518 88.0403C217.897 83.0749 216.921 74.1627 215.881 66.566L215.393 66.3114C215.457 66.2477 215.542 66.1416 215.605 66.0568C216.115 65.0594 215.818 62.895 215.542 61.8128C215.139 60.2001 214.226 58.2479 212.72 57.3991C212.147 57.0808 211.319 57.0172 210.704 57.2294C209.027 57.8023 208.03 60.0728 207.372 61.5794C206.014 59.3938 204.656 57.2082 202.916 55.2984C201.834 54.0889 199.945 53.1977 198.502 52.455C191.054 48.5718 182.63 46.2376 174.227 45.7496C171.405 46.0254 168.434 46.5983 166.312 48.6566C166.079 48.5293 165.951 48.4232 165.76 48.2535L165.697 47.0864C166.397 45.4313 166.737 43.67 167.288 41.9725L167.416 40.6993C167.798 39.7868 167.819 38.259 167.967 37.2405C168.01 37.0283 167.988 36.6463 168.158 36.4978C168.561 36.1158 169.495 35.8824 170.004 35.649C171.999 34.7366 174.015 33.2936 175.352 31.5536C175.415 31.1504 176.307 30.047 176.582 29.6651C177.028 29.0709 177.304 28.4343 177.792 27.8402L178.089 27.8826Z" fill="url(#paint0_linear_3135_625)"/>
<path d="M188.466 26.3335C188.784 26.3335 189.081 26.3759 189.399 26.4396L188.699 26.6094C188.084 26.7579 187.85 27.2884 187.298 27.543C186.916 27.7128 186.619 27.9674 186.28 28.1796C185.792 28.4767 185.389 28.9435 184.901 29.2194C184.434 29.474 183.797 29.9833 183.543 30.4713C183.394 30.7896 182.63 31.0443 182.291 31.214L182.418 31.5535L181.59 31.8294C181.675 31.5748 181.739 31.4262 181.887 31.214L182.015 31.0443C182.291 30.5562 182.63 30.2379 183.054 29.8347L183.076 29.7074C183.267 29.0708 184.413 28.2857 184.964 27.925C185.622 27.4794 186.45 27.0125 187.214 26.8003C187.68 26.673 188.062 26.5245 188.466 26.3335Z" fill="#602C2C"/>
<path d="M193.177 34.3335C194.322 34.291 195.362 34.2486 196.487 34.4608L197.951 34.8003C200.709 35.543 203.15 36.8586 204.614 39.405L204.508 39.6384L203.977 39.4262C202.598 39.0655 194.131 36.5403 193.686 36.0523C193.325 35.6491 192.688 35.5006 192.179 35.3308V35.0762L193.389 34.8003L193.177 34.3335Z" fill="#794343"/>
<path d="M195.044 30.0472C195.617 30.0259 196.232 30.0684 196.805 30.1533C197.739 30.2806 198.651 30.7474 199.479 31.193C202.577 32.8906 204.996 35.7765 207.118 38.5562L204.699 36.604L202.81 35.3309L202.577 35.5218C202.004 35.5643 200.9 35.0126 200.306 34.8004L193.325 32.2116L193.367 31.9994C194.407 31.193 195.32 30.7898 196.656 30.8111H196.763L194.938 30.3655L195.044 30.0472Z" fill="#794343"/>
<path d="M186.365 40.0203C188.423 39.9567 190.375 39.9991 192.328 40.763C196.423 42.3545 200.009 44.7099 201.834 48.8265L200.752 47.8292C199.309 46.5136 197.802 45.4313 196.062 44.5826C195.702 44.4128 195.171 44.1157 194.768 44.1582L194.598 44.1794C196.359 45.5799 198.269 46.6833 199.903 48.2748L199.861 48.4445C197.548 46.7894 194.895 45.495 192.328 44.2855C190.821 43.564 189.23 42.9274 187.829 41.9938L190.545 42.2272C189.166 41.336 187.893 40.6781 186.365 40.0203Z" fill="#794343"/>
<path d="M189.145 36.4131C190.333 36.307 191.437 36.4768 192.582 36.7738C197.908 38.1531 203.065 40.6995 205.908 45.58C205.06 44.7312 204.211 43.9249 203.235 43.2246L201.516 42.0151C200.922 42.2061 200.009 41.8878 199.415 41.7817C199.818 42.3334 200.179 42.8639 200.497 43.458C199.182 43.0336 197.93 42.2697 196.72 41.6119C194.174 40.2326 191.543 38.6412 188.89 37.5165L191.458 37.5377L189.145 36.4131Z" fill="#794343"/>
<path d="M174.249 45.7498C182.652 46.259 191.076 48.572 198.524 52.4552C199.967 53.2191 201.855 54.1103 202.938 55.2986C204.656 57.2084 206.036 59.394 207.394 61.5796C208.073 60.073 209.049 57.8237 210.725 57.2296C211.341 57.0174 212.168 57.0811 212.741 57.3993C214.269 58.2269 215.16 60.2003 215.563 61.813C215.839 62.874 216.157 65.0596 215.627 66.057C215.585 66.1418 215.478 66.2479 215.415 66.3116C215.5 67.6272 214.099 69.6643 213.25 70.6404C212.784 71.1709 212.253 71.6165 211.595 71.9348C211.298 72.0833 210.258 72.4441 210.11 72.6351C210.004 72.7624 209.919 74.269 209.855 74.5448C209.643 75.818 209.197 77.07 208.752 78.2583C206.672 82.8842 203.786 86.6613 199.882 89.9079C198.291 91.2447 196.423 92.5603 194.471 93.303L193.792 93.494C192.519 93.8759 191.437 93.8972 190.142 93.685C188.148 93.3667 186.28 92.4118 184.498 91.4993C180.254 89.3349 176.71 87.0432 173.888 83.1176C173.654 82.9054 173.421 82.481 173.23 82.2051L171.151 78.3644L168.222 72.147C167.246 70.2372 166.419 68.3062 165.803 66.2267L167.055 64.8474L166.907 64.5079L167.055 64.2321L166.907 63.8926C167.225 63.4045 167.819 62.9377 168.243 62.5345C168.498 60.646 169.22 58.715 169.856 56.9113L174.249 45.7498Z" fill="#F7CD99"/>
<path d="M188.741 66.0779L189.675 65.887C189.611 66.6721 189.59 67.245 189.887 68.0089L189.42 68.4121L189.293 68.3272C188.741 67.8392 188.784 66.7358 188.741 66.0779Z" fill="#CA5030"/>
<path d="M170.301 69.4731L170.577 69.0911L170.492 68.6667C171.362 67.924 172.19 67.8179 173.314 67.8816C174.163 67.9453 175.903 68.7092 176.434 69.367C176.519 69.4731 176.561 69.5367 176.625 69.664C176.052 69.3882 175.479 69.1123 174.842 69.0699C173.505 68.9426 172.317 69.0699 171.256 69.9611L171.108 70.0884C170.662 69.9823 170.598 69.8126 170.301 69.4731Z" fill="#F09965"/>
<path d="M181.251 76.8362L181.293 77.0484C181.357 77.4091 181.399 77.7911 181.612 78.0881C182.842 79.8282 184.349 78.3852 185.792 78.6399C185.771 79.1491 185.495 79.3825 185.198 79.7645C184.158 80.2101 183.203 80.5072 182.057 80.2525C181.421 80.104 181.06 79.8069 180.72 79.2552C180.551 78.364 180.89 77.685 181.251 76.8362Z" fill="#E0754B"/>
<path d="M210.938 62.0461C212.168 63.4254 212.423 64.3591 212.338 66.2052C212.296 67.0328 212.147 67.7118 211.723 68.4333C211.32 68.6455 211.277 68.5818 210.853 68.4969L210.598 68.2423C210.619 67.8179 210.598 67.3298 210.683 66.9267C211.383 65.9506 210.725 63.3405 210.938 62.0461Z" fill="#E0754B"/>
<path d="M188.741 66.0778C188.869 65.1017 189.23 64.1256 189.887 63.3617C190.63 62.5129 191.627 62.0673 192.752 62.0036C194.343 61.8975 195.298 62.2583 196.465 63.298L193.304 63.2344C191.797 63.5527 190.842 64.1044 189.993 65.3988L189.675 65.8868L188.741 66.0778Z" fill="#E0754B"/>
<path d="M168.286 62.5769C169.814 61.8767 171.936 61.1976 173.612 61.7705C173.931 62.1949 173.909 62.2162 173.846 62.7679C173.146 63.2771 171.66 63.1074 170.769 63.2771C170.048 63.4257 169.347 63.7015 168.668 63.9986L167.077 64.9111L166.928 64.5715L167.077 64.2957L166.928 63.9562C167.247 63.4681 167.862 63.0013 168.286 62.5769Z" fill="#330B11"/>
<path d="M210.662 66.9053C210.513 66.3111 210.386 65.6745 210.152 65.1016C209.686 63.9557 209.113 63.2343 209.495 61.9399L209.537 61.8126C209.643 61.473 209.77 61.1335 209.961 60.8364C210.301 60.2847 210.704 59.733 211.383 59.6057C211.765 59.542 212.232 59.6269 212.529 59.8816C212.868 60.1574 213.25 60.8152 213.293 61.2608L212.911 61.2184L212.211 61.1123C211.51 61.1123 211.319 61.5367 210.916 62.0247C210.725 63.3404 211.383 65.9504 210.662 66.9053Z" fill="#E0754B"/>
<path d="M174.418 76.5181C175.798 76.3908 177.347 77.1547 178.408 78.0247C178.896 78.4066 179.15 78.6401 179.172 79.2766C179.214 79.9557 178.705 80.571 178.238 81.0167C178.089 81.1652 177.92 81.2713 177.729 81.3774C177.304 81.632 176.901 81.8867 176.498 82.205C175.904 82.6718 174.97 82.7991 174.227 82.9052L173.93 83.1598C173.697 82.9477 173.463 82.5233 173.272 82.2474C174.27 81.5472 176.18 81.5472 176.943 80.571C177.601 79.7223 177.368 78.7037 177.241 77.7276C176.328 77.1759 175.437 76.7939 174.418 76.5181Z" fill="#F1B68A"/>
<path d="M184.349 84.8361L184.052 84.6239V84.4117C184.986 84.0721 185.962 83.8599 186.874 83.4992C188.614 82.8202 190.27 81.9502 191.925 81.1014C193.431 80.3163 194.832 79.616 196.063 78.4065L196.275 78.4914L196.105 79.425C195.787 79.7221 195.405 80.1677 195.002 80.3375C194.62 80.5072 194.323 80.6558 193.983 80.9104L191.797 82.5655C190.524 83.4992 188.445 84.2419 186.896 84.4753L186.726 84.4965C186.068 84.6663 184.837 84.4753 184.349 84.8361Z" fill="#BC432A"/>
<path d="M190.121 56.1683C192.115 55.9773 194.11 56.0834 196.062 56.5715C197.102 56.8473 199.054 57.781 199.606 58.7359C197.739 58.0356 196.083 57.7173 194.089 57.5051C192.306 57.4839 190.503 57.59 188.763 58.0356C187.638 58.3327 186.556 58.8207 185.431 59.0966L185.092 58.8844L184.964 58.269C185.007 58.1842 185.049 58.0781 185.113 58.0144C186.025 56.8898 188.741 56.4017 190.121 56.1683Z" fill="#330B11"/>
<path d="M174.418 76.5181C175.437 76.7939 176.328 77.1971 177.24 77.7276C177.368 78.7037 177.601 79.7222 176.943 80.571C176.179 81.5471 174.27 81.5471 173.272 82.2474L171.193 78.4066C171.405 77.8973 171.936 77.5366 172.381 77.2608H172.551C173.188 76.8364 173.654 76.6242 174.418 76.5181Z" fill="#F99264"/>
<path d="M170.302 69.4731C170.599 69.8126 170.663 69.9823 171.129 70.0884L171.278 69.9611C172.339 69.0699 173.527 68.9426 174.864 69.0699C175.501 69.1335 176.074 69.4094 176.647 69.664C177.241 70.4067 178.217 71.3616 178.068 72.4014C177.941 73.2289 177.389 73.9504 176.689 74.3748C176.052 74.7568 175.246 74.9053 174.546 74.6931C173.442 74.3536 172.509 73.3987 171.999 72.3802L171.83 72.0194C171.766 71.8709 171.702 71.8072 171.575 71.7223C171.066 71.6799 170.45 71.5314 169.984 71.2767C169.453 71.0009 169.368 70.8311 169.177 70.2794L169.347 70.0672L170.387 70.3855C170.366 70.046 170.281 69.7277 170.196 69.3882L170.302 69.4731Z" fill="#03070E"/>
<path d="M174.588 69.728C175.119 69.7492 175.501 69.7493 175.989 70.0039C176.286 70.5344 176.158 70.8102 176.074 71.4044L175.14 71.3619C174.546 70.8102 174.673 70.4919 174.588 69.728Z" fill="#FEFEFE"/>
<path d="M196.126 79.4675C195.829 80.9105 195.383 83.4993 194.322 84.5815C193.474 85.8759 192.264 86.8732 190.715 87.1915C188.89 87.5734 187.044 86.8095 185.559 85.791L184.37 84.8573C184.858 84.4754 186.089 84.6663 186.747 84.5602L186.917 84.539C188.466 84.3056 190.545 83.5629 191.818 82.6293L194.004 80.9741C194.344 80.7195 194.641 80.571 195.023 80.4012C195.405 80.2102 195.787 79.7434 196.126 79.4675Z" fill="#CA5030"/>
<path d="M184.349 84.8365C184.837 84.4545 186.068 84.6455 186.726 84.5394L186.895 84.5182C188.445 84.2848 190.524 83.5421 191.797 82.6084L193.983 80.9533C194.322 80.6987 194.619 80.5501 195.001 80.3804L194.917 80.5289C194.641 80.9957 194.386 81.2716 193.962 81.6111C191.755 83.436 189.951 84.1362 187.214 84.8153C186.705 84.9426 186.047 84.8365 185.707 85.2185L186.365 85.6428C187.617 86.428 189.484 86.6402 190.906 86.2794L191.606 86.0672C192.582 85.7489 193.325 85.0063 194.259 84.6031C193.41 85.8975 192.2 86.8948 190.651 87.2131C188.826 87.5951 186.98 86.8311 185.495 85.8126L184.349 84.8365Z" fill="#A22B1E"/>
<path d="M167.097 64.911L168.689 63.9985C168.816 65.8871 169.389 67.712 170.195 69.4308C170.28 69.7703 170.386 70.0886 170.386 70.4281L169.347 70.1098L169.177 70.322C169.389 70.8525 169.453 71.0222 169.983 71.3193C170.429 71.5527 171.065 71.7013 171.575 71.7649C171.108 72.741 171.851 74.0354 172.126 75.0328C172.339 75.8179 172.402 76.4757 172.381 77.282C171.914 77.5791 171.405 77.9186 171.193 78.4279L168.264 72.2105C167.288 70.3008 166.461 68.3698 165.845 66.2903L167.097 64.911Z" fill="#E0754B"/>
<path d="M196.444 63.2983C197.336 63.5742 197.399 63.4044 198.227 63.0012C198.312 63.3832 198.227 63.468 198.036 63.7863C197.717 64.2956 197.272 64.5927 196.678 64.6988C196.232 64.7837 195.829 64.72 195.405 64.6564C195.786 65.6537 195.935 66.3539 195.829 67.4361C195.489 68.1152 195.192 68.582 194.683 69.1337L194.492 69.3671C193.813 69.643 193.176 69.8976 192.434 69.7915C191.267 69.643 190.545 68.9215 189.866 68.0303C189.59 67.2664 189.59 66.7147 189.654 65.9083L189.972 65.4203C190.842 64.1259 191.797 63.5741 193.283 63.2559L196.444 63.2983Z" fill="#03070E"/>
<path d="M193.495 63.7437C194.259 63.9983 194.577 64.168 195.065 64.8258C194.789 65.2502 194.726 65.3988 194.259 65.611C193.792 65.5473 193.325 65.4412 192.986 65.0593C192.71 64.741 192.688 64.5288 192.688 64.1044L193.495 63.7437Z" fill="#FEFEFE"/>
<path d="M197.951 67.3724C199.479 66.9268 201.303 66.8207 202.768 67.6058C203.213 67.8605 203.595 68.1788 203.829 68.6456C203.913 69.4944 203.913 70.9161 203.319 71.5951L203.065 71.8286L202.937 71.9559C201.643 73.0805 199.457 73.611 197.802 73.42C197.187 73.3564 196.55 73.1654 195.977 72.9532C195.723 72.8047 195.447 72.6561 195.213 72.4651C194.259 71.7012 194.556 70.4068 194.492 69.3246L194.683 69.0912C195.192 68.5395 195.489 68.0727 195.829 67.3937C196.529 67.7756 197.208 67.5846 197.951 67.3724Z" fill="#F99264"/>
<path d="M194.492 69.3247L194.683 69.0913C195.192 68.5396 195.489 68.0728 195.829 67.3938C196.529 67.7333 197.208 67.5635 197.951 67.3513C196.359 68.9216 195.617 69.8552 195.51 72.1894C195.659 72.4228 195.85 72.6774 195.977 72.9321C195.723 72.7835 195.447 72.635 195.213 72.444C194.28 71.7013 194.556 70.4282 194.492 69.3247Z" fill="#F09965"/>
<path d="M113.369 49.5055C113.263 48.8901 113.284 48.1262 113.284 47.5108C113.284 46.6832 112.903 46.0467 112.605 45.304C112.202 44.3703 111.863 43.3942 111.608 42.3969C110.017 36.3705 109.932 29.4741 110.972 23.3628C112.16 16.424 116.192 11.013 122.642 8.16957C123.47 7.80883 124.319 7.51176 125.21 7.27834C125.719 7.15102 126.483 7.06614 126.907 6.76907C125.719 6.06882 124.701 5.51711 123.3 5.38979C123.024 5.36857 123.067 5.34735 122.876 5.1776L123.003 5.13516C124.701 4.47735 126.568 5.0715 128.159 5.72931C127.629 4.51979 127.056 3.20417 127.48 1.86733C127.99 2.99197 128.414 4.03174 129.072 5.09272C130.048 2.41904 131.746 1.25196 134.186 0C132.785 1.61269 131.724 3.11929 130.812 5.05028C132.998 4.18027 135.438 3.71344 137.751 3.35271C142.928 2.50392 148.297 2.82221 153.199 4.79564C156.021 5.9415 158.673 7.61786 161.156 9.40031L167.034 14.0686C169.941 16.5938 173.209 20.2011 176.88 21.5592L177.028 21.3894C177.856 20.4557 178.429 19.3948 179.087 18.3338C178.811 20.3284 178.344 22.0048 177.707 23.9146C178.662 22.9597 179.278 22.0472 179.978 20.9014C180.084 20.7316 180.36 20.1587 180.53 20.1162C180.148 21.7714 179.787 23.4477 179.214 25.0392C178.896 25.888 178.174 27.0763 178.132 27.9251L177.856 27.8614C177.368 28.4343 177.092 29.0709 176.646 29.6863C176.37 30.0683 175.479 31.1717 175.416 31.5748C174.058 33.3149 172.063 34.7578 170.068 35.6702C169.538 35.9037 168.625 36.1371 168.222 36.519C168.074 36.6676 168.074 37.0495 168.031 37.2617L167.883 36.6676C167.098 36.71 166.27 37.0071 165.506 37.1556C163.724 37.4739 161.793 37.2829 160.01 37.0283C152.392 35.9037 144.753 30.7261 140.233 24.5936L140.042 24.6148L139.809 25.2302L139.597 25.1877C136.626 30.3229 134.61 36.0734 128.181 37.771L127.947 37.8346C126.632 36.9859 125.74 35.6915 124.531 34.6941C123.364 33.7393 121.115 32.9541 119.629 33.3361C119.056 33.4846 118.589 34.0788 118.229 34.5032L118.186 34.8215L118.42 34.9488C117.189 35.1397 116.17 35.4793 115.428 36.5402C115.088 37.0283 114.918 37.58 114.727 38.1317C114.006 40.4022 114.664 43.7761 115.555 45.9618C114.6 47.2562 115.661 49.1872 114.897 50.4179C114.197 50.2906 113.942 49.8238 113.369 49.5055Z" fill="#563B22"/>
<path d="M135.141 26.2063L135.204 26.2487L135.226 26.4609C134.504 28.0736 132.891 29.1983 131.406 30.0471C132.573 28.4556 133.507 27.3097 135.141 26.2063Z" fill="#835E3C"/>
<path d="M126.95 22.4715C127.693 22.2593 128.308 21.262 128.817 20.6678L128.86 20.9861L128.308 21.6439L128.35 21.7712C129.051 21.1347 129.284 20.7739 130.239 20.5193L130.409 20.7315C130.303 21.4317 129.963 22.0047 129.73 22.6625C129.369 23.681 129.433 24.5086 128.711 25.3786C129.157 23.7235 129.602 22.1956 130.196 20.6042C128.541 21.9198 127.311 23.1505 126.143 24.9118C125.868 25.3361 125.443 25.8454 125.295 26.3123L125.464 26.4396L125.061 26.6093C124.022 26.9276 123.194 27.4793 122.281 28.031C122.727 26.9276 124.085 24.7208 124.976 23.9357L125.189 24.1691C125.825 23.7235 126.207 23.0869 126.78 22.5988L126.95 22.4715Z" fill="#65482E"/>
<path d="M125.486 26.4606L125.316 26.3333C125.443 25.8453 125.889 25.336 126.165 24.9328C127.332 23.1716 128.541 21.9196 130.218 20.6252C129.624 22.2167 129.178 23.7445 128.732 25.3997C127.883 26.8426 127.544 27.6277 126.165 28.6675L127.841 26.1848L125.868 27.946C126.228 27.0124 126.971 26.2697 127.586 25.4845C126.865 25.8453 126.207 26.1848 125.486 26.4606Z" fill="#835E3C"/>
<path d="M126.271 20.2015L127.947 19.0132C127.841 19.6073 127.396 20.4137 127.353 20.923C127.353 20.9442 127.523 21.22 127.544 21.2625C127.693 21.5383 127.099 22.2598 126.95 22.4932L126.78 22.6417C126.207 23.1298 125.825 23.7664 125.189 24.212L124.977 23.9786L125.061 23.7876L124.679 23.4905C123.534 23.7876 122.494 24.1483 121.412 24.6364L122.642 22.9813L119.353 24.7213L119.184 24.5515L119.523 24.021C119.905 23.533 120.69 23.1298 121.221 22.8115C122.812 21.8354 124.467 21.0715 126.016 19.9681L126.271 20.2015Z" fill="#65482E"/>
<path d="M126.271 20.2015L127.947 19.0132C127.841 19.6073 127.396 20.4137 127.353 20.923C127.353 20.9442 127.523 21.22 127.544 21.2625C127.693 21.5383 127.099 22.2598 126.95 22.4932L126.78 22.6417C126.207 23.1298 125.825 23.7664 125.189 24.212L124.977 23.9786L125.062 23.7876C125.486 23.4693 126.101 22.8539 126.292 22.3659C126.059 22.4932 125.847 22.6205 125.592 22.663C124.913 22.7691 124.743 22.4295 124.234 22.09C123.576 22.1749 122.94 22.663 122.303 22.8752C122.6 22.472 122.982 22.4083 123.385 22.1537L126.271 20.2015Z" fill="#835E3C"/>
<path d="M132.467 21.5378L131.852 26.2274C132.785 25.1027 133.634 23.8932 134.207 22.5352C134.271 24.2752 133.676 26.4608 132.679 27.9037C132.021 28.8586 131.066 29.7074 130.303 30.5774C130.196 30.3016 130.366 30.0257 130.472 29.7498C130.812 29.0496 131.745 27.5642 131.639 26.8215L131.13 27.1611C131.045 26.864 131.088 26.864 131.173 26.5881C130.451 27.055 129.815 27.7552 129.178 28.3281L129.39 27.6703L129.22 27.6067L127.608 28.3706C128.074 27.3308 128.902 26.4184 129.581 25.5059L132.467 21.5378Z" fill="#835E3C"/>
<path d="M118.313 18.9279L119.502 16.8696C118.78 17.4 118.08 17.9305 117.422 18.5459C116.616 19.3098 116.022 20.3071 114.876 20.5618C114.77 19.4371 116.743 16.4027 117.507 15.4691C118.907 13.7715 120.393 12.859 122.281 11.7556L120.923 15.66C122.133 14.7264 123.279 13.8776 124.616 13.1137L122.791 16.6361C123.746 16.0844 124.637 15.7449 125.676 15.4478L123.83 17.782C124.17 17.9093 124.446 17.8244 124.806 17.782C124.616 18.164 124.425 18.27 124.064 18.4822C124.722 18.6308 125.507 18.1852 126.207 18.1215L126.228 18.3125L126.292 18.5247L127.989 18.0366C127.374 18.6732 126.737 19.4583 126.016 19.9676C124.467 21.0498 122.833 21.8137 121.22 22.8111C120.69 23.1294 119.905 23.5325 119.523 24.0206L117.592 25.6121C116.955 26.0789 116.404 26.8004 115.852 27.3945C115.746 26.8852 115.894 26.185 115.937 25.6757C116.234 23.3203 117.146 20.9649 118.313 18.9279Z" fill="#835E3C"/>
<path d="M118.313 18.9279L118.441 18.9067C119.608 18.7582 120.669 18.1428 121.687 17.6123C120.053 20.0526 118.398 22.4292 117.486 25.2514L117.613 25.5909C116.977 26.0577 116.425 26.7792 115.873 27.3733C115.767 26.8641 115.916 26.1638 115.958 25.6546C116.234 23.3204 117.146 20.965 118.313 18.9279Z" fill="#65482E"/>
<path d="M137.73 3.33149C142.907 2.4827 148.276 2.80099 153.177 4.77442C156 5.92028 158.652 7.59664 161.135 9.37909L167.013 14.0474C169.92 16.5726 173.188 20.1799 176.859 21.538C176.031 22.9809 174.673 24.2541 173.4 25.3151C168.625 29.1982 162.96 30.7685 156.87 30.0895C160.201 31.6385 163.639 32.5934 167.267 33.1239C163.087 33.7605 159.204 33.9939 155.172 32.3388C146.493 28.7739 140.934 20.3921 137.496 12.0315L146.132 14.7052C144.074 12.5833 141.379 10.9706 138.854 9.48519L144.902 7.10858C145.475 6.85395 146.005 6.55687 146.239 5.9415L145.963 5.55955C145.135 5.13516 143.501 5.51711 142.568 5.55955C142.695 4.98662 143.247 4.24393 143.077 3.671C141.401 3.26783 139.618 3.671 137.92 3.3527L137.73 3.33149Z" fill="#835E3C"/>
<path d="M143.31 17.676C144.732 19.0977 146.09 20.2224 147.957 20.9863C154.069 23.469 160.435 22.0048 166.312 19.5646C165.994 20.0526 165.039 20.6256 164.551 20.9863L164.127 21.2621C160.541 23.5963 155.894 25.6758 151.544 24.6997C147.533 23.8297 145.411 20.9439 143.31 17.676Z" fill="#563B22"/>
<path d="M139.746 25.1876L139.979 24.5722L140.17 24.551C144.69 30.6623 152.35 35.8399 159.947 36.9857C161.729 37.2616 163.66 37.4314 165.443 37.1131C166.228 36.9857 167.034 36.6674 167.819 36.625L167.968 37.2192C167.819 38.2377 167.798 39.7655 167.416 40.678L167.289 41.9511C166.737 43.6487 166.397 45.4312 165.697 47.0651L165.761 48.2322C165.952 48.4019 166.079 48.5292 166.313 48.6353L165.931 49.2295C165.4 49.2931 164.997 49.4629 164.509 49.6751C163.618 51.1605 162.09 53.8766 162.09 55.6166C162.09 55.9561 162.111 56.232 161.963 56.5503C162.217 57.3991 162.26 58.3327 162.366 59.2239L162.281 59.3513C161.623 60.4971 161.305 61.6854 160.541 62.8101C157.337 67.6269 151.968 70.3218 147.851 74.1626C146.727 74.9265 145.645 76.0087 144.838 77.1121C144.202 77.7487 143.586 78.449 142.822 78.9158L142.016 79.2553C140 79.9768 138.069 79.128 136.244 78.3004L138.133 83.7539C137.136 84.9846 136.138 85.791 134.78 86.6185L136.499 90.7139H136.563C137.645 89.9924 138.6 89.1224 139.533 88.2524L139.788 89.3771C138.96 90.1622 137.878 91.3717 136.838 91.8173L136.817 91.9022L135.247 92.6025C129.687 94.7669 123.449 93.812 118.101 91.499C117.529 91.4354 116.828 91.0322 116.234 90.8624L114.919 90.1198L115.088 89.95L115.513 90.0561L115.937 90.141C116.34 90.2683 116.637 90.3744 117.062 90.4381C116.192 88.2524 114.876 86.1941 113.645 84.1995L112.139 83.2022C111.205 82.7353 110.378 82.0987 109.529 81.4834C107.683 78.8733 106.494 75.3509 105.433 72.3589C104.754 69.7701 104.203 67.2238 103.969 64.5501C103.757 62.0249 104.245 59.0542 105.348 56.8049C107.216 54.9164 109.847 54.1524 112.415 53.7917C112.966 53.3673 113.2 52.1154 113.369 51.4575L113.2 49.5266C113.773 49.8236 114.027 50.3117 114.706 50.3966C115.449 49.1658 114.409 47.2136 115.364 45.9404C114.452 43.776 113.815 40.4021 114.537 38.1104C114.706 37.5587 114.897 36.9857 115.237 36.5189C115.98 35.4579 116.998 35.1184 118.229 34.9274L117.995 34.8001L118.038 34.4818C118.42 34.0574 118.865 33.4633 119.438 33.3147C120.945 32.9328 123.194 33.6967 124.34 34.6728C125.528 35.6701 126.441 36.9645 127.756 37.8133L127.99 37.7497C134.419 36.0521 136.435 30.3228 139.406 25.1664L139.746 25.1876Z" fill="#F09965"/>
<path d="M121.115 39.2988C121.985 40.6144 122.452 42.1423 122.388 43.7337C121.56 43.0971 121.179 41.3359 120.775 40.381C120.733 39.8505 120.86 39.7444 121.115 39.2988Z" fill="#A22B1E"/>
<path d="M117.444 37.4316C117.974 37.1557 118.293 37.177 118.887 37.3467C119.863 37.6226 120.563 38.4714 121.094 39.2777L121.115 39.3201C120.86 39.7658 120.733 39.8719 120.797 40.4023L120.69 40.4448C120.308 40.3387 120.266 40.275 119.905 40.4448L120.011 39.787C120.011 38.8109 118.25 38.1106 117.571 37.5377L117.444 37.4316Z" fill="#BC432A"/>
<path d="M162.005 56.5717L161.305 56.8263C160.307 57.1234 158.758 57.1871 157.846 56.6354C157.294 56.2959 157.252 56.1261 157.124 55.5319L157.4 55.2561C158.97 55.2136 160.562 55.4895 162.111 55.6593C162.132 55.9776 162.153 56.2534 162.005 56.5717Z" fill="#03070E"/>
<path d="M138.727 48.7627C139.873 49.2507 140.806 50.4178 142.016 50.9695C142.928 51.3727 144.477 51.3303 145.156 51.8395V52.5398C144.838 52.6883 144.499 52.8156 144.138 52.8581C142.907 53.0491 141.443 52.4549 140.467 51.7334C139.385 50.9271 138.918 50.0995 138.727 48.7627Z" fill="#03070E"/>
<path d="M113.369 49.5056C113.942 49.8026 114.197 50.2907 114.876 50.3756C115.619 49.1448 114.579 47.1926 115.534 45.9194C116.17 47.129 116.871 48.296 118.229 48.7204L118.356 48.7629C118.08 49.3146 117.571 49.7602 117.168 50.227C116.68 50.8 116.319 51.6487 115.555 51.9246C115.088 52.0944 114.43 52.1368 113.985 51.8609C113.815 51.7548 113.666 51.5851 113.518 51.4153L113.369 49.5056Z" fill="#3A2111"/>
<path d="M154.472 53.3037C154.62 54.4284 154.26 55.7652 154.387 56.9959C154.578 59.1816 155.66 61.0064 156.254 63.0648C156.445 63.765 156.403 64.6562 156.042 65.2716C155.596 66.0567 154.854 66.5872 153.984 66.7782C152.053 67.1814 150.079 66.2053 148.509 65.2079L148.021 64.7411L148.085 64.5713C149.719 65.2504 151.607 66.2053 153.453 65.8021C154.132 65.6535 154.769 65.1655 155.108 64.5501C155.978 63.086 154.408 60.7518 153.962 59.224C153.347 57.1657 153.453 55.1923 154.472 53.3037Z" fill="#CA5030"/>
<path d="M164.551 49.6965C163.406 49.2297 161.517 49.1872 160.668 48.2536C160.392 47.9565 160.329 47.3199 160.371 46.9379C160.435 46.3013 160.732 45.7708 161.241 45.3677C162.727 45.6435 164.339 46.4711 165.74 47.044L165.803 48.2111C165.994 48.3809 166.122 48.5082 166.355 48.6143L165.973 49.2084C165.443 49.3145 165.018 49.4843 164.551 49.6965Z" fill="#3A2111"/>
<path d="M148.976 69.0279L149.061 69.1552C148.764 69.5372 148.424 69.7706 148.021 70.0252C146.557 70.9589 144.69 71.1923 143.013 70.7891C140.934 70.2799 139.342 68.4762 138.26 66.7362C137.645 65.7389 136.202 63.4047 136.456 62.3013L136.796 62.7681C138.239 65.7601 140.934 68.1367 144.053 69.2825C145.772 69.8555 147.384 69.7069 148.976 69.0279Z" fill="#A22B1E"/>
<path d="M104.139 64.529L105.306 63.7651C105.9 68.9003 107.195 74.4811 109.614 79.0857C110.123 80.0831 110.759 81.0592 111.417 81.9504C111.672 82.3111 112.16 82.7567 112.287 83.1599C111.354 82.6931 110.526 82.0565 109.677 81.4411C107.831 78.8311 106.643 75.3086 105.582 72.3167C104.924 69.7491 104.351 67.2027 104.139 64.529Z" fill="#A22B1E"/>
<path d="M136.838 62.7251C137.624 62.8312 138.939 64.1256 139.682 64.5924C143.183 66.6932 147.045 67.7329 151.034 68.3695C150.419 68.5393 149.507 68.6878 148.976 69.0273C147.363 69.7064 145.751 69.8549 144.096 69.2395C140.976 68.0937 138.281 65.7171 136.838 62.7251Z" fill="#FEFEFE"/>
<path d="M144.626 41.1448C145.878 41.0599 150.885 41.0175 151.755 41.6329C152.074 42.1421 152.159 42.4604 152.074 43.0758C151.989 43.6699 151.649 44.2853 151.14 44.6036C150.376 45.1129 147.766 44.2217 146.811 44.0095C143.925 43.5638 141.358 43.4365 138.451 43.7124L139.002 42.9909C140.254 41.4207 142.78 41.3146 144.626 41.1448Z" fill="#3A2111"/>
<path d="M117.443 37.4314L117.549 37.5163C118.229 38.0892 119.99 38.7895 119.99 39.7656L119.884 40.4234C120.266 40.2536 120.287 40.3173 120.669 40.4234L120.775 40.3809C121.178 41.357 121.56 43.097 122.388 43.7336C122.239 44.6885 121.751 45.8768 121.008 46.5134C120.626 46.8529 120.16 47.0015 119.65 46.9166C118.886 46.8105 118.101 46.0466 117.698 45.4312C116.107 42.9273 116.87 40.1051 117.443 37.4314Z" fill="#CA5030"/>
<path d="M119.884 40.4236C120.266 40.2539 120.287 40.3175 120.669 40.4236C120.775 41.6332 119.99 42.1636 119.671 43.2034C119.459 43.9249 119.438 44.7737 119.396 45.5376L119.099 45.5588C118.419 44.71 118.292 43.7763 118.441 42.7154C118.568 41.9515 119.417 41.0178 119.884 40.4236Z" fill="#A22B1E"/>
<path d="M105.518 56.7837C107.385 54.8951 110.017 54.1312 112.584 53.7705C112.287 54.8739 111.587 55.8713 110.993 56.8474C109.444 59.3725 107.683 61.9613 105.306 63.7862L104.139 64.5501C103.905 62.025 104.415 59.0542 105.518 56.7837Z" fill="#0C3357"/>
<path d="M118.377 34.8851L118.144 34.7577L118.186 34.4395C118.568 34.0151 119.014 33.4209 119.587 33.2724C121.094 32.8904 123.343 33.6543 124.489 34.6304C125.677 35.6278 126.589 36.9222 127.905 37.7709L128.139 37.7073C134.568 36.0097 136.584 30.2804 139.555 25.124L139.767 25.1665L139.406 27.8189C138.388 31.8507 136.966 35.7763 133.231 38.068C132.595 38.45 131.937 38.7683 131.237 39.0441C131.046 39.129 130.579 39.2351 130.409 39.3624C130.176 39.5534 129.857 40.2961 129.709 40.5719C128.966 41.8876 126.844 46.4073 125.826 46.9803C125.528 47.15 125.189 47.0651 124.849 47.0439C124.128 46.6195 123.619 46.1315 123.385 45.2827C123.194 44.54 123.3 43.5851 123.343 42.8212C123.428 41.06 123.619 38.7895 122.855 37.1556C122.388 36.1795 121.815 35.458 120.754 35.0973C119.99 34.8638 119.141 34.8426 118.377 34.8851Z" fill="#3A2111"/>
<path d="M139.745 25.1876L139.979 24.5722L140.17 24.551C144.69 30.6623 152.35 35.8399 159.947 36.9857C161.729 37.2616 163.66 37.4314 165.442 37.1131C166.228 36.9857 167.034 36.6674 167.819 36.625L167.968 37.2192C167.819 38.2377 167.798 39.7655 167.416 40.678C167.098 40.5082 166.907 40.5082 166.567 40.6143C164.912 41.1024 163.427 40.9963 161.75 40.8265C153.093 39.9777 144.775 34.4606 139.364 27.8401L139.745 25.1876Z" fill="#E0754B"/>
<path d="M113.815 84.1995C115.576 85.0907 117.38 86.0456 119.247 86.7034C123.873 88.3373 128.987 88.5707 133.676 87.1278L134.886 86.6185L136.605 90.7139H136.668C137.75 89.9924 138.705 89.1224 139.639 88.2524L139.894 89.3771C139.066 90.1622 137.984 91.3717 136.944 91.8173L136.923 91.9022L135.353 92.6024C129.793 94.7669 123.555 93.812 118.207 91.499C117.634 91.4354 116.934 91.0322 116.34 90.8624L115.024 90.1197L115.194 89.95L115.618 90.0561L116.043 90.141C116.446 90.2683 116.743 90.3744 117.167 90.438C116.34 88.2524 115.045 86.1941 113.815 84.1995Z" fill="#D5E4F3"/>
<path d="M139.639 88.231L139.894 89.3556C139.067 90.1407 137.984 91.3502 136.945 91.7959L136.923 91.8807L135.353 92.581C129.794 94.7454 123.555 93.7905 118.208 91.4776C117.635 91.4139 116.934 91.0107 116.34 90.841L115.025 90.0983L115.194 89.9285L115.619 90.0346L116.043 90.1195C116.446 90.2468 116.743 90.3529 117.168 90.4166C123.767 92.2415 129.963 93.8329 136.563 90.6924H136.626C137.751 89.9922 138.706 89.101 139.639 88.231Z" fill="#99A6C0"/>
<path d="M133.677 87.1278L132.509 86.7671C128.435 85.3666 125.507 79.9768 123.703 76.3058C120.86 70.4492 118.144 62.8738 118.674 56.2745C118.759 55.1498 118.865 54.004 119.247 52.9218C119.353 52.6035 119.481 52.2003 119.778 52.0518C119.756 54.5345 119.544 56.7413 120.202 59.1816C120.966 62.0462 122.345 64.4653 124.022 66.8843C127.332 71.6587 131.279 75.3722 136.308 78.2792L138.196 83.7327C137.199 84.9634 136.202 85.7698 134.844 86.5974L133.677 87.1278Z" fill="#BC432A"/>
<path d="M166.333 48.6569C168.434 46.5985 171.426 46.0256 174.248 45.7498L169.898 56.9537C169.262 58.7574 168.54 60.6884 168.286 62.5769C167.861 62.9801 167.267 63.447 166.949 63.935L167.097 64.2745L166.949 64.5504L167.097 64.8899L165.845 66.2692C166.461 68.3275 167.288 70.2585 168.264 72.1894L171.193 78.4068L173.272 82.2476C173.463 82.5234 173.697 82.9478 173.93 83.16C176.752 87.0856 180.296 89.3774 184.54 91.5418C186.322 92.4542 188.19 93.3879 190.184 93.7274C191.479 93.9396 192.582 93.9184 193.834 93.5364C194.598 96.2525 195.277 98.7989 195.574 101.621L194.28 102.215C192.752 103.467 191.139 104.698 189.972 106.311C189.335 107.202 188.762 108.411 188.041 109.197L187.85 108.815L178.853 118.024C176.561 120.294 174.163 122.671 171.575 124.602L165.103 129.631L164.169 130.628C162.938 132.241 162.323 133.811 161.898 135.785C161.623 139.668 162.514 143.891 163.766 147.562C164.254 148.962 164.975 150.49 165.272 151.933C165.378 152.485 165.294 153.164 165.145 153.715C164.742 154.31 164.339 154.967 163.851 155.498L156.042 162.14L153.665 145.609L147.681 116.772C146.472 111.828 145.305 106.905 143.734 102.067L143.31 100.815L139.936 89.4198L139.681 88.2952C138.727 89.1652 137.772 90.0352 136.711 90.7566H136.647L134.928 86.6613C136.265 85.8337 137.262 85.0273 138.281 83.7966L136.392 78.3431C138.217 79.1919 140.127 80.0407 142.164 79.298L142.97 78.9585C143.734 78.4917 144.35 77.7914 144.986 77.1548C145.814 76.0726 146.896 74.9904 148 74.2053C152.116 70.3433 157.485 67.6697 160.689 62.8528C161.432 61.7282 161.771 60.5399 162.429 59.394L162.514 59.2667C162.386 58.3755 162.365 57.4418 162.111 56.593C162.259 56.2747 162.238 55.9989 162.238 55.6593C162.238 53.9193 163.745 51.2032 164.657 49.7178C165.145 49.5056 165.548 49.3359 166.079 49.2722L166.333 48.6569Z" fill="#275584"/>
<path d="M143.268 100.772L143.395 96.7404C143.522 94.8731 143.798 91.8599 145.369 90.6079C145.814 90.2684 146.345 90.5018 146.875 90.5655C147.469 90.9262 148.106 91.2657 148.636 91.7326L149.973 93.2816L149.888 93.5787C148.955 93.4726 147.491 93.1543 146.663 93.706L146.408 93.9182L146.26 94.0455C144.796 95.446 144.371 98.0348 144.053 99.9658C143.947 100.645 143.926 101.366 143.692 102.003L143.268 100.772Z" fill="#0C3357"/>
<path d="M142.907 78.9157C143.671 78.4489 144.287 77.7487 144.923 77.1121C145.135 77.7699 145.305 78.5338 145.645 79.1279C146.493 79.3401 146.748 79.9555 147.194 80.677C148.849 83.3719 150.546 86.2577 151.225 89.3982C151.544 90.8836 151.544 92.3902 151.565 93.8968C151.268 94.0241 150.377 93.7907 150.058 93.6634L149.91 93.5785L149.995 93.2814L148.658 91.7324C148.127 91.2656 147.491 90.9261 146.897 90.5653L142.907 78.9157Z" fill="#18426E"/>
<path d="M142.907 78.9157C143.671 78.4489 144.287 77.7487 144.923 77.1121C145.135 77.7699 145.305 78.5338 145.645 79.1279L148.148 88.1675C148.403 89.3134 148.785 90.5441 148.679 91.7324C148.148 91.2656 147.512 90.9261 146.918 90.5653L142.907 78.9157Z" fill="#4974AA"/>
<path d="M158.228 127.997C158.694 128.272 159.161 128.591 159.649 128.803C160.668 129.715 162.302 130.755 163.723 130.67L164.127 130.607C162.896 132.219 162.28 133.79 161.856 135.763C161.58 139.646 162.471 143.869 163.723 147.54C164.211 148.94 164.933 150.468 165.23 151.911C165.336 152.463 165.251 153.142 165.103 153.694C164.7 154.288 164.296 154.946 163.808 155.476L163.193 155.073C162.535 154.67 162.026 154.224 161.495 153.672C159.798 151.975 159.204 149.45 158.843 147.137C158.291 143.614 158.206 140.092 158.206 136.527L158.228 127.997Z" fill="#0C3357"/>
<path d="M136.329 78.2793C138.154 79.1281 140.064 79.9769 142.101 79.2342L142.907 78.8947L146.896 90.5443C146.366 90.4594 145.835 90.226 145.39 90.5867C143.798 91.8387 143.544 94.8518 143.416 96.7192L143.289 100.751L139.915 89.356L139.66 88.2313C138.706 89.1013 137.751 89.9713 136.69 90.6928H136.626L134.907 86.5974C136.244 85.7698 137.241 84.9635 138.26 83.7327L136.329 78.2793Z" fill="#336E85"/>
<path d="M138.218 83.7539L139.639 88.2525C138.685 89.1225 137.73 89.9925 136.669 90.714H136.605L134.886 86.6186C136.223 85.791 137.22 84.9634 138.218 83.7539Z" fill="#A7B6CF"/>
<path d="M156.106 76.4116C160.265 78.2153 163.278 80.9314 165.93 84.6024C166.779 85.7907 167.48 87.0639 168.307 88.2522C168.052 89.8437 167.373 91.2654 166.652 92.6659C164.997 95.9337 162.663 99.1379 159.649 101.302L159.416 101.451C158.673 98.5649 158.207 95.6154 157.676 92.7083C156.679 87.2549 155.639 81.9924 156.106 76.4116Z" fill="#0C3357"/>
<path d="M147.936 74.1625C152.053 70.3005 157.421 67.6269 160.625 62.81C161.368 61.6854 161.708 60.4971 162.365 59.3512L162.45 59.2239C163.554 63.8498 165.803 68.2422 167.967 72.4437C168.965 74.7567 169.092 77.5152 169.177 80.0404C169.156 82.8838 169.05 85.4514 168.328 88.2311C167.501 87.0428 166.822 85.7484 165.952 84.5814C163.299 80.9316 160.286 78.1942 156.127 76.3906C153.453 75.4781 150.716 74.5869 147.936 74.1625Z" fill="#FBB0C1"/>
<path d="M169.135 80.0408C169.368 80.3803 169.347 80.5076 169.368 80.9108L169.559 80.4227L169.708 80.6774L169.793 80.3803C169.877 80.4439 169.984 80.5288 170.026 80.6137C170.811 81.8657 171.639 83.2237 172.19 84.6242C173.697 88.4438 173.867 93.1121 172.933 97.1014C172.19 100.306 170.641 103.149 168.541 105.674L164.466 110.194C163.681 110.809 163.087 111.722 162.578 112.571C160.774 115.456 160.116 118.109 159.459 121.398C159.883 124.22 160.965 128.125 163.384 129.928L163.83 130.246C163.978 130.353 164.063 130.48 164.169 130.628L163.766 130.692C162.344 130.777 160.689 129.737 159.692 128.825C159.204 128.613 158.737 128.294 158.27 128.018C156.509 126.703 154.812 125.345 153.517 123.541C151.31 120.443 149.995 116.242 150.695 112.443C151.65 107.287 155.342 104.252 159.437 101.494L159.671 101.345C162.663 99.1809 165.018 95.9767 166.673 92.7089C167.395 91.2872 168.074 89.8655 168.328 88.2952C169.007 85.473 169.135 82.9054 169.135 80.0408Z" fill="#602C2C"/>
<path d="M159.671 128.803C159.161 127.891 158.716 126.936 158.419 125.939C157.018 121.461 157.528 116.093 159.734 111.976L160.01 112.04C159.416 115.18 159.055 118.193 159.459 121.376C159.883 124.199 160.965 128.103 163.384 129.907L163.83 130.225C163.978 130.331 164.063 130.458 164.169 130.607L163.766 130.671C162.323 130.755 160.668 129.716 159.671 128.803Z" fill="#330B11"/>
<path d="M170.026 80.6135C170.811 81.8655 171.638 83.2235 172.19 84.624C173.697 88.4436 173.867 93.1119 172.933 97.1012C172.19 100.305 170.641 103.149 168.54 105.674L164.466 110.194C163.681 110.809 163.087 111.722 162.578 112.57C160.774 115.456 160.116 118.109 159.458 121.398C159.034 118.215 159.416 115.202 160.01 112.061C160.286 111.488 160.413 110.724 160.625 110.13C161.092 108.857 161.729 107.584 162.45 106.438C164.148 103.743 166.652 101.663 168.434 99.011C172.254 93.2604 171.278 86.9582 170.026 80.6135Z" fill="#794343"/>
<path d="M166.334 48.6569C168.435 46.5985 171.427 46.0256 174.249 45.7498L169.899 56.9537C169.262 58.7574 168.541 60.6884 168.286 62.5769C167.862 62.9801 167.268 63.447 166.949 63.935L167.098 64.2745L166.949 64.5504L167.098 64.8899L165.846 66.2692C166.461 68.3275 167.289 70.2585 168.265 72.1894L171.193 78.4068L173.273 82.2476C173.464 82.5234 173.697 82.9478 173.931 83.16C176.753 87.0856 180.296 89.3774 184.54 91.5418C186.323 92.4542 188.19 93.3879 190.185 93.7274C191.479 93.9396 192.583 93.9184 193.835 93.5364C194.599 96.2525 195.278 98.7989 195.575 101.621L194.28 102.215C192.752 103.467 191.14 104.698 189.973 106.311C189.336 107.202 188.763 108.411 188.042 109.197L187.851 108.815L178.854 118.024C176.562 120.294 174.164 122.671 171.575 124.602L165.103 129.631L164.17 130.628C164.085 130.459 163.979 130.353 163.83 130.246L163.384 129.928C160.965 128.124 159.883 124.22 159.459 121.398C160.117 118.109 160.774 115.456 162.578 112.57C163.109 111.743 163.681 110.809 164.467 110.194L168.541 105.674C170.641 103.149 172.191 100.327 172.933 97.1013C173.867 93.112 173.718 88.4437 172.191 84.6242C171.639 83.2449 170.811 81.8868 170.026 80.6137C169.962 80.5288 169.878 80.4439 169.793 80.3802L169.708 80.6773L169.559 80.4227L169.368 80.9107C169.347 80.5076 169.347 80.3802 169.135 80.0407C169.05 77.5368 168.923 74.7782 167.925 72.4441C165.761 68.2426 163.49 63.8289 162.408 59.2242C162.281 58.333 162.26 57.3993 162.005 56.5506C162.154 56.2323 162.132 55.9564 162.132 55.6169C162.132 53.8769 163.639 51.1608 164.551 49.6754C165.04 49.4632 165.443 49.2934 165.973 49.2298L166.334 48.6569Z" fill="#330B11"/>
<path d="M166.334 48.6569C168.435 46.5985 171.427 46.0256 174.249 45.7498L169.899 56.9537C169.262 58.7574 168.541 60.6884 168.286 62.5769C167.862 62.9801 167.268 63.447 166.949 63.935C166.419 64.5504 166.058 65.3355 165.655 66.0145L164.53 62.0465C163.745 58.8423 163.384 54.7893 164.615 51.6488C164.933 50.8213 165.485 50.0149 165.952 49.251L166.334 48.6569Z" fill="#E0754B"/>
<path d="M171.554 124.602L174.1 117.451C175.501 114.247 177.729 110.533 180.381 108.241C182.1 106.756 184.349 105.631 186.471 104.846L194.28 102.215C192.752 103.467 191.139 104.698 189.972 106.31C189.336 107.202 188.763 108.411 188.041 109.196L187.85 108.814L178.853 118.024C176.54 120.294 174.164 122.671 171.554 124.602Z" fill="#6D4C61"/>
<path d="M164.466 110.194C165.357 110.003 166.079 109.069 166.758 108.454C168.731 106.586 170.683 104.762 172.148 102.47C175.097 97.8439 175.734 92.0085 174.821 86.6824C177.049 90.608 178.726 95.8068 177.452 100.284C176.116 105.037 171.469 108.242 168.264 111.743C164.466 115.881 160.647 121.886 163.639 127.488C164.042 128.23 164.593 128.931 165.081 129.61L164.148 130.607C164.063 130.437 163.957 130.331 163.808 130.225L163.363 129.907C160.944 128.103 159.861 124.199 159.437 121.377C160.095 118.087 160.753 115.435 162.556 112.549C163.108 111.722 163.702 110.809 164.466 110.194Z" fill="#602C2C"/>
<path d="M136.966 91.8175C137.984 91.3506 139.088 90.1623 139.915 89.3772L143.289 100.772L143.714 102.024C145.284 106.862 146.451 111.785 147.66 116.729L153.644 145.567L156.021 162.097C152.583 165.068 149.634 168.208 146.663 171.646C145.475 173.004 143.926 174.68 143.141 176.293L139.618 179.964L137.475 180.028C137.475 179.603 137.517 179.242 137.284 178.882L133.677 178.521L125.274 176.972C120.457 175.89 115.788 174.383 111.12 172.877C115.152 156.198 119.353 139.774 121.03 122.65C121.751 115.223 122.154 107.817 120.902 100.411C120.372 97.2921 119.12 94.5124 118.229 91.4992C123.576 93.8121 129.815 94.767 135.374 92.6026L136.944 91.9023L136.966 91.8175Z" fill="#D5E4F3"/>
<path d="M136.966 91.8175C137.984 91.3506 139.088 90.1623 139.915 89.3772L143.289 100.772L143.713 102.024C145.284 106.862 146.451 111.785 147.66 116.729L153.644 145.567L156.021 162.097C152.583 165.068 149.634 168.208 146.663 171.646C145.475 173.004 143.926 174.68 143.14 176.293L139.618 179.964L137.475 180.028C137.475 179.603 137.517 179.242 137.284 178.882L133.677 178.521C135.608 176.908 137.263 174.808 138.769 172.792C142.461 167.869 145.093 162.67 147.3 156.962C148.721 153.312 149.888 149.832 150.419 145.928C151.14 140.41 150.207 135.445 149.209 130.055C147.193 119.148 143.947 108.157 139.682 97.9075C138.897 96.019 138.218 93.515 136.987 91.9023L136.966 91.8175Z" fill="#A7B6CF"/>
<path d="M96.2024 66.9691V66.8418C96.3085 66.375 104.924 57.2081 105.497 56.7837C104.393 59.033 103.884 62.0249 104.117 64.5289C104.351 67.2025 104.902 69.7489 105.581 72.3377C106.642 75.3509 107.831 78.8734 109.677 81.4622C110.526 82.0563 111.353 82.7141 112.287 83.1809L113.793 84.1783C115.024 86.1729 116.34 88.2312 117.21 90.4168C116.785 90.3532 116.488 90.2471 116.085 90.1198L115.661 90.0349L115.236 89.9288L115.067 90.0985L116.382 90.8412C116.955 91.0322 117.655 91.4354 118.25 91.4778C119.141 94.4698 120.414 97.2708 120.923 100.39C122.175 107.796 121.772 115.201 121.051 122.628C119.353 139.774 115.152 156.198 111.12 172.876L106.621 171.136L107.088 169.969L107.916 167.572C103.863 164.834 100.637 161.609 97.8363 157.598C93.3377 151.19 90.5367 143.699 87.9904 136.336C87.566 135.105 86.8021 133.578 86.6323 132.326C86.505 131.413 86.7809 130.352 86.9294 129.44C87.375 127.551 87.5023 125.472 87.6933 123.541C88.5421 115.032 88.3299 106.141 84.6589 98.2257C82.643 93.8544 80.033 89.8439 76.2347 86.7671C74.9827 85.7485 73.6459 84.7936 72.1393 84.2207L71.9908 84.1783L71.9059 83.86L70.7812 83.5629L70.76 83.3507L94.9292 72.4226L95.7143 67.6906L96.2024 66.9691Z" fill="#6793CC"/>
<path d="M96.2025 66.9692C96.436 68.688 96.2238 70.5341 96.245 72.2529C96.2662 74.9478 96.4996 77.6639 96.8391 80.3376L98.7277 91.8811C99.1521 94.0455 99.8523 96.2736 99.9796 98.4804C97.0938 92.2418 95.4811 84.7301 94.9294 77.8974C94.8233 76.4332 94.9294 74.9903 94.8445 73.5261L94.9081 72.4227L95.6933 67.6907L96.2025 66.9692Z" fill="#4974AA"/>
<path d="M71.8846 83.881L70.76 83.5839L70.7388 83.3717L94.908 72.4436L94.8443 73.547C94.717 74.6717 94.717 75.7326 94.7594 76.8573C87.863 80.3798 79.5874 82.7139 71.8846 83.881Z" fill="#A7B6CF"/>
<path d="M109.253 88.592C110.866 92.3055 112.924 95.5945 115.046 99.0321C115.576 99.8809 116.298 101.642 117.168 102.024C117.741 103.234 117.804 104.761 117.974 106.077C117.953 106.523 118.017 107.244 117.783 107.626L117.232 106.926L116.977 106.608C113.454 102.3 106.876 101.197 101.656 100.687C101.147 100.645 100.786 100.73 100.426 100.348C100.977 98.9685 102.102 97.568 102.972 96.3584C104.903 93.6635 106.898 90.905 109.253 88.592Z" fill="#0C3357"/>
<path d="M101.677 100.666C103.057 99.4141 104.478 98.4168 105.985 97.3346C107.195 96.4646 108.362 95.5309 109.72 94.9155C110.95 96.0826 111.884 97.4831 112.86 98.8624L117.062 104.974C117.316 105.356 117.338 105.61 117.316 106.056L117.486 106.226L117.401 106.353C117.274 106.544 117.274 106.671 117.274 106.905L117.019 106.586C113.454 102.279 106.876 101.175 101.677 100.666Z" fill="#18426E"/>
<path d="M105.603 72.3589C106.664 75.3721 107.852 78.8945 109.698 81.4833C110.547 82.0775 111.375 82.7353 112.308 83.2021L113.815 84.1995C115.046 86.1941 116.361 88.2524 117.231 90.438C116.807 90.3744 116.51 90.2683 116.107 90.141L115.682 90.0561L115.258 89.95L115.088 90.1197L116.404 90.8624C116.977 91.0534 117.677 91.4566 118.271 91.499C119.162 94.491 120.435 97.292 120.945 100.411C122.197 107.817 121.793 115.223 121.072 122.649C119.353 139.774 115.152 156.198 111.12 172.876L106.621 171.136L107.088 169.969L107.916 167.571C110.653 159.444 112.648 150.914 114.282 142.49C116.213 132.432 117.698 122.225 117.91 111.976C117.953 110.151 118.335 107.838 117.995 106.056C117.825 104.74 117.741 103.212 117.189 102.003C116.319 101.621 115.576 99.8596 115.067 99.0108C112.945 95.5732 110.887 92.3054 109.274 88.5707L109.38 88.4222C109.274 88.3161 109.231 88.2736 109.147 88.1675C108.574 87.34 108.319 85.8758 108.064 84.9209L106.133 76.3906C105.836 75.0962 105.412 73.6957 105.603 72.3589Z" fill="#A7B6CF"/>
<path d="M105.603 72.3589C106.664 75.3721 107.852 78.8945 109.698 81.4833C110.441 82.8838 111.29 84.2843 111.884 85.7485C112.457 87.1278 112.839 88.6556 113.475 89.9924L116.276 99.1805L116 99.2866C115.173 97.9922 114.812 96.1673 114.282 94.7244L111.184 87.0217L109.359 88.4646C109.253 88.3585 109.21 88.3161 109.125 88.21C108.552 87.3824 108.298 85.9183 108.043 84.9634L106.112 76.4331C105.836 75.0962 105.412 73.6957 105.603 72.3589Z" fill="#4974AA"/>
<path d="M90.8552 115.286L110.632 117.048C111.247 117.154 111.544 117.281 111.884 117.812C112.329 118.469 111.863 120.994 111.778 121.886C111.396 125.663 111.141 129.504 110.526 133.259C110.186 135.339 109.783 136.548 108.001 137.8C106.239 139.01 103.12 140.665 100.956 140.75C98.4306 140.856 94.1442 137.864 92.383 136.23C91.7888 135.678 91.4069 135.127 91.2159 134.32C90.8339 132.559 90.94 130.501 90.8764 128.697L90.4944 121.567C90.4095 120.061 90.0488 118.512 90.0276 117.026C90.0488 116.008 90.1761 115.965 90.8552 115.286Z" fill="#4974AA"/>
<path d="M91.2583 115.965L107.003 117.429C108.022 117.536 110.738 117.578 111.438 118.299L111.396 118.681C111.268 118.915 111.184 119.063 110.95 119.212L109.868 119.849C108.404 120.443 106.961 120.91 105.391 121.185C100.913 121.992 95.2051 120.591 91.5129 118.002L91.2583 115.965Z" fill="#6793CC"/>
<path d="M91.9375 119.891C93.6139 120.697 95.3114 121.504 97.0939 122.055C102.017 123.562 106.494 122.501 110.908 120.146L108.404 134.893C108.277 135.233 108.149 135.593 107.958 135.912C106.834 137.737 103.163 139.222 101.126 139.689C98.7915 139.073 96.9029 137.779 95.1204 136.166C94.3778 135.487 93.2956 134.469 92.8924 133.535C92.3195 132.241 92.3619 130.098 92.2982 128.676L91.9375 119.891Z" fill="#6793CC"/>
<path d="M53.9756 125.281L54.3363 122.607C55.4821 115.159 57.1373 107.838 59.6624 100.708C61.169 96.4431 62.9515 92.2204 65.4554 88.422C66.6012 86.6608 67.8956 84.8147 69.6144 83.5627C70.4632 83.6901 71.1635 83.9871 71.9698 84.2206L72.1184 84.263C73.6462 84.8359 74.9618 85.7908 76.2138 86.8093C80.0121 89.865 82.6221 93.8755 84.638 98.268C88.2877 106.183 88.4999 115.074 87.6724 123.583C87.4814 125.514 87.3541 127.594 86.9085 129.482C86.7599 130.395 86.4841 131.434 86.6114 132.368C86.7811 133.641 87.5451 135.169 87.9694 136.378C90.5158 143.742 93.3168 151.211 97.8154 157.641C100.616 161.651 103.842 164.876 107.895 167.614L107.067 170.012L106.6 171.179L111.12 172.876C115.788 174.383 120.457 175.889 125.274 176.972L133.677 178.521L137.284 178.881C137.517 179.242 137.475 179.603 137.475 180.027L137.241 180.324L135.905 195.963C138.154 197.406 140.722 199.189 143.225 200.101C144.117 206.34 145.751 212.09 149.188 217.416L150.843 219.432L150.928 227.432H136.562H104.924H102.59C102.42 223.612 101.741 219.496 102.59 215.74L100.786 215.019C100.489 212.918 100.722 210.52 100.786 208.377C100.68 206.785 100.85 205.109 100.913 203.517L101.38 194.181C100.829 193.969 100.171 193.947 99.5766 193.863L96.1602 193.226L89.476 191.762C84.5743 190.595 79.6301 189.279 74.8769 187.56L69.3174 185.247C68.3837 185.056 67.3227 184.356 66.4739 183.91C62.5271 181.831 57.4768 178.881 54.7607 175.253C53.4451 173.492 53.1692 170.648 52.8721 168.484C52.1082 163.115 51.9809 157.683 52.0021 152.272C52.0446 143.254 52.7236 134.193 53.9756 125.281Z" fill="#64ABA9"/>
<path d="M119.586 190.998C119.99 188.006 120.944 185.226 122.642 182.701C121.921 185.46 121.242 188.346 121.157 191.21L120.987 195.136C120.944 195.518 120.902 195.772 120.605 196.006C120.265 195.539 120.117 195.072 119.947 194.542C119.544 193.417 119.608 192.186 119.586 190.998Z" fill="#275584"/>
<path d="M86.7598 160.017C84.9561 159.593 82.7068 159.699 80.9031 160.102C75.5982 161.227 71.7575 164.877 68.8928 169.29C69.5718 166.744 70.5692 164.58 72.3304 162.585C75.089 159.487 78.3568 158.468 82.3673 158.235L80.3514 157.874C74.7494 157.407 69.2748 160.208 65.1157 163.71L66.7709 161.566C69.1262 158.702 72.776 156.262 76.5319 155.943C78.7812 155.752 80.6485 156.092 82.8129 156.643C84.0012 157.195 85.8049 159.02 86.7598 160.017Z" fill="#336E85"/>
<path d="M85.2747 139.519L85.402 139.71C85.8051 140.326 85.593 142.511 85.6142 143.36L85.8476 149.917C85.9325 151.169 85.9961 152.484 86.4205 153.694C87.2481 156.092 89.7945 157.874 91.683 159.487C95.1418 162.437 98.7067 165.216 102.611 167.572C104.033 168.442 105.539 169.375 107.088 169.991L106.622 171.158C104.797 170.521 103.014 169.545 101.296 168.696C96.2877 166.192 91.3435 163.264 86.76 160.06C85.8052 159.063 84.0015 157.216 82.792 156.686C82.4949 155.922 82.6859 155.031 82.792 154.267L83.6195 149.45L85.2747 139.519Z" fill="#18426E"/>
<path d="M72.1187 84.2417C73.6465 84.8146 74.9621 85.7695 76.214 86.7881C80.0124 89.8437 82.6224 93.8542 84.6382 98.2467C88.288 106.162 88.5002 115.053 87.6727 123.562C87.4817 125.493 87.3544 127.572 86.9088 129.461C86.7602 130.373 86.4844 131.413 86.6117 132.347C86.7814 133.62 87.5453 135.148 87.9697 136.357C90.5161 143.72 93.3171 151.19 97.8156 157.619C100.617 161.63 103.842 164.855 107.895 167.593L107.067 169.99C105.518 169.375 104.012 168.42 102.59 167.571C98.6857 165.216 95.1208 162.436 91.6619 159.487C89.7946 157.895 87.227 156.091 86.3995 153.694C85.9963 152.484 85.9326 151.19 85.8265 149.917L85.5931 143.36C85.5719 142.49 85.7841 140.325 85.3809 139.71L85.2536 139.519L86.4844 129.27V118.066C85.9539 110.13 84.2139 102.491 80.7975 95.2971C79.5455 92.6447 78.0814 89.971 76.1504 87.7429C74.9621 86.3849 73.5404 85.4937 72.2035 84.3054L72.1187 84.2417Z" fill="#275584"/>
<path d="M53.9756 125.281L53.9968 125.514C54.1665 127.042 53.9756 128.591 53.9331 130.119L53.9756 136.527C54.5273 150.66 57.4768 167.826 68.9778 177.333C74.8981 182.235 82.5584 184.908 89.8792 186.882C94.8446 188.219 99.7888 189.258 104.903 189.874L119.566 190.998C119.587 192.187 119.523 193.417 119.905 194.542C120.096 195.072 120.223 195.539 120.563 196.006C120.86 195.773 120.902 195.518 120.945 195.136L121.115 191.21C124.17 191.486 127.205 192.25 130.281 192.59C131.406 192.717 132.679 192.972 133.761 192.547C134.462 191.55 134.695 189.768 134.992 188.558C135.692 185.821 136.308 182.998 137.199 180.325L135.862 195.964L135.883 198.213L101.359 194.16C100.807 193.948 100.15 193.927 99.5554 193.842L96.139 193.205L89.4548 191.741C84.5531 190.574 79.6089 189.258 74.8557 187.539L69.3174 185.248C68.3837 185.057 67.3227 184.357 66.4739 183.911C62.5271 181.831 57.4768 178.882 54.7607 175.253C53.4451 173.492 53.1692 170.649 52.8721 168.484C52.1082 163.116 51.9809 157.683 52.0021 152.272C52.0446 143.254 52.7236 134.193 53.9756 125.281Z" fill="#336E85"/>
<path d="M101.359 194.16L135.905 198.213L135.884 195.964C138.133 197.407 140.701 199.189 143.205 200.101C144.096 206.34 145.73 212.091 149.167 217.417L150.822 219.433L150.907 227.432H136.542H104.924H102.59C102.42 223.613 101.741 219.496 102.59 215.74L100.787 215.019C100.489 212.918 100.723 210.52 100.787 208.377C100.68 206.786 100.85 205.109 100.914 203.518L101.359 194.16Z" fill="#D5E4F3"/>
<path d="M102.59 215.719L107.873 217.205C117.189 219.39 127.247 220.515 136.817 219.899C141.188 219.602 145.05 218.881 149.188 217.417L150.843 219.433L150.928 227.432H136.562H104.924H102.59C102.42 223.592 101.741 219.454 102.59 215.719Z" fill="#0E1335"/>
<path d="M104.924 227.411C104.372 225.544 103.82 223.634 103.544 221.703C103.481 221.257 103.332 220.663 103.523 220.239L103.629 220.048C105.009 219.963 106.727 220.769 108.107 221.066L114.197 222.127C119.48 222.913 124.743 223.21 130.069 223.316C131.618 223.358 133.082 223.295 134.334 224.377C135.247 225.162 136.117 226.265 136.562 227.411H104.924Z" fill="#1E234F"/>
<path d="M101.359 194.16L135.905 198.213L135.884 195.964C138.133 197.407 140.7 199.189 143.204 200.101C144.096 206.34 145.729 212.091 149.167 217.417C145.029 218.881 141.167 219.602 136.796 219.899L137.136 202.669C131.003 202.902 124.955 202.69 118.844 202.181C114.685 201.841 110.42 201.417 106.325 200.568C106.261 206.085 106.261 211.878 107.852 217.204L102.569 215.719L100.765 214.998C100.468 212.897 100.701 210.499 100.765 208.356C100.659 206.764 100.829 205.088 100.892 203.497L101.359 194.16Z" fill="#A7B6CF"/>
<path d="M193.834 93.5363L194.513 93.3453C196.466 92.6026 198.333 91.287 199.924 89.9501C203.808 86.7035 206.694 82.9264 208.794 78.3005L210.789 87.9555C212.147 91.6901 213.76 95.0853 216.306 98.1621C217.261 99.308 218.301 100.411 219.425 101.409C220.062 101.96 222.311 103.276 222.523 103.891C223.648 103.849 224.815 104.655 225.812 105.101L231.117 107.35C232.009 107.753 232.921 108.432 233.855 108.73C234.258 108.857 234.682 108.836 235.085 108.772L234.937 108.836C234.661 108.942 234.364 108.963 234.088 109.005C236.168 110.894 238.544 112.973 239.945 115.456C241.833 118.809 242.852 122.374 243.913 126.045C246.884 136.358 248.539 146.967 249.982 157.577C250.555 161.864 251.255 166.277 251.467 170.606C251.488 170.818 251.446 170.988 251.403 171.2C251.722 172.24 251.679 173.343 251.743 174.426C251.87 176.293 252.337 179.094 251.446 180.791C250.512 182.595 248.836 184.208 247.478 185.714C242.406 191.316 237.101 196.621 230.99 201.099L231.499 201.587L231.478 202.011C233.664 203.263 238.099 216.483 238.926 219.517C239.457 221.448 239.881 223.379 240.199 225.332C240.327 226.095 240.518 226.732 240.178 227.453H189.23H162.62H150.907L150.822 219.454L149.167 217.438C145.729 212.112 144.096 206.382 143.204 200.123C140.679 199.21 138.112 197.428 135.884 195.985L137.22 180.346L137.454 180.049L139.597 179.985L143.119 176.314C143.905 174.701 145.475 173.025 146.642 171.667C149.613 168.229 152.562 165.11 156 162.118L163.809 155.476C164.297 154.946 164.679 154.288 165.103 153.694C165.252 153.142 165.336 152.484 165.23 151.912C164.954 150.447 164.212 148.941 163.724 147.54C162.472 143.89 161.581 139.647 161.856 135.763C162.281 133.79 162.917 132.22 164.127 130.607L165.061 129.61L171.533 124.581C174.121 122.628 176.519 120.273 178.811 118.003L187.808 108.793L187.999 109.175C188.72 108.39 189.272 107.18 189.93 106.289C191.097 104.677 192.71 103.446 194.238 102.194L195.532 101.6C195.277 98.7987 194.62 96.2524 193.834 93.5363Z" fill="#BD9AA3"/>
<path d="M232.793 171.327C235.891 170.818 239.923 170.882 242.66 172.643V172.749C239.308 172.028 236.422 171.54 232.984 171.985L232.624 171.54L232.793 171.327Z" fill="#6D4C61"/>
<path d="M221.08 134.469C221.038 133.365 220.826 132.262 220.783 131.137C220.635 125.472 221.441 120.761 224.136 115.711H224.306L223.054 118.957C222.799 119.721 222.693 120.443 222.332 121.164L222.247 121.313C222.205 122.14 221.887 122.883 221.802 123.711C221.484 126.787 221.335 129.758 221.59 132.856C221.611 133.174 221.547 133.323 221.42 133.599L221.229 134.49L221.08 134.469Z" fill="#6D4C61"/>
<path d="M221.441 133.62C221.568 133.344 221.632 133.196 221.611 132.877C221.356 129.779 221.505 126.809 221.823 123.732C221.908 122.925 222.226 122.162 222.269 121.334C222.884 122.756 222.969 124.644 223.287 126.193L225.133 133.981C227.107 141.259 230.035 148.219 233.239 155.01C236.316 161.503 239.626 168.399 244.804 173.492L242.661 172.728V172.622C239.923 170.861 235.892 170.818 232.794 171.306C232.2 168.208 231.117 165.131 230.332 162.076L228.804 156.071C228.677 155.583 228.571 154.691 228.316 154.288C228.231 154.161 227.913 153.949 227.786 153.842C227.934 153.524 227.977 153.333 227.934 152.972C227.828 152.209 227.722 151.084 227.086 150.575L227.255 149.981L224.306 141.196C223.881 140.071 223.202 139.052 222.799 137.885C222.417 136.803 222.184 134.363 221.441 133.62Z" fill="#88697D"/>
<path d="M217.494 203.878C219.85 202.987 222.035 201.332 224.115 199.932C234.852 192.611 244.995 182.638 251.255 171.179L251.425 171.158C251.743 172.197 251.7 173.301 251.764 174.383C251.891 176.25 252.358 179.051 251.467 180.749C250.533 182.553 248.857 184.165 247.499 185.672C242.427 191.274 237.123 196.579 231.011 201.056C228.274 203.242 225.409 205.236 222.481 207.146C221.462 207.804 220.253 208.78 219.086 209.077C219.404 208.059 217.94 205.067 217.473 204.027L217.494 203.878Z" fill="#88697D"/>
<path d="M227.828 153.864C227.956 153.97 228.274 154.182 228.359 154.309C228.592 154.734 228.72 155.625 228.847 156.092L230.375 162.097C231.16 165.153 232.242 168.229 232.836 171.328L232.666 171.54V172.134C232.348 172.219 232.115 172.198 231.796 172.155L231.499 172.558L231.584 172.983L225.494 181.534C225.049 182.15 224.263 183.508 223.69 183.911C223.542 184.017 223.224 184.081 223.054 184.144L223.118 183.847C223.224 183.062 222.608 181.28 222.141 180.643C221.59 180.558 220.953 180.643 220.401 180.643C219.086 180.643 217.749 180.622 216.433 180.494C215.075 179.985 213.611 179.964 212.296 179.242L212.168 179.221C211.553 179.158 211.044 178.818 210.534 178.5C210.343 178.712 210.237 178.776 209.961 178.839L209.282 178.288C209.261 177.651 209.325 176.908 209.579 176.293C209.876 175.529 210.449 175.168 211.128 174.85C211.383 174.744 211.341 174.68 211.447 174.447C209.686 173.895 207.67 174.15 206.099 173.068C205.76 172.389 205.633 171.9 205.633 171.137L206.227 170.012C207.097 169.63 207.776 169.524 208.709 169.503L208.773 169.375L209.155 169.439L207.33 167.699C207.118 167.466 207.054 167.211 206.948 166.935C206.821 166.617 206.927 166.108 207.075 165.81C207.988 164.07 211.744 164.622 213.335 164.092L213.505 164.028C214.587 163.986 216.094 163.773 217.049 163.285C217.24 162.267 217.919 160.463 218.407 159.529C219.553 159.529 221.314 159.02 222.184 158.256C223.351 157.301 224.667 157.556 226.088 157.323L226.216 157.301L226.343 157.577C226.619 157.407 226.789 157.238 226.937 156.962C227.425 156.134 228.104 154.946 227.828 153.864Z" fill="#E0754B"/>
<path d="M206.184 170.075C207.054 169.693 207.733 169.587 208.667 169.566C209.219 169.969 209.388 170.054 209.601 170.733L209.452 171.115C208.518 171.327 207.712 171.348 206.778 171.306L206.312 170.966L206.184 170.075Z" fill="#F09965"/>
<path d="M208.455 165.513C209.325 165.301 211.723 165.28 212.529 165.683C212.805 165.81 212.826 166.065 212.932 166.341L212.741 166.702L211.829 166.808C210.725 166.765 208.497 166.935 207.542 166.489C207.776 165.98 208.051 165.832 208.455 165.513Z" fill="#F09965"/>
<path d="M222.163 158.362C223.33 157.407 224.645 157.662 226.067 157.429L226.194 157.407L226.322 157.683C226.364 158.256 226.152 158.596 225.791 159.041C225.452 160.124 224.539 160.845 223.563 161.333C222.948 161.651 222.163 161.991 221.441 162.012L221.526 161.948C222.269 161.333 222.438 159.72 222.566 158.808L222.163 158.362Z" fill="#BC432A"/>
<path d="M211.277 178.606L210.937 178.181C211.022 177.63 211.043 177.439 211.362 177.014C212.486 176.611 214.757 176.378 215.86 176.93C216.03 177.014 216.157 177.333 216.263 177.502C216.242 178.309 216.179 178.691 215.584 179.264L213.95 179.349C213.356 179.285 212.847 179.221 212.253 179.306L212.126 179.285C211.892 178.882 211.701 178.818 211.277 178.606Z" fill="#F09965"/>
<path d="M211.277 178.606C211.298 178.012 211.298 177.609 211.723 177.142C212.19 177.142 212.911 177.036 213.335 177.206L213.845 177.481C213.802 177.757 213.845 178.054 213.632 178.245C213.187 178.648 211.85 178.648 211.277 178.606Z" fill="#F1B68A"/>
<path d="M222.163 158.362L222.566 158.808C222.439 159.72 222.29 161.333 221.526 161.948L221.441 162.012C220.55 162.734 218.152 163.179 217.006 163.37C217.197 162.352 217.876 160.548 218.364 159.614C219.531 159.614 221.293 159.105 222.163 158.362Z" fill="#1E234F"/>
<path d="M211.426 174.511L217.431 174.787C219.956 174.808 222.545 174.596 225.049 174.235C223.797 174.935 222.609 175.529 221.166 175.784C219.235 176.123 217.176 176.166 215.224 176.208C214.248 176.23 212.805 176.102 211.893 176.442C211.298 176.654 210.874 177.078 210.683 177.694L210.513 178.521C210.322 178.733 210.216 178.797 209.94 178.861L209.261 178.309C209.24 177.672 209.304 176.93 209.558 176.314C209.856 175.55 210.428 175.19 211.107 174.871C211.362 174.787 211.32 174.744 211.426 174.511Z" fill="#794343"/>
<path d="M207.288 167.784C208.816 168.59 211.192 168.357 212.911 168.399L226.343 168.038C222.205 170.394 216.858 170.182 212.232 169.842L209.113 169.524L207.288 167.784Z" fill="#A22B1E"/>
<path d="M213.971 179.348L214.12 179.37C218.067 180.027 223.351 178.5 226.555 176.25L226.661 176.569C226.958 177.205 226.852 177.736 226.64 178.372C226.385 179.115 226.003 179.454 225.324 179.794C224.327 180.282 223.181 180.473 222.12 180.706C221.568 180.621 220.932 180.706 220.38 180.706C219.064 180.706 217.727 180.685 216.412 180.558C215.054 180.049 213.59 180.027 212.274 179.306C212.868 179.2 213.377 179.263 213.971 179.348Z" fill="#CA5030"/>
<path d="M227.828 153.864C227.956 153.97 228.274 154.182 228.359 154.309C228.592 154.734 228.719 155.625 228.847 156.092L230.375 162.097C231.16 165.153 232.242 168.229 232.836 171.328L232.666 171.54V172.134C232.348 172.219 232.115 172.198 231.796 172.155L231.499 172.558L231.584 172.983L225.494 181.534C225.048 182.15 224.263 183.508 223.69 183.911C223.542 184.017 223.224 184.081 223.054 184.144L223.117 183.847C223.224 183.062 222.608 181.28 222.141 180.643C223.202 180.41 224.369 180.219 225.346 179.731C226.025 179.391 226.407 179.051 226.661 178.309C226.873 177.672 227.001 177.142 226.682 176.505C226.958 176.102 227.022 175.805 227.086 175.338C227.128 175.02 228.465 174.277 228.783 173.916C229.186 173.492 229.356 173.046 229.314 172.473C229.25 171.497 228.019 170.649 227.34 170.012L227.658 169.375C228.04 168.569 228.465 168.208 229.101 167.593C229.653 167.062 229.929 166.426 229.929 165.662C229.908 164.155 229.653 162.394 228.465 161.354C227.977 160.93 227.383 160.654 226.895 160.23C226.513 159.89 226.237 159.36 225.855 158.978C226.216 158.532 226.428 158.193 226.385 157.62C226.661 157.45 226.831 157.28 226.979 157.004C227.425 156.134 228.104 154.946 227.828 153.864Z" fill="#FBB0C1"/>
<path d="M193.834 93.5363L194.513 93.3453C196.466 92.6026 198.333 91.287 199.924 89.9501C203.808 86.7035 206.694 82.9264 208.794 78.3005L210.789 87.9555C212.147 91.6901 213.76 95.0853 216.306 98.1621C217.261 99.308 218.301 100.411 219.425 101.409C220.062 101.96 222.311 103.276 222.523 103.891L222.481 104.358C219.701 106.395 217.155 108.751 214.524 110.936C208.879 115.626 202.768 120.315 195.956 123.159C193.665 124.114 190.694 125.09 188.19 124.729C187.32 124.602 186.429 124.156 185.898 123.435C184.922 122.098 184.837 119.891 185.134 118.321L186.768 112.167L188.063 109.218C188.784 108.432 189.336 107.223 189.994 106.332C191.161 104.719 192.773 103.488 194.301 102.236L195.596 101.642C195.277 98.7987 194.62 96.2524 193.834 93.5363Z" fill="#F7CD99"/>
<path d="M193.834 93.5363L194.513 93.3453C196.466 92.6026 198.333 91.287 199.924 89.9501C203.808 86.7035 206.694 82.9264 208.794 78.3005L210.789 87.9555C208.136 92.5389 204.614 96.6555 199.946 99.2656C199.224 99.6687 198.503 99.987 197.739 100.305C197.505 100.411 196.975 100.581 196.826 100.751C196.742 100.836 196.678 102.024 196.635 102.215C196.338 104.443 195.702 106.947 194.132 108.645C192.604 110.3 189.569 111.382 187.426 111.955L186.768 112.125L188.063 109.175C188.784 108.39 189.336 107.18 189.994 106.289C191.161 104.677 192.773 103.446 194.301 102.194L195.596 101.6C195.277 98.7987 194.62 96.2524 193.834 93.5363Z" fill="#E0754B"/>
<path d="M161.878 135.763C161.92 136.081 161.963 136.357 162.09 136.654C163.957 138.182 165.973 139.392 168.201 140.304C171.787 141.768 175.692 142.384 179.405 143.445C183.819 144.718 188.063 146.649 192.646 147.285C198.078 148.049 203.914 147.413 208.412 143.996C212.274 141.047 213.908 136.739 213.887 131.965C213.866 128.442 213.25 124.941 213.739 121.419C213.951 122.756 214.099 124.135 214.566 125.387C215.394 127.636 216.921 129.567 218.407 131.413C219.213 132.41 220.02 133.493 220.996 134.341L221.123 134.448L221.293 134.469L221.484 133.578C222.226 134.341 222.481 136.761 222.863 137.864C223.266 139.031 223.945 140.028 224.37 141.174L227.319 149.959L227.149 150.553C227.786 151.063 227.892 152.166 227.998 152.951C228.041 153.312 227.998 153.503 227.85 153.821C228.147 154.903 227.468 156.113 226.937 157.025C226.789 157.301 226.598 157.471 226.343 157.641L226.216 157.365L226.088 157.386C224.688 157.619 223.372 157.365 222.184 158.32C221.314 159.084 219.553 159.593 218.407 159.593C217.919 160.505 217.24 162.33 217.049 163.349C216.094 163.837 214.587 164.07 213.505 164.091L213.335 164.155C211.723 164.686 207.988 164.134 207.076 165.874C206.927 166.171 206.821 166.68 206.948 166.999C207.054 167.296 207.139 167.529 207.33 167.762L209.155 169.502L208.773 169.439C208.2 169.418 207.648 169.418 207.076 169.269C204.232 165.895 201.07 163.582 197.421 161.142C195.108 159.593 192.752 158.044 190.27 156.771C182.588 152.781 173.57 150.999 165.145 153.673C165.294 153.121 165.379 152.463 165.273 151.89C164.997 150.426 164.254 148.919 163.766 147.519C162.493 143.869 161.602 139.646 161.878 135.763Z" fill="#88697D"/>
<path d="M213.484 164.113C213.696 162.161 213.378 159.529 214.036 157.747C214.651 156.049 216.094 154.415 217.07 152.909C219.086 149.853 220.571 146.182 221.059 142.554C221.144 141.959 221.314 141.132 221.271 140.559C221.165 139.328 218.11 137.312 217.282 136.145C215.754 133.981 214.948 131.456 214.566 128.846C216.285 132.899 218.322 135.657 222.163 137.97L221.25 134.49L221.441 133.599C222.184 134.363 222.439 136.782 222.821 137.885C223.224 139.052 223.903 140.05 224.327 141.196L227.277 149.98L227.107 150.575C227.743 151.084 227.85 152.187 227.956 152.972C227.998 153.333 227.956 153.524 227.807 153.842C228.104 154.925 227.425 156.134 226.895 157.047C226.746 157.322 226.555 157.492 226.301 157.662L226.173 157.386L226.046 157.407C224.645 157.641 223.33 157.386 222.141 158.341C221.271 159.105 219.51 159.614 218.364 159.614C217.876 160.527 217.197 162.352 217.006 163.37C216.073 163.858 214.545 164.092 213.484 164.113Z" fill="#6D4C61"/>
<path d="M218.683 155.561C221.165 154.288 223.393 152.251 225.515 150.469C226.131 150.384 226.534 150.447 227.107 150.575C227.743 151.084 227.85 152.187 227.956 152.972C227.998 153.333 227.956 153.524 227.807 153.842C228.104 154.925 227.425 156.134 226.895 157.047C226.746 157.323 226.555 157.492 226.301 157.662L226.173 157.386L226.046 157.407C224.645 157.641 223.33 157.386 222.141 158.341C221.271 159.105 219.51 159.614 218.364 159.614L217.622 159.593C216.306 159.487 215.563 158.956 214.715 158.002C215.945 157.025 217.367 156.368 218.683 155.561Z" fill="#CA5030"/>
<path d="M218.683 155.561C219.362 155.71 219.935 155.816 220.317 156.474C220.571 156.941 220.529 157.195 220.423 157.683C219.574 158.49 218.577 158.765 217.41 158.744C216.667 158.723 216.051 158.532 215.372 158.214C215.139 158.108 214.99 158.065 214.736 158.044C215.945 157.025 217.367 156.368 218.683 155.561Z" fill="#F09965"/>
<path d="M165.124 153.694C173.548 151.02 182.567 152.824 190.248 156.792C192.731 158.086 195.086 159.614 197.399 161.163C201.028 163.582 204.211 165.895 207.054 169.29C207.606 169.439 208.158 169.439 208.752 169.46L208.688 169.588C207.755 169.609 207.054 169.715 206.205 170.097L205.611 171.221C205.611 171.985 205.739 172.452 206.078 173.152C207.648 174.235 209.664 173.98 211.425 174.532C211.319 174.765 211.362 174.829 211.107 174.935C210.407 175.253 209.855 175.614 209.558 176.378C209.325 176.972 209.261 177.715 209.261 178.372L209.94 178.924C210.216 178.861 210.301 178.797 210.513 178.585C211.044 178.903 211.532 179.242 212.147 179.306L212.274 179.327C213.59 180.028 215.054 180.07 216.412 180.579C217.728 180.707 219.043 180.728 220.38 180.728C220.953 180.728 221.569 180.643 222.12 180.728C222.587 181.364 223.181 183.147 223.096 183.932L223.033 184.229C223.011 185.29 221.314 187.073 220.635 187.921C218.683 190.404 216.773 193.078 214.502 195.285C214.248 195.539 213.993 195.751 213.717 195.964C213.866 196.048 214.227 196.197 214.333 196.303C214.693 196.727 214.99 197.916 215.224 198.446C215.988 200.271 216.879 202.054 217.516 203.921L217.473 204.069C217.94 205.13 219.404 208.101 219.086 209.12C220.274 208.801 221.462 207.847 222.481 207.189C225.409 205.279 228.295 203.284 231.011 201.099L231.521 201.587L231.499 202.011C233.685 203.263 238.12 216.483 238.947 219.517C239.478 221.448 239.902 223.379 240.221 225.332C240.348 226.095 240.539 226.732 240.199 227.454H189.251H162.62H150.907L150.822 219.454L149.167 217.438C145.729 212.112 144.096 206.382 143.204 200.123C140.679 199.21 138.112 197.428 135.884 195.985L137.22 180.346L137.454 180.049L139.597 179.985L143.119 176.314C143.905 174.701 145.475 173.025 146.642 171.667C149.613 168.229 152.562 165.11 156 162.118L163.809 155.476C164.318 154.925 164.721 154.288 165.124 153.694Z" fill="#BD9AA3"/>
<path d="M207.054 169.29C207.606 169.439 208.157 169.439 208.752 169.46L208.688 169.587C207.754 169.609 207.054 169.715 206.205 170.097L205.611 171.221C205.611 171.985 205.738 172.452 206.078 173.152L204.974 172.855L204.847 172.431L204.635 171.709C204.529 171.264 204.593 170.67 204.868 170.288C205.293 169.672 206.354 169.439 207.054 169.29Z" fill="#794343"/>
<path d="M204.975 172.834L206.078 173.131C207.649 174.214 209.665 173.959 211.426 174.511C211.32 174.744 211.362 174.808 211.108 174.914C210.407 175.232 209.856 175.593 209.558 176.357C209.325 176.951 209.261 177.694 209.261 178.351L209.94 178.903C210.216 178.839 210.301 178.776 210.513 178.564C211.044 178.882 211.532 179.221 212.147 179.285L212.275 179.306C213.59 180.006 215.054 180.049 216.412 180.558C217.728 180.686 219.044 180.707 220.381 180.707C220.953 180.707 221.569 180.622 222.121 180.707C222.587 181.343 223.181 183.126 223.097 183.911L223.033 184.208C223.012 185.269 221.314 187.051 220.635 187.9C218.683 190.383 216.773 193.057 214.503 195.263C214.248 195.518 213.993 195.73 213.718 195.942C213.463 196.643 212.444 197.555 211.85 198.001C211.15 198.934 210.089 199.72 209.198 200.505C207.267 202.181 205.208 203.794 203.044 205.194C201.771 206.022 200.413 206.871 198.885 207.083C197.103 207.337 195.235 206.913 193.453 206.807L193.071 206.595C198.439 202.478 203.384 196.07 205.59 189.619C207.479 183.953 207.606 178.245 204.975 172.834Z" fill="#88697D"/>
<path d="M209.261 178.33L209.94 178.882C210.216 178.818 210.301 178.754 210.513 178.542C211.043 178.86 211.531 179.2 212.147 179.263L212.274 179.285C213.59 179.985 215.054 180.027 216.412 180.537C217.027 181.216 216.879 181.598 216.9 182.489L216.582 183.104L214.545 182.234C212.571 181.364 210.067 180.515 209.261 178.33Z" fill="#6D4C61"/>
<path d="M216.391 180.558C217.706 180.685 219.022 180.707 220.359 180.707C220.932 180.707 221.547 180.622 222.099 180.707C222.566 181.343 223.16 183.126 223.075 183.911L223.011 184.208C222.99 185.269 221.293 187.051 220.614 187.9C218.661 190.383 216.752 193.056 214.481 195.263C214.226 195.518 213.972 195.73 213.696 195.942C213.441 196.643 212.423 197.555 211.829 198.001C211.977 196.834 212.974 195.433 213.441 194.33C214.63 191.571 215.882 188.706 216.518 185.757C216.688 184.951 217.006 183.911 216.539 183.168L216.858 182.553C216.858 181.619 217.006 181.216 216.391 180.558Z" fill="#6D4C61"/>
<path d="M164.381 166.341L164.763 166.065C165.336 166.213 165.761 166.383 166.1 166.935C166.249 167.189 166.291 167.529 166.355 167.805L166.461 168.144L166.525 168.378C167.607 169.396 168.371 170.139 168.434 171.688C168.477 172.94 168.158 173.81 167.288 174.722C165.188 176.929 162.96 177.82 160.18 178.796C164.742 180.558 169.877 181.597 174.652 182.701C178.026 183.486 182.439 183.995 185.389 185.863L186.365 186.627L186.089 187.624L184.689 188.451L184.964 188.6C185.198 188.473 185.962 188.197 186.089 188.006C186.259 187.794 186.28 187.284 186.535 187.199C186.917 187.581 187.32 187.9 187.511 188.409C187.511 188.876 187.468 189.13 187.256 189.534L187.001 189.703L186.832 189.619C186.471 189.449 186.11 189.534 185.75 189.428C185.198 189.237 184.285 189.364 183.755 189.555C185.261 189.682 186.832 189.491 187.914 190.658C187.935 191.252 187.978 191.592 187.574 192.08C186.917 192.865 185.707 193.205 184.731 193.353C184.625 193.523 184.413 193.778 184.349 193.969C184.667 194.138 185.007 194.266 185.24 194.563H185.368C185.368 195.242 185.452 195.815 184.943 196.324C184.073 197.151 182.354 197.47 181.187 197.576L178.832 198.043C178.641 198.403 178.492 198.51 178.598 198.934C178.959 199.401 179.087 199.507 179.108 200.08C178.874 200.441 178.705 200.653 178.344 200.886L177.729 201.247C175.034 202.435 171.745 202.987 168.816 203.305C160.35 204.196 151.161 203.284 143.247 200.122C140.721 199.21 138.154 197.427 135.926 195.984L137.263 180.346L137.496 180.048L139.639 179.985L143.162 176.314C145.347 175.401 146.96 173.364 149.146 172.452C150.313 171.964 151.586 171.985 152.817 171.773C156.297 171.2 159.373 169.948 162.281 167.953C163.002 167.508 163.724 166.892 164.381 166.341Z" fill="#F99264"/>
<path d="M154.238 177.757C153.496 177.884 152.689 177.99 151.968 177.714L151.841 177.417C152.435 176.76 153.284 176.441 154.132 176.229L154.238 177.757Z" fill="#E0754B"/>
<path d="M180.954 196.918C180.572 196.515 180.36 196.069 180.105 195.581L180.36 195.263L181.506 194.881C181.909 195.603 182.291 195.985 182.97 196.473C182.333 196.621 181.591 196.897 180.954 196.918Z" fill="#E0754B"/>
<path d="M181.484 194.86C182.354 194.733 183.819 194.478 184.54 195.03L184.689 195.136C184.2 195.878 183.734 196.091 182.949 196.451C182.27 195.963 181.888 195.581 181.484 194.86Z" fill="#F09965"/>
<path d="M154.132 176.25L155.575 175.996C156.063 176.76 156.615 177.248 157.315 177.821L154.238 177.778L154.132 176.25Z" fill="#A22B1E"/>
<path d="M164.381 166.341C165.039 166.85 165.357 167.465 165.739 168.187C165.06 168.908 164.254 169.948 163.193 169.927C162.79 169.927 162.514 169.715 162.259 169.396C162.026 169.121 162.005 168.717 162.047 168.378C162.068 168.208 162.132 168.081 162.238 167.932C163.002 167.508 163.723 166.893 164.381 166.341Z" fill="#F7CD99"/>
<path d="M185.219 194.563H185.346C185.346 195.242 185.431 195.815 184.922 196.324C184.052 197.152 182.333 197.47 181.166 197.576L178.811 198.043C178.62 198.403 178.471 198.51 178.577 198.934L177.347 199.146L176.774 199.21L173.294 199.507L165.442 199.571C163.681 199.783 161.495 199.167 159.862 198.51C164.19 198.616 168.477 198.531 172.806 198.085C175.034 197.852 177.389 197.236 179.596 197.194L180.975 196.939C181.612 196.918 182.354 196.642 182.97 196.473C183.755 196.112 184.222 195.9 184.71 195.157L185.219 194.563Z" fill="url(#paint1_linear_3135_625)"/>
<path d="M165.4 199.55L178.79 198.043C178.599 198.404 178.45 198.51 178.556 198.934L177.326 199.146L176.753 199.21L173.273 199.507L165.4 199.55Z" fill="#794343"/>
<path d="M181.039 189.492C181.909 189.513 182.843 189.619 183.713 189.534C185.219 189.661 186.789 189.47 187.872 190.638C187.893 191.232 187.935 191.571 187.532 192.059C186.874 192.844 185.665 193.184 184.689 193.332C184.583 193.502 184.37 193.757 184.307 193.948C181.315 194.393 177.962 194.202 174.949 194.096C171.214 193.969 167.161 193.905 163.511 193.035C162.557 193.057 161.283 192.505 160.435 192.08L166.206 192.717C168.753 192.887 171.299 192.781 173.845 192.717C175.458 192.675 177.092 192.717 178.705 192.59C179.469 192.526 180.296 192.526 180.784 191.868C181.293 191.232 181.124 190.234 181.039 189.492Z" fill="#E0754B"/>
<path d="M184.307 190.383L187.002 190.468L187.193 190.807L186.917 191.656C186.089 191.868 185.58 191.911 184.752 191.677C184.328 191.232 184.37 190.977 184.307 190.383Z" fill="#F99264"/>
<path d="M163.533 193.035L184.71 193.332C184.604 193.502 184.392 193.757 184.328 193.948C181.336 194.393 177.984 194.202 174.97 194.096C171.214 193.969 167.183 193.905 163.533 193.035Z" fill="#A22B1E"/>
<path d="M164.615 187.179C163.172 186.882 162.069 186.394 160.795 185.63C167.289 186.818 173.867 186.86 180.445 187.327C180.657 187.306 181.081 187.306 181.294 187.221C181.697 187.051 181.951 186.372 182.482 186.181C183.055 185.927 184.222 185.778 184.795 186.033L184.922 186.118L185.368 185.863L186.344 186.627L186.068 187.624L184.668 188.452L184.943 188.6C185.177 188.473 185.941 188.197 186.068 188.006C186.238 187.794 186.259 187.285 186.514 187.2C186.896 187.582 187.299 187.9 187.49 188.409C187.49 188.876 187.447 189.131 187.235 189.534L186.98 189.704L186.811 189.619C186.45 189.449 186.089 189.534 185.729 189.428C185.177 189.237 184.264 189.364 183.734 189.555C182.885 189.64 181.93 189.534 181.06 189.513C175.416 189.11 170.132 188.431 164.615 187.179Z" fill="#E0754B"/>
<path d="M180.445 187.327C180.657 187.306 181.082 187.306 181.294 187.221C181.697 187.051 181.952 186.372 182.482 186.181L183.182 187.37C182.249 187.455 181.358 187.412 180.445 187.327Z" fill="#E0754B"/>
<path d="M185.347 185.863L186.323 186.627L186.047 187.624C185.071 187.645 184.137 187.518 183.161 187.391L182.461 186.202C183.034 185.948 184.201 185.799 184.774 186.054L184.901 186.139L185.347 185.863Z" fill="#F09965"/>
<path d="M164.615 187.179C164.742 187.115 164.976 186.988 165.103 186.966C165.379 186.924 165.867 187.051 166.164 187.094L169.071 187.412C174.227 187.879 179.49 188.685 184.668 188.452L184.943 188.6C185.177 188.473 185.941 188.197 186.068 188.006C186.238 187.794 186.259 187.285 186.514 187.2C186.896 187.582 187.299 187.9 187.49 188.409C187.49 188.876 187.447 189.131 187.235 189.534L186.981 189.704L186.811 189.619C186.45 189.449 186.089 189.534 185.729 189.428C185.177 189.237 184.264 189.364 183.734 189.555C182.885 189.64 181.93 189.534 181.06 189.513C175.416 189.109 170.132 188.43 164.615 187.179Z" fill="#794343"/>
<path d="M166.504 168.378C167.586 169.396 168.35 170.139 168.414 171.688C168.456 172.94 168.138 173.81 167.268 174.723C165.167 176.929 162.939 177.821 160.159 178.797L157.316 177.799C156.615 177.248 156.043 176.76 155.576 175.975C158.058 175.571 160.499 174.744 162.684 173.471C164.764 172.282 165.91 170.67 166.504 168.378Z" fill="#6D4C61"/>
<path d="M137.475 180.028L139.618 179.964C139.194 182.298 139.024 184.717 138.96 187.094C138.897 190.043 138.939 193.502 140.764 195.985C142.334 198.128 145.241 198.849 147.639 199.613C150.971 200.674 154.536 201.608 158.016 202.054C162.175 202.584 166.355 202.775 170.493 202.054C171.575 201.863 173.103 201.565 173.973 200.823C174.1 200.717 174.164 200.589 174.249 200.441C173.973 199.932 173.846 199.719 173.273 199.507L176.753 199.21L177.326 199.146L178.556 198.934C178.917 199.401 179.044 199.507 179.066 200.08C178.832 200.441 178.662 200.653 178.302 200.886L177.686 201.247C174.991 202.435 171.702 202.987 168.774 203.305C160.307 204.197 151.119 203.284 143.204 200.123C140.679 199.21 138.112 197.428 135.884 195.985L137.22 180.346L137.475 180.028Z" fill="#E0754B"/>
<path d="M178.556 198.913C178.917 199.38 179.044 199.486 179.066 200.059C178.832 200.42 178.662 200.632 178.302 200.865L178.153 200.589C177.898 200.547 177.644 200.547 177.389 200.547C176.753 200.441 176.286 200.398 175.819 199.932C175.692 199.804 175.734 199.677 175.734 199.486L176.731 199.168L177.304 199.104L178.556 198.913Z" fill="#F99264"/>
<path d="M178.556 198.913C178.917 199.38 179.044 199.486 179.066 200.059C178.832 200.42 178.662 200.632 178.302 200.865L178.153 200.589C177.899 200.547 177.644 200.547 177.389 200.547C177.75 200.335 177.983 200.144 178.238 199.804L178.153 199.274L177.304 199.104L178.556 198.913Z" fill="#E0754B"/>
<path d="M186.344 186.627C186.917 187.136 187.744 187.667 187.787 188.473C187.808 188.919 187.723 189.195 187.532 189.598C187.723 189.831 187.872 189.874 188.126 189.98C188.89 190.319 189.357 190.701 189.675 191.486C189.718 192.271 189.739 192.887 189.187 193.502C188.699 194.075 188.148 194.33 187.405 194.372H187.044L186.726 194.606L186.811 194.754C187.108 195.327 187.129 195.624 187.087 196.261C186.641 197.258 185.729 197.767 184.752 198.149C183.5 198.637 182.079 198.743 180.784 198.892C180.975 199.719 181.421 200.165 180.89 201.035C180.487 201.672 179.745 202.075 179.087 202.393C176.944 203.412 174.397 203.963 172.063 204.388L167.904 204.961C169.729 207.061 172.891 208.313 175.543 209.014C176.413 209.247 177.432 209.311 178.238 209.693C180.848 209.544 183.458 208.08 185.92 207.316C188.254 206.616 191.055 206.573 193.474 206.786C195.256 206.892 197.123 207.316 198.906 207.061C200.434 206.849 201.792 206.001 203.065 205.173C205.208 203.772 207.266 202.16 209.219 200.483C210.11 199.719 211.171 198.934 211.871 197.979C212.465 197.534 213.484 196.621 213.738 195.921C213.887 196.006 214.248 196.155 214.354 196.261C214.715 196.685 215.012 197.873 215.245 198.404C216.009 200.229 216.9 202.011 217.537 203.879L217.494 204.027C217.961 205.088 219.425 208.059 219.107 209.077C220.295 208.759 221.484 207.804 222.502 207.146C225.431 205.237 228.316 203.242 231.032 201.056L231.542 201.544L231.521 201.969C233.706 203.221 238.141 216.441 238.969 219.475C239.499 221.406 239.924 223.337 240.242 225.289C240.369 226.053 240.56 226.69 240.221 227.411H189.272H162.62H150.907L150.822 219.411L149.167 217.395C145.729 212.069 144.096 206.34 143.204 200.08C151.119 203.242 160.307 204.176 168.774 203.263C171.702 202.945 174.991 202.393 177.686 201.205L178.302 200.844C178.662 200.611 178.832 200.399 179.066 200.038C179.023 199.444 178.917 199.359 178.556 198.892C178.471 198.468 178.599 198.383 178.79 198.001L181.145 197.534C182.312 197.428 184.031 197.109 184.901 196.282C185.431 195.794 185.347 195.2 185.325 194.521H185.198C184.965 194.224 184.625 194.096 184.307 193.927C184.37 193.736 184.561 193.481 184.689 193.311C185.665 193.141 186.874 192.823 187.532 192.038C187.935 191.55 187.893 191.21 187.872 190.616C186.79 189.449 185.219 189.619 183.713 189.513C184.243 189.322 185.156 189.195 185.707 189.386C186.068 189.513 186.45 189.428 186.79 189.576L186.959 189.661L187.214 189.492C187.426 189.088 187.469 188.834 187.469 188.367C187.256 187.858 186.874 187.539 186.492 187.157C186.238 187.242 186.195 187.773 186.047 187.964C185.898 188.155 185.156 188.431 184.922 188.558L184.646 188.409L186.047 187.582L186.344 186.627Z" fill="#6D4C61"/>
<path d="M150.822 219.411C153.05 221.639 155.405 223.825 158.227 225.31C159.67 226.053 161.198 226.626 162.62 227.432H150.907L150.822 219.411Z" fill="#03070E"/>
<path d="M176.222 224.334L175.84 224.44C174.737 224.695 173.57 224.525 172.466 224.44C166.758 224.016 160.265 222.318 155.384 219.284C152.796 217.671 150.377 215.549 148.721 212.961C146.875 210.053 145.963 206.595 145.178 203.263C152.647 205.258 160.18 205.47 167.862 204.961C169.686 207.062 172.848 208.313 175.501 209.014C176.371 209.247 177.389 209.311 178.196 209.693C176.859 211.136 175.798 211.878 174.036 212.748C174.206 213.491 174.397 213.746 174.949 214.255L174.991 214.297C175.628 215.019 176.54 215.061 177.453 215.125C179.129 215.231 180.657 214.488 182.312 214.488C179.32 216.356 176.286 217.353 172.742 217.395C170.726 217.417 167.522 216.653 165.74 217.544C165.761 218.435 166.015 218.902 166.652 219.539L168.095 220.769L169.75 221.385C171.851 222.573 173.93 223.528 176.222 224.334Z" fill="#88697D"/>
<path d="M231.499 201.969C233.685 203.221 238.12 216.441 238.947 219.475C239.478 221.406 239.902 223.337 240.221 225.289C240.348 226.053 240.539 226.69 240.199 227.411H189.251L193.007 226.605C198.694 225.501 204.296 223.464 209.558 221.045C217.367 217.459 224.942 212.939 229.844 205.64C230.375 204.833 231.69 202.966 231.499 201.969Z" fill="#88697D"/>
<path d="M213.696 195.9C213.844 195.985 214.205 196.134 214.311 196.24C214.672 196.664 214.969 197.852 215.203 198.383C215.966 200.208 216.858 201.99 217.494 203.858L217.452 204.006C217.919 205.067 219.383 208.038 219.065 209.056C218.067 210.69 204.614 216.717 202.152 218.011C200.773 218.732 200.009 220.112 198.503 220.791C195.85 221.979 192.922 222.87 190.142 223.74C188.423 224.271 186.662 224.929 184.922 225.374C182.461 225.99 178.705 224.992 176.243 224.334C173.952 223.528 171.872 222.573 169.771 221.343L168.116 220.727L166.673 219.496C166.037 218.881 165.782 218.414 165.761 217.502C167.543 216.589 170.747 217.374 172.763 217.353C176.286 217.311 179.341 216.313 182.333 214.446C180.678 214.446 179.129 215.189 177.474 215.083C176.562 215.019 175.628 214.977 175.013 214.255L174.97 214.213C174.418 213.703 174.227 213.449 174.058 212.706C175.819 211.857 176.901 211.093 178.217 209.65C180.827 209.502 183.437 208.038 185.898 207.274C188.232 206.574 191.033 206.531 193.452 206.743C195.235 206.849 197.102 207.274 198.885 207.019C200.412 206.807 201.77 205.958 203.044 205.131C205.187 203.73 207.245 202.118 209.197 200.441C210.089 199.677 211.15 198.892 211.85 197.937C212.423 197.513 213.441 196.6 213.696 195.9Z" fill="#F7CD99"/>
<path d="M174.036 212.727C176.455 214.064 178.493 212.642 180.869 212.027C182.397 211.624 183.946 211.411 185.537 211.326L185.75 211.581C185.537 211.942 185.41 212.09 185.028 212.26L184.943 211.857C183.904 211.56 179.363 213.83 177.856 214.149C176.943 214.34 175.946 214.276 175.012 214.276L174.97 214.234C174.397 213.745 174.206 213.47 174.036 212.727Z" fill="#F09965"/>
<path d="M174.991 214.276C175.925 214.298 176.901 214.34 177.835 214.149C179.341 213.831 183.882 211.56 184.922 211.857L185.007 212.26C184.158 213.024 183.31 213.852 182.333 214.446C180.678 214.446 179.129 215.189 177.474 215.083C176.54 215.04 175.628 214.998 174.991 214.276Z" fill="#6D4C61"/>
<path d="M165.761 217.523L165.888 217.671C167.607 219.666 171.342 219.963 173.803 220.111C175.097 220.196 178.896 219.793 179.66 220.578C178.429 221.661 174.1 221.194 172.487 221.088C171.32 221.024 169.092 220.345 168.116 220.727L166.673 219.496C166.015 218.881 165.761 218.414 165.761 217.523Z" fill="#F09965"/>
<path d="M169.771 221.342C170.238 221.342 170.662 221.385 171.129 221.469L171.341 221.512C172.254 221.682 173.081 222.085 173.994 222.276C175.649 222.637 177.347 222.764 178.981 223.125C179.702 223.273 181.463 223.973 182.142 223.697C184.095 222.976 185.962 222 187.872 221.13C192.179 219.156 196.381 217.098 200.455 214.658L209.664 208.844L214.821 205.449C215.648 204.918 216.497 204.281 217.452 204.027C217.919 205.088 219.383 208.059 219.064 209.077C218.067 210.711 204.614 216.737 202.152 218.032C200.773 218.753 200.009 220.133 198.503 220.812C195.85 222 192.922 222.891 190.142 223.761C188.423 224.292 186.662 224.949 184.922 225.395C182.461 226.01 178.705 225.013 176.243 224.355C173.93 223.528 171.851 222.573 169.771 221.342Z" fill="#F09965"/>
<defs>
<linearGradient id="paint0_linear_3135_625" x1="178.753" y1="73.4557" x2="227.706" y2="48.2774" gradientUnits="userSpaceOnUse">
<stop stop-color="#360E11"/>
<stop offset="1" stop-color="#723638"/>
</linearGradient>
<linearGradient id="paint1_linear_3135_625" x1="172.536" y1="194.962" x2="172.677" y2="199.138" gradientUnits="userSpaceOnUse">
<stop stop-color="#F58239"/>
<stop offset="1" stop-color="#D65D49"/>
</linearGradient>
</defs>
</svg>
