<svg width="211" height="210" viewBox="0 0 211 210" fill="none" xmlns="http://www.w3.org/2000/svg">
<g clip-path="url(#clip0_1822_22340)">
<path d="M210.5 160.608H0.5V160.713H210.5V160.608Z" fill="#EBEBEB"/>
<path d="M189.458 167.366H175.548V167.471H189.458V167.366Z" fill="#EBEBEB"/>
<path d="M113.841 166.085H101.149V166.19H113.841V166.085Z" fill="#EBEBEB"/>
<path d="M175.128 163.468H145.774V163.573H175.128V163.468Z" fill="#EBEBEB"/>
<path d="M92.732 164.174H22.5332V164.279H92.732V164.174Z" fill="#EBEBEB"/>
<path d="M99.1286 164.174H96.47V164.279H99.1286V164.174Z" fill="#EBEBEB"/>
<path d="M100.04 141.876H18.9421C18.3068 141.875 17.6979 141.622 17.249 141.172C16.8002 140.723 16.5481 140.113 16.5481 139.478V25.4773C16.5536 24.8456 16.8082 24.2416 17.2564 23.7965C17.7046 23.3515 18.3104 23.1012 18.9421 23.1001H100.04C100.676 23.1001 101.286 23.3528 101.736 23.8025C102.185 24.2523 102.438 24.8623 102.438 25.4983V139.478C102.438 140.114 102.185 140.724 101.736 141.174C101.286 141.623 100.676 141.876 100.04 141.876ZM18.9421 23.1841C18.3346 23.1852 17.7524 23.4273 17.3233 23.8572C16.8941 24.2872 16.6531 24.8698 16.6531 25.4773V139.478C16.6531 140.085 16.8941 140.668 17.3233 141.098C17.7524 141.528 18.3346 141.77 18.9421 141.771H100.04C100.648 141.77 101.23 141.528 101.66 141.098C102.09 140.668 102.332 140.086 102.333 139.478V25.4773C102.332 24.8694 102.09 24.2868 101.66 23.857C101.23 23.4272 100.648 23.1852 100.04 23.1841H18.9421Z" fill="#EBEBEB"/>
<path d="M190.89 141.876H109.788C109.152 141.875 108.543 141.622 108.094 141.172C107.644 140.723 107.391 140.114 107.39 139.478V25.4773C107.397 24.8452 107.652 24.2413 108.101 23.7963C108.55 23.3513 109.156 23.1012 109.788 23.1001H190.89C191.521 23.1023 192.126 23.353 192.573 23.798C193.02 24.243 193.274 24.8464 193.28 25.4773V139.478C193.28 140.112 193.028 140.721 192.58 141.171C192.133 141.62 191.525 141.874 190.89 141.876ZM109.788 23.1841C109.18 23.1852 108.598 23.4272 108.168 23.857C107.738 24.2868 107.496 24.8694 107.495 25.4773V139.478C107.496 140.086 107.738 140.668 108.168 141.098C108.598 141.528 109.18 141.77 109.788 141.771H190.89C191.498 141.77 192.081 141.528 192.51 141.098C192.94 140.668 193.182 140.086 193.183 139.478V25.4773C193.182 24.8694 192.94 24.2868 192.51 23.857C192.081 23.4272 191.498 23.1852 190.89 23.1841H109.788Z" fill="#EBEBEB"/>
<path d="M33.05 102.005H81.14L80.4218 160.608H32.3318L33.05 102.005Z" fill="#E0E0E0"/>
<path d="M35.2508 95.3401H82.379L77.2466 160.608H30.1184L35.2508 95.3401Z" fill="#F0F0F0"/>
<path d="M32.819 95.3401H79.9472L74.8148 160.608H27.6824L32.819 95.3401Z" fill="#F5F5F5"/>
<path d="M69.1365 156.585L73.6347 99.3638H38.4975L33.9951 156.585H69.1365Z" fill="white"/>
<path d="M53.3359 80.8962L162.511 80.8962V33.348L53.3359 33.348V80.8962Z" fill="#E6E6E6"/>
<path d="M50.9462 80.8962L161.394 80.8962V33.348L50.9462 33.348V80.8962Z" fill="#F0F0F0"/>
<path d="M53.3359 83.3618L162.511 83.3618V80.8964L53.3359 80.8964V83.3618Z" fill="#E6E6E6"/>
<path d="M46.973 83.3618L157.42 83.3618V80.8964L46.973 80.8964V83.3618Z" fill="#F0F0F0"/>
<path d="M158.055 77.5572V36.687L54.2895 36.687V77.5572H158.055Z" fill="#FAFAFA"/>
<path d="M65.0498 77.5572L81.3878 36.687H95.7308L79.3928 77.5572H65.0498Z" fill="white"/>
<path d="M113.934 77.5572L130.272 36.687H144.615L128.277 77.5572H113.934Z" fill="white"/>
<path d="M82.4714 77.5572L98.8094 36.687H104.404L88.0658 77.5572H82.4714Z" fill="white"/>
<path d="M54.7095 77.5531V36.6829H54.2853V77.5531H54.7095Z" fill="#E6E6E6"/>
<path d="M180.109 157.168H185.686V103.69H180.109V157.168Z" fill="#F0F0F0"/>
<path d="M95.5461 160.553H183.54V157.164H95.5461V160.553Z" fill="#F0F0F0"/>
<path d="M180.109 103.69H93.4082V157.168H180.109V103.69Z" fill="#F5F5F5"/>
<path d="M172.108 110.271H101.405C99.4101 110.271 97.793 111.888 97.793 113.883V124.198C97.793 126.193 99.4101 127.81 101.405 127.81H172.108C174.103 127.81 175.72 126.193 175.72 124.198V113.883C175.72 111.888 174.103 110.271 172.108 110.271Z" fill="#F0F0F0"/>
<path d="M172.108 133.043H101.405C99.4101 133.043 97.793 134.661 97.793 136.655V146.971C97.793 148.966 99.4101 150.583 101.405 150.583H172.108C174.103 150.583 175.72 148.966 175.72 146.971V136.655C175.72 134.661 174.103 133.043 172.108 133.043Z" fill="#F0F0F0"/>
<path d="M113.115 120.242H160.394C161.025 120.242 161.536 119.73 161.536 119.1V118.978C161.536 118.347 161.025 117.835 160.394 117.835H113.115C112.484 117.835 111.972 118.347 111.972 118.978V119.1C111.972 119.73 112.484 120.242 113.115 120.242Z" fill="#F5F5F5"/>
<path d="M113.115 143.019H160.394C161.025 143.019 161.536 142.507 161.536 141.876V141.754C161.536 141.123 161.025 140.612 160.394 140.612H113.115C112.484 140.612 111.972 141.123 111.972 141.754V141.876C111.972 142.507 112.484 143.019 113.115 143.019Z" fill="#F5F5F5"/>
<path d="M105.5 179.575C150.475 179.575 186.934 177.447 186.934 174.821C186.934 172.195 150.475 170.066 105.5 170.066C60.5253 170.066 24.0662 172.195 24.0662 174.821C24.0662 177.447 60.5253 179.575 105.5 179.575Z" fill="#F5F5F5"/>
<path d="M43.5247 42.3109C43.5247 48.1909 39.8791 54.2599 35.3893 54.2599C30.8995 54.2599 27.2539 48.2035 27.2539 42.3109C27.2539 36.4183 30.8953 32.9155 35.3893 32.9155C39.8833 32.9155 43.5247 36.4183 43.5247 42.3109Z" fill="#C4CAC9"/>
<path d="M31.9998 77.3514H31.5798C31.5798 75.3396 32.634 74.3316 33.6546 73.3572C34.6752 72.3828 35.6034 71.4924 35.6034 69.6528C35.6034 67.8132 34.6836 66.9102 33.6798 65.94C32.676 64.9698 31.605 63.9576 31.605 61.9458C31.605 59.934 32.6592 58.9386 33.6798 57.96C34.7004 56.9814 35.6286 56.0952 35.6286 54.2598H36.0486C36.0486 56.2674 34.9944 57.2754 33.9738 58.254C32.9532 59.2326 31.9998 60.1188 31.9998 61.9542C31.9998 63.7896 32.949 64.701 33.9528 65.6586C34.9566 66.6162 36.0276 67.641 36.0276 69.6528C36.0276 71.6646 34.9734 72.6726 33.9528 73.647C32.9322 74.6214 31.9998 75.5118 31.9998 77.3514Z" fill="#263238"/>
<path d="M35.3893 53.655L33.9739 56.574H36.8005L35.3893 53.655Z" fill="#C4CAC9"/>
<path d="M35.8638 54.8184H34.9104C34.7626 54.8173 34.6212 54.7581 34.5166 54.6536C34.4121 54.5491 34.3529 54.4076 34.3518 54.2598C34.3518 54.1113 34.4105 53.9688 34.5152 53.8633C34.6198 53.7579 34.7619 53.6981 34.9104 53.697H35.8638C35.9375 53.697 36.0105 53.7116 36.0785 53.7399C36.1466 53.7683 36.2084 53.8098 36.2603 53.8621C36.3122 53.9144 36.3533 53.9765 36.3811 54.0448C36.4089 54.113 36.423 54.1861 36.4224 54.2598C36.4224 54.408 36.3636 54.5501 36.2588 54.6548C36.154 54.7596 36.012 54.8184 35.8638 54.8184Z" fill="#263238"/>
<path d="M159.26 30.765C159.26 36.645 155.614 42.7098 151.124 42.7098C146.635 42.7098 142.989 36.6576 142.989 30.765C142.989 24.8724 146.66 21.3696 151.137 21.3696C155.614 21.3696 159.26 24.8724 159.26 30.765Z" fill="#C4CAC9"/>
<path d="M147.752 65.8055H147.332C147.332 63.7937 148.386 62.7857 149.407 61.8113C150.427 60.8369 151.355 59.9465 151.355 58.1069C151.355 56.2673 150.41 55.3601 149.407 54.4025C148.403 53.4449 147.332 52.4201 147.332 50.4083C147.332 48.3965 148.386 47.3885 149.407 46.4141C150.427 45.4397 151.355 44.5493 151.355 42.7097H151.775C151.775 44.7215 150.721 45.7295 149.701 46.7039C148.68 47.6783 147.748 48.5687 147.748 50.4083C147.748 52.2479 148.697 53.1509 149.701 54.1127C150.704 55.0745 151.775 56.0951 151.775 58.1069C151.775 60.1187 150.721 61.1267 149.701 62.1011C148.68 63.0755 147.752 63.9659 147.752 65.8055Z" fill="#263238"/>
<path d="M151.137 42.105L149.726 45.0282H152.548L151.137 42.105Z" fill="#C4CAC9"/>
<path d="M151.612 43.2601H150.658C150.51 43.259 150.368 43.1992 150.263 43.0938C150.158 42.9883 150.1 42.8458 150.1 42.6973C150.101 42.5495 150.16 42.408 150.264 42.3035C150.369 42.199 150.51 42.1398 150.658 42.1387H151.612C151.76 42.1387 151.903 42.1974 152.008 42.302C152.114 42.4067 152.173 42.5487 152.174 42.6973C152.174 42.8465 152.115 42.9897 152.01 43.0952C151.904 43.2008 151.761 43.2601 151.612 43.2601Z" fill="#263238"/>
<path d="M85.2475 47.4223C85.2475 51.4879 82.7275 55.6585 79.6405 55.6585C76.5535 55.6585 74.0293 51.4879 74.0293 47.4223C74.0293 43.3567 76.5493 40.9417 79.6405 40.9417C82.7317 40.9417 85.2475 43.3567 85.2475 47.4223Z" fill="#C4CAC9"/>
<path opacity="0.7" d="M85.2475 47.4223C85.2475 51.4879 82.7275 55.6585 79.6405 55.6585C76.5535 55.6585 74.0293 51.4879 74.0293 47.4223C74.0293 43.3567 76.5493 40.9417 79.6405 40.9417C82.7317 40.9417 85.2475 43.3567 85.2475 47.4223Z" fill="white"/>
<path d="M82.5554 71.5848H82.2782C82.2782 70.3248 81.623 69.6948 80.93 69.0312C80.237 68.3676 79.4978 67.6662 79.4978 66.276C79.4978 64.8858 80.2286 64.176 80.93 63.5208C81.6314 62.8656 82.2782 62.2356 82.2782 60.9672C82.2782 59.6988 81.623 59.0772 80.93 58.4136C80.237 57.75 79.4978 57.0486 79.4978 55.6584H79.7792C79.7792 56.9184 80.4302 57.5526 81.1232 58.2162C81.8162 58.8798 82.5554 59.5812 82.5554 60.9672C82.5554 62.3532 81.8288 63.0672 81.1232 63.7224C80.4176 64.3776 79.7792 65.0076 79.7792 66.276C79.7792 67.5444 80.4302 68.1702 81.1232 68.8296C81.8162 69.489 82.5554 70.1988 82.5554 71.5848Z" fill="#263238"/>
<path d="M79.6404 55.2427L78.666 57.2587H80.6148L79.6404 55.2427Z" fill="#C4CAC9"/>
<path opacity="0.7" d="M79.6404 55.2427L78.666 57.2587H80.6148L79.6404 55.2427Z" fill="white"/>
<path d="M79.9682 56.0447H79.3088C79.2063 56.0447 79.108 56.004 79.0355 55.9315C78.9631 55.8591 78.9224 55.7608 78.9224 55.6583C78.9235 55.5566 78.9647 55.4594 79.037 55.3878C79.1094 55.3162 79.207 55.2761 79.3088 55.2761H79.9682C80.0699 55.2761 80.1676 55.3162 80.2399 55.3878C80.3123 55.4594 80.3535 55.5566 80.3546 55.6583C80.3546 55.7608 80.3139 55.8591 80.2414 55.9315C80.1689 56.004 80.0706 56.0447 79.9682 56.0447Z" fill="#263238"/>
<path d="M53.6719 68.3129C52.9411 63.8777 54.8395 65.5325 56.8765 63.1511C60.6565 58.7537 66.7717 58.1993 67.2169 62.4917C67.5697 65.8895 59.3671 68.0609 57.7585 67.9811C59.1235 69.3713 64.2181 69.4889 62.7187 75.7007C61.2193 81.9125 60.4381 82.9163 61.2277 88.1159C62.0173 93.3155 44.4277 105.151 41.0677 91.8203C38.4049 81.2363 48.9091 79.3505 44.7553 76.5827C40.6015 73.8149 46.2085 67.9811 53.6719 68.3129Z" fill="#263238"/>
<path d="M65.4655 64.8562L59.1445 65.7214C54.8437 67.3132 61.7065 71.0638 63.0463 70.5388C62.2483 71.9374 59.2999 76.7422 60.6397 80.749C61.5763 83.563 64.0585 83.0926 65.2849 82.5214C68.4937 81.0262 70.4971 69.2998 65.4655 64.8562Z" fill="#263238"/>
<path d="M71.0599 83.1347C71.7697 83.6261 72.5425 84.1553 73.3069 84.6341C74.0713 85.1129 74.8399 85.6001 75.6169 86.0411C76.3939 86.4821 77.1835 86.8811 77.9647 87.2381C78.6839 87.5737 79.4392 87.8259 80.2159 87.9899H79.8253C80.4667 87.8956 81.0777 87.6541 81.6103 87.2843C82.2906 86.8452 82.9314 86.3478 83.5255 85.7975C84.1513 85.2347 84.7561 84.6215 85.3483 83.9831C85.9405 83.3447 86.5159 82.6769 87.0577 82.0259L88.5529 82.9583C88.1277 83.7921 87.6581 84.6025 87.1459 85.3859C86.631 86.1743 86.07 86.9316 85.4659 87.6539C84.8282 88.4106 84.1162 89.1014 83.3407 89.7161C82.4478 90.4485 81.3871 90.9479 80.2537 91.1693L80.0983 91.1987L79.8589 91.1735C78.7736 91.0505 77.7099 90.7821 76.6963 90.3755C75.7572 90.0118 74.8413 89.591 73.9537 89.1155C73.0843 88.6493 72.2275 88.1705 71.4043 87.6497C70.5811 87.1289 69.7831 86.6039 68.9683 85.9697L71.0599 83.1347Z" fill="#FFB573"/>
<path d="M68.0821 81.7697C71.2489 81.5471 72.2149 83.4875 72.2149 83.4875L69.1153 89.4851C69.1153 89.4851 67.3975 87.9941 66.8011 86.1671C66.1753 84.2645 65.9317 81.9209 68.0821 81.7697Z" fill="#C4CAC9"/>
<path opacity="0.8" d="M68.0821 81.7697C71.2489 81.5471 72.2149 83.4875 72.2149 83.4875L69.1153 89.4851C69.1153 89.4851 67.3975 87.9941 66.8011 86.1671C66.1753 84.2645 65.9317 81.9209 68.0821 81.7697Z" fill="white"/>
<path d="M86.8521 82.425L87.713 79.5186L90.0902 82.2612C90.0902 82.2612 89.0234 83.6262 87.5702 83.6514L86.8521 82.425Z" fill="#FFB573"/>
<path d="M90.0523 77.574L91.4383 79.9428L90.0901 82.2612L87.7129 79.5186L90.0523 77.574Z" fill="#FFB573"/>
<path d="M52.4163 171.125L55.8435 171.452L57.5907 163.464L54.1635 163.136L52.4163 171.125Z" fill="#FFB573"/>
<path d="M21.2983 160.78L23.8939 163.09L30.0763 157.819L27.4807 155.509L21.2983 160.78Z" fill="#FFB573"/>
<path d="M25.2505 162.279L22.9531 159.125C22.9147 159.069 22.8572 159.03 22.7914 159.013C22.7256 158.997 22.6561 159.006 22.5961 159.037L19.8199 160.499C19.7518 160.538 19.6927 160.591 19.6464 160.654C19.6002 160.718 19.5679 160.791 19.5516 160.868C19.5354 160.944 19.5355 161.024 19.5521 161.101C19.5687 161.178 19.6013 161.25 19.6477 161.313C20.4877 162.397 20.9077 162.88 21.9325 164.253C22.5541 165.093 23.8015 167.084 24.6625 168.264C25.5235 169.445 26.7331 168.655 26.4811 168.088C25.3513 165.543 25.3177 164.052 25.4017 162.859C25.4191 162.654 25.3657 162.45 25.2505 162.279Z" fill="#263238"/>
<path d="M56.2718 170.415H52.16C52.0855 170.416 52.0133 170.441 51.9542 170.486C51.8952 170.532 51.8524 170.595 51.8324 170.667L50.9378 173.926C50.9154 174.003 50.9114 174.085 50.9264 174.164C50.9413 174.243 50.9747 174.318 51.0237 174.382C51.0728 174.445 51.1363 174.497 51.2089 174.531C51.2815 174.566 51.3613 174.583 51.4418 174.581C52.8824 174.556 53.5838 174.472 55.3982 174.472C56.5112 174.472 59.3966 174.586 60.9338 174.586C62.471 174.586 62.7566 173.065 62.135 172.927C59.3378 172.309 57.7292 171.457 56.864 170.642C56.7038 170.492 56.4913 170.41 56.2718 170.415Z" fill="#263238"/>
<path opacity="0.2" d="M57.5864 163.464L56.6876 167.584H53.189L54.1592 163.136L57.5864 163.464Z" fill="black"/>
<path opacity="0.2" d="M27.4808 155.513L30.0764 157.823L26.8886 160.536L24.293 158.226L27.4808 155.513Z" fill="black"/>
<path d="M70.5308 82.1352C70.5308 82.1352 72.0806 82.9752 65.705 102.606L51.74 100.464C52.8446 94.8234 53.3906 91.3248 52.4708 79.254C54.486 79.1521 56.5059 79.197 58.5146 79.3884C60.6451 79.5605 62.7604 79.8861 64.844 80.3628C67.5446 81.0264 70.5308 82.1352 70.5308 82.1352Z" fill="#C4CAC9"/>
<path opacity="0.8" d="M70.5308 82.1352C70.5308 82.1352 72.0806 82.9752 65.705 102.606L51.74 100.464C52.8446 94.8234 53.3906 91.3248 52.4708 79.254C54.486 79.1521 56.5059 79.197 58.5146 79.3884C60.6451 79.5605 62.7604 79.8861 64.844 80.3628C67.5446 81.0264 70.5308 82.1352 70.5308 82.1352Z" fill="white"/>
<path d="M60.2533 72.3533C60.3415 74.4533 60.1651 78.2333 58.5312 79.3883C58.5312 79.3883 59.4217 82.3703 63.3235 85.9991C66.9355 82.8701 64.8607 80.3627 64.8607 80.3627C62.6725 79.4681 62.9916 77.7923 63.63 76.2677L60.2533 72.3533Z" fill="#FFB573"/>
<path opacity="0.2" d="M60.6187 72.7776C60.4647 73.9956 60.5706 75.2323 60.9295 76.4064C61.1815 77.2128 62.1391 77.7084 63.1681 77.9436C63.2339 77.363 63.3898 76.7962 63.6301 76.2636L60.6187 72.7776Z" fill="black"/>
<path d="M57.0992 70.2576C58.1198 73.5504 58.4852 74.9658 60.5936 76.272C63.7646 78.2292 67.5866 76.272 67.5656 72.7188C67.5656 69.5394 65.8856 64.6884 62.282 64.1592C61.4892 64.0386 60.6788 64.1227 59.9277 64.4035C59.1766 64.6843 58.5097 65.1524 57.9904 65.7635C57.4712 66.3745 57.1167 67.1081 56.9607 67.8947C56.8047 68.6812 56.8524 69.4946 57.0992 70.2576Z" fill="#FFB573"/>
<path d="M57.3301 64.6799C60.4339 60.5933 66.4441 59.7449 67.1707 62.1809C67.5655 63.5081 67.2295 64.8647 65.8435 65.8979C63.4159 67.7081 59.6821 67.7165 58.5313 67.6577C59.2999 68.3465 59.1193 73.9577 56.7085 71.7107C54.2977 69.4637 55.7593 66.2507 55.7593 66.2507L57.3301 64.6799Z" fill="#263238"/>
<path d="M56.5236 72.9118C56.7515 73.538 57.2181 74.0484 57.8214 74.3314C58.6236 74.701 59.1612 74.0164 59.0562 73.1848C58.9596 72.4372 58.4262 71.3452 57.5652 71.3242C57.3767 71.3238 57.1911 71.3705 57.0252 71.4598C56.8592 71.5492 56.7182 71.6786 56.6148 71.8361C56.5114 71.9937 56.4489 72.1746 56.433 72.3624C56.4171 72.5502 56.4482 72.7391 56.5236 72.9118Z" fill="#FFB573"/>
<path d="M65.7048 102.606C65.7048 102.606 67.326 129.822 65.1252 140.188C62.8362 150.973 58.3716 166.387 58.3716 166.387L51.8574 166.072C51.8574 166.072 55.0074 146.513 55.776 138.18C56.8302 126.689 55.4904 101.035 55.4904 101.035L65.7048 102.606Z" fill="#263238"/>
<path opacity="0.2" d="M58.6153 108.507C58.5061 105.987 56.9353 109.515 55.9399 112.06V112.14C56.0575 115.849 56.1541 120.095 56.1751 124.244C57.5149 120.704 58.8295 113.4 58.6153 108.507Z" fill="black"/>
<path d="M51.4041 166.387L58.8255 166.744L59.7033 164.031L51.6561 163.405L51.4041 166.387Z" fill="#C4CAC9"/>
<path d="M62.0215 102.06C62.0215 102.06 54.6127 123.807 49.0015 136.193C44.4613 146.202 28.3753 160.179 28.3753 160.179L24.7129 157.08C24.7129 157.08 36.3427 141.12 39.4801 134.349C49.5265 112.627 46.3303 105.999 51.7567 100.464L62.0215 102.06Z" fill="#263238"/>
<path d="M24.4106 157.038L28.4972 160.646L30.5762 159.142L25.7588 155.034L24.4106 157.038Z" fill="#C4CAC9"/>
<path d="M51.6727 99.6113L50.8327 100.762C50.7697 100.854 50.8705 100.968 51.0301 100.993L65.6587 103.244C65.7847 103.265 65.8981 103.219 65.9191 103.139L66.2341 101.913C66.2593 101.825 66.1585 101.736 66.0241 101.715L51.9163 99.5399C51.873 99.5291 51.8277 99.5301 51.7849 99.5426C51.7421 99.5552 51.7034 99.5789 51.6727 99.6113Z" fill="#C4CAC9"/>
<path d="M53.3276 101.484L52.9496 101.426C52.874 101.426 52.8236 101.367 52.832 101.321L53.252 99.7246C53.252 99.6784 53.336 99.649 53.4116 99.6616L53.7896 99.7204C53.8652 99.7204 53.9156 99.7792 53.903 99.8254L53.483 101.417C53.4746 101.468 53.42 101.493 53.3276 101.484Z" fill="#263238"/>
<path d="M64.592 103.215L64.214 103.156C64.1384 103.156 64.088 103.097 64.1006 103.051L64.5206 101.455C64.5206 101.409 64.6046 101.379 64.6802 101.392L65.0582 101.451C65.1338 101.451 65.1884 101.51 65.1758 101.556L64.7558 103.152C64.76 103.198 64.6676 103.227 64.592 103.215Z" fill="#263238"/>
<path d="M58.9596 102.35L58.5816 102.291C58.506 102.291 58.4556 102.232 58.4682 102.186L58.8882 100.59C58.8882 100.544 58.9722 100.514 59.0478 100.527L59.4258 100.586C59.5014 100.586 59.556 100.644 59.5434 100.691L59.1234 102.287C59.1066 102.333 59.0352 102.362 58.9596 102.35Z" fill="#263238"/>
<path d="M62.3996 69.9509C62.4626 70.2239 62.6642 70.4087 62.8406 70.3709C63.017 70.3331 63.1094 70.0727 63.0422 69.7997C62.975 69.5267 62.7776 69.3419 62.6222 69.3797C62.4668 69.4175 62.3324 69.6779 62.3996 69.9509Z" fill="#263238"/>
<path d="M65.4739 69.1992C65.5411 69.4722 65.7385 69.657 65.9191 69.6192C66.0997 69.5814 66.1837 69.3168 66.1207 69.0438C66.0577 68.7708 65.8519 68.586 65.6755 68.6238C65.4991 68.6616 65.4067 68.9262 65.4739 69.1992Z" fill="#263238"/>
<path d="M65.5999 68.6616L66.2089 68.313C66.2089 68.313 66.0199 68.9052 65.5999 68.6616Z" fill="#263238"/>
<path d="M64.76 69.8669C65.1538 70.4284 65.623 70.9329 66.1544 71.3663C66.0404 71.4995 65.8986 71.6062 65.739 71.6787C65.5793 71.7513 65.4057 71.788 65.2304 71.7863L64.76 69.8669Z" fill="#ED893E"/>
<path d="M64.5794 73.0799C64.5921 73.0694 64.6015 73.0556 64.6067 73.04C64.6119 73.0244 64.6126 73.0077 64.6088 72.9917C64.6064 72.9815 64.6019 72.9719 64.5957 72.9634C64.5895 72.9549 64.5817 72.9477 64.5728 72.9422C64.5638 72.9368 64.5538 72.9331 64.5434 72.9315C64.533 72.9299 64.5224 72.9304 64.5122 72.9329C64.1745 73.0206 63.821 73.0283 63.4798 72.9554C63.1385 72.8825 62.819 72.731 62.5466 72.5129C62.5392 72.5048 62.5301 72.4983 62.52 72.4938C62.5098 72.4894 62.4989 72.4871 62.4878 72.4871C62.4768 72.4871 62.4659 72.4894 62.4557 72.4938C62.4456 72.4983 62.4365 72.5048 62.429 72.5129C62.4137 72.5286 62.405 72.5497 62.405 72.5717C62.405 72.5937 62.4137 72.6148 62.429 72.6305C62.7174 72.8684 63.0585 73.0337 63.4239 73.1126C63.7893 73.1916 64.1682 73.1818 64.529 73.0841L64.5794 73.0799Z" fill="#263238"/>
<path d="M61.2866 69.1571C61.3091 69.1403 61.3277 69.1188 61.3412 69.0941C61.4168 68.902 61.5369 68.7306 61.6917 68.594C61.8465 68.4575 62.0316 68.3597 62.2316 68.3087C62.2533 68.3052 62.274 68.2974 62.2926 68.2856C62.3112 68.2739 62.3272 68.2586 62.3398 68.2406C62.3523 68.2226 62.3611 68.2022 62.3656 68.1807C62.3701 68.1593 62.3703 68.1371 62.366 68.1155C62.3625 68.0944 62.3548 68.0742 62.3433 68.0561C62.3318 68.0381 62.3168 68.0225 62.2991 68.0103C62.2815 67.9982 62.2616 67.9897 62.2406 67.9854C62.2197 67.9811 62.198 67.9811 62.177 67.9853C61.9229 68.0442 61.6868 68.1635 61.4886 68.3332C61.2905 68.5028 61.1362 68.7177 61.0388 68.9597C61.0242 68.9928 61.021 69.0298 61.0297 69.065C61.0383 69.1001 61.0583 69.1314 61.0866 69.1539C61.1149 69.1765 61.1499 69.189 61.1861 69.1896C61.2223 69.1902 61.2576 69.1788 61.2866 69.1571Z" fill="#263238"/>
<path d="M66.5826 67.4099L66.6078 67.3889C66.6383 67.3583 66.6555 67.3167 66.6555 67.2734C66.6555 67.2302 66.6383 67.1886 66.6078 67.1579C66.4191 66.9773 66.1897 66.8449 65.9389 66.7718C65.6881 66.6986 65.4234 66.687 65.1672 66.7379C65.1463 66.7435 65.1266 66.7531 65.1093 66.7662C65.0921 66.7793 65.0776 66.7957 65.0667 66.8144C65.0557 66.8331 65.0486 66.8538 65.0457 66.8753C65.0428 66.8967 65.0441 66.9186 65.0496 66.9395C65.0551 66.9605 65.0647 66.9802 65.0778 66.9974C65.091 67.0147 65.1073 67.0292 65.1261 67.0401C65.1448 67.051 65.1655 67.0581 65.1869 67.0611C65.2084 67.064 65.2303 67.0627 65.2512 67.0571C65.4547 67.0211 65.6638 67.0343 65.8611 67.0957C66.0584 67.1571 66.2381 67.2648 66.3852 67.4099C66.4136 67.4314 66.4483 67.443 66.4839 67.443C66.5195 67.443 66.5542 67.4314 66.5826 67.4099Z" fill="#263238"/>
<path d="M54.4321 83.1598C53.8231 84.109 53.2099 84.9406 52.5589 85.7974C51.9079 86.6542 51.2275 87.4774 50.5177 88.267C49.092 89.9042 47.511 91.3994 45.7969 92.7316C44.8997 93.4218 43.9409 94.0277 42.9325 94.5418C41.8178 95.0982 40.5952 95.4049 39.3499 95.4406C38.1204 95.4655 36.9016 95.2069 35.7883 94.6846C35.2525 94.4412 34.7442 94.1413 34.2721 93.79C34.0369 93.6178 33.8143 93.433 33.5959 93.2398C33.37 93.0389 33.1581 92.8228 32.9617 92.593L34.1923 91.333C34.3351 91.4254 34.5577 91.5598 34.7509 91.669C34.9441 91.7782 35.1709 91.8832 35.3641 91.9756C35.7716 92.1594 36.1929 92.311 36.6241 92.4292C37.4449 92.6517 38.3029 92.7018 39.1441 92.5762C39.9601 92.4421 40.742 92.1496 41.4457 91.7152C42.2482 91.239 43.0096 90.6967 43.7221 90.094C44.4684 89.475 45.1806 88.816 45.8557 88.12C46.5487 87.427 47.2123 86.692 47.8549 85.936C48.4975 85.18 49.1149 84.3988 49.7239 83.6134C50.3329 82.828 50.9293 81.9964 51.4585 81.2236L54.4321 83.1598Z" fill="#FFB573"/>
<path d="M34.0999 93.0678L31.6765 92.4L33.3817 89.8506C33.3817 89.8506 35.0281 90.7788 35.2339 92.2068L34.0999 93.0678Z" fill="#FFB573"/>
<path d="M30.8113 91.7574L31.4245 89.4138L33.3817 89.838L31.6765 92.3874L30.8113 91.7574Z" fill="#FFB573"/>
<path opacity="0.4" d="M34.1419 93.4332L31.4959 93.723C31.4244 93.7316 31.3523 93.7125 31.2944 93.6695C31.2366 93.6265 31.1975 93.563 31.1851 93.492L30.1645 87.8598C30.1573 87.8213 30.1581 87.7818 30.1669 87.7436C30.1757 87.7055 30.1922 87.6695 30.2154 87.638C30.2387 87.6065 30.2681 87.5801 30.302 87.5604C30.3359 87.5408 30.3734 87.5283 30.4123 87.5238L33.8479 87.1458C33.8868 87.1418 33.926 87.1457 33.9633 87.1575C34.0006 87.1692 34.035 87.1885 34.0646 87.2141C34.0941 87.2396 34.1181 87.271 34.135 87.3062C34.1519 87.3415 34.1614 87.3798 34.1629 87.4188L34.3939 93.1392C34.3955 93.2107 34.3707 93.2802 34.3242 93.3345C34.2777 93.3888 34.2128 93.4239 34.1419 93.4332Z" fill="#C4CAC9"/>
<path opacity="0.7" d="M31.0171 90.4552L31.5379 93.3406L34.0117 93.0676L33.9025 90.2998L31.0171 90.4552Z" fill="#C4CAC9"/>
<path d="M35.3893 92.11L34.9693 90.2956L33.9991 89.2666L33.5371 89.3464L33.9193 90.241C33.8124 90.5154 33.7738 90.8117 33.8067 91.1043C33.8396 91.3969 33.9431 91.6772 34.1083 91.921L34.2805 92.173L35.3893 92.11Z" fill="#FFB573"/>
<path d="M52.4875 79.2539C51.0259 79.4639 50.2825 81.0515 50.2825 81.0515L53.3359 86.6711C53.3359 86.6711 55.4695 84.9911 55.1587 83.1095C54.8395 81.1355 54.1549 79.0145 52.4875 79.2539Z" fill="#C4CAC9"/>
<path opacity="0.8" d="M52.4875 79.2539C51.0259 79.4639 50.2825 81.0515 50.2825 81.0515L53.3359 86.6711C53.3359 86.6711 55.4695 84.9911 55.1587 83.1095C54.8395 81.1355 54.1549 79.0145 52.4875 79.2539Z" fill="white"/>
<path d="M26.3258 163.964L26.4308 163.88C26.4687 163.847 26.4969 163.805 26.5125 163.758C26.528 163.71 26.5303 163.66 26.519 163.611C26.4308 163.191 25.259 162.725 25.1246 162.674C25.1095 162.668 25.093 162.667 25.0773 162.671C25.0615 162.675 25.0473 162.683 25.0364 162.695C25.0283 162.709 25.0239 162.724 25.0239 162.739C25.0239 162.755 25.0283 162.77 25.0364 162.784C25.217 163.204 25.5824 163.939 26.0108 164.044C26.122 164.056 26.234 164.028 26.3258 163.964ZM25.2506 162.901C25.7168 163.094 26.309 163.414 26.3594 163.645C26.3628 163.666 26.3603 163.689 26.3521 163.71C26.344 163.73 26.3306 163.748 26.3132 163.762C26.2784 163.802 26.2338 163.833 26.1837 163.85C26.1337 163.868 26.0799 163.872 26.0276 163.863C25.7966 163.8 25.511 163.46 25.2506 162.901Z" fill="#C4CAC9"/>
<path d="M26.5778 162.821C26.6085 162.806 26.6357 162.785 26.6576 162.758C26.6985 162.707 26.7207 162.643 26.7207 162.578C26.7207 162.512 26.6985 162.448 26.6576 162.397C26.6278 162.342 26.5859 162.293 26.535 162.256C26.4841 162.219 26.4255 162.194 26.3636 162.183C25.8722 162.074 25.0616 162.657 25.028 162.683C25.0156 162.691 25.0059 162.702 24.9999 162.715C24.994 162.729 24.992 162.744 24.9944 162.758C24.9953 162.773 25.0001 162.786 25.0083 162.798C25.0164 162.81 25.0276 162.819 25.0406 162.825C25.5366 163.01 26.0828 163.008 26.5778 162.821ZM25.3178 162.712C25.6208 162.483 25.9879 162.353 26.3678 162.342C26.4068 162.351 26.4436 162.367 26.4756 162.391C26.5075 162.415 26.5338 162.446 26.5526 162.481C26.603 162.573 26.5778 162.615 26.5526 162.645C26.3888 162.825 25.7126 162.838 25.2926 162.729L25.3178 162.712Z" fill="#C4CAC9"/>
<path d="M58.1029 171.095C58.3839 171.115 58.6641 171.048 58.9051 170.902C58.9682 170.857 59.0199 170.798 59.0563 170.729C59.0927 170.661 59.1129 170.585 59.1151 170.507C59.1209 170.464 59.1141 170.42 59.0955 170.38C59.0768 170.341 59.0472 170.308 59.0101 170.285C58.6405 170.028 57.2335 170.667 56.9563 170.797C56.9414 170.805 56.929 170.817 56.9208 170.832C56.9126 170.847 56.9089 170.864 56.9101 170.881C56.9122 170.898 56.9193 170.914 56.9305 170.927C56.9418 170.939 56.9566 170.948 56.9731 170.952C57.3437 171.039 57.7224 171.087 58.1029 171.095ZM58.7581 170.385C58.8148 170.381 58.8717 170.392 58.9219 170.419C58.9343 170.428 58.9437 170.44 58.9489 170.454C58.9542 170.469 58.955 170.484 58.9513 170.499C58.9491 170.552 58.9352 170.604 58.9105 170.651C58.8858 170.699 58.851 170.74 58.8085 170.772C58.5649 170.957 57.9937 170.978 57.2587 170.843C57.7314 170.613 58.2374 170.458 58.7581 170.385Z" fill="#C4CAC9"/>
<path d="M56.9901 170.94H57.0237C57.4899 170.751 58.4265 169.999 58.3761 169.608C58.3761 169.524 58.3047 169.415 58.0905 169.39C57.2757 169.293 56.9271 170.784 56.9103 170.847C56.9076 170.862 56.9089 170.877 56.9141 170.891C56.9193 170.905 56.9281 170.918 56.9397 170.927C56.9544 170.937 56.9723 170.942 56.9901 170.94ZM58.0191 169.541H58.0737C58.1577 169.541 58.2039 169.566 58.2123 169.617C58.2417 169.844 57.5949 170.457 57.1203 170.7C57.2295 170.36 57.5235 169.558 58.0401 169.558L58.0191 169.541Z" fill="#C4CAC9"/>
<path d="M62.5256 69.4133L63.1304 69.0647C63.1304 69.0647 62.9204 69.6611 62.5256 69.4133Z" fill="#263238"/>
<path d="M121.317 171.31L124.371 170.47L123.237 163.174L120.183 164.019L121.317 171.31Z" fill="#FFC3BD"/>
<path d="M95.3486 171.39H98.5154L99.3008 164.056H96.1382L95.3486 171.39Z" fill="#FFC3BD"/>
<path d="M98.78 171.02H94.916C94.8526 171.02 94.791 171.042 94.7415 171.082C94.6919 171.121 94.6572 171.176 94.643 171.238L94.0172 174.052C94.0026 174.121 94.0038 174.192 94.0206 174.261C94.0374 174.329 94.0694 174.392 94.1143 174.446C94.1591 174.501 94.2156 174.544 94.2795 174.573C94.3434 174.602 94.4132 174.617 94.4834 174.615C95.7434 174.594 96.6296 174.523 98.1962 174.523C99.158 174.523 102.06 174.624 103.387 174.624C104.715 174.624 104.891 173.309 104.349 173.187C101.909 172.654 100.069 171.927 99.3092 171.217C99.1645 171.086 98.9752 171.016 98.78 171.02Z" fill="#263238"/>
<path d="M124.253 170.121L120.918 171.041C120.858 171.057 120.804 171.093 120.767 171.143C120.731 171.194 120.713 171.256 120.717 171.318L120.859 174.199C120.864 174.269 120.883 174.337 120.917 174.397C120.951 174.458 120.998 174.511 121.055 174.551C121.112 174.591 121.177 174.618 121.246 174.63C121.314 174.642 121.385 174.638 121.452 174.619C122.644 174.267 124.366 173.716 125.874 173.301C127.642 172.813 129.196 172.49 131.267 171.919C132.527 171.57 132.527 170.209 131.964 170.239C129.444 170.373 127.466 170.856 125.051 170.151C124.793 170.068 124.517 170.057 124.253 170.121Z" fill="#263238"/>
<path d="M110.59 72.0007C110.788 72.0637 111.065 72.1519 111.313 72.2233L112.081 72.4501C112.598 72.5971 113.123 72.7315 113.644 72.8701C114.694 73.1137 115.744 73.3153 116.781 73.4539C117.79 73.5933 118.808 73.6509 119.826 73.6261C120.302 73.6165 120.777 73.5716 121.246 73.4917C121.674 73.4259 122.096 73.3219 122.506 73.1809C122.604 73.1508 122.699 73.1129 122.791 73.0675L122.934 73.0129H122.972H123.006L123.077 72.9709C123.144 72.9121 123.207 72.8743 123.283 72.8029C123.639 72.4856 123.97 72.1416 124.274 71.7739C124.946 70.9759 125.622 70.0939 126.269 69.1699C127.567 67.3387 128.848 65.4193 130.12 63.5251L132.25 64.5835C131.451 66.7885 130.512 68.9404 129.44 71.0263C128.88 72.1138 128.256 73.1671 127.571 74.1805C127.193 74.7474 126.772 75.2838 126.311 75.7849C126.189 75.9193 126.025 76.0663 125.891 76.2049L125.622 76.4233L125.484 76.5325L125.307 76.6501L125.127 76.7635L125.038 76.8139L124.975 76.8475L124.728 76.9777C124.564 77.0674 124.396 77.1487 124.224 77.2213C122.934 77.7737 121.561 78.1086 120.162 78.2125C118.87 78.32 117.571 78.3074 116.281 78.1747C115.038 78.052 113.803 77.8486 112.585 77.5657C111.985 77.4229 111.384 77.2675 110.792 77.0995C110.494 77.0155 110.196 76.9273 109.897 76.8307C109.599 76.7341 109.326 76.6375 108.973 76.5073L110.59 72.0007Z" fill="#FFC3BD"/>
<path d="M106.634 76.1042C108.045 78.7838 117.08 80.3714 117.08 80.3714L119.385 72.7568C119.385 72.7568 115.815 71.8412 111.972 71.0768C109.398 70.5602 105.101 73.1894 106.634 76.1042Z" fill="#263238"/>
<path opacity="0.2" d="M112.052 74.8064C113.182 75.554 114.732 78.1202 115.257 79.9934C113.112 79.5407 111.02 78.865 109.015 77.9774C109.7 76.6544 111.128 74.1932 112.052 74.8064Z" fill="black"/>
<path d="M129.994 63.7016L131.733 60.812L133.833 63.815C133.558 64.2058 133.204 64.5341 132.794 64.7787C132.384 65.0234 131.926 65.1787 131.452 65.2346L129.994 63.7016Z" fill="#FFC3BD"/>
<path d="M133.485 59.0857L135.06 61.7779L133.85 63.8149L131.733 60.8119L133.485 59.0857Z" fill="#FFC3BD"/>
<path opacity="0.4" d="M132.955 64.1678L135.711 64.4744C135.785 64.482 135.86 64.4611 135.92 64.4159C135.98 64.3708 136.021 64.3047 136.034 64.2308L137.097 58.3508C137.104 58.3107 137.103 58.2695 137.093 58.2298C137.084 58.1901 137.066 58.1528 137.042 58.1201C137.018 58.0874 136.987 58.0601 136.951 58.0398C136.916 58.0196 136.877 58.0068 136.836 58.0022L133.258 57.6116C133.217 57.6063 133.176 57.6095 133.137 57.6212C133.098 57.6328 133.062 57.6525 133.031 57.6791C133 57.7057 132.975 57.7384 132.958 57.7753C132.94 57.8122 132.931 57.8523 132.93 57.893L132.691 63.8486C132.685 63.9258 132.709 64.0022 132.759 64.0617C132.808 64.1213 132.879 64.1593 132.955 64.1678Z" fill="#C4CAC9"/>
<path opacity="0.7" d="M136.206 61.068L135.664 64.071L133.086 63.7896L133.203 60.9084L136.206 61.068Z" fill="#C4CAC9"/>
<path opacity="0.2" d="M123.237 163.178L123.82 166.937L120.767 167.777L120.179 164.018L123.237 163.178Z" fill="black"/>
<path opacity="0.2" d="M96.134 164.056H99.305L98.8934 167.836H95.7266L96.134 164.056Z" fill="black"/>
<path d="M94.2651 72.1519C95.1965 75.5684 95.869 79.0503 96.2769 82.5679C96.5793 85.0249 96.7599 87.3643 96.8691 89.4895C97.1337 94.4665 97.0245 98.2591 97.1715 99.5443L114.068 98.3683C116.366 80.3587 111.968 71.0683 111.968 71.0683C110.632 70.8181 109.281 70.6512 107.924 70.5685C107.638 70.5685 107.348 70.5391 107.054 70.5349C104.651 70.561 102.252 70.7279 99.8679 71.0347C99.4185 71.0893 98.9607 71.1523 98.5155 71.2237C96.2601 71.6017 94.2651 72.1519 94.2651 72.1519Z" fill="#263238"/>
<path d="M99.8721 71.0431C102.256 70.7419 104.656 70.5806 107.058 70.5601C107.352 70.5601 107.646 70.5601 107.932 70.5895H108.033C108.541 71.6521 109.293 76.0789 106.928 76.4023C103.732 76.8475 100.036 72.8113 98.5281 71.2447C98.9607 71.1607 99.4227 71.0935 99.8721 71.0431Z" fill="white"/>
<path opacity="0.2" d="M98.5322 76.709C98.5587 79.3014 97.829 81.8454 96.4322 84.0296C96.386 83.5508 96.3314 83.0636 96.2684 82.5722C96.0458 80.7284 95.756 78.8174 95.3696 76.8896L98.5322 76.709Z" fill="black"/>
<path d="M100.04 62.9036C100.653 65.1842 101.401 69.3884 99.8931 71.0432C100.656 71.7362 101.559 72.257 102.541 72.5701C103.523 72.8831 104.561 72.9812 105.584 72.8576C107.566 72.677 107.571 71.2784 107.075 70.5392C104.454 70.1192 104.387 68.1872 104.71 66.3644L100.04 62.9036Z" fill="#FFC3BD"/>
<path opacity="0.2" d="M101.926 64.3147L104.69 66.3601C104.609 66.7854 104.566 67.2168 104.559 67.6495C103.564 67.5781 102.136 66.5911 101.96 65.5495C101.874 65.1432 101.863 64.725 101.926 64.3147Z" fill="black"/>
<path d="M98.6288 60.2239C99.704 63.1639 100.183 64.9615 102.161 66.0535C105.13 67.6999 108.436 65.2135 108.268 62.0089C108.112 59.1151 106.382 54.7723 103.081 54.4489C102.354 54.3731 101.62 54.4845 100.948 54.7724C100.276 55.0604 99.6896 55.5154 99.2434 56.0942C98.7973 56.673 98.5066 57.3563 98.399 58.0791C98.2914 58.8019 98.3705 59.5403 98.6288 60.2239Z" fill="#FFC3BD"/>
<path d="M105.412 62.8027C105.059 62.9165 104.684 62.9434 104.318 62.8813C103.953 62.8191 103.607 62.6697 103.312 62.4457C103.296 62.4318 103.286 62.4121 103.284 62.3908C103.283 62.3695 103.29 62.3485 103.303 62.3323C103.317 62.3162 103.337 62.3062 103.358 62.3047C103.38 62.3031 103.401 62.31 103.417 62.3239C103.693 62.5256 104.013 62.6599 104.351 62.716C104.688 62.7722 105.035 62.7487 105.361 62.6473C105.382 62.6412 105.404 62.6435 105.423 62.6538C105.442 62.664 105.456 62.6813 105.462 62.7019C105.468 62.7226 105.466 62.7448 105.456 62.7637C105.446 62.7826 105.428 62.7966 105.408 62.8027H105.412Z" fill="#263238"/>
<path d="M99.5529 63.1218C101.451 63.5418 100.951 58.716 99.8763 57.771C98.8011 56.826 96.2181 57.3846 95.7687 58.5018C95.3193 59.619 96.9783 62.538 99.5529 63.1218Z" fill="#263238"/>
<path d="M96.8733 56.9521C96.8733 56.9521 101.044 55.8769 103.593 53.5165C100.422 50.8705 95.0757 46.1245 95.0757 46.1245C95.0757 46.1245 96.0585 52.6177 96.8733 56.9521Z" fill="#C4CAC9"/>
<path d="M96.2936 58.502C94.7522 58.502 96.1214 53.609 103.287 53.2394C110.452 52.8698 103.543 58.4936 96.2936 58.502Z" fill="#263238"/>
<path d="M99.553 55.8601C99.826 54.2011 101.611 52.1011 102.149 52.4581C102.686 52.8151 102.623 55.2973 102.623 55.2973L99.553 55.8601Z" fill="#263238"/>
<path d="M101.191 54.764C101.834 53.2142 104.047 51.572 104.492 52.0466C104.937 52.5212 104.307 54.9194 104.307 54.9194L101.191 54.764Z" fill="#263238"/>
<path d="M102.846 54.2054C103.85 52.9454 106.076 52.412 106.5 52.8698C106.924 53.3276 106.231 54.5498 106.231 54.5498L102.846 54.2054Z" fill="#263238"/>
<path d="M98.2508 63.9409C98.8446 64.4623 99.621 64.7266 100.41 64.6759C101.455 64.6045 101.628 63.5839 101.044 62.7817C100.515 62.0593 99.3386 61.2277 98.4314 61.6981C98.2352 61.8049 98.0688 61.9589 97.9471 62.1461C97.8254 62.3334 97.7522 62.548 97.7343 62.7707C97.7164 62.9933 97.7542 63.2168 97.8444 63.4212C97.9346 63.6255 98.0742 63.8041 98.2508 63.9409Z" fill="#FFC3BD"/>
<path d="M124.77 165.9L119.599 167.32C119.599 167.32 113.127 146.916 111.535 135.706C111.115 132.737 110.464 128.566 109.469 124.102C108.209 118.491 106.642 112.426 105.353 107.671C103.996 102.669 102.959 99.1286 102.959 99.1286L114.068 98.3516C114.068 98.3516 120.078 124.564 120.717 134.207C121.38 144.253 124.77 165.9 124.77 165.9Z" fill="#C4CAC9"/>
<path opacity="0.4" d="M124.77 165.9L119.599 167.32C119.599 167.32 113.127 146.916 111.535 135.706C111.115 132.737 110.464 128.566 109.469 124.102C108.209 118.491 106.642 112.426 105.353 107.671C103.996 102.669 102.959 99.1286 102.959 99.1286L114.068 98.3516C114.068 98.3516 120.078 124.564 120.717 134.207C121.38 144.253 124.77 165.9 124.77 165.9Z" fill="black"/>
<path opacity="0.2" d="M109.469 124.118C108.209 118.507 106.642 112.442 105.353 107.688L106.508 105.206C109.28 108.482 110.002 118.616 109.469 124.118Z" fill="black"/>
<path d="M108.075 98.7883C108.075 98.7883 106.878 125.895 105.555 135.076C104.089 145.131 100.372 167.106 100.372 167.106H94.58C94.58 167.106 94.4834 146.269 96.2978 136.534C98.36 125.437 97.1756 99.5401 97.1756 99.5401L108.075 98.7883Z" fill="#C4CAC9"/>
<path opacity="0.4" d="M108.075 98.7883C108.075 98.7883 106.878 125.895 105.555 135.076C104.089 145.131 100.372 167.106 100.372 167.106H94.58C94.58 167.106 94.4834 146.269 96.2978 136.534C98.36 125.437 97.1756 99.5401 97.1756 99.5401L108.075 98.7883Z" fill="black"/>
<path d="M101.052 167.232H94.2231V165.19L101.859 165.056L101.052 167.232Z" fill="#C4CAC9"/>
<path d="M125.127 165.946L119.293 167.555L118.453 165.543L125.106 163.699L125.127 165.946Z" fill="#C4CAC9"/>
<path d="M103.442 59.7156C103.513 59.9592 103.702 60.1356 103.862 60.0726C104.022 60.0096 104.093 59.787 104.022 59.5434C103.95 59.2998 103.761 59.1234 103.602 59.1864C103.442 59.2494 103.366 59.4678 103.442 59.7156Z" fill="#263238"/>
<path d="M106.21 58.8968C106.281 59.1404 106.47 59.3168 106.63 59.2538C106.789 59.1908 106.861 58.9682 106.789 58.7246C106.718 58.481 106.529 58.3046 106.369 58.3676C106.21 58.4306 106.138 58.649 106.21 58.8968Z" fill="#263238"/>
<path d="M105.366 59.2788C105.879 59.9405 106.481 60.5285 107.155 61.026C106.84 61.5594 106 61.5384 106 61.5384L105.366 59.2788Z" fill="#ED847E"/>
<path d="M102.317 59.073C102.344 59.071 102.371 59.0606 102.392 59.0434C102.414 59.0262 102.43 59.0029 102.438 58.9764C102.5 58.7987 102.604 58.638 102.739 58.5074C102.875 58.3768 103.039 58.2799 103.22 58.2246C103.258 58.2156 103.292 58.1916 103.313 58.1577C103.335 58.1239 103.342 58.083 103.333 58.044C103.329 58.0249 103.321 58.0068 103.31 57.9907C103.299 57.9746 103.285 57.9609 103.268 57.9503C103.252 57.9398 103.234 57.9326 103.214 57.9292C103.195 57.9258 103.176 57.9263 103.157 57.9306C102.927 57.9962 102.717 58.1159 102.544 58.2796C102.371 58.4433 102.239 58.6463 102.161 58.8714C102.154 58.8896 102.15 58.9091 102.15 58.9287C102.15 58.9484 102.155 58.9678 102.162 58.9858C102.17 59.0038 102.182 59.02 102.196 59.0336C102.21 59.0471 102.227 59.0577 102.245 59.0646C102.268 59.0733 102.292 59.0762 102.317 59.073Z" fill="#263238"/>
<path d="M107.113 57.5905C107.144 57.586 107.173 57.5729 107.197 57.5527C107.211 57.539 107.222 57.5227 107.229 57.5046C107.237 57.4866 107.241 57.4673 107.241 57.4477C107.241 57.4281 107.237 57.4088 107.229 57.3907C107.222 57.3727 107.211 57.3564 107.197 57.3427C107.042 57.1645 106.847 57.0257 106.628 56.9381C106.409 56.8504 106.172 56.8163 105.937 56.8387C105.917 56.8417 105.899 56.8486 105.882 56.859C105.865 56.8694 105.851 56.883 105.839 56.899C105.828 56.9151 105.82 56.9333 105.816 56.9525C105.812 56.9717 105.811 56.9916 105.815 57.0109C105.822 57.0496 105.844 57.084 105.876 57.1068C105.909 57.1295 105.948 57.1388 105.987 57.1327C106.176 57.1188 106.365 57.1495 106.539 57.2225C106.714 57.2955 106.869 57.4086 106.991 57.5527C107.007 57.5677 107.026 57.579 107.048 57.5855C107.069 57.592 107.091 57.5937 107.113 57.5905Z" fill="#263238"/>
<path d="M99.8216 171.574C100.037 171.59 100.251 171.534 100.431 171.415C100.487 171.366 100.531 171.304 100.558 171.235C100.585 171.165 100.595 171.09 100.586 171.016C100.585 170.973 100.573 170.931 100.551 170.894C100.529 170.857 100.498 170.827 100.46 170.806C100.107 170.625 99.0866 171.251 98.9732 171.327C98.9592 171.333 98.9478 171.344 98.9409 171.358C98.9341 171.371 98.9321 171.387 98.9354 171.402C98.9384 171.417 98.9455 171.43 98.956 171.44C98.9664 171.451 98.9797 171.458 98.9942 171.461C99.2647 171.531 99.5423 171.569 99.8216 171.574ZM100.292 170.94C100.325 170.94 100.358 170.947 100.389 170.961C100.389 170.961 100.435 170.991 100.435 171.049C100.442 171.099 100.437 171.15 100.419 171.197C100.401 171.244 100.372 171.285 100.334 171.318C99.976 171.48 99.569 171.495 99.2 171.36C99.5333 171.151 99.9042 171.008 100.292 170.94Z" fill="#C4CAC9"/>
<path d="M99.0112 171.465H99.049C99.3766 171.289 100.007 170.596 99.9394 170.243C99.9295 170.188 99.9006 170.138 99.8576 170.101C99.8146 170.065 99.7603 170.046 99.7042 170.045C99.6465 170.038 99.588 170.043 99.5323 170.06C99.4767 170.076 99.4251 170.104 99.3808 170.142C99.0154 170.444 98.9398 171.356 98.9356 171.402C98.9352 171.416 98.9381 171.429 98.9439 171.442C98.9498 171.454 98.9584 171.465 98.9692 171.473C98.9837 171.474 98.9982 171.472 99.0112 171.465ZM99.6496 170.18H99.6832C99.7798 170.18 99.7882 170.239 99.7924 170.255C99.8344 170.465 99.4312 170.99 99.1036 171.238C99.1258 170.878 99.256 170.532 99.4774 170.247C99.5244 170.204 99.5858 170.18 99.6496 170.18Z" fill="#C4CAC9"/>
<path d="M124.665 170.461C125.186 170.424 126.093 170.302 126.345 169.911C126.382 169.855 126.406 169.79 126.413 169.723C126.42 169.656 126.411 169.588 126.387 169.525C126.373 169.486 126.35 169.45 126.319 169.422C126.288 169.395 126.251 169.375 126.21 169.365C125.79 169.264 124.728 170.205 124.61 170.331C124.601 170.343 124.596 170.358 124.596 170.373C124.596 170.388 124.601 170.403 124.61 170.415C124.615 170.427 124.622 170.437 124.632 170.445C124.641 170.453 124.652 170.459 124.665 170.461ZM126.168 169.508H126.189C126.206 169.512 126.22 169.52 126.232 169.532C126.244 169.544 126.252 169.559 126.257 169.575C126.274 169.617 126.28 169.662 126.276 169.706C126.272 169.751 126.256 169.794 126.231 169.831C126.093 170.05 125.597 170.218 124.892 170.289C125.316 169.924 125.92 169.479 126.168 169.508Z" fill="#C4CAC9"/>
<path d="M124.665 170.461C124.684 170.468 124.704 170.468 124.724 170.461C125.043 170.193 125.593 169.332 125.442 169C125.404 168.924 125.32 168.84 125.118 168.874C125.044 168.885 124.973 168.912 124.909 168.953C124.845 168.993 124.791 169.046 124.749 169.109C124.451 169.529 124.593 170.369 124.602 170.415C124.604 170.428 124.61 170.44 124.618 170.45C124.626 170.461 124.636 170.469 124.648 170.474L124.665 170.461ZM125.228 169C125.286 169 125.299 169.038 125.303 169.046C125.396 169.243 125.043 169.886 124.728 170.23C124.667 169.873 124.717 169.505 124.871 169.176C124.934 169.086 125.031 169.024 125.139 169.004L125.228 169Z" fill="#C4CAC9"/>
<path d="M97.6797 76.793L96.7893 78.053C96.4869 78.473 96.1929 78.9266 95.9073 79.3718C95.3235 80.258 94.7649 81.1568 94.2273 82.0556C93.6897 82.9544 93.1857 83.8742 92.7069 84.7898C92.2281 85.7054 91.8207 86.6378 91.4763 87.5618L91.4469 87.6416V87.6752C91.4389 87.6997 91.4291 87.7236 91.4175 87.7466C91.4175 87.818 91.3839 87.881 91.3671 87.965C91.3377 88.1372 91.3167 88.3388 91.2999 88.553C91.2704 89.0258 91.2704 89.4999 91.2999 89.9726C91.3587 90.9722 91.4721 92.0264 91.6275 93.0764C91.9341 95.1764 92.3289 97.352 92.7363 99.4814L90.4809 100.233C89.5288 98.1653 88.7301 96.0301 88.0911 93.845C87.7587 92.7194 87.4937 91.575 87.2973 90.4178C87.1946 89.7922 87.1287 89.1611 87.0999 88.5278C87.0877 88.172 87.0961 87.8158 87.1251 87.461C87.1251 87.272 87.1755 87.041 87.2049 86.8646L87.2805 86.5286L87.3183 86.3648L87.3519 86.2472C88.0244 83.9725 88.9471 81.7793 90.1029 79.7078C90.6573 78.6872 91.2495 77.7002 91.8711 76.73C92.1861 76.247 92.5095 75.7724 92.8371 75.2978C93.1647 74.8232 93.4965 74.3696 93.8829 73.874L97.6797 76.793Z" fill="#FFC3BD"/>
<path d="M94.265 72.1519C91.2998 72.7525 88.7 80.0101 88.7 80.0101L94.895 85.0501C94.895 85.0501 96.9236 81.3625 98.5448 77.8009C100.309 73.9201 97.8602 71.4295 94.265 72.1519Z" fill="#263238"/>
<path d="M92.3792 98.8765L94.517 101.275L90.6488 102.48C90.6488 102.48 89.2838 100.031 90.5018 99.1621L92.3792 98.8765Z" fill="#FFC3BD"/>
<path d="M94.7019 103.916L91.4595 104.744L90.6489 102.459L94.5171 101.275L94.7019 103.916Z" fill="#FFC3BD"/>
<path d="M132.099 61.3831C132.625 61.1134 133.182 60.9076 133.758 60.7699C134.094 60.7124 134.433 60.6745 134.774 60.6565C134.774 60.6565 135.051 61.4965 133.606 61.7611C133.153 62.3449 131.582 63.1093 131.582 63.1093L132.099 61.3831Z" fill="#FFC3BD"/>
<path d="M163.216 170.982H160.159L160.029 163.901H163.086L163.216 170.982Z" fill="#FF8B7B"/>
<path d="M185.913 165.551L182.952 166.303L179.886 159.781L182.851 159.025L185.913 165.551Z" fill="#FF8B7B"/>
<path d="M182.557 165.993L185.812 164.892C185.869 164.871 185.93 164.872 185.987 164.892C186.043 164.913 186.09 164.953 186.119 165.006L187.501 167.408C187.534 167.468 187.553 167.534 187.557 167.602C187.562 167.671 187.551 167.739 187.525 167.802C187.5 167.866 187.461 167.923 187.411 167.969C187.361 168.016 187.301 168.051 187.236 168.072C186.094 168.437 185.523 168.555 184.095 169.038C183.213 169.336 180.705 170.39 179.475 170.802C178.244 171.213 177.723 170.054 178.185 169.777C180.285 168.517 181.621 167.219 182.133 166.329C182.228 166.168 182.379 166.048 182.557 165.993Z" fill="#263238"/>
<path d="M160.188 170.625H163.548C163.608 170.625 163.666 170.646 163.712 170.684C163.758 170.723 163.79 170.776 163.8 170.835L164.338 173.552C164.351 173.619 164.349 173.687 164.332 173.753C164.316 173.819 164.284 173.88 164.241 173.932C164.197 173.984 164.143 174.025 164.081 174.053C164.019 174.082 163.952 174.096 163.884 174.094C162.683 174.094 160.944 174.006 159.432 174.006C157.66 174.006 157.29 174.103 155.232 174.103C153.972 174.103 153.662 172.843 154.187 172.717C156.593 172.196 157.387 172.137 159.483 170.864C159.693 170.724 159.936 170.642 160.188 170.625Z" fill="#263238"/>
<path d="M160.68 77.1918L158.29 73.5C158.29 73.5 148.642 78.54 147.13 78.12C145.077 77.532 143.006 77.6328 140.889 76.2342C140.381 76.3224 139.155 76.944 138.898 77.3388C140.717 80.4678 145.618 82.719 147.567 82.593C152.028 82.2948 160.68 77.1918 160.68 77.1918Z" fill="#FF8B7B"/>
<path d="M162.885 76.0201C162.104 78.8383 154.279 83.1979 154.279 83.1979L150.44 76.8601C150.44 76.8601 154.22 73.1977 157.95 72.3073C161.931 71.3329 163.742 72.9415 162.885 76.0201Z" fill="#C4CAC9"/>
<path opacity="0.2" d="M157.013 78.0487C155.85 79.3066 155.203 80.9556 155.199 82.6687C156.077 82.1395 157.467 81.2743 158.828 80.2831C158.454 78.7795 157.509 77.5615 157.013 78.0487Z" fill="black"/>
<path d="M141.293 76.5281L139.193 73.8779L137.26 76.9859C137.26 76.9859 137.815 77.7545 139.36 77.9519L141.293 76.5281Z" fill="#FF8B7B"/>
<path d="M137.118 72.5046L135.736 75.222L137.281 76.9902L139.213 73.878L137.118 72.5046Z" fill="#FF8B7B"/>
<path opacity="0.4" d="M138.487 78.5401L135.732 78.8425C135.658 78.8502 135.583 78.8299 135.524 78.7856C135.464 78.7413 135.423 78.6762 135.408 78.6031L134.346 72.7231C134.339 72.683 134.34 72.6418 134.349 72.6021C134.359 72.5624 134.376 72.5251 134.4 72.4924C134.425 72.4597 134.456 72.4324 134.491 72.4122C134.526 72.3919 134.566 72.3791 134.606 72.3745L138.184 71.9839C138.225 71.9786 138.266 71.9819 138.305 71.9935C138.344 72.0051 138.38 72.0249 138.411 72.0514C138.442 72.078 138.467 72.1107 138.484 72.1476C138.502 72.1845 138.511 72.2246 138.512 72.2653L138.751 78.2209C138.757 78.2981 138.733 78.3745 138.684 78.434C138.634 78.4936 138.564 78.5316 138.487 78.5401Z" fill="#C4CAC9"/>
<path opacity="0.7" d="M135.236 75.4152L135.778 78.4224L138.357 78.141L138.239 75.2556L135.236 75.4152Z" fill="#C4CAC9"/>
<path d="M139.344 75.7344C138.817 75.4648 138.26 75.2589 137.685 75.1212C137.348 75.0637 137.009 75.0259 136.668 75.0078C136.668 75.0078 136.391 75.8478 137.836 76.1124C138.289 76.6962 139.86 77.4606 139.86 77.4606L139.344 75.7344Z" fill="#FF8B7B"/>
<path opacity="0.2" d="M160.029 163.905L160.096 167.551H163.153L163.086 163.905H160.029Z" fill="black"/>
<path opacity="0.2" d="M182.851 159.029L179.886 159.781L181.47 163.145L184.435 162.393L182.851 159.029Z" fill="black"/>
<path d="M157.962 72.2862C157.962 72.2862 154.128 80.766 157.122 97.9566H173.473C173.645 95.4366 172.368 83.9538 175.082 72.1266C173.279 71.7776 171.455 71.5475 169.622 71.4378C167.308 71.3033 164.988 71.3033 162.675 71.4378C161.084 71.5978 159.509 71.8814 157.962 72.2862Z" fill="#C4CAC9"/>
<path opacity="0.2" d="M171.469 75.0498C171.15 76.9944 171.65 81.6522 173.372 87.0324C173.455 82.4215 173.946 77.827 174.838 73.3026V73.2816C173.763 73.1724 171.776 73.2228 171.469 75.0498Z" fill="black"/>
<path d="M168.887 64.9363C168.395 67.1749 168.11 69.9427 169.634 71.4379C169.634 71.4379 168.727 72.6769 164.96 72.6517C162.162 72.6517 162.687 71.4379 162.687 71.4379C165.207 70.8415 165.14 67.7587 164.75 66.0199L168.887 64.9363Z" fill="#FF8B7B"/>
<path d="M162.326 72.4793C162.108 71.8241 163.011 69.8669 163.515 69.8669C164.22 69.8669 168.315 70.6397 169.71 70.2533C171.104 69.8669 170.256 71.4251 170.088 71.9711C169.92 72.5171 163.217 75.1547 162.326 72.4793Z" fill="#C4CAC9"/>
<path opacity="0.2" d="M164.745 66.0199C165.053 67.2308 165.016 68.5035 164.64 69.6949C165.029 69.6352 165.407 69.5192 165.762 69.3505C167.186 68.6869 167.904 67.6453 168.66 66.0955C168.727 65.7007 168.803 65.3143 168.887 64.9363L164.745 66.0199Z" fill="black"/>
<path d="M160.94 64.1255C161.099 64.4643 161.324 64.768 161.602 65.019C161.879 65.2699 162.204 65.4631 162.557 65.5871C163.506 65.9063 164.048 65.0537 163.842 64.1171C163.657 63.2771 162.939 62.0927 161.961 62.1809C161.745 62.2054 161.539 62.2821 161.361 62.4045C161.182 62.5268 161.036 62.6911 160.935 62.8829C160.835 63.0747 160.782 63.2882 160.783 63.5048C160.784 63.7214 160.838 63.9345 160.94 64.1255Z" fill="#FF8B7B"/>
<path opacity="0.2" d="M160.94 64.1255C161.099 64.4643 161.324 64.768 161.602 65.019C161.879 65.2699 162.204 65.4631 162.557 65.5871C163.506 65.9063 164.048 65.0537 163.842 64.1171C163.657 63.2771 162.939 62.0927 161.961 62.1809C161.745 62.2054 161.539 62.2821 161.361 62.4045C161.182 62.5268 161.036 62.6911 160.935 62.8829C160.835 63.0747 160.782 63.2882 160.783 63.5048C160.784 63.7214 160.838 63.9345 160.94 64.1255Z" fill="black"/>
<path d="M162.469 58.4264C161.545 59.3462 160.818 62.0048 161.662 63.1934C162.507 64.382 164.682 60.0518 164.447 59.0606C164.212 58.0694 162.469 58.4264 162.469 58.4264Z" fill="#263238"/>
<path d="M170.277 61.74C169.718 64.7514 169.542 66.5406 167.841 67.935C165.283 70.035 161.768 68.2626 161.427 65.163C161.121 62.3742 162.087 57.918 165.161 57.0192C165.834 56.8176 166.548 56.7948 167.232 56.953C167.917 57.1112 168.548 57.4449 169.065 57.9214C169.581 58.3978 169.964 59.0005 170.177 59.67C170.389 60.3396 170.424 61.053 170.277 61.74Z" fill="#FF8B7B"/>
<path d="M169.806 64.5162C168.5 64.2138 168.185 61.4502 169.097 59.9382C167.685 60.0516 161.495 60.1944 161.663 57.246C161.793 54.8772 164.183 53.9154 165.955 55.4568C167.727 56.9982 172.007 54.8688 172.385 57.855C174.216 58.0566 173.364 65.3436 169.806 64.5162Z" fill="#263238"/>
<path d="M171.94 57.9979C171.94 57.9979 172.709 58.0735 172.599 56.1919C173.376 56.7631 173.708 58.0861 171.94 57.9979Z" fill="#263238"/>
<path d="M171.213 65.205C170.736 65.8059 170.043 66.1963 169.281 66.2928C168.282 66.4104 167.958 65.4528 168.391 64.6128C168.777 63.8316 169.76 62.8279 170.693 63.1135C171.625 63.3991 171.797 64.4616 171.213 65.205Z" fill="#FF8B7B"/>
<path d="M167.879 97.9565C167.879 97.9565 167.555 101.8 167.144 107.012C166.669 112.917 166.089 120.578 165.745 126.42C165.745 126.449 165.745 126.475 165.745 126.5C165.678 127.609 165.619 128.65 165.573 129.599C165.111 139.125 164.153 166.845 164.153 166.845H158.975C158.975 166.845 156.366 138.558 156.257 128.86C156.152 119.54 157.131 97.9565 157.131 97.9565H167.879Z" fill="#263238"/>
<path d="M164.531 165.257C164.556 165.257 164.489 166.937 164.489 166.937H158.521L158.319 165.039L164.531 165.257Z" fill="#C4CAC9"/>
<path opacity="0.2" d="M167.144 107.012C166.669 112.917 166.089 120.578 165.745 126.42C165.745 126.45 165.745 126.475 165.745 126.5C164.485 120.964 163.964 114.076 164.141 102.736L167.144 107.012Z" fill="black"/>
<path d="M162.935 97.9565C162.935 97.9565 165.829 120.044 167.521 128.797C169.369 138.382 179.932 162.817 179.932 162.817L185.359 161.44C185.359 161.44 177.627 139.18 176.669 129.679C175.632 119.381 173.485 97.9691 173.485 97.9691L162.935 97.9565Z" fill="#263238"/>
<path d="M185.031 160.02C185.057 160.02 185.653 161.477 185.653 161.477L179.685 162.96L178.761 161.343L185.031 160.02Z" fill="#C4CAC9"/>
<path d="M165.64 62.097C165.61 62.3406 165.455 62.517 165.295 62.517C165.136 62.517 165.035 62.286 165.064 62.0382C165.094 61.7904 165.249 61.6182 165.409 61.6182C165.568 61.6182 165.669 61.8492 165.64 62.097Z" fill="#263238"/>
<path d="M162.889 61.8072C162.859 62.055 162.704 62.2272 162.549 62.2272C162.393 62.2272 162.284 61.9962 162.313 61.7484C162.343 61.5006 162.498 61.3284 162.658 61.3284C162.817 61.3284 162.922 61.5594 162.889 61.8072Z" fill="#263238"/>
<path d="M163.75 62.0215C163.366 62.7442 162.887 63.4124 162.326 64.0081C162.478 64.1463 162.658 64.2489 162.854 64.3085C163.05 64.368 163.257 64.3831 163.46 64.3525L163.75 62.0215Z" fill="#FF5652"/>
<path d="M164.073 65.0371C164.064 65.0356 164.055 65.0322 164.047 65.0271C164.039 65.022 164.032 65.0153 164.026 65.0075C164.021 64.9997 164.017 64.9908 164.015 64.9815C164.013 64.9721 164.013 64.9625 164.014 64.9531C164.018 64.9345 164.027 64.9178 164.042 64.9061C164.057 64.8945 164.076 64.8888 164.094 64.8901C164.397 64.9361 164.707 64.9107 164.999 64.8159C165.291 64.7212 165.556 64.5596 165.774 64.3441C165.788 64.3307 165.806 64.3232 165.825 64.3232C165.844 64.3232 165.862 64.3307 165.875 64.3441C165.882 64.3504 165.888 64.3581 165.892 64.3668C165.896 64.3755 165.898 64.3849 165.898 64.3945C165.898 64.404 165.896 64.4134 165.892 64.4221C165.888 64.4308 165.882 64.4386 165.875 64.4449C165.644 64.6806 165.36 64.8573 165.046 64.9604C164.733 65.0634 164.399 65.0897 164.073 65.0371Z" fill="#263238"/>
<path d="M166.581 61.2824C166.559 61.2801 166.537 61.2729 166.518 61.2613C166.5 61.2497 166.484 61.2339 166.472 61.2152C166.389 61.0579 166.269 60.923 166.123 60.8221C165.977 60.7211 165.808 60.6571 165.632 60.6356C165.593 60.6334 165.557 60.6164 165.532 60.5881C165.506 60.5599 165.492 60.5226 165.493 60.4844C165.495 60.4457 165.512 60.4094 165.54 60.3828C165.568 60.3563 165.606 60.3415 165.644 60.3416C165.872 60.3623 166.091 60.4391 166.281 60.5652C166.472 60.6913 166.628 60.8626 166.736 61.064C166.754 61.0977 166.758 61.1367 166.747 61.1733C166.737 61.2099 166.714 61.2413 166.682 61.2614C166.652 61.281 166.616 61.2886 166.581 61.2824Z" fill="#263238"/>
<path d="M161.78 60.6902C161.759 60.6854 161.739 60.6769 161.721 60.665C161.691 60.6409 161.671 60.6062 161.666 60.5679C161.66 60.5296 161.67 60.4907 161.692 60.4591C161.823 60.2689 161.997 60.1124 162.2 60.0022C162.403 59.8919 162.629 59.8312 162.859 59.825C162.878 59.8254 162.897 59.8298 162.914 59.8378C162.931 59.8458 162.947 59.8572 162.959 59.8714C162.972 59.8856 162.982 59.9022 162.988 59.9202C162.993 59.9382 162.996 59.9573 162.994 59.9762C162.992 60.0144 162.975 60.0503 162.946 60.0762C162.918 60.1021 162.881 60.1159 162.843 60.1148C162.66 60.1233 162.481 60.1744 162.322 60.2641C162.162 60.3538 162.025 60.4796 161.923 60.6314C161.907 60.6534 161.885 60.6706 161.86 60.681C161.835 60.6914 161.807 60.6946 161.78 60.6902Z" fill="#263238"/>
<path d="M176.678 76.6963L172.742 78.7963C172.742 78.7963 177.224 88.5151 176.64 89.9599C175.846 91.9255 175.216 95.5501 173.494 97.4149C173.494 97.9231 173.96 99.1915 174.334 99.4897C177.77 98.1457 181.176 91.7743 181.239 89.8549C181.373 85.4869 176.678 76.6963 176.678 76.6963Z" fill="#FF8B7B"/>
<path d="M175.094 72.1267C177.975 72.5467 180.331 80.4763 180.331 80.4763L174.871 86.0035C174.871 86.0035 172.309 81.2365 171.091 77.6959C169.802 73.9873 172.003 71.6773 175.094 72.1267Z" fill="#C4CAC9"/>
<path d="M181.759 166.824C181.569 166.907 181.355 166.922 181.155 166.866C181.088 166.839 181.03 166.796 180.985 166.74C180.94 166.684 180.91 166.618 180.898 166.547C180.886 166.506 180.885 166.463 180.895 166.421C180.906 166.38 180.927 166.342 180.957 166.312C181.222 166.039 182.339 166.312 182.465 166.312C182.479 166.314 182.492 166.322 182.502 166.332C182.512 166.343 182.518 166.356 182.52 166.371C182.521 166.384 182.519 166.398 182.513 166.411C182.507 166.424 182.498 166.434 182.486 166.442C182.259 166.597 182.016 166.725 181.759 166.824ZM181.142 166.366C181.11 166.375 181.081 166.393 181.058 166.417C181.058 166.417 181.024 166.455 181.058 166.509C181.065 166.558 181.084 166.603 181.113 166.642C181.142 166.681 181.181 166.712 181.226 166.732C181.6 166.77 181.974 166.663 182.272 166.434C181.904 166.336 181.519 166.313 181.142 166.366Z" fill="#C4CAC9"/>
<path d="M182.469 166.471H182.436C182.083 166.408 181.306 165.963 181.264 165.631C181.258 165.576 181.271 165.521 181.301 165.474C181.331 165.428 181.375 165.393 181.428 165.375C181.478 165.352 181.532 165.341 181.587 165.341C181.642 165.341 181.697 165.352 181.747 165.375C182.167 165.539 182.499 166.358 182.515 166.391C182.522 166.402 182.525 166.415 182.525 166.427C182.525 166.44 182.522 166.452 182.515 166.463C182.502 166.471 182.485 166.474 182.469 166.471ZM181.52 165.48H181.491C181.402 165.522 181.411 165.568 181.411 165.585C181.436 165.791 181.953 166.148 182.322 166.274C182.213 166.043 181.969 165.581 181.696 165.476C181.639 165.456 181.576 165.458 181.52 165.48Z" fill="#C4CAC9"/>
<path d="M158.903 171.158C158.643 171.182 158.382 171.117 158.164 170.974C158.117 170.929 158.081 170.873 158.059 170.812C158.038 170.751 158.03 170.685 158.038 170.621C158.04 170.58 158.053 170.541 158.075 170.507C158.097 170.474 158.128 170.446 158.164 170.428C158.538 170.218 159.751 170.848 159.89 170.915C159.903 170.922 159.913 170.934 159.919 170.947C159.925 170.961 159.927 170.976 159.924 170.99C159.921 171.006 159.915 171.02 159.904 171.031C159.894 171.042 159.88 171.05 159.865 171.053C159.548 171.117 159.226 171.153 158.903 171.158ZM158.365 170.528C158.319 170.527 158.273 170.535 158.231 170.554C158.217 170.562 158.204 170.573 158.195 170.587C158.187 170.601 158.182 170.617 158.181 170.633C158.174 170.676 158.179 170.719 158.193 170.76C158.208 170.8 158.232 170.836 158.265 170.864C158.449 171.032 158.949 171.062 159.625 170.948C159.233 170.734 158.807 170.589 158.365 170.52V170.528Z" fill="#C4CAC9"/>
<path d="M159.852 171.053H159.823C159.457 170.89 158.743 170.213 158.806 169.882C158.806 169.802 158.882 169.701 159.084 169.68C159.155 169.672 159.228 169.678 159.297 169.7C159.365 169.722 159.429 169.758 159.483 169.806C159.861 170.125 159.924 170.948 159.928 170.982C159.927 170.995 159.924 171.008 159.919 171.019C159.913 171.031 159.904 171.041 159.894 171.049C159.881 171.055 159.866 171.056 159.852 171.053ZM159.138 169.814H159.092C158.962 169.814 158.953 169.882 158.949 169.898C158.911 170.104 159.394 170.625 159.768 170.852C159.744 170.504 159.61 170.174 159.386 169.907C159.318 169.847 159.229 169.814 159.138 169.814Z" fill="#C4CAC9"/>
<path d="M174.111 97.1335L171.209 96.9109L172.658 100.124C172.658 100.124 175.207 100.237 175.682 98.2885L174.111 97.1335Z" fill="#FF8B7B"/>
<path d="M169.399 97.7257L170.861 100.569L172.658 100.124L171.205 96.9109L169.399 97.7257Z" fill="#FF8B7B"/>
<path d="M56.8935 174.821H54.6633V126.399H59.1279L56.8935 174.821Z" fill="#C4CAC9"/>
<path opacity="0.6" d="M56.8935 174.821H54.6633V126.399H59.1279L56.8935 174.821Z" fill="white"/>
<path d="M65.3691 174.821H63.1389V126.399H67.6035L65.3691 174.821Z" fill="#C4CAC9"/>
<path opacity="0.6" d="M65.3691 174.821H63.1389V126.399H67.6035L65.3691 174.821Z" fill="white"/>
<path d="M154.107 174.821H156.337V126.399H151.872L154.107 174.821Z" fill="#C4CAC9"/>
<path opacity="0.6" d="M154.107 174.821H156.337V126.399H151.872L154.107 174.821Z" fill="white"/>
<path d="M145.631 174.821H147.861V126.399H143.397L145.631 174.821Z" fill="#C4CAC9"/>
<path opacity="0.6" d="M145.631 174.821H147.861V126.399H143.397L145.631 174.821Z" fill="white"/>
<path d="M159.411 126.42C159.411 127.487 135.274 128.356 105.5 128.356C75.7263 128.356 51.5889 127.466 51.5889 126.42V124.48H159.411V126.42Z" fill="#C4CAC9"/>
<path opacity="0.2" d="M159.411 126.42C159.411 127.487 135.274 128.356 105.5 128.356C75.7263 128.356 51.5889 127.466 51.5889 126.42V124.48H159.411V126.42Z" fill="black"/>
<path d="M159.411 124.459C159.411 125.53 135.274 126.399 105.5 126.399C75.7263 126.399 51.5889 125.53 51.5889 124.459C51.5889 123.388 75.7263 122.522 105.5 122.522C135.274 122.522 159.411 123.392 159.411 124.459Z" fill="#C4CAC9"/>
<path opacity="0.6" d="M159.411 124.459C159.411 125.53 135.274 126.399 105.5 126.399C75.7263 126.399 51.5889 125.53 51.5889 124.459C51.5889 123.388 75.7263 122.522 105.5 122.522C135.274 122.522 159.411 123.392 159.411 124.459Z" fill="white"/>
<path d="M83.66 109.549C83.6608 110.124 83.4909 110.686 83.1719 111.165C82.8529 111.644 82.399 112.017 81.8677 112.237C81.3365 112.458 80.7518 112.516 80.1876 112.404C79.6234 112.292 79.1052 112.015 78.6984 111.608C78.2917 111.201 78.0148 110.683 77.9028 110.119C77.7908 109.555 77.8487 108.97 78.0692 108.439C78.2897 107.907 78.6629 107.454 79.1415 107.135C79.6201 106.816 80.1826 106.646 80.7578 106.646C81.5275 106.646 82.2657 106.952 82.8099 107.497C83.3542 108.041 83.66 108.779 83.66 109.549Z" fill="#C4CAC9"/>
<path opacity="0.2" d="M83.66 109.549C83.6608 110.124 83.4909 110.686 83.1719 111.165C82.8529 111.644 82.399 112.017 81.8677 112.237C81.3365 112.458 80.7518 112.516 80.1876 112.404C79.6234 112.292 79.1052 112.015 78.6984 111.608C78.2917 111.201 78.0148 110.683 77.9028 110.119C77.7908 109.555 77.8487 108.97 78.0692 108.439C78.2897 107.907 78.6629 107.454 79.1415 107.135C79.6201 106.816 80.1826 106.646 80.7578 106.646C81.5275 106.646 82.2657 106.952 82.8099 107.497C83.3542 108.041 83.66 108.779 83.66 109.549Z" fill="black"/>
<path d="M76.9738 111.813C78.224 111.813 79.2376 110.799 79.2376 109.549C79.2376 108.298 78.224 107.285 76.9738 107.285C75.7235 107.285 74.71 108.298 74.71 109.549C74.71 110.799 75.7235 111.813 76.9738 111.813Z" fill="#C4CAC9"/>
<path opacity="0.2" d="M76.9738 111.813C78.224 111.813 79.2376 110.799 79.2376 109.549C79.2376 108.298 78.224 107.285 76.9738 107.285C75.7235 107.285 74.71 108.298 74.71 109.549C74.71 110.799 75.7235 111.813 76.9738 111.813Z" fill="black"/>
<path d="M84.5714 111.813C85.8217 111.813 86.8352 110.799 86.8352 109.549C86.8352 108.298 85.8217 107.285 84.5714 107.285C83.3212 107.285 82.3076 108.298 82.3076 109.549C82.3076 110.799 83.3212 111.813 84.5714 111.813Z" fill="#C4CAC9"/>
<path opacity="0.2" d="M84.5714 111.813C85.8217 111.813 86.8352 110.799 86.8352 109.549C86.8352 108.298 85.8217 107.285 84.5714 107.285C83.3212 107.285 82.3076 108.298 82.3076 109.549C82.3076 110.799 83.3212 111.813 84.5714 111.813Z" fill="black"/>
<path d="M70.8333 112.237H90.7119V123.236C90.7119 123.562 90.5827 123.874 90.3527 124.104C90.1227 124.334 89.8108 124.463 89.4855 124.463H72.0555C71.7302 124.463 71.4183 124.334 71.1883 124.104C70.9583 123.874 70.8291 123.562 70.8291 123.236V112.237H70.8333Z" fill="#C4CAC9"/>
<path opacity="0.1" d="M70.8333 112.237H90.7119V123.236C90.7119 123.562 90.5827 123.874 90.3527 124.104C90.1227 124.334 89.8108 124.463 89.4855 124.463H72.0555C71.7302 124.463 71.4183 124.334 71.1883 124.104C70.9583 123.874 70.8291 123.562 70.8291 123.236V112.237H70.8333Z" fill="black"/>
<path opacity="0.2" d="M90.7118 113.518H70.8333V114.173H90.7118V113.518Z" fill="black"/>
<path opacity="0.2" d="M82.1902 124.463V112.123H79.3552V124.463H82.1902Z" fill="black"/>
<path d="M90.4093 113.87H71.1355C70.9618 113.87 70.7951 113.801 70.6723 113.679C70.5494 113.556 70.4803 113.389 70.4803 113.215V111.854C70.4803 111.52 70.6131 111.2 70.8494 110.964C71.0857 110.727 71.4062 110.594 71.7403 110.594H89.8171C90.1513 110.594 90.4718 110.727 90.7081 110.964C90.9444 111.2 91.0771 111.52 91.0771 111.854V113.215C91.0772 113.302 91.0598 113.389 91.0261 113.469C90.9924 113.549 90.943 113.622 90.8808 113.683C90.8186 113.744 90.7449 113.792 90.664 113.824C90.583 113.856 90.4964 113.872 90.4093 113.87Z" fill="#C4CAC9"/>
<path opacity="0.1" d="M90.4093 113.87H71.1355C70.9618 113.87 70.7951 113.801 70.6723 113.679C70.5494 113.556 70.4803 113.389 70.4803 113.215V111.854C70.4803 111.52 70.6131 111.2 70.8494 110.964C71.0857 110.727 71.4062 110.594 71.7403 110.594H89.8171C90.1513 110.594 90.4718 110.727 90.7081 110.964C90.9444 111.2 91.0771 111.52 91.0771 111.854V113.215C91.0772 113.302 91.0598 113.389 91.0261 113.469C90.9924 113.549 90.943 113.622 90.8808 113.683C90.8186 113.744 90.7449 113.792 90.664 113.824C90.583 113.856 90.4964 113.872 90.4093 113.87Z" fill="black"/>
<path opacity="0.2" d="M82.3372 113.866V110.603H79.2124V113.866H82.3372Z" fill="black"/>
<path d="M116.449 97.9692H94.5507C94.1331 97.9692 93.7947 98.3077 93.7947 98.7252V109.036C93.7947 109.454 94.1331 109.792 94.5507 109.792H116.449C116.867 109.792 117.205 109.454 117.205 109.036V98.7252C117.205 98.3077 116.867 97.9692 116.449 97.9692Z" fill="#68C8BC"/>
<path d="M117.68 98.4144V101.955C117.682 102.185 117.61 102.41 117.476 102.598C117.342 102.785 117.151 102.925 116.932 102.997C115.882 103.328 115.513 104.059 113.892 104.059C111.792 104.059 111.792 102.837 109.692 102.837C107.592 102.837 107.592 104.059 105.492 104.059C103.392 104.059 103.392 102.837 101.292 102.837C99.1916 102.837 99.1916 104.059 97.0916 104.059C95.4746 104.059 95.105 103.328 94.0508 102.997C93.8331 102.923 93.644 102.783 93.5105 102.596C93.3771 102.409 93.306 102.185 93.3074 101.955V98.4144C93.3074 98.2335 93.3789 98.0601 93.5064 97.9318C93.6339 97.8035 93.807 97.7309 93.9878 97.7298H116.987C117.078 97.7287 117.168 97.7456 117.252 97.7795C117.336 97.8134 117.412 97.8636 117.477 97.9273C117.541 97.991 117.592 98.0668 117.627 98.1504C117.662 98.2341 117.68 98.3238 117.68 98.4144Z" fill="#C4CAC9"/>
<path opacity="0.6" d="M117.68 98.4144V101.955C117.682 102.185 117.61 102.41 117.476 102.598C117.342 102.785 117.151 102.925 116.932 102.997C115.882 103.328 115.513 104.059 113.892 104.059C111.792 104.059 111.792 102.837 109.692 102.837C107.592 102.837 107.592 104.059 105.492 104.059C103.392 104.059 103.392 102.837 101.292 102.837C99.1916 102.837 99.1916 104.059 97.0916 104.059C95.4746 104.059 95.105 103.328 94.0508 102.997C93.8331 102.923 93.644 102.783 93.5105 102.596C93.3771 102.409 93.306 102.185 93.3074 101.955V98.4144C93.3074 98.2335 93.3789 98.0601 93.5064 97.9318C93.6339 97.8035 93.807 97.7309 93.9878 97.7298H116.987C117.078 97.7287 117.168 97.7456 117.252 97.7795C117.336 97.8134 117.412 97.8636 117.477 97.9273C117.541 97.991 117.592 98.0668 117.627 98.1504C117.662 98.2341 117.68 98.3238 117.68 98.4144Z" fill="white"/>
<path d="M120.54 108.221H90.4598C89.8868 108.221 89.4224 108.686 89.4224 109.259V123.425C89.4224 123.998 89.8868 124.463 90.4598 124.463H120.54C121.113 124.463 121.578 123.998 121.578 123.425V109.259C121.578 108.686 121.113 108.221 120.54 108.221Z" fill="#68C8BC"/>
<path opacity="0.2" d="M121.578 118.02H89.4224V120.166H121.578V118.02Z" fill="black"/>
<path opacity="0.2" d="M117.205 105H93.7947V106.445H117.205V105Z" fill="black"/>
<path d="M122.229 108.83V113.694C122.232 114.01 122.134 114.319 121.95 114.576C121.766 114.832 121.504 115.024 121.204 115.122C119.759 115.58 119.251 116.584 117.025 116.584C114.14 116.584 114.14 114.904 111.258 114.904C108.377 114.904 108.377 116.584 105.496 116.584C102.615 116.584 102.615 114.904 99.7336 114.904C96.8524 114.904 96.8524 116.584 93.9712 116.584C91.7452 116.584 91.237 115.58 89.7964 115.122C89.4959 115.024 89.2346 114.832 89.0503 114.576C88.8661 114.319 88.7684 114.01 88.7716 113.694V108.83C88.771 108.707 88.7948 108.585 88.8416 108.471C88.8885 108.357 88.9574 108.253 89.0444 108.165C89.1314 108.078 89.2349 108.009 89.3488 107.961C89.4627 107.914 89.5848 107.89 89.7082 107.89H121.292C121.416 107.89 121.538 107.914 121.652 107.961C121.765 108.009 121.869 108.078 121.956 108.165C122.043 108.253 122.112 108.357 122.159 108.471C122.205 108.585 122.229 108.707 122.229 108.83Z" fill="#C4CAC9"/>
<path opacity="0.6" d="M122.229 108.83V113.694C122.232 114.01 122.134 114.319 121.95 114.576C121.766 114.832 121.504 115.024 121.204 115.122C119.759 115.58 119.251 116.584 117.025 116.584C114.14 116.584 114.14 114.904 111.258 114.904C108.377 114.904 108.377 116.584 105.496 116.584C102.615 116.584 102.615 114.904 99.7336 114.904C96.8524 114.904 96.8524 116.584 93.9712 116.584C91.7452 116.584 91.237 115.58 89.7964 115.122C89.4959 115.024 89.2346 114.832 89.0503 114.576C88.8661 114.319 88.7684 114.01 88.7716 113.694V108.83C88.771 108.707 88.7948 108.585 88.8416 108.471C88.8885 108.357 88.9574 108.253 89.0444 108.165C89.1314 108.078 89.2349 108.009 89.3488 107.961C89.4627 107.914 89.5848 107.89 89.7082 107.89H121.292C121.416 107.89 121.538 107.914 121.652 107.961C121.765 108.009 121.869 108.078 121.956 108.165C122.043 108.253 122.112 108.357 122.159 108.471C122.205 108.585 122.229 108.707 122.229 108.83Z" fill="#F9FFFE"/>
<path d="M98.8809 93.2905H100.217C100.262 93.2905 100.306 93.3087 100.338 93.341C100.371 93.3733 100.389 93.4171 100.389 93.4627V97.7299H98.7087V93.4585C98.7098 93.4136 98.7285 93.3709 98.7606 93.3395C98.7928 93.3081 98.836 93.2905 98.8809 93.2905Z" fill="#C4CAC9"/>
<path d="M99.5823 92.8578C99.1623 92.8956 98.5239 92.5302 98.8305 91.476C99.1119 90.5016 99.4311 90.1614 99.1161 89.5818C100.557 90.72 100.758 92.7612 99.5823 92.8578Z" fill="#C4CAC9"/>
<path d="M110.784 93.2905H112.119C112.142 93.2905 112.164 93.295 112.185 93.3036C112.206 93.3123 112.225 93.325 112.241 93.341C112.257 93.357 112.27 93.3759 112.278 93.3968C112.287 93.4177 112.292 93.4401 112.292 93.4627V97.7299H110.612V93.4585C110.613 93.4136 110.631 93.3709 110.663 93.3395C110.696 93.3081 110.739 93.2905 110.784 93.2905Z" fill="#C4CAC9"/>
<path d="M111.489 92.8578C111.069 92.8956 110.229 92.4378 110.733 91.476C111.065 90.8124 111.64 90.0186 111.33 89.439C112.77 90.594 112.665 92.7612 111.489 92.8578Z" fill="#C4CAC9"/>
<path d="M104.832 91.5012H106.168C106.214 91.5012 106.257 91.5194 106.29 91.5517C106.322 91.584 106.34 91.6278 106.34 91.6734V97.7298H104.66V91.6734C104.66 91.6278 104.678 91.584 104.711 91.5517C104.743 91.5194 104.787 91.5012 104.832 91.5012Z" fill="#C4CAC9"/>
<path d="M105.466 91.0729C105.886 91.1107 106.525 90.7453 106.218 89.6911C105.937 88.7167 105.618 88.3765 105.933 87.7969C104.492 88.9519 104.29 90.9763 105.466 91.0729Z" fill="#C4CAC9"/>
<path d="M132.641 107.52C132.641 107.834 132.547 108.141 132.373 108.402C132.198 108.664 131.95 108.867 131.66 108.987C131.369 109.107 131.05 109.138 130.742 109.077C130.434 109.015 130.151 108.864 129.929 108.641C129.707 108.419 129.556 108.135 129.495 107.827C129.435 107.519 129.467 107.2 129.587 106.91C129.708 106.619 129.912 106.372 130.174 106.198C130.436 106.024 130.743 105.932 131.057 105.932C131.265 105.932 131.472 105.973 131.664 106.053C131.856 106.133 132.031 106.25 132.178 106.398C132.325 106.545 132.442 106.72 132.521 106.913C132.601 107.105 132.641 107.312 132.641 107.52Z" fill="#C4CAC9"/>
<path opacity="0.2" d="M132.641 107.52C132.641 107.834 132.547 108.141 132.373 108.402C132.198 108.664 131.95 108.867 131.66 108.987C131.369 109.107 131.05 109.138 130.742 109.077C130.434 109.015 130.151 108.864 129.929 108.641C129.707 108.419 129.556 108.135 129.495 107.827C129.435 107.519 129.467 107.2 129.587 106.91C129.708 106.619 129.912 106.372 130.174 106.198C130.436 106.024 130.743 105.932 131.057 105.932C131.265 105.932 131.472 105.973 131.664 106.053C131.856 106.133 132.031 106.25 132.178 106.398C132.325 106.545 132.442 106.72 132.521 106.913C132.601 107.105 132.641 107.312 132.641 107.52Z" fill="black"/>
<path d="M130.217 107.52C130.212 107.763 130.136 107.999 129.997 108.199C129.858 108.399 129.664 108.553 129.438 108.643C129.212 108.732 128.964 108.753 128.726 108.703C128.489 108.652 128.271 108.533 128.101 108.359C127.931 108.185 127.815 107.965 127.77 107.727C127.724 107.488 127.75 107.241 127.844 107.017C127.938 106.792 128.097 106.601 128.299 106.466C128.501 106.332 128.739 106.26 128.982 106.26C129.147 106.26 129.309 106.293 129.461 106.356C129.612 106.42 129.75 106.513 129.865 106.631C129.98 106.748 130.07 106.887 130.13 107.04C130.191 107.192 130.221 107.356 130.217 107.52Z" fill="#C4CAC9"/>
<path opacity="0.2" d="M130.217 107.52C130.212 107.763 130.136 107.999 129.997 108.199C129.858 108.399 129.664 108.553 129.438 108.643C129.212 108.732 128.964 108.753 128.726 108.703C128.489 108.652 128.271 108.533 128.101 108.359C127.931 108.185 127.815 107.965 127.77 107.727C127.724 107.488 127.75 107.241 127.844 107.017C127.938 106.792 128.097 106.601 128.299 106.466C128.501 106.332 128.739 106.26 128.982 106.26C129.147 106.26 129.309 106.293 129.461 106.356C129.612 106.42 129.75 106.513 129.865 106.631C129.98 106.748 130.07 106.887 130.13 107.04C130.191 107.192 130.221 107.356 130.217 107.52Z" fill="black"/>
<path d="M134.367 107.52C134.363 107.763 134.287 108 134.149 108.201C134.011 108.401 133.818 108.557 133.592 108.648C133.367 108.739 133.119 108.762 132.881 108.713C132.643 108.665 132.424 108.547 132.252 108.375C132.08 108.203 131.962 107.984 131.914 107.746C131.865 107.508 131.888 107.26 131.979 107.035C132.07 106.809 132.226 106.615 132.426 106.478C132.627 106.34 132.864 106.264 133.107 106.26C133.273 106.257 133.438 106.288 133.592 106.35C133.746 106.413 133.886 106.505 134.004 106.623C134.122 106.74 134.214 106.881 134.277 107.035C134.339 107.189 134.37 107.354 134.367 107.52Z" fill="#C4CAC9"/>
<path opacity="0.2" d="M134.367 107.52C134.363 107.763 134.287 108 134.149 108.201C134.011 108.401 133.818 108.557 133.592 108.648C133.367 108.739 133.119 108.762 132.881 108.713C132.643 108.665 132.424 108.547 132.252 108.375C132.08 108.203 131.962 107.984 131.914 107.746C131.865 107.508 131.888 107.26 131.979 107.035C132.07 106.809 132.226 106.615 132.426 106.478C132.627 106.34 132.864 106.264 133.107 106.26C133.273 106.257 133.438 106.288 133.592 106.35C133.746 106.413 133.886 106.505 134.004 106.623C134.122 106.74 134.214 106.881 134.277 107.035C134.339 107.189 134.37 107.354 134.367 107.52Z" fill="black"/>
<path d="M125.631 108.969H136.483V123.791C136.483 123.968 136.413 124.138 136.288 124.263C136.163 124.388 135.993 124.459 135.816 124.459H126.298C126.121 124.459 125.951 124.388 125.826 124.263C125.701 124.138 125.631 123.968 125.631 123.791V108.969Z" fill="#C4CAC9"/>
<path d="M125.631 108.969H136.483V123.791C136.483 123.968 136.413 124.138 136.288 124.263C136.163 124.388 135.993 124.459 135.816 124.459H126.298C126.121 124.459 125.951 124.388 125.826 124.263C125.701 124.138 125.631 123.968 125.631 123.791V108.969Z" fill="#C4CAC9"/>
<path opacity="0.2" d="M136.483 109.666H125.631V110.023H136.483V109.666Z" fill="black"/>
<path opacity="0.2" d="M131.83 124.459V108.906H130.284V124.459H131.83Z" fill="black"/>
<path d="M136.32 109.855H125.82C125.725 109.855 125.634 109.818 125.567 109.751C125.5 109.684 125.463 109.593 125.463 109.498V108.755C125.463 108.574 125.534 108.401 125.662 108.274C125.79 108.146 125.963 108.074 126.143 108.074H135.996C136.177 108.074 136.35 108.146 136.477 108.274C136.605 108.401 136.677 108.574 136.677 108.755V109.498C136.677 109.593 136.639 109.684 136.572 109.751C136.505 109.818 136.414 109.855 136.32 109.855Z" fill="#C4CAC9"/>
<path opacity="0.2" d="M131.91 109.859V108.079H130.204V109.859H131.91Z" fill="black"/>
</g>
<defs>
<clipPath id="clip0_1822_22340">
<rect width="210" height="210" fill="white" transform="translate(0.5)"/>
</clipPath>
</defs>
</svg>
