<svg width="860" height="631" viewBox="0 0 860 631" fill="none" xmlns="http://www.w3.org/2000/svg">
<g clip-path="url(#clip0_2_41)">
<path d="M382.012 117.212C346.614 117.24 311.462 111.345 278.013 99.7737C233.171 84.2865 196.435 62.9248 168.827 36.2818C116.603 -14.1164 73.7873 -21.7116 47.071 -19.2107C18.1508 -16.5022 1.31704 -1.70918 1.15047 -1.56002L0 -2.84115C0.169936 -2.99367 17.3507 -18.1224 46.7984 -20.9137C64.0671 -22.5495 82.1258 -19.6994 100.474 -12.4398C123.356 -3.38698 146.756 12.5889 170.024 35.0439C197.451 61.5117 233.973 82.7428 278.576 98.1467C360.457 126.425 452.74 119.579 531.764 79.362C557.928 66.0455 583.787 56.9561 608.623 52.3463C639.941 46.5318 669.642 47.8814 696.907 56.3548C756.822 74.9745 797.746 73.987 821.527 69.8818C847.185 65.4518 858.827 56.5859 858.942 56.4969L860 57.8553C859.518 58.2297 847.9 67.075 821.82 71.5777C797.851 75.7165 756.634 76.719 696.395 57.9978C635.402 39.0449 573.627 59.9873 532.546 80.8949C493.488 100.878 450.838 112.897 407.083 116.25C398.696 116.891 390.339 117.212 382.012 117.212Z" fill="#3F3D56"/>
<path d="M378.534 138.568C388.177 138.568 395.995 130.76 395.995 121.127C395.995 111.495 388.177 103.686 378.534 103.686C368.891 103.686 361.074 111.495 361.074 121.127C361.074 130.76 368.891 138.568 378.534 138.568Z" fill="#BD1AC1"/>
<path d="M649.039 68.8647C658.682 68.8647 666.5 61.056 666.5 51.4235C666.5 41.7911 658.682 33.9824 649.039 33.9824C639.396 33.9824 631.579 41.7911 631.579 51.4235C631.579 61.056 639.396 68.8647 649.039 68.8647Z" fill="#BD1AC1"/>
<path d="M86.4927 0.882248C96.1357 0.882248 103.953 -6.92641 103.953 -16.5589C103.953 -26.1913 96.1357 -34 86.4927 -34C76.8497 -34 69.0325 -26.1913 69.0325 -16.5589C69.0325 -6.92641 76.8497 0.882248 86.4927 0.882248Z" fill="#BD1AC1"/>
<path d="M503.745 382.915V551.431H530.27V397.753H636.372V551.431H662.897V214.399H636.372C627.582 214.399 614.09 260.127 614.09 306.076C614.09 340.71 618.14 370.392 623.898 382.915H503.745ZM636.372 382.915H636.114C636.2 382.727 636.286 382.528 636.372 382.332V382.915Z" fill="#3F3D56"/>
<path d="M602.041 130.989C580.268 130.989 562.618 150.556 562.618 174.693V205.359H572.059L577.526 193.997L576.159 205.359H636.847L641.817 195.03L640.574 205.359H647.407V181.28C647.407 153.505 627.096 130.989 602.041 130.989Z" fill="#2F2E41"/>
<path d="M556.869 331.345L532.663 341.621L448.549 409.927C445.456 413.724 443.56 418.352 443.102 423.225C442.497 431.084 417.081 472.188 426.158 477.629C435.235 483.069 467.913 499.39 469.729 488.509C471.544 477.629 481.226 431.084 481.226 431.084L562.315 358.546L556.869 331.345Z" fill="#2F2E41"/>
<path d="M461.862 479.442L451.574 509.666C451.574 509.666 462.467 521.151 457.021 530.823V564.069H448.549L446.128 546.539C446.128 546.539 436.478 563.848 431.605 564.069C421.388 564.533 401.155 568.164 400.55 562.723C399.944 557.283 415.871 551.979 415.871 551.979L432.815 505.435L440.077 477.024L461.862 479.442Z" fill="#2F2E41"/>
<path d="M619.803 323.486C619.803 323.486 625.25 376.681 609.516 386.352C593.782 396.024 524.191 426.852 524.191 426.852C524.191 426.852 553.843 454.658 547.792 461.308C541.74 467.957 514.509 486.091 510.878 482.464C507.247 478.837 466.703 435.315 471.544 421.412C476.385 407.509 543.556 362.173 543.556 362.173L551.422 333.763L553.843 310.792L579.259 294.471L619.803 323.486Z" fill="#2F2E41"/>
<path d="M592.079 199.637C606.012 199.637 617.306 188.355 617.306 174.437C617.306 160.52 606.012 149.238 592.079 149.238C578.146 149.238 566.852 160.52 566.852 174.437C566.852 188.355 578.146 199.637 592.079 199.637Z" fill="#FFB9B9"/>
<path d="M611.634 184.759C611.634 184.759 610.424 207.729 629.183 214.982C647.943 222.236 582.587 269.386 582.587 269.386V216.796C582.587 216.796 591.059 207.729 582.587 193.826L611.634 184.759Z" fill="#FFB9B9"/>
<path d="M651.876 292.658L647.035 316.233L632.511 397.233C632.511 397.233 644.614 431.688 628.275 431.084C611.936 430.479 619.803 393.606 619.803 393.606L628.275 326.509V300.516L651.876 292.658Z" fill="#FFB9B9"/>
<path d="M547.792 281.173L542.345 302.33L517.535 362.173C517.535 362.173 500.591 390.584 514.509 389.979C528.427 389.375 528.427 362.173 528.427 362.173L556.869 313.815V286.613L547.792 281.173Z" fill="#FFB9B9"/>
<path d="M543.555 457.681L563.525 476.42C563.525 476.42 577.443 473.397 582.89 489.718C588.336 506.039 591.967 516.315 591.967 516.315L584.705 520.547L575.628 507.852C575.628 507.852 570.182 530.823 564.735 532.636C559.289 534.45 532.058 546.539 534.478 532.636L547.791 513.293C547.791 513.293 549.607 491.531 544.161 489.718C538.714 487.905 524.191 469.77 524.191 469.77L543.555 457.681Z" fill="#2F2E41"/>
<path d="M620.763 342.225C620.763 342.225 563.88 321.673 560.249 323.486C557.546 324.679 554.667 325.425 551.725 325.696L551.777 317.442C551.777 317.442 570.536 310.792 580.823 315.024C591.111 319.255 622.578 337.994 622.578 337.994L620.763 342.225Z" fill="#3F3D56"/>
<path d="M586.218 257.296C586.218 257.296 602.557 238.557 607.398 227.072C610.461 220.109 616.083 214.587 623.104 211.645C623.104 211.645 659.44 219.818 658.835 234.326C658.23 248.833 635.84 271.199 635.84 271.199C635.84 271.199 638.865 351.595 622.527 350.386C619.003 346.184 616.515 341.215 615.265 335.878C613.45 327.416 557.171 318.348 557.171 318.348C557.171 318.348 552.33 326.811 551.725 323.184C551.12 319.557 556.566 230.699 556.566 230.699L585.424 211.645L586.218 257.296Z" fill="#D0CDE1"/>
<path d="M654.174 228.486L654.579 228.713C655.872 229.438 656.949 230.494 657.698 231.773C658.448 233.051 658.842 234.506 658.842 235.987L658.836 280.847C658.84 282.067 659.111 283.271 659.627 284.375C660.144 285.48 660.896 286.459 661.829 287.245C664.16 289.225 666.322 292.079 661.861 293.565C654.599 295.983 626.158 308.072 625.553 303.841C624.947 299.61 623.737 294.774 625.553 294.774C626.974 294.774 635.442 251.428 642.246 232.894C642.662 231.76 643.319 230.729 644.173 229.873C645.026 229.017 646.056 228.357 647.19 227.938C648.325 227.518 649.537 227.35 650.743 227.445C651.948 227.54 653.119 227.895 654.174 228.486Z" fill="#D0CDE1"/>
<path d="M564.736 228.583L556.264 231.001L546.582 272.71C546.582 272.71 535.084 275.128 538.715 279.359C542.346 283.591 557.474 294.471 557.474 294.471L564.736 228.583Z" fill="#D0CDE1"/>
<path d="M613.248 143.028C611.351 140.483 608.893 138.41 606.063 136.967C603.234 135.525 600.11 134.754 596.934 134.712H596.16C581.237 134.712 569.14 148.201 569.14 164.841L574.14 164.841L574.948 158.701L576.132 164.841H605.789L608.273 159.646L607.652 164.841H613.486C616.209 178.347 612.297 191.853 601.751 205.359H611.69L616.659 194.97L615.417 205.359H634.362L638.089 181.464C638.089 163.568 627.68 148.393 613.248 143.028Z" fill="#2F2E41"/>
<path d="M106.423 421.851C112.789 408.005 117.266 375.186 117.266 336.892C117.266 286.088 102.349 235.528 92.6306 235.528H63.3025V608.174H92.6306V438.257H209.943V608.174H239.271V421.851H106.423ZM92.6306 421.206C92.7255 421.423 92.8201 421.643 92.9159 421.851H92.6306V421.206Z" fill="#3F3D56"/>
<path d="M228.665 353.868C228.665 353.868 263.986 368.498 252.787 377.103C241.588 385.708 218.328 366.776 219.189 364.195C220.051 361.613 215.743 355.59 215.743 355.59L228.665 353.868Z" fill="#9F616A"/>
<path d="M197.652 238.556L208.851 248.883L211.436 279.002L220.051 310.842C220.051 310.842 234.696 340.96 232.111 346.984C229.527 353.008 234.696 354.729 234.696 354.729L214.882 362.474C214.882 362.474 193.345 338.379 193.345 333.216C193.345 328.052 197.652 238.556 197.652 238.556Z" fill="#575A88"/>
<path opacity="0.1" d="M197.652 238.556L208.851 248.883L211.436 279.002L220.051 310.842C220.051 310.842 234.696 340.96 232.111 346.984C229.527 353.008 234.696 354.729 234.696 354.729L214.882 362.474C214.882 362.474 193.345 338.379 193.345 333.216C193.345 328.052 197.652 238.556 197.652 238.556Z" fill="black"/>
<path d="M303.614 548.35C303.614 548.35 299.307 568.142 298.445 569.863C297.584 571.584 314.813 577.608 314.813 577.608L335.489 562.979C335.489 562.979 326.874 544.047 326.874 540.605L303.614 548.35Z" fill="#575A88"/>
<path d="M190.76 355.589L196.791 362.474C196.791 362.474 321.705 377.963 324.29 402.058C326.874 426.154 344.965 539.744 334.627 543.187C324.29 546.629 297.584 559.537 297.584 552.652C297.584 545.768 280.354 451.109 283.8 433.898C283.8 433.898 134.764 414.967 131.318 393.453C127.872 371.94 134.764 362.474 134.764 362.474L190.76 355.589Z" fill="#2F2E41"/>
<path opacity="0.1" d="M190.76 355.589L196.791 362.474C196.791 362.474 321.705 377.963 324.29 402.058C326.874 426.154 344.965 539.744 334.627 543.187C324.29 546.629 297.584 559.537 297.584 552.652C297.584 545.768 280.354 451.109 283.8 433.898C283.8 433.898 134.764 414.967 131.318 393.453C127.872 371.94 134.764 362.474 134.764 362.474L190.76 355.589Z" fill="black"/>
<path d="M301.891 568.142C301.891 568.142 298.445 560.397 296.722 562.979C294.999 565.561 288.969 595.679 294.999 595.679C301.03 595.679 356.164 609.448 363.918 607.727C371.671 606.006 386.316 608.587 384.593 599.982C382.87 591.377 374.256 590.516 374.256 590.516C374.256 590.516 342.381 571.584 340.658 562.118C338.935 552.652 329.459 557.816 329.459 557.816V563.839C329.459 563.839 311.367 577.608 301.891 568.142Z" fill="#2F2E41"/>
<path d="M138.21 173.156C138.21 173.156 144.24 202.414 131.318 204.996C118.396 207.577 147.686 224.788 147.686 224.788L166.639 235.114L180.422 221.346C180.422 221.346 167.931 195.96 177.407 177.028C186.884 158.096 138.21 173.156 138.21 173.156Z" fill="#9F616A"/>
<path d="M180.422 221.346L166.639 235.114L147.686 224.788C147.686 224.788 118.396 207.577 131.318 204.996C139.631 203.335 140.097 190.633 139.382 181.787C139.148 178.891 138.757 176.009 138.21 173.156C138.21 173.156 186.884 158.096 177.407 177.028C175.967 179.952 174.969 183.072 174.444 186.287C171.541 203.3 180.422 221.346 180.422 221.346Z" fill="#9F616A"/>
<path d="M228.665 573.305V593.097H261.402L263.986 585.353L260.54 564.7L228.665 573.305Z" fill="#575A88"/>
<path d="M93.4131 372.8C93.4131 372.8 93.4131 423.572 114.089 425.293C134.764 427.014 208.851 436.48 208.851 436.48C208.851 436.48 213.159 520.813 220.912 548.35C228.665 575.887 221.774 577.608 228.665 579.329C235.557 581.05 264.848 575.026 263.986 569.003C263.125 562.979 259.679 410.664 259.679 410.664C259.679 410.664 267.432 377.963 164.054 362.474L93.4131 372.8Z" fill="#2F2E41"/>
<path d="M231.25 587.074C231.25 587.074 226.081 575.887 225.219 579.329C224.358 582.771 214.02 612.89 224.358 615.472C234.696 618.053 267.432 631.822 288.969 630.961C310.506 630.101 313.09 629.24 313.09 629.24C313.09 629.24 319.121 620.635 311.367 615.472C303.614 610.308 271.739 580.19 270.016 576.748C268.293 573.305 255.371 570.724 255.371 576.748C255.371 582.771 237.28 594.819 231.25 587.074Z" fill="#2F2E41"/>
<path opacity="0.1" d="M177.407 177.028C175.967 179.952 174.969 183.072 174.444 186.287C170.154 188.878 167.285 188.215 161.901 188.215C153.915 188.215 150.693 178.018 145.533 172.725C145.128 167.812 138.21 173.156 138.21 173.156C138.21 173.156 186.884 158.096 177.407 177.028Z" fill="black"/>
<path d="M159.747 187.785C175.448 187.785 188.176 175.071 188.176 159.387C188.176 143.703 175.448 130.989 159.747 130.989C144.046 130.989 131.318 143.703 131.318 159.387C131.318 175.071 144.046 187.785 159.747 187.785Z" fill="#9F616A"/>
<path d="M208.851 248.883C208.851 248.883 204.544 279.862 201.96 291.049C199.375 302.236 195.929 353.868 194.206 360.753C192.483 367.637 182.146 369.358 161.47 366.777C160.172 366.613 158.867 366.516 157.559 366.484C144.826 366.079 130.259 370.838 116.776 374.573C109.023 376.724 101.623 378.531 95.1361 378.824C85.3152 379.272 82.4379 368.394 82.7739 356.622C83.0926 345.667 86.2026 333.921 89.1058 329.773C94.335 322.304 89.1919 255.242 91.1217 233.126V233.118C91.4145 229.745 91.8711 227.421 92.5517 226.509C97.7206 219.625 131.318 202.414 135.083 203.111C138.839 203.808 170.946 223.927 170.946 223.927C178.7 223.927 178.45 215.528 178.45 215.528C178.45 215.528 183.869 225.648 194.206 228.23C204.544 230.812 208.851 248.883 208.851 248.883Z" fill="#575A88"/>
<path d="M151.264 360.445C151.264 360.445 206.757 362.21 197.036 368.796C187.314 375.382 144.24 381.406 143.379 372.8C142.517 364.195 151.264 360.445 151.264 360.445Z" fill="#9F616A"/>
<path opacity="0.1" d="M157.559 366.484C157.74 369.788 148.841 377.232 145.963 382.266C144.369 385.054 132.033 381.38 116.776 374.573C105.069 369.324 93.7109 363.328 82.7737 356.622C83.0924 345.668 86.2024 333.921 89.1056 329.773C94.3348 322.304 89.1917 255.242 91.1215 233.126V233.118C91.5816 232.885 92.0598 232.689 92.5515 232.533H102.889C138.21 248.883 97.7204 319.447 97.7204 319.447C97.7204 319.447 151.132 363.334 156.301 365.055C156.64 365.12 156.948 365.295 157.176 365.554C157.403 365.813 157.538 366.14 157.559 366.484Z" fill="black"/>
<path d="M102.889 227.369H92.5516C92.5516 227.369 83.0753 229.951 75.322 247.162C67.5687 264.373 39.1398 317.726 64.1227 338.379C89.1057 359.032 142.517 383.127 145.963 377.103C149.409 371.079 161.47 361.613 156.301 359.892C151.132 358.171 97.7205 314.284 97.7205 314.284C97.7205 314.284 138.21 243.72 102.889 227.369Z" fill="#575A88"/>
<path d="M155.373 146.173C155.373 146.173 156.621 128.921 172.012 135.956C187.403 142.99 186.398 123.601 181.747 120.175C177.096 116.749 177.244 115.901 160.233 118.193C143.222 120.486 110.197 124.369 120.875 158.536C131.554 192.702 141.225 183.912 141.225 183.912C141.225 183.912 132.737 153.167 141.337 159.025L149.938 164.882L154.477 163.922L155.373 146.173Z" fill="#2F2E41"/>
<path d="M790.438 394.587C790.438 379.055 674.888 366.463 532.35 366.463C389.813 366.463 274.263 379.055 274.263 394.587C274.263 400.607 291.629 406.185 321.188 410.759V603.175H335.265V412.743C382.607 418.84 453.324 422.711 532.35 422.711C612.03 422.711 683.266 418.776 730.609 412.592V603.175H744.686V410.575C773.527 406.035 790.438 400.527 790.438 394.587Z" fill="#3F3D56"/>
<path d="M564.684 395.174C593.706 395.174 617.234 389.395 617.234 382.266C617.234 375.137 593.706 369.358 564.684 369.358C535.661 369.358 512.133 375.137 512.133 382.266C512.133 389.395 535.661 395.174 564.684 395.174Z" fill="#F2F2F2"/>
<path d="M564.684 392.847C588.473 392.847 607.758 388.11 607.758 382.266C607.758 376.423 588.473 371.686 564.684 371.686C540.895 371.686 521.61 376.423 521.61 382.266C521.61 388.11 540.895 392.847 564.684 392.847Z" fill="#D0CDE1"/>
<path d="M369.128 405.501C398.151 405.501 421.678 399.721 421.678 392.593C421.678 385.464 398.151 379.684 369.128 379.684C340.105 379.684 316.578 385.464 316.578 392.593C316.578 399.721 340.105 405.501 369.128 405.501Z" fill="#F2F2F2"/>
<path d="M369.128 403.173C392.917 403.173 412.202 398.436 412.202 392.593C412.202 386.749 392.917 382.012 369.128 382.012C345.339 382.012 326.054 386.749 326.054 392.593C326.054 398.436 345.339 403.173 369.128 403.173Z" fill="#D0CDE1"/>
<path d="M563.461 381.355C577.297 381.355 588.513 379.586 588.513 377.403C588.513 375.221 577.297 373.452 563.461 373.452C549.625 373.452 538.409 375.221 538.409 377.403C538.409 379.586 549.625 381.355 563.461 381.355Z" fill="#9F616A"/>
<path d="M550.11 375.922C554.48 375.922 558.022 374.005 558.022 371.641C558.022 369.277 554.48 367.361 550.11 367.361C545.741 367.361 542.199 369.277 542.199 371.641C542.199 374.005 545.741 375.922 550.11 375.922Z" fill="#BD1AC1"/>
<path d="M547.144 375.922C551.513 375.922 555.055 374.005 555.055 371.641C555.055 369.277 551.513 367.361 547.144 367.361C542.774 367.361 539.232 369.277 539.232 371.641C539.232 374.005 542.774 375.922 547.144 375.922Z" fill="#BD1AC1"/>
<path d="M581.755 376.91C586.125 376.91 589.667 374.993 589.667 372.629C589.667 370.265 586.125 368.348 581.755 368.348C577.386 368.348 573.844 370.265 573.844 372.629C573.844 374.993 577.386 376.91 581.755 376.91Z" fill="#BD1AC1"/>
<path d="M563.626 375.922C567.995 375.922 571.537 374.005 571.537 371.641C571.537 369.277 567.995 367.361 563.626 367.361C559.256 367.361 555.714 369.277 555.714 371.641C555.714 374.005 559.256 375.922 563.626 375.922Z" fill="#BD1AC1"/>
<path d="M577.141 375.922C581.51 375.922 585.052 374.005 585.052 371.641C585.052 369.277 581.51 367.361 577.141 367.361C572.771 367.361 569.229 369.277 569.229 371.641C569.229 374.005 572.771 375.922 577.141 375.922Z" fill="#BD1AC1"/>
<path d="M587.359 369.007C573.061 373.854 557.019 373.854 539.232 369.007V368.34C539.229 363.301 541.166 358.454 544.64 354.801C548.115 351.149 552.862 348.97 557.9 348.716C562.14 348.503 566.389 348.508 570.628 348.732C575.16 348.996 579.42 350.983 582.531 354.286C585.643 357.589 587.37 361.956 587.359 366.491V369.007Z" fill="#3F3D56"/>
<path d="M580.34 387.152C569.773 388.218 559.126 388.218 548.56 387.152C546.053 386.907 543.727 385.739 542.034 383.877C540.341 382.014 539.401 379.59 539.397 377.074H589.502C589.498 379.59 588.558 382.014 586.865 383.877C585.172 385.739 582.846 386.907 580.34 387.152Z" fill="#3F3D56"/>
<path d="M556.703 354.848C555.554 355.326 554.322 355.573 553.077 355.573C551.832 355.573 550.6 355.326 549.451 354.848C550.6 354.37 551.832 354.124 553.077 354.124C554.322 354.124 555.554 354.37 556.703 354.848Z" fill="#D0CDE1"/>
<path d="M563.955 357.812C562.806 358.29 561.574 358.536 560.329 358.536C559.084 358.536 557.852 358.29 556.703 357.812C557.852 357.334 559.084 357.087 560.329 357.087C561.574 357.087 562.806 357.334 563.955 357.812Z" fill="#D0CDE1"/>
<path d="M564.614 352.543C563.465 353.022 562.233 353.268 560.988 353.268C559.744 353.268 558.511 353.022 557.362 352.543C558.511 352.065 559.744 351.819 560.988 351.819C562.233 351.819 563.465 352.065 564.614 352.543Z" fill="#D0CDE1"/>
<path d="M578.129 352.543C576.98 353.022 575.748 353.268 574.503 353.268C573.259 353.268 572.026 353.022 570.877 352.543C572.026 352.065 573.259 351.819 574.503 351.819C575.748 351.819 576.98 352.065 578.129 352.543Z" fill="#D0CDE1"/>
<path d="M574.503 355.507C573.354 355.985 572.122 356.231 570.877 356.231C569.633 356.231 568.4 355.985 567.251 355.507C568.4 355.029 569.633 354.782 570.877 354.782C572.122 354.782 573.354 355.029 574.503 355.507Z" fill="#D0CDE1"/>
<path d="M368.766 391.681C382.602 391.681 393.818 389.912 393.818 387.73C393.818 385.548 382.602 383.779 368.766 383.779C354.93 383.779 343.714 385.548 343.714 387.73C343.714 389.912 354.93 391.681 368.766 391.681Z" fill="#9F616A"/>
<path d="M355.416 386.248C359.785 386.248 363.327 384.332 363.327 381.968C363.327 379.604 359.785 377.687 355.416 377.687C351.047 377.687 347.505 379.604 347.505 381.968C347.505 384.332 351.047 386.248 355.416 386.248Z" fill="#BD1AC1"/>
<path d="M352.45 386.248C356.819 386.248 360.361 384.332 360.361 381.968C360.361 379.604 356.819 377.687 352.45 377.687C348.08 377.687 344.538 379.604 344.538 381.968C344.538 384.332 348.08 386.248 352.45 386.248Z" fill="#BD1AC1"/>
<path d="M387.061 387.236C391.43 387.236 394.972 385.32 394.972 382.955C394.972 380.591 391.43 378.675 387.061 378.675C382.692 378.675 379.15 380.591 379.15 382.955C379.15 385.32 382.692 387.236 387.061 387.236Z" fill="#BD1AC1"/>
<path d="M368.931 386.248C373.3 386.248 376.842 384.332 376.842 381.968C376.842 379.604 373.3 377.687 368.931 377.687C364.562 377.687 361.02 379.604 361.02 381.968C361.02 384.332 364.562 386.248 368.931 386.248Z" fill="#BD1AC1"/>
<path d="M382.446 386.248C386.815 386.248 390.357 384.332 390.357 381.968C390.357 379.604 386.815 377.687 382.446 377.687C378.077 377.687 374.535 379.604 374.535 381.968C374.535 384.332 378.077 386.248 382.446 386.248Z" fill="#BD1AC1"/>
<path d="M392.665 379.333C378.367 384.18 362.325 384.18 344.538 379.333V378.666C344.535 373.628 346.471 368.781 349.946 365.128C353.421 361.475 358.168 359.296 363.206 359.042C367.446 358.829 371.694 358.835 375.934 359.059C380.466 359.322 384.725 361.31 387.837 364.612C390.948 367.915 392.676 372.282 392.665 376.817V379.333Z" fill="#3F3D56"/>
<path d="M385.645 397.479C375.079 398.545 364.432 398.545 353.865 397.479C351.359 397.233 349.033 396.066 347.34 394.203C345.647 392.341 344.707 389.916 344.703 387.401H394.807C394.804 389.916 393.864 392.341 392.171 394.203C390.477 396.066 388.152 397.233 385.645 397.479Z" fill="#3F3D56"/>
<path d="M362.009 365.175C360.86 365.653 359.627 365.899 358.383 365.899C357.138 365.899 355.906 365.653 354.757 365.175C355.906 364.697 357.138 364.45 358.383 364.45C359.627 364.45 360.86 364.697 362.009 365.175Z" fill="#D0CDE1"/>
<path d="M369.261 368.138C368.112 368.616 366.879 368.863 365.635 368.863C364.39 368.863 363.158 368.616 362.009 368.138C363.158 367.66 364.39 367.414 365.635 367.414C366.879 367.414 368.112 367.66 369.261 368.138Z" fill="#D0CDE1"/>
<path d="M369.92 362.87C368.771 363.348 367.539 363.594 366.294 363.594C365.049 363.594 363.817 363.348 362.668 362.87C363.817 362.392 365.049 362.145 366.294 362.145C367.539 362.145 368.771 362.392 369.92 362.87Z" fill="#D0CDE1"/>
<path d="M383.435 362.87C382.286 363.348 381.054 363.594 379.809 363.594C378.564 363.594 377.332 363.348 376.183 362.87C377.332 362.392 378.564 362.145 379.809 362.145C381.054 362.145 382.286 362.392 383.435 362.87Z" fill="#D0CDE1"/>
<path d="M379.809 365.833C378.66 366.311 377.428 366.558 376.183 366.558C374.938 366.558 373.706 366.311 372.557 365.833C373.706 365.355 374.938 365.109 376.183 365.109C377.428 365.109 378.66 365.355 379.809 365.833Z" fill="#D0CDE1"/>
<path d="M609.892 378.769L610.013 381.434L610.167 384.891C610.167 384.891 594.271 385.789 591.069 389.169C590.995 389.241 590.927 389.32 590.865 389.403L584.498 388.011L584.482 384.878C584.482 384.878 584.57 384.829 584.741 384.737C584.78 384.717 584.828 384.691 584.877 384.665C592.668 380.854 601.217 378.839 609.892 378.769Z" fill="#BD1AC1"/>
<path opacity="0.1" d="M609.892 378.769L610.013 381.434C602.964 381.652 589.624 385.849 589.624 385.849L584.741 384.737C592.566 380.876 601.165 378.836 609.892 378.769Z" fill="black"/>
<path opacity="0.1" d="M584.877 384.665L589.624 385.849L591.069 389.169C590.995 389.241 590.927 389.32 590.865 389.403L584.498 388.011L584.482 384.878C584.482 384.878 584.57 384.829 584.741 384.737C584.78 384.717 584.828 384.691 584.877 384.665Z" fill="white"/>
<path d="M417.782 389.956L417.903 392.621L418.057 396.078C418.057 396.078 402.161 396.976 398.959 400.356C398.885 400.428 398.817 400.507 398.755 400.59L392.388 399.198L392.372 396.065C392.372 396.065 392.46 396.016 392.631 395.924C392.67 395.904 392.719 395.878 392.767 395.852C400.559 392.041 409.107 390.026 417.782 389.956Z" fill="#BD1AC1"/>
<path opacity="0.1" d="M417.782 389.956L417.903 392.621C410.854 392.839 397.514 397.036 397.514 397.036L392.631 395.924C400.456 392.063 409.054 390.023 417.782 389.956Z" fill="black"/>
<path opacity="0.1" d="M392.767 395.852L397.514 397.036L398.959 400.356C398.885 400.428 398.817 400.507 398.755 400.59L392.388 399.198L392.372 396.065C392.372 396.065 392.46 396.016 392.631 395.924C392.67 395.904 392.718 395.878 392.767 395.852Z" fill="white"/>
<path d="M705.626 298.928C704.27 297.574 702.68 296.477 700.933 295.689V262.252C700.933 261.86 700.778 261.484 700.5 261.206C700.222 260.929 699.846 260.773 699.454 260.773H691.167C690.774 260.773 690.398 260.929 690.12 261.206C689.843 261.484 689.687 261.86 689.687 262.252V295.048C686.691 296.04 684.085 297.95 682.237 300.505C680.389 303.061 679.395 306.133 679.394 309.286V381.013C679.394 381.877 679.564 382.731 679.894 383.529C680.225 384.326 680.71 385.051 681.321 385.661C681.932 386.272 682.657 386.756 683.456 387.086C684.254 387.416 685.11 387.586 685.974 387.586H703.724C705.461 387.586 707.127 386.897 708.355 385.67C709.584 384.443 710.274 382.779 710.274 381.044V310.131C710.276 308.05 709.867 305.989 709.069 304.066C708.272 302.144 707.102 300.397 705.626 298.928Z" fill="#3F3D56"/>
<path d="M710.274 319.8H679.394V360.548H710.274V319.8Z" fill="#BD1AC1"/>
<path d="M701.601 263.058H700.934V262.252C700.934 261.86 700.778 261.484 700.5 261.206C700.223 260.929 699.846 260.773 699.454 260.773H691.167C690.775 260.773 690.398 260.929 690.121 261.206C689.843 261.484 689.687 261.86 689.687 262.252V263.058H689.02V266.486H689.687V284.003H700.934V266.486H701.601V263.058Z" fill="#BD1AC1"/>
<path d="M458.372 327.95C457.555 326.208 456.91 324.976 456.684 324.552C442.823 327.969 433.574 325.081 432.116 324.57C431.403 325.916 426.95 334.516 425.151 342.761C423.525 350.198 424.469 355.184 427.955 357.58L428.059 357.653L428.081 357.668C431.93 360.201 435.602 362.445 438.993 364.336C439.45 364.59 439.881 364.826 440.285 365.044L440.329 365.068L440.359 365.106C440.825 365.692 441.258 366.303 441.657 366.936C442.407 367.982 442.861 369.211 442.974 370.492V407.43L442.74 407.435C433.899 407.615 428.426 409.112 428.426 410.396C428.426 411.805 434.988 413.374 444.405 413.374C453.822 413.374 460.384 411.805 460.384 410.396C460.384 409.132 455.004 407.643 446.312 407.442L446.078 407.437L446.296 373.269C446.301 370.955 446.84 368.674 447.87 366.602C448.045 366.254 448.234 365.915 448.43 365.596C448.588 365.339 448.755 365.089 448.927 364.852L448.958 364.809L449.006 364.783C449.441 364.545 449.903 364.288 450.393 364.011L450.45 363.979C453.66 362.169 457.118 360.046 460.73 357.667C463.954 355.544 465.077 351.252 464.067 344.911C463.104 338.865 460.439 332.35 458.372 327.95Z" fill="#D0CDE1"/>
<path d="M459.2 356.893C455.413 359.386 452.287 361.256 449.896 362.603H449.894C446.406 362.366 442.903 362.464 439.434 362.897C436.983 361.53 433.677 359.571 429.609 356.893C429.571 356.867 429.532 356.842 429.494 356.814V356.812C425.762 354.248 425.67 348.818 426.884 343.266C429.972 342.923 434.895 343.073 441.51 345.434C449.343 348.229 457.543 346.648 462.294 345.211C463.075 350.11 462.599 354.655 459.2 356.893Z" fill="#BD1AC1"/>
<path d="M436.685 341.257C437.278 341.257 437.758 340.778 437.758 340.186C437.758 339.595 437.278 339.115 436.685 339.115C436.093 339.115 435.613 339.595 435.613 340.186C435.613 340.778 436.093 341.257 436.685 341.257Z" fill="#BD1AC1"/>
<path d="M433.683 351.11C434.276 351.11 434.756 350.63 434.756 350.039C434.756 349.448 434.276 348.968 433.683 348.968C433.091 348.968 432.611 349.448 432.611 350.039C432.611 350.63 433.091 351.11 433.683 351.11Z" fill="white"/>
<path d="M439.259 343.399C439.614 343.399 439.902 343.111 439.902 342.756C439.902 342.402 439.614 342.114 439.259 342.114C438.903 342.114 438.615 342.402 438.615 342.756C438.615 343.111 438.903 343.399 439.259 343.399Z" fill="#BD1AC1"/>
<path d="M441.832 355.608C442.187 355.608 442.475 355.32 442.475 354.965C442.475 354.61 442.187 354.323 441.832 354.323C441.476 354.323 441.188 354.61 441.188 354.965C441.188 355.32 441.476 355.608 441.832 355.608Z" fill="white"/>
<path d="M437.329 356.251C437.684 356.251 437.972 355.963 437.972 355.608C437.972 355.253 437.684 354.965 437.329 354.965C436.974 354.965 436.686 355.253 436.686 355.608C436.686 355.963 436.974 356.251 437.329 356.251Z" fill="white"/>
<path d="M450.409 334.831C450.764 334.831 451.052 334.544 451.052 334.189C451.052 333.834 450.764 333.546 450.409 333.546C450.054 333.546 449.766 333.834 449.766 334.189C449.766 334.544 450.054 334.831 450.409 334.831Z" fill="#BD1AC1"/>
<path d="M508.664 293.128C507.847 291.386 507.202 290.154 506.976 289.729C493.115 293.146 483.866 290.259 482.408 289.748C481.695 291.094 477.242 299.693 475.443 307.938C473.817 315.376 474.761 320.361 478.247 322.757L478.351 322.831L478.373 322.846C482.222 325.379 485.894 327.623 489.285 329.514C489.742 329.768 490.173 330.004 490.577 330.222L490.62 330.245L490.651 330.284C491.117 330.87 491.55 331.481 491.949 332.114C492.699 333.16 493.153 334.388 493.266 335.67V372.608L493.032 372.613C484.191 372.793 478.718 374.29 478.718 375.574C478.718 376.982 485.28 378.552 494.697 378.552C504.114 378.552 510.676 376.982 510.676 375.574C510.676 374.309 505.296 372.82 496.604 372.62L496.37 372.614L496.588 338.446C496.593 336.133 497.132 333.852 498.162 331.78C498.337 331.432 498.526 331.093 498.722 330.774C498.88 330.517 499.047 330.266 499.219 330.03L499.25 329.986L499.298 329.96C499.733 329.723 500.195 329.466 500.685 329.188L500.742 329.157C503.952 327.346 507.41 325.223 511.022 322.845C514.246 320.722 515.369 316.429 514.359 310.088C513.396 304.042 510.731 297.528 508.664 293.128Z" fill="#D0CDE1"/>
<path d="M509.492 322.071C505.705 324.564 502.579 326.434 500.188 327.781H500.186C496.698 327.543 493.195 327.642 489.726 328.075C487.275 326.708 483.969 324.748 479.901 322.071C479.863 322.045 479.824 322.019 479.786 321.992V321.99C476.054 319.426 475.962 313.996 477.176 308.444C480.264 308.101 485.187 308.251 491.802 310.612C499.635 313.407 507.835 311.826 512.586 310.389C513.367 315.287 512.891 319.833 509.492 322.071Z" fill="#BD1AC1"/>
<path d="M486.977 306.435C487.57 306.435 488.05 305.955 488.05 305.364C488.05 304.772 487.57 304.293 486.977 304.293C486.385 304.293 485.905 304.772 485.905 305.364C485.905 305.955 486.385 306.435 486.977 306.435Z" fill="#BD1AC1"/>
<path d="M483.975 316.288C484.568 316.288 485.048 315.808 485.048 315.217C485.048 314.625 484.568 314.146 483.975 314.146C483.383 314.146 482.903 314.625 482.903 315.217C482.903 315.808 483.383 316.288 483.975 316.288Z" fill="white"/>
<path d="M489.551 308.577C489.906 308.577 490.194 308.289 490.194 307.934C490.194 307.579 489.906 307.292 489.551 307.292C489.195 307.292 488.907 307.579 488.907 307.934C488.907 308.289 489.195 308.577 489.551 308.577Z" fill="#BD1AC1"/>
<path d="M492.124 320.786C492.479 320.786 492.767 320.498 492.767 320.143C492.767 319.788 492.479 319.501 492.124 319.501C491.769 319.501 491.48 319.788 491.48 320.143C491.48 320.498 491.769 320.786 492.124 320.786Z" fill="white"/>
<path d="M487.62 321.428C487.976 321.428 488.264 321.141 488.264 320.786C488.264 320.431 487.976 320.143 487.62 320.143C487.265 320.143 486.977 320.431 486.977 320.786C486.977 321.141 487.265 321.428 487.62 321.428Z" fill="white"/>
<path d="M500.7 300.009C501.056 300.009 501.344 299.721 501.344 299.367C501.344 299.012 501.056 298.724 500.7 298.724C500.345 298.724 500.057 299.012 500.057 299.367C500.057 299.721 500.345 300.009 500.7 300.009Z" fill="#BD1AC1"/>
</g>
<defs>
<clipPath id="clip0_2_41">
<rect width="860" height="665" fill="white" transform="translate(0 -34)"/>
</clipPath>
</defs>
</svg>
