<svg width="860" height="563" viewBox="0 0 860 563" fill="none" xmlns="http://www.w3.org/2000/svg">
<g clip-path="url(#clip0_7_203)">
<path d="M332.047 605.691L309.652 622.079L327.45 598.342C313.427 578.13 290.494 560.662 290.494 560.662C290.494 560.662 242.915 596.895 242.915 625.375C242.915 653.856 264.216 663.801 290.494 663.801C316.771 663.801 338.073 653.856 338.073 625.375C338.073 619.036 335.712 612.313 332.047 605.691Z" fill="#F2F2F2"/>
<path d="M303.892 622.966V624.37C303.787 640.688 300.325 653.42 293.531 662.386C293.435 662.518 293.33 662.643 293.233 662.775L292.473 662.406L291.747 662.045C299.284 652.364 301.951 638.68 302.047 624.446C302.056 623.988 302.065 623.522 302.056 623.056C302.03 617.031 301.566 610.936 300.823 605.014C300.771 604.556 300.709 604.09 300.648 603.624C299.616 595.813 298.13 588.349 296.609 581.864C296.504 581.406 296.39 580.947 296.276 580.495C293.644 569.528 290.96 561.585 290.348 559.826C290.278 559.611 290.234 559.493 290.226 559.465L291.056 559.277L291.065 559.27L291.904 559.083C291.913 559.111 292.062 559.507 292.307 560.243C293.242 562.996 295.673 570.467 298.06 580.322C298.165 580.766 298.279 581.225 298.384 581.684C299.625 586.945 300.841 592.824 301.802 598.996C302.047 600.546 302.266 602.075 302.458 603.583C302.528 604.048 302.589 604.514 302.642 604.973C303.446 611.374 303.863 617.371 303.892 622.966Z" fill="white"/>
<path d="M858.755 35.6123H1.24467C0.915332 35.6114 0.599895 35.5068 0.36742 35.3214C0.134944 35.136 0.00439453 34.8849 0.00439453 34.6231C0.00439453 34.3613 0.134944 34.1102 0.36742 33.9248C0.599895 33.7394 0.915332 33.6348 1.24467 33.6339H858.755C859.085 33.6348 859.4 33.7394 859.633 33.9248C859.865 34.1102 859.996 34.3613 859.996 34.6231C859.996 34.8849 859.865 35.136 859.633 35.3214C859.4 35.5068 859.085 35.6114 858.755 35.6123Z" fill="#CACACA"/>
<path d="M29.2572 21.7631C36.8181 21.7631 42.9475 16.8913 42.9475 10.8815C42.9475 4.87183 36.8181 0 29.2572 0C21.6962 0 15.5669 4.87183 15.5669 10.8815C15.5669 16.8913 21.6962 21.7631 29.2572 21.7631Z" fill="#3F3D56"/>
<path d="M76.5511 21.7631C84.1121 21.7631 90.2414 16.8913 90.2414 10.8815C90.2414 4.87183 84.1121 0 76.5511 0C68.9902 0 62.8608 4.87183 62.8608 10.8815C62.8608 16.8913 68.9902 21.7631 76.5511 21.7631Z" fill="#3F3D56"/>
<path d="M123.845 21.7631C131.406 21.7631 137.535 16.8913 137.535 10.8815C137.535 4.87183 131.406 0 123.845 0C116.284 0 110.155 4.87183 110.155 10.8815C110.155 16.8913 116.284 21.7631 123.845 21.7631Z" fill="#3F3D56"/>
<path d="M830.419 6.65587H796.816C796.157 6.65406 795.526 6.44482 795.061 6.07399C794.597 5.70315 794.335 5.20095 794.335 4.67741C794.335 4.15387 794.597 3.65167 795.061 3.28084C795.526 2.91 796.157 2.70076 796.816 2.69896H830.419C830.747 2.69806 831.072 2.74856 831.375 2.84759C831.678 2.94661 831.953 3.0922 832.185 3.27601C832.417 3.45982 832.601 3.67822 832.727 3.9187C832.853 4.15919 832.917 4.41702 832.917 4.67741C832.917 4.9378 832.853 5.19564 832.727 5.43612C832.601 5.67661 832.417 5.89501 832.185 6.07881C831.953 6.26262 831.678 6.40821 831.375 6.50724C831.072 6.60626 830.747 6.65677 830.419 6.65587Z" fill="#3F3D56"/>
<path d="M830.419 14.0751H796.816C796.157 14.0733 795.526 13.864 795.061 13.4932C794.597 13.1224 794.335 12.6202 794.335 12.0966C794.335 11.5731 794.597 11.0709 795.061 10.7001C795.526 10.3292 796.157 10.12 796.816 10.1182H830.419C830.747 10.1173 831.072 10.1678 831.375 10.2668C831.678 10.3658 831.953 10.5114 832.185 10.6952C832.417 10.879 832.601 11.0974 832.727 11.3379C832.853 11.5784 832.917 11.8362 832.917 12.0966C832.917 12.357 832.853 12.6149 832.727 12.8553C832.601 13.0958 832.417 13.3142 832.185 13.498C831.953 13.6818 831.678 13.8274 831.375 13.9265C831.072 14.0255 830.747 14.076 830.419 14.0751Z" fill="#3F3D56"/>
<path d="M830.419 21.4944H796.816C796.157 21.4925 795.526 21.2833 795.061 20.9125C794.597 20.5416 794.335 20.0394 794.335 19.5159C794.335 18.9923 794.597 18.4902 795.061 18.1193C795.526 17.7485 796.157 17.5392 796.816 17.5374H830.419C830.747 17.5365 831.072 17.5871 831.375 17.6861C831.678 17.7851 831.953 17.9307 832.185 18.1145C832.417 18.2983 832.601 18.5167 832.727 18.7572C832.853 18.9977 832.917 19.2555 832.917 19.5159C832.917 19.7763 832.853 20.0341 832.727 20.2746C832.601 20.5151 832.417 20.7335 832.185 20.9173C831.953 21.1011 831.678 21.2467 831.375 21.3457C831.072 21.4447 830.747 21.4953 830.419 21.4944Z" fill="#3F3D56"/>
<path d="M811.668 80.3489H25.8333V411.276H811.668V80.3489Z" fill="#F0F0F0"/>
<path d="M811.668 142.293V139.048H658.697V80.3489H654.614V139.048H501.642V80.3489H497.559V139.048H344.589V80.3489H340.506V139.048H187.534V80.3489H183.451V139.048H25.8333V142.293H183.451V207.14H25.8333V210.385H183.451V275.233H25.8333V278.478H183.451V343.313H25.8333V346.559H183.451V411.276H187.534V346.559H340.506V411.276H344.589V346.559H497.559V411.276H501.642V346.559H654.614V411.276H658.697V346.559H811.668V343.313H658.697V278.478H811.668V275.233H658.697V210.386H811.668V207.14H658.697V142.293L811.668 142.293ZM340.506 343.313H187.534V278.478H340.506V343.313ZM340.506 275.233H187.534V210.386H340.506V275.233ZM340.506 207.14H187.534V142.293H340.506V207.14ZM497.559 343.313H344.589V278.478H497.559V343.313ZM497.559 275.233H344.589V210.386H497.559V275.233ZM497.559 207.14H344.589V142.293H497.559V207.14ZM654.614 343.313H501.642V278.478H654.614V343.313ZM654.614 275.233H501.642V210.386H654.614V275.233ZM654.614 207.14H501.642V142.293H654.614V207.14Z" fill="white"/>
<path d="M270.538 158.064H217.965V198.518H270.538V158.064Z" fill="#CACACA"/>
<path d="M754.558 289.056H701.985V329.51H754.558V289.056Z" fill="#CACACA"/>
<path d="M286.87 356.322H234.297V396.777H286.87V356.322Z" fill="#CACACA"/>
<path d="M302.407 150.558H249.834V191.013H302.407V150.558Z" fill="#6C63FF"/>
<path d="M549.541 318.72L611.928 274.54L630.332 281.788L555.508 344.167L549.541 318.72Z" fill="#FFB6B6"/>
<path d="M620.138 289.724C628.338 289.724 634.985 284.441 634.985 277.923C634.985 271.406 628.338 266.122 620.138 266.122C611.938 266.122 605.291 271.406 605.291 277.923C605.291 284.441 611.938 289.724 620.138 289.724Z" fill="#FFB6B6"/>
<path d="M503.543 392.551C503.543 392.551 540.661 390.191 528.783 442.116C516.906 494.041 492.303 636.081 492.303 636.081L469.997 638.518L456.819 449.04L446.849 638.518L418.48 636.081L390.704 432.675C390.704 432.675 381.785 416.321 390.699 405.026C399.612 393.731 503.543 392.551 503.543 392.551Z" fill="#2F2E41"/>
<path d="M479.787 263.919L490.093 259.531C490.093 259.531 515.483 257.809 525.845 281.516L553.326 314.507L597.867 283.824L617.169 294.445L561.033 347.697L537.692 350.067L487.211 298.142L479.787 263.919Z" fill="#3F3D56"/>
<path d="M442.392 168.173C400.051 168.173 388.2 205.142 388.2 225.998C388.2 246.855 412.462 243.7 442.392 243.7C455.239 243.7 467.033 244.277 476.321 243.291L480.788 234.621L484.383 241.805C492.007 239.578 496.585 235.053 496.585 225.998C496.585 205.142 486.191 168.173 442.392 168.173Z" fill="#2F2E41"/>
<path d="M442.211 243.665C462.351 243.665 478.677 230.688 478.677 214.68C478.677 198.673 462.351 185.696 442.211 185.696C422.071 185.696 405.745 198.673 405.745 214.68C405.745 230.688 422.071 243.665 442.211 243.665Z" fill="#FFB6B6"/>
<path d="M400.078 211.837H414.501L420.864 197.676L422.136 211.837H429.03L432.742 203.576L433.484 211.837H484.707C484.707 203.699 480.64 195.895 473.4 190.141C466.161 184.387 456.342 181.154 446.104 181.154H438.68C428.442 181.154 418.624 184.387 411.384 190.141C404.145 195.895 400.078 203.699 400.078 211.837Z" fill="#2F2E41"/>
<path d="M643.894 233.166H591.321V273.62H643.894V233.166Z" fill="#6C63FF"/>
<path d="M515.081 381.873C509.482 381.93 492.617 302.392 492.617 302.392L490.093 259.531L471.666 259.039V258.075C471.666 256.14 470.699 254.285 468.978 252.917C467.256 251.549 464.922 250.781 462.488 250.781H427.393C425.061 250.782 422.818 251.488 421.119 252.757C419.419 254.026 418.392 255.762 418.245 257.611L403.795 257.225L378.768 320.425C378.768 320.425 401.829 379.147 390.699 405.026C390.699 405.026 499.14 412.428 519.9 395.999C519.9 395.999 520.68 381.816 515.081 381.873Z" fill="#3F3D56"/>
<path d="M410.005 265.099L403.795 257.225C403.795 257.225 383.587 253.254 375.268 263.897C366.948 274.54 342.495 332.208 342.495 332.208L367.735 339.289L396.378 307.372L410.005 265.099Z" fill="#3F3D56"/>
<path d="M473.15 306.333H420.578V346.787H473.15V306.333Z" fill="#6C63FF"/>
<path d="M380.242 320.954L361.952 319.416C360.797 321.375 360.217 323.516 360.257 325.679C360.297 327.842 360.956 329.969 362.183 331.899C363.409 333.83 365.173 335.513 367.339 336.822C369.505 338.131 372.018 339.032 374.687 339.455L447.057 350.935L439.508 332.456L380.242 320.954Z" fill="#FFB6B6"/>
<path d="M447.275 351.148C455.475 351.148 462.122 345.865 462.122 339.347C462.122 332.83 455.475 327.546 447.275 327.546C439.075 327.546 432.428 332.83 432.428 339.347C432.428 345.865 439.075 351.148 447.275 351.148Z" fill="#FFB6B6"/>
<path d="M428.74 351.507L373.606 341.494C369.611 340.759 365.922 339.217 362.896 337.018C359.87 334.818 357.611 332.034 356.335 328.937L354.107 323.475L368.416 314.525L433.971 329.089L428.74 351.507Z" fill="#3F3D56"/>
</g>
<defs>
<clipPath id="clip0_7_203">
<rect width="860" height="665" fill="white"/>
</clipPath>
</defs>
</svg>
