<svg id="Capa_1" data-name="Capa 1" xmlns="http://www.w3.org/2000/svg" viewBox="0 0 143.15 178"><defs><style>.cls-1{fill:#701ef7;}</style></defs><title>Logosvg</title><path class="cls-1" d="M47.2,165.23a6.39,6.39,0,0,0-5.6,7.38,6.21,6.21,0,0,0,7.2,5.49c4.05-.5,6.12-3.13,5.64-7.17A6.27,6.27,0,0,0,47.2,165.23Z" transform="translate(-24.63 -9)"/><path class="cls-1" d="M165.66,166.75a167.66,167.66,0,0,0-33.2-31.91,132.2,132.2,0,0,0-38.37-19.39,110,110,0,0,0-19.16-4,86.39,86.39,0,0,0-11.19-.55,120,120,0,0,0-27.6,3.57,2.76,2.76,0,0,0-1.69,1.37,70.82,70.82,0,0,0-7.87,16.67c-1.82,5.82-2.82,11.74-.93,17.79.86,2.77,1.23,2.93,3.83,1.89a140.59,140.59,0,0,1,23.67-7A158,158,0,0,1,78,141.78c5.46-.27,10.93-.48,16.39-.22a127.44,127.44,0,0,1,30.08,5A108.6,108.6,0,0,1,158.34,163c3.12,2.31,6.09,4.81,9.41,7.44,0-.6.07-.75,0-.83C167.07,168.68,166.41,167.68,165.66,166.75Z" transform="translate(-24.63 -9)"/><path class="cls-1" d="M118.12,25.77c3,8.67,6,17.36,9.31,25.91,6.23,15.89,13.07,31.48,21.81,46.18a46.21,46.21,0,0,0,5.62,8c-.16-1.36-.27-2.73-.5-4.08-.66-4-1.48-7.92-2-11.9-2.41-17.58-4.31-35.21-3.74-53,.28-8.69,1.1-17.33,3.56-25.72.58-2,.44-2.2-1.53-2.2-11.71,0-22.56,3.37-33,8.44a2,2,0,0,0-1.21,2.73C117,22,117.49,23.93,118.12,25.77Z" transform="translate(-24.63 -9)"/><path class="cls-1" d="M67,99a95.16,95.16,0,0,1,18.85,1.49,114.12,114.12,0,0,1,38.61,12.94,92.68,92.68,0,0,1,35.4,34.43c1.71,2.91,3.16,6,4.78,8.93a28.35,28.35,0,0,0-1.29-9A107.8,107.8,0,0,0,149.45,116,124.23,124.23,0,0,0,116,81.13a162,162,0,0,0-33-17.94,2.39,2.39,0,0,0-3.13.7A44.48,44.48,0,0,0,75.92,69c-5.37,8.75-8.32,18.4-10.68,28.28C64.85,98.91,65.74,99.09,67,99Z" transform="translate(-24.63 -9)"/><path class="cls-1" d="M96.59,156.25a9.19,9.19,0,0,0-8.22,10.44c.64,5.58,4.81,9.05,10.18,8.46,5.67-.63,9.19-4.89,8.66-10.5A9.4,9.4,0,0,0,96.59,156.25Z" transform="translate(-24.63 -9)"/><path class="cls-1" d="M128.39,174A6.53,6.53,0,1,0,130,187a6.53,6.53,0,1,0-1.57-13Z" transform="translate(-24.63 -9)"/></svg>