<svg width="20" height="20" viewBox="0 0 20 20" fill="none" xmlns="http://www.w3.org/2000/svg">
<rect width="20" height="19.9999" rx="9.99993" fill="#F93ED0"/>
<path d="M8.3356 10.0255C8.3356 9.10427 9.08201 8.35726 10.003 8.35726C10.924 8.35726 11.6708 9.10427 11.6708 10.0255C11.6708 10.9468 10.924 11.6938 10.003 11.6938C9.08201 11.6938 8.3356 10.9468 8.3356 10.0255ZM7.43402 10.0255C7.43402 11.4448 8.58415 12.5952 10.003 12.5952C11.4219 12.5952 12.572 11.4448 12.572 10.0255C12.572 8.60628 11.4219 7.45582 10.003 7.45582C8.58415 7.45582 7.43402 8.60628 7.43402 10.0255ZM12.0733 7.35393C12.0733 7.47271 12.1084 7.58883 12.1744 7.68761C12.2403 7.78639 12.334 7.8634 12.4437 7.9089C12.5534 7.95439 12.6741 7.96633 12.7906 7.94321C12.907 7.92008 13.014 7.86293 13.098 7.77898C13.182 7.69503 13.2392 7.58805 13.2625 7.47157C13.2857 7.35508 13.2738 7.23433 13.2284 7.12458C13.183 7.01483 13.1061 6.92101 13.0074 6.85498C12.9087 6.78896 12.7927 6.75369 12.6739 6.75364H12.6737C12.5145 6.75372 12.3619 6.81698 12.2493 6.92953C12.1368 7.04209 12.0735 7.19473 12.0733 7.35393ZM7.98179 14.099C7.49402 14.0768 7.2289 13.9955 7.05271 13.9268C6.81913 13.8359 6.65247 13.7275 6.47725 13.5525C6.30202 13.3775 6.19356 13.2109 6.10302 12.9773C6.03434 12.8011 5.95309 12.5359 5.93092 12.0479C5.90666 11.5204 5.90182 11.362 5.90182 10.0256C5.90182 8.68915 5.90706 8.53113 5.93092 8.00318C5.95313 7.51527 6.03498 7.25052 6.10302 7.07385C6.19396 6.8402 6.30226 6.67349 6.47725 6.49822C6.65223 6.32294 6.81873 6.21445 7.05271 6.12389C7.22882 6.05519 7.49402 5.97392 7.98179 5.95174C8.50914 5.92748 8.66756 5.92263 10.003 5.92263C11.3384 5.92263 11.497 5.92788 12.0248 5.95174C12.5126 5.97396 12.7773 6.05583 12.9539 6.12389C13.1875 6.21445 13.3541 6.32319 13.5294 6.49822C13.7046 6.67325 13.8126 6.8402 13.9036 7.07385C13.9723 7.25 14.0535 7.51527 14.0757 8.00318C14.0999 8.53113 14.1048 8.68915 14.1048 10.0256C14.1048 11.362 14.0999 11.52 14.0757 12.0479C14.0535 12.5359 13.9718 12.8011 13.9036 12.9773C13.8126 13.2109 13.7043 13.3776 13.5294 13.5525C13.3544 13.7274 13.1875 13.8359 12.9539 13.9268C12.7778 13.9955 12.5126 14.0768 12.0248 14.099C11.4975 14.1233 11.339 14.1281 10.003 14.1281C8.66696 14.1281 8.50898 14.1233 7.98179 14.099ZM7.94036 5.05142C7.40776 5.07569 7.04383 5.16016 6.72599 5.28387C6.39684 5.41162 6.11819 5.58301 5.83974 5.8611C5.5613 6.13918 5.39039 6.41835 5.26268 6.7476C5.139 7.06572 5.05455 7.42956 5.0303 7.96231C5.00564 8.4959 5 8.66649 5 10.0255C5 11.3846 5.00564 11.5552 5.0303 12.0887C5.05455 12.6215 5.139 12.9853 5.26268 13.3035C5.39039 13.6325 5.56134 13.912 5.83974 14.19C6.11815 14.4679 6.39684 14.6391 6.72599 14.7672C7.04443 14.8909 7.40776 14.9754 7.94036 14.9996C8.47408 15.0239 8.64435 15.0299 10.003 15.0299C11.3617 15.0299 11.5322 15.0243 12.0656 14.9996C12.5983 14.9754 12.962 14.8909 13.28 14.7672C13.609 14.6391 13.8878 14.468 14.1663 14.19C14.4447 13.9119 14.6152 13.6325 14.7433 13.3035C14.867 12.9853 14.9518 12.6215 14.9757 12.0887C15 11.5548 15.0056 11.3846 15.0056 10.0255C15.0056 8.66649 15 8.4959 14.9757 7.96231C14.9514 7.42952 14.867 7.06552 14.7433 6.7476C14.6152 6.41855 14.4443 6.13962 14.1663 5.8611C13.8882 5.58257 13.609 5.41162 13.2804 5.28387C12.962 5.16016 12.5982 5.07529 12.066 5.05142C11.5326 5.02716 11.3621 5.02112 10.0034 5.02112C8.64475 5.02112 8.47408 5.02676 7.94036 5.05142Z" fill="white"/>
</svg>
