<svg width="20" height="20" viewBox="0 0 20 20" fill="none" xmlns="http://www.w3.org/2000/svg">
<rect width="20" height="19.9999" rx="9.99993" fill="black"/>
<path fill-rule="evenodd" clip-rule="evenodd" d="M12.1594 8.64044C12.8292 9.11705 13.6314 9.37169 14.4533 9.3686V7.73838C14.2917 7.73883 14.1306 7.72152 13.9728 7.68676V8.9855C13.1491 8.98696 12.3457 8.7294 11.6762 8.24918V11.602C11.6742 12.1522 11.5234 12.6915 11.2399 13.1629C10.9565 13.6343 10.5508 14.0201 10.066 14.2794C9.58123 14.5387 9.03535 14.6619 8.48628 14.6359C7.93721 14.6099 7.4054 14.4356 6.94727 14.1316C7.37103 14.5607 7.9125 14.8543 8.50311 14.9753C9.09372 15.0962 9.7069 15.039 10.265 14.8109C10.8231 14.5828 11.301 14.1941 11.6383 13.694C11.9755 13.1938 12.1569 12.6048 12.1594 12.0014V8.64044ZM12.7539 6.97761C12.4133 6.60807 12.2042 6.13617 12.1594 5.63539V5.42346H11.7033C11.7597 5.74178 11.8824 6.04467 12.0634 6.31243C12.2444 6.58019 12.4796 6.80682 12.7539 6.97761ZM8.00326 12.841C7.84519 12.6341 7.74832 12.387 7.72368 12.1277C7.69904 11.8684 7.74761 11.6074 7.86387 11.3744C7.98013 11.1414 8.1594 10.9457 8.38129 10.8097C8.60318 10.6736 8.85878 10.6027 9.11898 10.6049C9.26264 10.6048 9.40546 10.6268 9.54247 10.6701V8.9855C9.38231 8.96427 9.22078 8.95519 9.05926 8.95833V10.2679C8.72566 10.1624 8.36459 10.1864 8.04787 10.3352C7.73115 10.4839 7.48198 10.7466 7.34992 11.0709C7.21786 11.3951 7.21259 11.7573 7.33516 12.0853C7.45773 12.4132 7.69915 12.683 8.01141 12.841H8.00326Z" fill="#EE1D52"/>
<path fill-rule="evenodd" clip-rule="evenodd" d="M11.6752 8.23831C12.3448 8.71853 13.1481 8.97609 13.9718 8.97463V7.67589C13.5025 7.57657 13.0762 7.33233 12.7529 6.97761C12.4787 6.80682 12.2434 6.58019 12.0624 6.31243C11.8814 6.04467 11.7588 5.74178 11.7024 5.42346H10.5025V12.0014C10.5014 12.2926 10.4092 12.5761 10.2389 12.8121C10.0686 13.0482 9.82866 13.2249 9.55286 13.3175C9.27707 13.4101 8.97921 13.414 8.70112 13.3285C8.42303 13.243 8.17866 13.0726 8.00232 12.841C7.72285 12.6998 7.49904 12.4686 7.367 12.1845C7.23496 11.9005 7.20239 11.5802 7.27453 11.2753C7.34668 10.9704 7.51935 10.6988 7.76467 10.5042C8.00999 10.3096 8.31366 10.2034 8.62668 10.2027C8.77031 10.2032 8.91305 10.2252 9.05017 10.2679V8.95833C8.45772 8.97256 7.88232 9.15963 7.39459 9.49655C6.90687 9.83348 6.52804 10.3056 6.30463 10.855C6.08121 11.4044 6.02292 12.0071 6.13691 12.5891C6.2509 13.1712 6.53221 13.7073 6.94632 14.1316C7.40455 14.4378 7.93719 14.6138 8.4875 14.641C9.0378 14.6682 9.58517 14.5454 10.0713 14.2858C10.5574 14.0263 10.9641 13.6396 11.2479 13.1669C11.5318 12.6943 11.6823 12.1535 11.6834 11.602L11.6752 8.23831Z" fill="white"/>
<path fill-rule="evenodd" clip-rule="evenodd" d="M13.9721 7.67579V7.32529C13.5411 7.32712 13.1184 7.20653 12.7532 6.97751C13.0756 7.33326 13.5023 7.5777 13.9721 7.67579ZM11.7026 5.42336C11.7026 5.36087 11.6836 5.29566 11.6755 5.23317V5.02124H10.0195V11.6019C10.0181 11.9704 9.87066 12.3232 9.60957 12.583C9.34848 12.8428 8.99508 12.9883 8.62693 12.9876C8.41015 12.9887 8.1962 12.9384 8.00256 12.8409C8.1789 13.0725 8.42327 13.2429 8.70136 13.3284C8.97945 13.4139 9.27731 13.41 9.55311 13.3174C9.82891 13.2248 10.0688 13.0481 10.2391 12.812C10.4094 12.576 10.5016 12.2925 10.5027 12.0013V5.42336H11.7026ZM9.05041 8.95551V8.58328C8.369 8.49063 7.67633 8.63171 7.08529 8.98352C6.49425 9.33532 6.03968 9.87712 5.79567 10.5206C5.55167 11.1641 5.53261 11.8713 5.7416 12.527C5.9506 13.1828 6.37532 13.7483 6.94656 14.1315C6.53559 13.7062 6.25727 13.1703 6.14561 12.5893C6.03394 12.0083 6.09377 11.4073 6.31777 10.8598C6.54177 10.3123 6.92025 9.84189 7.40698 9.50613C7.89371 9.17036 8.4676 8.98376 9.05856 8.9691L9.05041 8.95551Z" fill="#69C9D0"/>
</svg>
