<svg width="20" height="20" viewBox="0 0 20 20" fill="none" xmlns="http://www.w3.org/2000/svg">
<rect width="20" height="20" rx="10" fill="#2CB742"/>
<path d="M5 15L5.71806 12.3346C5.13896 11.2963 4.95498 10.0847 5.19987 8.92212C5.44475 7.75953 6.10209 6.72395 7.05124 6.00541C8.0004 5.28687 9.17771 4.93356 10.3671 5.01032C11.5566 5.08708 12.6783 5.58877 13.5266 6.42331C14.3748 7.25785 14.8927 8.36927 14.9851 9.55362C15.0775 10.738 14.7383 11.9158 14.0296 12.871C13.321 13.8262 12.2906 14.4947 11.1273 14.7538C9.96411 15.0129 8.74615 14.8452 7.69695 14.2815L5 15ZM7.82699 13.2841L7.99379 13.3827C8.75374 13.8317 9.64136 14.0175 10.5183 13.9111C11.3953 13.8048 12.2123 13.4123 12.8421 12.7949C13.4719 12.1774 13.879 11.3697 14.0001 10.4976C14.1212 9.6254 13.9494 8.73782 13.5115 7.97314C13.0736 7.20845 12.3942 6.60961 11.5792 6.26993C10.7642 5.93026 9.8593 5.86883 9.00558 6.09522C8.15186 6.32162 7.39727 6.82311 6.85938 7.52156C6.3215 8.22 6.03054 9.07616 6.03185 9.95662C6.03114 10.6867 6.23372 11.4026 6.61704 12.0247L6.72164 12.1966L6.32021 13.6842L7.82699 13.2841Z" fill="white"/>
<path fill-rule="evenodd" clip-rule="evenodd" d="M11.8752 10.641C11.7774 10.5624 11.6629 10.5071 11.5404 10.4793C11.418 10.4514 11.2907 10.4518 11.1684 10.4804C10.9847 10.5565 10.8659 10.8439 10.7472 10.9876C10.7222 11.022 10.6854 11.0462 10.6437 11.0555C10.6021 11.0649 10.5585 11.0587 10.521 11.0383C9.84831 10.7757 9.28442 10.2941 8.92096 9.6718C8.88996 9.63296 8.87529 9.58365 8.88004 9.53425C8.88478 9.48485 8.90858 9.43922 8.94641 9.40695C9.07883 9.27629 9.17606 9.11446 9.22911 8.93642C9.24088 8.74004 9.19574 8.54443 9.09906 8.37292C9.02432 8.13246 8.88208 7.91834 8.68915 7.75588C8.58964 7.71127 8.4793 7.69632 8.37146 7.71281C8.26361 7.72931 8.16285 7.77656 8.08135 7.84886C7.93985 7.97053 7.82753 8.12229 7.75268 8.29295C7.67782 8.46362 7.64233 8.64884 7.64881 8.83499C7.64925 8.93952 7.66254 9.04361 7.68839 9.14492C7.75404 9.38833 7.85499 9.62088 7.98805 9.83521C8.08406 9.9994 8.18881 10.1583 8.30185 10.3114C8.66923 10.814 9.13104 11.2408 9.66164 11.568C9.9279 11.7343 10.2125 11.8695 10.5097 11.9709C10.8185 12.1104 11.1595 12.164 11.4964 12.1259C11.6883 12.0969 11.8702 12.0214 12.0259 11.9059C12.1817 11.7905 12.3066 11.6386 12.3897 11.4637C12.4385 11.3581 12.4533 11.24 12.4321 11.1256C12.3812 10.8918 12.0674 10.7537 11.8752 10.641Z" fill="white"/>
</svg>
